<?xml version="1.0" standalone="no"?>
<!DOCTYPE svg PUBLIC "-//W3C//DTD SVG 1.1//EN" "http://www.w3.org/Graphics/SVG/1.1/DTD/svg11.dtd" >
<svg xmlns="http://www.w3.org/2000/svg" xmlns:xlink="http://www.w3.org/1999/xlink" version="1.1">
<metadata>
Created by FontForge 20200427 at Wed Nov  5 22:52:02 2014
 By www
Font software Copyright 1988, 1994, 2001 Adobe Systems Incorporated. Typeface designs Copyright 2008 International Typeface Corporation. All rights reserved.
</metadata>
<defs>
<font id="ClearfaceITCW04-BlackItalic" horiz-adv-x="611" >
  <font-face 
    font-family="ClearfaceITCW04-BlackItalic"
    font-weight="900"
    font-style="italic"
    font-stretch="normal"
    units-per-em="1000"
    panose-1="2 7 10 3 5 7 5 9 4 4"
    ascent="800"
    descent="-200"
    x-height="494"
    cap-height="700"
    bbox="-233 -292 1102 985"
    underline-thickness="50"
    underline-position="-125"
    slope="-17"
    unicode-range="U+0020-FB04"
  />
<missing-glyph 
d="M111 700h500v-700h-500v700zM531 650h-340l170 -255zM561 95v510l-170 -255zM531 50l-170 255l-170 -255h340zM161 95l170 255l-170 255v-510z" />
    <glyph glyph-name="IJ" unicode="IJ" horiz-adv-x="945" 
d="M164 630l-48 7l18 63h314l-20 -63l-45 -7l-159 -561l50 -6l-20 -63h-313l17 63l49 6zM985 637l-44 -5l-108 -395q-33 -121 -113.5 -186.5t-208.5 -65.5q-27 0 -59 6t-59 20t-45 37t-18 58q0 47 27.5 76t75.5 29q25 0 45 -11.5t34.5 -29.5t22 -40.5t7.5 -45.5
q0 -10 1 -17.5t7 -7.5q11 0 20.5 18.5t17.5 43t13.5 47.5t8.5 32l117 430l-53 7l16 63h312z" />
    <glyph glyph-name="ij" unicode="ij" horiz-adv-x="658" 
d="M54 439l218 55q5 -15 8 -31t3 -34t-3.5 -34.5t-11.5 -36.5l-81 -219q-9 -24 -9 -34q0 -7 3 -12t11 -5t22 8t25 19l8 -57q-29 -27 -66.5 -49.5t-79.5 -22.5q-47 0 -75.5 26t-28.5 74q0 12 3 30t15 50l58 160q5 12 6.5 20.5t1.5 13.5q0 16 -9 21.5t-32 5.5zM246 734
q45 0 74.5 -31t29.5 -76t-29.5 -76t-74.5 -31t-74.5 31t-29.5 76t29.5 76t74.5 31zM383 436l263 58l-128 -425q-17 -58 -38.5 -109.5t-54 -90t-78.5 -61t-113 -22.5q-25 0 -50 6t-45.5 19t-33.5 33.5t-13 49.5q0 36 25.5 56.5t59.5 20.5q24 0 40 -9.5t25 -24.5t13 -34.5
t4 -39.5q0 -11 9 -11t15 16t11 36l112 409q5 19 9 31t4 20q0 7 -6 11t-14.5 5.5t-17 2t-13.5 0.5zM572 734q21 0 40 -9t33 -23.5t22 -34t8 -40.5t-8 -40.5t-21.5 -34.5t-32.5 -23.5t-41 -8.5q-23 0 -42 8.5t-33 23t-22 34t-8 41.5t8 41.5t22.5 34t33.5 23t41 8.5z" />
    <glyph glyph-name="napostrophe" unicode="&#x27;n" horiz-adv-x="752" 
d="M107 0q31 74 58.5 149t48.5 153q2 8 4 17t2 18q0 8 -4 14.5t-13 6.5q-6 0 -11.5 -2.5t-10.5 -6.5l-23 46l169 99q31 -21 46.5 -51.5t19.5 -58.5q15 20 34 39.5t41.5 35.5t47 25.5t50.5 9.5q53 0 88 -29.5t35 -85.5q0 -11 -2.5 -25.5t-7.5 -29.5l-56 -166
q-6 -17 -10 -30.5t-4 -21.5q0 -20 16 -20q11 0 20 6t18 17l15 -55q-22 -29 -62.5 -48.5t-82.5 -19.5q-20 0 -40 5t-35.5 15.5t-25 27t-9.5 39.5q0 11 2.5 26t8.5 32l65 183q8 20 11 34t3 19q0 10 -4.5 18.5t-14.5 8.5q-23 0 -45 -24t-42 -61t-37.5 -83t-30.5 -89.5
t-21.5 -80.5t-10.5 -56h-200zM-4 431q8 4 25.5 13.5t35 20.5t31 23t13.5 22q0 7 -10 14.5t-21.5 18.5t-21.5 28.5t-10 44.5q0 42 27.5 70.5t69.5 28.5q51 0 80.5 -34t29.5 -83q0 -40 -22.5 -75t-55.5 -64t-71.5 -51t-71.5 -35z" />
    <glyph glyph-name="uniFB00" unicode="ff" horiz-adv-x="652" 
d="M-41 0q15 36 28 72t27.5 82.5t32.5 109t44 150.5h-49l19 66h50q36 137 104.5 210.5t165.5 73.5q25 0 43.5 -8t29.5 -20.5t16.5 -27.5t5.5 -29q0 -31 -19 -55.5t-57 -24.5q-20 0 -32.5 8t-21 20t-13 27t-7.5 30q-15 0 -23.5 -13t-8.5 -48q0 -12 -0.5 -27t-1.5 -30.5
t-2.5 -30.5t-3.5 -27l-5 -28h152q15 55 38.5 106.5t57 91t78 63t101.5 23.5q27 0 46 -7.5t31.5 -19.5t18.5 -27.5t6 -30.5q0 -37 -20 -59.5t-55 -22.5q-36 0 -57 26t-30 61q-15 0 -23.5 -13t-8.5 -48q0 -12 -0.5 -27t-1.5 -30.5t-2.5 -30.5t-3.5 -27l-5 -28h79l-18 -66h-75
q-19 -66 -34 -120t-28 -103t-24 -95t-21 -96h-201q15 35 27.5 72t27.5 84.5t33 109.5t43 148h-145q-19 -66 -34 -120t-28 -103t-24 -95t-21 -96h-201z" />
    <glyph glyph-name="uniFB01" unicode="fi" horiz-adv-x="629" 
d="M42 414l19 66h47q15 61 43 113.5t69 90t96 59t126 21.5q75 0 114.5 -28.5t39.5 -78.5q0 -15 -6 -29.5t-17 -26.5t-27 -19t-37 -7q-34 0 -53 17.5t-28 39t-11 40t-2 20.5q0 5 -5.5 5.5t-8.5 0.5q-20 0 -35.5 -12.5t-27.5 -32t-21 -44t-15.5 -48.5t-11 -45.5t-8.5 -35.5h88
q27 0 59.5 0.5t63.5 2t55 4t35 7.5q2 -10 3 -21.5t1 -20.5q0 -25 -7.5 -56t-22.5 -74l-52 -152q-7 -20 -11 -34t-4 -18q0 -5 2 -13.5t9 -8.5q14 0 22 8t19 15l12 -56q-29 -29 -65.5 -53t-79.5 -24q-47 0 -73.5 30.5t-26.5 75.5q0 24 13 63.5t28 82t28 82.5t13 65
q0 14 -8.5 21.5t-28.5 7.5h-92l-58 -212q-14 -50 -28 -99.5t-19 -102.5h-198q39 103 68 207t60 207h-45z" />
    <glyph glyph-name="uniFB02" unicode="fl" horiz-adv-x="635" 
d="M554 56q-29 -27 -66 -48.5t-79 -21.5q-52 0 -75 27t-23 70q0 18 3.5 37.5t10.5 42.5l145 458q-9 6 -16 15.5t-12.5 20t-8.5 19.5t-4 14q-25 0 -45 -7t-37 -25t-31 -50t-27 -81l-12 -47h80l-21 -66h-76q-27 -106 -58 -207.5t-51 -206.5h-192q34 103 64.5 205.5t60.5 208.5
h-45l18 66h48q18 72 52.5 124.5t80 86.5t100 50.5t114.5 16.5q24 0 47 -3t39 -8q15 2 35 4.5t42 4.5t43 4t36 4q-8 -18 -15 -35.5t-13 -36.5l-164 -536q-5 -18 -8 -29.5t-3 -18.5q0 -5 2 -8.5t10 -3.5q13 0 21.5 7t17.5 14z" />
    <glyph glyph-name="uniFB03" unicode="ffi" horiz-adv-x="955" 
d="M61 480h50q36 137 104.5 210.5t165.5 73.5q25 0 43.5 -8t29.5 -20.5t16.5 -27.5t5.5 -29q0 -31 -19 -55.5t-57 -24.5q-20 0 -32.5 8t-21 20t-13 27t-7.5 30q-15 0 -23.5 -13t-8.5 -48q0 -12 -0.5 -27t-1.5 -30.5t-2.5 -30.5t-3.5 -27l-5 -28h152q15 61 43 113.5t69 90
t96 59t126 21.5q75 0 114.5 -28.5t39.5 -78.5q0 -15 -6 -29.5t-17 -26.5t-27 -19t-37 -7q-34 0 -53 17.5t-28 39t-11 40t-2 20.5q0 5 -5.5 5.5t-8.5 0.5q-20 0 -35.5 -12.5t-27.5 -32t-21 -44t-15.5 -48.5t-11 -45.5t-8.5 -35.5h88q27 0 59.5 0.5t63.5 2t55 4t35 7.5
q2 -10 3 -22t1 -24q-1 -27 -9 -59.5t-19 -64.5l-54 -154q-7 -20 -11 -34t-4 -18q0 -5 2 -13.5t9 -8.5q14 0 22 8t19 15l12 -56q-29 -29 -65.5 -53t-79.5 -24q-47 0 -73.5 30.5t-26.5 75.5q0 24 13 63.5t28 82t28 82.5t13 65q0 14 -8.5 21.5t-28.5 7.5h-92
q-20 -70 -35 -124.5t-27 -102.5t-22.5 -92.5t-20.5 -94.5h-201q15 35 27.5 72t27.5 84.5t33 109.5t43 148h-145q-19 -66 -34 -120t-28 -103t-24 -95t-21 -96h-201q15 36 28 72t27.5 82.5t32.5 109t44 150.5h-49z" />
    <glyph glyph-name="uniFB04" unicode="ffl" horiz-adv-x="963" 
d="M267 414q-19 -66 -34 -120t-28 -103t-24 -95t-21 -96h-201q15 36 28 72t27.5 82.5t32.5 109t44 150.5h-49l19 66h50q36 137 106 210.5t167 73.5q25 0 43.5 -8t30 -20.5t17 -27.5t5.5 -29q0 -31 -19 -55.5t-57 -24.5q-20 0 -33 8t-22 20t-14 27t-8 30q-15 0 -23.5 -13
t-8.5 -48q0 -12 -0.5 -27t-2 -30.5t-3 -30.5t-3.5 -27l-5 -28h152q18 72 52.5 124.5t80 86.5t100 50.5t114.5 16.5q24 0 47 -3t39 -8q15 2 35 4.5t42 4.5t43 4t36 4q-8 -18 -15 -35.5t-13 -36.5l-164 -536q-5 -18 -8 -29.5t-3 -18.5q0 -5 2 -8.5t10 -3.5q13 0 21.5 7
t17.5 14l12 -61q-29 -27 -66 -48.5t-79 -21.5q-52 0 -75 27t-23 70q0 18 3.5 37.5t10.5 42.5l145 458q-9 6 -16 15.5t-12.5 20t-8.5 19.5t-4 14q-25 0 -45 -7t-37 -25t-31 -50t-27 -81l-12 -47h80l-21 -66h-76q-27 -106 -58 -207.5t-51 -206.5h-192q34 103 64.5 205.5
t60.5 208.5h-145z" />
    <glyph glyph-name=".notdef" 
d="M111 700h500v-700h-500v700zM531 650h-340l170 -255zM561 95v510l-170 -255zM531 50l-170 255l-170 -255h340zM161 95l170 255l-170 255v-510z" />
    <glyph glyph-name=".null" horiz-adv-x="0" 
 />
    <glyph glyph-name="nonmarkingreturn" horiz-adv-x="333" 
 />
    <glyph glyph-name="space" unicode=" " horiz-adv-x="305" 
 />
    <glyph glyph-name="exclam" unicode="!" horiz-adv-x="333" 
d="M101 237q4 22 7.5 41t6.5 41q3 24 5 49t3 54.5t1.5 66.5t0.5 86q0 65 32 102.5t99 37.5q20 0 42.5 -5t41 -16.5t30.5 -28.5t12 -41q0 -30 -14.5 -61.5t-30.5 -56.5q-20 -32 -41.5 -64t-41 -65t-36.5 -68t-29 -72h-88zM100 198q22 0 41.5 -8.5t34 -23.5t22.5 -34t8 -40
t-8 -40t-22.5 -34t-34 -23.5t-41.5 -8.5q-23 0 -42 8.5t-33.5 23.5t-22.5 34t-8 40t8 40t22.5 34t33.5 23.5t42 8.5z" />
    <glyph glyph-name="quotedbl" unicode="&#x22;" horiz-adv-x="333" 
d="M163 430q-1 -6 -8 -18.5t-23 -12.5t-23 12.5t-8 18.5l-20 204q0 5 -0.5 11t-0.5 14q0 10 2.5 20t8.5 18t16 13t25 5q16 0 26 -5t16 -13t8 -18t2 -20v-14t-1 -11zM342 430q-1 -6 -8 -18.5t-23 -12.5t-23 12.5t-8 18.5l-20 204q0 5 -0.5 11t-0.5 14q0 10 2.5 20t8.5 18
t16 13t25 5q16 0 26 -5t16 -13t8 -18t2 -20v-14t-1 -11z" />
    <glyph glyph-name="numbersign" unicode="#" 
d="M519 197h-86l-27 -197h-100l27 197h-91l-27 -197h-100l27 197h-85l4 95h95l16 116h-85l4 95h94l27 197h100l-27 -197h91l27 197h100l-27 -197h77l-4 -95h-86l-16 -116h76zM272 408l-16 -116h91l16 116h-91z" />
    <glyph glyph-name="dollar" unicode="$" 
d="M357 637q-35 -5 -59 -25t-24 -64q0 -20 10 -35.5t29 -29.5zM267 63q21 0 39.5 7.5t33 21.5t22.5 33.5t8 43.5q0 28 -14.5 48t-36.5 35zM405 807h73l-32 -109q88 -9 128 -41.5t40 -81.5q0 -20 -7.5 -35t-19.5 -25t-27 -15.5t-30 -5.5q-39 0 -60 23t-21 56q0 32 -6.5 45.5
t-14.5 16.5l-54 -189q27 -15 53.5 -32.5t48.5 -41.5t35.5 -57t13.5 -79q0 -53 -21.5 -96.5t-59 -74.5t-88.5 -48t-109 -17l-31 -109h-72l32 112q-32 3 -64.5 12t-58.5 25.5t-42.5 42t-16.5 61.5q0 38 26 62t63 24q20 0 37 -9t29 -23t18.5 -32.5t6.5 -37.5q0 -17 -2 -28
t-2 -22q10 -6 27 -9l61 223q-25 15 -49.5 31t-44.5 37.5t-32.5 50t-12.5 67.5q0 55 21 96.5t56.5 69.5t81.5 42t97 14z" />
    <glyph glyph-name="percent" unicode="%" horiz-adv-x="944" 
d="M273 663q-15 0 -28 -19.5t-25 -48.5t-21.5 -63.5t-16 -65.5t-10.5 -53t-4 -26q0 -6 0.5 -14t4 -15.5t10.5 -12.5t20 -5q14 0 27.5 19.5t25.5 48.5t21.5 63.5t16.5 65.5t10.5 53t3.5 26q0 6 -0.5 14t-4 15.5t-10.5 12.5t-20 5zM632 715h72l-412 -730h-72zM719 360
q-15 0 -28 -19.5t-25 -48.5t-21.5 -63.5t-16 -65.5t-10.5 -53t-4 -26q0 -6 0.5 -14t4 -15.5t10.5 -12.5t20 -5q14 0 27.5 19.5t25.5 48.5t21.5 63.5t16.5 65.5t10.5 53t3.5 26q0 6 -0.5 14t-4 15.5t-10.5 12.5t-20 5zM260 715q36 0 65.5 -15t50.5 -39.5t32.5 -56.5t11.5 -66
q0 -45 -12.5 -89.5t-38 -80.5t-63.5 -58t-89 -22q-36 0 -65.5 15t-50.5 40t-33 57t-12 66q0 45 12.5 89.5t38 80t64 57.5t89.5 22zM706 412q36 0 65.5 -15t50.5 -39.5t32.5 -56.5t11.5 -66q0 -45 -12.5 -89.5t-38 -80.5t-63.5 -58t-89 -22q-36 0 -65.5 15t-50.5 40t-33 57
t-12 66q0 45 12.5 89.5t38 80t64 57.5t89.5 22z" />
    <glyph glyph-name="ampersand" unicode="&#x26;" horiz-adv-x="778" 
d="M428 422q4 -14 10 -35.5t13 -44.5t14 -44t12 -33l44 66q13 20 28.5 38t34 32t40.5 22t49 8q45 0 69 -27.5t24 -67.5q0 -14 -5 -29.5t-16.5 -29t-29 -22t-42.5 -8.5q-24 0 -42 14t-33 36q-11 0 -23.5 -16.5t-21.5 -30.5l-44 -69q4 -12 9.5 -27t14 -27.5t20 -21.5t26.5 -9
q20 0 36 12t31 24l36 -63q-37 -35 -79.5 -59.5t-95.5 -24.5q-35 0 -66 10t-58 42q-15 -11 -34.5 -20t-41 -16.5t-42.5 -11.5t-39 -4q-46 0 -86.5 14.5t-71 41.5t-48.5 65.5t-18 87.5q0 52 18.5 93.5t50 72.5t73.5 51t89 29q-1 17 -2.5 34.5t-1.5 34.5q0 45 15 83t42.5 65.5
t66 42.5t84.5 15q31 0 62 -7.5t56 -23.5t40.5 -41.5t15.5 -61.5q0 -38 -16.5 -65t-43 -46t-59 -30.5t-64.5 -17.5zM248 373q-15 -5 -26 -15.5t-17.5 -24.5t-9.5 -29.5t-3 -29.5q0 -23 7 -53t21 -58t35 -47t49 -19q19 0 33 7q-30 65 -52.5 132t-36.5 137zM412 483
q17 5 32.5 15.5t27.5 24.5t19.5 30.5t7.5 34.5q0 23 -11.5 39.5t-36.5 16.5q-16 0 -26 -7t-15.5 -17.5t-7.5 -24.5t-2 -27q0 -20 3.5 -44t8.5 -41z" />
    <glyph glyph-name="quotesingle" unicode="'" horiz-adv-x="222" 
d="M192 430q-1 -6 -8 -18.5t-23 -12.5t-23 12.5t-8 18.5l-20 204q0 5 -0.5 11t-0.5 14q0 10 2.5 20t8.5 18t16 13t25 5q16 0 26 -5t16 -13t8 -18t2 -20v-14t-1 -11z" />
    <glyph glyph-name="parenleft" unicode="(" horiz-adv-x="444" 
d="M458 725q-54 -57 -99 -141t-77 -177t-49.5 -186.5t-17.5 -171.5q0 -45 7 -89.5t21 -87.5l-40 -18q-61 88 -100.5 188t-39.5 209q0 86 30.5 163t82 143t118.5 118.5t140 88.5z" />
    <glyph glyph-name="parenright" unicode=")" horiz-adv-x="444" 
d="M-43 -107q54 57 99 141t77 177t49.5 186.5t17.5 171.5q0 45 -7 89.5t-21 87.5l40 18q61 -88 100.5 -188t39.5 -209q0 -86 -30.5 -163t-82 -143t-118.5 -118.5t-140 -88.5z" />
    <glyph glyph-name="asterisk" unicode="*" horiz-adv-x="500" 
d="M310 516q16 8 30 15.5t28 20.5q15 15 34 33t42 18q26 0 40.5 -20t14.5 -44q0 -29 -16.5 -42t-43.5 -13q-20 0 -46 8t-55 8q-6 0 -12 -1t-11 -2l-4 -16q15 -10 30.5 -19.5t38.5 -14.5q46 -10 62.5 -23.5t16.5 -41.5q0 -23 -17.5 -42t-46.5 -19q-26 0 -38 18.5t-20 43.5
t-16 49.5t-25 35.5l-15 -3q0 -8 -0.5 -14.5t-0.5 -14.5q0 -27 8 -53.5t8 -53.5t-16.5 -38t-41.5 -11t-41.5 14.5t-16.5 40.5q0 21 12 37t27 30.5t28 30.5t15 37l-10 11q-27 -11 -44 -26t-30.5 -28.5t-28.5 -22.5t-37 -9q-24 0 -36 20.5t-12 41.5q0 25 13.5 39t38.5 14
q13 0 25.5 -2.5t24.5 -4.5q12 -3 24 -5.5t23 -2.5q10 0 18 1.5t17 3.5l3 13q-21 17 -43.5 27t-59.5 19q-21 5 -33.5 18t-12.5 35q0 26 18 44t42 18q22 0 38.5 -16.5t27.5 -53.5q7 -24 16.5 -43.5t20.5 -33.5l14 3q1 5 1.5 11t0.5 12q0 29 -8 54.5t-8 49.5q0 23 15 40.5
t41 17.5q23 0 41.5 -13.5t18.5 -42.5q0 -18 -13 -34t-28 -32.5t-28 -33t-13 -34.5z" />
    <glyph glyph-name="plus" unicode="+" horiz-adv-x="600" 
d="M202 483h115v-184h183v-115h-183v-184h-115v184h-182v115h182v184z" />
    <glyph glyph-name="comma" unicode="," horiz-adv-x="305" 
d="M-72 -84q9 6 27 15.5t36 20.5t31.5 22t13.5 22q0 7 -10.5 15.5t-22.5 21t-22.5 31t-10.5 45.5q0 21 8 40t22.5 33t33.5 22.5t40 8.5q25 0 45 -10t34.5 -27t22.5 -38.5t8 -45.5q0 -44 -24 -84t-58 -66q-33 -26 -70.5 -46.5t-75.5 -38.5z" />
    <glyph glyph-name="hyphen" unicode="-" horiz-adv-x="333" 
d="M35 313h247l-48 -146h-243z" />
    <glyph glyph-name="period" unicode="." horiz-adv-x="305" 
d="M81 213q25 0 45.5 -9t35 -24.5t22.5 -36t8 -44.5q0 -48 -30.5 -80.5t-80.5 -32.5t-80.5 32.5t-30.5 80.5q0 24 8 44.5t22.5 36t35 24.5t45.5 9z" />
    <glyph glyph-name="slash" unicode="/" horiz-adv-x="278" 
d="M-56 -15l274 730h116l-275 -730h-115z" />
    <glyph glyph-name="zero" unicode="0" 
d="M375 715q56 0 97.5 -21t68.5 -56.5t40.5 -82t13.5 -98.5q0 -47 -11 -100t-31.5 -105.5t-50.5 -101t-69 -85t-86.5 -58.5t-101.5 -22q-56 0 -97.5 21t-69 56.5t-41 82t-13.5 98.5q0 47 11 100t31.5 105.5t51 101t69.5 85t86 58.5t102 22zM232 57q32 0 53.5 44t47.5 132
q7 22 16 53.5t19 67t19.5 72.5t17 69.5t12 58t4.5 39.5q0 19 -6.5 34.5t-28.5 15.5q-14 0 -25.5 -8t-22.5 -28t-23.5 -54t-28.5 -86q-7 -22 -16 -53.5t-19 -67t-19.5 -72.5t-17 -69.5t-12 -58.5t-4.5 -39q0 -19 6.5 -34.5t27.5 -15.5z" />
    <glyph glyph-name="one" unicode="1" 
d="M-1 0l15 63l128 12l115 392q7 23 11 40.5t4 23.5q0 29 -16 43t-45 14q-11 0 -22.5 -0.5t-22.5 -0.5l17 64q91 7 178 24t175 40l-188 -642l127 -10l-16 -63h-460z" />
    <glyph glyph-name="two" unicode="2" 
d="M405 -15q-28 10 -62 13q-16 2 -31.5 2h-31.5h-339l6 29q15 74 53 122.5t85.5 83.5t99 62.5t94.5 60t70.5 75.5t27.5 109q0 43 -25 72t-70 29q-5 0 -14 -1.5t-18 -5t-15.5 -8.5t-6.5 -12t7 -13.5t15 -16.5t15 -25t7 -37q0 -43 -28.5 -67t-69.5 -24q-37 0 -64.5 23
t-27.5 61q0 49 20.5 86t54.5 62t76.5 37.5t87.5 12.5q51 0 99.5 -11.5t85.5 -37t59.5 -66.5t22.5 -99q0 -65 -27 -107.5t-70 -70t-95.5 -45t-103.5 -32.5t-94 -32t-66 -44h164q43 0 80.5 10t63.5 48l74 -12z" />
    <glyph glyph-name="three" unicode="3" 
d="M315 258q0 12 -2 27.5t-7.5 29t-15.5 23t-26 9.5q-11 0 -23 -2t-23 -2q-14 0 -25 7t-11 22q0 16 7.5 30t26.5 14q17 0 27.5 -6.5t24.5 -6.5q32 0 54.5 14t37 36.5t21 50.5t6.5 56q0 33 -13 58t-52 25q-4 0 -10 -0.5t-12 -2t-10 -4.5t-4 -8q0 -9 3 -21t3 -24
q0 -34 -24 -56t-57 -22q-18 0 -35 4.5t-30 13.5t-21 23.5t-8 35.5q0 43 22.5 69t55.5 40t71.5 19t71.5 5q38 0 82.5 -9.5t82.5 -30.5t63.5 -54t25.5 -79t-20.5 -77.5t-53 -51.5t-73.5 -30t-82 -13v-1q33 -11 61.5 -23.5t49.5 -30.5t33.5 -44t12.5 -66q0 -61 -28.5 -103
t-72.5 -68t-98 -37.5t-105 -11.5q-54 0 -99 9.5t-77 28.5t-50 46.5t-18 62.5q0 44 26.5 74.5t72.5 30.5q20 0 38.5 -6.5t32.5 -19t22 -30t8 -38.5q0 -17 -4 -28t-8.5 -18.5t-8 -12.5t-3.5 -10q0 -11 11 -14t19 -3q41 0 67.5 19.5t42 49t21.5 65t6 67.5z" />
    <glyph glyph-name="four" unicode="4" 
d="M247 170h-253l24 84q48 42 96 96t92.5 113t82 119.5t63.5 117.5h227q-58 -80 -111.5 -143t-111.5 -117t-125 -102.5t-152 -99.5v-2h186l34 125q69 29 131 78.5t117 119.5l-91 -323h90l-19 -66h-89l-29 -101l67 -6l-17 -63h-328l18 63l70 6z" />
    <glyph glyph-name="five" unicode="5" 
d="M78 337l121 363h296q49 0 61 35h83l-85 -195h-332l-38 -114q53 31 116 31q48 0 91 -14.5t75.5 -42t51.5 -67t19 -89.5q0 -68 -28 -116.5t-73.5 -80.5t-103 -47t-116.5 -15q-35 0 -76.5 7t-77 24.5t-59.5 47t-24 74.5t30.5 71.5t73.5 26.5q19 0 36 -7t30.5 -19t21.5 -29
t8 -36q0 -14 -3 -24t-6 -17.5t-6 -13.5t-3 -13q0 -6 4 -10t10 -6t12 -3t10 -1q31 0 55.5 21.5t40.5 53t24.5 66t8.5 60.5q0 21 -3.5 41t-12.5 35.5t-25.5 24.5t-41.5 9q-32 0 -54 -16t-42 -39z" />
    <glyph glyph-name="six" unicode="6" 
d="M438 715q28 0 61.5 -7t63 -22.5t49 -40t19.5 -58.5q0 -19 -7 -36t-19.5 -30t-29.5 -20.5t-36 -7.5q-45 0 -71.5 27.5t-26.5 72.5q0 8 4.5 19.5t4.5 19.5q0 4 -4 6.5t-9.5 3.5t-11 1h-7.5q-24 0 -44 -13.5t-36.5 -36t-29.5 -50t-22 -55.5t-14.5 -53.5t-7.5 -42.5
q16 14 30.5 25t29.5 19t32.5 12.5t39.5 4.5q39 0 69 -15.5t51 -41.5t31.5 -60t10.5 -70q0 -57 -22 -108.5t-60.5 -89.5t-89 -60.5t-107.5 -22.5q-56 0 -102.5 17.5t-79.5 50t-51.5 78.5t-18.5 103q0 90 27.5 176.5t80.5 154t129 109t174 41.5zM306 353q-18 0 -32.5 -13.5
t-26 -34.5t-20.5 -47t-14.5 -51.5t-8.5 -47.5t-3 -34q0 -32 11 -50t36 -18q18 0 32.5 14t26 35.5t20.5 48t14.5 52.5t8.5 48t3 35q0 63 -47 63z" />
    <glyph glyph-name="seven" unicode="7" 
d="M616 607q-3 -12 -7.5 -20.5t-7.5 -11.5q-38 -38 -84.5 -91.5t-87 -117.5t-68 -135t-27.5 -144q0 -46 -27 -74t-83 -28q-58 0 -88 25.5t-30 81.5q0 38 19 80.5t49.5 84.5t69.5 82.5t79.5 76t78 64.5t66.5 48l-2 2h-177q-43 0 -81 -10.5t-62 -49.5l-67 24l120 221
q27 -8 50 -12q25 -3 51 -3h342z" />
    <glyph glyph-name="eight" unicode="8" 
d="M600 546q0 -30 -12 -55t-32 -45t-45.5 -34t-52.5 -22q35 -32 60 -73.5t25 -91.5q0 -58 -22.5 -102.5t-60.5 -75t-87.5 -46.5t-103.5 -16q-45 0 -92.5 9t-86.5 30.5t-63.5 58t-24.5 90.5q0 36 15 65.5t39 51.5t54.5 37.5t61.5 24.5q-31 28 -49 67t-18 76q0 50 23 90.5
t60.5 69.5t84.5 44.5t96 15.5q40 0 81 -8.5t74.5 -28.5t54.5 -52t21 -80zM222 310q-34 -26 -59.5 -57t-25.5 -76q0 -62 38 -91t96 -29q43 0 72.5 24t29.5 69q0 24 -10.5 43t-27 35.5t-36.5 30.5t-39 26zM404 426q28 26 44.5 51.5t16.5 66.5q0 43 -24 71t-73 28
q-41 0 -67 -18t-26 -60q0 -20 7 -35t18 -27.5t25 -23t29 -19.5z" />
    <glyph glyph-name="nine" unicode="9" 
d="M307 347q18 0 32.5 13.5t26 34.5t20.5 47t14.5 51.5t8.5 47t3 34.5q0 32 -11 50t-36 18q-18 0 -32.5 -14t-26 -35.5t-20.5 -48t-14.5 -52.5t-8.5 -48.5t-3 -34.5q0 -63 47 -63zM175 -15q-28 0 -61.5 5t-63 18.5t-49 36t-19.5 58.5q0 45 26.5 74.5t65.5 29.5
q45 0 71.5 -27.5t26.5 -72.5q0 -8 -4.5 -19.5t-4.5 -19.5t9 -9.5t23 -1.5q24 0 44 13.5t36.5 36t29.5 50t22 55.5t14.5 53t7.5 43q-17 -14 -31 -25t-29 -19t-32.5 -12.5t-39.5 -4.5q-39 0 -69 15.5t-51 41.5t-31.5 60t-10.5 70q0 57 22 108.5t60.5 89.5t89 60.5t107.5 22.5
q56 0 102.5 -17.5t79.5 -50t51.5 -78.5t18.5 -103q0 -90 -27.5 -176.5t-80.5 -154t-129.5 -109t-173.5 -41.5z" />
    <glyph glyph-name="colon" unicode=":" horiz-adv-x="305" 
d="M158 494q25 0 45.5 -9t35 -24.5t22.5 -36t8 -44.5q0 -48 -30.5 -80.5t-80.5 -32.5t-80.5 32.5t-30.5 80.5q0 24 8 44.5t22.5 36t35 24.5t45.5 9zM81 213q25 0 45.5 -9t35 -24.5t22.5 -36t8 -44.5q0 -48 -30.5 -80.5t-80.5 -32.5t-80.5 32.5t-30.5 80.5q0 24 8 44.5
t22.5 36t35 24.5t45.5 9z" />
    <glyph glyph-name="semicolon" unicode=";" horiz-adv-x="305" 
d="M-70 -84q9 6 27 15.5t36 20.5t31.5 22t13.5 22q0 7 -10.5 15.5t-22.5 21t-22.5 31t-10.5 45.5q0 21 8 40t22.5 33t33.5 22.5t40 8.5q25 0 45 -10t34.5 -27t22.5 -38.5t8 -45.5q0 -44 -21.5 -82t-60.5 -68q-33 -26 -70.5 -46.5t-75.5 -38.5zM164 494q25 0 45.5 -9
t35 -24.5t22.5 -36t8 -44.5q0 -48 -30.5 -80.5t-80.5 -32.5t-80.5 32.5t-30.5 80.5q0 24 8 44.5t22.5 36t35 24.5t45.5 9z" />
    <glyph glyph-name="less" unicode="&#x3c;" horiz-adv-x="600" 
d="M500 -19l-480 214v94l480 214v-115l-335 -146l335 -146v-115z" />
    <glyph glyph-name="equal" unicode="=" horiz-adv-x="600" 
d="M500 286h-480v115h480v-115zM500 82h-480v115h480v-115z" />
    <glyph glyph-name="greater" unicode="&#x3e;" horiz-adv-x="600" 
d="M20 96l335 146l-335 146v115l480 -214v-94l-480 -214v115z" />
    <glyph glyph-name="question" unicode="?" horiz-adv-x="500" 
d="M214 237h-84l74 227q24 0 51 3.5t49.5 13t37.5 27.5t15 47q0 14 -5.5 27.5t-15 24t-22 17t-27.5 6.5q-16 0 -16 -22q0 -43 -25 -71t-82 -28q-38 0 -64 26t-26 64q0 30 14 52t36 36t49.5 21t53.5 7q51 0 99.5 -13t85.5 -40.5t59.5 -69t22.5 -98.5q0 -61 -21.5 -103
t-58 -68t-85 -37.5t-102.5 -11.5zM145 198q22 0 41.5 -8.5t34 -23.5t22.5 -34t8 -40t-8 -40t-22.5 -34t-34 -23.5t-41.5 -8.5q-23 0 -42 8.5t-33.5 23.5t-22.5 34t-8 40t8 40t22.5 34t33.5 23.5t42 8.5z" />
    <glyph glyph-name="at" unicode="@" horiz-adv-x="800" 
d="M504 421q0 26 -8 41.5t-34 15.5q-16 0 -35.5 -13.5t-36.5 -38.5t-28.5 -59t-11.5 -76q0 -38 13 -55.5t29 -17.5q22 0 42.5 19.5t36 49t24.5 65.5t9 69zM539 527h81l-61 -250q-2 -5 -2 -10.5v-11.5q0 -19 8 -30.5t24 -11.5q15 0 32 14t30.5 38.5t22.5 59.5t9 77
q0 48 -16.5 90t-48 73.5t-78.5 50t-107 18.5q-45 0 -93 -15.5t-87.5 -52t-65 -96t-25.5 -147.5q0 -56 19.5 -103t54.5 -81t84 -53.5t109 -19.5q35 0 64 3.5t54 9.5t47 15.5t45 21.5l11 -70q-48 -29 -104.5 -45t-130.5 -16q-97 0 -169 30t-119 78.5t-70.5 111.5t-23.5 129
q0 85 31 155.5t85 120.5t126.5 77.5t155.5 27.5q76 0 138.5 -23t106 -64.5t67.5 -99t24 -125.5q0 -43 -13.5 -88t-38.5 -81.5t-62 -59.5t-83 -23q-26 0 -44.5 7t-29.5 18t-16 24.5t-5 27.5h-2q-2 -6 -12.5 -18.5t-27.5 -25.5t-39 -22.5t-48 -9.5q-38 0 -67 33t-29 100
q0 42 14 87.5t40 83.5t62.5 63t82.5 25q30 0 49.5 -14t30.5 -37z" />
    <glyph glyph-name="A" unicode="A" 
d="M-108 0l18 63q38 8 62 37t43 60l273 453l-17 90l219 12l27 -645l41 -7l-15 -63h-295l17 63l46 6v132h-185l-28 -48q-14 -25 -14 -47q0 -16 15.5 -29.5t48.5 -13.5l-20 -63h-236zM301 499h-2l-130 -224h137z" />
    <glyph glyph-name="B" unicode="B" horiz-adv-x="667" 
d="M211 77q14 -4 27.5 -5t27.5 -1q35 0 59 16t39 40.5t21.5 53t6.5 54.5q0 34 -9 55.5t-23.5 34t-33.5 17t-39 4.5zM308 416h33q28 0 50.5 12t37.5 32t23 46.5t8 55.5q0 42 -24 54.5t-67 12.5zM-64 0l16 63l48 6l159 561l-51 7l19 63h307q38 0 79.5 -5t76.5 -20.5t58 -44.5
t23 -78q0 -48 -22.5 -81t-57.5 -53.5t-77.5 -30.5t-82.5 -11v-2q79 -18 125.5 -60t46.5 -118q0 -52 -19.5 -89t-54.5 -61t-83 -35t-105 -11h-405z" />
    <glyph glyph-name="C" unicode="C" horiz-adv-x="667" 
d="M662 444h-65q-6 31 -18 66.5t-31.5 65t-48 49t-66.5 19.5q-34 0 -61.5 -25t-49.5 -64.5t-38.5 -88t-27.5 -95t-16.5 -87t-5.5 -62.5q0 -26 6.5 -51t20.5 -44.5t35.5 -31.5t50.5 -12q33 0 60.5 12t52 31t45.5 42.5t41 46.5l45 -65q-32 -38 -64 -68t-67.5 -52t-77 -33.5
t-93.5 -11.5q-66 0 -115.5 22t-83 60.5t-50.5 91.5t-17 115q0 76 29 154t80 142t120.5 104.5t150.5 40.5q26 0 51 -5t48 -11t43 -13.5t37 -7.5q7 0 17 2.5t21 6.5t22 9.5t20 11.5v-264z" />
    <glyph glyph-name="D" unicode="D" horiz-adv-x="722" 
d="M222 76q11 -2 24 -3.5t36 -1.5q34 0 62.5 25.5t51 66.5t39.5 92t28.5 102t17 97t5.5 76q0 32 -6.5 51.5t-17 30t-24 14t-27.5 3.5h-31zM139 700h273q130 0 202 -71t72 -210q0 -80 -25 -155.5t-72 -134t-113.5 -94t-150.5 -35.5h-380l17 63l46 6l161 562l-47 7z" />
    <glyph glyph-name="E" unicode="E" horiz-adv-x="667" 
d="M167 626l-45 11l16 63h361q38 0 74.5 2t72.5 13l11 -234h-62q-13 41 -26 69t-30 45.5t-41 25.5t-59 8q-33 0 -64 -9l-60 -208h23q48 0 78 23.5t47 69.5h68l-80 -278h-67q8 27 8 47q0 29 -14.5 46.5t-47.5 17.5h-36l-76 -261q15 -4 30 -5t31 -1q45 0 82.5 13t69.5 35.5
t59 53t52 65.5l67 -18l-122 -235q-15 8 -39.5 11.5t-58.5 3.5h-440l17 63l41 6z" />
    <glyph glyph-name="F" unicode="F" 
d="M-57 0l16 63l48 9l162 554l-49 11l18 63h366q32 0 64 4t62 11l12 -251h-66q-8 33 -17.5 62.5t-26 52.5t-42 36.5t-64.5 13.5q-12 0 -23.5 -1t-22.5 -6l-69 -235h19q42 0 75 27.5t49 65.5h71l-79 -280h-71q1 11 3 22t2 22q0 32 -18 50.5t-47 18.5h-23l-71 -241l54 -9
l-19 -63h-313z" />
    <glyph glyph-name="G" unicode="G" horiz-adv-x="722" 
d="M685 451h-66q-8 31 -21.5 65t-34 62.5t-49 47t-65.5 18.5q-38 0 -68.5 -26t-55 -67t-42 -91.5t-29.5 -100t-17.5 -92.5t-5.5 -69q0 -29 7.5 -54.5t23.5 -45t39 -31t55 -11.5l51 182l-48 5l17 63h307l-20 -63h-40l-35 -120q-8 -26 -14 -55.5t-8 -52.5q-35 0 -69.5 -5
t-69.5 -13q-51 -12 -101 -12q-68 0 -124.5 21.5t-97 61t-62.5 95t-22 123.5q0 78 29.5 155t82 138t124.5 98.5t156 37.5q32 0 61 -7t53 -15q24 -9 42 -16t30 -7q5 0 11 1.5t15.5 6t23 11.5t34.5 19z" />
    <glyph glyph-name="H" unicode="H" horiz-adv-x="778" 
d="M491 406l65 224l-51 7l16 63h313l-16 -63l-52 -7l-158 -561l53 -6l-16 -63h-320l18 63l54 6l73 263h-174l-75 -263l51 -6l-16 -63h-312l16 63l48 6l161 561l-50 7l16 63h315l-14 -63l-54 -7l-65 -224h174z" />
    <glyph glyph-name="I" unicode="I" horiz-adv-x="389" 
d="M164 630l-48 7l18 63h314l-20 -63l-45 -7l-159 -561l50 -6l-20 -63h-313l17 63l49 6z" />
    <glyph glyph-name="J" unicode="J" horiz-adv-x="556" 
d="M596 637l-44 -5l-108 -395q-33 -121 -113.5 -186.5t-208.5 -65.5q-27 0 -59 6t-59 20t-45 37t-18 58q0 47 27.5 76t75.5 29q25 0 45 -11.5t34.5 -29.5t22 -40.5t7.5 -45.5q0 -10 1 -17.5t7 -7.5q11 0 20.5 18.5t17.5 43t13.5 47.5t8.5 32l117 430l-53 7l16 63h312z" />
    <glyph glyph-name="K" unicode="K" horiz-adv-x="722" 
d="M174 630l-54 7l17 63h322l-18 -63l-57 -7l-80 -278l2 -2l224 209q8 7 17.5 21.5t9.5 25.5q0 16 -19 22t-39 9l17 63h281l-20 -63q-35 -2 -63.5 -20.5t-54.5 -41.5l-134 -118l103 -385l50 -9l-17 -63h-314l16 63l54 9l-58 238l-90 -83l-44 -155l60 -9l-20 -63h-318l17 63
l50 9z" />
    <glyph glyph-name="L" unicode="L" 
d="M-43 0l14 65l42 4l159 564l-48 4l17 63h318l-16 -63l-55 -4l-161 -560q5 -1 16.5 -1.5t21.5 -0.5q43 0 78 13t65 35t55.5 51t49.5 61l69 -18l-116 -228q-35 9 -69 12q-35 3 -70 3h-370z" />
    <glyph glyph-name="M" unicode="M" horiz-adv-x="833" 
d="M137 700h285l6 -291h2l167 291h285l-15 -63l-49 -4l-140 -561l49 -9l-15 -63h-316l18 63l57 12l129 484l-2 2l-259 -438h-88l-23 438h-2l-117 -390q-5 -17 -8.5 -30t-3.5 -26q0 -16 6.5 -25.5t17 -15t23 -8t25.5 -3.5l-17 -63h-229l17 63q29 3 49 26.5t30 53.5l155 490
l-57 4z" />
    <glyph glyph-name="N" unicode="N" horiz-adv-x="667" 
d="M372 700l119 -449h2l77 299q3 13 4.5 23.5t1.5 16.5q0 27 -17 35.5t-39 11.5l14 63h209l-18 -63q-40 -7 -55.5 -28.5t-25.5 -57.5l-152 -551h-131l-148 527h-2l-91 -336q-4 -14 -7.5 -30.5t-3.5 -31.5q0 -19 4.5 -30t12.5 -17.5t20.5 -10.5t29.5 -8l-19 -63h-220l17 63
q22 1 36.5 11.5t24.5 27t16 35.5t11 37l109 391q6 24 6 34q0 12 -5.5 18.5t-14.5 10.5t-19.5 5.5t-20.5 3.5l14 63h261z" />
    <glyph glyph-name="O" unicode="O" horiz-adv-x="722" 
d="M24 275q0 82 30 161t83.5 141t127.5 100t161 38q64 0 114 -22t85 -61t53.5 -92t18.5 -115q0 -82 -30 -161t-83 -141t-127 -100t-161 -38q-64 0 -114.5 22t-85.5 61t-53.5 92t-18.5 115zM507 561q0 35 -17.5 59t-60.5 24q-30 0 -58 -32t-51.5 -82t-43 -110t-33.5 -116
t-21.5 -101t-7.5 -64q0 -35 17.5 -59t60.5 -24q30 0 58 32t51.5 82t43 110t33.5 116t21.5 101t7.5 64z" />
    <glyph glyph-name="P" unicode="P" horiz-adv-x="630" 
d="M302 364h29q33 0 56.5 24t38 57.5t21.5 70t7 62.5q0 7 -1.5 15.5t-7 16.5t-15.5 13.5t-27 5.5h-26zM222 69l50 -6l-17 -63h-309l19 63l43 6l158 564l-49 4l17 63h271q124 0 186.5 -46t62.5 -137q0 -34 -14 -73.5t-46.5 -73t-86.5 -55.5t-133 -22h-36.5t-24.5 0.5t-17 1
t-13 1.5z" />
    <glyph glyph-name="Q" unicode="Q" horiz-adv-x="722" 
d="M628 -102q-26 -22 -59 -33.5t-67 -11.5q-35 0 -60 10.5t-43 28.5t-30.5 43t-20.5 54q-11 -2 -23 -3t-29 -1q-64 0 -114.5 22t-85.5 61t-53.5 92t-18.5 115q0 82 30 161t83.5 141t127.5 100t161 38q64 0 114 -22t85 -61t53.5 -92t18.5 -115q0 -57 -15 -113.5t-42.5 -107.5
t-66.5 -93.5t-87 -71.5q23 -47 42 -64.5t46 -17.5q23 0 54 17v-76zM276 189q31 0 61.5 -8.5t54.5 -28.5q26 49 47 111.5t36 122t23.5 107.5t8.5 68q0 35 -17.5 59t-60.5 24q-30 0 -58 -32t-51.5 -82t-43 -110t-33.5 -116t-21.5 -101t-7.5 -64q0 -35 17.5 -59t60.5 -24
q17 0 34 12q-8 21 -19 34.5t-36 16.5z" />
    <glyph glyph-name="R" unicode="R" horiz-adv-x="667" 
d="M308 385h26q33 0 56.5 18t38 45t21.5 58.5t7 58.5q0 25 -14.5 44.5t-42.5 19.5h-23zM542 72l41 -9l-16 -63h-216l-59 321h-2l-71 -252l47 -6l-17 -63h-304l19 63l43 6l163 564l-48 4l17 63h300q58 0 99 -13t67.5 -37t39 -58t12.5 -75q0 -36 -13.5 -69.5t-36 -60t-53 -44
t-63.5 -20.5z" />
    <glyph glyph-name="S" unicode="S" 
d="M1 266l64 3q10 -38 25 -76t38.5 -68.5t57 -49.5t78.5 -19q20 0 38 6.5t32 18.5t22.5 29t8.5 38q0 29 -20 51.5t-49.5 43.5t-64.5 44t-64.5 52t-49.5 67.5t-20 91.5q0 52 21.5 92.5t56 68.5t78 42t87.5 14q42 0 71.5 -8t51 -17.5t36.5 -17.5t28 -8q15 0 32 6.5t31 12.5
l-3 -210l-63 -4q-7 31 -20 62.5t-33 56.5t-47.5 40.5t-63.5 15.5q-18 0 -34 -4.5t-29 -14t-20.5 -23.5t-7.5 -33q0 -29 20 -50t49.5 -40.5t64.5 -39.5t64.5 -48.5t49.5 -68.5t20 -97t-21 -101.5t-57 -75.5t-84 -47t-102 -16q-35 0 -67.5 9t-58.5 22t-46 20.5t-38 7.5
q-17 0 -33.5 -7.5t-31.5 -14.5z" />
    <glyph glyph-name="T" unicode="T" 
d="M38 492l90 223q9 -3 17.5 -5.5t17.5 -4.5q20 -5 36 -5h328q32 0 63.5 4.5t62.5 10.5l-12 -243h-65q0 22 -2 50.5t-10 53.5t-25 42t-48 17l-161 -566l50 -6l-20 -63h-308l19 63l46 6l162 566q-34 0 -61 -15t-48 -38.5t-38 -51.5t-30 -55z" />
    <glyph glyph-name="U" unicode="U" horiz-adv-x="667" 
d="M101 637l19 63h297l-15 -63l-48 -5l-115 -425q-2 -8 -4.5 -19.5t-2.5 -19.5q0 -47 31.5 -71t75.5 -24q17 0 36 6t36 16t29.5 23.5t17.5 29.5l108 381q6 22 8.5 36.5t2.5 19.5q0 15 -5 24.5t-14 15t-20.5 8t-24.5 4.5l17 63h217l-13 -63q-20 0 -34 -7.5t-24 -20.5
t-16.5 -29t-11.5 -32l-119 -412q-10 -34 -34 -62t-58 -47.5t-77 -30.5t-90 -11q-46 0 -90.5 11t-80 34t-57 60t-21.5 90q0 19 4.5 35.5t9.5 33.5l105 383z" />
    <glyph glyph-name="V" unicode="V" 
d="M63 637l12 63h298l-12 -63l-53 -5l6 -409h2l182 319q7 12 12 26t5 28q0 23 -18.5 31t-38.5 10l19 63h234l-15 -53q-40 -11 -62.5 -32.5t-42.5 -56.5l-252 -434q-5 -8 -8.5 -14t-3.5 -14q0 -6 2.5 -18t6.5 -26.5t9 -29.5l9 -27h-235l-17 634z" />
    <glyph glyph-name="W" unicode="W" horiz-adv-x="889" 
d="M384 700l-15 -63l-56 -4l-20 -391l2 -2l155 312l4 123q56 8 111 18t111 22q-10 -35 -13 -75l-30 -380l2 -2l147 280q8 14 11.5 27t3.5 21q0 24 -12 35t-45 16l16 63h230l-17 -63q-21 -1 -37 -10.5t-28.5 -24t-23 -32.5t-20.5 -37l-243 -457q0 -5 2.5 -14t5.5 -20
t6.5 -22.5t5.5 -19.5l-217 -5l26 396h-2l-158 -311l20 -80l-212 -5l18 638l-53 4l15 63h310z" />
    <glyph glyph-name="X" unicode="X" horiz-adv-x="667" 
d="M-75 0l13 63q28 4 51 17.5t42.5 32t37 40t34.5 41.5l130 150l-93 288l-43 5l19 63h296l-15 -63l-42 -7l52 -173l90 106q9 11 13 20.5t4 17.5q0 10 -5.5 16t-13.5 10t-17 6t-16 4l16 63h244l-15 -63q-38 -5 -67.5 -28t-53.5 -51l-151 -171l104 -318l49 -6l-20 -63h-309
l15 63l47 6l-62 197l-95 -114q-10 -11 -16.5 -23.5t-6.5 -24.5q0 -11 6 -18.5t14.5 -12.5t18.5 -7.5t19 -2.5l-15 -63h-259z" />
    <glyph glyph-name="Y" unicode="Y" 
d="M72 700h305l-17 -63l-47 -4l55 -263l134 178q11 14 15.5 27.5t4.5 21.5q0 24 -18.5 31.5t-38.5 8.5l21 63h233l-22 -63q-13 -2 -25.5 -9.5t-23.5 -18t-21 -22.5t-18 -22l-197 -255q-11 -14 -18.5 -26t-11.5 -26l-51 -189l57 -6l-19 -63h-328l19 63l58 6l63 220l-80 344
l-45 4z" />
    <glyph glyph-name="Z" unicode="Z" 
d="M406 624q-13 1 -25.5 3t-25.5 2q-38 0 -67.5 -10.5t-53.5 -29.5t-43.5 -45t-37.5 -56l-63 22l85 205q26 -9 55 -12t68 -3h372l-16 -80l-456 -544q9 -2 21.5 -3.5t23.5 -1.5q34 0 63.5 7t59 26t60 51t65.5 82l66 -19l-106 -233q-44 10 -93.5 12.5t-119.5 2.5h-306l15 74z
" />
    <glyph glyph-name="bracketleft" unicode="[" horiz-adv-x="444" 
d="M227 748h261l-15 -49q-21 0 -37.5 -2t-29 -9.5t-22 -21.5t-16.5 -38l-175 -601q-6 -20 -9.5 -37.5t-3.5 -28.5q0 -23 14.5 -35.5t55.5 -12.5l-13 -49h-268z" />
    <glyph glyph-name="backslash" unicode="\" horiz-adv-x="278" 
d="M209 -15l-255 730h116l254 -730h-115z" />
    <glyph glyph-name="bracketright" unicode="]" horiz-adv-x="444" 
d="M188 -136h-261l15 49q21 0 37.5 2t29 9.5t22 21.5t16.5 38l173 595q15 49 15 72t-14.5 35.5t-55.5 12.5l13 49h268z" />
    <glyph glyph-name="asciicircum" unicode="^" horiz-adv-x="600" 
d="M73 335l174 365h106l174 -365h-117l-110 248l-111 -248h-116z" />
    <glyph glyph-name="underscore" unicode="_" horiz-adv-x="500" 
d="M0 -125v50h500v-50h-500z" />
    <glyph glyph-name="grave" unicode="`" horiz-adv-x="333" 
d="M240 539l-123 79q-14 9 -28 22.5t-14 32.5q0 23 16 39.5t39 16.5q30 0 46 -14.5t33 -37.5l99 -138h-68z" />
    <glyph glyph-name="a" unicode="a" horiz-adv-x="560" 
d="M482 56q-22 -26 -54 -48t-68 -22q-40 0 -64 21t-34 59q-29 -35 -62 -57.5t-81 -22.5q-33 0 -57.5 13.5t-40.5 36t-23.5 51t-7.5 58.5q0 69 31 132t83.5 111.5t121.5 77t145 28.5q20 0 46 -4t49.5 -14.5t39.5 -27.5t16 -43q0 -9 -6.5 -26t-21.5 -28l-68 -223
q-2 -6 -3.5 -13t-1.5 -12q0 -9 4 -11.5t12 -2.5q17 0 38 27zM323 377q7 19 7 27q0 11 -4.5 17.5t-18.5 6.5q-18 0 -35.5 -19t-32.5 -48.5t-28 -66t-22 -71t-14 -63.5t-5 -44q0 -30 23 -30q20 0 36.5 19.5t24.5 45.5z" />
    <glyph glyph-name="b" unicode="b" horiz-adv-x="556" 
d="M116 712l256 52l-109 -315l2 -2q24 20 49 33.5t59 13.5q35 0 60 -14t40.5 -36.5t23 -52t7.5 -60.5q0 -64 -27 -126t-72 -110.5t-104.5 -78.5t-125.5 -30q-36 0 -68 9t-56 27t-38.5 46.5t-14.5 67.5q0 13 2 30t8 37l126 388q9 30 9 43q0 15 -10 21t-31 7zM157 127
q-3 -10 -6 -19.5t-3 -15.5q0 -17 9 -28.5t21 -11.5q21 0 40 19t35 48.5t29.5 65.5t22.5 70.5t14 62t5 41.5q0 17 -7 26t-25 9q-17 0 -29 -8.5t-20.5 -21t-14.5 -27t-10 -26.5z" />
    <glyph glyph-name="c" unicode="c" horiz-adv-x="500" 
d="M402 89q-27 -24 -50.5 -43t-49 -32.5t-54 -20.5t-65.5 -7q-42 0 -76 14t-58.5 39.5t-37.5 60.5t-13 77q0 63 21.5 120.5t62 101t97.5 69.5t128 26q26 0 55 -5t53 -17.5t40 -34t16 -53.5t-21.5 -56t-54.5 -24q-30 0 -48.5 9t-29 24t-14 36t-3.5 45q0 10 -12 10
q-16 0 -30 -16.5t-26.5 -41.5t-22.5 -56t-16.5 -60.5t-10.5 -53.5t-4 -35q0 -31 19.5 -55t53.5 -24q18 0 34 7t31 17.5t29 22.5t27 23z" />
    <glyph glyph-name="d" unicode="d" horiz-adv-x="556" 
d="M382 718l257 46q-8 -20 -15.5 -40t-14.5 -41q-43 -135 -86.5 -268.5t-85.5 -268.5q-5 -14 -8 -26.5t-3 -17.5q0 -17 18 -17q8 0 18 6.5t18 16.5l7 -56q-9 -12 -23.5 -24t-31 -21t-34 -15t-32.5 -6q-48 0 -69 23.5t-26 69.5q-15 -17 -31 -33.5t-35 -29.5t-39.5 -21.5
t-44.5 -8.5q-36 0 -62 14t-42.5 37.5t-24.5 53.5t-8 63q0 54 24 114t64.5 110t93.5 83t111 33q22 0 44.5 -9t39.5 -19l44 131q9 27 9 45q0 14 -14 18t-33 4zM326 348q3 9 7 23.5t4 26.5t-8.5 21t-26.5 9q-16 0 -32.5 -19t-32 -48t-29 -64t-23.5 -67.5t-15.5 -57.5t-5.5 -35
q0 -26 7 -38.5t25 -12.5q12 0 26.5 11t22.5 32z" />
    <glyph glyph-name="e" unicode="e" horiz-adv-x="500" 
d="M177 165q0 -35 15.5 -57t53.5 -22q17 0 34 7t33.5 17.5t31.5 22t29 20.5l30 -64q-43 -42 -96.5 -72.5t-115.5 -30.5q-42 0 -77.5 15t-61.5 41.5t-41 62.5t-15 78q0 61 24.5 117.5t66 99.5t97 68.5t117.5 25.5q29 0 58 -7t52.5 -22t38 -39t14.5 -57q0 -42 -20 -72
t-51.5 -51t-70.5 -35.5t-77 -25.5zM291 428q-20 0 -39 -24t-33 -55.5t-22.5 -63t-8.5 -47.5q25 5 50.5 20t46 35t33 44t12.5 47q0 20 -8.5 32t-30.5 12z" />
    <glyph glyph-name="f" unicode="f" horiz-adv-x="330" 
d="M-41 0q15 36 28 72t27.5 82.5t32.5 109t44 150.5h-49l19 66h50q14 52 36.5 103t56 91.5t78.5 65t104 24.5q27 0 46 -7.5t31.5 -19.5t18.5 -27.5t6 -30.5q0 -37 -20 -59.5t-55 -22.5q-36 0 -57 26t-30 61q-15 0 -23.5 -13t-8.5 -48q0 -12 -0.5 -27t-1.5 -30.5t-2.5 -30.5
t-3.5 -27l-5 -28h79l-18 -66h-75q-19 -66 -34 -120t-28 -103t-24 -95t-21 -96h-201z" />
    <glyph glyph-name="g" unicode="g" horiz-adv-x="556" 
d="M436 106q-24 -80 -51 -140t-64.5 -100t-89 -60t-123.5 -20q-54 0 -88 11t-53.5 27.5t-27 35.5t-7.5 34q0 29 20.5 50t55.5 21q25 0 41.5 -8.5t26.5 -22.5t15 -33.5t9 -40.5q13 -7 30 -7q14 0 27.5 8.5t26.5 28.5t26 54.5t25 87.5l-2 3q-22 -19 -48 -34t-57 -15
q-65 0 -103.5 41.5t-38.5 122.5q0 66 24.5 128t66 110t96.5 77t116 29q45 0 81.5 -13.5t65.5 -42.5q38 17 64.5 28.5t57.5 27.5q-8 -18 -15.5 -35.5t-12.5 -36.5zM329 337q6 16 10 30t4 22q0 38 -32 38q-20 0 -38.5 -18.5t-34.5 -47.5t-29 -64.5t-22.5 -69t-15 -61.5
t-5.5 -42q0 -18 5.5 -27.5t21.5 -9.5q19 0 35.5 17t27.5 46z" />
    <glyph glyph-name="h" unicode="h" 
d="M-46 4q14 33 27.5 71t26 77t24 77.5t22.5 72.5l85 265q5 15 9 32t4 33t-14.5 20.5t-32.5 4.5l17 53l261 54l-119 -354l8 2q7 9 22.5 23t35.5 27t44.5 22.5t50.5 9.5q53 0 88 -29.5t35 -85.5q0 -11 -2.5 -25.5t-7.5 -29.5l-58 -162q-8 -20 -13 -34.5t-5 -22.5q0 -9 7 -14
t15 -5q11 0 20 6t18 17l15 -55q-14 -11 -30.5 -23t-35 -22t-38.5 -16.5t-41 -6.5q-20 0 -40.5 5t-37 15.5t-26.5 27.5t-10 40q0 11 4 25.5t10 31.5l65 182q7 20 10.5 32.5t3.5 21.5q0 10 -5 18.5t-20 8.5q-27 0 -53 -26.5t-51.5 -77t-50.5 -123.5t-49 -167z" />
    <glyph glyph-name="i" unicode="i" horiz-adv-x="325" 
d="M54 439l218 55q5 -15 8 -31t3 -34t-3.5 -34.5t-11.5 -36.5l-81 -219q-9 -24 -9 -34q0 -7 3 -12t11 -5t22 8t25 19l8 -57q-29 -27 -66.5 -49.5t-79.5 -22.5q-47 0 -75.5 26t-28.5 74q0 12 3 30t15 50l58 160q5 12 6.5 20.5t1.5 13.5q0 16 -9 21.5t-32 5.5zM246 734
q45 0 74.5 -31t29.5 -76t-29.5 -76t-74.5 -31t-74.5 31t-29.5 76t29.5 76t74.5 31z" />
    <glyph glyph-name="j" unicode="j" horiz-adv-x="333" 
d="M58 436l263 58l-128 -425q-17 -58 -38.5 -109.5t-54 -90t-78.5 -61t-113 -22.5q-25 0 -50 6t-45.5 19t-33.5 33.5t-13 49.5q0 36 25.5 56.5t59.5 20.5q24 0 40 -9.5t25 -24.5t13 -34.5t4 -39.5q0 -11 9 -11t15 16t11 36l112 409q5 19 9 31t4 20q0 7 -6 11t-14.5 5.5
t-17 2t-13.5 0.5zM247 734q21 0 40 -9t33 -23.5t22 -34t8 -40.5t-8 -40.5t-21.5 -34.5t-32.5 -23.5t-41 -8.5q-23 0 -42 8.5t-33 23t-22 34t-8 41.5t8 41.5t22.5 34t33.5 23t41 8.5z" />
    <glyph glyph-name="k" unicode="k" horiz-adv-x="556" 
d="M-51 0q22 47 42.5 104t39.5 116t36 116t32 104l49 155q5 14 6.5 25t1.5 17q0 14 -16 18t-30 4l15 50l256 55q-41 -107 -72.5 -216t-65.5 -217l2 -2q25 23 49.5 51.5t52 54t59 42.5t69.5 17q33 0 56 -24t23 -57q0 -43 -21.5 -64.5t-49.5 -21.5t-42.5 9t-22 19.5t-12 19.5
t-12.5 9q-6 0 -14.5 -5.5t-17 -13t-15.5 -15t-11 -12.5q17 -9 30 -18t21.5 -20.5t13 -26.5t4.5 -37q0 -31 -1 -62t-1 -62q0 -8 3 -17t14 -9t18 6.5t16 11.5l10 -58q-26 -23 -58.5 -41.5t-68.5 -18.5q-30 0 -49.5 10t-31 26.5t-15.5 37t-4 42.5v82q0 21 -1.5 33t-10.5 12
t-17.5 -11t-13.5 -28l-28 -93q-8 -25 -12 -49.5t-9 -47.5h-196z" />
    <glyph glyph-name="l" unicode="l" horiz-adv-x="326" 
d="M250 59q-15 -13 -31.5 -26t-34 -23.5t-37 -17t-40.5 -6.5q-108 0 -108 110q0 11 3.5 30.5t11.5 43.5l139 415q5 14 6.5 24.5t1.5 15.5q0 14 -11 20t-37 8l18 55l267 56q-57 -151 -107.5 -303.5t-98.5 -306.5q-5 -14 -8 -26t-3 -19q0 -15 17 -15q12 0 21.5 7t19.5 15z" />
    <glyph glyph-name="m" unicode="m" horiz-adv-x="889" 
d="M190 494q19 -9 31 -23t19 -29t10.5 -29t6.5 -22q13 19 31 38t39 33t45 23t49 9q53 0 79 -28t31 -78q18 20 38 39t42.5 34t47.5 24t54 9q53 0 88 -29.5t35 -85.5q0 -13 -3 -30t-10 -36l-61 -163q-5 -15 -8.5 -26.5t-3.5 -18.5q0 -9 7 -14t15 -5q11 0 20.5 7.5t17.5 15.5
l15 -55q-14 -11 -30.5 -23t-35 -22t-38.5 -16.5t-41 -6.5q-20 0 -40 3.5t-35.5 13.5t-25 26.5t-9.5 43.5q0 11 2.5 26.5t8.5 33.5l67 191q5 16 8.5 27t3.5 16q0 10 -4.5 18.5t-12.5 8.5q-20 0 -39 -16t-36.5 -41t-32.5 -56.5t-27.5 -62t-21.5 -57t-14 -42.5
q-9 -30 -15.5 -60t-13.5 -59h-198q3 9 14.5 39t26.5 69.5t31.5 84t30.5 82t23 64t9 31.5q0 7 -5.5 15.5t-13.5 8.5q-20 0 -39 -16t-36.5 -41t-32.5 -56.5t-27.5 -62t-21.5 -57t-14 -42.5q-9 -30 -15.5 -60t-13.5 -59h-197q32 73 57 150t49 155q6 19 6 38q0 6 -5 9.5t-11 3.5
q-9 0 -18 -9l-26 42z" />
    <glyph glyph-name="n" unicode="n" 
d="M-34 0q31 74 58.5 149t48.5 153q2 8 4 17t2 18q0 8 -4 14.5t-13 6.5q-6 0 -11.5 -2.5t-10.5 -6.5l-23 46l169 99q31 -21 46.5 -51.5t19.5 -58.5q15 20 34 39.5t41.5 35.5t47 25.5t50.5 9.5q53 0 88 -29.5t35 -85.5q0 -11 -2.5 -25.5t-7.5 -29.5l-56 -166
q-6 -17 -10 -30.5t-4 -21.5q0 -20 16 -20q11 0 20 6t18 17l15 -55q-22 -29 -62.5 -48.5t-82.5 -19.5q-20 0 -40 5t-35.5 15.5t-25 27t-9.5 39.5q0 11 2.5 26t8.5 32l65 183q8 20 11 34t3 19q0 10 -4.5 18.5t-14.5 8.5q-23 0 -45 -24t-42 -61t-37.5 -83t-30.5 -89.5
t-21.5 -80.5t-10.5 -56h-200z" />
    <glyph glyph-name="o" unicode="o" horiz-adv-x="556" 
d="M293 428q-18 0 -34.5 -20.5t-31 -52.5t-27 -70.5t-21 -75t-13.5 -66t-5 -42.5q0 -23 8.5 -36t31.5 -13q18 0 34.5 20.5t31 52t27 70t21 75t13.5 65.5t5 43q0 23 -8.5 36.5t-31.5 13.5zM278 494q47 0 87.5 -14t70.5 -41t47.5 -67t17.5 -93q0 -58 -22.5 -111t-61 -93.5
t-90 -64.5t-110.5 -24q-47 0 -88 14t-71 41t-47.5 67t-17.5 93q0 58 22.5 111t61 93.5t90.5 64.5t111 24z" />
    <glyph glyph-name="p" unicode="p" horiz-adv-x="556" 
d="M-94 -204l144 462q9 29 15 49.5t6 31.5q0 19 -15 19q-9 0 -21 -7l-20 40l162 103q23 -16 34 -39.5t16 -43.5q12 15 27 30t32 27t36 19t40 7q37 0 64 -15t44.5 -39.5t25.5 -56t8 -64.5q0 -54 -20 -113t-56.5 -107.5t-86.5 -80.5t-110 -32q-20 0 -41.5 7t-35.5 18
q-18 -57 -31 -106.5t-20 -108.5h-197zM185 120q-3 -11 -5.5 -21t-2.5 -16q0 -11 8 -16t18 -5q16 0 32 17t30.5 44t27.5 60t22.5 65.5t15 60t5.5 44.5t-6.5 29t-20.5 12q-13 0 -34 -21.5t-37 -74.5z" />
    <glyph glyph-name="q" unicode="q" horiz-adv-x="556" 
d="M361 -111q-7 -23 -12 -46.5t-10 -46.5h-193q24 60 44 119.5t39 119.5l-2 2q-9 -8 -21 -17t-25.5 -16.5t-27.5 -12.5t-27 -5q-35 0 -60.5 14.5t-42.5 37.5t-25 53t-8 61q0 58 23 119t63.5 110.5t94.5 81t117 31.5q32 0 57 -8.5t43.5 -18t31 -18t20.5 -8.5q7 0 24 6.5
t35.5 15.5t36 18t25.5 13q-11 -22 -24 -51t-23 -61zM328 339q7 18 8.5 33.5t1.5 24.5q0 13 -6.5 22t-20.5 9q-16 0 -32.5 -18t-32 -46.5t-29.5 -63.5t-24.5 -68t-16.5 -60.5t-6 -41.5q0 -20 6.5 -32t20.5 -12q19 0 35.5 17.5t27.5 47.5z" />
    <glyph glyph-name="r" unicode="r" horiz-adv-x="444" 
d="M-30 0q28 57 49 128.5t41 139.5q6 20 9.5 35.5t3.5 22.5q0 10 -2.5 20t-14.5 10q-7 0 -13.5 -2.5t-11.5 -6.5l-23 41l159 106q32 -24 43.5 -48.5t11.5 -55.5q0 -11 -0.5 -23t-1.5 -21h2q25 48 47 77t40.5 45t34.5 21t31 5q38 0 58.5 -23.5t20.5 -60.5q0 -44 -20 -72.5
t-62 -28.5q-19 0 -30 5.5t-17.5 12.5t-10.5 12.5t-9 5.5q-12 0 -25.5 -19t-26.5 -45t-24 -54t-17 -46q-16 -45 -26 -89.5t-18 -91.5h-198z" />
    <glyph glyph-name="s" unicode="s" horiz-adv-x="444" 
d="M238 494q22 0 53 -4t59.5 -14.5t48.5 -29.5t20 -48q0 -35 -23 -50.5t-57 -15.5q-11 0 -24 6t-24 17.5t-18.5 27t-8.5 34.5q-4 3 -15 7t-21 4q-17 0 -30 -12t-13 -29q0 -19 13.5 -32.5t33.5 -25.5t43 -25t43 -31.5t33.5 -44.5t13.5 -65q0 -44 -18 -77t-47.5 -55.5
t-67.5 -33.5t-78 -11q-25 0 -57 3.5t-60.5 14.5t-48.5 31.5t-20 53.5q0 32 18.5 54t51.5 22q42 0 61 -23.5t24 -61.5q2 -21 15 -24.5t26 -3.5q19 0 37.5 11t18.5 34q0 20 -13.5 35.5t-33.5 29.5t-43 28t-43 32t-33.5 41.5t-13.5 56.5q0 42 16.5 74t43.5 54.5t63 34t75 11.5z
" />
    <glyph glyph-name="t" unicode="t" horiz-adv-x="389" 
d="M54 414l20 66h54l43 129l201 65q-19 -48 -33 -96.5t-30 -97.5h90l-23 -66h-89l-87 -249q-12 -36 -12 -51q0 -28 29 -28q8 0 16.5 5t16.5 11.5l16 13t15 9.5l10 -61q-37 -32 -80 -55t-94 -23q-23 0 -42.5 7.5t-34.5 21t-23.5 33t-8.5 42.5q0 14 4 34t12 44l81 246h-51z
" />
    <glyph glyph-name="u" unicode="u" 
d="M228 494q17 -18 30 -44t13 -51q0 -15 -4 -36.5t-13 -44.5l-46 -123q-11 -31 -19.5 -53.5t-8.5 -30.5q0 -15 8.5 -20t18.5 -5q15 0 30.5 15.5t29.5 36.5t25 43l17 34q29 63 47.5 129.5t34.5 135.5h196q-8 -20 -22.5 -58.5t-31 -84.5t-32 -92.5t-25.5 -81.5
q-6 -22 -10 -37.5t-4 -22.5t3 -12t12 -5t21.5 7.5t25.5 19.5l15 -59q-30 -32 -67 -50t-82 -18q-96 0 -96 97h-2q-34 -44 -71 -70.5t-95 -26.5q-55 0 -90.5 26t-35.5 86q0 14 2 30t9 32l59 147q5 13 11.5 28t6.5 26q0 13 -12.5 16.5t-26.5 3.5l-11 47z" />
    <glyph glyph-name="v" unicode="v" horiz-adv-x="500" 
d="M24 422l197 78q14 -26 23.5 -53.5t9.5 -58.5q0 -37 -14 -80.5t-30.5 -84.5t-30 -75.5t-13.5 -53.5q0 -14 11.5 -21t23.5 -7q21 0 41.5 14t39 35.5t34 48t27 52.5t18 48t6.5 35q0 19 -9.5 30.5t-20.5 22.5t-20.5 24t-9.5 36q0 32 18 57t53 25q47 0 68 -30.5t21 -72.5
q0 -36 -11 -80t-32 -89t-50 -87.5t-65 -75.5t-77.5 -53t-87.5 -20q-32 0 -59 6.5t-46.5 21t-30.5 38t-11 57.5q0 11 3.5 29t11.5 40l47 127q6 16 10.5 31.5t4.5 23.5t-4.5 14t-15.5 6q-5 0 -9.5 -0.5t-9.5 -1.5z" />
    <glyph glyph-name="w" unicode="w" horiz-adv-x="778" 
d="M23 418l197 82q17 -26 26.5 -50t9.5 -57q0 -10 -3 -28t-8 -33l-59 -170q-12 -35 -12 -52q0 -14 8.5 -19t18.5 -5q24 0 43.5 22.5t34.5 52.5t25 60t15 44q18 51 31 103.5t25 111.5h186q-26 -80 -48 -155.5t-42 -150.5q-2 -6 -4.5 -15t-4.5 -19t-4 -19t-2 -15
q0 -17 12 -23.5t27 -6.5q27 0 53.5 27t48 63.5t35 74t13.5 59.5q0 9 -9 18.5t-20 21.5t-20 27.5t-9 37.5q0 17 5 33t15 28.5t24 20t32 7.5q22 0 38 -8.5t25.5 -22t14 -32t4.5 -37.5q0 -40 -11 -86t-31.5 -91.5t-49.5 -87t-65 -73.5t-77.5 -51t-86.5 -19q-26 0 -47.5 4.5
t-37.5 15.5t-26.5 29t-13.5 46q-21 -23 -39 -40.5t-38 -29.5t-44 -18.5t-57 -6.5q-27 0 -50 5.5t-40 18t-27 33t-10 49.5q0 13 2 28.5t8 31.5l48 135q9 25 15.5 43.5t6.5 27.5q0 12 -13.5 15.5t-25.5 3.5z" />
    <glyph glyph-name="x" unicode="x" horiz-adv-x="500" 
d="M42 402l164 92q18 -13 31 -25t22 -27.5t15.5 -37t11.5 -52.5l45 73q18 29 44 49t59 20q37 0 55.5 -22.5t18.5 -61.5q0 -34 -20 -60t-52 -26q-19 0 -28.5 8t-15 18t-8.5 18t-10 8q-2 0 -10 -12t-24 -39l-36 -63l28 -138q3 -16 8.5 -23t16.5 -7q12 0 22.5 8.5t19.5 14.5
l15 -49q-12 -14 -27.5 -28.5t-33.5 -26.5t-38 -19.5t-41 -7.5q-40 0 -65 20.5t-34 67.5l-11 57l-36 -54q-24 -36 -52 -63.5t-69 -27.5q-39 0 -57.5 23.5t-18.5 55.5q0 39 23.5 65t58.5 26q15 0 25 -6.5t16.5 -14.5t10 -14.5t5.5 -6.5q4 0 12 9.5t16 23.5l43 73l-22 102
q-3 14 -9.5 29.5t-23.5 15.5q-6 0 -14 -5t-13 -8z" />
    <glyph glyph-name="y" unicode="y" horiz-adv-x="556" 
d="M32 433l191 61q14 -18 24 -38t10 -41q0 -26 -4 -46t-12 -45l-54 -159q-7 -20 -11.5 -35t-4.5 -19q0 -9 3.5 -17t13.5 -8q19 0 33.5 13t26 35.5t21 51.5t19.5 62q17 57 33.5 117.5t23.5 114.5h194q-35 -94 -70.5 -213t-84.5 -275q-17 -53 -42.5 -91.5t-61.5 -64t-85 -38
t-112 -12.5q-25 0 -51.5 5.5t-48 17.5t-35.5 31t-14 46q0 37 21 59t59 22q21 0 36.5 -8.5t26 -22t15.5 -31t5 -35.5q0 -7 6 -12.5t13 -5.5q9 0 19.5 3.5t21.5 13t21.5 27t18.5 44.5l28 93l-2 2q-27 -21 -51 -35t-61 -14q-23 0 -43.5 9t-35.5 24t-23.5 35.5t-8.5 43.5
q0 16 1.5 33.5t8.5 34.5l58 153q6 15 9.5 27t3.5 23q0 21 -14 21q-6 0 -12 -2.5t-11 -4.5z" />
    <glyph glyph-name="z" unicode="z" horiz-adv-x="500" 
d="M49 338q16 29 35.5 57t43.5 50t53 35.5t66 13.5q30 0 51 -9t39.5 -21t37 -24.5t44.5 -19.5q0 10 1 21t4.5 20.5t10.5 16t19 6.5q20 0 30 -13t10 -31q0 -14 -6.5 -30t-15.5 -32t-20 -30.5t-20 -24.5q-32 -34 -69 -54t-77 -34.5t-82 -25.5t-82 -27q-8 -3 -21 -9.5
t-26.5 -15t-23 -18.5t-9.5 -19q30 15 67 30t77 15q19 0 38 -4.5t36.5 -9.5t32.5 -9.5t26 -4.5q29 0 43 15t20 30l43 -32q-15 -28 -34 -57t-43 -53t-53.5 -39t-65.5 -15q-35 0 -65 13t-55.5 28t-46.5 28t-37 13q3 -10 5 -18t2 -15q0 -16 -8.5 -28.5t-26.5 -12.5
q-23 0 -31.5 13.5t-8.5 34.5q0 45 24 84.5t58 66.5q27 22 61 37.5t71 28.5t74 24.5t69.5 24.5t58.5 28.5t40 37.5l-2 2q-33 -20 -74 -35.5t-85 -15.5q-30 0 -58 8t-57 8q-6 0 -12.5 -3.5t-13.5 -8.5t-12.5 -10.5l-9.5 -9.5z" />
    <glyph glyph-name="braceleft" unicode="{" horiz-adv-x="444" 
d="M456 715q-38 0 -61 -20.5t-39 -76.5l-51 -183q-8 -29 -17.5 -51.5t-25 -39.5t-39 -29t-59.5 -19l-1 -2q15 -3 28.5 -8t24.5 -12.5t17.5 -18.5t6.5 -27q0 -5 0.5 -10.5t-1.5 -10.5l-69 -275q-5 -22 -5 -31q0 -14 9 -20t30 -6l-4 -49q-56 0 -94 5t-61.5 15t-33.5 26t-10 38
q0 7 1.5 18t6.5 34l61 256q1 5 1 9v9q0 26 -14.5 38.5t-37.5 20.5q25 7 42.5 17.5t30.5 25.5t21.5 35t15.5 46l53 193q13 49 33 78.5t51.5 46t78 22t114.5 5.5z" />
    <glyph glyph-name="bar" unicode="|" horiz-adv-x="222" 
d="M54 750h114v-1000h-114v1000z" />
    <glyph glyph-name="braceright" unicode="}" horiz-adv-x="444" 
d="M-51 -125q37 0 60.5 20.5t39.5 76.5l51 183q8 29 17.5 51.5t25 39.5t39 29t59.5 19l1 2q-15 3 -28.5 8t-24.5 12.5t-17.5 18.5t-6.5 27q0 5 -0.5 10.5t1.5 10.5l66 266q3 11 5 22t2 18q0 14 -8.5 20t-29.5 6l4 49q93 0 147.5 -15.5t54.5 -58.5q0 -11 -2 -23t-7 -31
l-63 -264q-1 -5 -1 -9v-9q0 -26 14.5 -38.5t37.5 -20.5q-50 -15 -73 -43.5t-37 -80.5l-53 -193q-14 -49 -33.5 -78.5t-51 -46t-78.5 -22t-114 -5.5z" />
    <glyph glyph-name="asciitilde" unicode="~" horiz-adv-x="600" 
d="M525 264q-31 -54 -75.5 -83.5t-98.5 -29.5q-39 0 -64 10.5t-45 23t-38.5 23t-43.5 10.5q-22 0 -42 -15t-35 -47l-88 54q23 51 66 85.5t106 34.5q37 0 63 -10.5t46.5 -23t39.5 -23t43 -10.5q26 0 44 17.5t32 43.5z" />
    <glyph glyph-name="uni00A0" unicode="&#xa0;" horiz-adv-x="305" 
 />
    <glyph glyph-name="exclamdown" unicode="&#xa1;" horiz-adv-x="333" 
d="M181 264q-3 -22 -7.5 -42t-6.5 -40q-3 -26 -5 -51.5t-3 -55.5t-1.5 -66t-0.5 -83q0 -65 -32 -102.5t-99 -37.5q-20 0 -42.5 5t-41 16.5t-30.5 28.5t-12 41q0 30 14.5 61.5t30.5 56.5q20 32 41.5 64t41 65t36.5 68t29 72h88zM182 303q-23 0 -42 8.5t-33.5 23.5t-22.5 34
t-8 40t8 40t22.5 34t33.5 23.5t42 8.5q22 0 41.5 -8.5t34 -23.5t22.5 -34t8 -40t-8 -40t-22.5 -34t-34 -23.5t-41.5 -8.5z" />
    <glyph glyph-name="cent" unicode="&#xa2;" 
d="M359 688h67l-32 -105q20 -3 40.5 -9.5t37 -17t26.5 -27.5t10 -41q0 -34 -19.5 -58t-55.5 -24q-42 0 -59 17t-22 38q-2 10 -3.5 20t-3.5 18t-5.5 13t-9.5 5q-16 0 -29.5 -14.5t-24.5 -37.5t-19.5 -50.5t-14 -54t-8.5 -48.5t-3 -33q0 -37 19 -58t57 -21q16 0 30 6.5t26 16
t23.5 21t22.5 20.5l31 -59q-33 -41 -80.5 -65.5t-101.5 -24.5l-37 -115h-66l38 115q-31 9 -54.5 27.5t-39 43t-23.5 53t-8 58.5q0 53 20 103t54.5 89.5t82 64.5t101.5 29z" />
    <glyph glyph-name="sterling" unicode="&#xa3;" 
d="M200 337h-106l16 66h82q4 26 9 51.5t13 51.5q15 46 44 84.5t68 66t85 43t94 15.5q23 0 47 -5t43.5 -17t32 -31t12.5 -47q0 -33 -21 -57.5t-55 -24.5q-29 0 -48 14.5t-29.5 32.5t-14.5 33.5t-4 17.5q0 12 -13 12q-16 0 -26.5 -23.5t-16.5 -54.5t-8.5 -62.5t-2.5 -47.5v-52
h103l-16 -66h-98q-9 -42 -26.5 -77t-40.5 -66q22 -9 45.5 -17t47.5 -8q15 0 27.5 6.5t22.5 16.5t17 23t11 26h72q-6 -44 -25.5 -89.5t-49.5 -82.5t-70.5 -60.5t-89.5 -23.5q-39 0 -66.5 15t-56.5 41q-28 -22 -56 -39t-66 -17q-27 0 -50.5 9.5t-41 26.5t-28 40.5t-10.5 50.5
q0 32 13.5 58.5t35.5 45t50.5 28.5t58.5 10q27 0 53 -7t51 -17zM83 168q-28 0 -41.5 -16.5t-13.5 -43.5q0 -26 17.5 -38.5t40.5 -12.5q22 0 44 11t38 26q-8 10 -16.5 22.5t-19 24t-23 19.5t-26.5 8z" />
    <glyph glyph-name="currency" unicode="&#xa4;" 
d="M511 490q20 -21 31 -59.5t11 -80.5t-11 -80.5t-31 -59.5l56 -56l-68 -68l-58 58q-20 -18 -57 -30t-79 -12t-79 12t-57 30l-58 -58l-68 68l56 56q-20 21 -31 59.5t-11 80.5t11 80.5t31 59.5l-56 56l68 68l58 -58q20 18 57 30t79 12t79 -12t57 -30l58 58l68 -68zM305 488
q-29 0 -53 -11t-41.5 -30t-27.5 -44t-10 -53t10 -53t27.5 -44t41.5 -30t53 -11q28 0 52.5 11t42 30t27.5 44t10 53t-10 53t-27.5 44t-42 30t-52.5 11z" />
    <glyph glyph-name="yen" unicode="&#xa5;" 
d="M597 434h-93l-65 -80h158l-20 -66h-183l-63 -219l57 -6l-19 -63h-328l19 63l58 6l63 219h-171l20 66h136l-19 80h-117l20 66h82l-31 133l-45 4l16 63h305l-17 -63l-47 -4l55 -263l134 178q11 14 15.5 27.5t4.5 21.5q0 24 -18.5 31.5t-38.5 8.5l21 63h233l-22 -63
q-26 -4 -46.5 -25t-41.5 -47l-52 -65h60z" />
    <glyph glyph-name="brokenbar" unicode="&#xa6;" horiz-adv-x="222" 
d="M54 175h114v-350h-114v350zM54 675h114v-350h-114v350z" />
    <glyph glyph-name="section" unicode="&#xa7;" horiz-adv-x="556" 
d="M452 531q-26 0 -45 15t-19 43q0 15 4.5 24.5t9.5 16.5t9.5 13.5t4.5 15.5q0 5 -11.5 13t-37.5 8q-42 0 -60.5 -22.5t-18.5 -51.5q0 -22 14 -45.5t35 -49.5t46 -53.5t46 -58t35 -62.5t14 -67q0 -33 -14 -57t-36.5 -39.5t-49.5 -23.5t-53 -8q14 -20 26 -46t12 -55
q0 -32 -13.5 -61.5t-40 -52t-66.5 -36t-93 -13.5q-42 0 -72.5 9.5t-51 26t-30.5 37t-10 43.5q0 35 20 56t55 21q32 0 48.5 -21.5t16.5 -45.5q0 -14 -5 -24t-10.5 -17.5t-10.5 -13.5t-5 -11q0 -9 11.5 -17t36.5 -8q42 0 66 21.5t24 50.5q0 25 -14 49.5t-34.5 49.5t-44.5 51.5
t-44.5 55t-34.5 59t-14 65.5t12 60t32 42t47 26.5t56 14.5q-15 20 -25.5 45t-10.5 51q0 33 13.5 62.5t39.5 51t63.5 34.5t85.5 13q42 0 73 -9.5t52 -25.5t31 -36.5t10 -41.5q0 -31 -22.5 -51t-51.5 -20zM275 372q-23 28 -37 39.5t-31 11.5q-19 0 -34.5 -10.5t-15.5 -31.5
q0 -20 24 -58t69 -93q25 -31 39.5 -41t28.5 -10q19 0 34.5 10.5t15.5 31.5q0 22 -24.5 59.5t-68.5 91.5z" />
    <glyph glyph-name="dieresis" unicode="&#xa8;" horiz-adv-x="333" 
d="M329 701q33 0 56.5 -23.5t23.5 -56.5q0 -34 -23.5 -57t-56.5 -23q-34 0 -57 23t-23 57q0 33 23 56.5t57 23.5zM109 701q33 0 56.5 -23.5t23.5 -56.5q0 -34 -23.5 -57t-56.5 -23q-34 0 -57 23t-23 57q0 33 23 56.5t57 23.5z" />
    <glyph glyph-name="copyright" unicode="&#xa9;" horiz-adv-x="800" 
d="M400 -15q-78 0 -143.5 27.5t-113 76.5t-74 115.5t-26.5 144.5t26.5 145t74 116t113 77t143.5 28t143.5 -28t113 -77t74 -116t26.5 -145t-26.5 -144.5t-74 -115.5t-113 -76.5t-143.5 -27.5zM400 51q59 0 107.5 23t83.5 63.5t54 94.5t19 117t-19 117.5t-54 95t-83.5 64
t-107.5 23.5t-107.5 -23.5t-83.5 -64t-54 -95t-19 -117.5t19 -117t54 -94.5t83.5 -63.5t107.5 -23zM573 275l-15 -79q-2 -9 -9.5 -12.5t-21.5 -9.5q-11 -5 -42 -13.5t-66 -8.5q-107 0 -165.5 54.5t-58.5 155.5q0 33 10.5 69t36.5 66t71.5 49.5t114.5 19.5q33 0 59 -5t46 -13
q23 -9 23 -24v-73h-24q-6 15 -14.5 30.5t-20.5 28t-28.5 20.5t-37.5 8q-51 0 -75.5 -46t-24.5 -124q0 -39 4 -73.5t15 -60t30 -40t48 -14.5q38 0 69.5 25.5t51.5 69.5h24z" />
    <glyph glyph-name="ordfeminine" unicode="&#xaa;" horiz-adv-x="334" 
d="M363 453q-14 -16 -35 -29t-45 -13q-51 0 -63 48q-20 -22 -41 -35t-52 -13q-22 0 -37.5 8t-26 21.5t-15.5 30.5t-5 35q0 41 20 79t54.5 67t79 46t94.5 17q13 0 30 -2.5t32 -8.5t25.5 -16.5t10.5 -25.5q0 -5 -4 -15t-14 -17l-45 -134q-1 -4 -2 -8.5t-1 -6.5q0 -9 10 -9
q13 0 25 17zM259 645q5 12 5 16q0 7 -3 11t-12 4q-12 0 -23 -11.5t-21 -29t-18 -39.5t-14 -42.5t-9.5 -38t-3.5 -26.5q0 -18 15 -18q13 0 23.5 11.5t16.5 27.5z" />
    <glyph glyph-name="guillemotleft" unicode="&#xab;" horiz-adv-x="500" 
d="M1 217l-11.5 11.5t-6.5 10.5q0 7 4.5 8.5t9.5 5.5q15 10 38.5 27.5t50.5 37.5t54.5 40.5t51 36.5t40 26.5t21.5 10.5q11 0 15 -8t4 -13q0 -7 -15 -27t-37 -45.5t-47 -53t-46 -49.5q5 -11 17 -35.5t24 -51.5t21.5 -50.5t9.5 -33.5q0 -7 -6 -11.5t-13 -4.5q-6 0 -18 10
t-25.5 23t-25 25.5t-16.5 17.5zM205 217l-11.5 11.5t-6.5 10.5q0 7 4.5 8.5t9.5 5.5q15 10 38.5 27.5t50.5 37.5t54.5 40.5t51 36.5t40 26.5t21.5 10.5q11 0 15 -8t4 -13q0 -7 -15 -27t-37 -45.5t-47 -53t-46 -49.5q5 -11 17 -35.5t24 -51.5t21.5 -50.5t9.5 -33.5
q0 -7 -6 -11.5t-13 -4.5q-6 0 -18 10t-25.5 23t-25 25.5t-16.5 17.5z" />
    <glyph glyph-name="logicalnot" unicode="&#xac;" horiz-adv-x="600" 
d="M385 286h-365v115h480v-319h-115v204z" />
    <glyph glyph-name="uni00AD" unicode="&#xad;" horiz-adv-x="333" 
d="M35 313h247l-48 -146h-243z" />
    <glyph glyph-name="registered" unicode="&#xae;" horiz-adv-x="800" 
d="M400 -15q-78 0 -143.5 27.5t-113 76.5t-74 115.5t-26.5 144.5t26.5 145t74 116t113 77t143.5 28t143.5 -28t113 -77t74 -116t26.5 -145t-26.5 -144.5t-74 -115.5t-113 -76.5t-143.5 -27.5zM400 51q59 0 108 23t83.5 63.5t53.5 94.5t19 117t-19 117.5t-53.5 95t-83.5 64
t-108 23.5t-107.5 -23.5t-83.5 -64t-54 -95t-19 -117.5t19 -117t54 -94.5t83.5 -63.5t107.5 -23zM228 554h214q48 0 80 -25t32 -79q0 -32 -20 -61.5t-58 -40.5l113 -169v-16h-98q-11 0 -23 18t-24.5 44.5t-26 55.5t-26.5 52h-20v-110q0 -10 0.5 -17t4.5 -11.5t12.5 -6.5
t24.5 -3v-22h-185v22q16 0 24.5 2t12.5 6.5t4.5 12t0.5 17.5v271q0 10 -0.5 17.5t-4.5 12t-12.5 7t-24.5 2.5v21zM371 361h23q16 0 26.5 8.5t15.5 21.5t7 28t2 28q0 45 -11.5 62t-34.5 17h-28v-165z" />
    <glyph glyph-name="macron" unicode="&#xaf;" horiz-adv-x="333" 
d="M376 579h-347l24 85h347z" />
    <glyph glyph-name="degree" unicode="&#xb0;" horiz-adv-x="400" 
d="M222 661q-38 0 -61.5 -25.5t-23.5 -63.5t23.5 -63.5t61.5 -25.5t61.5 25.5t23.5 63.5t-23.5 63.5t-61.5 25.5zM222 429q-30 0 -56 11t-45.5 30.5t-30.5 45.5t-11 56t11 56t30.5 45.5t45.5 30.5t56 11t56 -11t45.5 -30.5t30.5 -45.5t11 -56t-11 -56t-30.5 -45.5
t-45.5 -30.5t-56 -11z" />
    <glyph glyph-name="plusminus" unicode="&#xb1;" horiz-adv-x="600" 
d="M202 563h115v-153h183v-115h-183v-152h-115v152h-182v115h182v153zM20 115h480v-115h-480v115z" />
    <glyph glyph-name="uni00B2" unicode="&#xb2;" horiz-adv-x="380" 
d="M337 377q-10 3 -19.5 4.5t-20.5 3.5q-11 1 -20.5 1h-20.5h-220l4 17q10 44 34.5 73.5t55.5 50.5t64.5 37.5t61 36t45.5 45t18 65.5q0 26 -16.5 43.5t-45.5 17.5q-3 0 -9 -1t-11.5 -3t-10 -5t-4.5 -7t4.5 -8.5t10 -10.5t10 -15t4.5 -22q0 -26 -19 -40t-45 -14
q-24 0 -42 13.5t-18 36.5q0 29 13.5 51.5t35.5 37.5t50 22.5t57 7.5q33 0 64.5 -7t55.5 -22t38.5 -39.5t14.5 -59.5q0 -39 -17.5 -64.5t-45.5 -42t-62 -27t-67 -19.5t-61 -19.5t-43 -26.5h106q28 0 52.5 6t41.5 29l48 -7z" />
    <glyph glyph-name="uni00B3" unicode="&#xb3;" horiz-adv-x="380" 
d="M269 541q0 7 -1 16t-5 17.5t-10.5 14t-16.5 5.5q-8 0 -15.5 -1t-14.5 -1q-9 0 -16.5 4t-7.5 13q0 10 5 18.5t17 8.5q11 0 18 -4t16 -4q21 0 35.5 8.5t24 22t14 30t4.5 33.5q0 20 -8.5 35t-34.5 15q-5 0 -14 -1.5t-9 -7.5q0 -5 2 -12.5t2 -14.5q0 -20 -15.5 -33.5
t-37.5 -13.5q-23 0 -42 10.5t-19 35.5q0 26 14.5 41.5t36 24t47 11.5t46.5 3q25 0 53.5 -5.5t53.5 -18t41.5 -32.5t16.5 -48q0 -27 -13.5 -46t-34.5 -31t-47.5 -18t-53.5 -8v-1q21 -7 40 -14t32.5 -17.5t21.5 -26.5t8 -40q0 -37 -18.5 -62t-47 -40.5t-64 -22.5t-68.5 -7
q-21 0 -48.5 3.5t-52 13t-41 26.5t-16.5 45q0 26 17.5 44.5t46.5 18.5q26 0 46 -15t20 -41q0 -10 -2.5 -16.5t-5.5 -11t-5.5 -8t-2.5 -6.5q0 -6 7.5 -8t12.5 -2q27 0 44 11.5t27 29.5t14 39t4 41z" />
    <glyph glyph-name="acute" unicode="&#xb4;" horiz-adv-x="333" 
d="M124 539l104 125q29 35 48.5 50t45.5 15q15 0 26.5 -6.5t19 -15.5t11 -18.5t3.5 -15.5q0 -9 -2 -16t-9 -14.5t-19.5 -16.5t-33.5 -20l-126 -67h-68z" />
    <glyph glyph-name="uni00B5" unicode="&#xb5;" 
d="M-113 -204q24 60 49.5 126t50 133t46.5 131t39 120q4 14 10 29t6 26q0 13 -12.5 16.5t-26.5 3.5l-11 47l190 66q17 -18 30 -44t13 -51q0 -15 -4 -36.5t-13 -44.5l-46 -123q-11 -31 -19.5 -53.5t-8.5 -30.5q0 -15 8.5 -20t18.5 -5q15 0 30.5 15.5t29.5 36.5t25 43l17 34
q29 63 47.5 129.5t34.5 135.5h196q-8 -20 -22.5 -58.5t-31 -84.5t-32 -92.5t-25.5 -81.5q-6 -22 -10 -37.5t-4 -22.5t3 -12t12 -5q12 0 25 8.5t22 18.5l15 -59q-30 -32 -67 -50t-82 -18q-96 0 -96 97h-2q-15 -20 -31 -37t-35.5 -29.5t-43.5 -20.5t-55 -11q-16 -52 -26.5 -97
t-15.5 -92h-198z" />
    <glyph glyph-name="paragraph" unicode="&#xb6;" horiz-adv-x="620" 
d="M651 673q-20 0 -34.5 -3t-25.5 -13t-20.5 -30.5t-18.5 -54.5l-203 -734h-120l230 832h-59l-230 -832h-120l125 451q-23 1 -42.5 12.5t-34.5 31t-23.5 45t-8.5 55.5q0 40 11.5 87t39.5 87t74 66.5t115 26.5h352z" />
    <glyph glyph-name="periodcentered" unicode="&#xb7;" horiz-adv-x="305" 
d="M137 346q22 0 41.5 -8.5t34 -23.5t22.5 -34t8 -40t-8 -40t-22.5 -34t-34 -23.5t-41.5 -8.5q-23 0 -42 8.5t-33.5 23.5t-22.5 34t-8 40t8 40t22.5 34t33.5 23.5t42 8.5z" />
    <glyph glyph-name="cedilla" unicode="&#xb8;" horiz-adv-x="333" 
d="M48 -159q17 -8 35.5 -13t37.5 -5q7 0 16.5 1.5t17 5t13 10t5.5 16.5q0 22 -13 30t-30 8q-16 0 -28 -4l-20 18l72 94h51l-53 -66q10 1 19.5 2.5t19.5 1.5q39 0 64.5 -20.5t25.5 -60.5q0 -23 -15.5 -39t-37 -26t-45.5 -14.5t-41 -4.5q-30 0 -60.5 8.5t-56.5 23.5z" />
    <glyph glyph-name="uni00B9" unicode="&#xb9;" horiz-adv-x="380" 
d="M63 386l10 38l83 7l75 235q5 14 7.5 24.5t2.5 14.5q0 34 -40 34q-8 0 -14.5 -0.5t-14.5 -0.5l11 39q59 4 115.5 14t113.5 24l-122 -385l83 -6l-11 -38h-299z" />
    <glyph glyph-name="ordmasculine" unicode="&#xba;" horiz-adv-x="334" 
d="M246 676q-12 0 -22.5 -12.5t-20 -31.5t-17.5 -42t-14 -45t-9 -40t-3 -26q0 -14 5.5 -21.5t20.5 -7.5q17 0 32.5 26t27.5 59.5t19 66t7 44.5q0 14 -5.5 22t-20.5 8zM236 715q30 0 56.5 -8t46 -24.5t31 -40.5t11.5 -56q0 -35 -14.5 -66.5t-39.5 -55.5t-59 -38.5t-72 -14.5
q-30 0 -56.5 8t-46 24.5t-31 40t-11.5 55.5q0 35 14.5 67t39.5 56t59 38.5t72 14.5z" />
    <glyph glyph-name="guillemotright" unicode="&#xbb;" horiz-adv-x="500" 
d="M233 264l11.5 -11.5t6.5 -10.5q0 -7 -4.5 -8.5t-9.5 -5.5q-15 -10 -38.5 -27.5t-50.5 -37.5t-54.5 -40.5t-51 -36.5t-40.5 -26.5t-21 -10.5q-11 0 -15 8t-4 13q0 7 15 27t37 45.5t47 53t46 49.5q-5 11 -17 35.5t-24 51.5t-21.5 50.5t-9.5 33.5q0 7 6 11.5t13 4.5
q6 0 18 -10t25.5 -23t25 -25.5t16.5 -17.5zM437 264l11.5 -11.5t6.5 -10.5q0 -7 -4.5 -8.5t-9.5 -5.5q-15 -10 -38.5 -27.5t-50.5 -37.5t-54.5 -40.5t-51 -36.5t-40.5 -26.5t-21 -10.5q-11 0 -15 8t-4 13q0 7 15 27t37 45.5t47 53t46 49.5q-5 11 -17 35.5t-24 51.5
t-21.5 50.5t-9.5 33.5q0 7 6 11.5t13 4.5q6 0 18 -10t25.5 -23t25 -25.5t16.5 -17.5z" />
    <glyph glyph-name="onequarter" unicode="&#xbc;" horiz-adv-x="905" 
d="M292 -15h-72l428 730h73zM556 39l45 3l19 61h-165l16 50q31 25 62.5 57.5t60 68t53 72t41.5 70.5h147q-38 -48 -72.5 -85.5t-72.5 -70t-81.5 -62t-98.5 -59.5v-1h121l22 75q45 16 85.5 46t76.5 72l-60 -193h59l-12 -40h-58l-19 -61l43 -3l-11 -38h-213zM35 286l10 38
l83 7l75 235q5 14 7.5 24.5t2.5 14.5q0 34 -40 34q-8 0 -14.5 -0.5t-14.5 -0.5l11 39q59 4 115.5 14t113.5 24l-122 -385l83 -6l-11 -38h-299z" />
    <glyph glyph-name="onehalf" unicode="&#xbd;" horiz-adv-x="984" 
d="M292 -15h-72l428 730h73zM788 -9q-10 3 -19.5 4.5t-20.5 3.5q-11 1 -20.5 1h-20.5h-220l4 17q10 44 34.5 73.5t55.5 50.5t64.5 37.5t61 36t45.5 45t18 65.5q0 26 -16.5 43.5t-45.5 17.5q-3 0 -9 -1t-11.5 -3t-10 -5t-4.5 -7t4.5 -8.5t10 -10.5t10 -15t4.5 -22
q0 -26 -19 -40t-45 -14q-24 0 -42 13.5t-18 36.5q0 29 13.5 51.5t35.5 37.5t50 22.5t57 7.5q33 0 64.5 -7t55.5 -22t38.5 -39.5t14.5 -59.5q0 -39 -17.5 -64.5t-45.5 -42t-62 -27t-67 -19.5t-61 -19.5t-43 -26.5h106q28 0 52.5 6t41.5 29l48 -7zM35 286l10 38l83 7l75 235
q5 14 7.5 24.5t2.5 14.5q0 34 -40 34q-8 0 -14.5 -0.5t-14.5 -0.5l11 39q59 4 115.5 14t113.5 24l-122 -385l83 -6l-11 -38h-299z" />
    <glyph glyph-name="threequarters" unicode="&#xbe;" horiz-adv-x="900" 
d="M551 39l45 3l19 61h-165l16 50q31 25 62.5 57.5t60 68t53 72t41.5 70.5h147q-38 -48 -72.5 -85.5t-72.5 -70t-81.5 -62t-98.5 -59.5v-1h121l22 75q45 16 85.5 46t76.5 72l-60 -193h59l-12 -40h-58l-19 -61l43 -3l-11 -38h-213zM287 -15h-72l428 730h73zM241 441
q0 7 -1 16t-5 17.5t-10.5 14t-16.5 5.5q-8 0 -15.5 -1t-14.5 -1q-9 0 -16.5 4t-7.5 13q0 10 5 18.5t17 8.5q11 0 18 -4t16 -4q21 0 35.5 8.5t24 22t14 30t4.5 33.5q0 20 -8.5 35t-34.5 15q-5 0 -14 -1.5t-9 -7.5q0 -5 2 -12.5t2 -14.5q0 -20 -15.5 -33.5t-37.5 -13.5
q-23 0 -42 10.5t-19 35.5q0 26 14.5 41.5t36 24t47 11.5t46.5 3q25 0 53.5 -5.5t53.5 -18t41.5 -32.5t16.5 -48q0 -27 -13.5 -46t-34.5 -31t-47.5 -18t-53.5 -8v-1q21 -7 40 -14t32.5 -17.5t21.5 -26.5t8 -40q0 -37 -18.5 -62t-47 -40.5t-64 -22.5t-68.5 -7q-21 0 -48.5 3.5
t-52 13t-41 26.5t-16.5 45q0 26 17.5 44.5t46.5 18.5q26 0 46 -15t20 -41q0 -10 -2.5 -16.5t-5.5 -11t-5.5 -8t-2.5 -6.5q0 -6 7.5 -8t12.5 -2q27 0 44 11.5t27 29.5t14 39t4 41z" />
    <glyph glyph-name="questiondown" unicode="&#xbf;" horiz-adv-x="500" 
d="M246 264h84l-74 -227q-24 0 -51 -3.5t-49.5 -13t-37.5 -27.5t-15 -47q0 -14 5.5 -27.5t15 -24t22 -17t27.5 -6.5q16 0 16 22q0 43 25 71t82 28q38 0 64 -26t26 -64q0 -30 -14 -52t-36 -36t-49.5 -21t-53.5 -7q-51 0 -99.5 13t-85.5 40.5t-59.5 69t-22.5 98.5
q0 61 21.5 103t58 68t85 37.5t102.5 11.5zM315 303q-23 0 -42 8.5t-33.5 23.5t-22.5 34t-8 40t8 40t22.5 34t33.5 23.5t42 8.5q22 0 41.5 -8.5t34 -23.5t22.5 -34t8 -40t-8 -40t-22.5 -34t-34 -23.5t-41.5 -8.5z" />
    <glyph glyph-name="Agrave" unicode="&#xc0;" 
d="M-108 0l18 63q38 8 62 37t43 60l273 453l-17 90l219 12l27 -645l41 -7l-15 -63h-295l17 63l46 6v132h-185l-28 -48q-14 -25 -14 -47q0 -16 15.5 -29.5t48.5 -13.5l-20 -63h-236zM301 499h-2l-130 -224h137zM456 760l-123 79q-14 9 -28 22.5t-14 32.5q0 23 16 39.5
t39 16.5q30 0 46 -14.5t33 -37.5l99 -138h-68z" />
    <glyph glyph-name="Aacute" unicode="&#xc1;" 
d="M-108 0l18 63q38 8 62 37t43 60l273 453l-17 90l219 12l27 -645l41 -7l-15 -63h-295l17 63l46 6v132h-185l-28 -48q-14 -25 -14 -47q0 -16 15.5 -29.5t48.5 -13.5l-20 -63h-236zM301 499h-2l-130 -224h137zM318 760l104 125q29 35 48.5 50t45.5 15q15 0 26.5 -6.5
t19 -15.5t11 -18.5t3.5 -15.5q0 -9 -2 -16t-9 -14.5t-19.5 -16.5t-33.5 -20l-126 -67h-68z" />
    <glyph glyph-name="Acircumflex" unicode="&#xc2;" 
d="M-108 0l18 63q38 8 62 37t43 60l273 453l-17 90l219 12l27 -645l41 -7l-15 -63h-295l17 63l46 6v132h-185l-28 -48q-14 -25 -14 -47q0 -16 15.5 -29.5t48.5 -13.5l-20 -63h-236zM301 499h-2l-130 -224h137zM495 936l83 -176h-65l-96 87l-121 -87h-77l157 176h119z" />
    <glyph glyph-name="Atilde" unicode="&#xc3;" 
d="M-108 0l18 63q38 8 62 37t43 60l273 453l-17 90l219 12l27 -645l41 -7l-15 -63h-295l17 63l46 6v132h-185l-28 -48q-14 -25 -14 -47q0 -16 15.5 -29.5t48.5 -13.5l-20 -63h-236zM301 499h-2l-130 -224h137zM217 780q3 25 14 49t29 43t41 30t50 11q20 0 41 -6.5t41 -14
t38 -14t33 -6.5t28 11.5t19 24.5q0 3 1 4h54q-5 -24 -16 -48t-27.5 -43.5t-38.5 -31.5t-49 -12q-23 0 -45.5 6.5t-42.5 14.5t-38 14.5t-31 6.5q-39 0 -51 -39h-50z" />
    <glyph glyph-name="Adieresis" unicode="&#xc4;" 
d="M-108 0l18 63q38 8 62 37t43 60l273 453l-17 90l219 12l27 -645l41 -7l-15 -63h-295l17 63l46 6v132h-185l-28 -48q-14 -25 -14 -47q0 -16 15.5 -29.5t48.5 -13.5l-20 -63h-236zM301 499h-2l-130 -224h137zM521 922q33 0 56.5 -23.5t23.5 -56.5q0 -34 -23.5 -57
t-56.5 -23q-34 0 -57 23t-23 57q0 33 23 56.5t57 23.5zM301 922q33 0 56.5 -23.5t23.5 -56.5q0 -34 -23.5 -57t-56.5 -23q-34 0 -57 23t-23 57q0 33 23 56.5t57 23.5z" />
    <glyph glyph-name="Aring" unicode="&#xc5;" 
d="M-108 0l18 63q38 8 62 37t43 60l273 453l-17 90l219 12l27 -645l41 -7l-15 -63h-295l17 63l46 6v132h-185l-28 -48q-14 -25 -14 -47q0 -16 15.5 -29.5t48.5 -13.5l-20 -63h-236zM301 499h-2l-130 -224h137zM418 985q23 0 43.5 -8t35.5 -22.5t24 -35.5t9 -46
q0 -26 -9 -46.5t-24 -35.5t-35.5 -23t-43.5 -8t-43.5 8t-35.5 23t-24 35.5t-9 46.5q0 25 9 46t24 35.5t35.5 22.5t43.5 8zM418 925q-22 0 -37 -15.5t-15 -36.5t15 -37t37 -16t37 16t15 37t-15 36.5t-37 15.5z" />
    <glyph glyph-name="AE" unicode="&#xc6;" horiz-adv-x="866" 
d="M-83 0l18 63q16 10 32.5 29.5t32 40.5t28 41.5t21.5 34.5l274 428l-31 63h384q45 0 90.5 2t89.5 13v-239h-52q-7 29 -14.5 56.5t-21.5 49t-37 34.5t-59 13h-50l-60 -217h29q17 0 32 11.5t27 26.5t20.5 30t11.5 23h57l-73 -277h-56q2 13 3 25.5t1 25.5q0 24 -5 42.5
t-31 18.5h-36l-72 -267h55q44 0 76.5 13.5t58 36t47 52t43.5 62.5l55 -29l-103 -221q-15 6 -30.5 8.5t-32.5 4.5t-36 2h-42h-346l16 63l46 8l46 171h-171l-49 -76q-14 -22 -20.5 -37t-6.5 -23q0 -17 13.5 -27.5t31.5 -15.5l-20 -63h-184zM343 316l74 280q5 20 5 24
t-2.5 10.5t-9.5 6.5q-5 0 -11 -8t-14 -19l-188 -294h146z" />
    <glyph glyph-name="Ccedilla" unicode="&#xc7;" horiz-adv-x="667" 
d="M591 150q-33 -38 -64.5 -68.5t-67.5 -52t-79 -33t-98 -11.5l-40 -49q10 1 19.5 2.5t19.5 1.5q39 0 64.5 -20.5t25.5 -60.5q0 -23 -15.5 -39t-37 -26t-45.5 -14.5t-41 -4.5q-30 0 -60.5 8.5t-56.5 23.5l23 34q17 -8 35.5 -13t37.5 -5q7 0 16.5 1.5t17 5t13 10t5.5 16.5
q0 22 -13 30t-30 8q-16 0 -28 -4l-20 18l63 82q-53 9 -92.5 33.5t-66 61.5t-40 85t-13.5 104q0 76 29 154t80 142t120.5 104.5t150.5 40.5q26 0 51 -5t48 -11t43 -13.5t37 -7.5q7 0 17 2.5t21 6.5t22 9.5t20 11.5v-264h-65q-6 31 -18 66.5t-31.5 65t-48 49t-66.5 19.5
q-34 0 -61.5 -25t-49.5 -64.5t-38.5 -88t-27.5 -95t-16.5 -87t-5.5 -62.5q0 -26 6.5 -51t20.5 -44.5t35.5 -31.5t50.5 -12q33 0 60.5 12t52 31t45.5 42.5t41 46.5z" />
    <glyph glyph-name="Egrave" unicode="&#xc8;" horiz-adv-x="667" 
d="M167 626l-45 11l16 63h361q38 0 74.5 2t72.5 13l11 -234h-62q-13 41 -26 69t-30 45.5t-41 25.5t-59 8q-33 0 -64 -9l-60 -208h23q48 0 78 23.5t47 69.5h68l-80 -278h-67q8 27 8 47q0 29 -14.5 46.5t-47.5 17.5h-36l-76 -261q15 -4 30 -5t31 -1q45 0 82.5 13t69.5 35.5
t59 53t52 65.5l67 -18l-122 -235q-15 8 -39.5 11.5t-58.5 3.5h-440l17 63l41 6zM476 760l-123 79q-14 9 -28 22.5t-14 32.5q0 23 16 39.5t39 16.5q30 0 46 -14.5t33 -37.5l99 -138h-68z" />
    <glyph glyph-name="Eacute" unicode="&#xc9;" horiz-adv-x="667" 
d="M167 626l-45 11l16 63h361q38 0 74.5 2t72.5 13l11 -234h-62q-13 41 -26 69t-30 45.5t-41 25.5t-59 8q-33 0 -64 -9l-60 -208h23q48 0 78 23.5t47 69.5h68l-80 -278h-67q8 27 8 47q0 29 -14.5 46.5t-47.5 17.5h-36l-76 -261q15 -4 30 -5t31 -1q45 0 82.5 13t69.5 35.5
t59 53t52 65.5l67 -18l-122 -235q-15 8 -39.5 11.5t-58.5 3.5h-440l17 63l41 6zM342 760l104 125q29 35 48.5 50t45.5 15q15 0 26.5 -6.5t19 -15.5t11 -18.5t3.5 -15.5q0 -9 -2 -16t-9 -14.5t-19.5 -16.5t-33.5 -20l-126 -67h-68z" />
    <glyph glyph-name="Ecircumflex" unicode="&#xca;" horiz-adv-x="667" 
d="M167 626l-45 11l16 63h361q38 0 74.5 2t72.5 13l11 -234h-62q-13 41 -26 69t-30 45.5t-41 25.5t-59 8q-33 0 -64 -9l-60 -208h23q48 0 78 23.5t47 69.5h68l-80 -278h-67q8 27 8 47q0 29 -14.5 46.5t-47.5 17.5h-36l-76 -261q15 -4 30 -5t31 -1q45 0 82.5 13t69.5 35.5
t59 53t52 65.5l67 -18l-122 -235q-15 8 -39.5 11.5t-58.5 3.5h-440l17 63l41 6zM513 936l83 -176h-65l-96 87l-121 -87h-77l157 176h119z" />
    <glyph glyph-name="Edieresis" unicode="&#xcb;" horiz-adv-x="667" 
d="M167 626l-45 11l16 63h361q38 0 74.5 2t72.5 13l11 -234h-62q-13 41 -26 69t-30 45.5t-41 25.5t-59 8q-33 0 -64 -9l-60 -208h23q48 0 78 23.5t47 69.5h68l-80 -278h-67q8 27 8 47q0 29 -14.5 46.5t-47.5 17.5h-36l-76 -261q15 -4 30 -5t31 -1q45 0 82.5 13t69.5 35.5
t59 53t52 65.5l67 -18l-122 -235q-15 8 -39.5 11.5t-58.5 3.5h-440l17 63l41 6zM548 922q33 0 56.5 -23.5t23.5 -56.5q0 -34 -23.5 -57t-56.5 -23q-34 0 -57 23t-23 57q0 33 23 56.5t57 23.5zM328 922q33 0 56.5 -23.5t23.5 -56.5q0 -34 -23.5 -57t-56.5 -23q-34 0 -57 23
t-23 57q0 33 23 56.5t57 23.5z" />
    <glyph glyph-name="Igrave" unicode="&#xcc;" horiz-adv-x="389" 
d="M164 630l-48 7l18 63h314l-20 -63l-45 -7l-159 -561l50 -6l-20 -63h-313l17 63l49 6zM340 760l-123 79q-14 9 -28 22.5t-14 32.5q0 23 16 39.5t39 16.5q30 0 46 -14.5t33 -37.5l99 -138h-68z" />
    <glyph glyph-name="Iacute" unicode="&#xcd;" horiz-adv-x="389" 
d="M164 630l-48 7l18 63h314l-20 -63l-45 -7l-159 -561l50 -6l-20 -63h-313l17 63l49 6zM222 760l104 125q29 35 48.5 50t45.5 15q15 0 26.5 -6.5t19 -15.5t11 -18.5t3.5 -15.5q0 -9 -2 -16t-9 -14.5t-19.5 -16.5t-33.5 -20l-126 -67h-68z" />
    <glyph glyph-name="Icircumflex" unicode="&#xce;" horiz-adv-x="389" 
d="M164 630l-48 7l18 63h314l-20 -63l-45 -7l-159 -561l50 -6l-20 -63h-313l17 63l49 6zM391 936l83 -176h-65l-96 87l-121 -87h-77l157 176h119z" />
    <glyph glyph-name="Idieresis" unicode="&#xcf;" horiz-adv-x="389" 
d="M164 630l-48 7l18 63h314l-20 -63l-45 -7l-159 -561l50 -6l-20 -63h-313l17 63l49 6zM425 922q33 0 56.5 -23.5t23.5 -56.5q0 -34 -23.5 -57t-56.5 -23q-34 0 -57 23t-23 57q0 33 23 56.5t57 23.5zM205 922q33 0 56.5 -23.5t23.5 -56.5q0 -34 -23.5 -57t-56.5 -23
q-34 0 -57 23t-23 57q0 33 23 56.5t57 23.5z" />
    <glyph glyph-name="Eth" unicode="&#xd0;" horiz-adv-x="722" 
d="M316 406h102l-20 -74h-103l-73 -256q11 -2 24 -3.5t36 -1.5q37 0 66.5 29.5t52 75.5t39 101t26.5 106t15 91t5 56q0 32 -6 51.5t-15.5 30t-22.5 14t-27 3.5h-35zM169 631l-47 7l17 62h273q130 0 202 -71t72 -210q0 -80 -25 -155.5t-72 -134t-113.5 -94t-150.5 -35.5h-380
l17 63l46 6l76 263h-80l21 74h80z" />
    <glyph glyph-name="Ntilde" unicode="&#xd1;" horiz-adv-x="667" 
d="M372 700l119 -449h2l77 299q3 13 4.5 23.5t1.5 16.5q0 27 -17 35.5t-39 11.5l14 63h209l-18 -63q-40 -7 -55.5 -28.5t-25.5 -57.5l-152 -551h-131l-148 527h-2l-91 -336q-4 -14 -7.5 -30.5t-3.5 -31.5q0 -19 4.5 -30t12.5 -17.5t20.5 -10.5t29.5 -8l-19 -63h-220l17 63
q22 1 36.5 11.5t24.5 27t16 35.5t11 37l109 391q6 24 6 34q0 12 -5.5 18.5t-14.5 10.5t-19.5 5.5t-20.5 3.5l14 63h261zM261 780q3 25 14 49t29 43t41 30t50 11q20 0 41 -6.5t41 -14t38 -14t33 -6.5t28 11.5t19 24.5q0 3 1 4h54q-5 -24 -16 -48t-27.5 -43.5t-38.5 -31.5
t-49 -12q-23 0 -45.5 6.5t-42.5 14.5t-38 14.5t-31 6.5q-39 0 -51 -39h-50z" />
    <glyph glyph-name="Ograve" unicode="&#xd2;" horiz-adv-x="722" 
d="M24 275q0 82 30 161t83.5 141t127.5 100t161 38q64 0 114 -22t85 -61t53.5 -92t18.5 -115q0 -82 -30 -161t-83 -141t-127 -100t-161 -38q-64 0 -114.5 22t-85.5 61t-53.5 92t-18.5 115zM507 561q0 35 -17.5 59t-60.5 24q-30 0 -58 -32t-51.5 -82t-43 -110t-33.5 -116
t-21.5 -101t-7.5 -64q0 -35 17.5 -59t60.5 -24q30 0 58 32t51.5 82t43 110t33.5 116t21.5 101t7.5 64zM512 760l-123 79q-14 9 -28 22.5t-14 32.5q0 23 16 39.5t39 16.5q30 0 46 -14.5t33 -37.5l99 -138h-68z" />
    <glyph glyph-name="Oacute" unicode="&#xd3;" horiz-adv-x="722" 
d="M24 275q0 82 30 161t83.5 141t127.5 100t161 38q64 0 114 -22t85 -61t53.5 -92t18.5 -115q0 -82 -30 -161t-83 -141t-127 -100t-161 -38q-64 0 -114.5 22t-85.5 61t-53.5 92t-18.5 115zM507 561q0 35 -17.5 59t-60.5 24q-30 0 -58 -32t-51.5 -82t-43 -110t-33.5 -116
t-21.5 -101t-7.5 -64q0 -35 17.5 -59t60.5 -24q30 0 58 32t51.5 82t43 110t33.5 116t21.5 101t7.5 64zM381 760l104 125q29 35 48.5 50t45.5 15q15 0 26.5 -6.5t19 -15.5t11 -18.5t3.5 -15.5q0 -9 -2 -16t-9 -14.5t-19.5 -16.5t-33.5 -20l-126 -67h-68z" />
    <glyph glyph-name="Ocircumflex" unicode="&#xd4;" horiz-adv-x="722" 
d="M24 275q0 82 30 161t83.5 141t127.5 100t161 38q64 0 114 -22t85 -61t53.5 -92t18.5 -115q0 -82 -30 -161t-83 -141t-127 -100t-161 -38q-64 0 -114.5 22t-85.5 61t-53.5 92t-18.5 115zM507 561q0 35 -17.5 59t-60.5 24q-30 0 -58 -32t-51.5 -82t-43 -110t-33.5 -116
t-21.5 -101t-7.5 -64q0 -35 17.5 -59t60.5 -24q30 0 58 32t51.5 82t43 110t33.5 116t21.5 101t7.5 64zM556 936l83 -176h-65l-96 87l-121 -87h-77l157 176h119z" />
    <glyph glyph-name="Otilde" unicode="&#xd5;" horiz-adv-x="722" 
d="M24 275q0 82 30 161t83.5 141t127.5 100t161 38q64 0 114 -22t85 -61t53.5 -92t18.5 -115q0 -82 -30 -161t-83 -141t-127 -100t-161 -38q-64 0 -114.5 22t-85.5 61t-53.5 92t-18.5 115zM507 561q0 35 -17.5 59t-60.5 24q-30 0 -58 -32t-51.5 -82t-43 -110t-33.5 -116
t-21.5 -101t-7.5 -64q0 -35 17.5 -59t60.5 -24q30 0 58 32t51.5 82t43 110t33.5 116t21.5 101t7.5 64zM286 780q3 25 14 49t29 43t41 30t50 11q20 0 41 -6.5t41 -14t38 -14t33 -6.5t28 11.5t19 24.5q0 3 1 4h54q-5 -24 -16 -48t-27.5 -43.5t-38.5 -31.5t-49 -12
q-23 0 -45.5 6.5t-42.5 14.5t-38 14.5t-31 6.5q-39 0 -51 -39h-50z" />
    <glyph glyph-name="Odieresis" unicode="&#xd6;" horiz-adv-x="722" 
d="M24 275q0 82 30 161t83.5 141t127.5 100t161 38q64 0 114 -22t85 -61t53.5 -92t18.5 -115q0 -82 -30 -161t-83 -141t-127 -100t-161 -38q-64 0 -114.5 22t-85.5 61t-53.5 92t-18.5 115zM507 561q0 35 -17.5 59t-60.5 24q-30 0 -58 -32t-51.5 -82t-43 -110t-33.5 -116
t-21.5 -101t-7.5 -64q0 -35 17.5 -59t60.5 -24q30 0 58 32t51.5 82t43 110t33.5 116t21.5 101t7.5 64zM587 922q33 0 56.5 -23.5t23.5 -56.5q0 -34 -23.5 -57t-56.5 -23q-34 0 -57 23t-23 57q0 33 23 56.5t57 23.5zM367 922q33 0 56.5 -23.5t23.5 -56.5q0 -34 -23.5 -57
t-56.5 -23q-34 0 -57 23t-23 57q0 33 23 56.5t57 23.5z" />
    <glyph glyph-name="multiply" unicode="&#xd7;" horiz-adv-x="600" 
d="M20 402l79 81l161 -163l163 163l77 -81l-162 -161l162 -161l-77 -80l-163 164l-161 -164l-79 80l162 161z" />
    <glyph glyph-name="Oslash" unicode="&#xd8;" horiz-adv-x="722" 
d="M504 586q-5 26 -22.5 42t-52.5 16q-23 0 -45 -19.5t-41.5 -51.5t-37 -73.5t-32 -86t-25.5 -89t-19 -81.5l2 -2zM216 122q3 -29 21 -47.5t55 -18.5q24 0 46 20t42 53.5t37.5 76.5t32 88.5t26 90t18.5 81.5l-2 2zM625 632q72 -80 72 -207q0 -82 -30 -161t-83 -141
t-127 -100t-161 -38q-46 0 -84.5 11.5t-69.5 32.5l-74 -93h-83l109 136q-70 79 -70 203q0 82 30 161t83.5 141t127.5 100t161 38q86 0 149 -40l54 68h85z" />
    <glyph glyph-name="Ugrave" unicode="&#xd9;" horiz-adv-x="667" 
d="M101 637l19 63h297l-15 -63l-48 -5l-115 -425q-2 -8 -4.5 -19.5t-2.5 -19.5q0 -47 31.5 -71t75.5 -24q17 0 36 6t36 16t29.5 23.5t17.5 29.5l108 381q6 22 8.5 36.5t2.5 19.5q0 15 -5 24.5t-14 15t-20.5 8t-24.5 4.5l17 63h217l-13 -63q-20 0 -34 -7.5t-24 -20.5
t-16.5 -29t-11.5 -32l-119 -412q-10 -34 -34 -62t-58 -47.5t-77 -30.5t-90 -11q-46 0 -90.5 11t-80 34t-57 60t-21.5 90q0 19 4.5 35.5t9.5 33.5l105 383zM502 760l-123 79q-14 9 -28 22.5t-14 32.5q0 23 16 39.5t39 16.5q30 0 46 -14.5t33 -37.5l99 -138h-68z" />
    <glyph glyph-name="Uacute" unicode="&#xda;" horiz-adv-x="667" 
d="M101 637l19 63h297l-15 -63l-48 -5l-115 -425q-2 -8 -4.5 -19.5t-2.5 -19.5q0 -47 31.5 -71t75.5 -24q17 0 36 6t36 16t29.5 23.5t17.5 29.5l108 381q6 22 8.5 36.5t2.5 19.5q0 15 -5 24.5t-14 15t-20.5 8t-24.5 4.5l17 63h217l-13 -63q-20 0 -34 -7.5t-24 -20.5
t-16.5 -29t-11.5 -32l-119 -412q-10 -34 -34 -62t-58 -47.5t-77 -30.5t-90 -11q-46 0 -90.5 11t-80 34t-57 60t-21.5 90q0 19 4.5 35.5t9.5 33.5l105 383zM379 760l104 125q29 35 48.5 50t45.5 15q15 0 26.5 -6.5t19 -15.5t11 -18.5t3.5 -15.5q0 -9 -2 -16t-9 -14.5
t-19.5 -16.5t-33.5 -20l-126 -67h-68z" />
    <glyph glyph-name="Ucircumflex" unicode="&#xdb;" horiz-adv-x="667" 
d="M101 637l19 63h297l-15 -63l-48 -5l-115 -425q-2 -8 -4.5 -19.5t-2.5 -19.5q0 -47 31.5 -71t75.5 -24q17 0 36 6t36 16t29.5 23.5t17.5 29.5l108 381q6 22 8.5 36.5t2.5 19.5q0 15 -5 24.5t-14 15t-20.5 8t-24.5 4.5l17 63h217l-13 -63q-20 0 -34 -7.5t-24 -20.5
t-16.5 -29t-11.5 -32l-119 -412q-10 -34 -34 -62t-58 -47.5t-77 -30.5t-90 -11q-46 0 -90.5 11t-80 34t-57 60t-21.5 90q0 19 4.5 35.5t9.5 33.5l105 383zM553 936l83 -176h-65l-96 87l-121 -87h-77l157 176h119z" />
    <glyph glyph-name="Udieresis" unicode="&#xdc;" horiz-adv-x="667" 
d="M101 637l19 63h297l-15 -63l-48 -5l-115 -425q-2 -8 -4.5 -19.5t-2.5 -19.5q0 -47 31.5 -71t75.5 -24q17 0 36 6t36 16t29.5 23.5t17.5 29.5l108 381q6 22 8.5 36.5t2.5 19.5q0 15 -5 24.5t-14 15t-20.5 8t-24.5 4.5l17 63h217l-13 -63q-20 0 -34 -7.5t-24 -20.5
t-16.5 -29t-11.5 -32l-119 -412q-10 -34 -34 -62t-58 -47.5t-77 -30.5t-90 -11q-46 0 -90.5 11t-80 34t-57 60t-21.5 90q0 19 4.5 35.5t9.5 33.5l105 383zM587 922q33 0 56.5 -23.5t23.5 -56.5q0 -34 -23.5 -57t-56.5 -23q-34 0 -57 23t-23 57q0 33 23 56.5t57 23.5z
M367 922q33 0 56.5 -23.5t23.5 -56.5q0 -34 -23.5 -57t-56.5 -23q-34 0 -57 23t-23 57q0 33 23 56.5t57 23.5z" />
    <glyph glyph-name="Yacute" unicode="&#xdd;" 
d="M72 700h305l-17 -63l-47 -4l55 -263l134 178q11 14 15.5 27.5t4.5 21.5q0 24 -18.5 31.5t-38.5 8.5l21 63h233l-22 -63q-13 -2 -25.5 -9.5t-23.5 -18t-21 -22.5t-18 -22l-197 -255q-11 -14 -18.5 -26t-11.5 -26l-51 -189l57 -6l-19 -63h-328l19 63l58 6l63 220l-80 344
l-45 4zM347 760l104 125q29 35 48.5 50t45.5 15q15 0 26.5 -6.5t19 -15.5t11 -18.5t3.5 -15.5q0 -9 -2 -16t-9 -14.5t-19.5 -16.5t-33.5 -20l-126 -67h-68z" />
    <glyph glyph-name="Thorn" unicode="&#xde;" horiz-adv-x="630" 
d="M169 630l-48 7l18 63h314l-20 -63l-45 -7l-15 -54q125 -2 185.5 -48t60.5 -134q0 -41 -16.5 -81t-54.5 -71.5t-99.5 -51.5t-150.5 -20q-8 0 -16.5 1t-22.5 3l-30 -105l50 -6l-20 -63h-313l17 63l49 6zM278 241h30q28 0 49 24t35 57.5t20.5 70t6.5 62.5q0 7 -1.5 15.5
t-5.5 16.5t-12 13.5t-20 5.5h-27z" />
    <glyph glyph-name="germandbls" unicode="&#xdf;" 
d="M48 414l19 66h46q16 53 45 103.5t69.5 89.5t92 62.5t112.5 23.5q34 0 67 -9t58.5 -27t41 -45.5t15.5 -65.5q0 -43 -15 -72t-38 -48t-49 -30t-49 -18t-38 -11.5t-15 -11.5q0 -8 22 -22t48 -38q26 -23 48 -59t22 -89q0 -48 -20.5 -89.5t-54.5 -72t-78 -48t-90 -17.5
q-19 0 -39 4t-36.5 14t-27 25.5t-10.5 38.5q0 33 20 56t55 23q28 0 52 -18t24 -50q0 -18 21 -18q7 0 16 6t17.5 16.5t14.5 24.5t6 30q0 13 -3 24.5t-11 23.5t-21.5 26t-34.5 31q-13 11 -25.5 22.5t-22.5 25t-16 29.5t-6 36q0 44 15 69.5t38 40.5t49 24.5t49 23t38 35
t15 60.5q0 15 -3.5 30t-11.5 27t-20.5 19.5t-29.5 7.5q-39 0 -60 -24.5t-32 -58.5l-184 -610h-180l128 414h-43z" />
    <glyph glyph-name="agrave" unicode="&#xe0;" horiz-adv-x="560" 
d="M482 56q-22 -26 -54 -48t-68 -22q-40 0 -64 21t-34 59q-29 -35 -62 -57.5t-81 -22.5q-33 0 -57.5 13.5t-40.5 36t-23.5 51t-7.5 58.5q0 69 31 132t83.5 111.5t121.5 77t145 28.5q20 0 46 -4t49.5 -14.5t39.5 -27.5t16 -43q0 -9 -6.5 -26t-21.5 -28l-68 -223
q-2 -6 -3.5 -13t-1.5 -12q0 -9 4 -11.5t12 -2.5q17 0 38 27zM323 377q7 19 7 27q0 11 -4.5 17.5t-18.5 6.5q-18 0 -35.5 -19t-32.5 -48.5t-28 -66t-22 -71t-14 -63.5t-5 -44q0 -30 23 -30q20 0 36.5 19.5t24.5 45.5zM379 539l-123 79q-14 9 -28 22.5t-14 32.5q0 23 16 39.5
t39 16.5q30 0 46 -14.5t33 -37.5l99 -138h-68z" />
    <glyph glyph-name="aacute" unicode="&#xe1;" horiz-adv-x="560" 
d="M482 56q-22 -26 -54 -48t-68 -22q-40 0 -64 21t-34 59q-29 -35 -62 -57.5t-81 -22.5q-33 0 -57.5 13.5t-40.5 36t-23.5 51t-7.5 58.5q0 69 31 132t83.5 111.5t121.5 77t145 28.5q20 0 46 -4t49.5 -14.5t39.5 -27.5t16 -43q0 -9 -6.5 -26t-21.5 -28l-68 -223
q-2 -6 -3.5 -13t-1.5 -12q0 -9 4 -11.5t12 -2.5q17 0 38 27zM323 377q7 19 7 27q0 11 -4.5 17.5t-18.5 6.5q-18 0 -35.5 -19t-32.5 -48.5t-28 -66t-22 -71t-14 -63.5t-5 -44q0 -30 23 -30q20 0 36.5 19.5t24.5 45.5zM251 539l104 125q29 35 48.5 50t45.5 15q15 0 26.5 -6.5
t19 -15.5t11 -18.5t3.5 -15.5q0 -9 -2 -16t-9 -14.5t-19.5 -16.5t-33.5 -20l-126 -67h-68z" />
    <glyph glyph-name="acircumflex" unicode="&#xe2;" horiz-adv-x="560" 
d="M482 56q-22 -26 -54 -48t-68 -22q-40 0 -64 21t-34 59q-29 -35 -62 -57.5t-81 -22.5q-33 0 -57.5 13.5t-40.5 36t-23.5 51t-7.5 58.5q0 69 31 132t83.5 111.5t121.5 77t145 28.5q20 0 46 -4t49.5 -14.5t39.5 -27.5t16 -43q0 -9 -6.5 -26t-21.5 -28l-68 -223
q-2 -6 -3.5 -13t-1.5 -12q0 -9 4 -11.5t12 -2.5q17 0 38 27zM323 377q7 19 7 27q0 11 -4.5 17.5t-18.5 6.5q-18 0 -35.5 -19t-32.5 -48.5t-28 -66t-22 -71t-14 -63.5t-5 -44q0 -30 23 -30q20 0 36.5 19.5t24.5 45.5zM430 715l83 -176h-65l-96 87l-121 -87h-77l157 176h119z
" />
    <glyph glyph-name="atilde" unicode="&#xe3;" horiz-adv-x="560" 
d="M482 56q-22 -26 -54 -48t-68 -22q-40 0 -64 21t-34 59q-29 -35 -62 -57.5t-81 -22.5q-33 0 -57.5 13.5t-40.5 36t-23.5 51t-7.5 58.5q0 69 31 132t83.5 111.5t121.5 77t145 28.5q20 0 46 -4t49.5 -14.5t39.5 -27.5t16 -43q0 -9 -6.5 -26t-21.5 -28l-68 -223
q-2 -6 -3.5 -13t-1.5 -12q0 -9 4 -11.5t12 -2.5q17 0 38 27zM323 377q7 19 7 27q0 11 -4.5 17.5t-18.5 6.5q-18 0 -35.5 -19t-32.5 -48.5t-28 -66t-22 -71t-14 -63.5t-5 -44q0 -30 23 -30q20 0 36.5 19.5t24.5 45.5zM153 559q3 25 14 49t29 43t41 30t50 11q20 0 41 -6.5
t41 -14t38 -14t33 -6.5t28 11.5t19 24.5q0 3 1 4h54q-5 -24 -16 -48t-27.5 -43.5t-38.5 -31.5t-49 -12q-23 0 -45.5 6.5t-42.5 14.5t-38 14.5t-31 6.5q-39 0 -51 -39h-50z" />
    <glyph glyph-name="adieresis" unicode="&#xe4;" horiz-adv-x="560" 
d="M482 56q-22 -26 -54 -48t-68 -22q-40 0 -64 21t-34 59q-29 -35 -62 -57.5t-81 -22.5q-33 0 -57.5 13.5t-40.5 36t-23.5 51t-7.5 58.5q0 69 31 132t83.5 111.5t121.5 77t145 28.5q20 0 46 -4t49.5 -14.5t39.5 -27.5t16 -43q0 -9 -6.5 -26t-21.5 -28l-68 -223
q-2 -6 -3.5 -13t-1.5 -12q0 -9 4 -11.5t12 -2.5q17 0 38 27zM323 377q7 19 7 27q0 11 -4.5 17.5t-18.5 6.5q-18 0 -35.5 -19t-32.5 -48.5t-28 -66t-22 -71t-14 -63.5t-5 -44q0 -30 23 -30q20 0 36.5 19.5t24.5 45.5zM464 701q33 0 56.5 -23.5t23.5 -56.5q0 -34 -23.5 -57
t-56.5 -23q-34 0 -57 23t-23 57q0 33 23 56.5t57 23.5zM244 701q33 0 56.5 -23.5t23.5 -56.5q0 -34 -23.5 -57t-56.5 -23q-34 0 -57 23t-23 57q0 33 23 56.5t57 23.5z" />
    <glyph glyph-name="aring" unicode="&#xe5;" horiz-adv-x="560" 
d="M482 56q-22 -26 -54 -48t-68 -22q-40 0 -64 21t-34 59q-29 -35 -62 -57.5t-81 -22.5q-33 0 -57.5 13.5t-40.5 36t-23.5 51t-7.5 58.5q0 69 31 132t83.5 111.5t121.5 77t145 28.5q20 0 46 -4t49.5 -14.5t39.5 -27.5t16 -43q0 -9 -6.5 -26t-21.5 -28l-68 -223
q-2 -6 -3.5 -13t-1.5 -12q0 -9 4 -11.5t12 -2.5q17 0 38 27zM323 377q7 19 7 27q0 11 -4.5 17.5t-18.5 6.5q-18 0 -35.5 -19t-32.5 -48.5t-28 -66t-22 -71t-14 -63.5t-5 -44q0 -30 23 -30q20 0 36.5 19.5t24.5 45.5zM351 764q23 0 43.5 -8t35.5 -22.5t24 -35.5t9 -46
q0 -26 -9 -46.5t-24 -35.5t-35.5 -23t-43.5 -8t-43.5 8t-35.5 23t-24 35.5t-9 46.5q0 25 9 46t24 35.5t35.5 22.5t43.5 8zM351 704q-22 0 -37 -15.5t-15 -36.5t15 -37t37 -16t37 16t15 37t-15 36.5t-37 15.5z" />
    <glyph glyph-name="ae" unicode="&#xe6;" horiz-adv-x="771" 
d="M328 369q4 11 6.5 22.5t2.5 19.5q0 11 -8.5 14t-16.5 3q-18 0 -35.5 -18t-33 -46.5t-29 -63t-23.5 -67.5t-15.5 -61t-5.5 -43q0 -17 9 -30t24 -13q14 0 29.5 18t25.5 49zM569 428q-21 0 -39.5 -24t-32.5 -56t-22.5 -64.5t-9.5 -49.5q24 6 48 20t43.5 34t32 44.5
t12.5 50.5q0 18 -4 31.5t-28 13.5zM683 94q-46 -48 -99.5 -78t-122.5 -30q-30 0 -53 5t-42.5 15.5t-37 27t-36.5 39.5q-18 -18 -37 -33.5t-39 -27.5t-42.5 -19t-49.5 -7q-36 0 -61 13.5t-41.5 36t-24 51.5t-7.5 61q0 76 34.5 139.5t90 109.5t125 71.5t140.5 25.5
q25 0 50.5 -7.5t43.5 -24.5q26 14 55 23t59 9q26 0 52.5 -6.5t47.5 -20.5t34.5 -35.5t13.5 -51.5q0 -39 -18 -69.5t-47.5 -54.5t-66 -41.5t-72.5 -28.5l-77 -24q0 -15 2.5 -29t10 -24.5t20.5 -16.5t34 -6q17 0 35 7t35 17.5t32 22.5t27 23z" />
    <glyph glyph-name="ccedilla" unicode="&#xe7;" horiz-adv-x="500" 
d="M402 89q-27 -24 -50.5 -43t-49 -32.5t-56.5 -20.5t-73 -7l-40 -50q10 1 19.5 2.5t19.5 1.5q39 0 64.5 -20.5t25.5 -60.5q0 -23 -15.5 -39t-37 -26t-45.5 -14.5t-41 -4.5q-30 0 -60.5 8.5t-56.5 23.5l23 34q17 -8 35.5 -13t37.5 -5q7 0 16.5 1.5t17 5t13 10t5.5 16.5
q0 22 -13 30t-30 8q-16 0 -28 -4l-20 18l66 85q-61 17 -96 66t-35 118q0 63 21.5 120.5t62 101t97.5 69.5t128 26q26 0 55 -5t53 -17.5t40 -34t16 -53.5t-21.5 -56t-54.5 -24q-30 0 -48.5 9t-29 24t-14 36t-3.5 45q0 10 -12 10q-16 0 -30 -16.5t-26.5 -41.5t-22.5 -56
t-16.5 -60.5t-10.5 -53.5t-4 -35q0 -31 19.5 -55t53.5 -24q18 0 34 7t31 17.5t29 22.5t27 23z" />
    <glyph glyph-name="egrave" unicode="&#xe8;" horiz-adv-x="500" 
d="M177 165q0 -35 15.5 -57t53.5 -22q17 0 34 7t33.5 17.5t31.5 22t29 20.5l30 -64q-43 -42 -96.5 -72.5t-115.5 -30.5q-42 0 -77.5 15t-61.5 41.5t-41 62.5t-15 78q0 61 24.5 117.5t66 99.5t97 68.5t117.5 25.5q29 0 58 -7t52.5 -22t38 -39t14.5 -57q0 -42 -20 -72
t-51.5 -51t-70.5 -35.5t-77 -25.5zM291 428q-20 0 -39 -24t-33 -55.5t-22.5 -63t-8.5 -47.5q25 5 50.5 20t46 35t33 44t12.5 47q0 20 -8.5 32t-30.5 12zM347 539l-123 79q-14 9 -28 22.5t-14 32.5q0 23 16 39.5t39 16.5q30 0 46 -14.5t33 -37.5l99 -138h-68z" />
    <glyph glyph-name="eacute" unicode="&#xe9;" horiz-adv-x="500" 
d="M177 165q0 -35 15.5 -57t53.5 -22q17 0 34 7t33.5 17.5t31.5 22t29 20.5l30 -64q-43 -42 -96.5 -72.5t-115.5 -30.5q-42 0 -77.5 15t-61.5 41.5t-41 62.5t-15 78q0 61 24.5 117.5t66 99.5t97 68.5t117.5 25.5q29 0 58 -7t52.5 -22t38 -39t14.5 -57q0 -42 -20 -72
t-51.5 -51t-70.5 -35.5t-77 -25.5zM291 428q-20 0 -39 -24t-33 -55.5t-22.5 -63t-8.5 -47.5q25 5 50.5 20t46 35t33 44t12.5 47q0 20 -8.5 32t-30.5 12zM216 539l104 125q29 35 48.5 50t45.5 15q15 0 26.5 -6.5t19 -15.5t11 -18.5t3.5 -15.5q0 -9 -2 -16t-9 -14.5
t-19.5 -16.5t-33.5 -20l-126 -67h-68z" />
    <glyph glyph-name="ecircumflex" unicode="&#xea;" horiz-adv-x="500" 
d="M177 165q0 -35 15.5 -57t53.5 -22q17 0 34 7t33.5 17.5t31.5 22t29 20.5l30 -64q-43 -42 -96.5 -72.5t-115.5 -30.5q-42 0 -77.5 15t-61.5 41.5t-41 62.5t-15 78q0 61 24.5 117.5t66 99.5t97 68.5t117.5 25.5q29 0 58 -7t52.5 -22t38 -39t14.5 -57q0 -42 -20 -72
t-51.5 -51t-70.5 -35.5t-77 -25.5zM291 428q-20 0 -39 -24t-33 -55.5t-22.5 -63t-8.5 -47.5q25 5 50.5 20t46 35t33 44t12.5 47q0 20 -8.5 32t-30.5 12zM395 715l83 -176h-65l-96 87l-121 -87h-77l157 176h119z" />
    <glyph glyph-name="edieresis" unicode="&#xeb;" horiz-adv-x="500" 
d="M177 165q0 -35 15.5 -57t53.5 -22q17 0 34 7t33.5 17.5t31.5 22t29 20.5l30 -64q-43 -42 -96.5 -72.5t-115.5 -30.5q-42 0 -77.5 15t-61.5 41.5t-41 62.5t-15 78q0 61 24.5 117.5t66 99.5t97 68.5t117.5 25.5q29 0 58 -7t52.5 -22t38 -39t14.5 -57q0 -42 -20 -72
t-51.5 -51t-70.5 -35.5t-77 -25.5zM291 428q-20 0 -39 -24t-33 -55.5t-22.5 -63t-8.5 -47.5q25 5 50.5 20t46 35t33 44t12.5 47q0 20 -8.5 32t-30.5 12zM427 701q33 0 56.5 -23.5t23.5 -56.5q0 -34 -23.5 -57t-56.5 -23q-34 0 -57 23t-23 57q0 33 23 56.5t57 23.5zM207 701
q33 0 56.5 -23.5t23.5 -56.5q0 -34 -23.5 -57t-56.5 -23q-34 0 -57 23t-23 57q0 33 23 56.5t57 23.5z" />
    <glyph glyph-name="igrave" unicode="&#xec;" horiz-adv-x="325" 
d="M54 439l218 55q5 -15 8 -31t3 -34t-3.5 -34.5t-11.5 -36.5l-81 -219q-9 -24 -9 -34q0 -7 3 -12t11 -5t22 8t25 19l8 -57q-29 -27 -66.5 -49.5t-79.5 -22.5q-47 0 -75.5 26t-28.5 74q0 12 3 30t15 50l58 160q5 12 6.5 20.5t1.5 13.5q0 16 -9 21.5t-32 5.5zM263 539
l-123 79q-14 9 -28 22.5t-14 32.5q0 23 16 39.5t39 16.5q30 0 46 -14.5t33 -37.5l99 -138h-68z" />
    <glyph glyph-name="iacute" unicode="&#xed;" horiz-adv-x="325" 
d="M54 439l218 55q5 -15 8 -31t3 -34t-3.5 -34.5t-11.5 -36.5l-81 -219q-9 -24 -9 -34q0 -7 3 -12t11 -5t22 8t25 19l8 -57q-29 -27 -66.5 -49.5t-79.5 -22.5q-47 0 -75.5 26t-28.5 74q0 12 3 30t15 50l58 160q5 12 6.5 20.5t1.5 13.5q0 16 -9 21.5t-32 5.5zM132 539
l104 125q29 35 48.5 50t45.5 15q15 0 26.5 -6.5t19 -15.5t11 -18.5t3.5 -15.5q0 -9 -2 -16t-9 -14.5t-19.5 -16.5t-33.5 -20l-126 -67h-68z" />
    <glyph glyph-name="icircumflex" unicode="&#xee;" horiz-adv-x="325" 
d="M54 439l218 55q5 -15 8 -31t3 -34t-3.5 -34.5t-11.5 -36.5l-81 -219q-9 -24 -9 -34q0 -7 3 -12t11 -5t22 8t25 19l8 -57q-29 -27 -66.5 -49.5t-79.5 -22.5q-47 0 -75.5 26t-28.5 74q0 12 3 30t15 50l58 160q5 12 6.5 20.5t1.5 13.5q0 16 -9 21.5t-32 5.5zM311 715
l83 -176h-65l-96 87l-121 -87h-77l157 176h119z" />
    <glyph glyph-name="idieresis" unicode="&#xef;" horiz-adv-x="325" 
d="M54 439l218 55q5 -15 8 -31t3 -34t-3.5 -34.5t-11.5 -36.5l-81 -219q-9 -24 -9 -34q0 -7 3 -12t11 -5t22 8t25 19l8 -57q-29 -27 -66.5 -49.5t-79.5 -22.5q-47 0 -75.5 26t-28.5 74q0 12 3 30t15 50l58 160q5 12 6.5 20.5t1.5 13.5q0 16 -9 21.5t-32 5.5zM344 701
q33 0 56.5 -23.5t23.5 -56.5q0 -34 -23.5 -57t-56.5 -23q-34 0 -57 23t-23 57q0 33 23 56.5t57 23.5zM124 701q33 0 56.5 -23.5t23.5 -56.5q0 -34 -23.5 -57t-56.5 -23q-34 0 -57 23t-23 57q0 33 23 56.5t57 23.5z" />
    <glyph glyph-name="eth" unicode="&#xf0;" horiz-adv-x="556" 
d="M293 428q-18 0 -34.5 -20.5t-31 -52.5t-27 -70.5t-21 -75t-13.5 -66t-5 -42.5q0 -23 8.5 -36t31.5 -13q18 0 34.5 20.5t31 52t27 70t21 75t13.5 65.5t5 43q0 23 -8.5 36.5t-31.5 13.5zM245 764q8 -5 21 -17t28 -27.5t31 -33t30 -33.5l142 23l23 -56l-125 -19
q15 -19 33.5 -48.5t34.5 -69t27 -90.5t11 -114q0 -58 -22.5 -111t-61 -93.5t-90 -64.5t-110.5 -24q-47 0 -88 14t-71 41t-47.5 67t-17.5 93q0 58 22.5 111t60.5 93.5t89 64.5t108 24q21 0 37.5 -2.5t29.5 -7.5q-3 23 -10.5 49.5t-18.5 54.5l-121 -18l-22 54l119 19
q-17 29 -36 52t-37 41z" />
    <glyph glyph-name="ntilde" unicode="&#xf1;" 
d="M-34 0q31 74 58.5 149t48.5 153q2 8 4 17t2 18q0 8 -4 14.5t-13 6.5q-6 0 -11.5 -2.5t-10.5 -6.5l-23 46l169 99q31 -21 46.5 -51.5t19.5 -58.5q15 20 34 39.5t41.5 35.5t47 25.5t50.5 9.5q53 0 88 -29.5t35 -85.5q0 -11 -2.5 -25.5t-7.5 -29.5l-56 -166
q-6 -17 -10 -30.5t-4 -21.5q0 -20 16 -20q11 0 20 6t18 17l15 -55q-22 -29 -62.5 -48.5t-82.5 -19.5q-20 0 -40 5t-35.5 15.5t-25 27t-9.5 39.5q0 11 2.5 26t8.5 32l65 183q8 20 11 34t3 19q0 10 -4.5 18.5t-14.5 8.5q-23 0 -45 -24t-42 -61t-37.5 -83t-30.5 -89.5
t-21.5 -80.5t-10.5 -56h-200zM179 559q3 25 14 49t29 43t41 30t50 11q20 0 41 -6.5t41 -14t38 -14t33 -6.5t28 11.5t19 24.5q0 3 1 4h54q-5 -24 -16 -48t-27.5 -43.5t-38.5 -31.5t-49 -12q-23 0 -45.5 6.5t-42.5 14.5t-38 14.5t-31 6.5q-39 0 -51 -39h-50z" />
    <glyph glyph-name="ograve" unicode="&#xf2;" horiz-adv-x="556" 
d="M293 428q-18 0 -34.5 -20.5t-31 -52.5t-27 -70.5t-21 -75t-13.5 -66t-5 -42.5q0 -23 8.5 -36t31.5 -13q18 0 34.5 20.5t31 52t27 70t21 75t13.5 65.5t5 43q0 23 -8.5 36.5t-31.5 13.5zM278 494q47 0 87.5 -14t70.5 -41t47.5 -67t17.5 -93q0 -58 -22.5 -111t-61 -93.5
t-90 -64.5t-110.5 -24q-47 0 -88 14t-71 41t-47.5 67t-17.5 93q0 58 22.5 111t61 93.5t90.5 64.5t111 24zM364 539l-123 79q-14 9 -28 22.5t-14 32.5q0 23 16 39.5t39 16.5q30 0 46 -14.5t33 -37.5l99 -138h-68z" />
    <glyph glyph-name="oacute" unicode="&#xf3;" horiz-adv-x="556" 
d="M293 428q-18 0 -34.5 -20.5t-31 -52.5t-27 -70.5t-21 -75t-13.5 -66t-5 -42.5q0 -23 8.5 -36t31.5 -13q18 0 34.5 20.5t31 52t27 70t21 75t13.5 65.5t5 43q0 23 -8.5 36.5t-31.5 13.5zM278 494q47 0 87.5 -14t70.5 -41t47.5 -67t17.5 -93q0 -58 -22.5 -111t-61 -93.5
t-90 -64.5t-110.5 -24q-47 0 -88 14t-71 41t-47.5 67t-17.5 93q0 58 22.5 111t61 93.5t90.5 64.5t111 24zM236 539l104 125q29 35 48.5 50t45.5 15q15 0 26.5 -6.5t19 -15.5t11 -18.5t3.5 -15.5q0 -9 -2 -16t-9 -14.5t-19.5 -16.5t-33.5 -20l-126 -67h-68z" />
    <glyph glyph-name="ocircumflex" unicode="&#xf4;" horiz-adv-x="556" 
d="M293 428q-18 0 -34.5 -20.5t-31 -52.5t-27 -70.5t-21 -75t-13.5 -66t-5 -42.5q0 -23 8.5 -36t31.5 -13q18 0 34.5 20.5t31 52t27 70t21 75t13.5 65.5t5 43q0 23 -8.5 36.5t-31.5 13.5zM278 494q47 0 87.5 -14t70.5 -41t47.5 -67t17.5 -93q0 -58 -22.5 -111t-61 -93.5
t-90 -64.5t-110.5 -24q-47 0 -88 14t-71 41t-47.5 67t-17.5 93q0 58 22.5 111t61 93.5t90.5 64.5t111 24zM415 715l83 -176h-65l-96 87l-121 -87h-77l157 176h119z" />
    <glyph glyph-name="otilde" unicode="&#xf5;" horiz-adv-x="556" 
d="M293 428q-18 0 -34.5 -20.5t-31 -52.5t-27 -70.5t-21 -75t-13.5 -66t-5 -42.5q0 -23 8.5 -36t31.5 -13q18 0 34.5 20.5t31 52t27 70t21 75t13.5 65.5t5 43q0 23 -8.5 36.5t-31.5 13.5zM278 494q47 0 87.5 -14t70.5 -41t47.5 -67t17.5 -93q0 -58 -22.5 -111t-61 -93.5
t-90 -64.5t-110.5 -24q-47 0 -88 14t-71 41t-47.5 67t-17.5 93q0 58 22.5 111t61 93.5t90.5 64.5t111 24zM141 559q3 25 14 49t29 43t41 30t50 11q20 0 41 -6.5t41 -14t38 -14t33 -6.5t28 11.5t19 24.5q0 3 1 4h54q-5 -24 -16 -48t-27.5 -43.5t-38.5 -31.5t-49 -12
q-23 0 -45.5 6.5t-42.5 14.5t-38 14.5t-31 6.5q-39 0 -51 -39h-50z" />
    <glyph glyph-name="odieresis" unicode="&#xf6;" horiz-adv-x="556" 
d="M293 428q-18 0 -34.5 -20.5t-31 -52.5t-27 -70.5t-21 -75t-13.5 -66t-5 -42.5q0 -23 8.5 -36t31.5 -13q18 0 34.5 20.5t31 52t27 70t21 75t13.5 65.5t5 43q0 23 -8.5 36.5t-31.5 13.5zM278 494q47 0 87.5 -14t70.5 -41t47.5 -67t17.5 -93q0 -58 -22.5 -111t-61 -93.5
t-90 -64.5t-110.5 -24q-47 0 -88 14t-71 41t-47.5 67t-17.5 93q0 58 22.5 111t61 93.5t90.5 64.5t111 24zM449 701q33 0 56.5 -23.5t23.5 -56.5q0 -34 -23.5 -57t-56.5 -23q-34 0 -57 23t-23 57q0 33 23 56.5t57 23.5zM229 701q33 0 56.5 -23.5t23.5 -56.5q0 -34 -23.5 -57
t-56.5 -23q-34 0 -57 23t-23 57q0 33 23 56.5t57 23.5z" />
    <glyph glyph-name="divide" unicode="&#xf7;" horiz-adv-x="600" 
d="M20 184v115h480v-115h-480zM260 527q39 0 64.5 -26t25.5 -62t-25.5 -62t-64.5 -26q-19 0 -35.5 7t-28.5 19t-19 28t-7 34t7 34t19 28t28.5 19t35.5 7zM260 132q39 0 64.5 -26t25.5 -62t-25.5 -62t-64.5 -26q-19 0 -35.5 7t-28.5 19t-19 28t-7 34t7 34t19 28t28.5 19
t35.5 7z" />
    <glyph glyph-name="oslash" unicode="&#xf8;" horiz-adv-x="556" 
d="M162 114q0 -35 8.5 -48.5t30.5 -13.5t42 27.5t35.5 67.5t27.5 83t19 75h-2zM333 377q0 24 -8.5 37.5t-31.5 13.5q-21 0 -39 -25t-33 -61.5t-27 -78.5t-21 -75h2zM446 430q26 -27 40.5 -65t14.5 -86q0 -58 -22.5 -111t-61 -93.5t-90 -64.5t-110.5 -24q-70 0 -121 30
l-56 -66h-82l87 104q-24 26 -38 62.5t-14 84.5q0 58 22.5 111t61 93.5t90.5 64.5t111 24q67 0 117 -27l54 65h83z" />
    <glyph glyph-name="ugrave" unicode="&#xf9;" 
d="M228 494q17 -18 30 -44t13 -51q0 -15 -4 -36.5t-13 -44.5l-46 -123q-11 -31 -19.5 -53.5t-8.5 -30.5q0 -15 8.5 -20t18.5 -5q15 0 30.5 15.5t29.5 36.5t25 43l17 34q29 63 47.5 129.5t34.5 135.5h196q-8 -20 -22.5 -58.5t-31 -84.5t-32 -92.5t-25.5 -81.5
q-6 -22 -10 -37.5t-4 -22.5t3 -12t12 -5t21.5 7.5t25.5 19.5l15 -59q-30 -32 -67 -50t-82 -18q-96 0 -96 97h-2q-34 -44 -71 -70.5t-95 -26.5q-55 0 -90.5 26t-35.5 86q0 14 2 30t9 32l59 147q5 13 11.5 28t6.5 26q0 13 -12.5 16.5t-26.5 3.5l-11 47zM388 539l-123 79
q-14 9 -28 22.5t-14 32.5q0 23 16 39.5t39 16.5q30 0 46 -14.5t33 -37.5l99 -138h-68z" />
    <glyph glyph-name="uacute" unicode="&#xfa;" 
d="M228 494q17 -18 30 -44t13 -51q0 -15 -4 -36.5t-13 -44.5l-46 -123q-11 -31 -19.5 -53.5t-8.5 -30.5q0 -15 8.5 -20t18.5 -5q15 0 30.5 15.5t29.5 36.5t25 43l17 34q29 63 47.5 129.5t34.5 135.5h196q-8 -20 -22.5 -58.5t-31 -84.5t-32 -92.5t-25.5 -81.5
q-6 -22 -10 -37.5t-4 -22.5t3 -12t12 -5t21.5 7.5t25.5 19.5l15 -59q-30 -32 -67 -50t-82 -18q-96 0 -96 97h-2q-34 -44 -71 -70.5t-95 -26.5q-55 0 -90.5 26t-35.5 86q0 14 2 30t9 32l59 147q5 13 11.5 28t6.5 26q0 13 -12.5 16.5t-26.5 3.5l-11 47zM270 539l104 125
q29 35 48.5 50t45.5 15q15 0 26.5 -6.5t19 -15.5t11 -18.5t3.5 -15.5q0 -9 -2 -16t-9 -14.5t-19.5 -16.5t-33.5 -20l-126 -67h-68z" />
    <glyph glyph-name="ucircumflex" unicode="&#xfb;" 
d="M228 494q17 -18 30 -44t13 -51q0 -15 -4 -36.5t-13 -44.5l-46 -123q-11 -31 -19.5 -53.5t-8.5 -30.5q0 -15 8.5 -20t18.5 -5q15 0 30.5 15.5t29.5 36.5t25 43l17 34q29 63 47.5 129.5t34.5 135.5h196q-8 -20 -22.5 -58.5t-31 -84.5t-32 -92.5t-25.5 -81.5
q-6 -22 -10 -37.5t-4 -22.5t3 -12t12 -5t21.5 7.5t25.5 19.5l15 -59q-30 -32 -67 -50t-82 -18q-96 0 -96 97h-2q-34 -44 -71 -70.5t-95 -26.5q-55 0 -90.5 26t-35.5 86q0 14 2 30t9 32l59 147q5 13 11.5 28t6.5 26q0 13 -12.5 16.5t-26.5 3.5l-11 47zM439 715l83 -176h-65
l-96 87l-121 -87h-77l157 176h119z" />
    <glyph glyph-name="udieresis" unicode="&#xfc;" 
d="M228 494q17 -18 30 -44t13 -51q0 -15 -4 -36.5t-13 -44.5l-46 -123q-11 -31 -19.5 -53.5t-8.5 -30.5q0 -15 8.5 -20t18.5 -5q15 0 30.5 15.5t29.5 36.5t25 43l17 34q29 63 47.5 129.5t34.5 135.5h196q-8 -20 -22.5 -58.5t-31 -84.5t-32 -92.5t-25.5 -81.5
q-6 -22 -10 -37.5t-4 -22.5t3 -12t12 -5t21.5 7.5t25.5 19.5l15 -59q-30 -32 -67 -50t-82 -18q-96 0 -96 97h-2q-34 -44 -71 -70.5t-95 -26.5q-55 0 -90.5 26t-35.5 86q0 14 2 30t9 32l59 147q5 13 11.5 28t6.5 26q0 13 -12.5 16.5t-26.5 3.5l-11 47zM473 701
q33 0 56.5 -23.5t23.5 -56.5q0 -34 -23.5 -57t-56.5 -23q-34 0 -57 23t-23 57q0 33 23 56.5t57 23.5zM253 701q33 0 56.5 -23.5t23.5 -56.5q0 -34 -23.5 -57t-56.5 -23q-34 0 -57 23t-23 57q0 33 23 56.5t57 23.5z" />
    <glyph glyph-name="yacute" unicode="&#xfd;" horiz-adv-x="556" 
d="M32 433l191 61q14 -18 24 -38t10 -41q0 -26 -4 -46t-12 -45l-54 -159q-7 -20 -11.5 -35t-4.5 -19q0 -9 3.5 -17t13.5 -8q19 0 33.5 13t26 35.5t21 51.5t19.5 62q17 57 33.5 117.5t23.5 114.5h194q-35 -94 -70.5 -213t-84.5 -275q-17 -53 -42.5 -91.5t-61.5 -64t-85 -38
t-112 -12.5q-25 0 -51.5 5.5t-48 17.5t-35.5 31t-14 46q0 37 21 59t59 22q21 0 36.5 -8.5t26 -22t15.5 -31t5 -35.5q0 -7 6 -12.5t13 -5.5q9 0 19.5 3.5t21.5 13t21.5 27t18.5 44.5l28 93l-2 2q-27 -21 -51 -35t-61 -14q-23 0 -43.5 9t-35.5 24t-23.5 35.5t-8.5 43.5
q0 16 1.5 33.5t8.5 34.5l58 153q6 15 9.5 27t3.5 23q0 21 -14 21q-6 0 -12 -2.5t-11 -4.5zM244 539l104 125q29 35 48.5 50t45.5 15q15 0 26.5 -6.5t19 -15.5t11 -18.5t3.5 -15.5q0 -9 -2 -16t-9 -14.5t-19.5 -16.5t-33.5 -20l-126 -67h-68z" />
    <glyph glyph-name="thorn" unicode="&#xfe;" horiz-adv-x="556" 
d="M395 494q48 0 78.5 -41.5t30.5 -122.5q0 -58 -20 -119t-56.5 -111t-86.5 -82t-110 -32q-20 0 -40 7t-37 18q-17 -51 -30.5 -103.5t-20.5 -111.5h-197l248 795q9 30 9 43q0 15 -10 21t-31 7l14 50l256 52l-109 -315l2 -2q24 20 50.5 33.5t59.5 13.5zM187 130
q-3 -11 -6.5 -25.5t-3.5 -21.5q0 -11 8 -16t18 -5q15 0 31 18.5t31 47.5t28 63.5t22.5 67t15 58t5.5 36.5q0 13 -5 27t-22 14q-13 0 -34.5 -21t-37.5 -75z" />
    <glyph glyph-name="ydieresis" unicode="&#xff;" horiz-adv-x="556" 
d="M32 433l191 61q14 -18 24 -38t10 -41q0 -26 -4 -46t-12 -45l-54 -159q-7 -20 -11.5 -35t-4.5 -19q0 -9 3.5 -17t13.5 -8q19 0 33.5 13t26 35.5t21 51.5t19.5 62q17 57 33.5 117.5t23.5 114.5h194q-35 -94 -70.5 -213t-84.5 -275q-17 -53 -42.5 -91.5t-61.5 -64t-85 -38
t-112 -12.5q-25 0 -51.5 5.5t-48 17.5t-35.5 31t-14 46q0 37 21 59t59 22q21 0 36.5 -8.5t26 -22t15.5 -31t5 -35.5q0 -7 6 -12.5t13 -5.5q9 0 19.5 3.5t21.5 13t21.5 27t18.5 44.5l28 93l-2 2q-27 -21 -51 -35t-61 -14q-23 0 -43.5 9t-35.5 24t-23.5 35.5t-8.5 43.5
q0 16 1.5 33.5t8.5 34.5l58 153q6 15 9.5 27t3.5 23q0 21 -14 21q-6 0 -12 -2.5t-11 -4.5zM447 701q33 0 56.5 -23.5t23.5 -56.5q0 -34 -23.5 -57t-56.5 -23q-34 0 -57 23t-23 57q0 33 23 56.5t57 23.5zM227 701q33 0 56.5 -23.5t23.5 -56.5q0 -34 -23.5 -57t-56.5 -23
q-34 0 -57 23t-23 57q0 33 23 56.5t57 23.5z" />
    <glyph glyph-name="Amacron" unicode="&#x100;" 
d="M-108 0l18 63q38 8 62 37t43 60l273 453l-17 90l219 12l27 -645l41 -7l-15 -63h-295l17 63l46 6v132h-185l-28 -48q-14 -25 -14 -47q0 -16 15.5 -29.5t48.5 -13.5l-20 -63h-236zM301 499h-2l-130 -224h137zM583 800h-347l24 85h347z" />
    <glyph glyph-name="amacron" unicode="&#x101;" horiz-adv-x="560" 
d="M482 56q-22 -26 -54 -48t-68 -22q-40 0 -64 21t-34 59q-29 -35 -62 -57.5t-81 -22.5q-33 0 -57.5 13.5t-40.5 36t-23.5 51t-7.5 58.5q0 69 31 132t83.5 111.5t121.5 77t145 28.5q20 0 46 -4t49.5 -14.5t39.5 -27.5t16 -43q0 -9 -6.5 -26t-21.5 -28l-68 -223
q-2 -6 -3.5 -13t-1.5 -12q0 -9 4 -11.5t12 -2.5q17 0 38 27zM323 377q7 19 7 27q0 11 -4.5 17.5t-18.5 6.5q-18 0 -35.5 -19t-32.5 -48.5t-28 -66t-22 -71t-14 -63.5t-5 -44q0 -30 23 -30q20 0 36.5 19.5t24.5 45.5zM506 579h-347l24 85h347z" />
    <glyph glyph-name="Abreve" unicode="&#x102;" 
d="M-108 0l18 63q38 8 62 37t43 60l273 453l-17 90l219 12l27 -645l41 -7l-15 -63h-295l17 63l46 6v132h-185l-28 -48q-14 -25 -14 -47q0 -16 15.5 -29.5t48.5 -13.5l-20 -63h-236zM301 499h-2l-130 -224h137zM320 930q0 -26 8.5 -42t23.5 -24.5t34.5 -11.5t40.5 -3
q41 0 73 21t44 60h51q-4 -37 -19 -68t-39.5 -53t-57 -34t-69.5 -12q-42 0 -70 11t-44.5 32t-23 52t-6.5 72h54z" />
    <glyph glyph-name="abreve" unicode="&#x103;" horiz-adv-x="560" 
d="M482 56q-22 -26 -54 -48t-68 -22q-40 0 -64 21t-34 59q-29 -35 -62 -57.5t-81 -22.5q-33 0 -57.5 13.5t-40.5 36t-23.5 51t-7.5 58.5q0 69 31 132t83.5 111.5t121.5 77t145 28.5q20 0 46 -4t49.5 -14.5t39.5 -27.5t16 -43q0 -9 -6.5 -26t-21.5 -28l-68 -223
q-2 -6 -3.5 -13t-1.5 -12q0 -9 4 -11.5t12 -2.5q17 0 38 27zM323 377q7 19 7 27q0 11 -4.5 17.5t-18.5 6.5q-18 0 -35.5 -19t-32.5 -48.5t-28 -66t-22 -71t-14 -63.5t-5 -44q0 -30 23 -30q20 0 36.5 19.5t24.5 45.5zM253 709q0 -26 8.5 -42t23.5 -24.5t34.5 -11.5t40.5 -3
q41 0 73 21t44 60h51q-4 -37 -19 -68t-39.5 -53t-57 -34t-69.5 -12q-42 0 -70 11t-44.5 32t-23 52t-6.5 72h54z" />
    <glyph glyph-name="Aogonek" unicode="&#x104;" 
d="M-108 0l18 63q38 8 62 37t43 60l273 453l-17 90l219 12l27 -645l41 -7l-15 -63h-68q-81 -29 -116 -61.5t-35 -63.5q0 -23 14.5 -33.5t35.5 -10.5q20 0 40 7t31 14l12 -55q-29 -17 -61.5 -27.5t-76.5 -10.5q-28 0 -49 8t-35.5 20.5t-21.5 29t-7 34.5q0 49 43 86t138 63
h-139l17 63l46 6v132h-185l-28 -48q-14 -25 -14 -47q0 -16 15.5 -29.5t48.5 -13.5l-20 -63h-236zM301 499h-2l-130 -224h137z" />
    <glyph glyph-name="aogonek" unicode="&#x105;" horiz-adv-x="560" 
d="M482 56q-17 -20 -36.5 -36t-55.5 -31q-59 -23 -88.5 -53t-29.5 -61q0 -23 14.5 -33.5t35.5 -10.5q20 0 40 7t31 14l12 -55q-29 -17 -61.5 -27.5t-76.5 -10.5q-28 0 -49 8t-35.5 20.5t-21.5 29t-7 34.5q0 47 38.5 82.5t123.5 61.5q-40 16 -54 71q-29 -35 -62 -57.5
t-81 -22.5q-33 0 -57.5 13.5t-40.5 36t-23.5 51t-7.5 58.5q0 69 31 132t83.5 111.5t121.5 77t145 28.5q20 0 46 -4t49.5 -14.5t39.5 -27.5t16 -43q0 -9 -6.5 -26t-21.5 -28l-68 -223q-2 -6 -3.5 -13t-1.5 -12q0 -9 4 -11.5t12 -2.5q17 0 38 27zM323 377q7 19 7 27
q0 11 -4.5 17.5t-18.5 6.5q-18 0 -35.5 -19t-32.5 -48.5t-28 -66t-22 -71t-14 -63.5t-5 -44q0 -30 23 -30q20 0 36.5 19.5t24.5 45.5z" />
    <glyph glyph-name="Cacute" unicode="&#x106;" horiz-adv-x="667" 
d="M662 444h-65q-6 31 -18 66.5t-31.5 65t-48 49t-66.5 19.5q-34 0 -61.5 -25t-49.5 -64.5t-38.5 -88t-27.5 -95t-16.5 -87t-5.5 -62.5q0 -26 6.5 -51t20.5 -44.5t35.5 -31.5t50.5 -12q33 0 60.5 12t52 31t45.5 42.5t41 46.5l45 -65q-32 -38 -64 -68t-67.5 -52t-77 -33.5
t-93.5 -11.5q-66 0 -115.5 22t-83 60.5t-50.5 91.5t-17 115q0 76 29 154t80 142t120.5 104.5t150.5 40.5q26 0 51 -5t48 -11t43 -13.5t37 -7.5q7 0 17 2.5t21 6.5t22 9.5t20 11.5v-264zM371 760l104 125q29 35 48.5 50t45.5 15q15 0 26.5 -6.5t19 -15.5t11 -18.5t3.5 -15.5
q0 -9 -2 -16t-9 -14.5t-19.5 -16.5t-33.5 -20l-126 -67h-68z" />
    <glyph glyph-name="cacute" unicode="&#x107;" horiz-adv-x="500" 
d="M402 89q-27 -24 -50.5 -43t-49 -32.5t-54 -20.5t-65.5 -7q-42 0 -76 14t-58.5 39.5t-37.5 60.5t-13 77q0 63 21.5 120.5t62 101t97.5 69.5t128 26q26 0 55 -5t53 -17.5t40 -34t16 -53.5t-21.5 -56t-54.5 -24q-30 0 -48.5 9t-29 24t-14 36t-3.5 45q0 10 -12 10
q-16 0 -30 -16.5t-26.5 -41.5t-22.5 -56t-16.5 -60.5t-10.5 -53.5t-4 -35q0 -31 19.5 -55t53.5 -24q18 0 34 7t31 17.5t29 22.5t27 23zM229 539l104 125q29 35 48.5 50t45.5 15q15 0 26.5 -6.5t19 -15.5t11 -18.5t3.5 -15.5q0 -9 -2 -16t-9 -14.5t-19.5 -16.5t-33.5 -20
l-126 -67h-68z" />
    <glyph glyph-name="Ccircumflex" unicode="&#x108;" horiz-adv-x="667" 
d="M662 444h-65q-6 31 -18 66.5t-31.5 65t-48 49t-66.5 19.5q-34 0 -61.5 -25t-49.5 -64.5t-38.5 -88t-27.5 -95t-16.5 -87t-5.5 -62.5q0 -26 6.5 -51t20.5 -44.5t35.5 -31.5t50.5 -12q33 0 60.5 12t52 31t45.5 42.5t41 46.5l45 -65q-32 -38 -64 -68t-67.5 -52t-77 -33.5
t-93.5 -11.5q-66 0 -115.5 22t-83 60.5t-50.5 91.5t-17 115q0 76 29 154t80 142t120.5 104.5t150.5 40.5q26 0 51 -5t48 -11t43 -13.5t37 -7.5q7 0 17 2.5t21 6.5t22 9.5t20 11.5v-264zM530 936l83 -176h-65l-96 87l-121 -87h-77l157 176h119z" />
    <glyph glyph-name="ccircumflex" unicode="&#x109;" horiz-adv-x="500" 
d="M402 89q-27 -24 -50.5 -43t-49 -32.5t-54 -20.5t-65.5 -7q-42 0 -76 14t-58.5 39.5t-37.5 60.5t-13 77q0 63 21.5 120.5t62 101t97.5 69.5t128 26q26 0 55 -5t53 -17.5t40 -34t16 -53.5t-21.5 -56t-54.5 -24q-30 0 -48.5 9t-29 24t-14 36t-3.5 45q0 10 -12 10
q-16 0 -30 -16.5t-26.5 -41.5t-22.5 -56t-16.5 -60.5t-10.5 -53.5t-4 -35q0 -31 19.5 -55t53.5 -24q18 0 34 7t31 17.5t29 22.5t27 23zM398 715l83 -176h-65l-96 87l-121 -87h-77l157 176h119z" />
    <glyph glyph-name="Cdotaccent" unicode="&#x10a;" horiz-adv-x="667" 
d="M662 444h-65q-6 31 -18 66.5t-31.5 65t-48 49t-66.5 19.5q-34 0 -61.5 -25t-49.5 -64.5t-38.5 -88t-27.5 -95t-16.5 -87t-5.5 -62.5q0 -26 6.5 -51t20.5 -44.5t35.5 -31.5t50.5 -12q33 0 60.5 12t52 31t45.5 42.5t41 46.5l45 -65q-32 -38 -64 -68t-67.5 -52t-77 -33.5
t-93.5 -11.5q-66 0 -115.5 22t-83 60.5t-50.5 91.5t-17 115q0 76 29 154t80 142t120.5 104.5t150.5 40.5q26 0 51 -5t48 -11t43 -13.5t37 -7.5q7 0 17 2.5t21 6.5t22 9.5t20 11.5v-264zM461 760q-39 0 -64.5 25.5t-25.5 64.5q0 40 25.5 65.5t64.5 25.5q40 0 65 -25.5
t25 -65.5q0 -39 -25 -64.5t-65 -25.5z" />
    <glyph glyph-name="cdotaccent" unicode="&#x10b;" horiz-adv-x="500" 
d="M402 89q-27 -24 -50.5 -43t-49 -32.5t-54 -20.5t-65.5 -7q-42 0 -76 14t-58.5 39.5t-37.5 60.5t-13 77q0 63 21.5 120.5t62 101t97.5 69.5t128 26q26 0 55 -5t53 -17.5t40 -34t16 -53.5t-21.5 -56t-54.5 -24q-30 0 -48.5 9t-29 24t-14 36t-3.5 45q0 10 -12 10
q-16 0 -30 -16.5t-26.5 -41.5t-22.5 -56t-16.5 -60.5t-10.5 -53.5t-4 -35q0 -31 19.5 -55t53.5 -24q18 0 34 7t31 17.5t29 22.5t27 23zM326 539q-39 0 -64.5 25.5t-25.5 64.5q0 40 25.5 65.5t64.5 25.5q40 0 65 -25.5t25 -65.5q0 -39 -25 -64.5t-65 -25.5z" />
    <glyph glyph-name="Ccaron" unicode="&#x10c;" horiz-adv-x="667" 
d="M662 444h-65q-6 31 -18 66.5t-31.5 65t-48 49t-66.5 19.5q-34 0 -61.5 -25t-49.5 -64.5t-38.5 -88t-27.5 -95t-16.5 -87t-5.5 -62.5q0 -26 6.5 -51t20.5 -44.5t35.5 -31.5t50.5 -12q33 0 60.5 12t52 31t45.5 42.5t41 46.5l45 -65q-32 -38 -64 -68t-67.5 -52t-77 -33.5
t-93.5 -11.5q-66 0 -115.5 22t-83 60.5t-50.5 91.5t-17 115q0 76 29 154t80 142t120.5 104.5t150.5 40.5q26 0 51 -5t48 -11t43 -13.5t37 -7.5q7 0 17 2.5t21 6.5t22 9.5t20 11.5v-264zM375 760l-80 176h65l95 -89l122 89h78l-155 -176h-125z" />
    <glyph glyph-name="ccaron" unicode="&#x10d;" horiz-adv-x="500" 
d="M402 89q-27 -24 -50.5 -43t-49 -32.5t-54 -20.5t-65.5 -7q-42 0 -76 14t-58.5 39.5t-37.5 60.5t-13 77q0 63 21.5 120.5t62 101t97.5 69.5t128 26q26 0 55 -5t53 -17.5t40 -34t16 -53.5t-21.5 -56t-54.5 -24q-30 0 -48.5 9t-29 24t-14 36t-3.5 45q0 10 -12 10
q-16 0 -30 -16.5t-26.5 -41.5t-22.5 -56t-16.5 -60.5t-10.5 -53.5t-4 -35q0 -31 19.5 -55t53.5 -24q18 0 34 7t31 17.5t29 22.5t27 23zM243 539l-80 176h65l95 -89l122 89h78l-155 -176h-125z" />
    <glyph glyph-name="Dcaron" unicode="&#x10e;" horiz-adv-x="722" 
d="M222 76q11 -2 24 -3.5t36 -1.5q34 0 62.5 25.5t51 66.5t39.5 92t28.5 102t17 97t5.5 76q0 32 -6.5 51.5t-17 30t-24 14t-27.5 3.5h-31zM139 700h273q130 0 202 -71t72 -210q0 -80 -25 -155.5t-72 -134t-113.5 -94t-150.5 -35.5h-380l17 63l46 6l161 562l-47 7zM389 760
l-80 176h65l95 -89l122 89h78l-155 -176h-125z" />
    <glyph glyph-name="dcaron" unicode="&#x10f;" horiz-adv-x="556" 
d="M382 718l257 46q-8 -20 -15.5 -40t-14.5 -41q-43 -135 -86.5 -268.5t-85.5 -268.5q-5 -14 -8 -26.5t-3 -17.5q0 -17 18 -17q8 0 18 6.5t18 16.5l7 -56q-9 -12 -23.5 -24t-31 -21t-34 -15t-32.5 -6q-48 0 -69 23.5t-26 69.5q-15 -17 -31 -33.5t-35 -29.5t-39.5 -21.5
t-44.5 -8.5q-36 0 -62 14t-42.5 37.5t-24.5 53.5t-8 63q0 54 24 114t64.5 110t93.5 83t111 33q22 0 44.5 -9t39.5 -19l44 131q9 27 9 45q0 14 -14 18t-33 4zM326 348q3 9 7 23.5t4 26.5t-8.5 21t-26.5 9q-16 0 -32.5 -19t-32 -48t-29 -64t-23.5 -67.5t-15.5 -57.5t-5.5 -35
q0 -26 7 -38.5t25 -12.5q12 0 26.5 11t22.5 32zM577 497q34 14 67 41.5t51 56.5q-25 8 -40 29t-15 50q0 42 26 65t59 23q42 0 64 -27.5t22 -69.5q0 -60 -51 -117t-149 -93z" />
    <glyph glyph-name="Dcroat" unicode="&#x110;" horiz-adv-x="722" 
d="M316 406h102l-20 -74h-103l-73 -256q11 -2 24 -3.5t36 -1.5q37 0 66.5 29.5t52 75.5t39 101t26.5 106t15 91t5 56q0 32 -6 51.5t-15.5 30t-22.5 14t-27 3.5h-35zM169 631l-47 7l17 62h273q130 0 202 -71t72 -210q0 -80 -25 -155.5t-72 -134t-113.5 -94t-150.5 -35.5h-380
l17 63l46 6l76 263h-80l21 74h80z" />
    <glyph glyph-name="dcroat" unicode="&#x111;" horiz-adv-x="556" 
d="M562 537q-32 -99 -63 -196t-62 -195q-5 -14 -8 -26.5t-3 -17.5q0 -17 18 -17q8 0 18 6.5t18 16.5l7 -56q-9 -12 -23.5 -24t-31 -21t-34 -15t-32.5 -6q-48 0 -69 23.5t-26 69.5q-15 -17 -31 -33.5t-35 -29.5t-39.5 -21.5t-44.5 -8.5q-36 0 -62 14t-42.5 37.5t-24.5 53.5
t-8 63q0 54 24 114t64.5 110t93.5 83t111 33q22 0 44.5 -9t39.5 -19l24 71h-189l24 74h189q5 20 5 31q0 14 -14 18t-33 4l15 54l257 46q-8 -20 -15.5 -40t-14.5 -41l-12 -36t-11 -36h94l-24 -74h-94zM326 348q3 9 7 23.5t4 26.5t-8.5 21t-26.5 9q-16 0 -32.5 -19t-32 -48
t-29 -64t-23.5 -67.5t-15.5 -57.5t-5.5 -35q0 -26 7 -38.5t25 -12.5q12 0 26.5 11t22.5 32z" />
    <glyph glyph-name="Emacron" unicode="&#x112;" horiz-adv-x="667" 
d="M167 626l-45 11l16 63h361q38 0 74.5 2t72.5 13l11 -234h-62q-13 41 -26 69t-30 45.5t-41 25.5t-59 8q-33 0 -64 -9l-60 -208h23q48 0 78 23.5t47 69.5h68l-80 -278h-67q8 27 8 47q0 29 -14.5 46.5t-47.5 17.5h-36l-76 -261q15 -4 30 -5t31 -1q45 0 82.5 13t69.5 35.5
t59 53t52 65.5l67 -18l-122 -235q-15 8 -39.5 11.5t-58.5 3.5h-440l17 63l41 6zM601 800h-347l24 85h347z" />
    <glyph glyph-name="emacron" unicode="&#x113;" horiz-adv-x="500" 
d="M177 165q0 -35 15.5 -57t53.5 -22q17 0 34 7t33.5 17.5t31.5 22t29 20.5l30 -64q-43 -42 -96.5 -72.5t-115.5 -30.5q-42 0 -77.5 15t-61.5 41.5t-41 62.5t-15 78q0 61 24.5 117.5t66 99.5t97 68.5t117.5 25.5q29 0 58 -7t52.5 -22t38 -39t14.5 -57q0 -42 -20 -72
t-51.5 -51t-70.5 -35.5t-77 -25.5zM291 428q-20 0 -39 -24t-33 -55.5t-22.5 -63t-8.5 -47.5q25 5 50.5 20t46 35t33 44t12.5 47q0 20 -8.5 32t-30.5 12zM474 579h-347l24 85h347z" />
    <glyph glyph-name="Ebreve" unicode="&#x114;" horiz-adv-x="667" 
d="M167 626l-45 11l16 63h361q38 0 74.5 2t72.5 13l11 -234h-62q-13 41 -26 69t-30 45.5t-41 25.5t-59 8q-33 0 -64 -9l-60 -208h23q48 0 78 23.5t47 69.5h68l-80 -278h-67q8 27 8 47q0 29 -14.5 46.5t-47.5 17.5h-36l-76 -261q15 -4 30 -5t31 -1q45 0 82.5 13t69.5 35.5
t59 53t52 65.5l67 -18l-122 -235q-15 8 -39.5 11.5t-58.5 3.5h-440l17 63l41 6zM327 930q0 -26 8.5 -42t23.5 -24.5t34.5 -11.5t40.5 -3q41 0 73 21t44 60h51q-4 -37 -19 -68t-39.5 -53t-57 -34t-69.5 -12q-42 0 -70 11t-44.5 32t-23 52t-6.5 72h54z" />
    <glyph glyph-name="ebreve" unicode="&#x115;" horiz-adv-x="500" 
d="M177 165q0 -35 15.5 -57t53.5 -22q17 0 34 7t33.5 17.5t31.5 22t29 20.5l30 -64q-43 -42 -96.5 -72.5t-115.5 -30.5q-42 0 -77.5 15t-61.5 41.5t-41 62.5t-15 78q0 61 24.5 117.5t66 99.5t97 68.5t117.5 25.5q29 0 58 -7t52.5 -22t38 -39t14.5 -57q0 -42 -20 -72
t-51.5 -51t-70.5 -35.5t-77 -25.5zM291 428q-20 0 -39 -24t-33 -55.5t-22.5 -63t-8.5 -47.5q25 5 50.5 20t46 35t33 44t12.5 47q0 20 -8.5 32t-30.5 12zM221 709q0 -26 8.5 -42t23.5 -24.5t34.5 -11.5t40.5 -3q41 0 73 21t44 60h51q-4 -37 -19 -68t-39.5 -53t-57 -34
t-69.5 -12q-42 0 -70 11t-44.5 32t-23 52t-6.5 72h54z" />
    <glyph glyph-name="Edotaccent" unicode="&#x116;" horiz-adv-x="667" 
d="M167 626l-45 11l16 63h361q38 0 74.5 2t72.5 13l11 -234h-62q-13 41 -26 69t-30 45.5t-41 25.5t-59 8q-33 0 -64 -9l-60 -208h23q48 0 78 23.5t47 69.5h68l-80 -278h-67q8 27 8 47q0 29 -14.5 46.5t-47.5 17.5h-36l-76 -261q15 -4 30 -5t31 -1q45 0 82.5 13t69.5 35.5
t59 53t52 65.5l67 -18l-122 -235q-15 8 -39.5 11.5t-58.5 3.5h-440l17 63l41 6zM438 760q-39 0 -64.5 25.5t-25.5 64.5q0 40 25.5 65.5t64.5 25.5q40 0 65 -25.5t25 -65.5q0 -39 -25 -64.5t-65 -25.5z" />
    <glyph glyph-name="edotaccent" unicode="&#x117;" horiz-adv-x="500" 
d="M177 165q0 -35 15.5 -57t53.5 -22q17 0 34 7t33.5 17.5t31.5 22t29 20.5l30 -64q-43 -42 -96.5 -72.5t-115.5 -30.5q-42 0 -77.5 15t-61.5 41.5t-41 62.5t-15 78q0 61 24.5 117.5t66 99.5t97 68.5t117.5 25.5q29 0 58 -7t52.5 -22t38 -39t14.5 -57q0 -42 -20 -72
t-51.5 -51t-70.5 -35.5t-77 -25.5zM291 428q-20 0 -39 -24t-33 -55.5t-22.5 -63t-8.5 -47.5q25 5 50.5 20t46 35t33 44t12.5 47q0 20 -8.5 32t-30.5 12zM326 539q-39 0 -64.5 25.5t-25.5 64.5q0 40 25.5 65.5t64.5 25.5q40 0 65 -25.5t25 -65.5q0 -39 -25 -64.5t-65 -25.5z
" />
    <glyph glyph-name="Eogonek" unicode="&#x118;" horiz-adv-x="667" 
d="M167 626l-45 11l16 63h361q38 0 74.5 2t72.5 13l11 -234h-62q-13 41 -26 69t-30 45.5t-41 25.5t-59 8q-33 0 -64 -9l-60 -208h23q48 0 78 23.5t47 69.5h68l-80 -278h-67q8 27 8 47q0 29 -14.5 46.5t-47.5 17.5h-36l-76 -261q15 -4 30 -5t31 -1q45 0 82.5 13t69.5 35.5
t59 53t52 65.5l67 -18l-122 -235q-17 10 -50 13q-79 -29 -112.5 -61t-33.5 -62q0 -23 14.5 -33.5t35.5 -10.5q20 0 40 7t31 14l12 -55q-29 -17 -61.5 -27.5t-76.5 -10.5q-28 0 -49 8t-35.5 20.5t-21.5 29t-7 34.5q0 49 43 86t138 63h-405l17 63l41 6z" />
    <glyph glyph-name="eogonek" unicode="&#x119;" horiz-adv-x="500" 
d="M177 165q0 -35 15.5 -57t53.5 -22q17 0 34 7t33.5 17.5t31.5 22t29 20.5l30 -64q-19 -19 -40.5 -35t-44.5 -31q-70 -47 -102 -82.5t-32 -65.5q0 -23 14.5 -33.5t35.5 -10.5q20 0 40 7t31 14l12 -55q-29 -17 -61.5 -27.5t-76.5 -10.5q-28 0 -49 8t-35.5 20.5t-21.5 29
t-7 34.5q0 43 32 75.5t89 59.5q-41 1 -76 16.5t-60.5 41.5t-40 62t-14.5 77q0 61 24.5 117.5t66 99.5t97 68.5t117.5 25.5q29 0 58 -7t52.5 -22t38 -39t14.5 -57q0 -42 -20 -72t-51.5 -51t-70.5 -35.5t-77 -25.5zM291 428q-20 0 -39 -24t-33 -55.5t-22.5 -63t-8.5 -47.5
q25 5 50.5 20t46 35t33 44t12.5 47q0 20 -8.5 32t-30.5 12z" />
    <glyph glyph-name="Ecaron" unicode="&#x11a;" horiz-adv-x="667" 
d="M167 626l-45 11l16 63h361q38 0 74.5 2t72.5 13l11 -234h-62q-13 41 -26 69t-30 45.5t-41 25.5t-59 8q-33 0 -64 -9l-60 -208h23q48 0 78 23.5t47 69.5h68l-80 -278h-67q8 27 8 47q0 29 -14.5 46.5t-47.5 17.5h-36l-76 -261q15 -4 30 -5t31 -1q45 0 82.5 13t69.5 35.5
t59 53t52 65.5l67 -18l-122 -235q-15 8 -39.5 11.5t-58.5 3.5h-440l17 63l41 6zM362 760l-80 176h65l95 -89l122 89h78l-155 -176h-125z" />
    <glyph glyph-name="ecaron" unicode="&#x11b;" horiz-adv-x="500" 
d="M177 165q0 -35 15.5 -57t53.5 -22q17 0 34 7t33.5 17.5t31.5 22t29 20.5l30 -64q-43 -42 -96.5 -72.5t-115.5 -30.5q-42 0 -77.5 15t-61.5 41.5t-41 62.5t-15 78q0 61 24.5 117.5t66 99.5t97 68.5t117.5 25.5q29 0 58 -7t52.5 -22t38 -39t14.5 -57q0 -42 -20 -72
t-51.5 -51t-70.5 -35.5t-77 -25.5zM291 428q-20 0 -39 -24t-33 -55.5t-22.5 -63t-8.5 -47.5q25 5 50.5 20t46 35t33 44t12.5 47q0 20 -8.5 32t-30.5 12zM243 539l-80 176h65l95 -89l122 89h78l-155 -176h-125z" />
    <glyph glyph-name="Gcircumflex" unicode="&#x11c;" horiz-adv-x="722" 
d="M685 451h-66q-8 31 -21.5 65t-34 62.5t-49 47t-65.5 18.5q-38 0 -68.5 -26t-55 -67t-42 -91.5t-29.5 -100t-17.5 -92.5t-5.5 -69q0 -29 7.5 -54.5t23.5 -45t39 -31t55 -11.5l51 182l-48 5l17 63h307l-20 -63h-40l-35 -120q-8 -26 -14 -55.5t-8 -52.5q-35 0 -69.5 -5
t-69.5 -13q-51 -12 -101 -12q-68 0 -124.5 21.5t-97 61t-62.5 95t-22 123.5q0 78 29.5 155t82 138t124.5 98.5t156 37.5q32 0 61 -7t53 -15q24 -9 42 -16t30 -7q5 0 11 1.5t15.5 6t23 11.5t34.5 19zM543 936l83 -176h-65l-96 87l-121 -87h-77l157 176h119z" />
    <glyph glyph-name="gcircumflex" unicode="&#x11d;" horiz-adv-x="556" 
d="M436 106q-24 -80 -51 -140t-64.5 -100t-89 -60t-123.5 -20q-54 0 -88 11t-53.5 27.5t-27 35.5t-7.5 34q0 29 20.5 50t55.5 21q25 0 41.5 -8.5t26.5 -22.5t15 -33.5t9 -40.5q13 -7 30 -7q14 0 27.5 8.5t26.5 28.5t26 54.5t25 87.5l-2 3q-22 -19 -48 -34t-57 -15
q-65 0 -103.5 41.5t-38.5 122.5q0 66 24.5 128t66 110t96.5 77t116 29q45 0 81.5 -13.5t65.5 -42.5q38 17 64.5 28.5t57.5 27.5q-8 -18 -15.5 -35.5t-12.5 -36.5zM329 337q6 16 10 30t4 22q0 38 -32 38q-20 0 -38.5 -18.5t-34.5 -47.5t-29 -64.5t-22.5 -69t-15 -61.5
t-5.5 -42q0 -18 5.5 -27.5t21.5 -9.5q19 0 35.5 17t27.5 46zM426 715l83 -176h-65l-96 87l-121 -87h-77l157 176h119z" />
    <glyph glyph-name="Gbreve" unicode="&#x11e;" horiz-adv-x="722" 
d="M685 451h-66q-8 31 -21.5 65t-34 62.5t-49 47t-65.5 18.5q-38 0 -68.5 -26t-55 -67t-42 -91.5t-29.5 -100t-17.5 -92.5t-5.5 -69q0 -29 7.5 -54.5t23.5 -45t39 -31t55 -11.5l51 182l-48 5l17 63h307l-20 -63h-40l-35 -120q-8 -26 -14 -55.5t-8 -52.5q-35 0 -69.5 -5
t-69.5 -13q-51 -12 -101 -12q-68 0 -124.5 21.5t-97 61t-62.5 95t-22 123.5q0 78 29.5 155t82 138t124.5 98.5t156 37.5q32 0 61 -7t53 -15q24 -9 42 -16t30 -7q5 0 11 1.5t15.5 6t23 11.5t34.5 19zM366 930q0 -26 8.5 -42t23.5 -24.5t34.5 -11.5t40.5 -3q41 0 73 21t44 60
h51q-4 -37 -19 -68t-39.5 -53t-57 -34t-69.5 -12q-42 0 -70 11t-44.5 32t-23 52t-6.5 72h54z" />
    <glyph glyph-name="gbreve" unicode="&#x11f;" horiz-adv-x="556" 
d="M436 106q-24 -80 -51 -140t-64.5 -100t-89 -60t-123.5 -20q-54 0 -88 11t-53.5 27.5t-27 35.5t-7.5 34q0 29 20.5 50t55.5 21q25 0 41.5 -8.5t26.5 -22.5t15 -33.5t9 -40.5q13 -7 30 -7q14 0 27.5 8.5t26.5 28.5t26 54.5t25 87.5l-2 3q-22 -19 -48 -34t-57 -15
q-65 0 -103.5 41.5t-38.5 122.5q0 66 24.5 128t66 110t96.5 77t116 29q45 0 81.5 -13.5t65.5 -42.5q38 17 64.5 28.5t57.5 27.5q-8 -18 -15.5 -35.5t-12.5 -36.5zM329 337q6 16 10 30t4 22q0 38 -32 38q-20 0 -38.5 -18.5t-34.5 -47.5t-29 -64.5t-22.5 -69t-15 -61.5
t-5.5 -42q0 -18 5.5 -27.5t21.5 -9.5q19 0 35.5 17t27.5 46zM249 709q0 -26 8.5 -42t23.5 -24.5t34.5 -11.5t40.5 -3q41 0 73 21t44 60h51q-4 -37 -19 -68t-39.5 -53t-57 -34t-69.5 -12q-42 0 -70 11t-44.5 32t-23 52t-6.5 72h54z" />
    <glyph glyph-name="Gdotaccent" unicode="&#x120;" horiz-adv-x="722" 
d="M685 451h-66q-8 31 -21.5 65t-34 62.5t-49 47t-65.5 18.5q-38 0 -68.5 -26t-55 -67t-42 -91.5t-29.5 -100t-17.5 -92.5t-5.5 -69q0 -29 7.5 -54.5t23.5 -45t39 -31t55 -11.5l51 182l-48 5l17 63h307l-20 -63h-40l-35 -120q-8 -26 -14 -55.5t-8 -52.5q-35 0 -69.5 -5
t-69.5 -13q-51 -12 -101 -12q-68 0 -124.5 21.5t-97 61t-62.5 95t-22 123.5q0 78 29.5 155t82 138t124.5 98.5t156 37.5q32 0 61 -7t53 -15q24 -9 42 -16t30 -7q5 0 11 1.5t15.5 6t23 11.5t34.5 19zM471 760q-39 0 -64.5 25.5t-25.5 64.5q0 40 25.5 65.5t64.5 25.5
q40 0 65 -25.5t25 -65.5q0 -39 -25 -64.5t-65 -25.5z" />
    <glyph glyph-name="gdotaccent" unicode="&#x121;" horiz-adv-x="556" 
d="M436 106q-24 -80 -51 -140t-64.5 -100t-89 -60t-123.5 -20q-54 0 -88 11t-53.5 27.5t-27 35.5t-7.5 34q0 29 20.5 50t55.5 21q25 0 41.5 -8.5t26.5 -22.5t15 -33.5t9 -40.5q13 -7 30 -7q14 0 27.5 8.5t26.5 28.5t26 54.5t25 87.5l-2 3q-22 -19 -48 -34t-57 -15
q-65 0 -103.5 41.5t-38.5 122.5q0 66 24.5 128t66 110t96.5 77t116 29q45 0 81.5 -13.5t65.5 -42.5q38 17 64.5 28.5t57.5 27.5q-8 -18 -15.5 -35.5t-12.5 -36.5zM329 337q6 16 10 30t4 22q0 38 -32 38q-20 0 -38.5 -18.5t-34.5 -47.5t-29 -64.5t-22.5 -69t-15 -61.5
t-5.5 -42q0 -18 5.5 -27.5t21.5 -9.5q19 0 35.5 17t27.5 46zM354 539q-39 0 -64.5 25.5t-25.5 64.5q0 40 25.5 65.5t64.5 25.5q40 0 65 -25.5t25 -65.5q0 -39 -25 -64.5t-65 -25.5z" />
    <glyph glyph-name="Gcommaaccent" unicode="&#x122;" horiz-adv-x="722" 
d="M685 451h-66q-8 31 -21.5 65t-34 62.5t-49 47t-65.5 18.5q-38 0 -68.5 -26t-55 -67t-42 -91.5t-29.5 -100t-17.5 -92.5t-5.5 -69q0 -29 7.5 -54.5t23.5 -45t39 -31t55 -11.5l51 182l-48 5l17 63h307l-20 -63h-40l-35 -120q-8 -26 -14 -55.5t-8 -52.5q-35 0 -69.5 -5
t-69.5 -13q-51 -12 -101 -12q-68 0 -124.5 21.5t-97 61t-62.5 95t-22 123.5q0 78 29.5 155t82 138t124.5 98.5t156 37.5q32 0 61 -7t53 -15q24 -9 42 -16t30 -7q5 0 11 1.5t15.5 6t23 11.5t34.5 19zM172 -245q13 3 27 8t26 11.5t21 15t12 18.5q-24 8 -39 25.5t-15 45.5
q0 32 26.5 54t64.5 22q39 0 63.5 -27t24.5 -68q0 -52 -47 -94.5t-149 -57.5z" />
    <glyph glyph-name="gcommaaccent" unicode="&#x123;" horiz-adv-x="556" 
d="M436 106q-24 -80 -51 -140t-64.5 -100t-89 -60t-123.5 -20q-54 0 -88 11t-53.5 27.5t-27 35.5t-7.5 34q0 29 20.5 50t55.5 21q25 0 41.5 -8.5t26.5 -22.5t15 -33.5t9 -40.5q13 -7 30 -7q14 0 27.5 8.5t26.5 28.5t26 54.5t25 87.5l-2 3q-22 -19 -48 -34t-57 -15
q-65 0 -103.5 41.5t-38.5 122.5q0 66 24.5 128t66 110t96.5 77t116 29q45 0 81.5 -13.5t65.5 -42.5q38 17 64.5 28.5t57.5 27.5q-8 -18 -15.5 -35.5t-12.5 -36.5zM329 337q6 16 10 30t4 22q0 38 -32 38q-20 0 -38.5 -18.5t-34.5 -47.5t-29 -64.5t-22.5 -69t-15 -61.5
t-5.5 -42q0 -18 5.5 -27.5t21.5 -9.5q19 0 35.5 17t27.5 46zM514 761q-15 -3 -30 -8.5t-28 -12.5t-23 -16t-14 -19q27 -8 43 -26.5t16 -47.5q0 -35 -28.5 -58t-70.5 -23q-43 0 -70 28.5t-27 71.5q0 27 12.5 53t39 47t67.5 36.5t97 23.5z" />
    <glyph glyph-name="Hcircumflex" unicode="&#x124;" horiz-adv-x="778" 
d="M491 406l65 224l-51 7l16 63h313l-16 -63l-52 -7l-158 -561l53 -6l-16 -63h-320l18 63l54 6l73 263h-174l-75 -263l51 -6l-16 -63h-312l16 63l48 6l161 561l-50 7l16 63h315l-14 -63l-54 -7l-65 -224h174zM588 936l83 -176h-65l-96 87l-121 -87h-77l157 176h119z" />
    <glyph glyph-name="hcircumflex" unicode="&#x125;" 
d="M-46 4q14 33 27.5 71t26 77t24 77.5t22.5 72.5l85 265q5 15 9 32t4 33t-14.5 20.5t-32.5 4.5l17 53l261 54l-119 -354l8 2q7 9 22.5 23t35.5 27t44.5 22.5t50.5 9.5q53 0 88 -29.5t35 -85.5q0 -11 -2.5 -25.5t-7.5 -29.5l-58 -162q-8 -20 -13 -34.5t-5 -22.5q0 -9 7 -14
t15 -5q11 0 20 6t18 17l15 -55q-14 -11 -30.5 -23t-35 -22t-38.5 -16.5t-41 -6.5q-20 0 -40.5 5t-37 15.5t-26.5 27.5t-10 40q0 11 4 25.5t10 31.5l65 182q7 20 10.5 32.5t3.5 21.5q0 10 -5 18.5t-20 8.5q-27 0 -53 -26.5t-51.5 -77t-50.5 -123.5t-49 -167zM375 959l83 -176
h-65l-96 87l-121 -87h-77l157 176h119z" />
    <glyph glyph-name="Hbar" unicode="&#x126;" horiz-adv-x="778" 
d="M722 475l-114 -406l53 -6l-16 -63h-320l18 63l54 6l69 250h-174l-71 -250l51 -6l-16 -63h-312l16 63l48 6l117 406h-92l20 69h92l24 86l-50 7l16 63h315l-14 -63l-54 -7l-24 -86h174l24 86l-51 7l16 63h313l-16 -63l-52 -7l-24 -86h102l-21 -69h-101zM488 397l23 78h-174
l-23 -78h174z" />
    <glyph glyph-name="hbar" unicode="&#x127;" 
d="M-46 4q14 33 27.5 71t26 77t24 77.5t22.5 72.5l75 235h-92l24 74h89q1 5 1.5 10.5t0.5 10.5q0 16 -14.5 20.5t-32.5 4.5l17 53l261 54l-52 -153h190l-24 -74h-191l-42 -127l8 2q7 9 22.5 23t35.5 27t44.5 22.5t50.5 9.5q53 0 88 -29.5t35 -85.5q0 -11 -2.5 -25.5
t-7.5 -29.5l-58 -162q-8 -20 -13 -34.5t-5 -22.5q0 -9 7 -14t15 -5q11 0 20 6t18 17l15 -55q-14 -11 -30.5 -23t-35 -22t-38.5 -16.5t-41 -6.5q-20 0 -40.5 5t-37 15.5t-26.5 27.5t-10 40q0 11 4 25.5t10 31.5l65 182q7 20 10.5 32.5t3.5 21.5q0 10 -5 18.5t-20 8.5
q-27 0 -53 -26.5t-51.5 -77t-50.5 -123.5t-49 -167z" />
    <glyph glyph-name="Itilde" unicode="&#x128;" horiz-adv-x="389" 
d="M164 630l-48 7l18 63h314l-20 -63l-45 -7l-159 -561l50 -6l-20 -63h-313l17 63l49 6zM122 780q3 25 14 49t29 43t41 30t50 11q20 0 41 -6.5t41 -14t38 -14t33 -6.5t28 11.5t19 24.5q0 3 1 4h54q-5 -24 -16 -48t-27.5 -43.5t-38.5 -31.5t-49 -12q-23 0 -45.5 6.5
t-42.5 14.5t-38 14.5t-31 6.5q-39 0 -51 -39h-50z" />
    <glyph glyph-name="itilde" unicode="&#x129;" horiz-adv-x="325" 
d="M54 439l218 55q5 -15 8 -31t3 -34t-3.5 -34.5t-11.5 -36.5l-81 -219q-9 -24 -9 -34q0 -7 3 -12t11 -5t22 8t25 19l8 -57q-29 -27 -66.5 -49.5t-79.5 -22.5q-47 0 -75.5 26t-28.5 74q0 12 3 30t15 50l58 160q5 12 6.5 20.5t1.5 13.5q0 16 -9 21.5t-32 5.5zM41 559
q3 25 14 49t29 43t41 30t50 11q20 0 41 -6.5t41 -14t38 -14t33 -6.5t28 11.5t19 24.5q0 3 1 4h54q-5 -24 -16 -48t-27.5 -43.5t-38.5 -31.5t-49 -12q-23 0 -45.5 6.5t-42.5 14.5t-38 14.5t-31 6.5q-39 0 -51 -39h-50z" />
    <glyph glyph-name="Imacron" unicode="&#x12a;" horiz-adv-x="389" 
d="M164 630l-48 7l18 63h314l-20 -63l-45 -7l-159 -561l50 -6l-20 -63h-313l17 63l49 6zM482 800h-347l24 85h347z" />
    <glyph glyph-name="imacron" unicode="&#x12b;" horiz-adv-x="325" 
d="M54 439l218 55q5 -15 8 -31t3 -34t-3.5 -34.5t-11.5 -36.5l-81 -219q-9 -24 -9 -34q0 -7 3 -12t11 -5t22 8t25 19l8 -57q-29 -27 -66.5 -49.5t-79.5 -22.5q-47 0 -75.5 26t-28.5 74q0 12 3 30t15 50l58 160q5 12 6.5 20.5t1.5 13.5q0 16 -9 21.5t-32 5.5zM392 579h-347
l24 85h347z" />
    <glyph glyph-name="Ibreve" unicode="&#x12c;" horiz-adv-x="389" 
d="M164 630l-48 7l18 63h314l-20 -63l-45 -7l-159 -561l50 -6l-20 -63h-313l17 63l49 6zM210 930q0 -26 8.5 -42t23.5 -24.5t34.5 -11.5t40.5 -3q41 0 73 21t44 60h51q-4 -37 -19 -68t-39.5 -53t-57 -34t-69.5 -12q-42 0 -70 11t-44.5 32t-23 52t-6.5 72h54z" />
    <glyph glyph-name="ibreve" unicode="&#x12d;" horiz-adv-x="325" 
d="M54 439l218 55q5 -15 8 -31t3 -34t-3.5 -34.5t-11.5 -36.5l-81 -219q-9 -24 -9 -34q0 -7 3 -12t11 -5t22 8t25 19l8 -57q-29 -27 -66.5 -49.5t-79.5 -22.5q-47 0 -75.5 26t-28.5 74q0 12 3 30t15 50l58 160q5 12 6.5 20.5t1.5 13.5q0 16 -9 21.5t-32 5.5zM137 709
q0 -26 8.5 -42t23.5 -24.5t34.5 -11.5t40.5 -3q41 0 73 21t44 60h51q-4 -37 -19 -68t-39.5 -53t-57 -34t-69.5 -12q-42 0 -70 11t-44.5 32t-23 52t-6.5 72h54z" />
    <glyph glyph-name="Iogonek" unicode="&#x12e;" horiz-adv-x="389" 
d="M164 630l-48 7l18 63h314l-20 -63l-45 -7l-159 -561l50 -6l-20 -63h-36q-81 -29 -116 -61.5t-35 -63.5q0 -23 14.5 -33.5t35.5 -10.5q20 0 40 7t31 14l12 -55q-29 -17 -61.5 -27.5t-76.5 -10.5q-28 0 -49 8t-35.5 20.5t-21.5 29t-7 34.5q0 49 43 86t138 63h-189l17 63
l49 6z" />
    <glyph glyph-name="iogonek" unicode="&#x12f;" horiz-adv-x="325" 
d="M54 439l218 55q5 -15 8 -31t3 -34t-3.5 -34.5t-11.5 -36.5l-81 -219q-9 -24 -9 -34q0 -7 3 -12t11 -5t22 8t25 19l8 -57q-18 -17 -40 -31.5t-45 -26.5q-57 -29 -86.5 -59.5t-29.5 -65.5q0 -23 14.5 -33.5t35.5 -10.5q20 0 40 7t31 14l12 -55q-29 -17 -61.5 -27.5
t-76.5 -10.5q-28 0 -49 8t-35.5 20.5t-21.5 29t-7 34.5q0 86 136 140q-31 9 -49 33t-18 62q0 12 3 30t15 50l58 160q5 12 6.5 20.5t1.5 13.5q0 16 -9 21.5t-32 5.5zM246 734q45 0 74.5 -31t29.5 -76t-29.5 -76t-74.5 -31t-74.5 31t-29.5 76t29.5 76t74.5 31z" />
    <glyph glyph-name="Idotaccent" unicode="&#x130;" horiz-adv-x="389" 
d="M164 630l-48 7l18 63h314l-20 -63l-45 -7l-159 -561l50 -6l-20 -63h-313l17 63l49 6zM324 760q-39 0 -64.5 25.5t-25.5 64.5q0 40 25.5 65.5t64.5 25.5q40 0 65 -25.5t25 -65.5q0 -39 -25 -64.5t-65 -25.5z" />
    <glyph glyph-name="dotlessi" unicode="&#x131;" horiz-adv-x="325" 
d="M54 439l218 55q5 -15 8 -31t3 -34t-3.5 -34.5t-11.5 -36.5l-81 -219q-9 -24 -9 -34q0 -7 3 -12t11 -5t22 8t25 19l8 -57q-29 -27 -66.5 -49.5t-79.5 -22.5q-47 0 -75.5 26t-28.5 74q0 12 3 30t15 50l58 160q5 12 6.5 20.5t1.5 13.5q0 16 -9 21.5t-32 5.5z" />
    <glyph glyph-name="Jcircumflex" unicode="&#x134;" horiz-adv-x="556" 
d="M596 637l-44 -5l-108 -395q-33 -121 -113.5 -186.5t-208.5 -65.5q-27 0 -59 6t-59 20t-45 37t-18 58q0 47 27.5 76t75.5 29q25 0 45 -11.5t34.5 -29.5t22 -40.5t7.5 -45.5q0 -10 1 -17.5t7 -7.5q11 0 20.5 18.5t17.5 43t13.5 47.5t8.5 32l117 430l-53 7l16 63h312z
M559 936l83 -176h-65l-96 87l-121 -87h-77l157 176h119z" />
    <glyph glyph-name="jcircumflex" unicode="&#x135;" horiz-adv-x="333" 
d="M317 715l83 -176h-65l-96 87l-121 -87h-77l157 176h119zM58 436l263 58l-128 -425q-17 -58 -38.5 -109.5t-54 -90t-78.5 -61t-113 -22.5q-25 0 -50 6t-45.5 19t-33.5 33.5t-13 49.5q0 36 25.5 56.5t59.5 20.5q24 0 40 -9.5t25 -24.5t13 -34.5t4 -39.5q0 -11 9 -11t15 16
t11 36l112 409q5 19 9 31t4 20q0 7 -6 11t-14.5 5.5t-17 2t-13.5 0.5z" />
    <glyph glyph-name="Kcommaaccent" unicode="&#x136;" horiz-adv-x="722" 
d="M174 630l-54 7l17 63h322l-18 -63l-57 -7l-80 -278l2 -2l224 209q8 7 17.5 21.5t9.5 25.5q0 16 -19 22t-39 9l17 63h281l-20 -63q-35 -2 -63.5 -20.5t-54.5 -41.5l-134 -118l103 -385l50 -9l-17 -63h-314l16 63l54 9l-58 238l-90 -83l-44 -155l60 -9l-20 -63h-318l17 63
l50 9zM169 -245q13 3 27 8t26 11.5t21 15t12 18.5q-24 8 -39 25.5t-15 45.5q0 32 26.5 54t64.5 22q39 0 63.5 -27t24.5 -68q0 -52 -47 -94.5t-149 -57.5z" />
    <glyph glyph-name="kcommaaccent" unicode="&#x137;" horiz-adv-x="556" 
d="M-51 0q22 47 42.5 104t39.5 116t36 116t32 104l49 155q5 14 6.5 25t1.5 17q0 14 -16 18t-30 4l15 50l256 55q-41 -107 -72.5 -216t-65.5 -217l2 -2q25 23 49.5 51.5t52 54t59 42.5t69.5 17q33 0 56 -24t23 -57q0 -43 -21.5 -64.5t-49.5 -21.5t-42.5 9t-22 19.5t-12 19.5
t-12.5 9q-6 0 -14.5 -5.5t-17 -13t-15.5 -15t-11 -12.5q17 -9 30 -18t21.5 -20.5t13 -26.5t4.5 -37q0 -31 -1 -62t-1 -62q0 -8 3 -17t14 -9t18 6.5t16 11.5l10 -58q-26 -23 -58.5 -41.5t-68.5 -18.5q-30 0 -49.5 10t-31 26.5t-15.5 37t-4 42.5v82q0 21 -1.5 33t-10.5 12
t-17.5 -11t-13.5 -28l-28 -93q-8 -25 -12 -49.5t-9 -47.5h-196zM58 -245q13 3 27 8t26 11.5t21 15t12 18.5q-24 8 -39 25.5t-15 45.5q0 32 26.5 54t64.5 22q39 0 63.5 -27t24.5 -68q0 -52 -47 -94.5t-149 -57.5z" />
    <glyph glyph-name="kgreenlandic" unicode="&#x138;" horiz-adv-x="556" 
d="M224 273q45 67 81.5 110t66.5 67.5t55 34t48 9.5q33 0 56 -24t23 -57q0 -43 -21.5 -64.5t-49.5 -21.5t-41.5 7.5t-20 17t-10 17t-11.5 7.5q-12 0 -33 -19.5t-38 -44.5q15 -3 28 -10t23.5 -18t16.5 -28t6 -41v-103q0 -8 3 -17t14 -9t18 6.5t16 11.5l10 -58
q-26 -23 -58.5 -41.5t-68.5 -18.5q-30 0 -49.5 10t-31 26.5t-15.5 37t-4 42.5v42q0 48 -16 48q-9 0 -24 -19t-23 -47l-8 -29q-7 -25 -11.5 -49.5t-9.5 -47.5h-196q22 47 35 77t22 56.5t18 57t24 77.5q6 20 9.5 35.5t3.5 22.5q0 10 -2.5 20t-14.5 10q-7 0 -13.5 -2.5
t-11.5 -6.5l-23 41l208 106q28 -18 38 -41.5t10 -54.5q0 -12 -3 -27t-7.5 -31.5t-10 -33t-9.5 -31.5z" />
    <glyph glyph-name="Lacute" unicode="&#x139;" 
d="M-43 0l14 65l42 4l159 564l-48 4l17 63h318l-16 -63l-55 -4l-161 -560q5 -1 16.5 -1.5t21.5 -0.5q43 0 78 13t65 35t55.5 51t49.5 61l69 -18l-116 -228q-35 9 -69 12q-35 3 -70 3h-370zM231 760l104 125q29 35 48.5 50t45.5 15q15 0 26.5 -6.5t19 -15.5t11 -18.5
t3.5 -15.5q0 -9 -2 -16t-9 -14.5t-19.5 -16.5t-33.5 -20l-126 -67h-68z" />
    <glyph glyph-name="lacute" unicode="&#x13a;" horiz-adv-x="326" 
d="M250 59q-15 -13 -31.5 -26t-34 -23.5t-37 -17t-40.5 -6.5q-108 0 -108 110q0 11 3.5 30.5t11.5 43.5l139 415q5 14 6.5 24.5t1.5 15.5q0 14 -11 20t-37 8l18 55l267 56q-57 -151 -107.5 -303.5t-98.5 -306.5q-5 -14 -8 -26t-3 -19q0 -15 17 -15q12 0 21.5 7t19.5 15z
M201 783l104 125q29 35 48.5 50t45.5 15q15 0 26.5 -6.5t19 -15.5t11 -18.5t3.5 -15.5q0 -9 -2 -16t-9 -14.5t-19.5 -16.5t-33.5 -20l-126 -67h-68z" />
    <glyph glyph-name="Lcommaaccent" unicode="&#x13b;" 
d="M-43 0l14 65l42 4l159 564l-48 4l17 63h318l-16 -63l-55 -4l-161 -560q5 -1 16.5 -1.5t21.5 -0.5q43 0 78 13t65 35t55.5 51t49.5 61l69 -18l-116 -228q-35 9 -69 12q-35 3 -70 3h-370zM104 -245q13 3 27 8t26 11.5t21 15t12 18.5q-24 8 -39 25.5t-15 45.5q0 32 26.5 54
t64.5 22q39 0 63.5 -27t24.5 -68q0 -52 -47 -94.5t-149 -57.5z" />
    <glyph glyph-name="lcommaaccent" unicode="&#x13c;" horiz-adv-x="326" 
d="M250 59q-15 -13 -31.5 -26t-34 -23.5t-37 -17t-40.5 -6.5q-108 0 -108 110q0 11 3.5 30.5t11.5 43.5l139 415q5 14 6.5 24.5t1.5 15.5q0 14 -11 20t-37 8l18 55l267 56q-57 -151 -107.5 -303.5t-98.5 -306.5q-5 -14 -8 -26t-3 -19q0 -15 17 -15q12 0 21.5 7t19.5 15z
M-53 -245q13 3 27 8t26 11.5t21 15t12 18.5q-24 8 -39 25.5t-15 45.5q0 32 26.5 54t64.5 22q39 0 63.5 -27t24.5 -68q0 -52 -47 -94.5t-149 -57.5z" />
    <glyph glyph-name="Lcaron" unicode="&#x13d;" 
d="M-43 0l14 65l42 4l159 564l-48 4l17 63h318l-16 -63l-55 -4l-161 -560q5 -1 16.5 -1.5t21.5 -0.5q43 0 78 13t65 35t55.5 51t49.5 61l69 -18l-116 -228q-35 9 -69 12q-35 3 -70 3h-370zM437 497q34 14 67 41.5t51 56.5q-25 8 -40 29t-15 50q0 42 26 65t59 23
q42 0 64 -27.5t22 -69.5q0 -60 -51 -117t-149 -93z" />
    <glyph glyph-name="lcaron" unicode="&#x13e;" horiz-adv-x="326" 
d="M250 59q-15 -13 -31.5 -26t-34 -23.5t-37 -17t-40.5 -6.5q-108 0 -108 110q0 11 3.5 30.5t11.5 43.5l139 415q5 14 6.5 24.5t1.5 15.5q0 14 -11 20t-37 8l18 55l267 56q-57 -151 -107.5 -303.5t-98.5 -306.5q-5 -14 -8 -26t-3 -19q0 -15 17 -15q12 0 21.5 7t19.5 15z
M334 497q34 14 67 41.5t51 56.5q-25 8 -40 29t-15 50q0 42 26 65t59 23q42 0 64 -27.5t22 -69.5q0 -60 -51 -117t-149 -93z" />
    <glyph glyph-name="Ldot" unicode="&#x13f;" 
d="M-43 0l14 65l42 4l159 564l-48 4l17 63h318l-16 -63l-55 -4l-161 -560q5 -1 16.5 -1.5t21.5 -0.5q43 0 78 13t65 35t55.5 51t49.5 61l69 -18l-116 -228q-35 9 -69 12q-35 3 -70 3h-370zM512 274q-39 0 -64.5 25.5t-25.5 64.5q0 40 25.5 65.5t64.5 25.5q40 0 65 -25.5
t25 -65.5q0 -39 -25 -64.5t-65 -25.5z" />
    <glyph glyph-name="ldot" unicode="&#x140;" horiz-adv-x="450" 
d="M250 59q-15 -13 -31.5 -26t-34 -23.5t-37 -17t-40.5 -6.5q-108 0 -108 110q0 11 3.5 30.5t11.5 43.5l139 415q5 14 6.5 24.5t1.5 15.5q0 14 -11 20t-37 8l18 55l267 56q-57 -151 -107.5 -303.5t-98.5 -306.5q-5 -14 -8 -26t-3 -19q0 -15 17 -15q12 0 21.5 7t19.5 15z
M393 270q-39 0 -64.5 25.5t-25.5 64.5q0 40 25.5 65.5t64.5 25.5q40 0 65 -25.5t25 -65.5q0 -39 -25 -64.5t-65 -25.5z" />
    <glyph glyph-name="Lslash" unicode="&#x141;" 
d="M227 73q8 -1 18 -1.5t20 -0.5q43 0 78 13t65 35t55.5 51t49.5 61l69 -18l-116 -228q-35 9 -69 12q-35 3 -70 3h-370l14 65l42 4l64 226l-102 -26l17 73l106 27l74 264l-48 4l17 63h318l-16 -63l-55 -4l-59 -204l116 30l-21 -74l-116 -30z" />
    <glyph glyph-name="lslash" unicode="&#x142;" horiz-adv-x="326" 
d="M362 399l-99 -24l-71 -220q-5 -16 -8.5 -27.5t-3.5 -18.5q0 -8 5 -11.5t13 -3.5q12 0 21.5 7t19.5 15l11 -57q-15 -13 -31.5 -26t-34 -23.5t-37 -17t-40.5 -6.5q-108 0 -108 110q0 11 3.5 30.5t11.5 43.5l52 156l-91 -22l20 76l97 24l61 181q5 14 6.5 23t1.5 15
q0 15 -11 22t-37 8l18 55l267 56q-29 -81 -56.5 -157t-53.5 -155l90 22z" />
    <glyph glyph-name="Nacute" unicode="&#x143;" horiz-adv-x="667" 
d="M372 700l119 -449h2l77 299q3 13 4.5 23.5t1.5 16.5q0 27 -17 35.5t-39 11.5l14 63h209l-18 -63q-40 -7 -55.5 -28.5t-25.5 -57.5l-152 -551h-131l-148 527h-2l-91 -336q-4 -14 -7.5 -30.5t-3.5 -31.5q0 -19 4.5 -30t12.5 -17.5t20.5 -10.5t29.5 -8l-19 -63h-220l17 63
q22 1 36.5 11.5t24.5 27t16 35.5t11 37l109 391q6 24 6 34q0 12 -5.5 18.5t-14.5 10.5t-19.5 5.5t-20.5 3.5l14 63h261zM366 760l104 125q29 35 48.5 50t45.5 15q15 0 26.5 -6.5t19 -15.5t11 -18.5t3.5 -15.5q0 -9 -2 -16t-9 -14.5t-19.5 -16.5t-33.5 -20l-126 -67h-68z" />
    <glyph glyph-name="nacute" unicode="&#x144;" 
d="M-34 0q31 74 58.5 149t48.5 153q2 8 4 17t2 18q0 8 -4 14.5t-13 6.5q-6 0 -11.5 -2.5t-10.5 -6.5l-23 46l169 99q31 -21 46.5 -51.5t19.5 -58.5q15 20 34 39.5t41.5 35.5t47 25.5t50.5 9.5q53 0 88 -29.5t35 -85.5q0 -11 -2.5 -25.5t-7.5 -29.5l-56 -166
q-6 -17 -10 -30.5t-4 -21.5q0 -20 16 -20q11 0 20 6t18 17l15 -55q-22 -29 -62.5 -48.5t-82.5 -19.5q-20 0 -40 5t-35.5 15.5t-25 27t-9.5 39.5q0 11 2.5 26t8.5 32l65 183q8 20 11 34t3 19q0 10 -4.5 18.5t-14.5 8.5q-23 0 -45 -24t-42 -61t-37.5 -83t-30.5 -89.5
t-21.5 -80.5t-10.5 -56h-200zM284 539l104 125q29 35 48.5 50t45.5 15q15 0 26.5 -6.5t19 -15.5t11 -18.5t3.5 -15.5q0 -9 -2 -16t-9 -14.5t-19.5 -16.5t-33.5 -20l-126 -67h-68z" />
    <glyph glyph-name="Ncommaaccent" unicode="&#x145;" horiz-adv-x="667" 
d="M372 700l119 -449h2l77 299q3 13 4.5 23.5t1.5 16.5q0 27 -17 35.5t-39 11.5l14 63h209l-18 -63q-40 -7 -55.5 -28.5t-25.5 -57.5l-152 -551h-131l-148 527h-2l-91 -336q-4 -14 -7.5 -30.5t-3.5 -31.5q0 -19 4.5 -30t12.5 -17.5t20.5 -10.5t29.5 -8l-19 -63h-220l17 63
q22 1 36.5 11.5t24.5 27t16 35.5t11 37l109 391q6 24 6 34q0 12 -5.5 18.5t-14.5 10.5t-19.5 5.5t-20.5 3.5l14 63h261zM109 -245q13 3 27 8t26 11.5t21 15t12 18.5q-24 8 -39 25.5t-15 45.5q0 32 26.5 54t64.5 22q39 0 63.5 -27t24.5 -68q0 -52 -47 -94.5t-149 -57.5z" />
    <glyph glyph-name="ncommaaccent" unicode="&#x146;" 
d="M-34 0q31 74 58.5 149t48.5 153q2 8 4 17t2 18q0 8 -4 14.5t-13 6.5q-6 0 -11.5 -2.5t-10.5 -6.5l-23 46l169 99q31 -21 46.5 -51.5t19.5 -58.5q15 20 34 39.5t41.5 35.5t47 25.5t50.5 9.5q53 0 88 -29.5t35 -85.5q0 -11 -2.5 -25.5t-7.5 -29.5l-56 -166
q-6 -17 -10 -30.5t-4 -21.5q0 -20 16 -20q11 0 20 6t18 17l15 -55q-22 -29 -62.5 -48.5t-82.5 -19.5q-20 0 -40 5t-35.5 15.5t-25 27t-9.5 39.5q0 11 2.5 26t8.5 32l65 183q8 20 11 34t3 19q0 10 -4.5 18.5t-14.5 8.5q-23 0 -45 -24t-42 -61t-37.5 -83t-30.5 -89.5
t-21.5 -80.5t-10.5 -56h-200zM88 -245q13 3 27 8t26 11.5t21 15t12 18.5q-24 8 -39 25.5t-15 45.5q0 32 26.5 54t64.5 22q39 0 63.5 -27t24.5 -68q0 -52 -47 -94.5t-149 -57.5z" />
    <glyph glyph-name="Ncaron" unicode="&#x147;" horiz-adv-x="667" 
d="M372 700l119 -449h2l77 299q3 13 4.5 23.5t1.5 16.5q0 27 -17 35.5t-39 11.5l14 63h209l-18 -63q-40 -7 -55.5 -28.5t-25.5 -57.5l-152 -551h-131l-148 527h-2l-91 -336q-4 -14 -7.5 -30.5t-3.5 -31.5q0 -19 4.5 -30t12.5 -17.5t20.5 -10.5t29.5 -8l-19 -63h-220l17 63
q22 1 36.5 11.5t24.5 27t16 35.5t11 37l109 391q6 24 6 34q0 12 -5.5 18.5t-14.5 10.5t-19.5 5.5t-20.5 3.5l14 63h261zM368 760l-80 176h65l95 -89l122 89h78l-155 -176h-125z" />
    <glyph glyph-name="ncaron" unicode="&#x148;" 
d="M-34 0q31 74 58.5 149t48.5 153q2 8 4 17t2 18q0 8 -4 14.5t-13 6.5q-6 0 -11.5 -2.5t-10.5 -6.5l-23 46l169 99q31 -21 46.5 -51.5t19.5 -58.5q15 20 34 39.5t41.5 35.5t47 25.5t50.5 9.5q53 0 88 -29.5t35 -85.5q0 -11 -2.5 -25.5t-7.5 -29.5l-56 -166
q-6 -17 -10 -30.5t-4 -21.5q0 -20 16 -20q11 0 20 6t18 17l15 -55q-22 -29 -62.5 -48.5t-82.5 -19.5q-20 0 -40 5t-35.5 15.5t-25 27t-9.5 39.5q0 11 2.5 26t8.5 32l65 183q8 20 11 34t3 19q0 10 -4.5 18.5t-14.5 8.5q-23 0 -45 -24t-42 -61t-37.5 -83t-30.5 -89.5
t-21.5 -80.5t-10.5 -56h-200zM298 539l-80 176h65l95 -89l122 89h78l-155 -176h-125z" />
    <glyph glyph-name="Eng" unicode="&#x14a;" horiz-adv-x="667" 
d="M491 251h2l77 299q3 13 4.5 23.5t1.5 16.5q0 27 -17 35.5t-39 11.5l14 63h209l-18 -63q-40 -7 -55.5 -28.5t-25.5 -57.5l-162 -592q-17 -59 -39.5 -98.5t-49.5 -63t-58 -33t-65 -9.5q-42 0 -71 11.5t-47 29.5t-26 40.5t-8 44.5q0 43 27.5 71.5t75.5 28.5q21 0 39 -5.5
t32 -19t22 -35.5t8 -55q0 -8 1 -15.5t7 -7.5q11 0 21 7t18 17t14.5 21t9.5 20l9 24l-189 595h-2l-91 -336q-4 -14 -7.5 -30.5t-3.5 -31.5q0 -19 4.5 -30t12.5 -17.5t20.5 -10.5t29.5 -8l-19 -63h-220l17 63q22 1 36.5 11.5t24.5 27t16 35.5t11 37l109 391q6 24 6 34
q0 12 -5.5 18.5t-14.5 10.5t-19.5 5.5t-20.5 3.5l14 63h261z" />
    <glyph glyph-name="eng" unicode="&#x14b;" 
d="M460 69q-18 -58 -39.5 -109.5t-53.5 -90t-78 -61t-113 -22.5q-25 0 -50 6t-45.5 19t-33.5 33.5t-13 49.5q0 36 25.5 56.5t59.5 20.5q24 0 39 -9.5t24 -24.5t12 -34.5t3 -39.5q0 -11 9 -11q6 0 13.5 10t17.5 42l118 381q3 9 5.5 19.5t5 21.5t4 20.5t1.5 16.5q0 31 -18 31
q-23 0 -45 -24t-42 -61t-37.5 -83t-30.5 -89.5t-21.5 -80.5t-10.5 -56h-200q31 74 58.5 149t48.5 153q2 8 4 17t2 18q0 8 -4 14.5t-13 6.5q-6 0 -11.5 -2.5t-10.5 -6.5l-23 46l169 99q31 -21 46.5 -51.5t19.5 -58.5q15 20 34 39.5t41.5 35.5t47 25.5t50.5 9.5q53 0 88 -29
t35 -80q0 -19 -5 -42t-13 -46z" />
    <glyph glyph-name="Omacron" unicode="&#x14c;" horiz-adv-x="722" 
d="M24 275q0 82 30 161t83.5 141t127.5 100t161 38q64 0 114 -22t85 -61t53.5 -92t18.5 -115q0 -82 -30 -161t-83 -141t-127 -100t-161 -38q-64 0 -114.5 22t-85.5 61t-53.5 92t-18.5 115zM507 561q0 35 -17.5 59t-60.5 24q-30 0 -58 -32t-51.5 -82t-43 -110t-33.5 -116
t-21.5 -101t-7.5 -64q0 -35 17.5 -59t60.5 -24q30 0 58 32t51.5 82t43 110t33.5 116t21.5 101t7.5 64zM649 800h-347l24 85h347z" />
    <glyph glyph-name="omacron" unicode="&#x14d;" horiz-adv-x="556" 
d="M293 428q-18 0 -34.5 -20.5t-31 -52.5t-27 -70.5t-21 -75t-13.5 -66t-5 -42.5q0 -23 8.5 -36t31.5 -13q18 0 34.5 20.5t31 52t27 70t21 75t13.5 65.5t5 43q0 23 -8.5 36.5t-31.5 13.5zM278 494q47 0 87.5 -14t70.5 -41t47.5 -67t17.5 -93q0 -58 -22.5 -111t-61 -93.5
t-90 -64.5t-110.5 -24q-47 0 -88 14t-71 41t-47.5 67t-17.5 93q0 58 22.5 111t61 93.5t90.5 64.5t111 24zM511 579h-347l24 85h347z" />
    <glyph glyph-name="Obreve" unicode="&#x14e;" horiz-adv-x="722" 
d="M24 275q0 82 30 161t83.5 141t127.5 100t161 38q64 0 114 -22t85 -61t53.5 -92t18.5 -115q0 -82 -30 -161t-83 -141t-127 -100t-161 -38q-64 0 -114.5 22t-85.5 61t-53.5 92t-18.5 115zM507 561q0 35 -17.5 59t-60.5 24q-30 0 -58 -32t-51.5 -82t-43 -110t-33.5 -116
t-21.5 -101t-7.5 -64q0 -35 17.5 -59t60.5 -24q30 0 58 32t51.5 82t43 110t33.5 116t21.5 101t7.5 64zM376 930q0 -26 8.5 -42t23.5 -24.5t34.5 -11.5t40.5 -3q41 0 73 21t44 60h51q-4 -37 -19 -68t-39.5 -53t-57 -34t-69.5 -12q-42 0 -70 11t-44.5 32t-23 52t-6.5 72h54z
" />
    <glyph glyph-name="obreve" unicode="&#x14f;" horiz-adv-x="556" 
d="M293 428q-18 0 -34.5 -20.5t-31 -52.5t-27 -70.5t-21 -75t-13.5 -66t-5 -42.5q0 -23 8.5 -36t31.5 -13q18 0 34.5 20.5t31 52t27 70t21 75t13.5 65.5t5 43q0 23 -8.5 36.5t-31.5 13.5zM278 494q47 0 87.5 -14t70.5 -41t47.5 -67t17.5 -93q0 -58 -22.5 -111t-61 -93.5
t-90 -64.5t-110.5 -24q-47 0 -88 14t-71 41t-47.5 67t-17.5 93q0 58 22.5 111t61 93.5t90.5 64.5t111 24zM243 709q0 -26 8.5 -42t23.5 -24.5t34.5 -11.5t40.5 -3q41 0 73 21t44 60h51q-4 -37 -19 -68t-39.5 -53t-57 -34t-69.5 -12q-42 0 -70 11t-44.5 32t-23 52t-6.5 72h54
z" />
    <glyph glyph-name="Ohungarumlaut" unicode="&#x150;" horiz-adv-x="722" 
d="M24 275q0 82 30 161t83.5 141t127.5 100t161 38q64 0 114 -22t85 -61t53.5 -92t18.5 -115q0 -82 -30 -161t-83 -141t-127 -100t-161 -38q-64 0 -114.5 22t-85.5 61t-53.5 92t-18.5 115zM507 561q0 35 -17.5 59t-60.5 24q-30 0 -58 -32t-51.5 -82t-43 -110t-33.5 -116
t-21.5 -101t-7.5 -64q0 -35 17.5 -59t60.5 -24q30 0 58 32t51.5 82t43 110t33.5 116t21.5 101t7.5 64zM513 760l104 125q29 35 48.5 50t45.5 15q15 0 26.5 -6.5t19 -15.5t11 -18.5t3.5 -15.5q0 -9 -2 -16t-9 -14.5t-19.5 -16.5t-33.5 -20l-126 -67h-68zM316 760l95 132
q27 37 45 54t44 17q14 0 26 -5.5t20.5 -13.5t13 -17t4.5 -15q0 -9 -2 -16t-8 -15t-17.5 -18t-31.5 -23l-121 -80h-68z" />
    <glyph glyph-name="ohungarumlaut" unicode="&#x151;" horiz-adv-x="556" 
d="M293 428q-18 0 -34.5 -20.5t-31 -52.5t-27 -70.5t-21 -75t-13.5 -66t-5 -42.5q0 -23 8.5 -36t31.5 -13q18 0 34.5 20.5t31 52t27 70t21 75t13.5 65.5t5 43q0 23 -8.5 36.5t-31.5 13.5zM278 494q47 0 87.5 -14t70.5 -41t47.5 -67t17.5 -93q0 -58 -22.5 -111t-61 -93.5
t-90 -64.5t-110.5 -24q-47 0 -88 14t-71 41t-47.5 67t-17.5 93q0 58 22.5 111t61 93.5t90.5 64.5t111 24zM362 539l104 125q29 35 48.5 50t45.5 15q15 0 26.5 -6.5t19 -15.5t11 -18.5t3.5 -15.5q0 -9 -2 -16t-9 -14.5t-19.5 -16.5t-33.5 -20l-126 -67h-68zM165 539l95 132
q27 37 45 54t44 17q14 0 26 -5.5t20.5 -13.5t13 -17t4.5 -15q0 -9 -2 -16t-8 -15t-17.5 -18t-31.5 -23l-121 -80h-68z" />
    <glyph glyph-name="OE" unicode="&#x152;" horiz-adv-x="938" 
d="M928 474h-54q-8 39 -17.5 68t-24 48.5t-37 29t-55.5 9.5h-52l-59 -217h34q20 0 35.5 8t27.5 20.5t21.5 28.5t18.5 32h56l-74 -282h-56q0 13 1 26t1 26q0 27 -10 47t-38 20h-35l-73 -263q14 -3 29.5 -3.5t30.5 -0.5q39 0 72.5 14t62 37t52 51.5t41.5 57.5l58 -19
l-111 -227q-26 9 -55 12t-62 3h-201q-27 0 -52.5 -3t-48.5 -5q-23 -3 -42.5 -5t-35.5 -2q-66 0 -113.5 23t-78 61.5t-45.5 89t-15 106.5q0 55 11.5 110.5t34 106.5t56 94.5t77.5 75.5q33 24 66.5 36.5t65 18.5t59.5 7t49 1q42 0 74 -3.5t67 -5.5t73.5 -4t85.5 -2
q45 0 91 1.5t90 12.5zM462 517q8 29 12 51t4 35q0 15 -14 28t-40 13q-43 0 -68.5 -22.5t-44.5 -57.5q-11 -20 -23.5 -54t-25 -75.5t-24 -87t-20.5 -87t-14.5 -77t-5.5 -56.5q0 -32 17.5 -51.5t51.5 -19.5q23 0 40 9t28.5 23.5t18.5 31.5t12 34z" />
    <glyph glyph-name="oe" unicode="&#x153;" horiz-adv-x="776" 
d="M684 93q-25 -25 -49 -45t-50.5 -33.5t-56 -21t-66.5 -7.5q-32 0 -66 11t-57 34q-29 -20 -62.5 -32.5t-68.5 -12.5q-48 0 -87.5 14.5t-68 42t-44 66t-15.5 86.5q0 60 22 114.5t60.5 95.5t91.5 65t115 24q38 0 77.5 -14t66.5 -40q37 25 78.5 39.5t86.5 14.5q28 0 55 -7.5
t48 -22.5t34 -38t13 -54q0 -37 -19.5 -66.5t-49.5 -52t-67.5 -39t-73.5 -27.5l-77 -23q0 -38 15 -58t56 -20q19 0 36.5 7.5t33.5 18.5t30.5 24.5t28.5 24.5zM322 383q0 24 -9 34.5t-26 10.5q-18 0 -34 -22t-30 -55.5t-25.5 -73.5t-19.5 -76.5t-12.5 -64t-4.5 -35.5
q0 -49 35 -49q18 0 34 22t30 56.5t25.5 75t19.5 77t12.5 64.5t4.5 36zM465 238q26 6 51 18.5t45 31.5t32.5 43t12.5 53q0 17 -6.5 30.5t-26.5 13.5q-24 0 -42 -23t-31.5 -54t-22 -63t-12.5 -50z" />
    <glyph glyph-name="Racute" unicode="&#x154;" horiz-adv-x="667" 
d="M308 385h26q33 0 56.5 18t38 45t21.5 58.5t7 58.5q0 25 -14.5 44.5t-42.5 19.5h-23zM542 72l41 -9l-16 -63h-216l-59 321h-2l-71 -252l47 -6l-17 -63h-304l19 63l43 6l163 564l-48 4l17 63h300q58 0 99 -13t67.5 -37t39 -58t12.5 -75q0 -36 -13.5 -69.5t-36 -60t-53 -44
t-63.5 -20.5zM363 760l104 125q29 35 48.5 50t45.5 15q15 0 26.5 -6.5t19 -15.5t11 -18.5t3.5 -15.5q0 -9 -2 -16t-9 -14.5t-19.5 -16.5t-33.5 -20l-126 -67h-68z" />
    <glyph glyph-name="racute" unicode="&#x155;" horiz-adv-x="444" 
d="M-30 0q28 57 49 128.5t41 139.5q6 20 9.5 35.5t3.5 22.5q0 10 -2.5 20t-14.5 10q-7 0 -13.5 -2.5t-11.5 -6.5l-23 41l159 106q32 -24 43.5 -48.5t11.5 -55.5q0 -11 -0.5 -23t-1.5 -21h2q25 48 47 77t40.5 45t34.5 21t31 5q38 0 58.5 -23.5t20.5 -60.5q0 -44 -20 -72.5
t-62 -28.5q-19 0 -30 5.5t-17.5 12.5t-10.5 12.5t-9 5.5q-12 0 -25.5 -19t-26.5 -45t-24 -54t-17 -46q-16 -45 -26 -89.5t-18 -91.5h-198zM198 539l104 125q29 35 48.5 50t45.5 15q15 0 26.5 -6.5t19 -15.5t11 -18.5t3.5 -15.5q0 -9 -2 -16t-9 -14.5t-19.5 -16.5t-33.5 -20
l-126 -67h-68z" />
    <glyph glyph-name="Rcommaaccent" unicode="&#x156;" horiz-adv-x="667" 
d="M308 385h26q33 0 56.5 18t38 45t21.5 58.5t7 58.5q0 25 -14.5 44.5t-42.5 19.5h-23zM542 72l41 -9l-16 -63h-216l-59 321h-2l-71 -252l47 -6l-17 -63h-304l19 63l43 6l163 564l-48 4l17 63h300q58 0 99 -13t67.5 -37t39 -58t12.5 -75q0 -36 -13.5 -69.5t-36 -60t-53 -44
t-63.5 -20.5zM141 -245q13 3 27 8t26 11.5t21 15t12 18.5q-24 8 -39 25.5t-15 45.5q0 32 26.5 54t64.5 22q39 0 63.5 -27t24.5 -68q0 -52 -47 -94.5t-149 -57.5z" />
    <glyph glyph-name="rcommaaccent" unicode="&#x157;" horiz-adv-x="444" 
d="M-30 0q28 57 49 128.5t41 139.5q6 20 9.5 35.5t3.5 22.5q0 10 -2.5 20t-14.5 10q-7 0 -13.5 -2.5t-11.5 -6.5l-23 41l159 106q32 -24 43.5 -48.5t11.5 -55.5q0 -11 -0.5 -23t-1.5 -21h2q25 48 47 77t40.5 45t34.5 21t31 5q38 0 58.5 -23.5t20.5 -60.5q0 -44 -20 -72.5
t-62 -28.5q-19 0 -30 5.5t-17.5 12.5t-10.5 12.5t-9 5.5q-12 0 -25.5 -19t-26.5 -45t-24 -54t-17 -46q-16 -45 -26 -89.5t-18 -91.5h-198zM-58 -245q13 3 27 8t26 11.5t21 15t12 18.5q-24 8 -39 25.5t-15 45.5q0 32 26.5 54t64.5 22q39 0 63.5 -27t24.5 -68q0 -52 -47 -94.5
t-149 -57.5z" />
    <glyph glyph-name="Rcaron" unicode="&#x158;" horiz-adv-x="667" 
d="M308 385h26q33 0 56.5 18t38 45t21.5 58.5t7 58.5q0 25 -14.5 44.5t-42.5 19.5h-23zM542 72l41 -9l-16 -63h-216l-59 321h-2l-71 -252l47 -6l-17 -63h-304l19 63l43 6l163 564l-48 4l17 63h300q58 0 99 -13t67.5 -37t39 -58t12.5 -75q0 -36 -13.5 -69.5t-36 -60t-53 -44
t-63.5 -20.5zM370 760l-80 176h65l95 -89l122 89h78l-155 -176h-125z" />
    <glyph glyph-name="rcaron" unicode="&#x159;" horiz-adv-x="444" 
d="M-30 0q28 57 49 128.5t41 139.5q6 20 9.5 35.5t3.5 22.5q0 10 -2.5 20t-14.5 10q-7 0 -13.5 -2.5t-11.5 -6.5l-23 41l159 106q32 -24 43.5 -48.5t11.5 -55.5q0 -11 -0.5 -23t-1.5 -21h2q25 48 47 77t40.5 45t34.5 21t31 5q38 0 58.5 -23.5t20.5 -60.5q0 -44 -20 -72.5
t-62 -28.5q-19 0 -30 5.5t-17.5 12.5t-10.5 12.5t-9 5.5q-12 0 -25.5 -19t-26.5 -45t-24 -54t-17 -46q-16 -45 -26 -89.5t-18 -91.5h-198zM201 539l-80 176h65l95 -89l122 89h78l-155 -176h-125z" />
    <glyph glyph-name="Sacute" unicode="&#x15a;" 
d="M1 266l64 3q10 -38 25 -76t38.5 -68.5t57 -49.5t78.5 -19q20 0 38 6.5t32 18.5t22.5 29t8.5 38q0 29 -20 51.5t-49.5 43.5t-64.5 44t-64.5 52t-49.5 67.5t-20 91.5q0 52 21.5 92.5t56 68.5t78 42t87.5 14q42 0 71.5 -8t51 -17.5t36.5 -17.5t28 -8q15 0 32 6.5t31 12.5
l-3 -210l-63 -4q-7 31 -20 62.5t-33 56.5t-47.5 40.5t-63.5 15.5q-18 0 -34 -4.5t-29 -14t-20.5 -23.5t-7.5 -33q0 -29 20 -50t49.5 -40.5t64.5 -39.5t64.5 -48.5t49.5 -68.5t20 -97t-21 -101.5t-57 -75.5t-84 -47t-102 -16q-35 0 -67.5 9t-58.5 22t-46 20.5t-38 7.5
q-17 0 -33.5 -7.5t-31.5 -14.5zM316 760l104 125q29 35 48.5 50t45.5 15q15 0 26.5 -6.5t19 -15.5t11 -18.5t3.5 -15.5q0 -9 -2 -16t-9 -14.5t-19.5 -16.5t-33.5 -20l-126 -67h-68z" />
    <glyph glyph-name="sacute" unicode="&#x15b;" horiz-adv-x="444" 
d="M238 494q22 0 53 -4t59.5 -14.5t48.5 -29.5t20 -48q0 -35 -23 -50.5t-57 -15.5q-11 0 -24 6t-24 17.5t-18.5 27t-8.5 34.5q-4 3 -15 7t-21 4q-17 0 -30 -12t-13 -29q0 -19 13.5 -32.5t33.5 -25.5t43 -25t43 -31.5t33.5 -44.5t13.5 -65q0 -44 -18 -77t-47.5 -55.5
t-67.5 -33.5t-78 -11q-25 0 -57 3.5t-60.5 14.5t-48.5 31.5t-20 53.5q0 32 18.5 54t51.5 22q42 0 61 -23.5t24 -61.5q2 -21 15 -24.5t26 -3.5q19 0 37.5 11t18.5 34q0 20 -13.5 35.5t-33.5 29.5t-43 28t-43 32t-33.5 41.5t-13.5 56.5q0 42 16.5 74t43.5 54.5t63 34t75 11.5z
M190 539l104 125q29 35 48.5 50t45.5 15q15 0 26.5 -6.5t19 -15.5t11 -18.5t3.5 -15.5q0 -9 -2 -16t-9 -14.5t-19.5 -16.5t-33.5 -20l-126 -67h-68z" />
    <glyph glyph-name="Scircumflex" unicode="&#x15c;" 
d="M1 266l64 3q10 -38 25 -76t38.5 -68.5t57 -49.5t78.5 -19q20 0 38 6.5t32 18.5t22.5 29t8.5 38q0 29 -20 51.5t-49.5 43.5t-64.5 44t-64.5 52t-49.5 67.5t-20 91.5q0 52 21.5 92.5t56 68.5t78 42t87.5 14q42 0 71.5 -8t51 -17.5t36.5 -17.5t28 -8q15 0 32 6.5t31 12.5
l-3 -210l-63 -4q-7 31 -20 62.5t-33 56.5t-47.5 40.5t-63.5 15.5q-18 0 -34 -4.5t-29 -14t-20.5 -23.5t-7.5 -33q0 -29 20 -50t49.5 -40.5t64.5 -39.5t64.5 -48.5t49.5 -68.5t20 -97t-21 -101.5t-57 -75.5t-84 -47t-102 -16q-35 0 -67.5 9t-58.5 22t-46 20.5t-38 7.5
q-17 0 -33.5 -7.5t-31.5 -14.5zM485 936l83 -176h-65l-96 87l-121 -87h-77l157 176h119z" />
    <glyph glyph-name="scircumflex" unicode="&#x15d;" horiz-adv-x="444" 
d="M238 494q22 0 53 -4t59.5 -14.5t48.5 -29.5t20 -48q0 -35 -23 -50.5t-57 -15.5q-11 0 -24 6t-24 17.5t-18.5 27t-8.5 34.5q-4 3 -15 7t-21 4q-17 0 -30 -12t-13 -29q0 -19 13.5 -32.5t33.5 -25.5t43 -25t43 -31.5t33.5 -44.5t13.5 -65q0 -44 -18 -77t-47.5 -55.5
t-67.5 -33.5t-78 -11q-25 0 -57 3.5t-60.5 14.5t-48.5 31.5t-20 53.5q0 32 18.5 54t51.5 22q42 0 61 -23.5t24 -61.5q2 -21 15 -24.5t26 -3.5q19 0 37.5 11t18.5 34q0 20 -13.5 35.5t-33.5 29.5t-43 28t-43 32t-33.5 41.5t-13.5 56.5q0 42 16.5 74t43.5 54.5t63 34t75 11.5z
M359 715l83 -176h-65l-96 87l-121 -87h-77l157 176h119z" />
    <glyph glyph-name="Scedilla" unicode="&#x15e;" 
d="M98 -159q17 -8 35.5 -13t37.5 -5q7 0 16.5 1.5t17 5t13 10t5.5 16.5q0 22 -13 30t-30 8q-16 0 -28 -4l-20 18l67 88q-29 8 -52 20q-26 13 -46 20.5t-38 7.5q-17 0 -33.5 -7.5t-31.5 -14.5l3 244l64 3q10 -38 25 -76t38.5 -68.5t57 -49.5t78.5 -19q20 0 38 6.5t32 18.5
t22.5 29t8.5 38q0 29 -20 51.5t-49.5 43.5t-64.5 44t-64.5 52t-49.5 67.5t-20 91.5q0 52 21.5 92.5t56 68.5t78 42t87.5 14q42 0 71.5 -8t51 -17.5t36.5 -17.5t28 -8q15 0 32 6.5t31 12.5l-3 -210l-63 -4q-7 31 -20 62.5t-33 56.5t-47.5 40.5t-63.5 15.5q-18 0 -34 -4.5
t-29 -14t-20.5 -23.5t-7.5 -33q0 -29 20 -50t49.5 -40.5t64.5 -39.5t64.5 -48.5t49.5 -68.5t20 -97t-21 -101.5t-57 -75.5t-84 -47t-102 -16q-8 0 -15 0.5t-15 1.5l-41 -51q10 1 19.5 2.5t19.5 1.5q39 0 64.5 -20.5t25.5 -60.5q0 -23 -15.5 -39t-37 -26t-45.5 -14.5
t-41 -4.5q-30 0 -60.5 8.5t-56.5 23.5z" />
    <glyph glyph-name="scedilla" unicode="&#x15f;" horiz-adv-x="444" 
d="M-13 -159q17 -8 35.5 -13t37.5 -5q7 0 16.5 1.5t17 5t13 10t5.5 16.5q0 22 -13 30t-30 8q-16 0 -28 -4l-20 18l64 84q-22 3 -43 10t-37.5 18.5t-26.5 28t-10 40.5q0 32 18.5 54t51.5 22q42 0 61 -23.5t24 -61.5q2 -21 15 -24.5t26 -3.5q19 0 37.5 11t18.5 34
q0 20 -13.5 35.5t-33.5 29.5t-43 28t-43 32t-33.5 41.5t-13.5 56.5q0 42 16.5 74t43.5 54.5t63 34t75 11.5q22 0 53 -4t59.5 -14.5t48.5 -29.5t20 -48q0 -35 -23 -50.5t-57 -15.5q-11 0 -24 6t-24 17.5t-18.5 27t-8.5 34.5q-4 3 -15 7t-21 4q-17 0 -30 -12t-13 -29
q0 -19 13.5 -32.5t33.5 -25.5t43 -25t43 -31.5t33.5 -44.5t13.5 -65q0 -44 -18 -77t-47.5 -55.5t-67.5 -33.5t-78 -11h-11t-12 1l-40 -51q10 1 19.5 2.5t19.5 1.5q39 0 64.5 -20.5t25.5 -60.5q0 -23 -15.5 -39t-37 -26t-45.5 -14.5t-41 -4.5q-30 0 -60.5 8.5t-56.5 23.5z
" />
    <glyph glyph-name="Scaron" unicode="&#x160;" 
d="M1 266l64 3q10 -38 25 -76t38.5 -68.5t57 -49.5t78.5 -19q20 0 38 6.5t32 18.5t22.5 29t8.5 38q0 29 -20 51.5t-49.5 43.5t-64.5 44t-64.5 52t-49.5 67.5t-20 91.5q0 52 21.5 92.5t56 68.5t78 42t87.5 14q42 0 71.5 -8t51 -17.5t36.5 -17.5t28 -8q15 0 32 6.5t31 12.5
l-3 -210l-63 -4q-7 31 -20 62.5t-33 56.5t-47.5 40.5t-63.5 15.5q-18 0 -34 -4.5t-29 -14t-20.5 -23.5t-7.5 -33q0 -29 20 -50t49.5 -40.5t64.5 -39.5t64.5 -48.5t49.5 -68.5t20 -97t-21 -101.5t-57 -75.5t-84 -47t-102 -16q-35 0 -67.5 9t-58.5 22t-46 20.5t-38 7.5
q-17 0 -33.5 -7.5t-31.5 -14.5zM340 760l-80 176h65l95 -89l122 89h78l-155 -176h-125z" />
    <glyph glyph-name="scaron" unicode="&#x161;" horiz-adv-x="444" 
d="M238 494q22 0 53 -4t59.5 -14.5t48.5 -29.5t20 -48q0 -35 -23 -50.5t-57 -15.5q-11 0 -24 6t-24 17.5t-18.5 27t-8.5 34.5q-4 3 -15 7t-21 4q-17 0 -30 -12t-13 -29q0 -19 13.5 -32.5t33.5 -25.5t43 -25t43 -31.5t33.5 -44.5t13.5 -65q0 -44 -18 -77t-47.5 -55.5
t-67.5 -33.5t-78 -11q-25 0 -57 3.5t-60.5 14.5t-48.5 31.5t-20 53.5q0 32 18.5 54t51.5 22q42 0 61 -23.5t24 -61.5q2 -21 15 -24.5t26 -3.5q19 0 37.5 11t18.5 34q0 20 -13.5 35.5t-33.5 29.5t-43 28t-43 32t-33.5 41.5t-13.5 56.5q0 42 16.5 74t43.5 54.5t63 34t75 11.5z
M204 539l-80 176h65l95 -89l122 89h78l-155 -176h-125z" />
    <glyph glyph-name="Tcommaaccent" unicode="&#x162;" 
d="M38 492l90 223q9 -3 17.5 -5.5t17.5 -4.5q20 -5 36 -5h328q32 0 63.5 4.5t62.5 10.5l-12 -243h-65q0 22 -2 50.5t-10 53.5t-25 42t-48 17l-161 -566l50 -6l-20 -63h-308l19 63l46 6l162 566q-34 0 -61 -15t-48 -38.5t-38 -51.5t-30 -55zM61 -245q13 3 27 8t26 11.5t21 15
t12 18.5q-24 8 -39 25.5t-15 45.5q0 32 26.5 54t64.5 22q39 0 63.5 -27t24.5 -68q0 -52 -47 -94.5t-149 -57.5z" />
    <glyph glyph-name="tcommaaccent" unicode="&#x163;" horiz-adv-x="389" 
d="M54 414l20 66h54l43 129l201 65q-19 -48 -33 -96.5t-30 -97.5h90l-23 -66h-89l-87 -249q-12 -36 -12 -51q0 -28 29 -28q8 0 16.5 5t16.5 11.5l16 13t15 9.5l10 -61q-37 -32 -80 -55t-94 -23q-23 0 -42.5 7.5t-34.5 21t-23.5 33t-8.5 42.5q0 14 4 34t12 44l81 246h-51z
M-47 -245q13 3 27 8t26 11.5t21 15t12 18.5q-24 8 -39 25.5t-15 45.5q0 32 26.5 54t64.5 22q39 0 63.5 -27t24.5 -68q0 -52 -47 -94.5t-149 -57.5z" />
    <glyph glyph-name="Tcaron" unicode="&#x164;" 
d="M38 492l90 223q9 -3 17.5 -5.5t17.5 -4.5q20 -5 36 -5h328q32 0 63.5 4.5t62.5 10.5l-12 -243h-65q0 22 -2 50.5t-10 53.5t-25 42t-48 17l-161 -566l50 -6l-20 -63h-308l19 63l46 6l162 566q-34 0 -61 -15t-48 -38.5t-38 -51.5t-30 -55zM342 760l-80 176h65l95 -89
l122 89h78l-155 -176h-125z" />
    <glyph glyph-name="tcaron" unicode="&#x165;" horiz-adv-x="389" 
d="M54 414l20 66h54l43 129l201 65q-19 -48 -33 -96.5t-30 -97.5h90l-23 -66h-89l-87 -249q-12 -36 -12 -51q0 -28 29 -28q8 0 16.5 5t16.5 11.5l16 13t15 9.5l10 -61q-37 -32 -80 -55t-94 -23q-23 0 -42.5 7.5t-34.5 21t-23.5 33t-8.5 42.5q0 14 4 34t12 44l81 246h-51z
M344 563q34 14 67 41.5t51 56.5q-25 8 -40 29t-15 50q0 42 26 65t59 23q42 0 64 -27.5t22 -69.5q0 -60 -51 -117t-149 -93z" />
    <glyph glyph-name="Tbar" unicode="&#x166;" 
d="M38 492l90 223q9 -3 17.5 -5.5t17.5 -4.5q20 -5 36 -5h328q32 0 63.5 4.5t62.5 10.5l-12 -243h-65q0 22 -2 50.5t-10 53.5t-25 42t-48 17l-78 -276h143l-22 -74h-142l-62 -216l50 -6l-20 -63h-308l19 63l46 6l62 216h-135l22 74h134l79 276q-34 0 -61 -15t-48 -38.5
t-38 -51.5t-30 -55z" />
    <glyph glyph-name="tbar" unicode="&#x167;" horiz-adv-x="389" 
d="M15 300h52l38 114h-54l23 66h54l43 129l205 65q-19 -48 -35 -96.5t-32 -97.5h90l-23 -66h-89l-40 -114h89l-23 -66h-89l-24 -69q-12 -36 -12 -51q0 -28 25 -28q15 0 33.5 12.5t34.5 26.5l10 -61q-37 -32 -80 -55t-94 -23q-23 0 -42.5 7.5t-34.5 21t-23.5 33t-8.5 42.5
q0 14 4 34t12 44l21 66h-53z" />
    <glyph glyph-name="Utilde" unicode="&#x168;" horiz-adv-x="667" 
d="M101 637l19 63h297l-15 -63l-48 -5l-115 -425q-2 -8 -4.5 -19.5t-2.5 -19.5q0 -47 31.5 -71t75.5 -24q17 0 36 6t36 16t29.5 23.5t17.5 29.5l108 381q6 22 8.5 36.5t2.5 19.5q0 15 -5 24.5t-14 15t-20.5 8t-24.5 4.5l17 63h217l-13 -63q-20 0 -34 -7.5t-24 -20.5
t-16.5 -29t-11.5 -32l-119 -412q-10 -34 -34 -62t-58 -47.5t-77 -30.5t-90 -11q-46 0 -90.5 11t-80 34t-57 60t-21.5 90q0 19 4.5 35.5t9.5 33.5l105 383zM275 780q3 25 14 49t29 43t41 30t50 11q20 0 41 -6.5t41 -14t38 -14t33 -6.5t28 11.5t19 24.5q0 3 1 4h54
q-5 -24 -16 -48t-27.5 -43.5t-38.5 -31.5t-49 -12q-23 0 -45.5 6.5t-42.5 14.5t-38 14.5t-31 6.5q-39 0 -51 -39h-50z" />
    <glyph glyph-name="utilde" unicode="&#x169;" 
d="M228 494q17 -18 30 -44t13 -51q0 -15 -4 -36.5t-13 -44.5l-46 -123q-11 -31 -19.5 -53.5t-8.5 -30.5q0 -15 8.5 -20t18.5 -5q15 0 30.5 15.5t29.5 36.5t25 43l17 34q29 63 47.5 129.5t34.5 135.5h196q-8 -20 -22.5 -58.5t-31 -84.5t-32 -92.5t-25.5 -81.5
q-6 -22 -10 -37.5t-4 -22.5t3 -12t12 -5t21.5 7.5t25.5 19.5l15 -59q-30 -32 -67 -50t-82 -18q-96 0 -96 97h-2q-34 -44 -71 -70.5t-95 -26.5q-55 0 -90.5 26t-35.5 86q0 14 2 30t9 32l59 147q5 13 11.5 28t6.5 26q0 13 -12.5 16.5t-26.5 3.5l-11 47zM175 559q3 25 14 49
t29 43t41 30t50 11q20 0 41 -6.5t41 -14t38 -14t33 -6.5t28 11.5t19 24.5q0 3 1 4h54q-5 -24 -16 -48t-27.5 -43.5t-38.5 -31.5t-49 -12q-23 0 -45.5 6.5t-42.5 14.5t-38 14.5t-31 6.5q-39 0 -51 -39h-50z" />
    <glyph glyph-name="Umacron" unicode="&#x16a;" horiz-adv-x="667" 
d="M101 637l19 63h297l-15 -63l-48 -5l-115 -425q-2 -8 -4.5 -19.5t-2.5 -19.5q0 -47 31.5 -71t75.5 -24q17 0 36 6t36 16t29.5 23.5t17.5 29.5l108 381q6 22 8.5 36.5t2.5 19.5q0 15 -5 24.5t-14 15t-20.5 8t-24.5 4.5l17 63h217l-13 -63q-20 0 -34 -7.5t-24 -20.5
t-16.5 -29t-11.5 -32l-119 -412q-10 -34 -34 -62t-58 -47.5t-77 -30.5t-90 -11q-46 0 -90.5 11t-80 34t-57 60t-21.5 90q0 19 4.5 35.5t9.5 33.5l105 383zM634 800h-347l24 85h347z" />
    <glyph glyph-name="umacron" unicode="&#x16b;" 
d="M228 494q17 -18 30 -44t13 -51q0 -15 -4 -36.5t-13 -44.5l-46 -123q-11 -31 -19.5 -53.5t-8.5 -30.5q0 -15 8.5 -20t18.5 -5q15 0 30.5 15.5t29.5 36.5t25 43l17 34q29 63 47.5 129.5t34.5 135.5h196q-8 -20 -22.5 -58.5t-31 -84.5t-32 -92.5t-25.5 -81.5
q-6 -22 -10 -37.5t-4 -22.5t3 -12t12 -5t21.5 7.5t25.5 19.5l15 -59q-30 -32 -67 -50t-82 -18q-96 0 -96 97h-2q-34 -44 -71 -70.5t-95 -26.5q-55 0 -90.5 26t-35.5 86q0 14 2 30t9 32l59 147q5 13 11.5 28t6.5 26q0 13 -12.5 16.5t-26.5 3.5l-11 47zM524 579h-347l24 85
h347z" />
    <glyph glyph-name="Ubreve" unicode="&#x16c;" horiz-adv-x="667" 
d="M101 637l19 63h297l-15 -63l-48 -5l-115 -425q-2 -8 -4.5 -19.5t-2.5 -19.5q0 -47 31.5 -71t75.5 -24q17 0 36 6t36 16t29.5 23.5t17.5 29.5l108 381q6 22 8.5 36.5t2.5 19.5q0 15 -5 24.5t-14 15t-20.5 8t-24.5 4.5l17 63h217l-13 -63q-20 0 -34 -7.5t-24 -20.5
t-16.5 -29t-11.5 -32l-119 -412q-10 -34 -34 -62t-58 -47.5t-77 -30.5t-90 -11q-46 0 -90.5 11t-80 34t-57 60t-21.5 90q0 19 4.5 35.5t9.5 33.5l105 383zM366 930q0 -26 8.5 -42t23.5 -24.5t34.5 -11.5t40.5 -3q41 0 73 21t44 60h51q-4 -37 -19 -68t-39.5 -53t-57 -34
t-69.5 -12q-42 0 -70 11t-44.5 32t-23 52t-6.5 72h54z" />
    <glyph glyph-name="ubreve" unicode="&#x16d;" 
d="M228 494q17 -18 30 -44t13 -51q0 -15 -4 -36.5t-13 -44.5l-46 -123q-11 -31 -19.5 -53.5t-8.5 -30.5q0 -15 8.5 -20t18.5 -5q15 0 30.5 15.5t29.5 36.5t25 43l17 34q29 63 47.5 129.5t34.5 135.5h196q-8 -20 -22.5 -58.5t-31 -84.5t-32 -92.5t-25.5 -81.5
q-6 -22 -10 -37.5t-4 -22.5t3 -12t12 -5t21.5 7.5t25.5 19.5l15 -59q-30 -32 -67 -50t-82 -18q-96 0 -96 97h-2q-34 -44 -71 -70.5t-95 -26.5q-55 0 -90.5 26t-35.5 86q0 14 2 30t9 32l59 147q5 13 11.5 28t6.5 26q0 13 -12.5 16.5t-26.5 3.5l-11 47zM265 709q0 -26 8.5 -42
t23.5 -24.5t34.5 -11.5t40.5 -3q41 0 73 21t44 60h51q-4 -37 -19 -68t-39.5 -53t-57 -34t-69.5 -12q-42 0 -70 11t-44.5 32t-23 52t-6.5 72h54z" />
    <glyph glyph-name="Uring" unicode="&#x16e;" horiz-adv-x="667" 
d="M101 637l19 63h297l-15 -63l-48 -5l-115 -425q-2 -8 -4.5 -19.5t-2.5 -19.5q0 -47 31.5 -71t75.5 -24q17 0 36 6t36 16t29.5 23.5t17.5 29.5l108 381q6 22 8.5 36.5t2.5 19.5q0 15 -5 24.5t-14 15t-20.5 8t-24.5 4.5l17 63h217l-13 -63q-20 0 -34 -7.5t-24 -20.5
t-16.5 -29t-11.5 -32l-119 -412q-10 -34 -34 -62t-58 -47.5t-77 -30.5t-90 -11q-46 0 -90.5 11t-80 34t-57 60t-21.5 90q0 19 4.5 35.5t9.5 33.5l105 383zM484 985q23 0 43.5 -8t35.5 -22.5t24 -35.5t9 -46q0 -26 -9 -46.5t-24 -35.5t-35.5 -23t-43.5 -8t-43.5 8t-35.5 23
t-24 35.5t-9 46.5q0 25 9 46t24 35.5t35.5 22.5t43.5 8zM484 925q-22 0 -37 -15.5t-15 -36.5t15 -37t37 -16t37 16t15 37t-15 36.5t-37 15.5z" />
    <glyph glyph-name="uring" unicode="&#x16f;" 
d="M228 494q17 -18 30 -44t13 -51q0 -15 -4 -36.5t-13 -44.5l-46 -123q-11 -31 -19.5 -53.5t-8.5 -30.5q0 -15 8.5 -20t18.5 -5q15 0 30.5 15.5t29.5 36.5t25 43l17 34q29 63 47.5 129.5t34.5 135.5h196q-8 -20 -22.5 -58.5t-31 -84.5t-32 -92.5t-25.5 -81.5
q-6 -22 -10 -37.5t-4 -22.5t3 -12t12 -5t21.5 7.5t25.5 19.5l15 -59q-30 -32 -67 -50t-82 -18q-96 0 -96 97h-2q-34 -44 -71 -70.5t-95 -26.5q-55 0 -90.5 26t-35.5 86q0 14 2 30t9 32l59 147q5 13 11.5 28t6.5 26q0 13 -12.5 16.5t-26.5 3.5l-11 47zM373 764q23 0 43.5 -8
t35.5 -22.5t24 -35.5t9 -46q0 -26 -9 -46.5t-24 -35.5t-35.5 -23t-43.5 -8t-43.5 8t-35.5 23t-24 35.5t-9 46.5q0 25 9 46t24 35.5t35.5 22.5t43.5 8zM373 704q-22 0 -37 -15.5t-15 -36.5t15 -37t37 -16t37 16t15 37t-15 36.5t-37 15.5z" />
    <glyph glyph-name="Uhungarumlaut" unicode="&#x170;" horiz-adv-x="667" 
d="M101 637l19 63h297l-15 -63l-48 -5l-115 -425q-2 -8 -4.5 -19.5t-2.5 -19.5q0 -47 31.5 -71t75.5 -24q17 0 36 6t36 16t29.5 23.5t17.5 29.5l108 381q6 22 8.5 36.5t2.5 19.5q0 15 -5 24.5t-14 15t-20.5 8t-24.5 4.5l17 63h217l-13 -63q-20 0 -34 -7.5t-24 -20.5
t-16.5 -29t-11.5 -32l-119 -412q-10 -34 -34 -62t-58 -47.5t-77 -30.5t-90 -11q-46 0 -90.5 11t-80 34t-57 60t-21.5 90q0 19 4.5 35.5t9.5 33.5l105 383zM503 760l104 125q29 35 48.5 50t45.5 15q15 0 26.5 -6.5t19 -15.5t11 -18.5t3.5 -15.5q0 -9 -2 -16t-9 -14.5
t-19.5 -16.5t-33.5 -20l-126 -67h-68zM306 760l95 132q27 37 45 54t44 17q14 0 26 -5.5t20.5 -13.5t13 -17t4.5 -15q0 -9 -2 -16t-8 -15t-17.5 -18t-31.5 -23l-121 -80h-68z" />
    <glyph glyph-name="uhungarumlaut" unicode="&#x171;" 
d="M228 494q17 -18 30 -44t13 -51q0 -15 -4 -36.5t-13 -44.5l-46 -123q-11 -31 -19.5 -53.5t-8.5 -30.5q0 -15 8.5 -20t18.5 -5q15 0 30.5 15.5t29.5 36.5t25 43l17 34q29 63 47.5 129.5t34.5 135.5h196q-8 -20 -22.5 -58.5t-31 -84.5t-32 -92.5t-25.5 -81.5
q-6 -22 -10 -37.5t-4 -22.5t3 -12t12 -5t21.5 7.5t25.5 19.5l15 -59q-30 -32 -67 -50t-82 -18q-96 0 -96 97h-2q-34 -44 -71 -70.5t-95 -26.5q-55 0 -90.5 26t-35.5 86q0 14 2 30t9 32l59 147q5 13 11.5 28t6.5 26q0 13 -12.5 16.5t-26.5 3.5l-11 47zM383 539l104 125
q29 35 48.5 50t45.5 15q15 0 26.5 -6.5t19 -15.5t11 -18.5t3.5 -15.5q0 -9 -2 -16t-9 -14.5t-19.5 -16.5t-33.5 -20l-126 -67h-68zM186 539l95 132q27 37 45 54t44 17q14 0 26 -5.5t20.5 -13.5t13 -17t4.5 -15q0 -9 -2 -16t-8 -15t-17.5 -18t-31.5 -23l-121 -80h-68z" />
    <glyph glyph-name="Uogonek" unicode="&#x172;" horiz-adv-x="667" 
d="M101 637l19 63h297l-15 -63l-48 -5l-115 -425q-2 -8 -4.5 -19.5t-2.5 -19.5q0 -47 31.5 -71t75.5 -24q17 0 36 6t36 16t29.5 23.5t17.5 29.5l108 381q6 22 8.5 36.5t2.5 19.5q0 15 -5 24.5t-14 15t-20.5 8t-24.5 4.5l17 63h217l-13 -63q-20 0 -34 -7.5t-24 -20.5
t-16.5 -29t-11.5 -32l-119 -412q-11 -38 -39 -67.5t-69 -50.5q-39 -20 -64.5 -39t-41 -37t-21.5 -35t-6 -32q0 -23 14.5 -33.5t35.5 -10.5q20 0 40 7t31 14l12 -55q-29 -17 -61.5 -27.5t-76.5 -10.5q-28 0 -49 8t-35.5 20.5t-21.5 29t-7 34.5q0 42 27.5 74.5t78.5 59.5h-6
q-46 0 -90.5 11t-80 34t-57 60t-21.5 90q0 19 4.5 35.5t9.5 33.5l105 383z" />
    <glyph glyph-name="uogonek" unicode="&#x173;" 
d="M228 494q17 -18 30 -44t13 -51q0 -15 -4 -36.5t-13 -44.5l-46 -123q-11 -31 -19.5 -53.5t-8.5 -30.5q0 -15 8.5 -20t18.5 -5q15 0 30.5 15.5t29.5 36.5t25 43l17 34q29 63 47.5 129.5t34.5 135.5h196q-8 -20 -22.5 -58.5t-31 -84.5t-32 -92.5t-25.5 -81.5
q-6 -22 -10 -37.5t-4 -22.5t3 -12t12 -5t21.5 7.5t25.5 19.5l15 -59q-21 -23 -45.5 -37.5t-51.5 -24.5q-70 -25 -99.5 -53.5t-29.5 -63.5q0 -23 14.5 -33.5t35.5 -10.5q20 0 40 7t31 14l12 -55q-29 -17 -61.5 -27.5t-76.5 -10.5q-28 0 -49 8t-35.5 20.5t-21.5 29t-7 34.5
q0 45 37 80t117 61q-55 18 -55 91h-2q-34 -44 -71 -70.5t-95 -26.5q-55 0 -90.5 26t-35.5 86q0 14 2 30t9 32l59 147q5 13 11.5 28t6.5 26q0 13 -12.5 16.5t-26.5 3.5l-11 47z" />
    <glyph glyph-name="Wcircumflex" unicode="&#x174;" horiz-adv-x="889" 
d="M384 700l-15 -63l-56 -4l-20 -391l2 -2l155 312l4 123q56 8 111 18t111 22q-10 -35 -13 -75l-30 -380l2 -2l147 280q8 14 11.5 27t3.5 21q0 24 -12 35t-45 16l16 63h230l-17 -63q-21 -1 -37 -10.5t-28.5 -24t-23 -32.5t-20.5 -37l-243 -457q0 -5 2.5 -14t5.5 -20
t6.5 -22.5t5.5 -19.5l-217 -5l26 396h-2l-158 -311l20 -80l-212 -5l18 638l-53 4l15 63h310zM668 936l83 -176h-65l-96 87l-121 -87h-77l157 176h119z" />
    <glyph glyph-name="wcircumflex" unicode="&#x175;" horiz-adv-x="778" 
d="M23 418l197 82q17 -26 26.5 -50t9.5 -57q0 -10 -3 -28t-8 -33l-59 -170q-12 -35 -12 -52q0 -14 8.5 -19t18.5 -5q24 0 43.5 22.5t34.5 52.5t25 60t15 44q18 51 31 103.5t25 111.5h186q-26 -80 -48 -155.5t-42 -150.5q-2 -6 -4.5 -15t-4.5 -19t-4 -19t-2 -15
q0 -17 12 -23.5t27 -6.5q27 0 53.5 27t48 63.5t35 74t13.5 59.5q0 9 -9 18.5t-20 21.5t-20 27.5t-9 37.5q0 17 5 33t15 28.5t24 20t32 7.5q22 0 38 -8.5t25.5 -22t14 -32t4.5 -37.5q0 -40 -11 -86t-31.5 -91.5t-49.5 -87t-65 -73.5t-77.5 -51t-86.5 -19q-26 0 -47.5 4.5
t-37.5 15.5t-26.5 29t-13.5 46q-21 -23 -39 -40.5t-38 -29.5t-44 -18.5t-57 -6.5q-27 0 -50 5.5t-40 18t-27 33t-10 49.5q0 13 2 28.5t8 31.5l48 135q9 25 15.5 43.5t6.5 27.5q0 12 -13.5 15.5t-25.5 3.5zM548 715l83 -176h-65l-96 87l-121 -87h-77l157 176h119z" />
    <glyph glyph-name="Ycircumflex" unicode="&#x176;" 
d="M72 700h305l-17 -63l-47 -4l55 -263l134 178q11 14 15.5 27.5t4.5 21.5q0 24 -18.5 31.5t-38.5 8.5l21 63h233l-22 -63q-13 -2 -25.5 -9.5t-23.5 -18t-21 -22.5t-18 -22l-197 -255q-11 -14 -18.5 -26t-11.5 -26l-51 -189l57 -6l-19 -63h-328l19 63l58 6l63 220l-80 344
l-45 4zM516 936l83 -176h-65l-96 87l-121 -87h-77l157 176h119z" />
    <glyph glyph-name="ycircumflex" unicode="&#x177;" horiz-adv-x="556" 
d="M32 433l191 61q14 -18 24 -38t10 -41q0 -26 -4 -46t-12 -45l-54 -159q-7 -20 -11.5 -35t-4.5 -19q0 -9 3.5 -17t13.5 -8q19 0 33.5 13t26 35.5t21 51.5t19.5 62q17 57 33.5 117.5t23.5 114.5h194q-35 -94 -70.5 -213t-84.5 -275q-17 -53 -42.5 -91.5t-61.5 -64t-85 -38
t-112 -12.5q-25 0 -51.5 5.5t-48 17.5t-35.5 31t-14 46q0 37 21 59t59 22q21 0 36.5 -8.5t26 -22t15.5 -31t5 -35.5q0 -7 6 -12.5t13 -5.5q9 0 19.5 3.5t21.5 13t21.5 27t18.5 44.5l28 93l-2 2q-27 -21 -51 -35t-61 -14q-23 0 -43.5 9t-35.5 24t-23.5 35.5t-8.5 43.5
q0 16 1.5 33.5t8.5 34.5l58 153q6 15 9.5 27t3.5 23q0 21 -14 21q-6 0 -12 -2.5t-11 -4.5zM415 715l83 -176h-65l-96 87l-121 -87h-77l157 176h119z" />
    <glyph glyph-name="Ydieresis" unicode="&#x178;" 
d="M72 700h305l-17 -63l-47 -4l55 -263l134 178q11 14 15.5 27.5t4.5 21.5q0 24 -18.5 31.5t-38.5 8.5l21 63h233l-22 -63q-13 -2 -25.5 -9.5t-23.5 -18t-21 -22.5t-18 -22l-197 -255q-11 -14 -18.5 -26t-11.5 -26l-51 -189l57 -6l-19 -63h-328l19 63l58 6l63 220l-80 344
l-45 4zM550 922q33 0 56.5 -23.5t23.5 -56.5q0 -34 -23.5 -57t-56.5 -23q-34 0 -57 23t-23 57q0 33 23 56.5t57 23.5zM330 922q33 0 56.5 -23.5t23.5 -56.5q0 -34 -23.5 -57t-56.5 -23q-34 0 -57 23t-23 57q0 33 23 56.5t57 23.5z" />
    <glyph glyph-name="Zacute" unicode="&#x179;" 
d="M406 624q-13 1 -25.5 3t-25.5 2q-38 0 -67.5 -10.5t-53.5 -29.5t-43.5 -45t-37.5 -56l-63 22l85 205q26 -9 55 -12t68 -3h372l-16 -80l-456 -544q9 -2 21.5 -3.5t23.5 -1.5q34 0 63.5 7t59 26t60 51t65.5 82l66 -19l-106 -233q-44 10 -93.5 12.5t-119.5 2.5h-306l15 74z
M342 760l104 125q29 35 48.5 50t45.5 15q15 0 26.5 -6.5t19 -15.5t11 -18.5t3.5 -15.5q0 -9 -2 -16t-9 -14.5t-19.5 -16.5t-33.5 -20l-126 -67h-68z" />
    <glyph glyph-name="zacute" unicode="&#x17a;" horiz-adv-x="500" 
d="M49 338q16 29 35.5 57t43.5 50t53 35.5t66 13.5q30 0 51 -9t39.5 -21t37 -24.5t44.5 -19.5q0 10 1 21t4.5 20.5t10.5 16t19 6.5q20 0 30 -13t10 -31q0 -14 -6.5 -30t-15.5 -32t-20 -30.5t-20 -24.5q-32 -34 -69 -54t-77 -34.5t-82 -25.5t-82 -27q-8 -3 -21 -9.5
t-26.5 -15t-23 -18.5t-9.5 -19q30 15 67 30t77 15q19 0 38 -4.5t36.5 -9.5t32.5 -9.5t26 -4.5q29 0 43 15t20 30l43 -32q-15 -28 -34 -57t-43 -53t-53.5 -39t-65.5 -15q-35 0 -65 13t-55.5 28t-46.5 28t-37 13q3 -10 5 -18t2 -15q0 -16 -8.5 -28.5t-26.5 -12.5
q-23 0 -31.5 13.5t-8.5 34.5q0 45 24 84.5t58 66.5q27 22 61 37.5t71 28.5t74 24.5t69.5 24.5t58.5 28.5t40 37.5l-2 2q-33 -20 -74 -35.5t-85 -15.5q-30 0 -58 8t-57 8q-6 0 -12.5 -3.5t-13.5 -8.5t-12.5 -10.5l-9.5 -9.5zM230 539l104 125q29 35 48.5 50t45.5 15
q15 0 26.5 -6.5t19 -15.5t11 -18.5t3.5 -15.5q0 -9 -2 -16t-9 -14.5t-19.5 -16.5t-33.5 -20l-126 -67h-68z" />
    <glyph glyph-name="Zdotaccent" unicode="&#x17b;" 
d="M406 624q-13 1 -25.5 3t-25.5 2q-38 0 -67.5 -10.5t-53.5 -29.5t-43.5 -45t-37.5 -56l-63 22l85 205q26 -9 55 -12t68 -3h372l-16 -80l-456 -544q9 -2 21.5 -3.5t23.5 -1.5q34 0 63.5 7t59 26t60 51t65.5 82l66 -19l-106 -233q-44 10 -93.5 12.5t-119.5 2.5h-306l15 74z
M449 760q-39 0 -64.5 25.5t-25.5 64.5q0 40 25.5 65.5t64.5 25.5q40 0 65 -25.5t25 -65.5q0 -39 -25 -64.5t-65 -25.5z" />
    <glyph glyph-name="zdotaccent" unicode="&#x17c;" horiz-adv-x="500" 
d="M49 338q16 29 35.5 57t43.5 50t53 35.5t66 13.5q30 0 51 -9t39.5 -21t37 -24.5t44.5 -19.5q0 10 1 21t4.5 20.5t10.5 16t19 6.5q20 0 30 -13t10 -31q0 -14 -6.5 -30t-15.5 -32t-20 -30.5t-20 -24.5q-32 -34 -69 -54t-77 -34.5t-82 -25.5t-82 -27q-8 -3 -21 -9.5
t-26.5 -15t-23 -18.5t-9.5 -19q30 15 67 30t77 15q19 0 38 -4.5t36.5 -9.5t32.5 -9.5t26 -4.5q29 0 43 15t20 30l43 -32q-15 -28 -34 -57t-43 -53t-53.5 -39t-65.5 -15q-35 0 -65 13t-55.5 28t-46.5 28t-37 13q3 -10 5 -18t2 -15q0 -16 -8.5 -28.5t-26.5 -12.5
q-23 0 -31.5 13.5t-8.5 34.5q0 45 24 84.5t58 66.5q27 22 61 37.5t71 28.5t74 24.5t69.5 24.5t58.5 28.5t40 37.5l-2 2q-33 -20 -74 -35.5t-85 -15.5q-30 0 -58 8t-57 8q-6 0 -12.5 -3.5t-13.5 -8.5t-12.5 -10.5l-9.5 -9.5zM319 539q-39 0 -64.5 25.5t-25.5 64.5
q0 40 25.5 65.5t64.5 25.5q40 0 65 -25.5t25 -65.5q0 -39 -25 -64.5t-65 -25.5z" />
    <glyph glyph-name="Zcaron" unicode="&#x17d;" 
d="M406 624q-13 1 -25.5 3t-25.5 2q-38 0 -67.5 -10.5t-53.5 -29.5t-43.5 -45t-37.5 -56l-63 22l85 205q26 -9 55 -12t68 -3h372l-16 -80l-456 -544q9 -2 21.5 -3.5t23.5 -1.5q34 0 63.5 7t59 26t60 51t65.5 82l66 -19l-106 -233q-44 10 -93.5 12.5t-119.5 2.5h-306l15 74z
M352 760l-80 176h65l95 -89l122 89h78l-155 -176h-125z" />
    <glyph glyph-name="zcaron" unicode="&#x17e;" horiz-adv-x="500" 
d="M49 338q16 29 35.5 57t43.5 50t53 35.5t66 13.5q30 0 51 -9t39.5 -21t37 -24.5t44.5 -19.5q0 10 1 21t4.5 20.5t10.5 16t19 6.5q20 0 30 -13t10 -31q0 -14 -6.5 -30t-15.5 -32t-20 -30.5t-20 -24.5q-32 -34 -69 -54t-77 -34.5t-82 -25.5t-82 -27q-8 -3 -21 -9.5
t-26.5 -15t-23 -18.5t-9.5 -19q30 15 67 30t77 15q19 0 38 -4.5t36.5 -9.5t32.5 -9.5t26 -4.5q29 0 43 15t20 30l43 -32q-15 -28 -34 -57t-43 -53t-53.5 -39t-65.5 -15q-35 0 -65 13t-55.5 28t-46.5 28t-37 13q3 -10 5 -18t2 -15q0 -16 -8.5 -28.5t-26.5 -12.5
q-23 0 -31.5 13.5t-8.5 34.5q0 45 24 84.5t58 66.5q27 22 61 37.5t71 28.5t74 24.5t69.5 24.5t58.5 28.5t40 37.5l-2 2q-33 -20 -74 -35.5t-85 -15.5q-30 0 -58 8t-57 8q-6 0 -12.5 -3.5t-13.5 -8.5t-12.5 -10.5l-9.5 -9.5zM238 539l-80 176h65l95 -89l122 89h78l-155 -176
h-125z" />
    <glyph glyph-name="florin" unicode="&#x192;" 
d="M253 494q10 44 30 87.5t51 78t71.5 55.5t90.5 21q23 0 49 -4.5t48.5 -16t37.5 -30.5t15 -48q0 -30 -20 -53t-52 -23q-35 0 -51.5 15.5t-24.5 34.5t-11 36t-12 17q-7 0 -11 -6.5t-6 -16.5t-3.5 -21.5t-3.5 -21.5l-19 -104h103l-15 -66h-98q-21 -104 -43 -198t-48 -175
q-16 -48 -38 -87.5t-52.5 -68t-70 -44t-89.5 -15.5q-20 0 -44 5.5t-45 17.5t-35 29.5t-14 41.5q0 32 18.5 56t53.5 24q30 0 46 -16t24.5 -35t14 -35t14.5 -16q5 0 8 6.5t5 16t4 20.5t4 21q3 12 12 59t23 112t30.5 139.5t34.5 141.5h-111l13 66h116z" />
    <glyph glyph-name="AEacute" unicode="&#x1fc;" horiz-adv-x="866" 
d="M-83 0l18 63q16 10 32.5 29.5t32 40.5t28 41.5t21.5 34.5l274 428l-31 63h384q45 0 90.5 2t89.5 13v-239h-52q-7 29 -14.5 56.5t-21.5 49t-37 34.5t-59 13h-50l-60 -217h29q17 0 32 11.5t27 26.5t20.5 30t11.5 23h57l-73 -277h-56q2 13 3 25.5t1 25.5q0 24 -5 42.5
t-31 18.5h-36l-72 -267h55q44 0 76.5 13.5t58 36t47 52t43.5 62.5l55 -29l-103 -221q-15 6 -30.5 8.5t-32.5 4.5t-36 2h-42h-346l16 63l46 8l46 171h-171l-49 -76q-14 -22 -20.5 -37t-6.5 -23q0 -17 13.5 -27.5t31.5 -15.5l-20 -63h-184zM343 316l74 280q5 20 5 24
t-2.5 10.5t-9.5 6.5q-5 0 -11 -8t-14 -19l-188 -294h146zM445 760l104 125q29 35 48.5 50t45.5 15q15 0 26.5 -6.5t19 -15.5t11 -18.5t3.5 -15.5q0 -9 -2 -16t-9 -14.5t-19.5 -16.5t-33.5 -20l-126 -67h-68z" />
    <glyph glyph-name="aeacute" unicode="&#x1fd;" horiz-adv-x="771" 
d="M328 369q4 11 6.5 22.5t2.5 19.5q0 11 -8.5 14t-16.5 3q-18 0 -35.5 -18t-33 -46.5t-29 -63t-23.5 -67.5t-15.5 -61t-5.5 -43q0 -17 9 -30t24 -13q14 0 29.5 18t25.5 49zM569 428q-21 0 -39.5 -24t-32.5 -56t-22.5 -64.5t-9.5 -49.5q24 6 48 20t43.5 34t32 44.5
t12.5 50.5q0 18 -4 31.5t-28 13.5zM683 94q-46 -48 -99.5 -78t-122.5 -30q-30 0 -53 5t-42.5 15.5t-37 27t-36.5 39.5q-18 -18 -37 -33.5t-39 -27.5t-42.5 -19t-49.5 -7q-36 0 -61 13.5t-41.5 36t-24 51.5t-7.5 61q0 76 34.5 139.5t90 109.5t125 71.5t140.5 25.5
q25 0 50.5 -7.5t43.5 -24.5q26 14 55 23t59 9q26 0 52.5 -6.5t47.5 -20.5t34.5 -35.5t13.5 -51.5q0 -39 -18 -69.5t-47.5 -54.5t-66 -41.5t-72.5 -28.5l-77 -24q0 -15 2.5 -29t10 -24.5t20.5 -16.5t34 -6q17 0 35 7t35 17.5t32 22.5t27 23zM353 539l104 125q29 35 48.5 50
t45.5 15q15 0 26.5 -6.5t19 -15.5t11 -18.5t3.5 -15.5q0 -9 -2 -16t-9 -14.5t-19.5 -16.5t-33.5 -20l-126 -67h-68z" />
    <glyph glyph-name="Oslashacute" unicode="&#x1fe;" horiz-adv-x="722" 
d="M504 586q-5 26 -22.5 42t-52.5 16q-23 0 -45 -19.5t-41.5 -51.5t-37 -73.5t-32 -86t-25.5 -89t-19 -81.5l2 -2zM216 122q3 -29 21 -47.5t55 -18.5q24 0 46 20t42 53.5t37.5 76.5t32 88.5t26 90t18.5 81.5l-2 2zM625 632q72 -80 72 -207q0 -82 -30 -161t-83 -141
t-127 -100t-161 -38q-46 0 -84.5 11.5t-69.5 32.5l-74 -93h-83l109 136q-70 79 -70 203q0 82 30 161t83.5 141t127.5 100t161 38q86 0 149 -40l54 68h85zM362 760l104 125q29 35 48.5 50t45.5 15q15 0 26.5 -6.5t19 -15.5t11 -18.5t3.5 -15.5q0 -9 -2 -16t-9 -14.5
t-19.5 -16.5t-33.5 -20l-126 -67h-68z" />
    <glyph glyph-name="oslashacute" unicode="&#x1ff;" horiz-adv-x="556" 
d="M162 114q0 -35 8.5 -48.5t30.5 -13.5t42 27.5t35.5 67.5t27.5 83t19 75h-2zM333 377q0 24 -8.5 37.5t-31.5 13.5q-21 0 -39 -25t-33 -61.5t-27 -78.5t-21 -75h2zM446 430q26 -27 40.5 -65t14.5 -86q0 -58 -22.5 -111t-61 -93.5t-90 -64.5t-110.5 -24q-70 0 -121 30
l-56 -66h-82l87 104q-24 26 -38 62.5t-14 84.5q0 58 22.5 111t61 93.5t90.5 64.5t111 24q67 0 117 -27l54 65h83zM219 539l104 125q29 35 48.5 50t45.5 15q15 0 26.5 -6.5t19 -15.5t11 -18.5t3.5 -15.5q0 -9 -2 -16t-9 -14.5t-19.5 -16.5t-33.5 -20l-126 -67h-68z" />
    <glyph glyph-name="Scommaaccent" unicode="&#x218;" 
d="M1 266l64 3q10 -38 25 -76t38.5 -68.5t57 -49.5t78.5 -19q20 0 38 6.5t32 18.5t22.5 29t8.5 38q0 29 -20 51.5t-49.5 43.5t-64.5 44t-64.5 52t-49.5 67.5t-20 91.5q0 52 21.5 92.5t56 68.5t78 42t87.5 14q42 0 71.5 -8t51 -17.5t36.5 -17.5t28 -8q15 0 32 6.5t31 12.5
l-3 -210l-63 -4q-7 31 -20 62.5t-33 56.5t-47.5 40.5t-63.5 15.5q-18 0 -34 -4.5t-29 -14t-20.5 -23.5t-7.5 -33q0 -29 20 -50t49.5 -40.5t64.5 -39.5t64.5 -48.5t49.5 -68.5t20 -97t-21 -101.5t-57 -75.5t-84 -47t-102 -16q-35 0 -67.5 9t-58.5 22t-46 20.5t-38 7.5
q-17 0 -33.5 -7.5t-31.5 -14.5zM75 -245q13 3 27 8t26 11.5t21 15t12 18.5q-24 8 -39 25.5t-15 45.5q0 32 26.5 54t64.5 22q39 0 63.5 -27t24.5 -68q0 -52 -47 -94.5t-149 -57.5z" />
    <glyph glyph-name="scommaaccent" unicode="&#x219;" horiz-adv-x="444" 
d="M238 494q22 0 53 -4t59.5 -14.5t48.5 -29.5t20 -48q0 -35 -23 -50.5t-57 -15.5q-11 0 -24 6t-24 17.5t-18.5 27t-8.5 34.5q-4 3 -15 7t-21 4q-17 0 -30 -12t-13 -29q0 -19 13.5 -32.5t33.5 -25.5t43 -25t43 -31.5t33.5 -44.5t13.5 -65q0 -44 -18 -77t-47.5 -55.5
t-67.5 -33.5t-78 -11q-25 0 -57 3.5t-60.5 14.5t-48.5 31.5t-20 53.5q0 32 18.5 54t51.5 22q42 0 61 -23.5t24 -61.5q2 -21 15 -24.5t26 -3.5q19 0 37.5 11t18.5 34q0 20 -13.5 35.5t-33.5 29.5t-43 28t-43 32t-33.5 41.5t-13.5 56.5q0 42 16.5 74t43.5 54.5t63 34t75 11.5z
M-7 -245q13 3 27 8t26 11.5t21 15t12 18.5q-24 8 -39 25.5t-15 45.5q0 32 26.5 54t64.5 22q39 0 63.5 -27t24.5 -68q0 -52 -47 -94.5t-149 -57.5z" />
    <glyph glyph-name="uni021A" unicode="&#x21a;" 
d="M38 492l90 223q9 -3 17.5 -5.5t17.5 -4.5q20 -5 36 -5h328q32 0 63.5 4.5t62.5 10.5l-12 -243h-65q0 22 -2 50.5t-10 53.5t-25 42t-48 17l-161 -566l50 -6l-20 -63h-308l19 63l46 6l162 566q-34 0 -61 -15t-48 -38.5t-38 -51.5t-30 -55zM61 -245q13 3 27 8t26 11.5t21 15
t12 18.5q-24 8 -39 25.5t-15 45.5q0 32 26.5 54t64.5 22q39 0 63.5 -27t24.5 -68q0 -52 -47 -94.5t-149 -57.5z" />
    <glyph glyph-name="uni021B" unicode="&#x21b;" horiz-adv-x="389" 
d="M54 414l20 66h54l43 129l201 65q-19 -48 -33 -96.5t-30 -97.5h90l-23 -66h-89l-87 -249q-12 -36 -12 -51q0 -28 29 -28q8 0 16.5 5t16.5 11.5l16 13t15 9.5l10 -61q-37 -32 -80 -55t-94 -23q-23 0 -42.5 7.5t-34.5 21t-23.5 33t-8.5 42.5q0 14 4 34t12 44l81 246h-51z
M-47 -245q13 3 27 8t26 11.5t21 15t12 18.5q-24 8 -39 25.5t-15 45.5q0 32 26.5 54t64.5 22q39 0 63.5 -27t24.5 -68q0 -52 -47 -94.5t-149 -57.5z" />
    <glyph glyph-name="circumflex" unicode="&#x2c6;" horiz-adv-x="333" 
d="M300 715l83 -176h-65l-96 87l-121 -87h-77l157 176h119z" />
    <glyph glyph-name="caron" unicode="&#x2c7;" horiz-adv-x="333" 
d="M140 539l-80 176h65l95 -89l122 89h78l-155 -176h-125z" />
    <glyph glyph-name="uni02C9" unicode="&#x2c9;" horiz-adv-x="333" 
d="M376 593h-347l24 85h347z" />
    <glyph glyph-name="breve" unicode="&#x2d8;" horiz-adv-x="333" 
d="M123 709q0 -26 8.5 -42t23.5 -24.5t34.5 -11.5t40.5 -3q41 0 73 21t44 60h51q-4 -37 -19 -68t-39.5 -53t-57 -34t-69.5 -12q-42 0 -70 11t-44.5 32t-23 52t-6.5 72h54z" />
    <glyph glyph-name="dotaccent" unicode="&#x2d9;" horiz-adv-x="333" 
d="M228 539q-39 0 -64.5 25.5t-25.5 64.5q0 40 25.5 65.5t64.5 25.5q40 0 65 -25.5t25 -65.5q0 -39 -25 -64.5t-65 -25.5z" />
    <glyph glyph-name="ring" unicode="&#x2da;" horiz-adv-x="333" 
d="M221 764q23 0 43.5 -8t35.5 -22.5t24 -35.5t9 -46q0 -26 -9 -46.5t-24 -35.5t-35.5 -23t-43.5 -8t-43.5 8t-35.5 23t-24 35.5t-9 46.5q0 25 9 46t24 35.5t35.5 22.5t43.5 8zM221 704q-22 0 -37 -15.5t-15 -36.5t15 -37t37 -16t37 16t15 37t-15 36.5t-37 15.5z" />
    <glyph glyph-name="ogonek" unicode="&#x2db;" horiz-adv-x="333" 
d="M356 3q-86 -29 -123 -63t-37 -65q0 -23 14.5 -33.5t35.5 -10.5q20 0 40 7t31 14l12 -55q-29 -17 -61.5 -27.5t-76.5 -10.5q-28 0 -49 8t-35.5 20.5t-21.5 29t-7 34.5q0 58 63 99.5t202 69.5z" />
    <glyph glyph-name="tilde" unicode="&#x2dc;" horiz-adv-x="333" 
d="M21 559q3 25 14 49t29 43t41 30t50 11q20 0 41 -6.5t41 -14t38 -14t33 -6.5t28 11.5t19 24.5q0 3 1 4h54q-5 -24 -16 -48t-27.5 -43.5t-38.5 -31.5t-49 -12q-23 0 -45.5 6.5t-42.5 14.5t-38 14.5t-31 6.5q-39 0 -51 -39h-50z" />
    <glyph glyph-name="hungarumlaut" unicode="&#x2dd;" horiz-adv-x="333" 
d="M243 539l104 125q29 35 48.5 50t45.5 15q15 0 26.5 -6.5t19 -15.5t11 -18.5t3.5 -15.5q0 -9 -2 -16t-9 -14.5t-19.5 -16.5t-33.5 -20l-126 -67h-68zM46 539l95 132q27 37 45 54t44 17q14 0 26 -5.5t20.5 -13.5t13 -17t4.5 -15q0 -9 -2 -16t-8 -15t-17.5 -18t-31.5 -23
l-121 -80h-68z" />
    <glyph glyph-name="Omega" unicode="&#x3a9;" horiz-adv-x="799" 
d="M629 0h-285l-3 26q26 36 59 79.5t64.5 91t58 98t41.5 99.5q28 96 28 156q0 65 -27 92t-67 27q-51 0 -96.5 -37.5t-80 -100t-54.5 -144t-20 -168.5q0 -53 5.5 -102t11.5 -91l-17 -26h-286l30 188h39q2 -22 5.5 -36t11 -21.5t19 -10.5t29.5 -3h95q-53 45 -78 103.5
t-25 122.5q0 79 30 147t83 118t126 78t160 28q67 0 117.5 -16.5t84.5 -46t50.5 -71t16.5 -90.5q0 -52 -16 -102t-50.5 -97t-90 -91t-133.5 -83h110q16 0 28 2.5t23.5 10.5t23.5 21.5t27 36.5h41z" />
    <glyph glyph-name="mu" unicode="&#x3bc;" 
d="M-113 -204q25 63 50.5 129t50 130.5t46 126.5t39.5 118q5 14 10 32t5 29q0 13 -12.5 16.5t-26.5 3.5l-11 47l190 66q17 -18 30 -44t13 -51q0 -15 -4 -36.5t-13 -44.5l-46 -123q-11 -31 -19.5 -53.5t-8.5 -30.5q0 -15 8.5 -20t18.5 -5q15 0 30.5 15.5t29.5 36.5t25 43
l17 34q29 63 47.5 129.5t34.5 135.5h196q-8 -20 -22.5 -58.5t-31 -84.5t-32 -92.5t-25.5 -81.5q-6 -22 -10 -37.5t-4 -22.5t3 -12t12 -5q12 0 25 8.5t22 18.5l15 -59q-30 -32 -67 -50t-82 -18q-96 0 -96 97h-2q-15 -20 -31 -37t-35.5 -29.5t-43.5 -20.5t-55 -11
q-16 -52 -26.5 -97t-15.5 -92h-198z" />
    <glyph glyph-name="pi" unicode="&#x3c0;" horiz-adv-x="643" 
d="M665 491q-7 -17 -18 -38t-23 -40.5t-23.5 -35.5t-20.5 -23q-14 -5 -33 -6t-35 -1q-9 -25 -17 -47t-15.5 -43t-14.5 -43.5t-14 -49.5q-10 -34 -10 -54q0 -18 7 -25t18 -7q13 0 24 4.5t25 12.5l4 -33q-15 -15 -34.5 -29t-41 -24.5t-43.5 -16.5t-41 -6q-37 0 -62 16.5
t-25 60.5q0 26 12 67q11 35 20.5 64t19 54.5t18.5 50t19 50.5q-26 0 -59 1t-62 1q-45 -146 -91.5 -228.5t-83.5 -116.5q-26 -9 -47.5 -13.5t-38.5 -6.5l-1 26q40 39 72.5 84t58 90.5t44 88.5t29.5 78q-23 0 -41 -1.5t-34.5 -6t-33.5 -11.5t-38 -17l-8 36q27 26 52.5 47
t53.5 36t59.5 23.5t70.5 8.5q65 0 143.5 -1.5t152.5 -1.5q26 0 41.5 7.5t33.5 27.5z" />
    <glyph glyph-name="Wgrave" unicode="&#x1e80;" horiz-adv-x="889" 
d="M384 700l-15 -63l-56 -4l-20 -391l2 -2l155 312l4 123q56 8 111 18t111 22q-10 -35 -13 -75l-30 -380l2 -2l147 280q8 14 11.5 27t3.5 21q0 24 -12 35t-45 16l16 63h230l-17 -63q-21 -1 -37 -10.5t-28.5 -24t-23 -32.5t-20.5 -37l-243 -457q0 -5 2.5 -14t5.5 -20
t6.5 -22.5t5.5 -19.5l-217 -5l26 396h-2l-158 -311l20 -80l-212 -5l18 638l-53 4l15 63h310zM603 760l-123 79q-14 9 -28 22.5t-14 32.5q0 23 16 39.5t39 16.5q30 0 46 -14.5t33 -37.5l99 -138h-68z" />
    <glyph glyph-name="wgrave" unicode="&#x1e81;" horiz-adv-x="778" 
d="M23 418l197 82q17 -26 26.5 -50t9.5 -57q0 -10 -3 -28t-8 -33l-59 -170q-12 -35 -12 -52q0 -14 8.5 -19t18.5 -5q24 0 43.5 22.5t34.5 52.5t25 60t15 44q18 51 31 103.5t25 111.5h186q-26 -80 -48 -155.5t-42 -150.5q-2 -6 -4.5 -15t-4.5 -19t-4 -19t-2 -15
q0 -17 12 -23.5t27 -6.5q27 0 53.5 27t48 63.5t35 74t13.5 59.5q0 9 -9 18.5t-20 21.5t-20 27.5t-9 37.5q0 17 5 33t15 28.5t24 20t32 7.5q22 0 38 -8.5t25.5 -22t14 -32t4.5 -37.5q0 -40 -11 -86t-31.5 -91.5t-49.5 -87t-65 -73.5t-77.5 -51t-86.5 -19q-26 0 -47.5 4.5
t-37.5 15.5t-26.5 29t-13.5 46q-21 -23 -39 -40.5t-38 -29.5t-44 -18.5t-57 -6.5q-27 0 -50 5.5t-40 18t-27 33t-10 49.5q0 13 2 28.5t8 31.5l48 135q9 25 15.5 43.5t6.5 27.5q0 12 -13.5 15.5t-25.5 3.5zM497 539l-123 79q-14 9 -28 22.5t-14 32.5q0 23 16 39.5t39 16.5
q30 0 46 -14.5t33 -37.5l99 -138h-68z" />
    <glyph glyph-name="Wacute" unicode="&#x1e82;" horiz-adv-x="889" 
d="M384 700l-15 -63l-56 -4l-20 -391l2 -2l155 312l4 123q56 8 111 18t111 22q-10 -35 -13 -75l-30 -380l2 -2l147 280q8 14 11.5 27t3.5 21q0 24 -12 35t-45 16l16 63h230l-17 -63q-21 -1 -37 -10.5t-28.5 -24t-23 -32.5t-20.5 -37l-243 -457q0 -5 2.5 -14t5.5 -20
t6.5 -22.5t5.5 -19.5l-217 -5l26 396h-2l-158 -311l20 -80l-212 -5l18 638l-53 4l15 63h310zM495 760l104 125q29 35 48.5 50t45.5 15q15 0 26.5 -6.5t19 -15.5t11 -18.5t3.5 -15.5q0 -9 -2 -16t-9 -14.5t-19.5 -16.5t-33.5 -20l-126 -67h-68z" />
    <glyph glyph-name="wacute" unicode="&#x1e83;" horiz-adv-x="778" 
d="M23 418l197 82q17 -26 26.5 -50t9.5 -57q0 -10 -3 -28t-8 -33l-59 -170q-12 -35 -12 -52q0 -14 8.5 -19t18.5 -5q24 0 43.5 22.5t34.5 52.5t25 60t15 44q18 51 31 103.5t25 111.5h186q-26 -80 -48 -155.5t-42 -150.5q-2 -6 -4.5 -15t-4.5 -19t-4 -19t-2 -15
q0 -17 12 -23.5t27 -6.5q27 0 53.5 27t48 63.5t35 74t13.5 59.5q0 9 -9 18.5t-20 21.5t-20 27.5t-9 37.5q0 17 5 33t15 28.5t24 20t32 7.5q22 0 38 -8.5t25.5 -22t14 -32t4.5 -37.5q0 -40 -11 -86t-31.5 -91.5t-49.5 -87t-65 -73.5t-77.5 -51t-86.5 -19q-26 0 -47.5 4.5
t-37.5 15.5t-26.5 29t-13.5 46q-21 -23 -39 -40.5t-38 -29.5t-44 -18.5t-57 -6.5q-27 0 -50 5.5t-40 18t-27 33t-10 49.5q0 13 2 28.5t8 31.5l48 135q9 25 15.5 43.5t6.5 27.5q0 12 -13.5 15.5t-25.5 3.5zM379 539l104 125q29 35 48.5 50t45.5 15q15 0 26.5 -6.5t19 -15.5
t11 -18.5t3.5 -15.5q0 -9 -2 -16t-9 -14.5t-19.5 -16.5t-33.5 -20l-126 -67h-68z" />
    <glyph glyph-name="Wdieresis" unicode="&#x1e84;" horiz-adv-x="889" 
d="M384 700l-15 -63l-56 -4l-20 -391l2 -2l155 312l4 123q56 8 111 18t111 22q-10 -35 -13 -75l-30 -380l2 -2l147 280q8 14 11.5 27t3.5 21q0 24 -12 35t-45 16l16 63h230l-17 -63q-21 -1 -37 -10.5t-28.5 -24t-23 -32.5t-20.5 -37l-243 -457q0 -5 2.5 -14t5.5 -20
t6.5 -22.5t5.5 -19.5l-217 -5l26 396h-2l-158 -311l20 -80l-212 -5l18 638l-53 4l15 63h310zM698 922q33 0 56.5 -23.5t23.5 -56.5q0 -34 -23.5 -57t-56.5 -23q-34 0 -57 23t-23 57q0 33 23 56.5t57 23.5zM478 922q33 0 56.5 -23.5t23.5 -56.5q0 -34 -23.5 -57t-56.5 -23
q-34 0 -57 23t-23 57q0 33 23 56.5t57 23.5z" />
    <glyph glyph-name="wdieresis" unicode="&#x1e85;" horiz-adv-x="778" 
d="M23 418l197 82q17 -26 26.5 -50t9.5 -57q0 -10 -3 -28t-8 -33l-59 -170q-12 -35 -12 -52q0 -14 8.5 -19t18.5 -5q24 0 43.5 22.5t34.5 52.5t25 60t15 44q18 51 31 103.5t25 111.5h186q-26 -80 -48 -155.5t-42 -150.5q-2 -6 -4.5 -15t-4.5 -19t-4 -19t-2 -15
q0 -17 12 -23.5t27 -6.5q27 0 53.5 27t48 63.5t35 74t13.5 59.5q0 9 -9 18.5t-20 21.5t-20 27.5t-9 37.5q0 17 5 33t15 28.5t24 20t32 7.5q22 0 38 -8.5t25.5 -22t14 -32t4.5 -37.5q0 -40 -11 -86t-31.5 -91.5t-49.5 -87t-65 -73.5t-77.5 -51t-86.5 -19q-26 0 -47.5 4.5
t-37.5 15.5t-26.5 29t-13.5 46q-21 -23 -39 -40.5t-38 -29.5t-44 -18.5t-57 -6.5q-27 0 -50 5.5t-40 18t-27 33t-10 49.5q0 13 2 28.5t8 31.5l48 135q9 25 15.5 43.5t6.5 27.5q0 12 -13.5 15.5t-25.5 3.5zM582 701q33 0 56.5 -23.5t23.5 -56.5q0 -34 -23.5 -57t-56.5 -23
q-34 0 -57 23t-23 57q0 33 23 56.5t57 23.5zM362 701q33 0 56.5 -23.5t23.5 -56.5q0 -34 -23.5 -57t-56.5 -23q-34 0 -57 23t-23 57q0 33 23 56.5t57 23.5z" />
    <glyph glyph-name="Ygrave" unicode="&#x1ef2;" 
d="M72 700h305l-17 -63l-47 -4l55 -263l134 178q11 14 15.5 27.5t4.5 21.5q0 24 -18.5 31.5t-38.5 8.5l21 63h233l-22 -63q-13 -2 -25.5 -9.5t-23.5 -18t-21 -22.5t-18 -22l-197 -255q-11 -14 -18.5 -26t-11.5 -26l-51 -189l57 -6l-19 -63h-328l19 63l58 6l63 220l-80 344
l-45 4zM475 760l-123 79q-14 9 -28 22.5t-14 32.5q0 23 16 39.5t39 16.5q30 0 46 -14.5t33 -37.5l99 -138h-68z" />
    <glyph glyph-name="ygrave" unicode="&#x1ef3;" horiz-adv-x="556" 
d="M32 433l191 61q14 -18 24 -38t10 -41q0 -26 -4 -46t-12 -45l-54 -159q-7 -20 -11.5 -35t-4.5 -19q0 -9 3.5 -17t13.5 -8q19 0 33.5 13t26 35.5t21 51.5t19.5 62q17 57 33.5 117.5t23.5 114.5h194q-35 -94 -70.5 -213t-84.5 -275q-17 -53 -42.5 -91.5t-61.5 -64t-85 -38
t-112 -12.5q-25 0 -51.5 5.5t-48 17.5t-35.5 31t-14 46q0 37 21 59t59 22q21 0 36.5 -8.5t26 -22t15.5 -31t5 -35.5q0 -7 6 -12.5t13 -5.5q9 0 19.5 3.5t21.5 13t21.5 27t18.5 44.5l28 93l-2 2q-27 -21 -51 -35t-61 -14q-23 0 -43.5 9t-35.5 24t-23.5 35.5t-8.5 43.5
q0 16 1.5 33.5t8.5 34.5l58 153q6 15 9.5 27t3.5 23q0 21 -14 21q-6 0 -12 -2.5t-11 -4.5zM362 539l-123 79q-14 9 -28 22.5t-14 32.5q0 23 16 39.5t39 16.5q30 0 46 -14.5t33 -37.5l99 -138h-68z" />
    <glyph glyph-name="endash" unicode="&#x2013;" horiz-adv-x="587" 
d="M35 313h501l-48 -146h-497z" />
    <glyph glyph-name="emdash" unicode="&#x2014;" horiz-adv-x="1085" 
d="M35 313h999l-48 -146h-995z" />
    <glyph glyph-name="quoteleft" unicode="&#x2018;" horiz-adv-x="278" 
d="M313 657q-8 -5 -25.5 -14t-35 -20.5t-31 -23t-13.5 -21.5q0 -8 10 -15t21.5 -18t21.5 -28.5t10 -44.5q0 -42 -27.5 -70.5t-69.5 -28.5q-51 0 -80.5 34t-29.5 83q0 40 22.5 75t55.5 64t71.5 50.5t71.5 35.5z" />
    <glyph glyph-name="quoteright" unicode="&#x2019;" horiz-adv-x="278" 
d="M66 431q8 4 25.5 13.5t35 20.5t31 23t13.5 22q0 7 -10 14.5t-21.5 18.5t-21.5 28.5t-10 44.5q0 42 27.5 70.5t69.5 28.5q51 0 80.5 -34t29.5 -83q0 -40 -22.5 -75t-55.5 -64t-71.5 -51t-71.5 -35z" />
    <glyph glyph-name="quotesinglbase" unicode="&#x201a;" horiz-adv-x="278" 
d="M-82 -93q8 4 25.5 13.5t35 20.5t31 23t13.5 22q0 7 -10 14.5t-21.5 18.5t-21.5 28.5t-10 44.5q0 42 27.5 70.5t69.5 28.5q51 0 80.5 -34t29.5 -83q0 -40 -22.5 -75t-55.5 -64t-71.5 -51t-71.5 -35z" />
    <glyph glyph-name="quotedblleft" unicode="&#x201c;" horiz-adv-x="556" 
d="M313 657q-8 -5 -25.5 -14t-35 -20.5t-31 -23t-13.5 -21.5q0 -8 10 -15t21.5 -18t21.5 -28.5t10 -44.5q0 -42 -27.5 -70.5t-69.5 -28.5q-51 0 -80.5 34t-29.5 83q0 40 22.5 75t55.5 64t71.5 50.5t71.5 35.5zM591 657q-8 -5 -25.5 -14t-35 -20.5t-31 -23t-13.5 -21.5
q0 -8 10 -15t21.5 -18t21.5 -28.5t10 -44.5q0 -42 -27.5 -70.5t-69.5 -28.5q-51 0 -80.5 34t-29.5 83q0 40 22.5 75t55.5 64t71.5 50.5t71.5 35.5z" />
    <glyph glyph-name="quotedblright" unicode="&#x201d;" horiz-adv-x="556" 
d="M344 431q8 4 25.5 13.5t35 20.5t31 23t13.5 22q0 7 -10 14.5t-21.5 18.5t-21.5 28.5t-10 44.5q0 42 27.5 70.5t69.5 28.5q51 0 80.5 -34t29.5 -83q0 -40 -22.5 -75t-55.5 -64t-71.5 -51t-71.5 -35zM66 431q8 4 25.5 13.5t35 20.5t31 23t13.5 22q0 7 -10 14.5t-21.5 18.5
t-21.5 28.5t-10 44.5q0 42 27.5 70.5t69.5 28.5q51 0 80.5 -34t29.5 -83q0 -40 -22.5 -75t-55.5 -64t-71.5 -51t-71.5 -35z" />
    <glyph glyph-name="quotedblbase" unicode="&#x201e;" horiz-adv-x="556" 
d="M196 -93q8 4 25.5 13.5t35 20.5t31 23t13.5 22q0 7 -10 14.5t-21.5 18.5t-21.5 28.5t-10 44.5q0 42 27.5 70.5t69.5 28.5q51 0 80.5 -34t29.5 -83q0 -40 -22.5 -75t-55.5 -64t-71.5 -51t-71.5 -35zM-82 -93q8 4 25.5 13.5t35 20.5t31 23t13.5 22q0 7 -10 14.5t-21.5 18.5
t-21.5 28.5t-10 44.5q0 42 27.5 70.5t69.5 28.5q51 0 80.5 -34t29.5 -83q0 -40 -22.5 -75t-55.5 -64t-71.5 -51t-71.5 -35z" />
    <glyph glyph-name="dagger" unicode="&#x2020;" horiz-adv-x="556" 
d="M133 -122q20 76 34 153.5t14 156.5q0 28 -2.5 56t-7.5 55q15 11 33.5 30t36 41t30.5 45t18 41q-24 0 -43.5 -9t-37.5 -19.5t-36 -19.5t-39 -9q-31 0 -50 19t-19 46q0 33 19 57.5t54 24.5q21 0 38 -9.5t35 -20.5t39 -20.5t50 -9.5q2 8 2 15v15q0 14 -4 30t-9 33t-9.5 32.5
t-4.5 29.5q0 18 7 31.5t19 23t27.5 14.5t31.5 5q32 0 51 -18.5t19 -50.5q0 -17 -14.5 -36.5t-32 -40t-33 -42t-17.5 -40.5q22 0 40 9t36 20t37.5 20t42.5 9q70 0 70 -76q0 -12 -6 -24.5t-16 -23t-22.5 -17t-24.5 -6.5q-26 0 -42 9t-31.5 20t-35.5 20t-53 9q-4 -14 -5 -24
t-1 -23q0 -21 2 -35.5t7 -27t12.5 -25t19.5 -29.5q-64 -95 -110.5 -200t-79.5 -214h-39z" />
    <glyph glyph-name="daggerdbl" unicode="&#x2021;" horiz-adv-x="556" 
d="M465 129q0 -33 -19 -57.5t-54 -24.5q-21 0 -38 9.5t-34.5 20.5t-38.5 20.5t-50 9.5q-1 -5 -1.5 -13.5t-0.5 -16.5q0 -11 4 -27.5t9 -33.5t9 -34t4 -30q0 -18 -7 -31.5t-19 -23t-27.5 -14.5t-31.5 -5q-32 0 -51 18.5t-19 50.5q0 16 14.5 36t32 40.5t33 41.5t17.5 41
q-22 0 -40.5 -9t-36.5 -20t-37 -20t-42 -9q-70 0 -70 76q0 12 6 24.5t16 23t22.5 17t24.5 6.5q26 0 42 -9t32 -20t36 -20t53 -9q2 9 3.5 25t1.5 22q0 20 -2 34.5t-6.5 27t-12 24.5t-18.5 29q15 11 34 30t36 41t30.5 45t18.5 41q-24 0 -43.5 -9t-38 -19.5t-36.5 -19.5t-39 -9
q-31 0 -50 19t-19 46q0 33 19 57.5t54 24.5q21 0 37.5 -9.5t33.5 -20.5t38 -20.5t50 -9.5q2 8 2 15v15q0 11 -2.5 27.5t-7.5 33.5t-9.5 34t-4.5 30q0 18 7 31.5t19 23t27.5 14.5t31.5 5q32 0 51 -18.5t19 -50.5q0 -17 -14.5 -36.5t-32 -40t-33 -42t-17.5 -40.5q22 0 40 9
t36 20t37.5 20t42.5 9q70 0 70 -76q0 -12 -6 -24.5t-16 -23t-22.5 -17t-24.5 -6.5q-26 0 -42 9t-31.5 20t-35.5 20t-53 9q-2 -9 -4 -22t-2 -25q0 -21 2 -35.5t6.5 -27t11.5 -25.5t18 -31q-15 -10 -34 -28.5t-36.5 -40t-31 -44t-17.5 -40.5q24 0 44 9t38 19.5t36.5 19.5
t39.5 9q31 0 50 -19t19 -46z" />
    <glyph glyph-name="bullet" unicode="&#x2022;" horiz-adv-x="500" 
d="M250 525q36 0 68 -13.5t56 -37t37.5 -55.5t13.5 -69t-13.5 -69t-37.5 -55.5t-56 -37t-68 -13.5t-68 13.5t-56 37t-37.5 55.5t-13.5 69t13.5 69t37.5 55.5t56 37t68 13.5z" />
    <glyph glyph-name="ellipsis" unicode="&#x2026;" horiz-adv-x="1000" 
d="M83 213q25 0 45.5 -9t35 -24.5t22.5 -36t8 -44.5q0 -48 -30.5 -80.5t-80.5 -32.5t-80.5 32.5t-30.5 80.5q0 24 8 44.5t22.5 36t35 24.5t45.5 9zM416 213q25 0 45.5 -9t35 -24.5t22.5 -36t8 -44.5q0 -48 -30.5 -80.5t-80.5 -32.5t-80.5 32.5t-30.5 80.5q0 24 8 44.5
t22.5 36t35 24.5t45.5 9zM749 213q25 0 45.5 -9t35 -24.5t22.5 -36t8 -44.5q0 -48 -30.5 -80.5t-80.5 -32.5t-80.5 32.5t-30.5 80.5q0 24 8 44.5t22.5 36t35 24.5t45.5 9z" />
    <glyph glyph-name="perthousand" unicode="&#x2030;" horiz-adv-x="1000" 
d="M211 606q0 25 -5.5 42t-25.5 17q-13 0 -24.5 -17.5t-21.5 -44t-18.5 -59t-14 -63t-9 -54t-3.5 -33.5q0 -25 5.5 -42t25.5 -17q12 0 24 17.5t22 44t18.5 59t14 63t9 54t3.5 33.5zM481 715h62l-353 -730h-62zM579 306q0 25 -5.5 42t-25.5 17q-13 0 -24.5 -17.5t-21.5 -44
t-18.5 -59t-14 -63t-9 -54t-3.5 -33.5q0 -25 5.5 -42t25.5 -17q12 0 24 17.5t22 44t18.5 59t14 63t9 54t3.5 33.5zM170 715q35 0 59 -18t39 -46t21.5 -60.5t6.5 -60.5q0 -33 -7.5 -75.5t-26.5 -80t-51 -63.5t-80 -26q-35 0 -59 18.5t-39 46t-22 60t-7 61.5q0 33 8 75
t27 79.5t51 63.5t80 26zM538 415q35 0 59 -18t39 -46t21.5 -60.5t6.5 -60.5q0 -33 -7.5 -75.5t-26.5 -80t-51 -63.5t-80 -26q-35 0 -59 18.5t-39 46t-22 60t-7 61.5q0 33 8 75t27 79.5t51 63.5t80 26zM871 415q35 0 59 -18t39 -46t21.5 -60.5t6.5 -60.5q0 -33 -7.5 -75.5
t-26.5 -80t-51 -63.5t-80 -26q-35 0 -59 18.5t-39 46t-22 60t-7 61.5q0 33 8 75t27 79.5t51 63.5t80 26zM912 306q0 25 -5.5 42t-25.5 17q-13 0 -24.5 -17.5t-21.5 -44t-18.5 -59t-14 -63t-9 -54t-3.5 -33.5q0 -25 5.5 -42t25.5 -17q12 0 24 17.5t22 44t18.5 59t14 63t9 54
t3.5 33.5z" />
    <glyph glyph-name="guilsinglleft" unicode="&#x2039;" horiz-adv-x="333" 
d="M20 217l-11.5 11.5t-6.5 10.5q0 7 4.5 8.5t9.5 5.5q15 10 38.5 27.5t50.5 37.5t54.5 40.5t51 36.5t40 26.5t21.5 10.5q11 0 15 -8t4 -13q0 -7 -15 -27t-37 -45.5t-47 -53t-46 -49.5q5 -11 17 -35.5t24 -51.5t21.5 -50.5t9.5 -33.5q0 -7 -6 -11.5t-13 -4.5q-6 0 -18 10
t-25.5 23t-25 25.5t-16.5 17.5z" />
    <glyph glyph-name="guilsinglright" unicode="&#x203a;" horiz-adv-x="333" 
d="M251 264l11.5 -11.5t6.5 -10.5q0 -7 -4.5 -8.5t-9.5 -5.5q-15 -10 -38.5 -27.5t-50.5 -37.5t-54.5 -40.5t-51 -36.5t-40.5 -26.5t-21 -10.5q-11 0 -15 8t-4 13q0 7 15 27t37 45.5t47 53t46 49.5q-5 11 -17 35.5t-24 51.5t-21.5 50.5t-9.5 33.5q0 7 6 11.5t13 4.5
q6 0 18 -10t25.5 -23t25 -25.5t16.5 -17.5z" />
    <glyph glyph-name="fraction" unicode="&#x2044;" horiz-adv-x="167" 
d="M-95 -15h-72l428 730h73z" />
    <glyph glyph-name="uni2070" unicode="&#x2070;" horiz-adv-x="380" 
d="M298 815q37 0 63.5 -12.5t43 -34t24.5 -49.5t8 -59q0 -46 -14.5 -96t-42.5 -91.5t-68.5 -68.5t-91.5 -27q-68 0 -103 42.5t-35 112.5q0 50 16 100.5t45 91t68.5 66t86.5 25.5zM214 420q7 0 14 4t14 15.5t15 32t19 54.5q8 26 17.5 58.5t17 63t12.5 56.5t5 38
q0 11 -5.5 20.5t-19.5 9.5t-28 -25.5t-33 -80.5q-9 -27 -18.5 -59.5t-17 -63.5t-12 -56t-4.5 -37q0 -11 5 -20.5t19 -9.5z" />
    <glyph glyph-name="uni2074" unicode="&#x2074;" horiz-adv-x="380" 
d="M142 425l45 3l19 61h-165l16 50q31 25 62.5 57.5t60 68t53 72t41.5 70.5h147q-38 -48 -72.5 -85.5t-72.5 -70t-81.5 -62t-98.5 -59.5v-1h121l22 75q45 16 85.5 46t76.5 72l-60 -193h59l-12 -40h-58l-19 -61l43 -3l-11 -38h-213z" />
    <glyph glyph-name="uni2075" unicode="&#x2075;" horiz-adv-x="380" 
d="M115 589l73 218h181q28 0 36 21h50l-52 -120h-199l-22 -65q17 9 38 13.5t40 4.5q36 0 62.5 -9.5t43.5 -26t25 -38.5t8 -46q0 -35 -13 -64.5t-38 -51.5t-62 -34.5t-85 -12.5q-36 0 -62.5 8t-44.5 20.5t-26.5 29t-8.5 34.5q0 26 18 42.5t44 16.5q29 0 43.5 -16.5
t14.5 -36.5q0 -17 -5.5 -24t-5.5 -15q0 -7 8.5 -9.5t13.5 -2.5q19 0 33 12.5t23.5 30.5t14 38t4.5 36q0 26 -11 44.5t-37 18.5q-19 0 -34 -9.5t-23 -20.5z" />
    <glyph glyph-name="uni2076" unicode="&#x2076;" horiz-adv-x="380" 
d="M328 815q34 0 56.5 -7.5t35.5 -19t18.5 -25.5t5.5 -26q0 -27 -17 -41t-38 -14q-27 0 -43 15.5t-16 38.5q0 12 3 18t3 11t-8.5 6t-11.5 1q-15 0 -29.5 -11t-26.5 -30.5t-21 -46t-13 -57.5q15 13 36.5 22t47.5 9q48 0 72 -31t24 -81q0 -30 -11 -60t-33 -54.5t-54 -39.5
t-75 -15q-41 0 -70.5 13t-48.5 35t-28 51.5t-9 61.5q0 51 17 101t49 89t79 63t106 24zM249 598q-16 0 -27.5 -17t-19.5 -40t-12 -46t-4 -34q0 -19 7 -30t21 -11q16 0 28 17.5t19.5 41t11.5 47t4 34.5q0 38 -28 38z" />
    <glyph glyph-name="uni2077" unicode="&#x2077;" horiz-adv-x="380" 
d="M192 811q24 -9 60 -9h205l-21 -75q-72 -72 -112.5 -140.5t-45.5 -146.5q-2 -27 -20 -47t-51 -20q-73 0 -73 64q0 35 23.5 73t57.5 73.5t70 64.5t62 46l-1 1h-106q-38 0 -58 -10t-31 -32l-34 12z" />
    <glyph glyph-name="uni2078" unicode="&#x2078;" horiz-adv-x="380" 
d="M439 714q0 -18 -8 -33.5t-21 -28t-29 -21.5t-32 -14q28 -21 42.5 -46.5t14.5 -59.5q0 -28 -12.5 -52.5t-36.5 -42.5t-58 -28.5t-76 -10.5q-23 0 -49.5 5.5t-49 18.5t-38 34.5t-15.5 54.5q0 22 9 39t24 30.5t34.5 22.5t39.5 15q-21 17 -33.5 41.5t-12.5 51.5q0 26 13 48.5
t35.5 39.5t52.5 27t63 10q24 0 49.5 -5t46 -17t34 -31.5t13.5 -47.5zM212 570q-23 -14 -38.5 -32.5t-15.5 -45.5q0 -37 21.5 -53.5t56.5 -16.5q26 0 43.5 14t17.5 40q0 14 -6.5 25.5t-16 21t-21.5 18t-23 16.5zM317 642q14 12 24.5 29.5t10.5 43.5q0 24 -13 41t-42 17
q-32 0 -44.5 -16t-12.5 -33q0 -23 14.5 -36.5t32.5 -25.5z" />
    <glyph glyph-name="uni2079" unicode="&#x2079;" horiz-adv-x="380" 
d="M262 593q16 0 27.5 16.5t19 39t11 45t3.5 33.5q0 19 -7 30t-21 11q-16 0 -27.5 -17t-19 -40t-11 -46t-3.5 -34q0 -38 28 -38zM176 376q-29 0 -49.5 7t-34 18t-19.5 25.5t-6 28.5q0 25 16 41t42 16q23 0 38.5 -15.5t15.5 -44.5q0 -8 -2 -11t-2 -8t6 -8t14 -3q13 0 26 7.5
t25 24t22.5 43t17.5 64.5q-15 -12 -33.5 -20t-44.5 -8q-42 0 -71 29t-29 83q0 32 12.5 62.5t35.5 54t57 38t77 14.5q69 0 105.5 -42t36.5 -107q0 -49 -14.5 -100t-45 -93t-79 -69t-117.5 -27z" />
    <glyph glyph-name="uni2080" unicode="&#x2080;" horiz-adv-x="380" 
d="M162 329q37 0 63.5 -12.5t43 -34t24.5 -49.5t8 -59q0 -46 -14.5 -96t-42.5 -91.5t-68.5 -68.5t-91.5 -27q-68 0 -103 42.5t-35 112.5q0 50 16 100.5t45 91t68.5 66t86.5 25.5zM78 -66q7 0 14 4t14 15.5t15 32t19 54.5q8 26 17.5 58.5t17 63t12.5 56.5t5 38
q0 11 -5.5 20.5t-19.5 9.5t-28 -25.5t-33 -80.5q-9 -27 -18.5 -59.5t-17 -63.5t-12 -56t-4.5 -37q0 -11 5 -20.5t19 -9.5z" />
    <glyph glyph-name="uni2081" unicode="&#x2081;" horiz-adv-x="380" 
d="M-73 -100l10 38l83 7l75 235q5 14 7.5 24.5t2.5 14.5q0 34 -40 34q-8 0 -14.5 -0.5t-14.5 -0.5l11 39q59 4 115.5 14t113.5 24l-122 -385l83 -6l-11 -38h-299z" />
    <glyph glyph-name="uni2082" unicode="&#x2082;" horiz-adv-x="380" 
d="M201 -109q-10 3 -19.5 4.5t-20.5 3.5q-11 1 -20.5 1h-20.5h-220l4 17q10 44 34.5 73.5t55.5 50.5t64.5 37.5t61 36t45.5 45t18 65.5q0 26 -16.5 43.5t-45.5 17.5q-3 0 -9 -1t-11.5 -3t-10 -5t-4.5 -7t4.5 -8.5t10 -10.5t10 -15t4.5 -22q0 -26 -19 -40t-45 -14
q-24 0 -42 13.5t-18 36.5q0 29 13.5 51.5t35.5 37.5t50 22.5t57 7.5q33 0 64.5 -7t55.5 -22t38.5 -39.5t14.5 -59.5q0 -39 -17.5 -64.5t-45.5 -42t-62 -27t-67 -19.5t-61 -19.5t-43 -26.5h106q28 0 52.5 6t41.5 29l48 -7z" />
    <glyph glyph-name="uni2083" unicode="&#x2083;" horiz-adv-x="380" 
d="M133 55q0 7 -1 16t-5 17.5t-10.5 14t-16.5 5.5q-8 0 -15.5 -1t-14.5 -1q-9 0 -16.5 4t-7.5 13q0 10 5 18.5t17 8.5q11 0 18 -4t16 -4q21 0 35.5 8.5t24 22t14 30t4.5 33.5q0 20 -8.5 35t-34.5 15q-5 0 -14 -1.5t-9 -7.5q0 -5 2 -12.5t2 -14.5q0 -20 -15.5 -33.5
t-37.5 -13.5q-23 0 -42 10.5t-19 35.5q0 26 14.5 41.5t36 24t47 11.5t46.5 3q25 0 53.5 -5.5t53.5 -18t41.5 -32.5t16.5 -48q0 -27 -13.5 -46t-34.5 -31t-47.5 -18t-53.5 -8v-1q21 -7 40 -14t32.5 -17.5t21.5 -26.5t8 -40q0 -37 -18.5 -62t-47 -40.5t-64 -22.5t-68.5 -7
q-21 0 -48.5 3.5t-52 13t-41 26.5t-16.5 45q0 26 17.5 44.5t46.5 18.5q26 0 46 -15t20 -41q0 -10 -2.5 -16.5t-5.5 -11t-5.5 -8t-2.5 -6.5q0 -6 7.5 -8t12.5 -2q27 0 44 11.5t27 29.5t14 39t4 41z" />
    <glyph glyph-name="uni2084" unicode="&#x2084;" horiz-adv-x="380" 
d="M6 -61l45 3l19 61h-165l16 50q31 25 62.5 57.5t60 68t53 72t41.5 70.5h147q-38 -48 -72.5 -85.5t-72.5 -70t-81.5 -62t-98.5 -59.5v-1h121l22 75q45 16 85.5 46t76.5 72l-60 -193h59l-12 -40h-58l-19 -61l43 -3l-11 -38h-213z" />
    <glyph glyph-name="uni2085" unicode="&#x2085;" horiz-adv-x="380" 
d="M-21 103l73 218h181q28 0 36 21h50l-52 -120h-199l-22 -65q17 9 38 13.5t40 4.5q36 0 62.5 -9.5t43.5 -26t25 -38.5t8 -46q0 -35 -13 -64.5t-38 -51.5t-62 -34.5t-85 -12.5q-36 0 -62.5 8t-44.5 20.5t-26.5 29t-8.5 34.5q0 26 18 42.5t44 16.5q29 0 43.5 -16.5
t14.5 -36.5q0 -17 -5.5 -24t-5.5 -15q0 -7 8.5 -9.5t13.5 -2.5q19 0 33 12.5t23.5 30.5t14 38t4.5 36q0 26 -11 44.5t-37 18.5q-19 0 -34 -9.5t-23 -20.5z" />
    <glyph glyph-name="uni2086" unicode="&#x2086;" horiz-adv-x="380" 
d="M192 329q34 0 56.5 -7.5t35.5 -19t18.5 -25.5t5.5 -26q0 -27 -17 -41t-38 -14q-27 0 -43 15.5t-16 38.5q0 12 3 18t3 11t-8.5 6t-11.5 1q-15 0 -29.5 -11t-26.5 -30.5t-21 -46t-13 -57.5q15 13 36.5 22t47.5 9q48 0 72 -31t24 -81q0 -30 -11 -60t-33 -54.5t-54 -39.5
t-75 -15q-41 0 -70.5 13t-48.5 35t-28 51.5t-9 61.5q0 51 17 101t49 89t79 63t106 24zM113 112q-16 0 -27.5 -17t-19.5 -40t-12 -46t-4 -34q0 -19 7 -30t21 -11q16 0 28 17.5t19.5 41t11.5 47t4 34.5q0 38 -28 38z" />
    <glyph glyph-name="uni2087" unicode="&#x2087;" horiz-adv-x="380" 
d="M56 325q24 -9 60 -9h205l-21 -75q-72 -72 -112.5 -140.5t-45.5 -146.5q-2 -27 -20 -47t-51 -20q-73 0 -73 64q0 35 23.5 73t57.5 73.5t70 64.5t62 46l-1 1h-106q-38 0 -58 -10t-31 -32l-34 12z" />
    <glyph glyph-name="uni2088" unicode="&#x2088;" horiz-adv-x="380" 
d="M303 228q0 -18 -8 -33.5t-21 -28t-29 -21.5t-32 -14q28 -21 42.5 -46.5t14.5 -59.5q0 -28 -12.5 -52.5t-36.5 -42.5t-58 -28.5t-76 -10.5q-23 0 -49.5 5.5t-49 18.5t-38 34.5t-15.5 54.5q0 22 9 39t24 30.5t34.5 22.5t39.5 15q-21 17 -33.5 41.5t-12.5 51.5q0 26 13 48.5
t35.5 39.5t52.5 27t63 10q24 0 49.5 -5t46 -17t34 -31.5t13.5 -47.5zM76 84q-23 -14 -38.5 -32.5t-15.5 -45.5q0 -37 21.5 -53.5t56.5 -16.5q26 0 43.5 14t17.5 40q0 14 -6.5 25.5t-16 21t-21.5 18t-23 16.5zM181 156q14 12 24.5 29.5t10.5 43.5q0 24 -13 41t-42 17
q-32 0 -44.5 -16t-12.5 -33q0 -23 14.5 -36.5t32.5 -25.5z" />
    <glyph glyph-name="uni2089" unicode="&#x2089;" horiz-adv-x="380" 
d="M126 107q16 0 27.5 16.5t19 39t11 45t3.5 33.5q0 19 -7 30t-21 11q-16 0 -27.5 -17t-19 -40t-11 -46t-3.5 -34q0 -38 28 -38zM40 -110q-29 0 -49.5 7t-34 18t-19.5 25.5t-6 28.5q0 25 16 41t42 16q23 0 38.5 -15.5t15.5 -44.5q0 -8 -2 -11t-2 -8t6 -8t14 -3q13 0 26 7.5
t25 24t22.5 43t17.5 64.5q-15 -12 -33.5 -20t-44.5 -8q-42 0 -71 29t-29 83q0 32 12.5 62.5t35.5 54t57 38t77 14.5q69 0 105.5 -42t36.5 -107q0 -49 -14.5 -100t-45 -93t-79 -69t-117.5 -27z" />
    <glyph glyph-name="Euro" unicode="&#x20ac;" 
d="M457 278h-149q-4 -23 -6 -41.5t-2 -29.5q0 -23 2 -45t8.5 -39.5t19.5 -28.5t35 -11q40 0 74 30t67 76l49 -46q-27 -37 -53.5 -66t-55.5 -49.5t-62 -31.5t-73 -11q-48 0 -88 16.5t-68 49.5t-43.5 82.5t-15.5 114.5v15t1 15h-85l19 69h75q2 14 6 30.5t8 27.5h-71l19 69h78
q22 50 52 94t67.5 76.5t81 51.5t92.5 19q20 0 40 -5t38 -11q17 -6 32.5 -13.5t29.5 -7.5q11 0 30 8.5t33 21.5v-224h-68q-5 30 -14 59t-22.5 51t-30.5 35.5t-38 13.5q-17 0 -32.5 -13.5t-30 -37t-27.5 -54t-24 -64.5h158l-19 -69h-159q-4 -15 -7.5 -29.5t-6.5 -28.5h155z
" />
    <glyph glyph-name="afii61289" unicode="&#x2113;" horiz-adv-x="499" 
d="M418 132q-58 -69 -122 -107.5t-136 -38.5q-38 0 -63 7.5t-40 20.5t-21.5 31t-6.5 39q0 17 5 41.5t16 62.5l16 53l-71 -35l-4 37l90 50l44 143q16 51 30.5 89t30 67t33.5 51.5t41 43.5q43 40 83.5 57t75.5 17q46 0 66.5 -25t20.5 -63q0 -14 -2.5 -29.5t-7.5 -31.5
q-14 -44 -35.5 -80.5t-52.5 -70.5t-71.5 -66.5t-92.5 -68.5l-23 -75q-11 -38 -17.5 -67t-6.5 -49q0 -31 14 -44.5t43 -13.5q19 0 38 7t37.5 18.5t36 26t32.5 29.5zM264 391q45 38 83.5 91t61.5 128q14 45 14 76q0 15 -5 24t-16 9q-12 0 -23 -10t-23 -35.5t-27 -69.5
t-35 -112z" />
    <glyph glyph-name="trademark" unicode="&#x2122;" horiz-adv-x="1110" 
d="M367 363q0 -11 1 -18.5t5.5 -12t15 -6.5t29.5 -3v-27h-224v27q19 1 29.5 3t15 6.5t5.5 12t1 18.5v310h-42q-29 0 -43 -18.5t-19 -42.5h-27v88h384v-88h-27q-5 24 -19 42.5t-43 18.5h-42v-310zM643 571h-2v-174q0 -21 1 -35t5.5 -22.5t15 -12t29.5 -4.5v-27h-135v27
q19 1 29 4.5t14.5 12t5.5 22.5t1 35v222q0 13 -7 23t-17.5 17t-23 10.5t-24.5 3.5v27h163l127 -263l138 263h139v-27q-19 0 -29.5 -2t-15 -7t-5.5 -12.5t-1 -18.5v-270q0 -11 1 -18.5t5.5 -12t15 -6.5t29.5 -3v-27h-224v27q19 1 29.5 3t15 6.5t5.5 12t1 18.5v208h-2
l-140 -274h-16z" />
    <glyph glyph-name="uni2126" unicode="&#x2126;" horiz-adv-x="799" 
d="M629 0h-285l-3 26q26 36 59 79.5t64.5 91t58 98t41.5 99.5q28 96 28 156q0 65 -27 92t-67 27q-51 0 -96.5 -37.5t-80 -100t-54.5 -144t-20 -168.5q0 -53 5.5 -102t11.5 -91l-17 -26h-286l30 188h39q2 -22 5.5 -36t11 -21.5t19 -10.5t29.5 -3h95q-53 45 -78 103.5
t-25 122.5q0 79 30 147t83 118t126 78t160 28q67 0 117.5 -16.5t84.5 -46t50.5 -71t16.5 -90.5q0 -52 -16 -102t-50.5 -97t-90 -91t-133.5 -83h110q16 0 28 2.5t23.5 10.5t23.5 21.5t27 36.5h41z" />
    <glyph glyph-name="estimated" unicode="&#x212e;" horiz-adv-x="994" 
d="M303 339q-5 0 -5 -4v-198q0 -13 8 -23q48 -50 111.5 -79t136.5 -29q79 0 146 33t115 88h59q-55 -64 -138.5 -102.5t-182.5 -38.5q-84 0 -157.5 28.5t-128 77.5t-86.5 115.5t-32 141.5q0 76 32 142t86.5 115.5t128 78t157.5 28.5t158 -28.5t129 -78t87 -115.5t32 -142v-10
h-656zM810 565q0 14 -10 23q-48 48 -111 76t-135 28t-135 -29t-111 -78q-10 -9 -10 -25v-195q0 -2 1.5 -4t3.5 -2h503q2 0 3 2t1 4v200z" />
    <glyph glyph-name="onethird" unicode="&#x2153;" horiz-adv-x="953" 
d="M292 -15h-72l428 730h73zM718 155q0 7 -1 16t-5 17.5t-10.5 14t-16.5 5.5q-8 0 -15.5 -1t-14.5 -1q-9 0 -16.5 4t-7.5 13q0 10 5 18.5t17 8.5q11 0 18 -4t16 -4q21 0 35.5 8.5t24 22t14 30t4.5 33.5q0 20 -8.5 35t-34.5 15q-5 0 -14 -1.5t-9 -7.5q0 -5 2 -12.5t2 -14.5
q0 -20 -15.5 -33.5t-37.5 -13.5q-23 0 -42 10.5t-19 35.5q0 26 14.5 41.5t36 24t47 11.5t46.5 3q25 0 53.5 -5.5t53.5 -18t41.5 -32.5t16.5 -48q0 -27 -13.5 -46t-34.5 -31t-47.5 -18t-53.5 -8v-1q21 -7 40 -14t32.5 -17.5t21.5 -26.5t8 -40q0 -37 -18.5 -62t-47 -40.5
t-64 -22.5t-68.5 -7q-21 0 -48.5 3.5t-52 13t-41 26.5t-16.5 45q0 26 17.5 44.5t46.5 18.5q26 0 46 -15t20 -41q0 -10 -2.5 -16.5t-5.5 -11t-5.5 -8t-2.5 -6.5q0 -6 7.5 -8t12.5 -2q27 0 44 11.5t27 29.5t14 39t4 41zM35 286l10 38l83 7l75 235q5 14 7.5 24.5t2.5 14.5
q0 34 -40 34q-8 0 -14.5 -0.5t-14.5 -0.5l11 39q59 4 115.5 14t113.5 24l-122 -385l83 -6l-11 -38h-299z" />
    <glyph glyph-name="twothirds" unicode="&#x2154;" horiz-adv-x="947" 
d="M286 -15h-72l428 730h73zM712 155q0 7 -1 16t-5 17.5t-10.5 14t-16.5 5.5q-8 0 -15.5 -1t-14.5 -1q-9 0 -16.5 4t-7.5 13q0 10 5 18.5t17 8.5q11 0 18 -4t16 -4q21 0 35.5 8.5t24 22t14 30t4.5 33.5q0 20 -8.5 35t-34.5 15q-5 0 -14 -1.5t-9 -7.5q0 -5 2 -12.5t2 -14.5
q0 -20 -15.5 -33.5t-37.5 -13.5q-23 0 -42 10.5t-19 35.5q0 26 14.5 41.5t36 24t47 11.5t46.5 3q25 0 53.5 -5.5t53.5 -18t41.5 -32.5t16.5 -48q0 -27 -13.5 -46t-34.5 -31t-47.5 -18t-53.5 -8v-1q21 -7 40 -14t32.5 -17.5t21.5 -26.5t8 -40q0 -37 -18.5 -62t-47 -40.5
t-64 -22.5t-68.5 -7q-21 0 -48.5 3.5t-52 13t-41 26.5t-16.5 45q0 26 17.5 44.5t46.5 18.5q26 0 46 -15t20 -41q0 -10 -2.5 -16.5t-5.5 -11t-5.5 -8t-2.5 -6.5q0 -6 7.5 -8t12.5 -2q27 0 44 11.5t27 29.5t14 39t4 41zM309 277q-10 3 -19.5 4.5t-20.5 3.5q-11 1 -20.5 1
h-20.5h-220l4 17q10 44 34.5 73.5t55.5 50.5t64.5 37.5t61 36t45.5 45t18 65.5q0 26 -16.5 43.5t-45.5 17.5q-3 0 -9 -1t-11.5 -3t-10 -5t-4.5 -7t4.5 -8.5t10 -10.5t10 -15t4.5 -22q0 -26 -19 -40t-45 -14q-24 0 -42 13.5t-18 36.5q0 29 13.5 51.5t35.5 37.5t50 22.5
t57 7.5q33 0 64.5 -7t55.5 -22t38.5 -39.5t14.5 -59.5q0 -39 -17.5 -64.5t-45.5 -42t-62 -27t-67 -19.5t-61 -19.5t-43 -26.5h106q28 0 52.5 6t41.5 29l48 -7z" />
    <glyph glyph-name="oneeighth" unicode="&#x215b;" horiz-adv-x="929" 
d="M292 -15h-72l428 730h73zM874 328q0 -18 -8 -33.5t-21 -28t-29 -21.5t-32 -14q28 -21 42.5 -46.5t14.5 -59.5q0 -28 -12.5 -52.5t-36.5 -42.5t-58 -28.5t-76 -10.5q-23 0 -49.5 5.5t-49 18.5t-38 34.5t-15.5 54.5q0 22 9 39t24 30.5t34.5 22.5t39.5 15q-21 17 -33.5 41.5
t-12.5 51.5q0 26 13 48.5t35.5 39.5t52.5 27t63 10q24 0 49.5 -5t46 -17t34 -31.5t13.5 -47.5zM647 184q-23 -14 -38.5 -32.5t-15.5 -45.5q0 -37 21.5 -53.5t56.5 -16.5q26 0 43.5 14t17.5 40q0 14 -6.5 25.5t-16 21t-21.5 18t-23 16.5zM752 256q14 12 24.5 29.5t10.5 43.5
q0 24 -13 41t-42 17q-32 0 -44.5 -16t-12.5 -33q0 -23 14.5 -36.5t32.5 -25.5zM35 286l10 38l83 7l75 235q5 14 7.5 24.5t2.5 14.5q0 34 -40 34q-8 0 -14.5 -0.5t-14.5 -0.5l11 39q59 4 115.5 14t113.5 24l-122 -385l83 -6l-11 -38h-299z" />
    <glyph glyph-name="threeeighths" unicode="&#x215c;" horiz-adv-x="922" 
d="M867 328q0 -18 -8 -33.5t-21 -28t-29 -21.5t-32 -14q28 -21 42.5 -46.5t14.5 -59.5q0 -28 -12.5 -52.5t-36.5 -42.5t-58 -28.5t-76 -10.5q-23 0 -49.5 5.5t-49 18.5t-38 34.5t-15.5 54.5q0 22 9 39t24 30.5t34.5 22.5t39.5 15q-21 17 -33.5 41.5t-12.5 51.5q0 26 13 48.5
t35.5 39.5t52.5 27t63 10q24 0 49.5 -5t46 -17t34 -31.5t13.5 -47.5zM640 184q-23 -14 -38.5 -32.5t-15.5 -45.5q0 -37 21.5 -53.5t56.5 -16.5q26 0 43.5 14t17.5 40q0 14 -6.5 25.5t-16 21t-21.5 18t-23 16.5zM745 256q14 12 24.5 29.5t10.5 43.5q0 24 -13 41t-42 17
q-32 0 -44.5 -16t-12.5 -33q0 -23 14.5 -36.5t32.5 -25.5zM285 -15h-72l428 730h73zM241 441q0 7 -1 16t-5 17.5t-10.5 14t-16.5 5.5q-8 0 -15.5 -1t-14.5 -1q-9 0 -16.5 4t-7.5 13q0 10 5 18.5t17 8.5q11 0 18 -4t16 -4q21 0 35.5 8.5t24 22t14 30t4.5 33.5q0 20 -8.5 35
t-34.5 15q-5 0 -14 -1.5t-9 -7.5q0 -5 2 -12.5t2 -14.5q0 -20 -15.5 -33.5t-37.5 -13.5q-23 0 -42 10.5t-19 35.5q0 26 14.5 41.5t36 24t47 11.5t46.5 3q25 0 53.5 -5.5t53.5 -18t41.5 -32.5t16.5 -48q0 -27 -13.5 -46t-34.5 -31t-47.5 -18t-53.5 -8v-1q21 -7 40 -14
t32.5 -17.5t21.5 -26.5t8 -40q0 -37 -18.5 -62t-47 -40.5t-64 -22.5t-68.5 -7q-21 0 -48.5 3.5t-52 13t-41 26.5t-16.5 45q0 26 17.5 44.5t46.5 18.5q26 0 46 -15t20 -41q0 -10 -2.5 -16.5t-5.5 -11t-5.5 -8t-2.5 -6.5q0 -6 7.5 -8t12.5 -2q27 0 44 11.5t27 29.5t14 39t4 41
z" />
    </font>
</defs>
</svg>
