<svg xmlns="http://www.w3.org/2000/svg" xmlns:xlink="http://www.w3.org/1999/xlink" width="208.5" height="360" viewBox="0 0 208.5 360">
  <defs>
    <clipPath id="clip-Centrala-bak_1">
      <rect width="208.5" height="360"/>
    </clipPath>
  </defs>
  <g id="Centrala-bak_1" data-name="Centrala-bak – 1" clip-path="url(#clip-Centrala-bak_1)">
    <rect width="208.5" height="360" fill="rgba(0,0,0,0)"/>
    <g id="Group_3" data-name="Group 3">
      <rect id="Rectangle_4" data-name="Rectangle 4" width="208.5" height="360" fill="rgba(255,255,255,0)"/>
      <g id="Centrala-bak" transform="translate(30 3.75)">
        <path id="Path_877" data-name="Path 877" d="M1307.577,370.216c.778,1.366.647,2.665-.434,2.679s-2.048-1.489-3.023-3.4-2.308-2.859-2.365-1.5a30.843,30.843,0,0,0,1.148,7.082c.627,2.119.956,3.928,1.36,5.4s.493,3.727-.583,3.967c-1.52.344-1.667-2.267-2.362-4.5s-1.594-5.911-2.263-5.594-.221,5.031-.15,7.787.525,5.833-.917,6.089c-1.969.35-1.92-4.008-2.129-6.607s-.493-5.87-1.227-6.061-1.217,7.45-1.3,9.941c-.048,1.5-.506,2.2-1.634,2.175-1.416-.022-1.205-2.641-1.039-5.85.15-2.877.7-6.9-.134-6.647-.318.1-.936,2.134-1.45,4.541-.45,2.107-.874,5.367-1.956,5.118-1.751-.4-.454-3.574-.138-7.212.338-3.9.455-4.591.125-5.96a37.7,37.7,0,0,1-.473-9.394,11.735,11.735,0,0,1,.555-2.6c.707-3.15-1.523-8.872-1.523-8.872-1.339-3.516-5.775-14.9-7.366-21.85s-1.842-12.809-2.6-17.246a58.626,58.626,0,0,1-1.255-10.633,16.5,16.5,0,0,0-1.618-6.734l-.055.34c.118-1.06.282-2.735.472-4.816.257-2.818.562-6.383.866-10.2.086-1.078-.075-3.178.008-4.285.266-3.475,1.056-10.844,1.1-13.6.012-.833-2.515-3.259-6.363-5.012a68.151,68.151,0,0,0-12.788-4.022c-10.758-2.278-10.141-5.139-13.938-5.139s-4.692,2.768-14.319,5.15c-5.081,1.257-4.986,1.7-9.73,2.7-2.525.532-6.561,2.612-8.076,4.52-.87,1.094-.765.068-1.385,1.636.968,2.953.956,11.5,1.357,16.535.034.431.3,2.03.332,2.449.331,4.125-.027,6.682.19,9.267.262,3.122.421,4.923.421,4.923a14.516,14.516,0,0,0-1.451,6.289,58.7,58.7,0,0,1-1.255,10.633c-.753,4.437-1.005,10.3-2.6,17.246s-6.028,18.335-7.367,21.851c0,0-2.23,5.625-1.522,8.779a11.756,11.756,0,0,1,.555,2.6,37.686,37.686,0,0,1-.472,9.392c-.331,1.37-.213,2.06.125,5.962.315,3.637,1.612,6.808-.138,7.211-1.081.25-1.508-3.01-1.956-5.116-.514-2.409-1.133-4.447-1.45-4.542-.837-.249-.284,3.769-.134,6.646.167,3.206.375,5.825-1.039,5.85-1.125.018-1.587-.683-1.636-2.175-.083-2.491-.567-10.13-1.3-9.941s-1.015,3.466-1.226,6.062-.161,6.955-2.129,6.605c-1.442-.257-.987-3.332-.916-6.089s.525-7.47-.15-7.788-1.567,3.358-2.263,5.594-.842,4.842-2.361,4.5c-1.077-.241-.986-2.5-.583-3.968s.733-3.282,1.36-5.4a30.863,30.863,0,0,0,1.148-7.082.818.818,0,0,0-.161-.532c-.392-.425-1.415.49-2.2,2.035-.975,1.914-1.943,3.419-3.023,3.4s-1.212-1.313-.434-2.678c.7-1.226,1.028-3.2,2.92-6.649,1.575-2.863,3.065-3.186,4.575-4.659,3.473-3.379,3.529-10.606,3.529-10.606.251-4.856.586-17.5.5-21.767s1.507-10.13,2.424-13.65.087-8.371,0-13.4,1.507-16.828,1.088-23.441-.418-13.06-.418-13.06c0-.14.005-.28.011-.419a19.31,19.31,0,0,1,8.36-14.9c3.433-2.234,6.865-2.93,11.47-4.939.82-.359,1.75-.73,2.741-1.11,4.575-1.749,10.518-3.671,13.751-5.25,3.934-1.925,3.269-9.07,3.209-11.163a8.133,8.133,0,0,1-1.786-3.335l-1.457-3.815a.814.814,0,0,1-1.318-.24,13.228,13.228,0,0,1-1.163-3.367c-.387-1.463-1.271-3.735-1.371-4.733s-.115-2.521.6-2.638a3.094,3.094,0,0,1,1.255.04s-.576-14.076,1.682-17.354,5.681-8.16,15.467-8.2,16.13,5.723,16.634,13.275.394,12.282.394,12.282.757-.538,1.258-.043.985,1.074.588,2.728-1.221,3.952-1.47,4.645-.625,3.225-1.193,3.472a2.856,2.856,0,0,1-1.306.14c-.23.579-.932,2.355-1.425,3.809a10.483,10.483,0,0,1-1.782,3.358l-.034.842c-.06,2.092-.725,8.374,3.209,10.3s11.219,4.35,15.825,6.363,8.1,2.614,11.468,4.939a19.579,19.579,0,0,1,8.36,14.9c.006.139.01.279.011.419,0,0,0,6.45-.418,13.06s1.172,18.418,1.088,23.441-.914,9.878,0,13.395,2.507,9.375,2.424,13.65.5,21.858.5,21.858.06,7.229,3.533,10.607c1.513,1.473,3,1.8,4.575,4.659,1.891,3.445,2.22,5.424,2.92,6.65" transform="translate(-1161.108 -181.466)" fill="#d0e1b6"/>
        <path id="Path_878" data-name="Path 878" d="M1293.921,307.324c.3,0-4.37-1.8-12.788-4.022-10.05-2.65-11.705-5.372-13.221-5.14-3.932.6-8.2,3.459-15.037,5.15-5.081,1.257-10.04,2.064-14.27,4.516-2.781,1.611-2.781,1.611-4.3,3.518-.871,1.094-.006-.745-.625.825.968,2.953.549,11.925.949,16.964.035.433.068.856.1,1.275.331,4.125.62,7.618.836,10.2.262,3.121.421,4.922.421,4.922s.892,4.65,1.565,9.517l.059-.031c.168,1.247.323,2.5.44,3.675.583,5.915.913,5.2.547,8.866-.006.052-.135,5.689-.146,5.74-.211.91.1-2.078,6.616-4.48,6.092-2.246,18.264-3.887,22.072-3.887a100.691,100.691,0,0,1,11.862,1.225c7.495,1,13.429,2.841,16.941,8.3a135.909,135.909,0,0,1,.059-15.768c.117-1.189.266-2.467.424-3.75.019.01.038.018.057.029.53-4.2,1.175-8.358,1.363-9.549.118-1.06.281-2.735.472-4.816.256-2.818.561-6.384.865-10.2.086-1.079-.087-3.367,0-4.475.266-3.475,1.319-14.3,1.319-14.3-.344-.706-4.125-3.328-6.586-4.3" transform="translate(-1186.171 -232.024)" fill="#a5d7dc"/>
        <path id="Path_879" data-name="Path 879" d="M1242.842,563.75c.368.889,1.4-11.294,2.475-21.156.5-4.65,1.222-8.951,1.093-13.906a84.281,84.281,0,0,0-2.911-18.543c-2.716-10.316-6.056-21.325-6.056-29.887,0-9.492,3.668-18.616,5.216-25.942,1.267-5.99,7.35-12,11.894-13.166a86.042,86.042,0,0,1,11.1-2.117c6.082-.314,16.95,3.15,19.543,7.9,3.194,5.85,5.608,10.4,6.955,17.17.836,4.2,2.634,12.4,2.227,17-.935,10.575-6.511,30.76-6.547,31.451,0,.008-2.539,11.909-2.42,17.284.15,6.879,1.179,13.05,1.986,19.409.908,7.156,1.6,14.1,1.63,14.017.49-1.754,1.629-11.467.353-28.043-1.181-15.352,5.89-32.56,6.481-34.6.894-3.156,1.719-6.338,2.3-9.466l.022-.126c.142-.773.281-1.589.416-2.436.483-3.259.883-7.043,1.255-10.807.4-4.04.671-8.143.729-11.787-.031-2.434-.1-4.6-.2-6.51-.01-.1-.016-.2-.026-.288-.234-2.216-.968-8.655-1.759-13.824-.7-4.607-3.7-19.535-3.812-19.855-.727-.6-1.474-3.718-7.52-6.142-4.844-1.943-16.133-3.387-21.283-3.387a88.87,88.87,0,0,0-22.071,3.887c-4.694,1.624-5.693,3.911-6.616,4.481-.434,1.994-5.109,26.845-5.946,34.8a80.27,80.27,0,0,0-.235,11.864c.366,6.985,1.425,14.441,2.294,20.013,1.153,7.377,5.812,21.432,5.833,21.328,0,0,3.1,10.95,3.241,17.044s-1.265,30.412.359,34.332" transform="translate(-1185.008 -283.091)" fill="#c1bde0"/>
        <path id="Path_880" data-name="Path 880" d="M1266.134,727.052s-1.457,11.063-2.087,12.487-3.229,9.631-3.3,11.131-.068,13.938-.068,13.938-.371,1.791.238,2.192a3.864,3.864,0,0,0,1.8.364l.575-1.085.45,2.209,1.267.323.907-.832.254-.953.2,1.9,1.005.621h1.05l.91-.9.316-1.787v2.009l.833,1.256h1.243s-.568-3.926-1.032-5.5-4.431-11.68-4.242-16.875-.3-20.5-.3-20.5" transform="translate(-1197.82 -417.872)" fill="#c1bde0"/>
        <path id="Path_881" data-name="Path 881" d="M1310.213,724.405s-.563,20.108-.45,21.473a33.458,33.458,0,0,1-3.551,15.426,27.3,27.3,0,0,0-1.323,5.534c-.1.809-.217,1.939-.217,1.939s1.867-.179,2.025-.718a13.03,13.03,0,0,0,0-2.484l.682,2.092,1.189.607,1.564-.7.257-2,.481,1.566.652.327,1.232-.327.629-1.283v-.965l.446,1.157,1.046.033.975-.949v-3.474s.4-10.1-.131-12.8-2.687-9.075-2.687-9.075l-.566-1.322Z" transform="translate(-1216.933 -416.724)" fill="#c1bde0"/>
        <path id="Path_882" data-name="Path 882" d="M1278.395,763.555s-1.541,6.932-1.515,7.486.659,4.109.659,4.109V778.8l.539,1.95.54,3.477.163,1.517,1.04-.32a4.25,4.25,0,0,0,.778-1.858c.029-.836-.07-4.379-.052-5.227a13.347,13.347,0,0,0-.136-3.38c-.271-.894-1.689-4.03-1.793-5.5s-.225-5.906-.225-5.906" transform="translate(-1204.888 -433.688)" fill="#c1bde0"/>
        <path id="Path_883" data-name="Path 883" d="M1303.743,763.555s1.541,6.932,1.515,7.486-.659,4.109-.659,4.109V778.8l-.539,1.95-.54,3.477-.163,1.517-1.04-.32a4.248,4.248,0,0,1-.778-1.858c-.029-.836.071-4.379.052-5.228a13.347,13.347,0,0,1,.136-3.38c.271-.894,1.689-4.03,1.793-5.5s.225-5.906.225-5.906" transform="translate(-1215.571 -433.688)" fill="#c1bde0"/>
        <path id="Path_884" data-name="Path 884" d="M1278.833,640.771s-2.475-7.964-2-13.753,2.785-29.164,2.619-30.734-.544-9.989-.5-12.477,1.493-45.743,1.763-49.8,1.312-19.654,2.8-22.1,1.969-3.079,1.969-3.079-1.064,19.584-1.243,22.135-.532,10.767-.532,10.767-1.708,10.909-1.774,11.05-.917,21.251-.917,21.251-.286,10.683.112,13.034,1.046,9.8.975,10.908-2.375,15.161-2.652,16.789-1.765,13.459-1.339,14.45a43.444,43.444,0,0,1,1.4,6.732c-.006.7-.675,4.825-.675,4.825" transform="translate(-1204.841 -323.314)" fill="#c1bde0"/>
        <path id="Path_885" data-name="Path 885" d="M1299.534,640.713s2.475-7.964,2-13.753-2.785-29.164-2.619-30.734.544-9.989.5-12.477-1.493-45.743-1.763-49.8-1.311-19.654-2.8-22.1-1.969-3.079-1.969-3.079,1.064,19.584,1.243,22.135.532,10.767.532,10.767,1.708,10.909,1.774,11.05.917,21.251.917,21.251.286,10.683-.112,13.034-1.046,9.8-.975,10.908,2.375,15.161,2.652,16.789,1.765,13.459,1.34,14.451a43.439,43.439,0,0,0-1.4,6.732c.006.7.675,4.825.675,4.825" transform="translate(-1211.824 -323.289)" fill="#c1bde0"/>
        <path id="Path_886" data-name="Path 886" d="M1252.894,647.271s-.578.8-1.214.461a1.358,1.358,0,0,1-.923-1.336c-.011-.7-.144-2.422-.247-3.356a7.068,7.068,0,0,1,.075-2.738c.258-1.192,1.2-7.48,1.372-9.346s.883-8.579,1.814-10.756-.051-2.068-.051-2.068-.225-.225-.225-1.255a38.739,38.739,0,0,0,.156-4.7c-.183-1.241-5.46-27.986-5.489-29.395s1.249-16.425,1.816-19.449,1.669-16.443,1.565-18.04-3-19.786-4.217-22.786-5.992-21.167-3.984-31.725c0,0,3.519-22.846,9.53-27.989,0,0,3.65-4.862,17.318-6.465,8.349-.979,0-.279,0-.279s12.789.809,18.935,6.65c1.8,1.706,8.156,11.1,10.343,34.522.245,2.611-1.575,17.378-5.948,29.841,0,0-3.214,17.855-2.837,21.256s2.1,23.16,2.658,24.992a22.223,22.223,0,0,1,.546,5.516c.008.944.246,3.494.246,3.494s-5.014,25.7-5.8,30.235c-.486,2.807.2,3.2.208,3.577s-.457,2.932-.457,2.932a3.892,3.892,0,0,0,.206,1.237,56.2,56.2,0,0,1,1.338,6.2c.15,1.425.75,7.67.821,8.25s.961,5.325,1.04,5.755a13.656,13.656,0,0,1,.21,3.34c-.194.463-1.093.913-.761,1.425s.2,2.509-.593,2.457-1.563-1.469-1.563-1.469v-1.511s.745-11.819,0-13.8-3.106-8.872-3.106-8.872l-2.25-14.065-.515,14.159s.2,9.276,0,10.611-1.863,9.7-3.743,12.659a26.756,26.756,0,0,1,.257-5.175,12.112,12.112,0,0,0,.207-4.119c-.094-1.133-1.529-5.951-1.529-5.951s-.45-9.906-.217-11.564a20.064,20.064,0,0,1,.8-3.737c.472-1.606.929-6.044,1.22-7.461s-2.259-30.979-2.448-31.735.283-23.707.094-24.462-.756-24.745-.756-24.745l-1.23-21.345s-.565-10.484-1.131-12-2.453-7.64-3.446-7.55a24.912,24.912,0,0,0-2.366,4.316,51.715,51.715,0,0,0-2.314,15.23c-.118,6.728-1.562,25.5-1.562,25.5l-.5,25.421.36,15.947s-1.627,20.948-1.824,23.884-1.64,13.663,0,16.823a12.122,12.122,0,0,1,1.35,6.139l-.5,11.333s-1.473,5.479-1.575,5.951a45.243,45.243,0,0,0,.531,4.57l.188,4.721s-3.127-6.742-3.107-7.591-1.379-11.635-1.057-18.427a88.029,88.029,0,0,0-.056-10.95l-2.078,12.184a6.559,6.559,0,0,1-1.066,2.925c-1.012,1.606-2.335,8.217-2.335,8.217l-.2,12.844" transform="translate(-1190.146 -300.339)" fill="#f0c9d6"/>
        <text id="C" transform="translate(77.949 52.287)" fill="#161615" font-size="3" font-family="ArialMT, Arial"><tspan x="0" y="0">C</tspan></text>
        <text id="_5" data-name="5" transform="translate(81.974 52.287)" fill="#161615" font-size="3" font-family="ArialMT, Arial"><tspan x="0" y="0">5</tspan></text>
        <text id="S2" transform="translate(63.677 341.014)" fill="#161615" font-size="3" font-family="ArialMT, Arial"><tspan x="0" y="0">S2</tspan></text>
        <text id="S2-2" data-name="S2" transform="translate(92.388 340.166)" fill="#161615" font-size="3" font-family="ArialMT, Arial"><tspan x="0" y="0">S2</tspan></text>
        <text id="L5" transform="translate(108.441 186.142)" fill="#161615" font-size="3" font-family="ArialMT, Arial"><tspan x="0" y="0">L5</tspan></text>
        <text id="L5-2" data-name="L5" transform="translate(47.261 186.142)" fill="#161615" font-size="3" font-family="ArialMT, Arial"><tspan x="0" y="0">L5</tspan></text>
        <text id="L3" transform="translate(58.781 152.715) rotate(-30.189)" fill="#161615" font-size="3" font-family="ArialMT, Arial"><tspan x="0" y="0">L3</tspan></text>
        <text id="L4" transform="translate(59.284 158.269) rotate(-32.88)" fill="#161615" font-size="3" font-family="ArialMT, Arial"><tspan x="0" y="0">L4</tspan></text>
        <text id="S1" transform="translate(58.581 190.951)" fill="#161615" font-size="3" font-family="ArialMT, Arial"><tspan x="0" y="0">S1</tspan></text>
        <text id="S1-2" data-name="S1" transform="translate(99.011 190.951)" fill="#161615" font-size="3" font-family="ArialMT, Arial"><tspan x="0" y="0">S1</tspan></text>
        <text id="S5" transform="translate(133.267 212.563)" fill="#161615" font-size="3" font-family="ArialMT, Arial"><tspan x="0" y="0">S5</tspan></text>
        <text id="S2-3" data-name="S2" transform="translate(86.168 193.784)" fill="#161615" font-size="3" font-family="ArialMT, Arial"><tspan x="0" y="0">S2</tspan></text>
        <text id="S3" transform="translate(78.112 170.93)" fill="#161615" font-size="3" font-family="ArialMT, Arial"><tspan x="0" y="0">S3</tspan></text>
        <text id="S4" transform="translate(77.944 176.525)" fill="#161615" font-size="3" font-family="ArialMT, Arial"><tspan x="0" y="0">S4</tspan></text>
        <text id="S2-4" data-name="S2" transform="translate(69.938 193.358)" fill="#161615" font-size="3" font-family="ArialMT, Arial"><tspan x="0" y="0">S2</tspan></text>
        <text id="C-2" data-name="C" transform="translate(35.306 54.854)" fill="#161615" font-size="3" font-family="ArialMT, Arial"><tspan x="0" y="0">C</tspan></text>
        <text id="_6" data-name="6" transform="translate(39.005 54.854)" fill="#161615" font-size="3" font-family="ArialMT, Arial"><tspan x="0" y="0">6</tspan></text>
        <text id="C-3" data-name="C" transform="translate(0.565 181.312)" fill="#161615" font-size="3" font-family="ArialMT, Arial"><tspan x="0" y="0">C</tspan></text>
        <text id="_6-2" data-name="6" transform="translate(5.398 181.312)" fill="#161615" font-size="3" font-family="ArialMT, Arial"><tspan x="0" y="0">6</tspan></text>
        <text id="C-4" data-name="C" transform="translate(17.28 80.488)" fill="#161615" font-size="3" font-family="ArialMT, Arial"><tspan x="0" y="0">C</tspan></text>
        <text id="_6-3" data-name="6" transform="translate(21.342 80.488)" fill="#161615" font-size="3" font-family="ArialMT, Arial"><tspan x="0" y="0">6</tspan></text>
        <text id="C-5" data-name="C" transform="translate(137.595 80.488)" fill="#161615" font-size="3" font-family="ArialMT, Arial"><tspan x="0" y="0">C</tspan></text>
        <text id="_6-4" data-name="6" transform="translate(141.658 80.488)" fill="#161615" font-size="3" font-family="ArialMT, Arial"><tspan x="0" y="0">6</tspan></text>
        <line id="Line_132" data-name="Line 132" x1="14.465" transform="translate(17.348 81.589)" fill="none" stroke="#161615" stroke-miterlimit="10" stroke-width="0.335"/>
        <path id="Path_887" data-name="Path 887" d="M1205.372,324.179a.714.714,0,1,1-.714.714.714.714,0,0,1,.714-.714" transform="translate(-1173.594 -243.303)" fill="#161615"/>
        <line id="Line_133" data-name="Line 133" x1="47.113" transform="translate(35.315 56.686)" fill="none" stroke="#161615" stroke-miterlimit="10" stroke-width="0.335"/>
        <path id="Path_888" data-name="Path 888" d="M1294.692,280.232a.714.714,0,1,1-.714.714.714.714,0,0,1,.714-.714" transform="translate(-1212.297 -224.26)" fill="#161615"/>
        <line id="Line_134" data-name="Line 134" x2="6.029" transform="translate(0 182.161)" fill="none" stroke="#161615" stroke-miterlimit="10" stroke-width="0.335"/>
        <text id="C-6" data-name="C" transform="translate(0.787 194.604)" fill="#161615" font-size="3" font-family="ArialMT, Arial"><tspan x="0" y="0">C</tspan></text>
        <text id="_7" data-name="7" transform="translate(5.62 194.604)" fill="#161615" font-size="3" font-family="ArialMT, Arial"><tspan x="0" y="0">7</tspan></text>
        <text id="C-7" data-name="C" transform="translate(18.838 95.442)" fill="#161615" font-size="3" font-family="ArialMT, Arial"><tspan x="0" y="0">C</tspan></text>
        <text id="_7-2" data-name="7" transform="translate(22.537 95.442)" fill="#161615" font-size="3" font-family="ArialMT, Arial"><tspan x="0" y="0">7</tspan></text>
        <text id="C-8" data-name="C" transform="translate(136.656 95.442)" fill="#161615" font-size="3" font-family="ArialMT, Arial"><tspan x="0" y="0">C</tspan></text>
        <text id="_7-3" data-name="7" transform="translate(140.355 95.442)" fill="#161615" font-size="3" font-family="ArialMT, Arial"><tspan x="0" y="0">7</tspan></text>
        <line id="Line_135" data-name="Line 135" x1="18.089" transform="translate(18.838 96.544)" fill="none" stroke="#161615" stroke-miterlimit="10" stroke-width="0.335"/>
        <path id="Path_889" data-name="Path 889" d="M1214.392,350.567a.714.714,0,1,1-.714.714.714.714,0,0,1,.714-.714" transform="translate(-1177.503 -254.737)" fill="#161615"/>
        <path id="Path_890" data-name="Path 890" d="M1177.388,516.857l-7.012,5.874h-9.256" transform="translate(-1154.729 -326.792)" fill="none" stroke="#161615" stroke-miterlimit="10" stroke-width="0.335"/>
        <path id="Path_891" data-name="Path 891" d="M1188.775,515.8a.714.714,0,1,1-.089,1.005.714.714,0,0,1,.089-1.005" transform="translate(-1166.6 -326.264)" fill="#161615"/>
        <line id="Line_136" data-name="Line 136" x2="14.429" transform="translate(0 195.939)" fill="none" stroke="#161615" stroke-miterlimit="10" stroke-width="0.335"/>
        <text id="C-9" data-name="C" transform="translate(147.528 194.603)" fill="#161615" font-size="3" font-family="ArialMT, Arial"><tspan x="0" y="0">C</tspan></text>
        <text id="_7-4" data-name="7" transform="translate(152.361 194.603)" fill="#161615" font-size="3" font-family="ArialMT, Arial"><tspan x="0" y="0">7</tspan></text>
        <path id="Path_892" data-name="Path 892" d="M1395.04,516.857l7.012,5.874h9.256" transform="translate(-1256.088 -326.792)" fill="none" stroke="#161615" stroke-miterlimit="10" stroke-width="0.335"/>
        <path id="Path_893" data-name="Path 893" d="M1394.085,516.9a.714.714,0,1,1,1-.089.714.714,0,0,1-1,.089" transform="translate(-1255.563 -326.263)" fill="#161615"/>
        <line id="Line_137" data-name="Line 137" x1="14.465" transform="translate(6.029 182.161)" fill="none" stroke="#161615" stroke-miterlimit="10" stroke-width="0.335"/>
        <path id="Path_894" data-name="Path 894" d="M1185.4,501.65a.714.714,0,1,1-.714.714.714.714,0,0,1,.714-.714" transform="translate(-1164.941 -320.203)" fill="#161615"/>
        <text id="C-10" data-name="C" transform="translate(38.448 172.204)" fill="#161615" font-size="3" font-family="ArialMT, Arial"><tspan x="0" y="0">C</tspan></text>
        <text id="_8" data-name="8" transform="translate(42.274 172.204)" fill="#161615" font-size="3" font-family="ArialMT, Arial"><tspan x="0" y="0">8</tspan></text>
        <line id="Line_138" data-name="Line 138" x2="10.241" transform="translate(34.67 173.543)" fill="none" stroke="#161615" stroke-miterlimit="10" stroke-width="0.335"/>
        <g id="Group_206" data-name="Group 206" transform="translate(33.994 172.828)">
          <path id="Path_895" data-name="Path 895" d="M1210.542,487.87a.714.714,0,1,1,.714-.714.714.714,0,0,1-.714.714" transform="translate(-1209.828 -486.442)" fill="#161615"/>
        </g>
        <text id="C-11" data-name="C" transform="translate(19.275 107.895)" fill="#161615" font-size="3" font-family="ArialMT, Arial"><tspan x="0" y="0">C</tspan></text>
        <text id="_8-2" data-name="8" transform="translate(23.102 107.895)" fill="#161615" font-size="3" font-family="ArialMT, Arial"><tspan x="0" y="0">8</tspan></text>
        <text id="C-12" data-name="C" transform="translate(136.244 107.895)" fill="#161615" font-size="3" font-family="ArialMT, Arial"><tspan x="0" y="0">C</tspan></text>
        <text id="_8-3" data-name="8" transform="translate(140.071 107.895)" fill="#161615" font-size="3" font-family="ArialMT, Arial"><tspan x="0" y="0">8</tspan></text>
        <line id="Line_139" data-name="Line 139" x1="25.755" transform="translate(19.275 109.234)" fill="none" stroke="#161615" stroke-miterlimit="10" stroke-width="0.335"/>
        <path id="Path_896" data-name="Path 896" d="M1228.692,372.962a.714.714,0,1,1-.714.714.714.714,0,0,1,.714-.714" transform="translate(-1183.7 -264.442)" fill="#161615"/>
        <line id="Line_140" data-name="Line 140" x2="14.465" transform="translate(130.076 81.589)" fill="none" stroke="#161615" stroke-miterlimit="10" stroke-width="0.335"/>
        <path id="Path_897" data-name="Path 897" d="M1378.892,325.606a.714.714,0,1,1,.714-.714.714.714,0,0,1-.714.714" transform="translate(-1248.783 -243.303)" fill="#161615"/>
        <line id="Line_141" data-name="Line 141" x2="18.089" transform="translate(124.963 96.544)" fill="none" stroke="#161615" stroke-miterlimit="10" stroke-width="0.335"/>
        <path id="Path_898" data-name="Path 898" d="M1369.872,352a.714.714,0,1,1,.714-.714.714.714,0,0,1-.714.714" transform="translate(-1244.873 -254.737)" fill="#161615"/>
        <line id="Line_142" data-name="Line 142" x2="25.755" transform="translate(116.859 109.234)" fill="none" stroke="#161615" stroke-miterlimit="10" stroke-width="0.335"/>
        <path id="Path_899" data-name="Path 899" d="M1355.572,374.389a.714.714,0,1,1,.714-.714.714.714,0,0,1-.714.714" transform="translate(-1238.677 -264.441)" fill="#161615"/>
        <text id="C-13" data-name="C" transform="translate(116.825 172.204)" fill="#161615" font-size="3" font-family="ArialMT, Arial"><tspan x="0" y="0">C</tspan></text>
        <text id="_8-4" data-name="8" transform="translate(120.652 172.204)" fill="#161615" font-size="3" font-family="ArialMT, Arial"><tspan x="0" y="0">8</tspan></text>
        <text id="C-14" data-name="C" transform="translate(146.674 181.312)" fill="#161615" font-size="3" font-family="ArialMT, Arial"><tspan x="0" y="0">C</tspan></text>
        <text id="_6-5" data-name="6" transform="translate(151.507 181.312)" fill="#161615" font-size="3" font-family="ArialMT, Arial"><tspan x="0" y="0">6</tspan></text>
        <line id="Line_143" data-name="Line 143" x2="14.465" transform="translate(141.065 182.161)" fill="none" stroke="#161615" stroke-miterlimit="10" stroke-width="0.335"/>
        <path id="Path_900" data-name="Path 900" d="M1398.292,503.077a.714.714,0,1,1,.714-.714.714.714,0,0,1-.714.714" transform="translate(-1257.187 -320.202)" fill="#161615"/>
        <line id="Line_144" data-name="Line 144" x1="9.689" transform="translate(117.222 173.543)" fill="none" stroke="#161615" stroke-miterlimit="10" stroke-width="0.335"/>
        <path id="Path_901" data-name="Path 901" d="M1373.182,486.443a.714.714,0,1,1-.714.714.714.714,0,0,1,.714-.714" transform="translate(-1246.308 -313.614)" fill="#161615"/>
        <path id="Path_902" data-name="Path 902" d="M1295.46,499.933l45.308,33.41h11.872" transform="translate(-1212.939 -319.459)" fill="none" stroke="#161615" stroke-miterlimit="10" stroke-width="0.335"/>
        <path id="Path_903" data-name="Path 903" d="M1294.543,500a.713.713,0,1,1,.53.132.714.714,0,0,1-.53-.132" transform="translate(-1212.415 -318.929)" fill="#161615"/>
        <path id="Path_904" data-name="Path 904" d="M1256.6,530.071l-30.513,19.062h-10.174" transform="translate(-1178.47 -332.518)" fill="none" stroke="#161615" stroke-miterlimit="10" stroke-width="0.335"/>
        <path id="Path_905" data-name="Path 905" d="M1286.729,528.953a.714.714,0,1,1-.225.984.714.714,0,0,1,.225-.984" transform="translate(-1209.011 -331.986)" fill="#161615"/>
        <text id="S1-3" data-name="S1" transform="translate(107.02 340.559)" fill="#161615" font-size="3" font-family="ArialMT, Arial"><tspan x="0" y="0">S1</tspan></text>
        <text id="S1-4" data-name="S1" transform="translate(50.672 340.559)" fill="#161615" font-size="3" font-family="ArialMT, Arial"><tspan x="0" y="0">S1</tspan></text>
        <line id="Line_145" data-name="Line 145" x2="11.397" transform="translate(100.289 341.711)" fill="none" stroke="#161615" stroke-miterlimit="10" stroke-width="0.335"/>
        <g id="Group_207" data-name="Group 207" transform="translate(50.672 340.996)">
          <path id="Path_906" data-name="Path 906" d="M1326.332,784.624a.714.714,0,1,1,.714-.714.714.714,0,0,1-.714.714" transform="translate(-1276.68 -783.196)" fill="#161615"/>
          <line id="Line_146" data-name="Line 146" x1="10.924" transform="translate(0 0.715)" fill="none" stroke="#161615" stroke-miterlimit="10" stroke-width="0.335"/>
          <path id="Path_907" data-name="Path 907" d="M1257.932,783.2a.714.714,0,1,1-.714.714.714.714,0,0,1,.714-.714" transform="translate(-1247.041 -783.197)" fill="#161615"/>
        </g>
        <text id="L2" transform="matrix(0.893, -0.45, 0.45, 0.893, 59.027, 146.982)" fill="#161615" font-size="3" font-family="ArialMT, Arial"><tspan x="0" y="0">L2</tspan></text>
        <text id="L1" transform="matrix(0.905, -0.425, 0.425, 0.905, 58.918, 140.671)" fill="#161615" font-size="3" font-family="ArialMT, Arial"><tspan x="0" y="0">L1</tspan></text>
        <text id="L5-3" data-name="L5" transform="translate(78.649 342.161)" fill="#161615" font-size="3" font-family="ArialMT, Arial"><tspan x="0" y="0">L5</tspan></text>
        <line id="Line_147" data-name="Line 147" x1="6.439" transform="translate(80.992 343.825)" fill="none" stroke="#161615" stroke-miterlimit="10" stroke-width="0.335"/>
        <g id="Group_208" data-name="Group 208" transform="translate(73.327 343.11)">
          <path id="Path_908" data-name="Path 908" d="M1303.512,786.927a.714.714,0,1,1-.714.714.714.714,0,0,1,.714-.714" transform="translate(-1289.448 -786.926)" fill="#161615"/>
          <line id="Line_148" data-name="Line 148" x2="6.986" transform="translate(0.678 0.715)" fill="none" stroke="#161615" stroke-miterlimit="10" stroke-width="0.335"/>
          <path id="Path_909" data-name="Path 909" d="M1279.952,788.354a.714.714,0,1,1,.714-.714.714.714,0,0,1-.714.714" transform="translate(-1279.238 -786.926)" fill="#161615"/>
        </g>
        <text id="L4-2" data-name="L4" transform="translate(78.7 308.301)" fill="#161615" font-size="3" font-family="ArialMT, Arial"><tspan x="0" y="0">L4</tspan></text>
        <line id="Line_149" data-name="Line 149" x2="14.08" transform="translate(73.538 310.314)" fill="none" stroke="#161615" stroke-miterlimit="10" stroke-width="0.335"/>
        <g id="Group_209" data-name="Group 209" transform="translate(72.856 309.602)">
          <path id="Path_910" data-name="Path 910" d="M1279.122,729.224a.714.714,0,1,1,.714-.714.714.714,0,0,1-.714.714" transform="translate(-1278.408 -727.796)" fill="#161615"/>
        </g>
        <text id="L3-2" data-name="L3" transform="translate(78.484 266.557)" fill="#161615" font-size="3" font-family="ArialMT, Arial"><tspan x="0" y="0">L3</tspan></text>
        <line id="Line_150" data-name="Line 150" x2="10.045" transform="translate(75.805 268.665)" fill="none" stroke="#161615" stroke-miterlimit="10" stroke-width="0.335"/>
        <g id="Group_210" data-name="Group 210" transform="translate(75.123 267.95)">
          <path id="Path_911" data-name="Path 911" d="M1283.122,655.724a.714.714,0,1,1,.714-.714.714.714,0,0,1-.714.714" transform="translate(-1282.408 -654.296)" fill="#161615"/>
          <path id="Path_912" data-name="Path 912" d="M1300.722,655.724a.714.714,0,1,0-.714-.714.714.714,0,0,0,.714.714" transform="translate(-1290.034 -654.296)" fill="#161615"/>
        </g>
        <text id="L2-2" data-name="L2" transform="translate(78.484 225.636)" fill="#161615" font-size="3" font-family="ArialMT, Arial"><tspan x="0" y="0">L2</tspan></text>
        <text id="L2-3" data-name="L2" transform="translate(117.224 222.703)" fill="#161615" font-size="3" font-family="ArialMT, Arial"><tspan x="0" y="0">L2</tspan></text>
        <text id="L1-2" data-name="L1" transform="translate(38.272 214.538)" fill="#161615" font-size="3" font-family="ArialMT, Arial"><tspan x="0" y="0">L1</tspan></text>
        <text id="L1-3" data-name="L1" transform="translate(118.742 214.538)" fill="#161615" font-size="3" font-family="ArialMT, Arial"><tspan x="0" y="0">L1</tspan></text>
        <path id="Path_913" data-name="Path 913" d="M1293.846,578.984l-1.682,2.4h-5.11l-1.681-2.4" transform="translate(-1208.568 -353.713)" fill="none" stroke="#161615" stroke-miterlimit="10" stroke-width="0.335"/>
        <path id="Path_914" data-name="Path 914" d="M1299.157,578.08a.714.714,0,1,1,.176.994.714.714,0,0,1-.176-.994" transform="translate(-1214.486 -353.188)" fill="#161615"/>
        <path id="Path_915" data-name="Path 915" d="M1285.447,578.08a.714.714,0,1,0-.176.994.714.714,0,0,0,.176-.994" transform="translate(-1208.038 -353.188)" fill="#161615"/>
        <path id="Path_916" data-name="Path 916" d="M1297.16,530.071l30.513,19.062h10.174" transform="translate(-1213.677 -332.518)" fill="none" stroke="#161615" stroke-miterlimit="10" stroke-width="0.335"/>
        <path id="Path_917" data-name="Path 917" d="M1296.289,530.16a.714.714,0,1,1,.984-.225.714.714,0,0,1-.984.225" transform="translate(-1213.154 -331.986)" fill="#161615"/>
        <line id="Line_151" data-name="Line 151" x1="7.618" transform="translate(80.455 310.314)" fill="none" stroke="#161615" stroke-miterlimit="10" stroke-width="0.335"/>
        <path id="Path_918" data-name="Path 918" d="M1304.652,727.793a.714.714,0,1,1-.714.714.714.714,0,0,1,.714-.714" transform="translate(-1216.613 -418.193)" fill="#161615"/>
        <line id="Line_152" data-name="Line 152" x1="2.02" y2="1.493" transform="translate(73.438 286.052)" fill="none" stroke="#161615" stroke-linecap="round" stroke-miterlimit="10" stroke-width="0.591"/>
        <line id="Line_153" data-name="Line 153" x2="2.323" y2="1.656" transform="translate(86.043 285.391)" fill="none" stroke="#161615" stroke-linecap="round" stroke-miterlimit="10" stroke-width="0.591"/>
        <path id="Path_919" data-name="Path 919" d="M1235.011,478.076c1.005-6.949,2.93-16.325,3.349-21.013s-1.425-13.981-1.172-19.841.921-18.5.837-23.106,2.26-12.056,2.344-18.67.265-8.824.651-15.811c.365-6.647.772-12.654.772-12.654s.308-.6.52,0c0,0,.574,7.95.895,13.22.416,6.825.443,8.487.529,15.244.084,6.613,2.428,14.066,2.344,18.67s.586,17.246.838,23.106-1.591,15.15-1.172,19.841,3.352,21.127,3.352,21.127c1.005,6.949.314,10.708.12,11.509a22.412,22.412,0,0,0-.95,3.53c-.251,2.862.552,4.62.628,5.693s-.292,3.571,0,7.27.629,10.916,0,12.591-1.884,3.767-1.717,5.86-.119,5.8,0,6.7c.168,1.255.5,2.092,1.717,2.175s2.175-.41,2.175-1.256V530.25s-.125,2.763,1.717,2.763c.636,0,1.435-.344,1.564-.7a5.773,5.773,0,0,0,.2-1.9,3,3,0,0,0,.543,1.462c.418.59,1.588.278,1.884,0,.585-.548.421-1.875.45-2.209s.052,1.241,1.06,1.241a1.517,1.517,0,0,0,1.591-1.038,7.746,7.746,0,0,0-.042-1.675s.433.991,1.326.656c.462-.174.884-.244.922-1.336.041-1.162-.179-1.58.238-2.083.333-.4.525-1.884-.416-5.568s-1.19-12.825-2.111-16.26-1.18-2.344-.675-4.354.079-2.428,0-4.94,3.256-15.237,5.014-25.95a159.811,159.811,0,0,0,1.172-32.4c-.587-5.945.083-11.469,1.674-19.425s5.442-17.414,7.117-26.455,3.181-24.028,2.344-31.981a224.252,224.252,0,0,0-4.35-27.962,55.429,55.429,0,0,1-1.255-21.516c.586-5.944,1.9-14.1,1.9-14.1a16.5,16.5,0,0,1,1.618,6.735,58.618,58.618,0,0,0,1.255,10.632c.754,4.437,1.005,10.3,2.595,17.246s6.027,18.335,7.367,21.85c0,0,2.23,5.719,1.522,8.872a11.77,11.77,0,0,0-.554,2.6,37.732,37.732,0,0,0,.472,9.394c.331,1.369.213,2.059-.125,5.962-.315,3.637-1.538,6.563.139,7.211,1.031.4,1.37-2.625,1.956-5.116.563-2.4,1.132-4.447,1.449-4.543.838-.248.284,3.77.135,6.646-.166,3.206-.375,5.825,1.039,5.85,1.125.018,1.587-.683,1.636-2.175.084-2.491.567-10.13,1.3-9.941s1.016,3.466,1.227,6.062.161,6.956,2.129,6.606c1.441-.257.988-3.332.916-6.09s-.52-7.469.15-7.787,1.567,3.358,2.263,5.594.841,4.843,2.361,4.5c1.076-.241.987-2.495.583-3.967s-.733-3.283-1.36-5.4a30.816,30.816,0,0,1-1.147-7.082c.057-1.355,1.392-.409,2.365,1.5s1.943,3.419,3.022,3.4,1.213-1.313.434-2.679c-.7-1.225-1.028-3.2-2.919-6.649-1.575-2.864-3.065-3.187-4.579-4.659-3.473-3.38-3.532-10.608-3.532-10.608s-.583-17.589-.5-21.859-1.507-10.13-2.424-13.65-.087-8.371,0-13.4-1.507-16.827-1.088-23.441.418-13.061.418-13.061c0-.139,0-.279-.011-.418a19.576,19.576,0,0,0-8.36-14.9c-3.37-2.325-6.864-2.93-11.468-4.94s-11.888-4.437-15.825-6.363-3.268-8.206-3.209-10.3l.034-.842a10.476,10.476,0,0,0,1.782-3.358c.6-1.763,1.506-4,1.506-4a4.336,4.336,0,0,0,.675.025c.675-.066.881-.467,1.183-1.2.4-.985.272-2.15.845-3.493,1.107-2.594,1.879-5.738.547-6.314a1.438,1.438,0,0,0-1.255.04s.886-13.67-2.348-18.628c-4.4-6.75-12.7-6.928-14.682-6.928s-10.4.176-14.8,6.929c-3.233,4.958-2.347,18.629-2.347,18.629a1.439,1.439,0,0,0-1.256-.041c-1.332.576-.558,3.72.548,6.314.571,1.342.439,2.508.845,3.492.3.729.509,1.13,1.18,1.2a4.278,4.278,0,0,0,.679-.025,41.081,41.081,0,0,1,1.506,4,8.175,8.175,0,0,0,1.786,3.335c.059,2.092.725,9.238-3.21,11.163s-11.888,4.35-16.492,6.363-8.037,2.706-11.47,4.939a19.311,19.311,0,0,0-8.359,14.9q-.008.209-.012.419s0,6.45.418,13.061-1.171,18.418-1.089,23.441.915,9.879,0,13.395-2.508,9.375-2.424,13.65-.251,16.911-.5,21.767c0,0-.055,7.228-3.53,10.607-1.513,1.473-3,1.8-4.575,4.659-1.892,3.445-2.221,5.423-2.92,6.649-.778,1.365-.646,2.665.434,2.679s2.048-1.488,3.023-3.4,2.31-2.858,2.366-1.5a30.95,30.95,0,0,1-1.147,7.083c-.628,2.119-.957,3.927-1.36,5.4s-.493,3.727.583,3.967c1.519.344,1.665-2.267,2.361-4.5s1.6-5.911,2.264-5.594.221,5.03.15,7.788-.525,5.832.916,6.088c1.969.351,1.921-4.008,2.13-6.6s.492-5.872,1.226-6.061,1.217,7.45,1.3,9.941c.049,1.495.509,2.2,1.636,2.179,1.415-.022,1.2-2.642,1.039-5.85-.15-2.876-.7-6.895.134-6.647.319.095.938,2.132,1.45,4.541.45,2.106.874,5.368,1.956,5.118,1.75-.4.45-3.574.139-7.212-.337-3.9-.455-4.591-.124-5.962a37.735,37.735,0,0,0,.472-9.394,11.872,11.872,0,0,0-.554-2.6c-.708-3.15,1.522-8.78,1.522-8.78,1.34-3.516,5.775-14.9,7.367-21.85s1.842-12.809,2.6-17.246a58.635,58.635,0,0,0,1.255-10.632,14.512,14.512,0,0,1,1.451-6.289s1.479,7.711,2.065,13.655a55.446,55.446,0,0,1-1.255,21.516,224.226,224.226,0,0,0-4.35,27.962c-.838,7.95.67,22.939,2.344,31.981s5.526,18.5,7.117,26.455,2.26,13.479,1.674,19.425a159.869,159.869,0,0,0,1.172,32.4" transform="translate(-1161.15 -181.464)" fill="none" stroke="#161615" stroke-linecap="round" stroke-linejoin="round" stroke-width="0.591"/>
        <path id="Path_920" data-name="Path 920" d="M1307.05,744.4s.7-3.056,3.609-3.056c2.228,0,3.755,3.628,3.755,3.628" transform="translate(-1217.961 -424.062)" fill="none" stroke="#161615" stroke-linecap="round" stroke-linejoin="round" stroke-width="0.591"/>
        <path id="Path_921" data-name="Path 921" d="M1304.01,792.086a7.2,7.2,0,0,0,2.55,1.187c1.465.335,3.337-.128,5.482-1.05a9.187,9.187,0,0,0,3.238-2.072" transform="translate(-1216.645 -445.213)" fill="none" stroke="#161615" stroke-linecap="round" stroke-linejoin="round" stroke-width="0.591"/>
        <path id="Path_922" data-name="Path 922" d="M1268.521,697.449c-1,6.949-.382,10.821-.187,11.625a22.455,22.455,0,0,1,.95,3.53c.251,2.862-.553,4.62-.629,5.693s.293,3.571,0,7.27-.628,10.916,0,12.591,1.885,3.767,1.717,5.86.119,5.8,0,6.7c-.167,1.255-.5,2.092-1.717,2.175s-2.175-.41-2.175-1.256v-2.009s.126,2.763-1.716,2.763c-.636,0-1.434-.344-1.563-.7a5.737,5.737,0,0,1-.2-1.9,2.99,2.99,0,0,1-.544,1.462c-.418.59-1.587.278-1.883,0-.585-.548-.422-1.875-.45-2.209s-.052,1.241-1.06,1.241a1.516,1.516,0,0,1-1.591-1.038,7.746,7.746,0,0,1,.041-1.675s-.433.991-1.325.656c-.463-.174-.885-.244-.923-1.336-.041-1.162.047-1.327-.053-2.269-.15-1.4-.706-1.7.233-5.382s1.191-12.825,2.111-16.26,1.18-2.344.675-4.354-.08-2.428,0-4.94-3.194-15.237-4.95-25.95" transform="translate(-1194.666 -400.837)" fill="none" stroke="#161615" stroke-linecap="round" stroke-linejoin="round" stroke-width="0.591"/>
        <path id="Path_923" data-name="Path 923" d="M1272.405,744.4s-.7-3.056-3.609-3.056c-2.228,0-3.755,3.628-3.755,3.628" transform="translate(-1199.76 -424.062)" fill="none" stroke="#161615" stroke-linecap="round" stroke-linejoin="round" stroke-width="0.591"/>
        <path id="Path_924" data-name="Path 924" d="M1272.453,792.086a7.2,7.2,0,0,1-2.55,1.187c-1.465.335-3.338-.128-5.483-1.05a9.186,9.186,0,0,1-3.239-2.072" transform="translate(-1198.087 -445.213)" fill="none" stroke="#161615" stroke-linecap="round" stroke-linejoin="round" stroke-width="0.591"/>
        <path id="Path_925" data-name="Path 925" d="M1263.06,226.567s.18,2.5.75,5.767a34.392,34.392,0,0,0,1.249,5.17" transform="translate(-1198.901 -201.007)" fill="none" stroke="#161615" stroke-linecap="round" stroke-linejoin="round" stroke-width="0.591"/>
        <path id="Path_926" data-name="Path 926" d="M1323.717,231.66a5.591,5.591,0,0,0,.635-3.154.642.642,0,0,0-.914-.44" transform="translate(-1225.062 -201.628)" fill="none" stroke="#161615" stroke-linecap="round" stroke-linejoin="round" stroke-width="0.591"/>
        <path id="Path_927" data-name="Path 927" d="M1320.78,241.943s.063.18.509-.014c.4-.171.535-1.419.535-1.419" transform="translate(-1223.91 -207.049)" fill="none" stroke="#161615" stroke-linecap="round" stroke-linejoin="round" stroke-width="0.591"/>
        <path id="Path_928" data-name="Path 928" d="M1262.05,231.579a5.592,5.592,0,0,1-.634-3.154.642.642,0,0,1,.914-.44" transform="translate(-1198.17 -201.593)" fill="none" stroke="#161615" stroke-linecap="round" stroke-linejoin="round" stroke-width="0.591"/>
        <path id="Path_929" data-name="Path 929" d="M1264.922,241.86s-.063.18-.509-.014c-.4-.171-.536-1.419-.536-1.419" transform="translate(-1199.254 -207.013)" fill="none" stroke="#161615" stroke-linecap="round" stroke-linejoin="round" stroke-width="0.591"/>
        <path id="Path_930" data-name="Path 930" d="M1292.842,498.648a20.38,20.38,0,0,1-.145,3.936" transform="translate(-1211.741 -318.902)" fill="none" stroke="#161615" stroke-linecap="round" stroke-linejoin="round" stroke-width="0.591"/>
        <path id="Path_931" data-name="Path 931" d="M1254.67,341.059c3.1,4.251,8.958,5.516,11.379-.038,3.216-7.377,4.579-23.767,4.637-25.473s-1.533-3.3-4.965-1.958" transform="translate(-1195.265 -238.498)" fill="none" stroke="#161615" stroke-linecap="round" stroke-linejoin="round" stroke-width="0.591"/>
        <path id="Path_932" data-name="Path 932" d="M1319.3,341.059c-3.1,4.251-8.817,5.453-11.379-.038-3.365-7.212-4.8-23.521-4.637-25.473.143-1.7,1.533-3.3,4.965-1.958" transform="translate(-1216.323 -238.498)" fill="none" stroke="#161615" stroke-linecap="round" stroke-linejoin="round" stroke-width="0.591"/>
        <path id="Path_933" data-name="Path 933" d="M1216.485,415.008c-.949.685-2.406,1.334-3.264.956s-1.335-1.924-1.642-3.126" transform="translate(-1176.593 -281.72)" fill="none" stroke="#161615" stroke-linecap="round" stroke-linejoin="round" stroke-width="0.591"/>
        <path id="Path_934" data-name="Path 934" d="M1365.12,415.008c.95.685,2.406,1.334,3.263.956s1.335-1.924,1.642-3.126" transform="translate(-1243.124 -281.72)" fill="none" stroke="#161615" stroke-linecap="round" stroke-linejoin="round" stroke-width="0.591"/>
        <path id="Path_935" data-name="Path 935" d="M1321.8,226.13a59.221,59.221,0,0,1-.727,6.061,30.891,30.891,0,0,1-1.367,5.325" transform="translate(-1223.446 -200.818)" fill="none" stroke="#161615" stroke-linecap="round" stroke-linejoin="round" stroke-width="0.591"/>
        <path id="Path_936" data-name="Path 936" d="M1269.85,241.528s5.047-5.445,6.446-8.09,3.144-9.284,6.446-9.139" transform="translate(-1201.843 -200.023)" fill="none" stroke="#161615" stroke-linecap="round" stroke-linejoin="round" stroke-width="0.591"/>
        <path id="Path_937" data-name="Path 937" d="M1305.912,242.035s-5.466-5.952-6.865-8.6-3.147-9.284-6.447-9.139" transform="translate(-1211.701 -200.023)" fill="none" stroke="#161615" stroke-linecap="round" stroke-linejoin="round" stroke-width="0.591"/>
        <path id="Path_938" data-name="Path 938" d="M1272.52,257.245a33.782,33.782,0,0,0,5.6-3.625c1.861-1.824,4.607-4.882,6.263-4.474" transform="translate(-1203 -210.774)" fill="none" stroke="#161615" stroke-linecap="round" stroke-linejoin="round" stroke-width="0.591"/>
        <path id="Path_939" data-name="Path 939" d="M1305.307,257.245a33.787,33.787,0,0,1-5.6-3.625c-1.862-1.824-4.607-4.882-6.263-4.474" transform="translate(-1212.068 -210.774)" fill="none" stroke="#161615" stroke-linecap="round" stroke-linejoin="round" stroke-width="0.591"/>
        <path id="Path_940" data-name="Path 940" d="M1269.85,271.071s9-6.061,13.188-6.1" transform="translate(-1201.843 -217.646)" fill="none" stroke="#161615" stroke-linecap="round" stroke-linejoin="round" stroke-width="0.591"/>
        <path id="Path_941" data-name="Path 941" d="M1306.314,271.071s-9-6.061-13.188-6.1" transform="translate(-1211.927 -217.646)" fill="none" stroke="#161615" stroke-linecap="round" stroke-linejoin="round" stroke-width="0.591"/>
        <path id="Path_942" data-name="Path 942" d="M1241.21,282.84s4.655,1.558,18.633-3.474c3.3-1.187,7.021-3.43,10.783-3.628" transform="translate(-1189.433 -222.313)" fill="none" stroke="#161615" stroke-linecap="round" stroke-linejoin="round" stroke-width="0.591"/>
        <path id="Path_943" data-name="Path 943" d="M1322.535,282.84s-4.655,1.558-18.633-3.474c-3.3-1.187-7.021-3.43-10.783-3.628" transform="translate(-1211.926 -222.313)" fill="none" stroke="#161615" stroke-linecap="round" stroke-linejoin="round" stroke-width="0.591"/>
        <path id="Path_944" data-name="Path 944" d="M1187.08,412.844a80.556,80.556,0,0,0,4.919-11.55c1.275-4.531,6.41-38.9,6.534-42.329s1.541-29.405,1.116-33.278-.142-22.575,3.766-26.822c3.465-3.769,11.238-6.17,16.492-6.942,4.932-.725,21.542-6.642,26.969-7.156" transform="translate(-1165.977 -226.225)" fill="none" stroke="#161615" stroke-linecap="round" stroke-miterlimit="10" stroke-width="0.591"/>
        <path id="Path_945" data-name="Path 945" d="M1352.4,412.844a80.571,80.571,0,0,1-4.919-11.55c-1.275-4.531-6.41-38.9-6.534-42.329s-1.541-29.405-1.117-33.278.142-22.575-3.766-26.822c-3.465-3.769-11.238-6.17-16.493-6.942-4.932-.725-21.542-6.642-26.969-7.156" transform="translate(-1211.701 -226.225)" fill="none" stroke="#161615" stroke-linecap="round" stroke-miterlimit="10" stroke-width="0.591"/>
        <path id="Path_946" data-name="Path 946" d="M1199.64,424.2s3.041-11.754,3.183-17c0,0,10.909-30.743,10.059-43.635-.458-6.94-.15-51.2.991-54.261,1.558-4.165,4.177-6.606,15.193-10.245,0,0,18.041-5.7,23.94-5.55" transform="translate(-1171.421 -230.015)" fill="none" stroke="#161615" stroke-linecap="round" stroke-miterlimit="10" stroke-width="0.591"/>
        <path id="Path_947" data-name="Path 947" d="M1345.181,424.2s-3.041-11.754-3.183-17c0,0-10.909-30.743-10.059-43.635.458-6.94.15-51.2-.991-54.261-1.559-4.165-4.177-6.606-15.193-10.245,0,0-18.041-5.7-23.94-5.55" transform="translate(-1211.36 -230.015)" fill="none" stroke="#161615" stroke-linecap="round" stroke-miterlimit="10" stroke-width="0.591"/>
        <path id="Path_948" data-name="Path 948" d="M1267.146,298.18c-1.5,0-4.745,1.821-6.859,2.908-2.152,1.106-11.025,3.07-14.293,3.983-5.07,1.417-12.975,5.412-12.265,8.114s2.3,32.362,2.3,32.362" transform="translate(-1186.171 -232.038)" fill="none" stroke="#161615" stroke-linecap="round" stroke-miterlimit="10" stroke-width="0.591"/>
        <path id="Path_949" data-name="Path 949" d="M1323.5,345.543s1.6-29.659,2.3-32.362-7.194-6.7-12.264-8.114c-3.266-.913-12.142-2.877-14.293-3.983-2.116-1.087-5.234-2.911-6.737-2.911" transform="translate(-1211.661 -232.034)" fill="none" stroke="#161615" stroke-linecap="round" stroke-miterlimit="10" stroke-width="0.591"/>
        <path id="Path_950" data-name="Path 950" d="M1234.79,321.854s9.3-8.609,21.386-11.369a28.138,28.138,0,0,0,7.685-2.656c2.878-1.751,3.765-1.713,3.765-1.713" transform="translate(-1186.65 -235.477)" fill="none" stroke="#161615" stroke-linecap="round" stroke-miterlimit="10" stroke-width="0.591"/>
        <path id="Path_951" data-name="Path 951" d="M1325.34,321.646s-9.075-8.4-21.157-11.161a28.148,28.148,0,0,1-7.685-2.656c-2.879-1.751-3.766-1.713-3.766-1.713" transform="translate(-1211.757 -235.477)" fill="none" stroke="#161615" stroke-linecap="round" stroke-miterlimit="10" stroke-width="0.591"/>
        <path id="Path_952" data-name="Path 952" d="M1235.79,332.185s8.735-8.608,20.82-11.369a28.139,28.139,0,0,0,7.684-2.656c2.879-1.751,3.765-1.713,3.765-1.713" transform="translate(-1187.083 -239.953)" fill="none" stroke="#161615" stroke-linecap="round" stroke-miterlimit="10" stroke-width="0.591"/>
        <path id="Path_953" data-name="Path 953" d="M1324.77,331.978s-8.507-8.4-20.591-11.161a28.149,28.149,0,0,1-7.685-2.656c-2.879-1.751-3.766-1.713-3.766-1.713" transform="translate(-1211.756 -239.954)" fill="none" stroke="#161615" stroke-linecap="round" stroke-miterlimit="10" stroke-width="0.591"/>
        <path id="Path_954" data-name="Path 954" d="M1236.79,343.294a44.582,44.582,0,0,1,20.25-11.369,28.166,28.166,0,0,0,7.684-2.656c2.879-1.75,3.765-1.147,3.765-1.147" transform="translate(-1187.517 -244.969)" fill="none" stroke="#161615" stroke-linecap="round" stroke-miterlimit="10" stroke-width="0.591"/>
        <path id="Path_955" data-name="Path 955" d="M1324.208,343.088a43.688,43.688,0,0,0-20.025-11.161,28.148,28.148,0,0,1-7.685-2.656c-2.879-1.751-3.766-1.147-3.766-1.147" transform="translate(-1211.757 -244.969)" fill="none" stroke="#161615" stroke-linecap="round" stroke-miterlimit="10" stroke-width="0.591"/>
        <path id="Path_956" data-name="Path 956" d="M1236.79,352.938a44.587,44.587,0,0,1,20.25-11.369s4.806-.337,7.684-2.089,3.765-1.147,3.765-1.147" transform="translate(-1187.517 -249.392)" fill="none" stroke="#161615" stroke-linecap="round" stroke-miterlimit="10" stroke-width="0.591"/>
        <path id="Path_957" data-name="Path 957" d="M1324.208,352.73a43.687,43.687,0,0,0-20.025-11.161s-4.806-.337-7.685-2.089-3.766-1.147-3.766-1.147" transform="translate(-1211.757 -249.392)" fill="none" stroke="#161615" stroke-linecap="round" stroke-miterlimit="10" stroke-width="0.591"/>
        <path id="Path_958" data-name="Path 958" d="M1237.79,362.588a42.4,42.4,0,0,1,19.686-10.8s4.806-.337,7.684-2.089,3.765-1.147,3.765-1.147" transform="translate(-1187.95 -253.819)" fill="none" stroke="#161615" stroke-linecap="round" stroke-miterlimit="10" stroke-width="0.591"/>
        <path id="Path_959" data-name="Path 959" d="M1323.638,362.374a41.68,41.68,0,0,0-19.455-10.595s-4.806-.337-7.685-2.089-3.766-1.147-3.766-1.147" transform="translate(-1211.757 -253.817)" fill="none" stroke="#161615" stroke-linecap="round" stroke-miterlimit="10" stroke-width="0.591"/>
        <path id="Path_960" data-name="Path 960" d="M1238.79,372.77a40.611,40.611,0,0,1,19.12-10.235s4.806-.337,7.684-2.089,3.765-1.147,3.765-1.147" transform="translate(-1188.383 -258.477)" fill="none" stroke="#161615" stroke-linecap="round" stroke-miterlimit="10" stroke-width="0.591"/>
        <path id="Path_961" data-name="Path 961" d="M1323.075,372.562a39.771,39.771,0,0,0-18.892-10.027s-4.806-.338-7.685-2.09-3.766-1.147-3.766-1.147" transform="translate(-1211.757 -258.477)" fill="none" stroke="#161615" stroke-linecap="round" stroke-miterlimit="10" stroke-width="0.591"/>
        <path id="Path_962" data-name="Path 962" d="M1239.33,380.881s6.728-6.218,18.812-8.978c0,0,4.806-.337,7.684-2.089s3.765-1.147,3.765-1.147" transform="translate(-1188.618 -262.536)" fill="none" stroke="#161615" stroke-linecap="round" stroke-miterlimit="10" stroke-width="0.591"/>
        <path id="Path_963" data-name="Path 963" d="M1322.783,380.561s-6.517-5.9-18.6-8.657c0,0-4.806-.338-7.685-2.09s-3.765-1.147-3.765-1.147" transform="translate(-1211.757 -262.536)" fill="none" stroke="#161615" stroke-linecap="round" stroke-miterlimit="10" stroke-width="0.591"/>
        <path id="Path_964" data-name="Path 964" d="M1240.59,389.963s5.011-6.743,18.1-8.441c0,0,4.806.229,7.684-1.522s3.765-1.147,3.765-1.147" transform="translate(-1189.163 -266.951)" fill="none" stroke="#161615" stroke-linecap="round" stroke-miterlimit="10" stroke-width="0.591"/>
        <path id="Path_965" data-name="Path 965" d="M1321.964,389.963s-5.278-7.452-17.787-8.441c0,0-4.806.229-7.685-1.522s-3.766-1.147-3.766-1.147" transform="translate(-1211.755 -266.951)" fill="none" stroke="#161615" stroke-linecap="round" stroke-miterlimit="10" stroke-width="0.591"/>
        <path id="Path_966" data-name="Path 966" d="M1241.41,397.792s4.546-6,17.634-7.525c0,0,4.806.8,7.684-.956s3.766-1.147,3.766-1.147" transform="translate(-1189.518 -270.985)" fill="none" stroke="#161615" stroke-linecap="round" stroke-miterlimit="10" stroke-width="0.591"/>
        <path id="Path_967" data-name="Path 967" d="M1321.636,398.15s-5.887-6.852-17.453-7.884c0,0-4.806.8-7.685-.956s-3.765-1.147-3.765-1.147" transform="translate(-1211.757 -270.985)" fill="none" stroke="#161615" stroke-linecap="round" stroke-miterlimit="10" stroke-width="0.591"/>
        <path id="Path_968" data-name="Path 968" d="M1242.11,407.009s1.725-4.283,15.537-6.654c0,0,6.271.375,9.385-.389a15.359,15.359,0,0,1,3.766-.58" transform="translate(-1189.822 -275.89)" fill="none" stroke="#161615" stroke-linecap="round" stroke-miterlimit="10" stroke-width="0.591"/>
        <path id="Path_969" data-name="Path 969" d="M1321.224,407.768s-3.539-5.87-15.34-7.414a49.766,49.766,0,0,1-9.385-.388,19.991,19.991,0,0,0-3.765-.581" transform="translate(-1211.757 -275.891)" fill="none" stroke="#161615" stroke-linecap="round" stroke-miterlimit="10" stroke-width="0.591"/>
        <path id="Path_970" data-name="Path 970" d="M1242.36,415.256s1.58-4.791,15.391-7.161a91.956,91.956,0,0,0,9.385-.389c3.334-.489,3.765-.58,3.765-.58" transform="translate(-1189.932 -279.245)" fill="none" stroke="#161615" stroke-linecap="round" stroke-miterlimit="10" stroke-width="0.591"/>
        <path id="Path_971" data-name="Path 971" d="M1321.132,415.543s-3.45-5.9-15.252-7.448c0,0-6.725.017-9.385-.389-3.332-.508-3.766-.58-3.766-.58" transform="translate(-1211.756 -279.244)" fill="none" stroke="#161615" stroke-linecap="round" stroke-miterlimit="10" stroke-width="0.591"/>
        <path id="Path_972" data-name="Path 972" d="M1241.8,424.587s.777-4.527,14.588-6.9c0,0,7.625-1.221,10.505-1.644,3.334-.489,3.765-.58,3.765-.58" transform="translate(-1189.689 -282.858)" fill="none" stroke="#161615" stroke-linecap="round" stroke-miterlimit="10" stroke-width="0.591"/>
        <path id="Path_973" data-name="Path 973" d="M1321.53,425.3c.127.167-2.982-6.5-14.812-8.082,0,0-7.562-.763-10.222-1.169-3.331-.508-3.766-.58-3.766-.58" transform="translate(-1211.756 -282.859)" fill="none" stroke="#161615" stroke-linecap="round" stroke-miterlimit="10" stroke-width="0.591"/>
        <path id="Path_974" data-name="Path 974" d="M1299.911,435.332s-12.25-9.162-17.383-9.445c-5.584-.308-9.885-1.792-12.215-1.746h-1.133c-2.329-.046-6.63,1.441-12.214,1.746-3.843.21-17.317,8.3-17.383,8.311" transform="translate(-1188.728 -286.617)" fill="none" stroke="#161615" stroke-linecap="round" stroke-miterlimit="10" stroke-width="0.591"/>
        <path id="Path_975" data-name="Path 975" d="M1300.306,445.533a132.079,132.079,0,0,0-17.5-10.4c-2.84-1.606-10.581-3.836-13.753-3.586h-1.133c-3.17-.25-10.913,1.98-13.752,3.586a132.056,132.056,0,0,0-17.5,10.4" transform="translate(-1187.462 -289.819)" fill="none" stroke="#161615" stroke-linecap="round" stroke-miterlimit="10" stroke-width="0.591"/>
        <path id="Path_976" data-name="Path 976" d="M1300.482,460.029s-10.552-12.565-18.975-16.49c-2.84-1.606-10.581-3.836-13.753-3.586h-1.133c-3.171-.25-10.912,1.981-13.753,3.586-8.422,3.926-19.191,15.45-19.191,15.45" transform="translate(-1186.169 -293.46)" fill="none" stroke="#161615" stroke-linecap="round" stroke-miterlimit="10" stroke-width="0.591"/>
        <path id="Path_977" data-name="Path 977" d="M1247.948,583.133c-.225-1.859.683-12.648,1.387-16.238a183.461,183.461,0,0,0,1.994-19.456c.243-5.855-3.75-23.612-3.75-23.612a99.75,99.75,0,0,1-5.216-26.068s2.475-32.868,14.271-37.544c2.839-1.606,10.581-3.836,13.752-3.586h.887c3.171-.25,10.913,1.981,13.753,3.586,11.8,4.676,14.27,37.544,14.27,37.544a99.75,99.75,0,0,1-5.216,26.068s-3.994,17.757-3.75,23.612a183.46,183.46,0,0,0,1.994,19.456c.7,3.59,1.612,14.379,1.387,16.238" transform="translate(-1189.933 -300.686)" fill="none" stroke="#161615" stroke-linecap="round" stroke-miterlimit="10" stroke-width="0.591"/>
        <path id="Path_978" data-name="Path 978" d="M1296.759,651.588s.278-12.9-.238-15.547a44.1,44.1,0,0,0-2.9-8.879c-.645-.945-2.8-14.352-2.742-18.606,0,.493.637-45.416,0-55.253-.606-9.352-.208-59.563.284-62.366s4.206-5.26,2.76-17.191c-.455-3.762-10.83-7.46-14.766-7.525h-.856c-3.936.066-14.31,3.763-14.766,7.525-1.446,11.931,2.269,14.387,2.761,17.191s.925,53.016.284,62.366,0,55.253,0,55.253c.055,4.254-2.1,17.662-2.742,18.606a44.343,44.343,0,0,0-2.9,8.879c-.516,2.644-.237,15.547-.237,15.547" transform="translate(-1197.849 -304.852)" fill="none" stroke="#161615" stroke-linecap="round" stroke-miterlimit="10" stroke-width="0.591"/>
        <path id="Path_979" data-name="Path 979" d="M1304.68,767.688s.577-6.361,1.539-7.473,4.023-9.424,3.721-17.357.15-20.968.15-20.968" transform="translate(-1216.935 -415.635)" fill="none" stroke="#161615" stroke-linecap="round" stroke-miterlimit="10" stroke-width="0.591"/>
        <path id="Path_980" data-name="Path 980" d="M1276.1,767.688s-.577-6.361-1.539-7.473-4.023-9.424-3.721-17.357-.15-20.968-.15-20.968" transform="translate(-1202.206 -415.635)" fill="none" stroke="#161615" stroke-linecap="round" stroke-miterlimit="10" stroke-width="0.591"/>
        <path id="Path_981" data-name="Path 981" d="M1278.621,762.3s-2.277,6.947-1.616,9.308a29.375,29.375,0,0,1,.537,6.646" transform="translate(-1204.89 -433.145)" fill="none" stroke="#161615" stroke-linecap="round" stroke-miterlimit="10" stroke-width="0.591"/>
        <path id="Path_982" data-name="Path 982" d="M1305.06,762.3s2.277,6.947,1.615,9.308a29.38,29.38,0,0,0-.537,6.646" transform="translate(-1217.099 -433.145)" fill="none" stroke="#161615" stroke-linecap="round" stroke-miterlimit="10" stroke-width="0.591"/>
        <path id="Path_983" data-name="Path 983" d="M1278.883,673.628a48.213,48.213,0,0,1-2-11.2c-.068-4.958,2.132-26.068,2.378-31.026s-.192-16.575-.256-18.7.819-27.059.819-27.059a2.858,2.858,0,0,0,2.3-.982" transform="translate(-1204.889 -356.171)" fill="none" stroke="#161615" stroke-linecap="round" stroke-miterlimit="10" stroke-width="0.591"/>
        <path id="Path_984" data-name="Path 984" d="M1286.531,539.39c-.272,1.136-3.068,1.984-3.068,1.984-.412,2.408-1.4,24.651-1.4,24.651" transform="translate(-1207.137 -336.556)" fill="none" stroke="#161615" stroke-linecap="round" stroke-miterlimit="10" stroke-width="0.591"/>
        <path id="Path_985" data-name="Path 985" d="M1284.54,528.132c0-14.875,4.311-19.3,4.311-19.3" transform="translate(-1208.207 -323.315)" fill="none" stroke="#161615" stroke-linecap="round" stroke-miterlimit="10" stroke-width="0.591"/>
        <path id="Path_986" data-name="Path 986" d="M1302.241,673.628a48.221,48.221,0,0,0,2-11.2c.067-4.958-2.132-26.068-2.378-31.026s.192-16.575.256-18.7-.819-27.059-.819-27.059a2.858,2.858,0,0,1-2.3-.982" transform="translate(-1214.476 -356.171)" fill="none" stroke="#161615" stroke-linecap="round" stroke-miterlimit="10" stroke-width="0.591"/>
        <path id="Path_987" data-name="Path 987" d="M1295.18,539.39c.272,1.136,3.068,1.984,3.068,1.984.412,2.408,1.4,24.651,1.4,24.651" transform="translate(-1212.817 -336.556)" fill="none" stroke="#161615" stroke-linecap="round" stroke-miterlimit="10" stroke-width="0.591"/>
        <path id="Path_988" data-name="Path 988" d="M1292.98,508.831s4.311,4.425,4.311,19.3" transform="translate(-1211.865 -323.315)" fill="none" stroke="#161615" stroke-linecap="round" stroke-miterlimit="10" stroke-width="0.591"/>
        <path id="Path_989" data-name="Path 989" d="M1286.591,492.807s8.336,4.025,8.55-6.644c.133-6.726-4.437-10.672-7.805-10.768h-1.483c-3.369.1-7.938,4.043-7.805,10.768.211,10.669,8.55,6.644,8.55,6.644" transform="translate(-1205.392 -308.826)" fill="none" stroke="#161615" stroke-linecap="round" stroke-miterlimit="10" stroke-width="0.591"/>
        <path id="Path_990" data-name="Path 990" d="M1289.253,495.736s4.875,2.354,5-3.887c.075-3.935-2.6-6.243-4.567-6.3h-.867c-1.971.056-4.644,2.365-4.567,6.3.124,6.241,5,3.887,5,3.887" transform="translate(-1208.083 -313.226)" fill="none" stroke="#161615" stroke-linecap="round" stroke-miterlimit="10" stroke-width="0.591"/>
        <path id="Path_991" data-name="Path 991" d="M1291.167,499.63s2.438,1.178,2.5-1.944a2.867,2.867,0,0,0-2.283-3.15h-.433a2.865,2.865,0,0,0-2.283,3.15c.062,3.121,2.5,1.944,2.5,1.944" transform="translate(-1209.996 -317.121)" fill="none" stroke="#161615" stroke-linecap="round" stroke-miterlimit="10" stroke-width="0.591"/>
        <text id="C-15" data-name="C" transform="translate(76.981 19.127)" fill="#161615" font-size="3" font-family="ArialMT, Arial"><tspan x="0" y="0">C</tspan></text>
        <text id="_2" data-name="2" transform="translate(81.814 19.127)" fill="#161615" font-size="3" font-family="ArialMT, Arial"><tspan x="0" y="0">2</tspan></text>
        <text id="C-16" data-name="C" transform="translate(77.357 33.811)" fill="#161615" font-size="3" font-family="ArialMT, Arial"><tspan x="0" y="0">C</tspan></text>
        <text id="_3" data-name="3" transform="translate(81.438 33.811)" fill="#161615" font-size="3" font-family="ArialMT, Arial"><tspan x="0" y="0">3</tspan></text>
        <text id="C-17" data-name="C" transform="translate(77.792 45.244)" fill="#161615" font-size="3" font-family="ArialMT, Arial"><tspan x="0" y="0">C</tspan></text>
        <text id="_4" data-name="4" transform="translate(81.823 45.244)" fill="#161615" font-size="3" font-family="ArialMT, Arial"><tspan x="0" y="0">4</tspan></text>
        <text id="Th1_" data-name="Th1 " transform="translate(55.972 79.693) rotate(-26.693)" fill="#161615" font-size="3" font-family="ArialMT, Arial"><tspan x="0" y="0">Th1</tspan></text>
        <text id="Th2_" data-name="Th2 " transform="matrix(0.875, -0.485, 0.485, 0.875, 56.609, 85.616)" fill="#161615" font-size="3" font-family="ArialMT, Arial"><tspan x="0" y="0">Th2</tspan></text>
        <text id="Th3_" data-name="Th3 " transform="matrix(0.872, -0.489, 0.489, 0.872, 56.549, 91.406)" fill="#161615" font-size="3" font-family="ArialMT, Arial"><tspan x="0" y="0">Th3</tspan></text>
        <text id="Th4_" data-name="Th4 " transform="matrix(0.856, -0.518, 0.518, 0.856, 56.58, 97.413)" fill="#161615" font-size="3" font-family="ArialMT, Arial"><tspan x="0" y="0">Th4</tspan></text>
        <text id="Th5_" data-name="Th5   " transform="matrix(0.861, -0.509, 0.509, 0.861, 56.19, 102.95)" fill="#161615" font-size="3" font-family="ArialMT, Arial"><tspan x="0" y="0" xml:space="preserve">Th5  </tspan></text>
        <text id="Th6_" data-name="Th6   " transform="matrix(0.856, -0.517, 0.517, 0.856, 54.136, 110.385)" fill="#161615" font-size="3" font-family="ArialMT, Arial"><tspan x="0" y="0" xml:space="preserve">Th6  </tspan></text>
        <text id="Th7_" data-name="Th7   " transform="translate(56.492 113.268) rotate(-23.998)" fill="#161615" font-size="3" font-family="ArialMT, Arial"><tspan x="0" y="0" xml:space="preserve">Th7  </tspan></text>
        <text id="Th8_" data-name="Th8   " transform="matrix(0.915, -0.404, 0.404, 0.915, 57.276, 117.531)" fill="#161615" font-size="3" font-family="ArialMT, Arial"><tspan x="0" y="0" xml:space="preserve">Th8  </tspan></text>
        <text id="Th9_" data-name="Th9   " transform="matrix(0.927, -0.376, 0.376, 0.927, 58.064, 121.665)" fill="#161615" font-size="3" font-family="ArialMT, Arial"><tspan x="0" y="0" xml:space="preserve">Th9  </tspan></text>
        <text id="Th" transform="translate(57.64 125.101) rotate(-15.856)" fill="#161615" font-size="3" font-family="ArialMT, Arial"><tspan x="0" y="0">Th</tspan></text>
        <text id="_1" data-name="1" transform="translate(62.935 124.378) rotate(-15.856)" fill="#161615" font-size="3" font-family="ArialMT, Arial"><tspan x="0" y="0">1</tspan></text>
        <text id="_0_" data-name="0   " transform="translate(65.011 123.788) rotate(-15.856)" fill="#161615" font-size="3" font-family="ArialMT, Arial"><tspan x="0" y="0" xml:space="preserve">0  </tspan></text>
        <text id="T" transform="matrix(0.964, -0.266, 0.266, 0.964, 57.881, 129.661)" fill="#161615" font-size="3" font-family="ArialMT, Arial"><tspan x="0" y="0">T</tspan></text>
        <text id="h" transform="matrix(0.964, -0.266, 0.266, 0.964, 60.668, 129.67)" fill="#161615" font-size="3" font-family="ArialMT, Arial"><tspan x="0" y="0">h</tspan></text>
        <text id="_1-2" data-name="1" transform="matrix(0.964, -0.266, 0.266, 0.964, 63.005, 129.025)" fill="#161615" font-size="3" font-family="ArialMT, Arial"><tspan x="0" y="0">1</tspan></text>
        <text id="_1-3" data-name="1" transform="matrix(0.964, -0.266, 0.266, 0.964, 64.998, 128.475)" fill="#161615" font-size="3" font-family="ArialMT, Arial"><tspan x="0" y="0">1</tspan></text>
        <text id="Th-2" data-name="Th" transform="translate(57.767 134.42) rotate(-13.142)" fill="#161615" font-size="3" font-family="ArialMT, Arial"><tspan x="0" y="0">Th</tspan></text>
        <text id="_1-4" data-name="1" transform="translate(63.09 133.947) rotate(-13.142)" fill="#161615" font-size="3" font-family="ArialMT, Arial"><tspan x="0" y="0">1</tspan></text>
        <text id="_2_" data-name="2   " transform="translate(65.191 133.457) rotate(-13.142)" fill="#161615" font-size="3" font-family="ArialMT, Arial"><tspan x="0" y="0" xml:space="preserve">2  </tspan></text>
        <g id="Group_211" data-name="Group 211" transform="translate(45.991 152.14)">
          <path id="Path_992" data-name="Path 992" d="M1231,482s7.527-19.438,12.171-22.74,10.53-9.675,22.293-9.313,20.96,5.373,25.331,11.656a187.137,187.137,0,0,1,9.932,17.21" transform="translate(-1231 -449.934)" fill="none" stroke="#161615" stroke-linecap="round" stroke-miterlimit="10" stroke-width="0.591"/>
        </g>
      </g>
    </g>
  </g>
</svg>
