<svg xmlns="http://www.w3.org/2000/svg" xmlns:xlink="http://www.w3.org/1999/xlink" width="208.5" height="360" viewBox="0 0 208.5 360">
  <defs>
    <clipPath id="clip-Centrala-fram_1">
      <rect width="208.5" height="360"/>
    </clipPath>
  </defs>
  <g id="Centrala-fram_1" data-name="Centrala-fram – 1" clip-path="url(#clip-Centrala-fram_1)">
    <rect width="208.5" height="360" fill="rgba(0,0,0,0)"/>
    <g id="Group_4" data-name="Group 4">
      <rect id="Rectangle_4" data-name="Rectangle 4" width="208.5" height="360" fill="rgba(255,255,255,0)"/>
      <g id="Centrala-fram" transform="translate(21.75 3.75)">
        <text id="C" transform="translate(97.064 42.869)" fill="#161615" font-size="3" font-family="ArialMT, Arial"><tspan x="0" y="0">C</tspan></text>
        <text id="_2" data-name="2" transform="translate(101.975 42.869)" fill="#161615" font-size="3" font-family="ArialMT, Arial"><tspan x="0" y="0">2</tspan></text>
        <line id="Line_55" data-name="Line 55" x2="17.891" transform="translate(87.051 44.25)" fill="none" stroke="#161615" stroke-miterlimit="10" stroke-width="0.335"/>
        <g id="Group_132" data-name="Group 132" transform="translate(9.665)">
          <path id="Path_615" data-name="Path 615" d="M-581.481,256.463a.724.724,0,0,1-.724-.724.724.724,0,0,1,.724-.724.725.725,0,0,1,.725.724.724.724,0,0,1-.724.724" transform="translate(658.896 -211.489)" fill="#161615"/>
          <line id="Line_56" data-name="Line 56" x1="17.891" transform="translate(40.18 44.25)" fill="none" stroke="#161615" stroke-miterlimit="10" stroke-width="0.335"/>
          <path id="Path_616" data-name="Path 616" d="M-615.083,255.014a.725.725,0,0,1,.725.725.725.725,0,0,1-.725.724.724.724,0,0,1-.724-.724.725.725,0,0,1,.725-.725" transform="translate(673.138 -211.489)" fill="#161615"/>
          <path id="Path_617" data-name="Path 617" d="M-625.554,236.735s.273.645,1.012,0" transform="translate(677.269 -203.722)" fill="#ffe8c0"/>
          <path id="Path_618" data-name="Path 618" d="M-625.607,215.481c1.181,1.249,3.734,3.09,4.806,4.464a33.286,33.286,0,0,1,4.315,7.628c1.3,3.55,4.031,3.172,5.333,3.463a4.24,4.24,0,0,0,4.625-2.562c1.545-3.478,2.319-5.455,3.825-7.4,2.489-3.218,3.439-2.887,4.781-4.434,1.811-2.088,2.991-4.65,2.543-4.288-.049.04,1.718-4.257,2.223-6.36.279-1.163-.571-.716-.571-.716s.065-1.415.1-5.789-.624-9.386-2.187-12.626c-2.446-5.068-9.306-7.52-15.439-7.52-4.118,0-6.193.441-10.713,3-4.891,2.769-5.486,7.582-6.192,11.612s-.316,11.186-.316,11.186-.6.061-.965.083c0,0,2.074,8.4,3.833,10.26" transform="translate(678.948 -179.336)" fill="#ffe8c0"/>
          <path id="Path_619" data-name="Path 619" d="M-581.384,390.134c-.711-1.244-1.045-3.252-2.969-6.75-1.59-2.888-3.1-3.23-4.627-4.7a13.966,13.966,0,0,1-3.207-7,92.4,92.4,0,0,1-.605-9.995c-.164-5.589-.367-13.324-.314-15.98.086-4.333-1.532-10.281-2.465-13.849s-.089-8.5,0-13.595-1.532-17.078-1.106-23.791.425-13.255.425-13.255q0-.213-.011-.425a19.867,19.867,0,0,0-8.5-15.124c-3.428-2.359-6.979-2.974-11.66-5.013s-12.086-4.5-16.087-6.457-3.323-8.329-3.263-10.453l.034-.854a10.641,10.641,0,0,0,1.813-3.408,36.228,36.228,0,0,0,1.531-4.064c.006-.037.011-.08.016-.121.031-.221,1.555.77,1.793-.482,1.275-6.706,2.03-4.406,2.329-8.408.157-2.112-.975-2.089-.956-2.113.272-.349-1.469,5.485-3.163,9.08-.844,1.792-3.183,3.259-6.243,6.232a13.35,13.35,0,0,0-3.557,6.352c-1.057,4.05-4.659,4.045-6.069,4.05-1.863,0-4.42-.44-5.66-5.743-.514-2.2-1.587-3.083-3.275-5.242-1.073-1.373-4.417-3.459-5.212-4.984-.13-.25-3.8-9.561-3.442-9.74.412-.2-1.254-.017-1.12,2.113a16.738,16.738,0,0,0,1.634,5.014c-.515,2.917,1.425,3.779,1.425,3.779l.849.287c.362.865,1.095,2.663,1.49,3.994a8.275,8.275,0,0,0,1.816,3.385C-659.679,245-659,252.25-663,254.2c-3.279,1.6-9.3,3.546-13.943,5.318h0c-1.022.39-1.98.772-2.824,1.14-4.682,2.038-8.175,2.746-11.661,5.013a19.593,19.593,0,0,0-8.5,15.124q-.01.212-.012.425s0,6.543.426,13.255-1.192,18.692-1.107,23.791.929,10.026,0,13.595-2.55,9.516-2.464,13.849c.061,3.112-.1,10.608-.286,16.41a53.789,53.789,0,0,1-.831,10.407,13.852,13.852,0,0,1-2.818,5.869c-.055.057-.107.115-.163.169-1.54,1.495-3.056,1.823-4.655,4.725-1.924,3.5-2.258,5.5-2.969,6.75-.792,1.385-.657,2.7.441,2.717s2.083-1.509,3.075-3.45,2.348-2.9,2.405-1.527a31.358,31.358,0,0,1-1.167,7.19c-.638,2.15-.975,3.985-1.383,5.482s-.5,3.782.593,4.027c1.543.349,1.692-2.3,2.4-4.566s1.621-6,2.3-5.678.225,5.106.15,7.9-.535,5.918.93,6.178c2,.355,1.95-4.067,2.166-6.7s.5-5.96,1.246-6.15,1.237,7.561,1.322,10.089c.05,1.517.516,2.23,1.664,2.212,1.438-.023,1.225-2.682,1.056-5.936-.15-2.919-.715-7,.136-6.744.324.1.952,2.164,1.474,4.609.455,2.138.889,5.446,1.989,5.194,1.78-.41.461-3.629.14-7.318-.343-3.961-.463-4.66-.126-6.053a38.187,38.187,0,0,0,.48-9.532,11.844,11.844,0,0,0-.564-2.639c-.719-3.2,1.548-8.911,1.548-8.911,1.361-3.569,5.872-15.125,7.49-22.176s1.875-13,2.638-17.5a59.631,59.631,0,0,0,1.275-10.791,14.745,14.745,0,0,1,1.463-6.356c-.538-.784-1.965-25.025-2.467-22.859-1.14,4.915-2.143,30.179-3.9,50.53-.458,5.306-1.839,4.628-2.918,8.41-1.629,5.705-4.333,10.341-6.41,14.75-5.115,10.851-4.661,9.331-4.661,9.331s-.362,1.239.5-2.719c.543-2.5,2.493-8.656,3.359-12.693.508-2.368.112-3.981.576-5.785,1.345-5.221,1.736-9.266,2.459-12.164a46.06,46.06,0,0,0,1.073-8.85c.28-4,.15-16.439.273-19.713s.137-9.75.5-12.414.313-8.31.788-9.627,1.379-8.077,1.906-11c1.226-6.79,5.441-7.306,9.688-7.843s10.7.871,15.088,1.05,4.78.659,15.6.659,13.3-.825,17.21-.659c5.586.241,12.6-2.112,18.042-.26,4.591,1.562,6.306,8.792,6.738,16.412.061,1.08.633,5.463,1.091,8.775.2,1.471.365,5.18.391,7q.15,10,.538,16.7c.5,8.625-.554,10.291,0,13.888.4,2.585,1.439,9.7,3.087,16,.732,2.8,1.219,5.533,1.742,7.962,1.7,7.894,2.211,12.357,2.69,14.53s.475,1.5.475,1.5l-3.474-7.42c-1.516-3.239-3.644-7.754-4.89-10.936-.789-2.017-4.139-9.252-4.717-11.278-1.489-5.225-1.861-4.993-2.231-11.339-.466-7.979-1.006-33.071-2.37-41.871-.675-4.335-2.394,17.325-2.808,21.45a16.725,16.725,0,0,1,1.644,6.835,59.577,59.577,0,0,0,1.275,10.791c.764,4.5,1.021,10.451,2.638,17.5s6.128,18.608,7.49,22.176c0,0,2.268,5.8,1.549,9a11.857,11.857,0,0,0-.565,2.638,38.235,38.235,0,0,0,.481,9.533c.337,1.39.217,2.09-.127,6.049-.321,3.692-1.639,6.909.14,7.32,1.1.253,1.533-3.056,1.99-5.194.525-2.444,1.15-4.512,1.473-4.609.85-.253.288,3.825.136,6.745-.169,3.254-.382,5.911,1.057,5.934,1.148.019,1.614-.692,1.663-2.21.085-2.529.577-10.281,1.322-10.09s1.031,3.518,1.247,6.15.163,7.061,2.165,6.705c1.466-.26,1-3.382.931-6.18s-.53-7.58.15-7.9,1.594,3.408,2.3,5.677.857,4.915,2.4,4.565c1.1-.244,1-2.531.593-4.027s-.745-3.331-1.383-5.481a31.25,31.25,0,0,1-1.167-7.187c.013-.324.1-.514.236-.6l.019.016-.006-.026c.45-.242,1.406.663,2.156,2.132.991,1.942,1.975,3.469,3.075,3.45s1.233-1.333.441-2.719" transform="translate(715.314 -198.412)" fill="#d0e1b6"/>
          <path id="Path_620" data-name="Path 620" d="M-601,337.227c0,6.6.58,23.207,1.007,30.7.362,6.347.362,4.7,1.852,9.929.578,2.025,3.646,9.09,4.435,11.106a70.568,70.568,0,0,0,4.516,10.294,53.357,53.357,0,0,1,4.517,9.646s-.834-5.25-1.312-7.42-1.1-4.9-2.8-12.8c-.525-2.43-1.14-5.395-1.875-8.2-1.65-6.295-1.778-11.495-2.175-14.081-.554-3.6.525-3.658.023-12.285-.26-4.477-.693-16.143-.79-22.807a61.013,61.013,0,0,0-.525-6.137c-.459-3.309-.744-7.269-1.171-8.263-.7-1.626-1.547-9.221-6.14-10.784-5.445-1.852-8.737-.581-14.314-.144a205.345,205.345,0,0,1-20.959,1.062c-10.826,0-8.629-1.019-12.879-.482s-16.95-1.932-19.795-1.07c-3,.911-4.709,1.484-5.507,2.636a23.651,23.651,0,0,0-2.948,8.143c-.36,2.665-1.713,12.225-1.835,15.5s-.619,14.025-.9,18.022.846,10.015.123,12.912.85,3.561-.494,8.783c-.465,1.8-2.442,12.238-2.949,14.6-.649,3.028-4.956,20.443-4.237,21.45.24.337,3.2-7,4.251-8.734,2.518-4.175,3.307-9.125,6.414-14.75.434-.786,3.036-6.146,3.412-10.478.75-8.625,1.15-15.813,1.665-25.527.836-15.763,1.425-23.882,1.425-23.882.009.018,2.468,16.463,2.475,16.481.194.386.78,8.117,1.074,10.544l.211,2.594a21.113,21.113,0,0,1,.675,3.263c.441,4.465.968,3.42,1.118,12.1.007.436.016,2.732-.026,3.166a93.014,93.014,0,0,1-1.73,11.077c-.434,2.12-.995,4.745-.995,4.745s4.036,1.158,6.005,2.953c3.182,2.9,7.841,9.538,9.333,11.091a23.653,23.653,0,0,0,16.563,7.45c10.474,0,16.1-7.86,19.875-12.774a27.819,27.819,0,0,1,7.35-7.176c2.8-1.906,4.292-1.586,4.292-1.586l.051.089a.1.1,0,0,1-.051-.089c.034-.489-2.831-11.231-2.831-15.765,0-9.126,1.389-13.783,1.875-18.7.075-.729-.2,2.344-.107,1.568,0-.007,3.188-30.029,3.19-30.035,1.172-5.054,1.76,25.219,2.441,30.658" transform="translate(703.798 -232.641)" fill="#a5d7dc"/>
          <path id="Path_621" data-name="Path 621" d="M-589.314,477.292h0c-.026-1.547-.1-2.971-.232-4.223-.144-1.363-.3-2.787-.464-4.239h0c-.32-2.83-.682-5.806-1.138-8.936h0c-.241-1.661-.518-3.375-.815-5.107,0,0-.8-5.273-.8-5.273s-1.009-.233-3.455.937c-5.514,2.639-6.375,5.036-8.25,7.736-3.9,5.617-10.455,13.226-20.925,12.742a23.273,23.273,0,0,1-15.551-7.419,54.724,54.724,0,0,1-4.066-4.667c-3.024-4.076-4.044-6.128-7.05-7.642a29.237,29.237,0,0,0-4.24-1.734c-.28,1.65-1.85,8.842-2.081,10.425-.464,3.2-.835,6.241-1.159,9.126h0c-.157,1.384-.305,2.745-.443,4.05-.135,1.28-.209,2.741-.233,4.327h0a164.554,164.554,0,0,0,2.62,28.13c.583,3.133,1.425,6.314,2.344,9.468v0s4.4,15.125,5.55,20.735a68.981,68.981,0,0,1,.92,18.186c-.44,6.993-.284,19.549.914,26.26a18.593,18.593,0,0,1,3.027,6.333c.658,2.882,3.3,11.3,3.2,20.507-.014,1.247.106,4.025.106,8.721,0,2.6-2.475,9.307-11.95,17.5-4.193,3.627-4.845,4.218-4.885,4.261l-.975,1.575a1.656,1.656,0,0,0-.221.637c-.1.667-.194,1.786.95,1.977l.314-.414c-.334.616-.566,1.205-.418,1.557a1.41,1.41,0,0,0,1.12.843,1.276,1.276,0,0,0,.819-.136,1.324,1.324,0,0,0,1.2,1.252c.956.135,1.258.217,1.94-.245a3.358,3.358,0,0,0,.928-.854l-.109-.54.234-.022a1.3,1.3,0,0,0-.054.342,2.393,2.393,0,0,0,2.5,2.28c1.833-.034,2.875-.536,3.629-1.827a7.429,7.429,0,0,1,1.35-1.5c.809-.665,2.025-1.166,2.4-2.674s.332-3.161,1.071-4.411,5.55-5.729,6.788-6.975a7.306,7.306,0,0,0,2.357-4.379c.094-1.57-.589-4.71-.7-6.243a5.529,5.529,0,0,1,.961-3.45c.512-.851.292-2.17.064-4.328a74.69,74.69,0,0,1,.574-14.165c.74-4.088,1.262-10.211,2-14.582s1.281-5.983,1.11-11.619c-.225-7.334-1.5-11.625-1.153-16.79s.375-9.948.6-15.115.114-8.914.627-11.866,1.193-6.17,1.707-10.834.182-5.175.375-10.229.652-10.275.825-13.172a26.35,26.35,0,0,1,.416-3.048,7.439,7.439,0,0,1-4.89-3.19c-2.257-3.243.043-7.738,5.207-7.795,4.848-.053,7.75,3.017,6.543,6.631-1.1,3.307-5.615,4.331-5.615,4.331.2,3.406.788,15.731.845,19.819a49.3,49.3,0,0,0,.85,10.526,80.193,80.193,0,0,1,1.542,10.707c.113,2.5,0,10.219.4,15.215s.607,13.457.038,17.2a47.573,47.573,0,0,0-.55,13.227c.628,4.6,1.875,11.442,2.73,16.666a69.681,69.681,0,0,1,1.085,14.446c-.285,3.349-.74,5.85-.512,6.586a10.856,10.856,0,0,1,1.253,3.008c.113,1.078-.509,4.59-.525,6.3s.277,3.941,1.2,4.9,7.62,7.49,8.094,8.965c.536,1.665.469,2.493.744,3.332a13.468,13.468,0,0,0,.816,1.84c1.365,1.381,2.392,1.725,3.15,3.01s1.8,1.792,3.629,1.827a2.393,2.393,0,0,0,2.49-2.175l.082.115a3.372,3.372,0,0,0,.929.854c.682.463.983.381,1.939.245a1.324,1.324,0,0,0,1.2-1.252,1.275,1.275,0,0,0,.82.136,1.412,1.412,0,0,0,1.12-.843,1.661,1.661,0,0,0-.232-1.19l.127.048c1.144-.191,1.05-1.309.952-1.977a1.705,1.705,0,0,0-.221-.638l-.507-1.469c-.027-.465-1.875-1.412-13.421-13.2a15.687,15.687,0,0,1-3.317-6.424c-.778-2.482-.709-7.476-.71-8.723s1.478-14.175,2.119-17.062c2.6-11.694,4.211-10.286,4.582-12.544,1.643-9.982.865-19.275.414-26.218a63.755,63.755,0,0,1,1.04-18.651c2.095-8.953,5.556-20.544,5.556-20.544h0c.872-3.019,1.667-6.06,2.223-9.056a164.132,164.132,0,0,0,2.62-28.234" transform="translate(691.907 -293.586)" fill="#c1bde0"/>
          <path id="Path_622" data-name="Path 622" d="M-596.6,503.3c0-2.338-1.5-4.888-6.334-4.888s-6.278,2.337-6.394,5.613c-.127,3.6,4.983,5.314,6.283,5.314a9.235,9.235,0,0,0,5.6-3.089" transform="translate(670.405 -314.62)" fill="#f0c9d6"/>
          <path id="Path_623" data-name="Path 623" d="M-659.9,735.924s-.112.326-.6-.386-.065-1.837.3-2.589a18.16,18.16,0,0,1,3.456-4.005c1.358-1.125,9.486-8.11,10.25-10.538s2.661-8.17,2.8-9.027.61-6.908,0-8.353-4.535-22.481-4.433-24.3a34.286,34.286,0,0,1,4.8,13.737c1.261,8.689,2.383,19.316,1.306,22.4s-.75,6.259-13.323,18.375c-.892.859-3.351,2.34-4.555,4.69" transform="translate(692.183 -390.14)" fill="#f0c9d6"/>
          <path id="Path_624" data-name="Path 624" d="M-551.3,735.925s.113.326.6-.386.083-2.85-.285-3.6-2.115-1.869-3.472-2.991-9.486-8.11-10.25-10.538-2.661-8.17-2.8-9.027-.611-6.907,0-8.353,4.535-22.481,4.433-24.3a34.286,34.286,0,0,0-4.8,13.737c-1.261,8.689-2.007,20.229-1.329,23.426.709,3.344.633,5.332,13.346,17.348.9.85,3.351,2.34,4.555,4.691" transform="translate(653.515 -390.141)" fill="#f0c9d6"/>
        </g>
        <text id="C-2" data-name="C" transform="translate(74.127 71.048)" fill="#161615" font-size="3" font-family="ArialMT, Arial"><tspan x="0" y="0">C</tspan></text>
        <text id="_5" data-name="5" transform="translate(78.218 71.048)" fill="#161615" font-size="3" font-family="ArialMT, Arial"><tspan x="0" y="0">5</tspan></text>
        <text id="L" transform="translate(74.177 181.564)" fill="#161615" font-size="3" font-family="ArialMT, Arial"><tspan x="0" y="0">L</tspan></text>
        <text id="_1" data-name="1" transform="translate(77.426 181.564)" fill="#161615" font-size="3" font-family="ArialMT, Arial"><tspan x="0" y="0">1</tspan></text>
        <text id="L-2" data-name="L" transform="translate(60.971 194.265)" fill="#161615" font-size="3" font-family="ArialMT, Arial"><tspan x="0" y="0">L</tspan></text>
        <text id="_2-2" data-name="2" transform="translate(64.22 194.265)" fill="#161615" font-size="3" font-family="ArialMT, Arial"><tspan x="0" y="0">2</tspan></text>
        <text id="L-3" data-name="L" transform="translate(87.125 194.265)" fill="#161615" font-size="3" font-family="ArialMT, Arial"><tspan x="0" y="0">L</tspan></text>
        <text id="_2-3" data-name="2" transform="translate(90.374 194.265)" fill="#161615" font-size="3" font-family="ArialMT, Arial"><tspan x="0" y="0">2</tspan></text>
        <text id="L-4" data-name="L" transform="translate(59.128 210.936)" fill="#161615" font-size="3" font-family="ArialMT, Arial"><tspan x="0" y="0">L</tspan></text>
        <text id="_3" data-name="3" transform="translate(62.377 210.936)" fill="#161615" font-size="3" font-family="ArialMT, Arial"><tspan x="0" y="0">3</tspan></text>
        <text id="L-5" data-name="L" transform="translate(89.513 210.936)" fill="#161615" font-size="3" font-family="ArialMT, Arial"><tspan x="0" y="0">L</tspan></text>
        <text id="_3-2" data-name="3" transform="translate(92.762 210.936)" fill="#161615" font-size="3" font-family="ArialMT, Arial"><tspan x="0" y="0">3</tspan></text>
        <text id="L-6" data-name="L" transform="translate(57.506 240.897)" fill="#161615" font-size="3" font-family="ArialMT, Arial"><tspan x="0" y="0">L</tspan></text>
        <text id="L5" transform="translate(55.051 281.332)" fill="#161615" font-size="3" font-family="ArialMT, Arial"><tspan x="0" y="0">L5</tspan></text>
        <text id="L5-2" data-name="L5" transform="translate(93.206 281.332)" fill="#161615" font-size="3" font-family="ArialMT, Arial"><tspan x="0" y="0">L5</tspan></text>
        <text id="_4" data-name="4" transform="translate(60.749 240.902)" fill="#161615" font-size="3" font-family="ArialMT, Arial"><tspan x="0" y="0">4</tspan></text>
        <text id="L-7" data-name="L" transform="translate(90.485 240.902)" fill="#161615" font-size="3" font-family="ArialMT, Arial"><tspan x="0" y="0">L</tspan></text>
        <text id="_4-2" data-name="4" transform="translate(93.734 240.902)" fill="#161615" font-size="3" font-family="ArialMT, Arial"><tspan x="0" y="0">4</tspan></text>
        <text id="L4" transform="translate(74.87 339.718)" fill="#161615" font-size="3" font-family="ArialMT, Arial"><tspan x="0" y="0">L4</tspan></text>
        <text id="C-3" data-name="C" transform="translate(33.756 176.207)" fill="#161615" font-size="3" font-family="ArialMT, Arial"><tspan x="0" y="0">C</tspan></text>
        <text id="_8" data-name="8" transform="translate(37.646 176.207)" fill="#161615" font-size="3" font-family="ArialMT, Arial"><tspan x="0" y="0">8</tspan></text>
        <text id="C-4" data-name="C" transform="translate(114.023 176.207)" fill="#161615" font-size="3" font-family="ArialMT, Arial"><tspan x="0" y="0">C</tspan></text>
        <text id="_8-2" data-name="8" transform="translate(117.911 176.207)" fill="#161615" font-size="3" font-family="ArialMT, Arial"><tspan x="0" y="0">8</tspan></text>
        <text id="S1" transform="translate(116.804 322.837)" fill="#161615" font-size="3" font-family="ArialMT, Arial"><tspan x="0" y="0">S1</tspan></text>
        <text id="S1-2" data-name="S1" transform="translate(32.02 322.837)" fill="#161615" font-size="3" font-family="ArialMT, Arial"><tspan x="0" y="0">S1</tspan></text>
        <text id="S2_S3" data-name="S2, S3" transform="translate(120.754 228.908)" fill="#161615" font-size="3" font-family="ArialMT, Arial"><tspan x="0" y="0">S2, S3</tspan></text>
        <text id="C-5" data-name="C" transform="translate(11.704 82.984)" fill="#161615" font-size="3" font-family="ArialMT, Arial"><tspan x="0" y="0">C</tspan></text>
        <text id="_6" data-name="6" transform="translate(15.458 82.984)" fill="#161615" font-size="3" font-family="ArialMT, Arial"><tspan x="0" y="0">6</tspan></text>
        <text id="C-6" data-name="C" transform="translate(134.869 82.984)" fill="#161615" font-size="3" font-family="ArialMT, Arial"><tspan x="0" y="0">C</tspan></text>
        <text id="_6-2" data-name="6" transform="translate(138.623 82.984)" fill="#161615" font-size="3" font-family="ArialMT, Arial"><tspan x="0" y="0">6</tspan></text>
        <text id="C-7" data-name="C" transform="translate(0.394 185.464)" fill="#161615" font-size="3" font-family="ArialMT, Arial"><tspan x="0" y="0">C</tspan></text>
        <text id="_6-3" data-name="6" transform="translate(5.299 185.464)" fill="#161615" font-size="3" font-family="ArialMT, Arial"><tspan x="0" y="0">6</tspan></text>
        <text id="C-8" data-name="C" transform="translate(152.482 185.464)" fill="#161615" font-size="3" font-family="ArialMT, Arial"><tspan x="0" y="0">C</tspan></text>
        <text id="_6-4" data-name="6" transform="translate(157.386 185.464)" fill="#161615" font-size="3" font-family="ArialMT, Arial"><tspan x="0" y="0">6</tspan></text>
        <text id="Th1_" data-name="Th1 " transform="translate(9.812 119.354)" fill="#161615" font-size="3" font-family="ArialMT, Arial"><tspan x="0" y="0">Th1</tspan></text>
        <text id="Th1_2" data-name="Th1 " transform="translate(134.855 119.354)" fill="#161615" font-size="3" font-family="ArialMT, Arial"><tspan x="0" y="0">Th1</tspan></text>
        <line id="Line_57" data-name="Line 57" x1="14.681" transform="translate(11.781 84.152)" fill="none" stroke="#161615" stroke-miterlimit="10" stroke-width="0.335"/>
        <g id="Group_133" data-name="Group 133" transform="translate(25.7 83.428)">
          <path id="Path_625" data-name="Path 625" d="M-686.706,324.179a.725.725,0,0,1,.725.724.725.725,0,0,1-.725.724.724.724,0,0,1-.724-.724.725.725,0,0,1,.725-.725" transform="translate(687.43 -324.179)" fill="#161615"/>
        </g>
        <g id="Group_134" data-name="Group 134" transform="translate(0 83.479)">
          <line id="Line_58" data-name="Line 58" x2="14.681" transform="translate(127.148 0.724)" fill="none" stroke="#161615" stroke-miterlimit="10" stroke-width="0.335"/>
          <path id="Path_626" data-name="Path 626" d="M-511.925,325.628a.724.724,0,0,1-.724-.724.724.724,0,0,1,.724-.724.725.725,0,0,1,.725.724.725.725,0,0,1-.725.724" transform="translate(639.065 -324.18)" fill="#161615"/>
          <line id="Line_59" data-name="Line 59" x1="14.681" transform="translate(0 102.793)" fill="none" stroke="#161615" stroke-miterlimit="10" stroke-width="0.335"/>
          <path id="Path_627" data-name="Path 627" d="M-707.189,501.65a.724.724,0,0,1,.724.725.725.725,0,0,1-.724.724.725.725,0,0,1-.724-.724.724.724,0,0,1,.724-.725" transform="translate(721.833 -399.581)" fill="#161615"/>
          <line id="Line_60" data-name="Line 60" x2="19.282" transform="translate(138.744 102.793)" fill="none" stroke="#161615" stroke-miterlimit="10" stroke-width="0.335"/>
          <path id="Path_628" data-name="Path 628" d="M-491.765,503.1a.725.725,0,0,1-.725-.725.725.725,0,0,1,.725-.724.724.724,0,0,1,.725.724.725.725,0,0,1-.725.724" transform="translate(630.544 -399.581)" fill="#161615"/>
        </g>
        <text id="C-9" data-name="C" transform="translate(11.711 98.185)" fill="#161615" font-size="3" font-family="ArialMT, Arial"><tspan x="0" y="0">C</tspan></text>
        <text id="_5-2" data-name="5" transform="translate(15.466 98.185)" fill="#161615" font-size="3" font-family="ArialMT, Arial"><tspan x="0" y="0">5</tspan></text>
        <text id="C-10" data-name="C" transform="translate(134.849 98.185)" fill="#161615" font-size="3" font-family="ArialMT, Arial"><tspan x="0" y="0">C</tspan></text>
        <text id="_5-3" data-name="5" transform="translate(138.603 98.185)" fill="#161615" font-size="3" font-family="ArialMT, Arial"><tspan x="0" y="0">5</tspan></text>
        <text id="C-11" data-name="C" transform="translate(1.856 199.154)" fill="#161615" font-size="3" font-family="ArialMT, Arial"><tspan x="0" y="0">C</tspan></text>
        <text id="_7" data-name="7" transform="translate(6.761 199.154)" fill="#161615" font-size="3" font-family="ArialMT, Arial"><tspan x="0" y="0">7</tspan></text>
        <text id="C-12" data-name="C" transform="translate(152.706 198.974)" fill="#161615" font-size="3" font-family="ArialMT, Arial"><tspan x="0" y="0">C</tspan></text>
        <text id="_7-2" data-name="7" transform="translate(157.61 198.974)" fill="#161615" font-size="3" font-family="ArialMT, Arial"><tspan x="0" y="0">7</tspan></text>
        <line id="Line_61" data-name="Line 61" x1="18.358" transform="translate(11.711 99.352)" fill="none" stroke="#161615" stroke-miterlimit="10" stroke-width="0.335"/>
        <line id="Line_62" data-name="Line 62" x1="18.358" transform="translate(122.759 99.352)" fill="none" stroke="#161615" stroke-miterlimit="10" stroke-width="0.335"/>
        <g id="Group_135" data-name="Group 135" transform="translate(29.309 98.626)">
          <path id="Path_629" data-name="Path 629" d="M-680.432,350.567a.725.725,0,0,1,.724.725.724.724,0,0,1-.724.724.724.724,0,0,1-.724-.724.725.725,0,0,1,.725-.725" transform="translate(681.157 -350.567)" fill="#161615"/>
        </g>
        <g id="Group_136" data-name="Group 136" transform="translate(1.321 98.686)">
          <path id="Path_630" data-name="Path 630" d="M-519.518,352.017a.725.725,0,0,1-.724-.724.724.724,0,0,1,.724-.724.725.725,0,0,1,.725.724.725.725,0,0,1-.725.724" transform="translate(640.958 -350.569)" fill="#161615"/>
          <path id="Path_631" data-name="Path 631" d="M-713.31,516.857l-7.116,5.962h-9.394" transform="translate(729.82 -421.219)" fill="none" stroke="#161615" stroke-miterlimit="10" stroke-width="0.335"/>
          <path id="Path_632" data-name="Path 632" d="M-702.163,515.807a.724.724,0,0,1,1.02.09.724.724,0,0,1-.09,1.02.724.724,0,0,1-1.021-.09.724.724,0,0,1,.09-1.02" transform="translate(718.18 -420.701)" fill="#161615"/>
          <line id="Line_63" data-name="Line 63" x1="3.642" transform="translate(157.072 101.599)" fill="none" stroke="#161615" stroke-miterlimit="10" stroke-width="0.335"/>
          <path id="Path_633" data-name="Path 633" d="M-497.15,516.857l7.116,5.962h15.9" transform="translate(631.204 -421.219)" fill="none" stroke="#161615" stroke-miterlimit="10" stroke-width="0.335"/>
          <path id="Path_634" data-name="Path 634" d="M-498.1,516.918a.724.724,0,0,1-.09-1.02.724.724,0,0,1,1.021-.09.724.724,0,0,1,.09,1.02.724.724,0,0,1-1.02.09" transform="translate(631.719 -420.702)" fill="#161615"/>
        </g>
        <g id="Group_137" data-name="Group 137" transform="translate(9.659 119.956)">
          <line id="Line_64" data-name="Line 64" x1="3.178" transform="translate(148.367 66.359)" fill="none" stroke="#161615" stroke-miterlimit="10" stroke-width="0.335"/>
          <line id="Line_65" data-name="Line 65" x1="26.139" transform="translate(0 0.725)" fill="none" stroke="#161615" stroke-miterlimit="10" stroke-width="0.335"/>
          <path id="Path_635" data-name="Path 635" d="M-670.471,387.529a.724.724,0,0,1,.724.724.724.724,0,0,1-.724.724.724.724,0,0,1-.724-.724.724.724,0,0,1,.724-.724" transform="translate(696.574 -387.529)" fill="#161615"/>
          <line id="Line_66" data-name="Line 66" x2="26.139" transform="translate(107.899 0.725)" fill="none" stroke="#161615" stroke-miterlimit="10" stroke-width="0.335"/>
          <path id="Path_636" data-name="Path 636" d="M-528.6,388.979a.724.724,0,0,1-.724-.724.724.724,0,0,1,.724-.724.724.724,0,0,1,.724.724.725.725,0,0,1-.724.724" transform="translate(636.468 -387.529)" fill="#161615"/>
          <line id="Line_67" data-name="Line 67" x2="11.032" transform="translate(19.355 57.614)" fill="none" stroke="#161615" stroke-miterlimit="10" stroke-width="0.335"/>
          <path id="Path_637" data-name="Path 637" d="M-682.142,487.892a.725.725,0,0,1-.724-.724.724.724,0,0,1,.724-.724.725.725,0,0,1,.725.724.725.725,0,0,1-.725.724" transform="translate(701.532 -429.554)" fill="#161615"/>
        </g>
        <g id="Group_138" data-name="Group 138" transform="translate(114.035 176.889)">
          <line id="Line_68" data-name="Line 68" x1="10.862" transform="translate(0 0.725)" fill="none" stroke="#161615" stroke-miterlimit="10" stroke-width="0.335"/>
          <path id="Path_638" data-name="Path 638" d="M-515.867,486.443a.724.724,0,0,1,.724.725.724.724,0,0,1-.724.724.724.724,0,0,1-.724-.724.725.725,0,0,1,.724-.725" transform="translate(526.692 -486.443)" fill="#161615"/>
        </g>
        <g id="Group_139" data-name="Group 139" transform="translate(79.16 189.275)">
          <path id="Path_639" data-name="Path 639" d="M-593.575,508.746l39.731,40.915h16.425" transform="translate(594.275 -508.048)" fill="none" stroke="#161615" stroke-miterlimit="10" stroke-width="0.335"/>
          <path id="Path_640" data-name="Path 640" d="M-594.586,508.761a.724.724,0,0,1,.015-1.024.724.724,0,0,1,1.024.015.724.724,0,0,1-.015,1.025.724.724,0,0,1-1.025-.015" transform="translate(594.791 -507.532)" fill="#161615"/>
          <line id="Line_69" data-name="Line 69" x2="26.139" transform="translate(17.371 134.948)" fill="none" stroke="#161615" stroke-miterlimit="10" stroke-width="0.335"/>
          <path id="Path_641" data-name="Path 641" d="M-565.06,742.357a.724.724,0,0,1-.724-.724.725.725,0,0,1,.724-.724.725.725,0,0,1,.725.724.725.725,0,0,1-.725.724" transform="translate(582.467 -606.686)" fill="#161615"/>
        </g>
        <line id="Line_70" data-name="Line 70" x1="26.139" transform="translate(31.195 324.222)" fill="none" stroke="#161615" stroke-miterlimit="10" stroke-width="0.335"/>
        <g id="Group_140" data-name="Group 140" transform="translate(56.628 323.497)">
          <path id="Path_642" data-name="Path 642" d="M-633.124,740.908a.724.724,0,0,1,.724.724.724.724,0,0,1-.724.724.724.724,0,0,1-.724-.724.724.724,0,0,1,.724-.724" transform="translate(633.848 -740.908)" fill="#161615"/>
          <line id="Line_71" data-name="Line 71" x1="14.504" transform="translate(25.103 18.298)" fill="none" stroke="#161615" stroke-miterlimit="10" stroke-width="0.335"/>
          <path id="Path_643" data-name="Path 643" d="M-565.58,771.464a.725.725,0,0,1,.725.724.725.725,0,0,1-.725.724.725.725,0,0,1-.724-.724.724.724,0,0,1,.724-.724" transform="translate(605.151 -753.89)" fill="#161615"/>
        </g>
        <g id="Group_141" data-name="Group 141" transform="translate(9.79 0.077)">
          <line id="Line_72" data-name="Line 72" x2="24.169" transform="translate(47.765 341.719)" fill="none" stroke="#161615" stroke-miterlimit="10" stroke-width="0.335"/>
          <path id="Path_644" data-name="Path 644" d="M-632.7,772.917a.725.725,0,0,1-.724-.725.725.725,0,0,1,.724-.724.725.725,0,0,1,.725.724.725.725,0,0,1-.725.725" transform="translate(680.478 -430.471)" fill="#161615"/>
          <path id="Path_645" data-name="Path 645" d="M-658.291,780.3c-1.141-.191-1.043-1.309-.949-1.977s.416-.8.8-1.66a3.059,3.059,0,0,1,1.116-1.289" transform="translate(691.444 -432.131)" fill="none" stroke="#161615" stroke-linecap="round" stroke-miterlimit="10" stroke-width="0.591"/>
          <path id="Path_646" data-name="Path 646" d="M-654.936,778.167a12.352,12.352,0,0,0-1.906,2.04c-.544.872-1.143,1.906-.925,2.423a1.406,1.406,0,0,0,1.116.844,1.269,1.269,0,0,0,.817-.136" transform="translate(690.817 -433.318)" fill="none" stroke="#161615" stroke-linecap="round" stroke-miterlimit="10" stroke-width="0.591"/>
          <path id="Path_647" data-name="Path 647" d="M-651.244,779.4s-1.007,1.144-1.769,2.175-1.372,1.769-1.361,2.286a1.324,1.324,0,0,0,1.2,1.254c.953.134,1.252.216,1.933-.245a3.385,3.385,0,0,0,.926-.854" transform="translate(689.36 -433.84)" fill="none" stroke="#161615" stroke-linecap="round" stroke-miterlimit="10" stroke-width="0.591"/>
          <path id="Path_648" data-name="Path 648" d="M-655.31,530.083s9.292,19.143,10.792,33.525c1.079,10.343,1.39,18.787,2.909,22.05s7.708,12.65,6.968,48.695c-.113,5.45,2.708,11.536-13.691,29.566a5.9,5.9,0,0,1-.966,1.684,3.952,3.952,0,0,0-1.35,2.2,2.389,2.389,0,0,0,2.492,2.28c1.827-.035,2.865-.537,3.617-1.827s1.575-1.514,2.937-2.9,1.05-3.342,1.719-5.341c.428-1.289,7.559-7.837,8.5-9.11,1.432-1.934.61-5.088.5-6.8-.06-.94-.136-.844-.2-1.62-.319-3.875,1.133-3.363,1.247-5.723.031-.651-.415-4.367-.415-4.367a63.53,63.53,0,0,1,.509-13c1.02-7.05,2.974-16.568,3.4-21.326s-1.445-14.189-1.19-20.137.935-18.778.85-23.45,2.294-12.235,2.379-18.947.271-8.956.66-16.05c.371-6.745.784-12.842.784-12.842s.312-.614.525,0c0,0,.583,8.068.909,13.417.422,6.926.45,8.614.535,15.472.085,6.712,2.465,14.274,2.379,18.947s.595,17.5.85,23.45-1.615,15.379-1.19,20.137,2.379,14.274,3.4,21.326a63.5,63.5,0,0,1,.51,13s-.45,3.716-.416,4.367c.114,2.359,1.566,1.849,1.247,5.722-.064.776-.142.68-.2,1.62-.108,1.715-.931,4.87.5,6.8.943,1.275,8.072,7.822,8.5,9.11.666,2,.359,3.964,1.72,5.341s2.184,1.607,2.937,2.9,1.789,1.792,3.616,1.827a2.39,2.39,0,0,0,2.493-2.28,3.924,3.924,0,0,0-1.35-2.2,5.481,5.481,0,0,1-.967-1.684" transform="translate(689.806 -317.837)" fill="none" stroke="#161615" stroke-miterlimit="10" stroke-width="0.591"/>
          <path id="Path_649" data-name="Path 649" d="M-556.733,546.606s-9.293,19.143-10.793,33.525c-1.079,10.343-1.39,18.787-2.909,22.05s-8.284,12.65-7.544,48.7c.113,5.45-1.615,15.525,13.961,30.14" transform="translate(657.028 -334.935)" fill="none" stroke="#161615" stroke-miterlimit="10" stroke-width="0.591"/>
          <path id="Path_650" data-name="Path 650" d="M-540.964,775.376a3.062,3.062,0,0,1,1.117,1.289c.382.859.7.992.8,1.66s.194,1.786-.949,1.977" transform="translate(641.292 -432.132)" fill="none" stroke="#161615" stroke-linecap="round" stroke-miterlimit="10" stroke-width="0.591"/>
          <path id="Path_651" data-name="Path 651" d="M-544.025,778.167a12.357,12.357,0,0,1,1.906,2.04c.544.872,1.143,1.906.926,2.422a1.407,1.407,0,0,1-1.116.844,1.269,1.269,0,0,1-.817-.136" transform="translate(642.591 -433.318)" fill="none" stroke="#161615" stroke-linecap="round" stroke-miterlimit="10" stroke-width="0.591"/>
          <path id="Path_652" data-name="Path 652" d="M-548.589,779.4s1.008,1.144,1.769,2.175,1.372,1.769,1.36,2.286a1.323,1.323,0,0,1-1.2,1.254c-.953.134-1.252.216-1.933-.245a3.382,3.382,0,0,1-.926-.854" transform="translate(644.92 -433.84)" fill="none" stroke="#161615" stroke-linecap="round" stroke-miterlimit="10" stroke-width="0.591"/>
          <path id="Path_653" data-name="Path 653" d="M-682.669,525.025s-.386.294-.878-.235c-.316-.341-.238-.835.049-1.79a5.379,5.379,0,0,1,1-2.131,17.592,17.592,0,0,1,2.2-2.3c2.582-1.865,10.35-9.15,10.921-11.3s2.074-6.235,2.59-8.336a28.755,28.755,0,0,0,.443-5.724c-.34-4.935-2.392-11.243-4.18-22.135a162.4,162.4,0,0,1-1.192-32.932c.6-6.042-.086-11.658-1.7-19.741s-5.533-17.7-7.234-26.889-3.235-24.422-2.383-32.507a227.873,227.873,0,0,1,4.425-28.421,56.248,56.248,0,0,0,1.275-21.869c-.6-6.044-2.1-13.88-2.1-13.88a14.75,14.75,0,0,0-1.475,6.392,59.721,59.721,0,0,1-1.275,10.807c-.764,4.507-1.021,10.466-2.638,17.529s-6.128,18.635-7.49,22.209c0,0-2.267,5.719-1.547,8.925a11.964,11.964,0,0,1,.563,2.643,38.345,38.345,0,0,1-.48,9.547c-.337,1.393-.217,2.094.127,6.06.32,3.7,1.639,6.919-.14,7.33-1.1.254-1.534-3.061-1.99-5.2-.525-2.449-1.15-4.52-1.473-4.617-.85-.254-.288,3.832-.137,6.755.169,3.259.383,5.925-1.055,5.944-1.148.019-1.614-.7-1.664-2.215-.085-2.533-.576-10.3-1.322-10.1s-1.031,3.525-1.247,6.161-.164,7.07-2.166,6.713c-1.465-.26-1-3.385-.931-6.188s.529-7.592-.15-7.916-1.594,3.414-2.3,5.686-.857,4.922-2.4,4.575c-1.1-.245-1-2.536-.593-4.033s.745-3.336,1.383-5.49a31.437,31.437,0,0,0,1.166-7.2c-.056-1.377-1.414-.415-2.405,1.529s-1.975,3.474-3.075,3.457-1.232-1.334-.44-2.723c.71-1.246,1.045-3.257,2.969-6.758,1.6-2.911,3.115-3.238,4.654-4.736,3.531-3.435,3.588-10.781,3.588-10.781.255-4.935.6-17.785.511-22.125s1.532-10.3,2.465-13.87.089-8.509,0-13.615,1.532-17.1,1.106-23.826-.426-13.275-.426-13.275c0-.143.006-.284.013-.425a19.623,19.623,0,0,1,8.5-15.15c3.49-2.27,6.979-2.978,11.661-5.021s12.767-4.51,16.768-6.467,3.323-9.22,3.263-11.346a8.269,8.269,0,0,1-1.816-3.389,41.926,41.926,0,0,0-1.531-4.07,2.148,2.148,0,0,1-.889-.127,4.322,4.322,0,0,1-1-1.064c-.668-.85-.277-2.185-.859-3.549-1.125-2.638-1.911-5.833-.557-6.418a1.463,1.463,0,0,1,1.275.042s-.9-13.895,2.387-18.934c4.478-6.863,13.031-7.043,15.049-7.043s10.448.178,14.925,7.042c3.287,5.039,2.387,18.934,2.387,18.934a1.459,1.459,0,0,1,1.275-.041c1.354.585.568,3.78-.557,6.416-.583,1.364-.45,2.55-.859,3.55-.3.742-.518,1.15-1.2,1.217a4.337,4.337,0,0,1-.689-.026s-.919,2.279-1.531,4.07a10.664,10.664,0,0,1-1.812,3.414l-.034.855c-.061,2.126-.737,8.511,3.263,10.469s11.405,4.425,16.087,6.467,8.233,2.658,11.661,5.021a19.9,19.9,0,0,1,8.5,15.15c.006.14.01.283.012.425,0,0,0,6.553-.426,13.275s1.192,18.721,1.107,23.826-.93,10.041,0,13.615,2.55,9.53,2.465,13.87.506,22.217.506,22.217.062,7.35,3.592,10.781c1.539,1.5,3.055,1.826,4.655,4.735,1.924,3.5,2.258,5.513,2.969,6.758.792,1.388.658,2.71-.441,2.723s-2.082-1.513-3.075-3.458-2.348-2.9-2.405-1.528a31.369,31.369,0,0,0,1.166,7.2c.639,2.154.975,3.993,1.383,5.49s.5,3.787-.594,4.032c-1.543.35-1.692-2.3-2.4-4.575s-1.621-6.009-2.3-5.686-.225,5.114-.15,7.915.536,5.925-.93,6.19c-2,.356-1.95-4.075-2.166-6.715s-.5-5.967-1.247-6.161-1.237,7.575-1.322,10.1c-.049,1.52-.516,2.233-1.663,2.213-1.439-.023-1.225-2.684-1.056-5.943.15-2.925.715-7.008-.136-6.756-.324.1-.953,2.169-1.474,4.616-.456,2.141-.889,5.455-1.989,5.2-1.781-.411-.461-3.633-.14-7.33.344-3.966.463-4.667.126-6.059a38.345,38.345,0,0,1-.48-9.548,11.948,11.948,0,0,1,.563-2.643c.72-3.2-1.547-9.018-1.547-9.018-1.362-3.574-5.872-15.15-7.49-22.209s-1.875-13.019-2.638-17.529a59.817,59.817,0,0,1-1.275-10.807,16.769,16.769,0,0,0-1.644-6.846s-1.335,8.292-1.931,14.334a56.368,56.368,0,0,0,1.275,21.869,227.852,227.852,0,0,1,4.425,28.421c.851,8.084-.681,23.316-2.383,32.507s-5.618,18.806-7.235,26.889-2.3,13.7-1.7,19.742a162.405,162.405,0,0,1-1.192,32.932c-1.787,10.892-3.839,17.2-4.18,22.135a28.718,28.718,0,0,0,.442,5.724c.516,2.1,2.017,6.184,2.59,8.336s8.339,9.435,10.922,11.3a17.6,17.6,0,0,1,2.2,2.3,5.4,5.4,0,0,1,1,2.131c.287.955.365,1.45.049,1.79-.491.529-.877.235-.877.235" transform="translate(715.093 -179.469)" fill="none" stroke="#161615" stroke-linecap="round" stroke-linejoin="round" stroke-width="0.591"/>
          <path id="Path_654" data-name="Path 654" d="M-591.809,292.32a14.106,14.106,0,0,1,5.984-1.043c2.212,0,8.8,1.043,8.8,1.043" transform="translate(662.856 -226.973)" fill="none" stroke="#161615" stroke-linecap="round" stroke-linejoin="round" stroke-width="0.591"/>
          <path id="Path_655" data-name="Path 655" d="M-615.581,292.32a14.106,14.106,0,0,0-5.984-1.043c-2.212,0-8.8,1.043-8.8,1.043" transform="translate(679.193 -226.973)" fill="none" stroke="#161615" stroke-linecap="round" stroke-linejoin="round" stroke-width="0.591"/>
          <path id="Path_656" data-name="Path 656" d="M-618.519,256.741c1.87,2.3,6.52,7.236,11.887,7.236,5.712,0,10.35-5.033,12.1-7.315" transform="translate(674.183 -212.265)" fill="none" stroke="#161615" stroke-linecap="round" stroke-miterlimit="10" stroke-width="0.591"/>
          <path id="Path_657" data-name="Path 657" d="M-597.3,241.213a1.543,1.543,0,0,1-.164,1.089c-.362.544-.979.348-1.463.394s-.695.7-1.626.7-1.143-.651-1.627-.7-1.1.15-1.464-.394a1.543,1.543,0,0,1-.163-1.089" transform="translate(667.946 -205.702)" fill="none" stroke="#161615" stroke-linecap="round" stroke-linejoin="round" stroke-width="0.591"/>
          <path id="Path_658" data-name="Path 658" d="M-596.933,252.048a2.588,2.588,0,0,1-1.633.15,8.307,8.307,0,0,0-1.686-.472c-.329,0-.879.477-1.207.477h-.049c-.327,0-.877-.477-1.206-.477a8.308,8.308,0,0,0-1.686.472,2.586,2.586,0,0,1-1.633-.15" transform="translate(668.877 -210.169)" fill="none" stroke="#161615" stroke-linecap="round" stroke-linejoin="round" stroke-width="0.591"/>
          <path id="Path_659" data-name="Path 659" d="M-601.745,255.368a4.054,4.054,0,0,0,2.191.75,3.284,3.284,0,0,0,2.032-.75" transform="translate(667.055 -211.716)" fill="none" stroke="#161615" stroke-linecap="round" stroke-linejoin="round" stroke-width="0.591"/>
          <path id="Path_660" data-name="Path 660" d="M-599.172,249.7a1.05,1.05,0,0,0,.644.284.947.947,0,0,0,.62-.284" transform="translate(665.962 -209.307)" fill="none" stroke="#161615" stroke-linecap="round" stroke-linejoin="round" stroke-width="0.591"/>
          <path id="Path_661" data-name="Path 661" d="M-617.291,224.843a10.356,10.356,0,0,1,2.889-1.365c2.061-.52,3.9,1.263,3.9,1.263" transform="translate(673.646 -198.127)" fill="none" stroke="#161615" stroke-linecap="round" stroke-linejoin="round" stroke-width="0.591"/>
          <path id="Path_662" data-name="Path 662" d="M-611.45,217.18a10.008,10.008,0,0,0-3.763-1.256,7.373,7.373,0,0,0-5.2,1.95,18.894,18.894,0,0,1,4.643-1.411c2.063-.233,3.541,1.285,4.107,1.617s.675-.658.218-.9" transform="translate(674.973 -194.957)" fill="#171716"/>
          <path id="Path_663" data-name="Path 663" d="M-611.45,217.18a10.008,10.008,0,0,0-3.763-1.256,7.373,7.373,0,0,0-5.2,1.95,18.894,18.894,0,0,1,4.643-1.411c2.063-.233,3.541,1.285,4.107,1.617S-610.995,217.421-611.45,217.18Z" transform="translate(674.973 -194.957)" fill="none" stroke="#161615" stroke-miterlimit="10" stroke-width="0.591"/>
          <path id="Path_664" data-name="Path 664" d="M-610.206,225.715a.347.347,0,0,0,.155-.038.58.58,0,0,1-.173.034Z" transform="translate(670.645 -199.101)" fill="none" stroke="#161615" stroke-miterlimit="10" stroke-width="0.591"/>
          <path id="Path_665" data-name="Path 665" d="M-611.138,223.65c-.236-.058-.481-.106-.737-.144a3.681,3.681,0,0,0-1.637.144,1.425,1.425,0,0,0-.375.953,1.524,1.524,0,0,0,1.562,1.481,1.523,1.523,0,0,0,1.562-1.481,1.425,1.425,0,0,0-.375-.953m-.467,1.089a.347.347,0,0,1-.155.038l-.019,0c-.007,0-.013,0-.019,0a.57.57,0,0,1-.571-.569.571.571,0,0,1,.571-.571.57.57,0,0,1,.569.571.566.566,0,0,1-.375.531" transform="translate(672.2 -198.164)" fill="#171716"/>
          <path id="Path_666" data-name="Path 666" d="M-611.138,223.65c-.236-.058-.481-.106-.737-.144a3.681,3.681,0,0,0-1.637.144,1.425,1.425,0,0,0-.375.953,1.524,1.524,0,0,0,1.562,1.481,1.523,1.523,0,0,0,1.562-1.481A1.425,1.425,0,0,0-611.138,223.65Zm-.467,1.089a.347.347,0,0,1-.154.038l-.019,0c-.007,0-.013,0-.019,0a.57.57,0,0,1-.571-.569.571.571,0,0,1,.571-.571.57.57,0,0,1,.569.571A.565.565,0,0,1-611.605,224.739Z" transform="translate(672.2 -198.164)" fill="none" stroke="#161615" stroke-miterlimit="10" stroke-width="0.591"/>
          <path id="Path_667" data-name="Path 667" d="M-584.562,224.843a10.356,10.356,0,0,0-2.889-1.365c-2.062-.52-3.9,1.263-3.9,1.263" transform="translate(662.65 -198.127)" fill="none" stroke="#161615" stroke-linecap="round" stroke-linejoin="round" stroke-width="0.591"/>
          <path id="Path_668" data-name="Path 668" d="M-592.22,217.18a10.007,10.007,0,0,1,3.763-1.256,7.373,7.373,0,0,1,5.2,1.95,18.892,18.892,0,0,0-4.642-1.411c-2.062-.233-3.541,1.286-4.107,1.617s-.675-.658-.218-.9" transform="translate(663.145 -194.957)" fill="#171716"/>
          <path id="Path_669" data-name="Path 669" d="M-592.22,217.18a10.007,10.007,0,0,1,3.763-1.256,7.373,7.373,0,0,1,5.2,1.95,18.892,18.892,0,0,0-4.642-1.411c-2.062-.233-3.541,1.286-4.107,1.617S-592.675,217.421-592.22,217.18Z" transform="translate(663.144 -194.957)" fill="none" stroke="#161615" stroke-miterlimit="10" stroke-width="0.591"/>
          <path id="Path_670" data-name="Path 670" d="M-586.763,225.715a.347.347,0,0,1-.154-.038.58.58,0,0,0,.173.035l-.019,0Z" transform="translate(660.767 -199.101)" fill="none" stroke="#161615" stroke-miterlimit="10" stroke-width="0.591"/>
          <path id="Path_671" data-name="Path 671" d="M-588.38,224.6a1.523,1.523,0,0,0,1.562,1.481,1.523,1.523,0,0,0,1.562-1.481,1.426,1.426,0,0,0-.375-.952,3.669,3.669,0,0,0-1.636-.145c-.258.038-.5.088-.739.144a1.425,1.425,0,0,0-.375.953m.465-.4a.57.57,0,0,1,.569-.571.571.571,0,0,1,.571.571.57.57,0,0,1-.571.569h-.038a.349.349,0,0,1-.154-.038.565.565,0,0,1-.375-.531" transform="translate(661.391 -198.164)" fill="#171716"/>
          <path id="Path_672" data-name="Path 672" d="M-588.38,224.6a1.523,1.523,0,0,0,1.562,1.481,1.523,1.523,0,0,0,1.562-1.481,1.425,1.425,0,0,0-.375-.952,3.669,3.669,0,0,0-1.636-.145c-.258.038-.5.088-.739.144a1.425,1.425,0,0,0-.374.953Zm.465-.4a.57.57,0,0,1,.569-.571.571.571,0,0,1,.571.571.57.57,0,0,1-.571.569h-.038a.349.349,0,0,1-.154-.038.565.565,0,0,1-.378-.531Z" transform="translate(661.391 -198.164)" fill="none" stroke="#161615" stroke-miterlimit="10" stroke-width="0.591"/>
          <path id="Path_673" data-name="Path 673" d="M-594.5,272.44s-4.227,3.665-6.533,3.922a10.767,10.767,0,0,0-4.425,1.794,3.288,3.288,0,0,1-1.48.641h-1.253a3.288,3.288,0,0,1-1.48-.641,10.763,10.763,0,0,0-4.425-1.794c-2.306-.257-6.311-3.922-6.311-3.922" transform="translate(674.986 -218.969)" fill="none" stroke="#161615" stroke-linecap="round" stroke-linejoin="round" stroke-width="0.591"/>
          <path id="Path_674" data-name="Path 674" d="M-590.187,287.061a5.963,5.963,0,0,1-5.127,2.947c-3.588,0-18.776-.521-18.776-.521s-3.667-.15-4.263.975a3.4,3.4,0,0,1-2.625,1.153,3.4,3.4,0,0,1-2.625-1.154c-.6-1.125-4.263-.975-4.263-.975s-15.189.525-18.776.521a5.963,5.963,0,0,1-5.127-2.947" transform="translate(688.311 -225.181)" fill="none" stroke="#161615" stroke-linecap="round" stroke-linejoin="round" stroke-width="0.591"/>
          <path id="Path_675" data-name="Path 675" d="M-687.376,297.385s-4.955,11.236-4.955,15.975c0,3.1.861,15.761.734,18.2s-1.153,12.814-1.281,14.479-.512,13.839-.769,15.761-2.446,8.713-2.568,15.632,1.031,26.78,1.031,26.78-.6,12.3-9,14.242" transform="translate(710.459 -229.415)" fill="none" stroke="#161615" stroke-linecap="round" stroke-linejoin="round" stroke-width="0.591"/>
          <path id="Path_676" data-name="Path 676" d="M-522.48,297.385s4.955,11.236,4.955,15.975c0,3.1-.861,15.761-.734,18.2s1.154,12.814,1.281,14.479.512,13.839.769,15.761,2.446,8.713,2.568,15.632-1.031,26.78-1.031,26.78.857,12.383,9.262,14.325" transform="translate(633.497 -229.415)" fill="none" stroke="#161615" stroke-linecap="round" stroke-linejoin="round" stroke-width="0.591"/>
          <path id="Path_677" data-name="Path 677" d="M-584.3,430.083s-1.739-17.367-1.753-21.045-7.594-34.32-7.969-40.215c-.375-5.84,1.05-56.314-6.557-61.376-6.048-4.025-10.147-.708-37.389-.257-27.242-.45-31.342-3.768-37.389.257-7.609,5.063-6.185,55.537-6.557,61.376-.375,5.895-7.955,36.538-7.969,40.215s-1.494,21.045-1.494,21.045" transform="translate(705.017 -232.84)" fill="none" stroke="#161615" stroke-linecap="round" stroke-linejoin="round" stroke-width="0.591"/>
          <path id="Path_678" data-name="Path 678" d="M-584.948,414.848s-12.986-27.4-14.27-33.937-2.184-37.927-2.184-39.593-2.183-19.092-2.183-19.092-.385-3.075-4.238-3.075c-2.7,0-28.42.763-29.428.769s-26.729-.764-29.428-.769c-3.853-.006-3.468,3.075-3.468,3.075s-2.183,17.426-2.183,19.092-.9,33.059-2.183,39.593-14.27,33.937-14.27,33.937" transform="translate(703.916 -238.653)" fill="none" stroke="#161615" stroke-linecap="round" stroke-linejoin="round" stroke-width="0.591"/>
          <path id="Path_679" data-name="Path 679" d="M-592.412,359.124s2.159-22.579,2.856-23.85c0,0-1.234-4.089-7.019-4.089s-26.652,1.025-27.276,1.154c-.625-.128-21.491-1.154-27.276-1.154s-7.02,4.089-7.02,4.089c.7,1.275,2.856,23.85,2.856,23.85" transform="translate(690.899 -243.788)" fill="none" stroke="#161615" stroke-linecap="round" stroke-linejoin="round" stroke-width="0.591"/>
          <path id="Path_680" data-name="Path 680" d="M-590.215,348.425s-.088-4.089-5.85-4.089-26.558,1.025-27.182,1.154c-.622-.128-21.417-1.154-27.181-1.154s-6.024,3.627-6.024,3.627" transform="translate(690.297 -249.374)" fill="none" stroke="#161615" stroke-linecap="round" stroke-linejoin="round" stroke-width="0.591"/>
          <path id="Path_681" data-name="Path 681" d="M-655.549,356.8s10.59,3.461,17.079,3.461c0,0,17.334-1.282,15.884-1.154" transform="translate(689.876 -254.659)" fill="none" stroke="#161615" stroke-linecap="round" stroke-linejoin="round" stroke-width="0.591"/>
          <path id="Path_682" data-name="Path 682" d="M-565.911,356.8s-10.015,3.461-16.5,3.461c0,0-17.334-1.282-15.884-1.154" transform="translate(665.665 -254.659)" fill="none" stroke="#161615" stroke-linecap="round" stroke-linejoin="round" stroke-width="0.591"/>
          <path id="Path_683" data-name="Path 683" d="M-653.994,371.626s18.3,2.644,32.683,2.836" transform="translate(689.217 -260.946)" fill="none" stroke="#161615" stroke-linecap="round" stroke-linejoin="round" stroke-width="0.591"/>
          <path id="Path_684" data-name="Path 684" d="M-566.273,371.626a251.425,251.425,0,0,1-30.893,2.836" transform="translate(665.147 -260.946)" fill="none" stroke="#161615" stroke-linecap="round" stroke-linejoin="round" stroke-width="0.591"/>
          <path id="Path_685" data-name="Path 685" d="M-652.131,385.223s17.227,3.622,31.613,3.815" transform="translate(688.427 -266.711)" fill="none" stroke="#161615" stroke-linecap="round" stroke-linejoin="round" stroke-width="0.591"/>
          <path id="Path_686" data-name="Path 686" d="M-567.168,385.223s-15.613,3.622-30,3.815" transform="translate(665.146 -266.711)" fill="none" stroke="#161615" stroke-linecap="round" stroke-linejoin="round" stroke-width="0.591"/>
          <path id="Path_687" data-name="Path 687" d="M-650.042,399.253s17.038,5.4,29.432,5.4" transform="translate(687.541 -272.659)" fill="none" stroke="#161615" stroke-linecap="round" stroke-linejoin="round" stroke-width="0.591"/>
          <path id="Path_688" data-name="Path 688" d="M-568.908,398.929s-17.566,5.587-29.96,5.587" transform="translate(665.866 -272.521)" fill="none" stroke="#161615" stroke-linecap="round" stroke-linejoin="round" stroke-width="0.591"/>
          <path id="Path_689" data-name="Path 689" d="M-648.981,409.932s16.425,7.433,28.822,7.433" transform="translate(687.091 -277.186)" fill="none" stroke="#161615" stroke-linecap="round" stroke-linejoin="round" stroke-width="0.591"/>
          <path id="Path_690" data-name="Path 690" d="M-569.493,409.142c.18-.02-14.891,8.08-29.377,7.888" transform="translate(665.866 -276.85)" fill="none" stroke="#161615" stroke-linecap="round" stroke-linejoin="round" stroke-width="0.591"/>
          <path id="Path_691" data-name="Path 691" d="M-648.983,421.428c-.155-.065,5.182,1.976,10.209,4.451,4.31,2.122,8.091,4.858,13.741,5.591,1.066.138,3.847-.963,4.875-.963" transform="translate(687.093 -282.058)" fill="none" stroke="#161615" stroke-linecap="round" stroke-linejoin="round" stroke-width="0.591"/>
          <path id="Path_692" data-name="Path 692" d="M-569.8,420.5a72.528,72.528,0,0,0-7.372,3.625c-4.786,2.775-10.237,6.239-17.2,6.982-.942.1-3.6-1-4.5-1" transform="translate(665.865 -281.664)" fill="none" stroke="#161615" stroke-linecap="round" stroke-linejoin="round" stroke-width="0.591"/>
          <path id="Path_693" data-name="Path 693" d="M-649.983,432.547c-.155-.065,5.757,2.55,10.784,5.025,4.31,2.122,8.091,7.158,13.741,7.891,1.067.138,3.847.187,4.875.187" transform="translate(687.517 -286.77)" fill="none" stroke="#161615" stroke-linecap="round" stroke-linejoin="round" stroke-width="0.591"/>
          <path id="Path_694" data-name="Path 694" d="M-568.945,432.306a85.021,85.021,0,0,0-8.783,4.14c-4.786,2.775-9.679,8.2-16.639,8.948-.942.1-3.6.154-4.5.154" transform="translate(665.866 -286.669)" fill="none" stroke="#161615" stroke-linecap="round" stroke-linejoin="round" stroke-width="0.591"/>
          <path id="Path_695" data-name="Path 695" d="M-651.765,441.829s6.63,1.531,9.536,4.637c3.394,3.627,11.165,12.956,20.311,13.085" transform="translate(688.271 -290.703)" fill="none" stroke="#161615" stroke-linecap="round" stroke-linejoin="round" stroke-width="0.591"/>
          <path id="Path_696" data-name="Path 696" d="M-568.352,441.829s-8.283,1.923-11.205,5.642c-3.182,4.05-11.164,11.95-20.311,12.075" transform="translate(666.293 -290.703)" fill="none" stroke="#161615" stroke-linecap="round" stroke-linejoin="round" stroke-width="0.591"/>
          <path id="Path_697" data-name="Path 697" d="M-653.424,449.139a20.319,20.319,0,0,1,7.615,4.592c3.394,3.626,9.35,16.343,23.186,17.111" transform="translate(688.974 -293.799)" fill="none" stroke="#161615" stroke-linecap="round" stroke-linejoin="round" stroke-width="0.591"/>
          <path id="Path_698" data-name="Path 698" d="M-567.394,449.139c.025-.022-6.075,1.634-9.287,5.6-3.241,4.005-8.674,16.1-23.186,16.1" transform="translate(666.293 -293.799)" fill="none" stroke="#161615" stroke-linecap="round" stroke-linejoin="round" stroke-width="0.591"/>
          <path id="Path_699" data-name="Path 699" d="M-656.454,464.557s4.84,10.256,11.45,13.42c11.615,5.56,21.127,19.385,21.04,20.9" transform="translate(690.259 -300.326)" fill="none" stroke="#161615" stroke-linecap="round" stroke-linejoin="round" stroke-width="0.591"/>
          <path id="Path_700" data-name="Path 700" d="M-564.522,464.557s-4.84,10.256-11.45,13.42c-11.615,5.56-21.127,19.385-21.04,20.9" transform="translate(665.085 -300.326)" fill="none" stroke="#161615" stroke-linecap="round" stroke-linejoin="round" stroke-width="0.591"/>
          <path id="Path_701" data-name="Path 701" d="M-596.646,503.3c0,3.335-3.18,6.039-6.394,6.039s-6.393-2.7-6.393-6.039,3.18-4.888,6.393-4.888S-596.646,499.96-596.646,503.3Z" transform="translate(670.322 -314.696)" fill="none" stroke="#161615" stroke-linecap="round" stroke-linejoin="round" stroke-width="0.591"/>
          <path id="Path_702" data-name="Path 702" d="M-658.292,483.612s10.556,15.5,13.082,18.182,19.414,21.4,19.4,29.3" transform="translate(691.037 -308.391)" fill="none" stroke="#161615" stroke-linecap="round" stroke-linejoin="round" stroke-width="0.591"/>
          <path id="Path_703" data-name="Path 703" d="M-561.68,483.612s-10.556,15.5-13.082,18.182-19.414,21.4-19.4,29.3" transform="translate(663.88 -308.391)" fill="none" stroke="#161615" stroke-linecap="round" stroke-linejoin="round" stroke-width="0.591"/>
          <path id="Path_704" data-name="Path 704" d="M-659.711,507.888s25.725,35.659,26.443,47.162-.958,16.679-.887,22.43,2.684,31.008,3.869,34.484" transform="translate(691.636 -318.608)" fill="none" stroke="#161615" stroke-linecap="round" stroke-linejoin="round" stroke-width="0.591"/>
          <path id="Path_705" data-name="Path 705" d="M-558.667,507.888s-25.725,35.659-26.443,47.162.958,16.679.887,22.43-2.684,31.008-3.869,34.484" transform="translate(661.301 -318.608)" fill="none" stroke="#161615" stroke-linecap="round" stroke-linejoin="round" stroke-width="0.591"/>
          <path id="Path_706" data-name="Path 706" d="M-655.871,733.1s14.85-11.783,15.911-20.6c.641-5.334.1-27.415-6.212-36.625" transform="translate(690.001 -389.857)" fill="none" stroke="#161615" stroke-linecap="round" stroke-miterlimit="10" stroke-width="0.591"/>
          <path id="Path_707" data-name="Path 707" d="M-552.956,733.1s-15.427-11.783-16.486-20.6c-.641-5.334.478-27.415,6.788-36.625" transform="translate(653.449 -389.857)" fill="none" stroke="#161615" stroke-linecap="round" stroke-miterlimit="10" stroke-width="0.591"/>
          <path id="Path_708" data-name="Path 708" d="M-629.441,224.3c-.069,1.866,2.508,7.8,2.508,7.8a10.345,10.345,0,0,0,3.7,4.827,16.718,16.718,0,0,1,5.55,6.951c.923,2.124.962,6.156,6.251,6.156,4.967,0,5.614-4.032,6.539-6.156a16.761,16.761,0,0,1,5.55-6.951,10.35,10.35,0,0,0,3.7-4.827s2.607-6.313,2.6-7.8" transform="translate(678.824 -198.516)" fill="none" stroke="#161615" stroke-linecap="round" stroke-linejoin="round" stroke-width="0.591"/>
        </g>
        <text id="C-13" data-name="C" transform="translate(50.136 42.869)" fill="#161615" font-size="3" font-family="ArialMT, Arial"><tspan x="0" y="0">C</tspan></text>
        <text id="_2-4" data-name="2" transform="translate(55.048 42.869)" fill="#161615" font-size="3" font-family="ArialMT, Arial"><tspan x="0" y="0">2</tspan></text>
        <text id="C-14" data-name="C" transform="translate(74.075 56.272)" fill="#161615" font-size="3" font-family="ArialMT, Arial"><tspan x="0" y="0">C</tspan></text>
        <text id="_3-3" data-name="3" transform="translate(78.17 56.272)" fill="#161615" font-size="3" font-family="ArialMT, Arial"><tspan x="0" y="0">3</tspan></text>
        <text id="_3-4" data-name="3" transform="translate(78.221 56.272)" fill="#161615" font-size="3" font-family="ArialMT, Arial"><tspan x="0" y="0">3</tspan></text>
        <text id="C-15" data-name="C" transform="translate(73.319 63.777)" fill="#161615" font-size="3" font-family="ArialMT, Arial"><tspan x="0" y="0">C</tspan></text>
        <text id="_4-3" data-name="4" transform="translate(77.414 63.777)" fill="#161615" font-size="3" font-family="ArialMT, Arial"><tspan x="0" y="0">4</tspan></text>
        <text id="Th1_3" data-name="Th1 " transform="translate(72.752 79.636)" fill="#161615" font-size="3" font-family="ArialMT, Arial"><tspan x="0" y="0">Th1</tspan></text>
        <text id="T" transform="translate(72.991 85.588)" fill="#161615" font-size="3" font-family="ArialMT, Arial"><tspan x="0" y="0">T</tspan></text>
        <text id="h" transform="translate(76.11 86.338)" fill="#161615" font-size="3" font-family="ArialMT, Arial"><tspan x="0" y="0">h</tspan></text>
        <text id="_2-5" data-name="2" transform="translate(79.359 86.338)" fill="#161615" font-size="3" font-family="ArialMT, Arial"><tspan x="0" y="0">2</tspan></text>
        <text id="T-2" data-name="T" transform="translate(73.534 92.684)" fill="#161615" font-size="3" font-family="ArialMT, Arial"><tspan x="0" y="0">T</tspan></text>
        <text id="h-2" data-name="h" transform="translate(76.654 93.435)" fill="#161615" font-size="3" font-family="ArialMT, Arial"><tspan x="0" y="0">h</tspan></text>
        <text id="_3-5" data-name="3" transform="translate(79.902 93.435)" fill="#161615" font-size="3" font-family="ArialMT, Arial"><tspan x="0" y="0">3</tspan></text>
        <text id="T-3" data-name="T" transform="translate(72.958 100.522)" fill="#161615" font-size="3" font-family="ArialMT, Arial"><tspan x="0" y="0">T</tspan></text>
        <text id="h-3" data-name="h" transform="translate(76.078 101.273)" fill="#161615" font-size="3" font-family="ArialMT, Arial"><tspan x="0" y="0">h</tspan></text>
        <text id="_4-4" data-name="4" transform="translate(79.326 101.273)" fill="#161615" font-size="3" font-family="ArialMT, Arial"><tspan x="0" y="0">4</tspan></text>
        <text id="T-4" data-name="T" transform="translate(72.958 109.038)" fill="#161615" font-size="3" font-family="ArialMT, Arial"><tspan x="0" y="0">T</tspan></text>
        <text id="h-4" data-name="h" transform="translate(76.078 109.788)" fill="#161615" font-size="3" font-family="ArialMT, Arial"><tspan x="0" y="0">h</tspan></text>
        <text id="_5-4" data-name="5" transform="translate(79.326 109.788)" fill="#161615" font-size="3" font-family="ArialMT, Arial"><tspan x="0" y="0">5</tspan></text>
        <text id="T-5" data-name="T" transform="translate(72.958 117.784)" fill="#161615" font-size="3" font-family="ArialMT, Arial"><tspan x="0" y="0">T</tspan></text>
        <text id="h-5" data-name="h" transform="translate(76.078 118.534)" fill="#161615" font-size="3" font-family="ArialMT, Arial"><tspan x="0" y="0">h</tspan></text>
        <text id="_6-5" data-name="6" transform="translate(79.326 118.534)" fill="#161615" font-size="3" font-family="ArialMT, Arial"><tspan x="0" y="0">6</tspan></text>
        <text id="T-6" data-name="T" transform="translate(72.958 127.539)" fill="#161615" font-size="3" font-family="ArialMT, Arial"><tspan x="0" y="0">T</tspan></text>
        <text id="h-6" data-name="h" transform="translate(76.078 128.289)" fill="#161615" font-size="3" font-family="ArialMT, Arial"><tspan x="0" y="0">h</tspan></text>
        <text id="_7-3" data-name="7" transform="translate(79.326 128.289)" fill="#161615" font-size="3" font-family="ArialMT, Arial"><tspan x="0" y="0">7</tspan></text>
        <text id="T-7" data-name="T" transform="translate(72.958 136.492)" fill="#161615" font-size="3" font-family="ArialMT, Arial"><tspan x="0" y="0">T</tspan></text>
        <text id="h-7" data-name="h" transform="translate(76.078 137.242)" fill="#161615" font-size="3" font-family="ArialMT, Arial"><tspan x="0" y="0">h</tspan></text>
        <text id="_8-3" data-name="8" transform="translate(79.326 137.242)" fill="#161615" font-size="3" font-family="ArialMT, Arial"><tspan x="0" y="0">8</tspan></text>
        <text id="T-8" data-name="T" transform="translate(72.958 145.417)" fill="#161615" font-size="3" font-family="ArialMT, Arial"><tspan x="0" y="0">T</tspan></text>
        <text id="h-8" data-name="h" transform="translate(76.078 146.168)" fill="#161615" font-size="3" font-family="ArialMT, Arial"><tspan x="0" y="0">h</tspan></text>
        <text id="_9" data-name="9" transform="translate(79.326 146.168)" fill="#161615" font-size="3" font-family="ArialMT, Arial"><tspan x="0" y="0">9</tspan></text>
        <text id="T-9" data-name="T" transform="translate(71.539 153.947)" fill="#161615" font-size="3" font-family="ArialMT, Arial"><tspan x="0" y="0">T</tspan></text>
        <text id="h-9" data-name="h" transform="translate(74.659 154.697)" fill="#161615" font-size="3" font-family="ArialMT, Arial"><tspan x="0" y="0">h</tspan></text>
        <text id="_10" data-name="10" transform="translate(77.909 153.947)" fill="#161615" font-size="3" font-family="ArialMT, Arial"><tspan x="0" y="0">10</tspan></text>
        <text id="T-10" data-name="T" transform="translate(71.728 164.144)" fill="#161615" font-size="3" font-family="ArialMT, Arial"><tspan x="0" y="0">T</tspan></text>
        <text id="h-10" data-name="h" transform="translate(74.848 164.895)" fill="#161615" font-size="3" font-family="ArialMT, Arial"><tspan x="0" y="0">h</tspan></text>
        <text id="_1-2" data-name="1" transform="translate(78.096 164.895)" fill="#161615" font-size="3" font-family="ArialMT, Arial"><tspan x="0" y="0">1</tspan></text>
        <text id="_1-3" data-name="1" transform="translate(80.318 164.895)" fill="#161615" font-size="3" font-family="ArialMT, Arial"><tspan x="0" y="0">1</tspan></text>
        <text id="T-11" data-name="T" transform="translate(70.963 173.434)" fill="#161615" font-size="3" font-family="ArialMT, Arial"><tspan x="0" y="0">T</tspan></text>
        <text id="h-11" data-name="h" transform="translate(74.332 174.12)" fill="#161615" font-size="3" font-family="ArialMT, Arial"><tspan x="0" y="0">h</tspan></text>
        <text id="_12" data-name="12" transform="translate(77.333 173.434)" fill="#161615" font-size="3" font-family="ArialMT, Arial"><tspan x="0" y="0">12</tspan></text>
      </g>
    </g>
  </g>
</svg>
