<svg xmlns="http://www.w3.org/2000/svg" xmlns:xlink="http://www.w3.org/1999/xlink" width="72" height="72" viewBox="0 0 72 72">
  <defs>
    <clipPath id="clip-halvsol">
      <rect width="72" height="72"/>
    </clipPath>
  </defs>
  <g id="halvsol" clip-path="url(#clip-halvsol)">
    <rect width="72" height="72" fill="rgba(255,255,255,0)"/>
    <g id="Halvsol-2" data-name="Halvsol" transform="translate(-0.557 0)">
      <g id="Halvsol-3" data-name="Halvsol" transform="translate(2.557 18.001)">
        <path id="Path_582" data-name="Path 582" d="M57.154,59.562a17.615,17.615,0,0,0-35.229-.257v1.114H57.154Z" transform="translate(-5.689 -23.992)" fill="#003da5"/>
        <path id="Path_583" data-name="Path 583" d="M42.4,36.6a.771.771,0,0,0,.771-.771h0V21.772a.771.771,0,0,0-1.543,0V35.914A.756.756,0,0,0,42.4,36.6Z" transform="translate(-8.503 -21.001)" fill="#003da5"/>
        <path id="Path_584" data-name="Path 584" d="M33.864,38.519a.759.759,0,1,0,1.457-.429V38l-2.143-6.686a.7.7,0,0,0-.878-.453.593.593,0,0,0-.065.024.81.81,0,0,0-.514.943h0Z" transform="translate(-7.085 -22.406)" fill="#003da5"/>
        <path id="Path_585" data-name="Path 585" d="M15.771,43.875l5.743,4.114a.737.737,0,1,0,.857-1.2l-5.743-4.114a.711.711,0,0,0-1,.129.492.492,0,0,0-.031.043.7.7,0,0,0,.108.983A.657.657,0,0,0,15.771,43.875Z" transform="translate(-4.763 -24.076)" fill="#003da5"/>
        <path id="Path_586" data-name="Path 586" d="M17.81,62.371a.771.771,0,0,0-.771-.771H10.01a.7.7,0,0,0-.689.711c0,.02,0,.04,0,.06a.676.676,0,0,0,.667.686h7.047A.756.756,0,0,0,17.81,62.371Z" transform="translate(-3.888 -26.801)" fill="#003da5"/>
        <path id="Path_587" data-name="Path 587" d="M74.31,62.371a.771.771,0,0,0-.771-.771H66.51a.7.7,0,0,0-.689.711c0,.02,0,.04,0,.06a.676.676,0,0,0,.667.686h7.047A.756.756,0,0,0,74.31,62.371Z" transform="translate(-11.96 -26.801)" fill="#003da5"/>
        <path id="Path_588" data-name="Path 588" d="M64.962,53.562a.718.718,0,0,0-.291.972c.011.02.022.039.034.057a.816.816,0,0,0,.857.343l13.457-4.371a.764.764,0,0,0,.429-.943c-.171-.343-.514-.6-.857-.429l-6.771,2.057h0l-6.686,2.143C65.048,53.477,64.962,53.477,64.962,53.562Z" transform="translate(-11.783 -25.02)" fill="#003da5"/>
        <path id="Path_589" data-name="Path 589" d="M61.3,47.92a.712.712,0,0,0,.986.2c.015-.01.029-.02.043-.031h0l5.743-4.114a.737.737,0,1,0-.857-1.2h0l-5.743,4.114a.712.712,0,0,0-.2.986A.491.491,0,0,0,61.3,47.92Z" transform="translate(-11.293 -24.092)" fill="#003da5"/>
        <path id="Path_590" data-name="Path 590" d="M49.539,38.954a.857.857,0,0,0,.943-.429l2.143-6.686a.819.819,0,0,0-.514-.943.857.857,0,0,0-.943.429h0l-2.143,6.686C49.025,38.439,49.2,38.868,49.539,38.954Z" transform="translate(-9.56 -22.412)" fill="#003da5"/>
        <path id="Path_591" data-name="Path 591" d="M26.231,41.391a.737.737,0,1,0,1.2-.857h0l-4.114-5.743h0L19.2,29.049a.737.737,0,0,0-1.2.857h0Z" transform="translate(-5.109 -22.107)" fill="#003da5"/>
        <path id="Path_592" data-name="Path 592" d="M3.533,50.467,16.99,54.838a.777.777,0,0,0,.943-.514.707.707,0,0,0-.429-.857l-6.771-2.229h0L4.048,49.1a.927.927,0,0,0-1.029.429.74.74,0,0,0,.476.932Z" transform="translate(-2.983 -25.01)" fill="#003da5"/>
        <path id="Path_593" data-name="Path 593" d="M56.08,41.477a.711.711,0,0,0,1-.129.493.493,0,0,0,.031-.043h0l8.314-11.4a.737.737,0,0,0-1.2-.857h0l-4.114,5.743h0l-4.114,5.743a.607.607,0,0,0-.016.858A.646.646,0,0,0,56.08,41.477Z" transform="translate(-10.529 -22.107)" fill="#003da5"/>
      </g>
    </g>
  </g>
</svg>
