<svg xmlns="http://www.w3.org/2000/svg" xmlns:xlink="http://www.w3.org/1999/xlink" width="76" height="72" viewBox="0 0 76 72">
  <defs>
    <clipPath id="clip-path">
      <rect id="Rectangle_6" data-name="Rectangle 6" width="76" height="71.855"/>
    </clipPath>
    <clipPath id="clip-Icon-star-sm">
      <rect width="76" height="72"/>
    </clipPath>
  </defs>
  <g id="Icon-star-sm" clip-path="url(#clip-Icon-star-sm)">
    <rect width="76" height="72" fill="rgba(255,255,255,0)"/>
    <g id="Icon-star" clip-path="url(#clip-path)">
      <rect id="Rectangle_5" data-name="Rectangle 5" width="76" height="71.855" fill="rgba(0,0,0,0)"/>
      <path id="Icon-star-2" data-name="Icon-star" d="M1480.879,287.357a8.966,8.966,0,0,0-.285-2,6.039,6.039,0,0,1-.121-1.525s.437-.134.439-.207a3.5,3.5,0,0,0,.064-1.839c-.451-2.543-.744-6.479-1.2-7.3a4.244,4.244,0,0,0-2.668-2.28c-.527-.245-2.635-.622-2.874-.723-.223-.094-.249-.23-.24-.737,0-.1.993.22,1.226.263,0,0,1.857-.256,1.577-.431-.686-.428.956-3.964.3-6.02a7.857,7.857,0,0,0-1.649-2.561,2.542,2.542,0,0,0-2.1-.982c-.835.085-1.163.249-1.287.226a2.437,2.437,0,0,0-1.105-.073,2.316,2.316,0,0,0-.755.125,3.544,3.544,0,0,0-2.218,1.838c-.671,1.157-.138,2.069-.252,3.293-.2,2.147.954,3.682.415,4.358-.27.339,1.056.005,1.248-.069a1.337,1.337,0,0,0,.649-.41,1.728,1.728,0,0,1-.212.861c-.152.258-1.169.439-2.956.838a6.511,6.511,0,0,0-2.7,1.734,9.731,9.731,0,0,0-1.478,3.844c-.025.122-.839,4.383-.742,4.731.052.188.217.01.159.264-.088.385-.223.774-.306,1.114a12.384,12.384,0,0,0-.332,2.257,22.092,22.092,0,0,0,.138,2.593c.027.513.24,1.476.207,1.61a1.746,1.746,0,0,0,.261,1.216,22.5,22.5,0,0,1,.991,2.292,2.786,2.786,0,0,0,.706.967.4.4,0,0,1,.13.334c-.158,1.184-.122,2.377-.178,3.565a15.565,15.565,0,0,0,.133,2.328,40.674,40.674,0,0,1,.418,4.319,15.893,15.893,0,0,1,.13,1.858,2.272,2.272,0,0,0,.3,1.541c.023.035.042.106.023.131-.154.2-.122.462-.234.674a.3.3,0,0,0-.026.288,1.283,1.283,0,0,1,.012.96,1.212,1.212,0,0,0-.026.9c.088.187-.032.408-.108.6a.427.427,0,0,0-.029.377c.017.033.035.086.021.112-.169.313.1,2.681-.008,3.5-.056.419-.069,3.712-.082,4.246a11.218,11.218,0,0,0,.027,2.572,6.34,6.34,0,0,1,.238,1.052,2.976,2.976,0,0,1,.032.691.651.651,0,0,0-.069.786c.063.1.522.2.522.307,0,.359.38.477.276.815a.716.716,0,0,0,.174.729c.091.105-.114.5-.145.609-.191.666-.687,1.185-.89,1.845a1.922,1.922,0,0,0,.673,1.987,4.188,4.188,0,0,0,1.509.3,1.99,1.99,0,0,0,1.03-.36,2.449,2.449,0,0,0,.8-1.3,1.594,1.594,0,0,0,0-.615,1.661,1.661,0,0,1,.054-.691c.084-.281.037-.337.207-.538a1.29,1.29,0,0,0,.239-.788c.017-.207.007-1,.007-1,.2-.207,0-.377-.054-.6-.1-.368.083-.222.156-.595.025-.125-.324-.381-.251-.495.272-.422.054-.841.117-1.025.089-.258.1-.3.169-.569a1.455,1.455,0,0,0-.15-.944c-.463-.66-.112-1.142.069-1.856a8.591,8.591,0,0,0,.15-2.2c-.014-.707.052-.984.013-1.429a2.363,2.363,0,0,1,.171-1.191.92.92,0,0,0-.069-.728.719.719,0,0,1-.052-.365.5.5,0,0,0-.059-.292.428.428,0,0,1,.078-.591c.22-.2.231-.484.328-.734a.168.168,0,0,0-.014-.138c-.25-.37-.041-.669.154-.959a.669.669,0,0,0,.138-.61c-.021-.065.069-1.069.085-1.5.012-.3.307-2.661.322-3.092.12-1.51.359-4.175.415-4.818.035-.439.387-3.615.676-3.55.015,0,.039,0,.044.012.138.258,1.356,6.038,1.363,6.511,0,.27.153,3.627.186,4.2a.2.2,0,0,1,0,.046,14.035,14.035,0,0,0,.014,1.962,4.576,4.576,0,0,0,.261,1.338,5.157,5.157,0,0,1,.148,2.434.588.588,0,0,0,0,.207,2.96,2.96,0,0,1-.069,1.418,2.142,2.142,0,0,0,.051,1.334,1.273,1.273,0,0,1,.077.386q0,1.414.009,2.827c0,.2.287.453.191.632a2.485,2.485,0,0,0,.1.544c.069.472.22.207.122.511a.826.826,0,0,0-.057.248,7.245,7.245,0,0,0-.007,1.838,1.827,1.827,0,0,0,.138.455c.3.464-.323.958-.332,1.533a.622.622,0,0,0,.256.452.186.186,0,0,1,.034.283c-.156.207.02.158.114.361a2.364,2.364,0,0,1-.043.778.842.842,0,0,0,.518.84.726.726,0,0,1,.47.622,2.572,2.572,0,0,0,.37,1,1.182,1.182,0,0,0,.917.6,3.179,3.179,0,0,0,1.54-.056,1.577,1.577,0,0,0,1.087-1.13,1.761,1.761,0,0,0-.176-1.19,9.2,9.2,0,0,0-.606-.874,8.512,8.512,0,0,1-.722-1.014c-.039-.069.1-.171.1-.381s-.151-.269-.135-.313c.037-.1.448-.133.5-.415.032-.186.063-.049.028-.381-.048-.442-.2-.069-.032-1.5.218-1.917.553-5.165.577-7.1.013-.958.014-1.955.027-2.913a4.322,4.322,0,0,0-.061-1.119.306.306,0,0,1,.042-.336.484.484,0,0,0-.021-.732.32.32,0,0,1-.021-.442,1.192,1.192,0,0,0-.069-1.2,1.049,1.049,0,0,1-.108-.8.467.467,0,0,1,.038-.1.647.647,0,0,0-.009-.667c-.089-.144.017-.385.017-.392,0-.443.524-3.535.581-4.472s.358-7.138.271-7.795c-.056-.432-.121-.864-.185-1.295a2.189,2.189,0,0,0-.059-.225.783.783,0,0,1,.138-.691c.276-.408.655-.723.925-1.132a4.7,4.7,0,0,1,.773-.838.972.972,0,0,0,.233-1.183.663.663,0,0,1-.048-.3c0-.716,0-1.143.055-1.855.036-.493,0-1.147,0-1.645m-15.294-4.866a38.019,38.019,0,0,1-.184,4.607c-.189.928-.877,2.807-.622,3.329.167.34-.039.583-.218.365a2.815,2.815,0,0,0-.267-.294c-.424-.385-.289-.867-.174-1.376.184-.82.269-1.562.4-2.393a8.948,8.948,0,0,0,.03-1.515,9.32,9.32,0,0,1,.38-2.114s.4.24.457.02a6.174,6.174,0,0,0,.194-1.179,2.816,2.816,0,0,1,.006.553m13.031,8.591c-.222.069-.434.173-.655.245-.109.037.024-.183.251-.252s-.352-1.333-.462-2.422a28.272,28.272,0,0,1,.031-3.714,7.911,7.911,0,0,0,.317,2.023c.132.541.229,1.175.437,1.879a6.362,6.362,0,0,1,.493,1.684Z" transform="translate(-1433.146 -260.321)" fill="#003da5"/>
    </g>
  </g>
</svg>
