<svg xmlns="http://www.w3.org/2000/svg" xmlns:xlink="http://www.w3.org/1999/xlink" width="110" height="104" viewBox="0 0 110 104">
  <defs>
    <clipPath id="clip-icon-gar">
      <rect width="110" height="104"/>
    </clipPath>
  </defs>
  <g id="icon-gar" clip-path="url(#clip-icon-gar)">
    <rect width="110" height="104" fill="rgba(0,0,0,0)"/>
    <path id="icon-gar-2" data-name="icon-gar" d="M960.132,354.67a.977.977,0,0,0-.375-.621.338.338,0,0,1-.137-.311.6.6,0,0,0-.255-.531.726.726,0,0,1-.279-.834,3.178,3.178,0,0,0-.523-2.48c-.288-.408-.228-.952-.4-1.432a20.229,20.229,0,0,0-.795-2.152c-.361-.76-.748-1.685-1.155-2.423-.751-1.361-1.432-2.6-2.311-3.9-.428-.63-1.237-1.418-1.6-2.082-.292-.529-1.523-2.528-1.9-3-.316-.4-.818.269-.534-.495.036-.762-1.543-2.411-1.823-3.51-.038-.144-.38-.421-.5-.513a.6.6,0,0,0-.156-.1c-.047.058-.09-.03,0,0a.351.351,0,0,0,.051-.188c.057-.714-1.77-6.226-2.206-7.636a9.476,9.476,0,0,1-.331-1.486,12.526,12.526,0,0,0-.375-2.087.3.3,0,0,1,.111-.4.651.651,0,0,0,.291-.73c-.106-.652.284-1.241.375-1.878a15.836,15.836,0,0,0,.117-2.479,14.74,14.74,0,0,0-.9-4.374,7.859,7.859,0,0,1-.287-1.914.652.652,0,0,1,.209-.494c.127.308.248.612.371.913q.207,1.219.427,2.435c.191,1.063.52,2.1.691,3.168.033.2.012.421.062.621a7.169,7.169,0,0,1,.158,2.965,1.778,1.778,0,0,0-.015.57,9.588,9.588,0,0,1,.048,1.251,1.347,1.347,0,0,0,.021.3c.245.932.369,1.889.586,2.829a5.942,5.942,0,0,1,.32,1.6c-.009.2.035.385.265.449.191.054.356-.03.493-.253a1.537,1.537,0,0,0,.074-.146c.125-.262.133-.262.294-.037.068.1.133.194.2.289a8.269,8.269,0,0,0,.5.746c.2.221.578.26.714.029a1.161,1.161,0,0,1,.739-.544.311.311,0,0,0,.24-.352.445.445,0,0,1,.318-.553.606.606,0,0,0,.321-.241,3.635,3.635,0,0,1,.671-.947.564.564,0,0,0,.13-.236,2.126,2.126,0,0,0,.05-1.542,6.521,6.521,0,0,0-.176-.728c-.162-.314-.287-.641-.417-.964a13.11,13.11,0,0,0-1.171-2.484,1.867,1.867,0,0,1-.229-.492,8.185,8.185,0,0,1-.261-1.329c-.09-.664-.253-1.317-.332-1.986-.108-.91-.277-1.814-.335-2.727s-.162-1.807-.252-2.708a26.106,26.106,0,0,0-.738-4.125c-.129-.482-.248-.967-.4-1.442a10.007,10.007,0,0,1-.281-1.253c-.021-.084.135.666-.021-.084.031-.428,1.342-1,.554-3.284-1.072-3.109-.109-7.1-3.58-13.25-2.006-3.552-5.823-2.485-6.073-4.8,0,0,3.333,1.2,1.96-.567-1.65-2.123,1.711-3.858.767-6.833a7.959,7.959,0,0,0-1.777-3.31c-.667-.891-1.79-3.307-3.8-2.79a14.418,14.418,0,0,1-2.723.2,11.215,11.215,0,0,0-1.607.149c-.651.2-.4.159-1.15.615a7.027,7.027,0,0,0-1.845,1.619,1.49,1.49,0,0,0-.1.141.779.779,0,0,0-.2.463h0a2.873,2.873,0,0,0-.068.375,4.857,4.857,0,0,0,.666,2.49c.01.041.014.246.027.283a.978.978,0,0,1-.2.873c-.153.264-.122.21-.386.618s-.315.417-.538.758-.3.451-.239.736c.034.149.123.21.275.277a6.028,6.028,0,0,0,.662.159.413.413,0,0,1,.336.417c-.01.3-.236.564-.068.752s.659.238.483.407c-.062.06-.193.023-.217.288a.452.452,0,0,0,.2.381c.133.13.265.125.232.424a5.642,5.642,0,0,0-.076.783,1.016,1.016,0,0,0,.932.854c.549.063,1.215-.044,2.254.016,1.155.066,1.533.744,1.3,1.087-.132.2-1.125.5-2.518,4.142-.144.376-.293.723-.442,1.073l-.013.031c-.159.372-.315.751-.463,1.167-.079.212-.161.434-.241.664-.769,2.218-1.22,2.64-1.815,4.566a8.3,8.3,0,0,0-.029,3.562,26.746,26.746,0,0,1,.6,3.341,3.113,3.113,0,0,0,.146.742c-.451.512-.645.771-1.114,1.273-.74.8-1.519,1.556-2.272,2.341-.273.283-.614.489-.878.774a17.769,17.769,0,0,1-1.839,1.684,16.644,16.644,0,0,0-1.684,1.505,4.36,4.36,0,0,1-.6.553c-.237.174-.519.266-.75.435-.295.216-.6.406-.912.593a11.252,11.252,0,0,0-1.867,1.351,5.7,5.7,0,0,0-1.181,1.37,7.707,7.707,0,0,1-.715,1.048,2.582,2.582,0,0,0-.494.868,3.6,3.6,0,0,0-.1.725,2.173,2.173,0,0,0,.371,1.52c.1.138.245.276.409.214a.55.55,0,0,1,.6.175.6.6,0,0,0,.823.021c.211-.172.3-.1.463.035a.589.589,0,0,0,.891-.057c.111-.2.171-.127.289-.038.393.3.535.291.864-.1.316-.373.609-.768.926-1.142.48-.566.979-1.117,1.46-1.685.322-.379.633-.769.935-1.165a5.6,5.6,0,0,0,.5-.679c.165-.3.356-.583.525-.879a5.021,5.021,0,0,1,1.1-1.157,10.469,10.469,0,0,1,1.109-.878c.432-.3.814-.652,1.226-.973a25.667,25.667,0,0,1,2.377-1.7s-.345,6.754-.021,7.023.147,2.915.069,3.2a21.2,21.2,0,0,0-.768,2.6c-.281,1-1.234,5.429-1.762,7.987-.178.868-.883,5.25-1,5.77a6.289,6.289,0,0,1-.614,1.47.837.837,0,0,0-.076.44,1.081,1.081,0,0,1-.336.964.4.4,0,0,0,.044.652c.2.165.278.268.131.55-.159.3.208.686.325,1.014.087.24-.083.427-.16.672a12.422,12.422,0,0,0-.125,1.261,11.985,11.985,0,0,1-.232,1.349,8.279,8.279,0,0,0-.274,1.054,15.837,15.837,0,0,1-.6,2.327c-.341,1.067-.486,2.177-.8,3.251a10.524,10.524,0,0,1-.836,2.053,4.1,4.1,0,0,0-.457,1.923c0,.292-.117.315-.25.538a1.9,1.9,0,0,0-.335.741c-.012.158-.165.438-.343.43-.621-.018-.932.36-1.327.762a.59.59,0,0,0-.158.411A1.326,1.326,0,0,1,918,354.969a20.981,20.981,0,0,0-3.253.462,2.074,2.074,0,0,1-1.127-.01c-.7-.2-1.433-.222-2.139-.386-.523-.119-1.251.564-1.288,1.112,0,.7,2.475,1.972,2.88,2.2a32.792,32.792,0,0,0,3.541,1.269c.933.381,3.328,1.406,3.617,1.55,1.813.96,2.9.8,3.2.389a5.179,5.179,0,0,0,.915-2.141,2.474,2.474,0,0,1,.85-2.015c.4-.311.3-.858.283-1.32a2.007,2.007,0,0,1,.565-1.367c.451-.4.565-1.194.793-1.731a7.1,7.1,0,0,0,.476-1.726,7.451,7.451,0,0,1,1.085-2.229c.286-.535.575-1.069.83-1.617a6.309,6.309,0,0,0,.274-.951,34.113,34.113,0,0,0,1.172-4.6,11.516,11.516,0,0,0,.333-2.349c-.049-.739.471-1.318.7-1.981a.6.6,0,0,0-.133-.623c-.335-.413.144-.679.249-1a7.829,7.829,0,0,0,.626-1.9c.016-.273,3.571-8.2,3.8-8.632.52.974,1.616,3.374,2.048,4.088.534.88,1.12,1.817,1.634,2.71a23.427,23.427,0,0,0,1.807,2.706,20.42,20.42,0,0,1,1.7,2.431c.163.333.347.654.518.983a.651.651,0,0,0,.508.361c.468.051.465.213.835.425.173.1.169.565.194.719.107.658,0,.952,1.177,1.008.314.068.244.4.393.649.758,1.282,1.471,2.591,2.255,3.854.5.806,1.033,1.6,1.492,2.427a7,7,0,0,1,.927,2.12c.112.6.648.971,1.032,1.413.127.145.188.3.112.438a1.59,1.59,0,0,0,.412,2.194c.015.011.016.038.031.08-.322.122-.221.4-.146.6a1.015,1.015,0,0,1-.55,1.29,21.046,21.046,0,0,1-2.156,1.767c-.323.145-2.02.328-2.649.5-.307.082-.988.251-1.157.625a1.919,1.919,0,0,0,.051,1.448,1.045,1.045,0,0,0,.692.542,17.2,17.2,0,0,0,3.543.609,12.666,12.666,0,0,0,3.537-.507c.629-.189,4.032-1.83,4.839-2.17.31-.129.62-.263.918-.416a.937.937,0,0,0,.51-.81,7.114,7.114,0,0,0-.638-2.775" transform="translate(-880.196 -257.706)" fill="#003da5"/>
  </g>
</svg>
