<svg xmlns="http://www.w3.org/2000/svg" xmlns:xlink="http://www.w3.org/1999/xlink" width="110" height="104" viewBox="0 0 110 104">
  <defs>
    <clipPath id="clip-icon-sitter">
      <rect width="110" height="104"/>
    </clipPath>
  </defs>
  <g id="icon-sitter" clip-path="url(#clip-icon-sitter)">
    <rect width="110" height="104" fill="rgba(0,0,0,0)"/>
    <path id="icon-sitter-2" data-name="icon-sitter" d="M967.839,745.683c-.206-.888-1.727-8.273-2.361-12.289a78.781,78.781,0,0,1-.826-9.736,91.765,91.765,0,0,1,2.223-13.921c1.768-7.12,6.088-18,4.479-18.287-1.09-.2-1.643,1.184-1.609,1,.259-1.407.061-1.621.073-4.623,0-.5-.15-2-.219-2.494a6.387,6.387,0,0,0-1.578-3.927c-.339-.338-2.209-1.916-1.537-3.014,0,0,3.2,1.52,2.007-.372-1.434-2.275,2.08-3.672,1.433-6.725a7.959,7.959,0,0,0-1.445-3.468c-.576-.951-1.457-3.466-3.51-3.149a14.516,14.516,0,0,1-2.729-.069,11.139,11.139,0,0,0-1.614-.009c-.667.134-.414.12-1.2.5a7.015,7.015,0,0,0-2,1.431,1.6,1.6,0,0,0-.12.129.792.792,0,0,0-.248.44h0a2.991,2.991,0,0,0-.106.367,4.874,4.874,0,0,0,.42,2.544c.006.042-.011.246,0,.284a.987.987,0,0,1-.29.849c-.178.247-.143.2-.446.577s-.353.384-.609.7-.346.419-.31.708c.019.152.1.222.246.3a6.07,6.07,0,0,0,.643.223.414.414,0,0,1,.294.448c-.04.3-.29.538-.141.741s.633.3.441.453c-.069.054-.2,0-.243.265a.449.449,0,0,0,.157.4c.119.142.251.15.19.445a5.44,5.44,0,0,0-.153.771,1.015,1.015,0,0,0,.843.941c.542.116,1.214.076,2.243.236,1.142.179,1.452.891,1.192,1.21-.151.184-1.8.387-3.542,3.876-.18.359-.363.69-.546,1.024-.005.009-.009.02-.015.029-.194.355-.387.717-.576,1.116-.1.2-.2.416-.3.637-.983,2.132-1.473,2.508-2.253,4.366a8.3,8.3,0,0,0-.377,3.541c.029.37.06.662.089.912a43.057,43.057,0,0,1-4.243,8.744c-1.656,2.219-2.889,3.218-3.244,3.262a3.549,3.549,0,0,1-.838.066c-.925-.109-.925.253-1.161.712-.152.3-.315.371-.708.3-.46-.081-.544.106-.765.347a.528.528,0,0,1-.559.142,1.512,1.512,0,0,0-.871.007,38.89,38.89,0,0,1-4.431.979c-1.42.337-2.882.48-4.3.869a3.937,3.937,0,0,0-2.946,2.9.426.426,0,0,1-.224.33,4.038,4.038,0,0,0-1.783,1.823,3.661,3.661,0,0,0-.574,2.221c.212,1.813,3.116,7.692,5.581,12.943v.006l.121.26c.451,1.022,1.442,3.8,1.628,4.448a4.1,4.1,0,0,0,1.01,1.7c.2.21.135.308.194.561a1.865,1.865,0,0,0,.275.765c.1.122.186.429.052.548a1.413,1.413,0,0,0-.422,1.157,5.274,5.274,0,0,1-2.726.8c-.709.041-1.79.045-2.016.717-.148.439-.341.857.133,1.229.1.075,2.525,1.273,2.525,1.273a11.136,11.136,0,0,1-2.2,1.3c-1.025.159-1.914.172-2.33,1.068-.311.669-.294.933.107,1.252a4.84,4.84,0,0,0,2.628,1.033,4.7,4.7,0,0,0,1.433.008,44.05,44.05,0,0,0,5.67-.823,6.059,6.059,0,0,1,.887-.15c.086.053,0,.378.061.631.072.3.146.583.52.609a4.227,4.227,0,0,0,1.143-.044.423.423,0,0,0,.391-.478c-.006-.127-.031-.726-.012-.852.013-.08,0-.048.586-.051.294,0,.682-.027.975-.03a1.333,1.333,0,0,0,1.359-1.5,17.3,17.3,0,0,0-.165-2.162,1.654,1.654,0,0,0,.937-.441c.524-.524-.13-4.721-.372-5.482-.03-.09.146-.031.484-.044.738-.028,1.478-.056,2.217-.06,2.4-.011,15.479.23,15.861.232.328,0,.361.4.457.764.249.932,1.714,7.427,2.3,9.385.108.362.167.754.959.769.477.008,1,.021.86-.745-.089-.48-.3-1.66-.544-2.69M943.992,732.06c-.043-2.244.022-4.88.2-7.117.024-.3.044-1,.071-1.447.027-.432.5-.457,1.037-.42.6.041,15.961.807,16.459.81.78,0,.726.381.734.785a69.1,69.1,0,0,0,.735,7.273c.067.523.021.739-.518.711-1.1-.056-15.787-.314-17.852-.392-.729-.028-.866-.1-.867-.2m19.342,4.982c-.546.029-17.227-.2-17.926-.171a1.261,1.261,0,0,1-.595-.06,14.089,14.089,0,0,1-.748-3.3c-.018-.079.046-.172.722-.156,2.817.069,16.576.283,18.169.3.351.005.511.132.569.505.172,1.1.2,1.287.277,2.184.044.49.03.667-.469.693" transform="translate(-894.254 -645.575)" fill="#003da5"/>
  </g>
</svg>
