<svg xmlns="http://www.w3.org/2000/svg" xmlns:xlink="http://www.w3.org/1999/xlink" width="76" height="72" viewBox="0 0 76 72">
  <defs>
    <clipPath id="clip-path">
      <rect id="Rectangle_14" data-name="Rectangle 14" width="76" height="71.855"/>
    </clipPath>
    <clipPath id="clip-icon-sitter-sm">
      <rect width="76" height="72"/>
    </clipPath>
  </defs>
  <g id="icon-sitter-sm" clip-path="url(#clip-icon-sitter-sm)">
    <rect width="76" height="72" fill="rgba(255,255,255,0)"/>
    <g id="icon-sitter" clip-path="url(#clip-path)">
      <rect id="Rectangle_13" data-name="Rectangle 13" width="76" height="71.855" fill="rgba(0,0,0,0)"/>
      <path id="icon-sitter-2" data-name="icon-sitter" d="M955.295,720.613c-.142-.614-1.193-5.716-1.631-8.491a54.439,54.439,0,0,1-.571-6.727,63.413,63.413,0,0,1,1.536-9.618c1.221-4.919,4.206-12.436,3.094-12.635-.753-.138-1.135.818-1.112.691a16.93,16.93,0,0,0,.05-3.194c0-.345-.1-1.382-.151-1.723a4.413,4.413,0,0,0-1.09-2.713c-.234-.234-1.526-1.324-1.062-2.082,0,0,2.211,1.05,1.387-.257-.991-1.572,1.437-2.537.99-4.646a5.5,5.5,0,0,0-1-2.4c-.4-.657-1.007-2.395-2.425-2.176a10.034,10.034,0,0,1-1.886-.048,7.684,7.684,0,0,0-1.115-.006c-.461.093-.286.083-.829.345a4.848,4.848,0,0,0-1.382.989,1.1,1.1,0,0,0-.083.089.547.547,0,0,0-.171.3h0a2.067,2.067,0,0,0-.073.254,3.367,3.367,0,0,0,.29,1.758c0,.029-.008.17,0,.2a.682.682,0,0,1-.2.587c-.123.171-.1.138-.308.4s-.244.265-.421.484-.239.289-.214.489c.013.105.069.153.17.207a4.2,4.2,0,0,0,.444.154.286.286,0,0,1,.2.31c-.028.207-.2.372-.1.512s.437.207.3.313c-.048.037-.138,0-.168.183a.31.31,0,0,0,.108.276c.082.1.173.1.131.307a3.756,3.756,0,0,0-.106.533.7.7,0,0,0,.582.65c.374.08.839.052,1.55.163.789.124,1,.616.824.836-.1.127-1.244.267-2.447,2.678-.124.248-.251.477-.377.707,0,.006-.006.014-.01.02-.134.245-.267.5-.4.771-.069.138-.138.287-.207.44-.679,1.473-1.018,1.733-1.557,3.017a5.734,5.734,0,0,0-.26,2.446c.02.256.041.457.061.63a29.746,29.746,0,0,1-2.932,6.041c-1.144,1.533-2,2.223-2.241,2.254a2.451,2.451,0,0,1-.579.046c-.639-.075-.639.175-.8.492-.1.207-.218.256-.489.207-.318-.056-.376.073-.529.24a.365.365,0,0,1-.386.1,1.045,1.045,0,0,0-.6,0,26.849,26.849,0,0,1-3.061.676c-.981.233-1.991.332-2.971.6a2.72,2.72,0,0,0-2.035,2,.294.294,0,0,1-.155.228,2.79,2.79,0,0,0-1.232,1.26,2.529,2.529,0,0,0-.4,1.535c.146,1.253,2.153,5.314,3.856,8.942v0l.084.18c.312.706,1,2.625,1.125,3.073a2.833,2.833,0,0,0,.7,1.175c.138.145.093.213.134.388a1.288,1.288,0,0,0,.19.529c.069.084.129.3.036.379a.976.976,0,0,0-.292.8,3.644,3.644,0,0,1-1.883.553c-.49.028-1.237.031-1.393.5-.1.3-.236.592.092.849.069.052,1.745.88,1.745.88a7.692,7.692,0,0,1-1.52.9c-.708.11-1.322.119-1.61.738-.215.462-.2.645.074.865a3.344,3.344,0,0,0,1.816.714,3.248,3.248,0,0,0,.99.005,30.431,30.431,0,0,0,3.917-.568,4.191,4.191,0,0,1,.613-.1c.059.037,0,.261.042.436.05.207.1.4.359.421a2.919,2.919,0,0,0,.79-.03.292.292,0,0,0,.27-.33c0-.088-.021-.5-.008-.589.009-.055,0-.033.4-.035.2,0,.471-.019.674-.021a.921.921,0,0,0,.939-1.036,11.957,11.957,0,0,0-.114-1.494,1.143,1.143,0,0,0,.647-.3c.362-.362-.09-3.262-.257-3.788-.021-.062.1-.021.334-.03.51-.019,1.021-.039,1.532-.042,1.658-.008,10.695.159,10.959.16.227,0,.249.276.316.528.172.644,1.184,5.131,1.589,6.484.075.25.115.521.663.531.33.006.691.015.594-.515-.062-.332-.207-1.147-.376-1.859m-16.469-9.4c-.03-1.55.015-3.372.138-4.917.017-.207.03-.691.049-1s.345-.316.716-.29c.415.028,11.028.558,11.372.56.539,0,.5.263.507.542a47.744,47.744,0,0,0,.508,5.025c.046.361.015.511-.358.491-.76-.039-10.907-.217-12.334-.271-.5-.019-.6-.069-.6-.138m13.364,3.442c-.377.02-11.9-.138-12.385-.118a.871.871,0,0,1-.411-.041,9.738,9.738,0,0,1-.517-2.28c-.012-.055.032-.119.5-.108,1.946.048,11.453.2,12.553.207.242,0,.353.091.393.349.119.76.138.889.191,1.509.03.339.021.461-.324.479" transform="translate(-904.454 -651.448)" fill="#003da5"/>
    </g>
  </g>
</svg>
