<svg xmlns="http://www.w3.org/2000/svg" xmlns:xlink="http://www.w3.org/1999/xlink" width="76" height="72" viewBox="0 0 76 72">
  <defs>
    <clipPath id="clip-path">
      <rect id="Rectangle_2" data-name="Rectangle 2" width="76" height="71.855"/>
    </clipPath>
    <clipPath id="clip-Icon-sover-sm">
      <rect width="76" height="72"/>
    </clipPath>
  </defs>
  <g id="Icon-sover-sm" clip-path="url(#clip-Icon-sover-sm)">
    <rect width="76" height="72" fill="rgba(255,255,255,0)"/>
    <g id="Icon-sover" clip-path="url(#clip-path)">
      <rect id="Rectangle_1" data-name="Rectangle 1" width="76" height="71.855" fill="rgba(0,0,0,0)"/>
      <g id="Icon-sover-2" data-name="Icon-sover" transform="translate(0.691 42.145)">
        <path id="Path_105" data-name="Path 105" d="M1674.8,770.338c-30.572-.161-30.926.382-30.926.382-.37.075-.251-.01-.568.169l-.02-1.464-.082-4.847c-.025-.669-.059-1.359-.1-2.053-.115-1.848-.289-3.7-.493-5.15a7.258,7.258,0,0,0-.665-2.695c-.647-.609-1.924.536-1.924.536s-.285,25.6-.048,25.84a13.892,13.892,0,0,0,3.061.164h.946v1.434c0,1,.154,1.807.345,1.807h3.931c.19,0,.345-.809.345-1.807v-1.434H1706.7v1.434c0,1,.154,1.807.345,1.807h3.933c.189,0,.345-.809.345-1.807v-1.434h.946a19.318,19.318,0,0,0,2.27-.053c.091-.091-.048-15.652-.048-15.652s-.484-1.144-1.132-.536c-.626.589-1.261,2.054-1.3,6.123a2.341,2.341,0,0,0-1.345-.634Z" transform="translate(-1639.875 -754.502)" fill="#528dcc"/>
        <path id="Path_106" data-name="Path 106" d="M1701.934,805.472h-1.547c-.941,0-1.365-.061-4.293-.243-3.6-.223-3.9.065-5.547-.2-4.512-.73-7.866-1.511-4.085-.517a12.651,12.651,0,0,0-1.918.091c-.595-.025-.9-.05-1.226-.091s-.584.149-.9.095a1.733,1.733,0,0,1-1.2-.781c-.567-.789,11.374-2.376,11.374-2.376l7.523.445Z" transform="translate(-1667.848 -786.281)" fill="#003da5"/>
        <path id="Path_107" data-name="Path 107" d="M1697.74,783a27.705,27.705,0,0,0,5.258.546c2.058-.118-.439.9,1.153.931s4.459-1.335,5.1-1.639a48.5,48.5,0,0,0,4.914-3.579c.455-.484.06-1.123-.728-1.608a53.963,53.963,0,0,0-7.625-4.346c-2.225-.88-4.1-.649-4.767.345a4.352,4.352,0,0,0-.646,1.426c-.138.647-.748,2.383-.748,2.383Z" transform="translate(-1679.047 -766.858)" fill="#003da5"/>
        <path id="Path_108" data-name="Path 108" d="M1711.857,777.736a13.291,13.291,0,0,0-1.425,2.08c-.849,1.451-2,2.909-2.127,3.764a8.8,8.8,0,0,0,.094,2.2c.041.425.634.87,2.332.93s10.86.667,17.96.607,11.993-1.886,16.927-.547c4.166,1.13,11.386.466,13.409.061s-1.2-4.622-3.377-5.808c-4.537-2.478-5.845-3.859-15.856-5.5-8.871-1.451-8.414-2.84-14.016-2.788-4.777.044-2.523-.272-9.6.1-1.161.126-2.6.1-3,.484-.247.238.091,3.04-1.317,4.415" transform="translate(-1686.169 -766.791)" fill="#003da5"/>
        <path id="Path_109" data-name="Path 109" d="M1658.892,786.191l3.512,4.007a8.174,8.174,0,0,1,1.539,2.344c.121.425.667,1.031-.425.727-.993-.276-.849-.505-2.123-.121s-1.313.728-2.349.607-1.658.385-3.3.424-4.125-.424-5.339-.484a37.07,37.07,0,0,1-5.147-1.375c-.911-.242-1.463-1.031-.093-1.382.967-.248,3.593-3.485,4.735-3.976a7.749,7.749,0,0,1,3.71-.745c.31.035,1.153.153,1.062.5Z" transform="translate(-1642.902 -775.954)" fill="#003da5"/>
        <path id="Path_110" data-name="Path 110" d="M1674.828,781.625a3.319,3.319,0,0,1,.511-1,1.056,1.056,0,0,1,.85-.516,12.35,12.35,0,0,0,1.426-.728,3.686,3.686,0,0,1,1.456-.151,7,7,0,0,1,1.335.182c.576.121.967-.03,1.487.333s.788.456.849.638.331.324.546.415a3.736,3.736,0,0,1,1.206.706,3.358,3.358,0,0,1,.915,2.561c-.22.705-1.766,1.446-2.312,1.507a3.115,3.115,0,0,0-1.958-.729,11.8,11.8,0,0,1-2.885-.82,10.456,10.456,0,0,1-2.168-.629c-.577-.3-1.378-.553-1.326-.953s.069-.813.069-.813" transform="translate(-1663.487 -771.232)" fill="#003da5"/>
      </g>
    </g>
  </g>
</svg>
