<svg xmlns="http://www.w3.org/2000/svg" xmlns:xlink="http://www.w3.org/1999/xlink" width="110" height="104" viewBox="0 0 110 104">
  <defs>
    <clipPath id="clip-icon-bojer">
      <rect width="110" height="104"/>
    </clipPath>
  </defs>
  <g id="icon-bojer" clip-path="url(#clip-icon-bojer)">
    <rect width="110" height="104" fill="rgba(0,0,0,0)"/>
    <path id="icon-bojer-2" data-name="icon-bojer" d="M1733.9,361.771a2.28,2.28,0,0,1,.383.634c.4.959.522,1.623.764,2.121a1.013,1.013,0,0,0,1.115.6,5.528,5.528,0,0,0,.712-.332c.272-.13.311,0,.478.078a.451.451,0,0,0,.424.058c.241-.109.163-.22.2-.3.1-.223.311.226.544.321s.406-.206.687-.315a.413.413,0,0,1,.505.179,5.992,5.992,0,0,0,.37.572.382.382,0,0,0,.352.166c.291-.033.368-.147.615-.47s.24-.372.536-.759.257-.338.454-.57.4-.491.755-.484c.04,0,.235-.065.277-.069a4.849,4.849,0,0,0,2.57-.2,2.71,2.71,0,0,0,.331-.189h0c.1-.016.23-.149.368-.346a1.753,1.753,0,0,0,.1-.146,7.049,7.049,0,0,0,.915-2.278c.18-.857.226-.609.2-1.289a11.1,11.1,0,0,0-.393-1.565,14.608,14.608,0,0,1-.718-2.635c-.18-2.069-2.832-2.326-3.893-2.659a7.962,7.962,0,0,0-3.712-.576c-3.119.1-3.639,3.845-6.19,2.994-2.121-.708.117,2.037.117,2.037a1.731,1.731,0,0,1-.19.023c-.328-.569-.7-1.178-1.117-1.819-1.724-2.641-3.849-3.627-7.091-4.664a20.827,20.827,0,0,0-6.353-.933c-.482-.021-9.968.038-16.271,2.323-.262.094-.355.669-.355.669a10.647,10.647,0,0,0-4.635,5.131,9.257,9.257,0,0,0-.051,6.56,17.367,17.367,0,0,0,1.616,3c.424.806,2.82,2.675,3.752,3.362s1.909,1.307,2.871,1.95c.13.086.3.117.423.206.5.353,1.058.592,1.581.9a11.527,11.527,0,0,1,1.247.816c.479.37.839.873,1.323,1.244a8.213,8.213,0,0,0,1.725,1.192.444.444,0,0,1,.224.262,6.553,6.553,0,0,1,.462,2.142,1.724,1.724,0,0,0,.094.676,2.378,2.378,0,0,0,.728,1.055.226.226,0,0,1,.08.331,4.961,4.961,0,0,0-.376,1.018c-.208.589-.724,2.7-.831,3.153a7.7,7.7,0,0,1-.277,1.075c-.131.33-.337,1.612-.564,2.163-.014.035-.153,1.03-.146,1.068.086.4.01.424-.17.773-.4.773-1.667,5.915-1.9,6.052a1.127,1.127,0,0,0-.518.663,4.031,4.031,0,0,0-.03,1.136c0,.081.121.339-.43,1.009a4.888,4.888,0,0,0-.364,2.409,1.071,1.071,0,0,0,.081.415,1.411,1.411,0,0,0,1.443.83,8.965,8.965,0,0,0,2.567-.482,14.327,14.327,0,0,1,2.776-.3,1.816,1.816,0,0,1-.263.6,5.181,5.181,0,0,0-.2,2.319c.076.505.954,1.159,3.006,1.167.323.01,2.821.6,3.824.7a35.983,35.983,0,0,0,3.912.551c.464,0,3.043.148,3.376-.472a1.7,1.7,0,0,0-.552-2.009c-.7-.441-1.222-.609-2.088-1.064-.958-.5-1.5-.867-2.116-1.229a10.956,10.956,0,0,1-1.7-1.081c-.578-.462-.806-.78-.311-1.315.224-.241-.113-1.09-.019-1.231.326-.492.2-.486-.207-1.182-.006-.216.25-.451.3-.66.087-.406.456-2.084.667-3.794.568-2.9,1.546-10.248,1.587-12.256a5.243,5.243,0,0,1,.126-1.269,7.843,7.843,0,0,0,.194-1.426,36.986,36.986,0,0,0,.119-3.87,10.684,10.684,0,0,0-.718-2.175c-.354-.751-.623-1.534-.952-2.294-.111-.256-.079-.3.215-.289.528.017,2.087-.032,2.339-.046a.513.513,0,0,1,.542.374,5.642,5.642,0,0,1,.161.544c.157.594.306,1.191.465,1.785.2.751,1.635,5,1.836,5.7.172.592.781,2.206.9,2.417.267.473,1,3.054,1.7,4.576.183.4.589.571.649.685.407.759,1.851,3.891,2.109,4.334.306.525,4.575,7.572,4.637,7.718a16.81,16.81,0,0,1,.833,1.907,7.236,7.236,0,0,1,.426,1.178,3.567,3.567,0,0,0,.81,1.74,4.481,4.481,0,0,1,.569.922c.1.231.043.473.13.69a2.324,2.324,0,0,1,.119.909c0,.356,0,.712.007,1.067a6.691,6.691,0,0,0,.2,1.235c.041.209.143.421.316.434.268.021.376-.563.4-.817a14.041,14.041,0,0,1,.291-2.2c.022-.092.03-.2.147-.217.1-.014.15.074.2.147a.563.563,0,0,1,.087.167c.158.66.355,1.31.461,1.983a3.784,3.784,0,0,0,.264,1.579.6.6,0,0,0,.287.28c.412.146.507-.207.506-.23a7.145,7.145,0,0,1,.166-1.336,3.985,3.985,0,0,0,.087-.965c-.07-.6-.192-1.2-.321-1.8-.021-.1-.125-.235-.01-.3s.215.07.3.147a3.508,3.508,0,0,1,.835,1.222,1.376,1.376,0,0,1,.033,1.462c-.2.281-.432.864-.25,1.03a.541.541,0,0,0,.764-.2c.063-.1.272-.448.333-.549.154-.257.216-.2.328-.477a4.751,4.751,0,0,1,.51-.821,1.257,1.257,0,0,0,.214-.712,11.239,11.239,0,0,1-.022-1.3.673.673,0,0,0-.225-.576c-.109-.1-.216-.209-.321-.317a11.312,11.312,0,0,1-1.294-1.412c-.174-.248-.4-.47-.587-.709-.136-.169-.368-.185-.518-.324-.5-.464-.986-.952-1.45-1.456a1.762,1.762,0,0,1-.4-.5c-.266-.692-.735-1.272-1.04-1.941-.09-.2-1.278-4.4-1.418-4.937-.127-.5-1.071-3.927-1.247-4.621-.136-.532-.31-1.054-.441-1.589a12.233,12.233,0,0,0-1.471-3.359c-.247-.2.62-1.544-.366-1.8a7.665,7.665,0,0,1-.993-1.916c-.154-.6-.854-2.446-.9-2.573a61.623,61.623,0,0,1-.619-6.5c.047-.388-.069-.83.235-1.176.031-.036.02-.125.005-.184a1.112,1.112,0,0,1,.033-.561,3.211,3.211,0,0,0,.137-.7.873.873,0,0,1,.151-.445,1.786,1.786,0,0,0,.127-1.783,2.72,2.72,0,0,1-.3-1.416,1.4,1.4,0,0,0-.053-.421c-.064-.307-.006-.65.22-.762" transform="translate(-1667.128 -304.948)" fill="#003da5"/>
  </g>
</svg>
