<svg xmlns="http://www.w3.org/2000/svg" xmlns:xlink="http://www.w3.org/1999/xlink" width="76" height="72" viewBox="0 0 76 72">
  <defs>
    <clipPath id="clip-path">
      <rect id="Rectangle_4" data-name="Rectangle 4" width="76" height="71.855"/>
    </clipPath>
    <clipPath id="clip-Icon-springer-sm">
      <rect width="76" height="72"/>
    </clipPath>
  </defs>
  <g id="Icon-springer-sm" clip-path="url(#clip-Icon-springer-sm)">
    <rect width="76" height="72" fill="rgba(255,255,255,0)"/>
    <g id="Icon-springer" transform="translate(0)" clip-path="url(#clip-path)">
      <rect id="Rectangle_3" data-name="Rectangle 3" width="76" height="71.855" fill="rgba(0,0,0,0)"/>
      <path id="Icon-springer-2" data-name="Icon-springer" d="M1205.617,320.163a22.842,22.842,0,0,0-.607-2.527c-.133-.683-.446-2.456-.473-2.677-.132-1.412-.636-1.976-.987-2a3.581,3.581,0,0,0-1.584.281,1.708,1.708,0,0,1-1.486.272.582.582,0,0,0-.488.075,20.775,20.775,0,0,0-2.356-.538,28.741,28.741,0,0,0-5.407-.564c-.526.01-3.844.292-4.26.345-.35.043-.133.58-.484.138,0,0-.622.294-.7.246-.425-.246-1.275.025-1.36-.045-.207-.167-.309-.17-.4-.415s-1.534-5.618-2.04-6.962c-.165-.563-.234-.287-.151-.754.122-.691.984-2.055.791-3.833-.138-1.252-.781-3.04-.716-3.124,0,0,.184-.009-.025-.829a6.48,6.48,0,0,1-.061-1.21,6.277,6.277,0,0,0,1.512-1.849,4.339,4.339,0,0,1,.978-1.175c.687-.589,1.344-1.212,2.028-1.8a17.43,17.43,0,0,0,2.743-3.263.967.967,0,0,0,.1-.735,5.35,5.35,0,0,0-1.526-1.832c-.6-.444-1.3-.738-1.865-1.226-.181-.155.223-.069-.153-.356a37.332,37.332,0,0,0-4.91-3.012,12.721,12.721,0,0,1-2.276-.914,1.7,1.7,0,0,0-1.287-.034,1.149,1.149,0,0,1-.116.025,1.168,1.168,0,0,1-.6-1.009s2.211,1.051,1.387-.256c-.99-1.572,1.439-2.536.992-4.646a5.49,5.49,0,0,0-1-2.4c-.4-.658-1.005-2.4-2.425-2.177a9.979,9.979,0,0,1-1.885-.049,7.7,7.7,0,0,0-1.115-.006c-.461.092-.287.082-.833.345a4.85,4.85,0,0,0-1.378.988,1.022,1.022,0,0,0-.083.089.542.542,0,0,0-.172.3h0a1.966,1.966,0,0,0-.073.254,3.36,3.36,0,0,0,.289,1.758c0,.029-.008.17,0,.2a.681.681,0,0,1-.2.587c-.124.171-.1.138-.308.4s-.245.265-.421.484-.24.29-.214.489c.012.105.069.153.169.207a4.188,4.188,0,0,0,.445.154.285.285,0,0,1,.2.31c-.028.207-.2.372-.1.513s.437.207.3.313c-.047.037-.134,0-.168.183a.312.312,0,0,0,.109.276c.082.1.173.1.13.308a3.915,3.915,0,0,0-.106.533.7.7,0,0,0,.582.651c.374.08.839.052,1.549.164.79.124,1,.616.823.837-.037.045-.153.095-.338.245a4.348,4.348,0,0,0-2.695,1.526,25.036,25.036,0,0,0-1.389,3.895c-.376,1.1-.728,1.907-1.132,2.992a9.239,9.239,0,0,1-.545,1.244c-.039.069-.083.157-.18.115a2.165,2.165,0,0,1-.73-.36,13.952,13.952,0,0,1-1.711-2.211.52.52,0,0,1,.014-.53c.3-.63.838-1.186.655-1.982-.037-.158-.076-.253-.24-.313s-.39-.069-.507-.254c-.04-.064-.052-.168-.16-.142a.3.3,0,0,0-.178.178c-.035.069.03.2-.077.195s-.094-.132-.118-.211a.654.654,0,0,0-1.023-.3.575.575,0,0,1-.528.18c-.276-.046-.366.1-.394.33-.011.093,0,.207-.138.207-.185,0-.229.134-.251.273a.414.414,0,0,1-.193.3.446.446,0,0,0-.171.611,10.761,10.761,0,0,0,.76,1.41c.484.7,1.187,1.211,1.631,1.935a17.34,17.34,0,0,0,3.076,4.076c.173.157.7.535.925.455a3.07,3.07,0,0,0,1.727-1.469,9.015,9.015,0,0,0,.778-1.52c.022-.06-.069.434-.065.7a38.755,38.755,0,0,0,.92,5.123c.222,1.056.532,3.482.938,5.009.059.224.081.908.214.908.166,0,.584-.372.584-.372a10.751,10.751,0,0,0-1.025,1.4c-.2.437-6.043,8.913-6.264,9.456s-.338.566-.571,1.141a2.1,2.1,0,0,0-.1.5c.006.259.151.424-.064.6a.276.276,0,0,0,.009.451c.134.122.183.195.069.385-.12.207.121.484.192.71.051.169-.069.292-.133.459a8.326,8.326,0,0,0-.128.866,8.387,8.387,0,0,1-.207.924c-.083.237-1.469,4.2-1.849,5.4a8.656,8.656,0,0,0-.531,1.658,1.084,1.084,0,0,1-.2.532,1.315,1.315,0,0,0-.255.5c-.014.108-.128.3-.251.286-.428-.032-.655.218-.94.484a.407.407,0,0,0-.122.276c-.054.5-.634.746-.713.914l.01.09a1.242,1.242,0,0,1-.36.013,14.478,14.478,0,0,0-2.264-.18,1.439,1.439,0,0,1-.76-.178c-.442-.244-.932-.366-1.382-.584a.916.916,0,0,0-1.036.553c-.106.475,1.371,1.7,1.611,1.915a22.691,22.691,0,0,0,2.2,1.39c.571.4,2.031,1.451,2.2,1.589,1.078.921,1.832.975,2.1.746a3.582,3.582,0,0,0,.94-1.305,1.968,1.968,0,0,1,.561-1.024l.169-.079c.116-.055.59-.23.58-.658.008-.016-.029-.345-.023-.363a1.318,1.318,0,0,1,.129-.106,2.064,2.064,0,0,0,.45-.676c.214-.568,1.776-4.272,2.073-4.753a14.365,14.365,0,0,0,1.806-4.875,9.064,9.064,0,0,0,.327-1.715,1.148,1.148,0,0,1,.122-.585c.069-.129.088-.276.138-.354a4.306,4.306,0,0,0,.15-.707,2.551,2.551,0,0,1,.609-1.1,19.168,19.168,0,0,1,1.866-2c.82-.745,1.593-1.539,2.424-2.27.667-.589,1.155-1.334,1.773-1.965.168-.171.249-.157.353.058a40.487,40.487,0,0,0,2.6,4.708c.829,1.256,2.434,3.26,2.94,3.434,1.7.584,3.713-.127,4.265-.077.255.023.511.029.766.045a.449.449,0,0,0,.4-.171c.2-.259.29-.008.547-.151a.806.806,0,0,1,.5-.048c.37.149.522.292.85-.108,1.094.144,4.994-.057,6.179.2a13.267,13.267,0,0,0,3.212.352.868.868,0,0,0,.079.108.244.244,0,0,0,.211.179,2.1,2.1,0,0,0,.65.189.407.407,0,0,0,.3-.065.917.917,0,0,1,1.217.264,14.529,14.529,0,0,0,1.5,1.706,1.431,1.431,0,0,1,.421.656c.148.484.415.912.587,1.382a.916.916,0,0,0,1.13.323c.408-.267.207-2.176.18-2.5M1181.86,285.7c1.18.561,2.335,2.173,3.027,1.861.144-.064.33-.672.421-.634.132.055.818.378.772.533a7.49,7.49,0,0,1-1.852,3.376c-.506.495-1.258,1.589-1.65,1.939a.648.648,0,0,1-.256,0c-.051-.374-.107-.748-.171-1.143a45.322,45.322,0,0,1-.538-5.9c.013-.259.019-.138.248-.026" transform="translate(-1142.099 -262.402)" fill="#003da5"/>
    </g>
  </g>
</svg>
