<svg xmlns="http://www.w3.org/2000/svg" xmlns:xlink="http://www.w3.org/1999/xlink" width="113" height="72" viewBox="0 0 113 72">
  <defs>
    <clipPath id="clip-Icon-stickande">
      <rect width="113" height="72"/>
    </clipPath>
  </defs>
  <g id="Icon-stickande" clip-path="url(#clip-Icon-stickande)">
    <rect width="113" height="72" fill="rgba(0,0,0,0)"/>
    <g id="Icon-stickande-2" data-name="Icon-stickande" transform="translate(882.984 -107.714)">
      <g id="Group_28" data-name="Group 28" transform="translate(-823.244 120.089)">
        <path id="Path_350" data-name="Path 350" d="M-784.824,191.585c0,.057-.216.1-.483.1s-.482-.046-.482-.1.216-.1.482-.1S-784.824,191.527-784.824,191.585Z" transform="translate(785.789 -160.395)" fill="#668bc9"/>
        <g id="Group_27" data-name="Group 27" transform="translate(0.483)">
          <path id="Path_351" data-name="Path 351" d="M-777.92,133.215l-6.88,29.165,8.016-29.769Z" transform="translate(784.801 -130.27)" fill="#668bc9"/>
          <path id="Path_352" data-name="Path 352" d="M-769.732,130.584a2.182,2.182,0,0,1-2.686,1.519,2.183,2.183,0,0,1-1.518-2.687,2.181,2.181,0,0,1,2.686-1.518,2.181,2.181,0,0,1,1.518,2.686Z" transform="translate(779.282 -127.818)" fill="#3364b7"/>
        </g>
      </g>
      <path id="Path_353" data-name="Path 353" d="M-820.179,223.754c0,.057-.216.1-.482.1s-.483-.046-.483-.1.216-.1.483-.1S-820.179,223.7-820.179,223.754Z" transform="translate(-19.363 -56.768)" fill="#668bc9"/>
      <path id="Path_354" data-name="Path 354" d="M-810.109,227.186c0,.057-.216.1-.483.1s-.483-.046-.483-.1.216-.1.483-.1S-810.109,227.128-810.109,227.186Z" transform="translate(-24.516 -58.524)" fill="#668bc9"/>
      <path id="Path_355" data-name="Path 355" d="M-803.9,214.67c0,.057-.216.1-.482.1s-.483-.046-.483-.1.216-.1.483-.1S-803.9,214.612-803.9,214.67Z" transform="translate(-27.694 -52.119)" fill="#668bc9"/>
      <g id="Group_29" data-name="Group 29" transform="translate(-850.443 136.01)">
        <path id="Path_356" data-name="Path 356" d="M-838.189,164.887l8.806,28.643-7.666-28.944Z" transform="translate(839.802 -162.553)" fill="#668bc9"/>
        <path id="Path_357" data-name="Path 357" d="M-837.2,162.048a2.182,2.182,0,0,1-1.551,2.668,2.182,2.182,0,0,1-2.668-1.551,2.182,2.182,0,0,1,1.551-2.668A2.182,2.182,0,0,1-837.2,162.048Z" transform="translate(841.493 -160.424)" fill="#3364b7"/>
      </g>
      <g id="Group_30" data-name="Group 30" transform="translate(-837.576 136.637)">
        <path id="Path_358" data-name="Path 358" d="M-811.879,166.164l.878,30.872.3-29.941Z" transform="translate(813.472 -163.988)" fill="#668bc9"/>
        <path id="Path_359" data-name="Path 359" d="M-810.777,163.911a2.183,2.183,0,0,1-2.2,2.161,2.183,2.183,0,0,1-2.16-2.2,2.182,2.182,0,0,1,2.2-2.16A2.182,2.182,0,0,1-810.777,163.911Z" transform="translate(815.141 -161.708)" fill="#3364b7"/>
      </g>
      <g id="Group_31" data-name="Group 31" transform="translate(-831.703 129.16)">
        <path id="Path_360" data-name="Path 360" d="M-800.773,150.723l-2.34,30.793,3.51-29.736Z" transform="translate(803.114 -148.61)" fill="#668bc9"/>
        <path id="Path_361" data-name="Path 361" d="M-797.242,148.833a2.181,2.181,0,0,1-2.422,1.911,2.181,2.181,0,0,1-1.911-2.422,2.181,2.181,0,0,1,2.422-1.911A2.181,2.181,0,0,1-797.242,148.833Z" transform="translate(802.335 -146.396)" fill="#3364b7"/>
      </g>
      <g id="Group_33" data-name="Group 33" transform="translate(-849.048 112.713)">
        <path id="Path_362" data-name="Path 362" d="M-820.721,176.834c0,.057-.216.1-.482.1s-.483-.046-.483-.1.216-.1.483-.1S-820.721,176.776-820.721,176.834Z" transform="translate(829.962 -145.471)" fill="#668bc9"/>
        <g id="Group_32" data-name="Group 32">
          <path id="Path_363" data-name="Path 363" d="M-835.347,118.1l7.153,29.1-6-30.255Z" transform="translate(836.953 -114.878)" fill="#668bc9"/>
          <path id="Path_364" data-name="Path 364" d="M-834.315,114.459a2.182,2.182,0,0,1-1.7,2.575,2.182,2.182,0,0,1-2.575-1.7,2.182,2.182,0,0,1,1.7-2.575,2.181,2.181,0,0,1,2.575,1.7Z" transform="translate(838.635 -112.713)" fill="#3364b7"/>
        </g>
      </g>
      <g id="Group_35" data-name="Group 35" transform="translate(-858.984 148.173)">
        <path id="Path_365" data-name="Path 365" d="M-833.673,247.191c.015.056-.183.155-.441.222s-.479.077-.493.021.183-.154.441-.222S-833.687,247.136-833.673,247.191Z" transform="translate(846.51 -216.968)" fill="#668bc9"/>
        <g id="Group_34" data-name="Group 34">
          <path id="Path_366" data-name="Path 366" d="M-855.655,189.794l10.745,27.973-9.63-28.351Z" transform="translate(857.281 -187.422)" fill="#668bc9"/>
          <path id="Path_367" data-name="Path 367" d="M-854.735,186.814a2.182,2.182,0,0,1-1.364,2.768,2.183,2.183,0,0,1-2.769-1.364,2.182,2.182,0,0,1,1.365-2.768,2.182,2.182,0,0,1,2.768,1.364Z" transform="translate(858.984 -185.333)" fill="#3364b7"/>
        </g>
      </g>
      <g id="Group_37" data-name="Group 37" transform="translate(-824.104 146.746)">
        <path id="Path_368" data-name="Path 368" d="M-786.612,246.363c-.014.056-.235.05-.494-.013s-.458-.159-.445-.215.235-.049.494.014S-786.6,246.308-786.612,246.363Z" transform="translate(787.551 -215)" fill="#668bc9"/>
        <g id="Group_36" data-name="Group 36" transform="translate(0.449)">
          <path id="Path_369" data-name="Path 369" d="M-780.414,186.583l-6.219,29.313,7.362-29.023Z" transform="translate(786.633 -184.546)" fill="#668bc9"/>
          <path id="Path_370" data-name="Path 370" d="M-772.9,185.13a2.182,2.182,0,0,1-2.651,1.579,2.181,2.181,0,0,1-1.579-2.651,2.181,2.181,0,0,1,2.651-1.579A2.181,2.181,0,0,1-772.9,185.13Z" transform="translate(781.804 -182.411)" fill="#3364b7"/>
        </g>
      </g>
      <g id="Group_39" data-name="Group 39" transform="translate(-812.775 140.789)">
        <path id="Path_371" data-name="Path 371" d="M-751.827,235c.013.056-.186.15-.446.211s-.479.065-.493.01.186-.15.446-.211S-751.84,234.944-751.827,235Z" transform="translate(758.423 -203.344)" fill="#668bc9"/>
        <g id="Group_38" data-name="Group 38">
          <path id="Path_372" data-name="Path 372" d="M-761.081,174.677l4.553,29.618-3.382-29.751Z" transform="translate(762.677 -172.428)" fill="#668bc9"/>
          <path id="Path_373" data-name="Path 373" d="M-760,172.147a2.183,2.183,0,0,1-1.921,2.415,2.182,2.182,0,0,1-2.415-1.922,2.181,2.181,0,0,1,.46-1.606,2.181,2.181,0,0,1,1.462-.809A2.182,2.182,0,0,1-760,172.147Z" transform="translate(764.35 -170.211)" fill="#3364b7"/>
        </g>
      </g>
      <g id="Group_41" data-name="Group 41" transform="translate(-799.884 129.016)">
        <path id="Path_374" data-name="Path 374" d="M-736.983,211.013c0,.057-.221.1-.486.084s-.48-.066-.479-.123.22-.1.487-.084S-736.981,210.956-736.983,211.013Z" transform="translate(737.948 -179.253)" fill="#668bc9"/>
        <g id="Group_40" data-name="Group 40" transform="translate(0.478)">
          <path id="Path_375" data-name="Path 375" d="M-733.414,150.38l-3.554,29.754,4.718-29.568Z" transform="translate(736.968 -148.291)" fill="#668bc9"/>
          <path id="Path_376" data-name="Path 376" d="M-728.63,148.627a2.182,2.182,0,0,1-.874,1.424,2.182,2.182,0,0,1-1.626.388,2.182,2.182,0,0,1-1.81-2.5,2.18,2.18,0,0,1,.874-1.424,2.18,2.18,0,0,1,1.626-.387,2.18,2.18,0,0,1,1.423.874,2.18,2.18,0,0,1,.387,1.625Z" transform="translate(734.921 -146.101)" fill="#3364b7"/>
        </g>
      </g>
    </g>
  </g>
</svg>
