<svg xmlns="http://www.w3.org/2000/svg" xmlns:xlink="http://www.w3.org/1999/xlink" width="113" height="72" viewBox="0 0 113 72">
  <defs>
    <clipPath id="clip-icon-huggande">
      <rect width="113" height="72"/>
    </clipPath>
  </defs>
  <g id="icon-huggande" clip-path="url(#clip-icon-huggande)">
    <rect width="113" height="72" fill="rgba(0,0,0,0)"/>
    <g id="icon-huggande-2" data-name="icon-huggande" transform="translate(681.398 -108.025)">
      <path id="Path_377" data-name="Path 377" d="M-623.232,118.271c-5.7,9.575-6.583,11.437-7.267,12.878-1.151,2.426-10.724,22.306-11.387,23.57q-1.1,2.1-2.2,4.186c-.923,1.729-1.877,3.441-2.776,5.182a32.121,32.121,0,0,0-1.888,5.1,47.87,47.87,0,0,0-1.623,6.654,1.8,1.8,0,0,0,.552,1.615c1.859,1.39,2.861,1.515,3.7,1.387A18.885,18.885,0,0,0-641.6,177.6a.879.879,0,0,0,.613-.461.879.879,0,0,0,.018-.767c-.31-1.222-.562-2.077-.79-3.315a14.822,14.822,0,0,1-.21-2.628,13.865,13.865,0,0,1,.829-4.164c.588-1.669,3.907-8.36,4.782-10.113,1.449-2.9,19.51-34.324,19.59-34.694.147-.676-.953-.95-2.922-2.289C-622.425,117.315-623.232,118.271-623.232,118.271Z" fill="#99b1db" fill-rule="evenodd"/>
      <path id="Path_378" data-name="Path 378" d="M-608.362,127.728a4.31,4.31,0,0,1-1.342-.884c-.827-.9-.315-1.115.078-1.837.973-1.787,2.4-3.85,3.389-5.627a.774.774,0,0,1,.929-.367c1.326.617,2.035.874,3.633,1.724,1.928.845,3.66,2.022,5.553,2.877a36.258,36.258,0,0,0,7.465,2.354,48.764,48.764,0,0,0,7.619.793c.732.038.94.4.793,1.236a25.992,25.992,0,0,1-1.724,5.461,28.518,28.518,0,0,1-6.206,8.995,13.726,13.726,0,0,1-3.056,2.434.6.6,0,0,1-.509.108.6.6,0,0,1-.4-.33c-1.058-1.868-2.087-3.753-3.154-5.616-.977-1.707-1.99-3.394-2.989-5.088a6.755,6.755,0,0,0-1.24-2,9.645,9.645,0,0,0-1.994-1.018Z" transform="translate(-20.069 -0.467)" fill="#3364b7" fill-rule="evenodd"/>
    </g>
  </g>
</svg>
