<svg xmlns="http://www.w3.org/2000/svg" xmlns:xlink="http://www.w3.org/1999/xlink" width="110" height="104" viewBox="0 0 110 104">
  <defs>
    <clipPath id="clip-icon-staller">
      <rect width="110" height="104"/>
    </clipPath>
  </defs>
  <g id="icon-staller" clip-path="url(#clip-icon-staller)">
    <rect width="110" height="104" fill="rgba(0,0,0,0)"/>
    <path id="icon-staller-2" data-name="icon-staller" d="M1221.26,745.571c-.2-.888-1.727-8.273-2.361-12.289a78.486,78.486,0,0,1-.826-9.736,91.789,91.789,0,0,1,2.223-13.921c1.769-7.12,6.088-18,4.479-18.287-1.09-.2-1.643,1.184-1.609,1,0,0-1.108-2.476-3.788,7.487-2.248,8.358-4.64,20.211-4.64,20.211s-1.586-.206-9.081-.5c-1.348-.054-2.5-.061-3.486-.034v-.1a8.416,8.416,0,0,1,.259-1.517,16.674,16.674,0,0,0,7.593-3.946c3.344-3.03,2.833-6.362,2.358-9.242-.112-.68.3-2.066.193-2.484-1.6-6.142-3.488-9.164-3.959-11.122-1.872-7.773-3.695-10.158-5.052-12.013a7.3,7.3,0,0,0-3.767-2.238c-.457-.141-2.849-.664-2.766-1.948,0,0,3.538-.151,1.6-1.266-2.33-1.341.125-4.218-1.874-6.616a7.974,7.974,0,0,0-2.9-2.392c-.954-.572-2.908-2.384-4.575-1.144a14.441,14.441,0,0,1-2.446,1.213,11.346,11.346,0,0,0-1.431.746c-.527.43-.312.3-.832,1a7.034,7.034,0,0,0-1.1,2.2,1.458,1.458,0,0,0-.045.17.783.783,0,0,0-.015.5h0a2.993,2.993,0,0,0,.078.373,4.864,4.864,0,0,0,1.56,2.053c.025.035.106.223.132.252a.983.983,0,0,1,.141.886c-.043.3-.033.24-.124.719s-.134.5-.211.9-.112.532.057.771a.382.382,0,0,0,.358.153,6.2,6.2,0,0,0,.674-.1.414.414,0,0,1,.468.258c.1.283-.005.612.221.722s.7-.03.6.2c-.036.079-.171.094-.093.348.053.169.178.219.326.279.172.071.292.016.375.3a5.522,5.522,0,0,0,.226.753,1.013,1.013,0,0,0,1.185.438c.532-.15,1.109-.5,2.092-.838,1.094-.375,1.7.109,1.619.513-.047.233-1.409,1.183-1.321,5.082.009.4,0,.779,0,1.161v.033c-.006.4-.008.814.011,1.256.007.226.017.462.029.705.125,2.343-.131,2.906.047,4.913a8.289,8.289,0,0,0,1.32,3.308c.2.313.363.556.5.766a50.046,50.046,0,0,0,2.337,7.348c-4.352,2.12-10.949,5.834-14.313,7.53-1.519.766-2.517,1.372-2.945,2.9a.431.431,0,0,1-.224.33,4.036,4.036,0,0,0-1.783,1.823,3.658,3.658,0,0,0-.574,2.221A56.6,56.6,0,0,0,1180.5,730.6v.006c.041.087.082.173.122.26.451,1.022,1.1,2.375,1.393,3.126.241.623.208,1.876.674,2.363a.7.7,0,0,1,.255.48c.057.249-.4.337-.22,1.063.039.153.36.462.226.581-.373.339.037.826.032,1.258a5.975,5.975,0,0,1-2.244.963c-.677.216-2.7.311-3.179,1.28-.207.413-.9,1.42,1,1.646.724.086,3.331.155,3.867.11-.6.216-4.405,1.591-4.606,1.623-1.026.159-1.914.172-2.331,1.068-.31.669-.294.933.107,1.252a4.842,4.842,0,0,0,2.629,1.033,4.7,4.7,0,0,0,1.432.008,43.983,43.983,0,0,0,5.67-.823,6.032,6.032,0,0,1,.887-.15c.086.053,2.106-.183,2.689-.186.293,0,.681-.027.975-.03a1.334,1.334,0,0,0,1.36-1.5,17.364,17.364,0,0,0-.167-2.162,1.654,1.654,0,0,0,.938-.441c.3-.3.215-1.813.039-3.191a13.878,13.878,0,0,0-.584-1.635,5.94,5.94,0,0,1-.024-.9,10.375,10.375,0,0,0-.786-2.621c-.429-.723-1.469-6.748-2.109-8.9-.673-2.26-1.558-3.8-1.286-4.207.177-.266,4.2-1.272,8.849-2.457a18.614,18.614,0,0,0-1.7,1.56c-.421.457-.37,1.175-.371,2.019,0,1.365.3,2.341.857,1.562.232-.323-.149-1.817,1.054-2.754l.1-.077c-.784,4.634-2.793,26.314-2.76,26.548.057.422.147.583.519.609a3.232,3.232,0,0,0,1-.02c.264-.053.417-.084.456-.628.009-.127.045-.6.065-.727.012-.08.468-4.179,1.065-9.067.022-.183.062-.683.579-.689,1.478-.016,3.848-.009,4.377-.011,2.4-.011,15.479.23,15.862.232.328,0,.36.4.457.764.249.932,1.714,7.426,2.3,9.385.109.362.167.754.959.769.477.008,1,.021.86-.745-.089-.48-.3-1.66-.544-2.689m-6.079-21.8c.78,0,.726.381.734.785a68.788,68.788,0,0,0,.735,7.273c.067.523.021.739-.518.711-1.1-.056-15.334-.151-17.4-.228-.729-.028-1.112.073-1.339-.209-.332-.414-.183-1.366.157-5.306.075-.859.261-2.858.289-3.309.026-.433.339-.563.881-.527.6.041,15.961.807,16.459.81m1.574,13.158c-.5.027-15.277-.143-18.693-.125-.356,0-1.137.076-1.292-.213-.207-.385-.054-1.321.23-2.888.1-.525.532-.477,1.208-.461,2.817.069,16.577.283,18.17.3.351.005.51.132.569.506.172,1.1.194,1.288.277,2.184.044.49.031.667-.469.693" transform="translate(-1145.273 -645.049)" fill="#003da5"/>
  </g>
</svg>
