<svg xmlns="http://www.w3.org/2000/svg" xmlns:xlink="http://www.w3.org/1999/xlink" width="110" height="104" viewBox="0 0 110 104">
  <defs>
    <clipPath id="clip-Icon-springer">
      <rect width="110" height="104"/>
    </clipPath>
  </defs>
  <g id="Icon-springer" clip-path="url(#clip-Icon-springer)">
    <rect width="110" height="104" fill="rgba(0,0,0,0)"/>
    <path id="Icon-springer-2" data-name="Icon-springer" d="M1228.47,342.912a33.079,33.079,0,0,0-.879-3.658c-.192-.989-.646-3.554-.684-3.875-.191-2.044-.92-2.86-1.429-2.892a5.184,5.184,0,0,0-2.293.407,2.472,2.472,0,0,1-2.151.394.842.842,0,0,0-.706.108,30.07,30.07,0,0,0-3.41-.779,41.6,41.6,0,0,0-7.826-.817c-.762.014-5.563.423-6.166.5-.507.062-.193.839-.7.2,0,0-.9.425-1.015.356-.615-.356-1.845.036-1.969-.065-.3-.242-.447-.246-.574-.6s-2.22-8.132-2.952-10.076c-.239-.815-.339-.415-.219-1.092.177-1,1.424-2.974,1.145-5.548-.2-1.812-1.13-4.4-1.037-4.522,0,0,.267-.013-.036-1.2a9.4,9.4,0,0,1-.088-1.751,9.087,9.087,0,0,0,2.189-2.676,6.286,6.286,0,0,1,1.416-1.7c.994-.853,1.945-1.754,2.936-2.609a25.233,25.233,0,0,0,3.97-4.723,1.4,1.4,0,0,0,.147-1.064,7.743,7.743,0,0,0-2.209-2.651c-.863-.643-1.876-1.068-2.7-1.775-.262-.224.323-.1-.221-.516a54.042,54.042,0,0,0-7.106-4.36,18.409,18.409,0,0,1-3.294-1.323,2.454,2.454,0,0,0-1.862-.049,1.661,1.661,0,0,1-.168.036,1.691,1.691,0,0,1-.875-1.461s3.2,1.521,2.007-.371c-1.433-2.275,2.083-3.671,1.436-6.724a7.946,7.946,0,0,0-1.442-3.469c-.575-.952-1.455-3.467-3.509-3.151a14.449,14.449,0,0,1-2.729-.071,11.144,11.144,0,0,0-1.613-.009c-.668.133-.416.119-1.206.5a7.021,7.021,0,0,0-1.995,1.43,1.507,1.507,0,0,0-.12.129.783.783,0,0,0-.248.44h0a2.818,2.818,0,0,0-.106.367,4.862,4.862,0,0,0,.418,2.544c.006.042-.011.246,0,.284a.985.985,0,0,1-.29.849c-.179.248-.143.2-.446.578s-.355.383-.61.7-.347.419-.31.708c.018.152.1.222.245.3a6.045,6.045,0,0,0,.644.223.413.413,0,0,1,.294.448c-.04.3-.29.538-.142.743s.633.3.441.453c-.068.053-.194,0-.243.265a.451.451,0,0,0,.157.4c.119.143.251.15.189.446a5.635,5.635,0,0,0-.153.771,1.016,1.016,0,0,0,.843.942c.541.116,1.215.076,2.242.238,1.143.18,1.453.891,1.192,1.211-.054.065-.221.137-.489.355a6.293,6.293,0,0,0-3.9,2.209c-.661.909-1.657,4.609-2.01,5.637-.545,1.591-1.053,2.76-1.638,4.331a13.383,13.383,0,0,1-.789,1.8c-.056.1-.121.227-.261.166a3.13,3.13,0,0,1-1.057-.521,20.189,20.189,0,0,1-2.477-3.2.753.753,0,0,1,.02-.767c.435-.912,1.212-1.716.948-2.869-.053-.229-.11-.366-.348-.453-.254-.092-.564-.1-.734-.367-.058-.093-.075-.243-.231-.206a.433.433,0,0,0-.258.258c-.05.1.044.286-.111.282-.134,0-.136-.191-.171-.306a.947.947,0,0,0-1.481-.431.833.833,0,0,1-.764.261c-.4-.066-.53.14-.57.477-.016.135,0,.3-.2.3-.268,0-.332.194-.363.395a.6.6,0,0,1-.279.433.646.646,0,0,0-.248.884,15.59,15.59,0,0,0,1.1,2.041c.7,1.006,1.718,1.753,2.361,2.8a25.1,25.1,0,0,0,4.452,5.9c.25.228,1.02.775,1.339.658a4.442,4.442,0,0,0,2.5-2.126,13.053,13.053,0,0,0,1.126-2.2c.032-.087-.1.628-.094,1.006a56.063,56.063,0,0,0,1.332,7.415c.321,1.529.77,5.039,1.357,7.25.086.324.117,1.314.31,1.314.241,0,.846-.539.846-.539a15.561,15.561,0,0,0-1.484,2.03c-.283.633-8.747,12.9-9.066,13.687s-.489.819-.826,1.652a3.047,3.047,0,0,0-.145.718c.009.375.219.614-.093.872a.4.4,0,0,0,.013.653c.194.176.265.282.1.557-.173.3.175.7.278,1.028.074.244-.1.423-.192.664a12,12,0,0,0-.185,1.254,12.182,12.182,0,0,1-.3,1.337c-.121.343-2.126,6.08-2.676,7.813a12.523,12.523,0,0,0-.768,2.4,1.568,1.568,0,0,1-.294.77,1.9,1.9,0,0,0-.369.724c-.02.157-.185.43-.364.414-.619-.047-.948.315-1.361.7a.59.59,0,0,0-.177.4c-.079.725-.918,1.079-1.032,1.323l.015.13a1.8,1.8,0,0,1-.522.019,20.944,20.944,0,0,0-3.277-.26,2.081,2.081,0,0,1-1.1-.257c-.64-.353-1.349-.53-2-.845a1.326,1.326,0,0,0-1.5.8c-.154.687,1.984,2.465,2.332,2.772a32.8,32.8,0,0,0,3.178,2.012c.827.576,2.94,2.1,3.19,2.3,1.56,1.333,2.652,1.411,3.039,1.079a5.185,5.185,0,0,0,1.361-1.889,2.848,2.848,0,0,1,.812-1.482l.245-.115c.168-.079.854-.333.839-.953.011-.023-.042-.5-.033-.525a1.934,1.934,0,0,1,.187-.154,2.988,2.988,0,0,0,.652-.978c.31-.822,2.57-6.183,3-6.88a20.789,20.789,0,0,0,2.614-7.056,13.113,13.113,0,0,0,.473-2.482,1.656,1.656,0,0,1,.177-.846c.1-.186.127-.4.2-.513a6.211,6.211,0,0,0,.217-1.024,3.693,3.693,0,0,1,.881-1.593,27.715,27.715,0,0,1,2.7-2.89c1.187-1.078,2.306-2.227,3.508-3.286.966-.852,1.672-1.931,2.566-2.844.243-.248.36-.227.511.084a58.638,58.638,0,0,0,3.765,6.814c1.2,1.818,3.523,4.719,4.255,4.971,2.461.845,5.374-.184,6.173-.111.369.033.739.042,1.109.065a.65.65,0,0,0,.572-.248c.285-.375.42-.011.792-.218a1.167,1.167,0,0,1,.719-.07c.535.216.756.422,1.23-.156,1.583.208,7.228-.082,8.943.287a19.2,19.2,0,0,0,4.649.51,1.263,1.263,0,0,0,.115.157.354.354,0,0,0,.306.259,3.037,3.037,0,0,0,.941.273.588.588,0,0,0,.431-.094,1.328,1.328,0,0,1,1.761.382,21,21,0,0,0,2.169,2.469,2.071,2.071,0,0,1,.609.949c.214.7.6,1.32.849,2a1.325,1.325,0,0,0,1.635.468c.59-.386.3-3.15.26-3.612m-34.39-49.871c1.707.812,3.38,3.145,4.381,2.694.208-.093.478-.973.609-.918.191.08,1.184.547,1.118.772a10.84,10.84,0,0,1-2.68,4.886c-.732.716-1.821,2.3-2.388,2.807a.939.939,0,0,1-.37,0c-.074-.541-.155-1.083-.248-1.655a65.585,65.585,0,0,1-.779-8.545c.019-.375.028-.2.359-.038" transform="translate(-1136.535 -259.311)" fill="#003da5"/>
  </g>
</svg>
