<svg xmlns="http://www.w3.org/2000/svg" xmlns:xlink="http://www.w3.org/1999/xlink" width="250" height="314" viewBox="0 0 250 314">
  <defs>
    <clipPath id="clip-icon-6-12">
      <rect width="250" height="314"/>
    </clipPath>
  </defs>
  <g id="icon-6-12" clip-path="url(#clip-icon-6-12)">
    <rect width="250" height="314" fill="rgba(0,0,0,0)"/>
    <g id="icon-6-12-2" data-name="icon-6-12" transform="translate(-99 -245.004)">
      <path id="Path_577" data-name="Path 577" d="M2511.347,2082.63c33.28-20.313,87.239-45.473,155.3-49.985a334.31,334.31,0,0,1,35.978-.429v-4a342.514,342.514,0,0,0-36.476.449c-69.464,4.607-124.43,30.221-158.308,50.9-36.667,22.378-55.015,41.75-55.218,41.966v6.777A321.1,321.1,0,0,1,2511.347,2082.63Z" transform="translate(-2354.126 -1687.925)" fill="#003da5" stroke="#003da5" stroke-width="1"/>
      <g id="Group_128" data-name="Group 128" transform="translate(185.004 406.693)">
        <path id="Path_582" data-name="Path 582" d="M2689.88,1050.68a20.551,20.551,0,1,0-41.1,0c0,.287.009.572.02.856h41.064C2689.88,1051.25,2689.88,1050.97,2689.88,1050.68Z" transform="translate(-2629.867 -1009.23)" fill="#003da5"/>
        <path id="Path_583" data-name="Path 583" d="M2833.33,853.4a.856.856,0,0,0,.856-.856V836.051a.856.856,0,0,0-1.713,0v16.491a.857.857,0,0,0,.857.858Z" transform="translate(-2793.866 -835.195)" fill="#003da5"/>
        <path id="Path_584" data-name="Path 584" d="M2741.82,935.833a.857.857,0,1,0,1.629-.529l-2.548-7.842a.856.856,0,1,0-1.629.529Z" transform="translate(-2710.623 -917.041)" fill="#003da5"/>
        <path id="Path_585" data-name="Path 585" d="M2588.73,1038.03l6.671,4.847a.856.856,0,0,0,1.007-1.385l-6.671-4.847a.856.856,0,0,0-1.007,1.385Z" transform="translate(-2575.94 -1014.898)" fill="#003da5"/>
        <path id="Path_586" data-name="Path 586" d="M2540.71,1214.68a.856.856,0,0,0-.856-.856h-8.246a.857.857,0,0,0,0,1.713h8.246a.856.856,0,0,0,.856-.857Z" transform="translate(-2524.493 -1173.23)" fill="#003da5"/>
        <path id="Path_587" data-name="Path 587" d="M3067.25,1214.68a.856.856,0,0,0-.856-.856h-8.246a.857.857,0,0,0,0,1.713h8.246A.857.857,0,0,0,3067.25,1214.68Z" transform="translate(-2994.576 -1173.23)" fill="#003da5"/>
        <path id="Path_588" data-name="Path 588" d="M3046.71,1102.03a.857.857,0,0,0,.688,1.559l15.685-5.1a.857.857,0,0,0-.53-1.629l-7.84,2.548h0l-7.842,2.548a.863.863,0,0,0-.161.074Z" transform="translate(-2984.749 -1068.768)" fill="#003da5"/>
        <path id="Path_589" data-name="Path 589" d="M3014.51,1042.69a.856.856,0,0,0,1.2.189l6.671-4.847a.856.856,0,1,0-1.007-1.385l-6.671,4.847a.857.857,0,0,0-.193,1.2Z" transform="translate(-2956.243 -1014.898)" fill="#003da5"/>
        <path id="Path_590" data-name="Path 590" d="M2902.53,936.383a.857.857,0,0,0,1.079-.55l2.548-7.842a.856.856,0,0,0-1.629-.529l-2.548,7.842a.857.857,0,0,0,.55,1.079Z" transform="translate(-2855.885 -917.041)" fill="#003da5"/>
        <path id="Path_591" data-name="Path 591" d="M2619.78,922.209a.856.856,0,1,0,1.385-1.007l-4.847-6.671h0l-4.846-6.67a.856.856,0,0,0-1.385,1.007Z" transform="translate(-2595.174 -899.755)" fill="#003da5"/>
        <path id="Path_592" data-name="Path 592" d="M2472.96,1098.49l15.684,5.1a.857.857,0,0,0,.53-1.629l-7.843-2.548h0l-7.841-2.548a.856.856,0,1,0-.529,1.629Z" transform="translate(-2472.372 -1068.77)" fill="#003da5"/>
        <path id="Path_593" data-name="Path 593" d="M2964.97,922.4a.855.855,0,0,0,1.2-.189l9.694-13.342a.856.856,0,1,0-1.386-1.007l-4.846,6.67h0l-4.847,6.671a.856.856,0,0,0,.185,1.2Z" transform="translate(-2911.84 -899.755)" fill="#003da5"/>
      </g>
    </g>
  </g>
</svg>
