<svg xmlns="http://www.w3.org/2000/svg" xmlns:xlink="http://www.w3.org/1999/xlink" width="250" height="314" viewBox="0 0 250 314">
  <defs>
    <clipPath id="clip-Icon-12-18">
      <rect width="250" height="314"/>
    </clipPath>
  </defs>
  <g id="Icon-12-18" clip-path="url(#clip-Icon-12-18)">
    <rect width="250" height="314" fill="rgba(0,0,0,0)"/>
    <g id="icon-12-18-2" data-name="icon-12-18" transform="translate(-312.996 -244.325)">
      <path id="Path_578" data-name="Path 578" d="M2881.343,2133.5c-82.062-60.069-164.542-92.012-245.719-95.289v4.005c79.7,3.289,160.889,34.846,241.855,94.112q4.07,2.979,8.145,5.867v-5.614C2884.2,2135.55,2882.777,2134.54,2881.343,2133.5Z" transform="translate(-2322.128 -1696.212)" fill="#003da5" stroke="#003da5" stroke-width="1"/>
      <g id="Group_129" data-name="Group 129" transform="translate(398.994 264.326)">
        <circle id="Ellipse_1" data-name="Ellipse 1" cx="20.551" cy="20.551" r="20.551" transform="translate(10.401 41.451) rotate(-45)" fill="#003da5"/>
        <path id="Path_594" data-name="Path 594" d="M1344.2,853.4a.857.857,0,0,0,.856-.856V836.051a.856.856,0,1,0-1.713,0v16.491a.857.857,0,0,0,.857.858Z" transform="translate(-1304.736 -835.195)" fill="#003da5"/>
        <path id="Path_595" data-name="Path 595" d="M1252.69,935.833a.857.857,0,1,0,1.629-.529l-2.548-7.842a.857.857,0,0,0-1.629.529Z" transform="translate(-1221.493 -917.041)" fill="#003da5"/>
        <path id="Path_596" data-name="Path 596" d="M1099.6,1038.03l6.671,4.847a.856.856,0,0,0,1.007-1.385l-6.671-4.847a.856.856,0,1,0-1.007,1.385Z" transform="translate(-1086.81 -1014.898)" fill="#003da5"/>
        <path id="Path_597" data-name="Path 597" d="M1042.48,1213.82a.857.857,0,0,0,0,1.713h8.246a.857.857,0,0,0,0-1.713Z" transform="translate(-1035.362 -1173.23)" fill="#003da5"/>
        <path id="Path_598" data-name="Path 598" d="M1107.47,1346.32a.857.857,0,0,0-1.2-.189l-6.671,4.847a.856.856,0,1,0,1.007,1.385l6.671-4.847a.856.856,0,0,0,.193-1.2Z" transform="translate(-1086.81 -1291.205)" fill="#003da5"/>
        <path id="Path_599" data-name="Path 599" d="M1253.77,1427.68a.857.857,0,0,0-1.079.55l-2.548,7.842a.857.857,0,0,0,1.629.529l2.548-7.842a.857.857,0,0,0-.55-1.079Z" transform="translate(-1221.493 -1364.115)" fill="#003da5"/>
        <path id="Path_600" data-name="Path 600" d="M1414.48,1428.22a.856.856,0,0,0-1.629.529l2.548,7.842a.856.856,0,0,0,1.629-.529Z" transform="translate(-1366.755 -1364.113)" fill="#003da5"/>
        <path id="Path_601" data-name="Path 601" d="M1533.25,1350.98l-6.671-4.847a.856.856,0,1,0-1.007,1.385l6.671,4.847a.856.856,0,0,0,1.007-1.385Z" transform="translate(-1467.112 -1291.205)" fill="#003da5"/>
        <path id="Path_602" data-name="Path 602" d="M1569.01,1213.82a.857.857,0,0,0,0,1.713h8.246a.857.857,0,0,0,0-1.713Z" transform="translate(-1505.445 -1173.23)" fill="#003da5"/>
        <path id="Path_603" data-name="Path 603" d="M1557.74,1101.96a.856.856,0,1,0,.529,1.629l15.684-5.1a.857.857,0,1,0-.529-1.629l-7.84,2.548h0Z" transform="translate(-1495.619 -1068.768)" fill="#003da5"/>
        <path id="Path_604" data-name="Path 604" d="M1525.38,1042.69a.856.856,0,0,0,1.2.189l6.671-4.847a.856.856,0,0,0-1.007-1.385l-6.671,4.847a.856.856,0,0,0-.193,1.2Z" transform="translate(-1467.112 -1014.898)" fill="#003da5"/>
        <path id="Path_605" data-name="Path 605" d="M1413.4,936.383a.857.857,0,0,0,1.079-.55l2.548-7.842a.856.856,0,1,0-1.629-.529l-2.548,7.842A.857.857,0,0,0,1413.4,936.383Z" transform="translate(-1366.755 -917.041)" fill="#003da5"/>
        <path id="Path_606" data-name="Path 606" d="M1130.65,922.209a.856.856,0,1,0,1.385-1.007l-4.847-6.671h0l-4.846-6.67a.856.856,0,0,0-1.385,1.007Z" transform="translate(-1106.043 -899.755)" fill="#003da5"/>
        <path id="Path_607" data-name="Path 607" d="M983.834,1098.49l15.685,5.1a.857.857,0,0,0,.529-1.629l-7.842-2.548h0l-7.841-2.548a.856.856,0,0,0-.529,1.629Z" transform="translate(-983.242 -1068.77)" fill="#003da5"/>
        <path id="Path_608" data-name="Path 608" d="M1000.6,1283.89a.857.857,0,0,0-1.079-.55l-7.843,2.548h0l-7.841,2.548a.856.856,0,1,0,.529,1.629l15.685-5.1A.857.857,0,0,0,1000.6,1283.89Z" transform="translate(-983.242 -1235.254)" fill="#003da5"/>
        <path id="Path_609" data-name="Path 609" d="M1131.84,1395.87a.858.858,0,0,0-1.2.189l-4.847,6.671h0l-4.846,6.67a.856.856,0,1,0,1.385,1.007l9.694-13.342A.857.857,0,0,0,1131.84,1395.87Z" transform="translate(-1106.043 -1335.612)" fill="#003da5"/>
        <path id="Path_610" data-name="Path 610" d="M1344.2,1438.64a.857.857,0,0,0-.856.856v16.491a.856.856,0,0,0,1.713,0V1439.5A.857.857,0,0,0,1344.2,1438.64Z" transform="translate(-1304.736 -1373.94)" fill="#003da5"/>
        <path id="Path_611" data-name="Path 611" d="M1481.88,1402.73h0l-4.847-6.671a.856.856,0,0,0-1.385,1.007l9.694,13.342a.856.856,0,0,0,1.385-1.007Z" transform="translate(-1422.71 -1335.612)" fill="#003da5"/>
        <path id="Path_612" data-name="Path 612" d="M1573.96,1288.44l-7.842-2.548-7.842-2.548a.856.856,0,0,0-.529,1.629l7.842,2.548,7.842,2.548a.856.856,0,0,0,.529-1.629Z" transform="translate(-1495.621 -1235.254)" fill="#003da5"/>
        <path id="Path_613" data-name="Path 613" d="M1475.84,922.4a.856.856,0,0,0,1.2-.189l9.694-13.342a.856.856,0,0,0-1.385-1.007l-4.846,6.67h0l-4.847,6.671a.856.856,0,0,0,.184,1.2Z" transform="translate(-1422.71 -899.755)" fill="#003da5"/>
      </g>
    </g>
  </g>
</svg>
