<svg xmlns="http://www.w3.org/2000/svg" xmlns:xlink="http://www.w3.org/1999/xlink" width="113" height="72" viewBox="0 0 113 72">
  <defs>
    <clipPath id="clip-Icon-tryckande">
      <rect width="113" height="72"/>
    </clipPath>
  </defs>
  <g id="Icon-tryckande" clip-path="url(#clip-Icon-tryckande)">
    <rect width="113" height="72" fill="rgba(0,0,0,0)"/>
    <g id="Icon-tryckande-2" data-name="Icon-tryckande" transform="translate(285.719 -114.959)">
      <path id="Path_386" data-name="Path 386" d="M-241,163.207c-.5,1.542-1.439,1.279-2.584.908h0c-1.145-.371-2.061-.708-1.561-2.25l11.2-34.581c.5-1.542,1.832-2.492,2.977-2.121h0c1.145.37,1.668,1.921,1.169,3.463Z" transform="translate(-0.001 -2.26)" fill="#99b1db" fill-rule="evenodd"/>
      <path id="Path_387" data-name="Path 387" d="M-208.745,183.217a.108.108,0,0,1-.054.064.108.108,0,0,1-.083.006l-1.519-.492a.108.108,0,0,1-.069-.136h0a.109.109,0,0,1,.137-.07l1.518.492a.108.108,0,0,1,.063.053.108.108,0,0,1,.007.083Z" transform="translate(-15.401 -27.7)" fill-rule="evenodd"/>
      <path id="Path_388" data-name="Path 388" d="M-209,184.018a.109.109,0,0,1-.137.07l-1.518-.492a.108.108,0,0,1-.063-.053.108.108,0,0,1-.007-.083h0a.108.108,0,0,1,.054-.064.108.108,0,0,1,.083-.006l1.518.491a.108.108,0,0,1,.064.054.108.108,0,0,1,.006.083Z" transform="translate(-15.287 -28.054)" fill-rule="evenodd"/>
      <path id="Path_389" data-name="Path 389" d="M-209.282,184.877a.108.108,0,0,1-.053.063.108.108,0,0,1-.083.007l-1.519-.492a.109.109,0,0,1-.07-.136h0a.108.108,0,0,1,.053-.063.108.108,0,0,1,.083-.007l1.519.492a.108.108,0,0,1,.063.053.108.108,0,0,1,.007.083Z" transform="translate(-15.164 -28.434)" fill-rule="evenodd"/>
      <path id="Path_390" data-name="Path 390" d="M-209.551,185.707a.109.109,0,0,1-.137.07l-1.518-.491a.108.108,0,0,1-.063-.053.108.108,0,0,1-.007-.083h0a.108.108,0,0,1,.053-.063.108.108,0,0,1,.083-.007l1.519.491a.108.108,0,0,1,.063.053.108.108,0,0,1,.007.083Z" transform="translate(-15.045 -28.802)" fill-rule="evenodd"/>
      <path id="Path_391" data-name="Path 391" d="M-209.83,186.568a.107.107,0,0,1-.053.063.107.107,0,0,1-.082.007l-1.519-.492a.108.108,0,0,1-.063-.053.108.108,0,0,1-.007-.083h0a.109.109,0,0,1,.137-.07l1.518.492a.108.108,0,0,1,.063.053.108.108,0,0,1,.007.083Z" transform="translate(-14.921 -29.182)" fill-rule="evenodd"/>
      <path id="Path_392" data-name="Path 392" d="M-210.089,187.368a.107.107,0,0,1-.053.064.107.107,0,0,1-.083.006l-1.518-.491a.108.108,0,0,1-.063-.054.108.108,0,0,1-.006-.083h0a.108.108,0,0,1,.053-.063.108.108,0,0,1,.083-.007l1.518.492a.107.107,0,0,1,.064.053.107.107,0,0,1,.006.083Z" transform="translate(-14.807 -29.536)" fill-rule="evenodd"/>
      <path id="Path_393" data-name="Path 393" d="M-210.367,188.228a.108.108,0,0,1-.053.063.108.108,0,0,1-.083.007l-1.519-.492a.108.108,0,0,1-.069-.136h0a.108.108,0,0,1,.053-.063.108.108,0,0,1,.083-.007l1.518.491a.108.108,0,0,1,.064.054.108.108,0,0,1,.006.083Z" transform="translate(-14.684 -29.917)" fill-rule="evenodd"/>
      <path id="Path_394" data-name="Path 394" d="M-210.636,189.058a.109.109,0,0,1-.137.07l-1.518-.492a.108.108,0,0,1-.063-.053.108.108,0,0,1-.007-.083h0a.107.107,0,0,1,.054-.063.107.107,0,0,1,.082-.006l1.519.491a.109.109,0,0,1,.07.136Z" transform="translate(-14.565 -30.284)" fill-rule="evenodd"/>
      <path id="Path_395" data-name="Path 395" d="M-213.219,196.343a.1.1,0,0,1-.046.063.1.1,0,0,1-.078.011l-1.34-.434a.1.1,0,0,1-.057-.054.1.1,0,0,1,0-.079h0a.1.1,0,0,1,.047-.063.1.1,0,0,1,.077-.01l1.34.433a.1.1,0,0,1,.057.054A.1.1,0,0,1-213.219,196.343Z" transform="translate(-13.511 -33.535)" fill-rule="evenodd"/>
      <path id="Path_396" data-name="Path 396" d="M-213.478,197.143a.1.1,0,0,1-.046.063.1.1,0,0,1-.078.011l-1.34-.434a.1.1,0,0,1-.057-.054.1.1,0,0,1,0-.078h0a.1.1,0,0,1,.046-.063.1.1,0,0,1,.078-.011l1.34.434a.1.1,0,0,1,.057.054A.1.1,0,0,1-213.478,197.143Z" transform="translate(-13.396 -33.889)" fill-rule="evenodd"/>
      <path id="Path_397" data-name="Path 397" d="M-213.757,198a.1.1,0,0,1-.046.063.1.1,0,0,1-.078.011l-1.34-.434a.1.1,0,0,1-.057-.054.1.1,0,0,1,0-.078h0a.1.1,0,0,1,.046-.063.1.1,0,0,1,.078-.011l1.34.434a.1.1,0,0,1,.057.054A.1.1,0,0,1-213.757,198Z" transform="translate(-13.273 -34.269)" fill-rule="evenodd"/>
      <path id="Path_398" data-name="Path 398" d="M-214.025,198.833a.1.1,0,0,1-.046.063.1.1,0,0,1-.078.011l-1.34-.434a.1.1,0,0,1-.056-.054.1.1,0,0,1,0-.078h0a.1.1,0,0,1,.046-.063.1.1,0,0,1,.078-.011l1.34.434a.1.1,0,0,1,.056.054.1.1,0,0,1,0,.078Z" transform="translate(-13.155 -34.636)" fill-rule="evenodd"/>
      <path id="Path_399" data-name="Path 399" d="M-214.3,199.693a.1.1,0,0,1-.047.063.1.1,0,0,1-.077.01l-1.34-.433a.1.1,0,0,1-.057-.054.1.1,0,0,1,0-.079h0a.1.1,0,0,1,.047-.063.1.1,0,0,1,.078-.01l1.34.433a.1.1,0,0,1,.057.054.1.1,0,0,1,0,.079Z" transform="translate(-13.031 -35.017)" fill-rule="evenodd"/>
      <path id="Path_400" data-name="Path 400" d="M-214.61,200.518a.1.1,0,0,1-.047.064.1.1,0,0,1-.078.01l-1.339-.434a.1.1,0,0,1-.057-.054.1.1,0,0,1,0-.078h0a.1.1,0,0,1,.047-.064.1.1,0,0,1,.078-.01l1.34.434a.1.1,0,0,1,.056.054.1.1,0,0,1,0,.078Z" transform="translate(-12.895 -35.382)" fill-rule="evenodd"/>
      <path id="Path_401" data-name="Path 401" d="M-214.941,201.321a.1.1,0,0,1-.046.063.1.1,0,0,1-.078.011l-1.34-.434a.1.1,0,0,1-.057-.054.1.1,0,0,1,0-.079h0a.1.1,0,0,1,.046-.063.1.1,0,0,1,.077-.01l1.339.433a.1.1,0,0,1,.058.054A.1.1,0,0,1-214.941,201.321Z" transform="translate(-12.749 -35.737)" fill-rule="evenodd"/>
      <path id="Path_402" data-name="Path 402" d="M-215.282,202.128a.1.1,0,0,1-.046.063.1.1,0,0,1-.078.011l-1.34-.434a.1.1,0,0,1-.057-.054.1.1,0,0,1,0-.078h0a.1.1,0,0,1,.046-.063.1.1,0,0,1,.078-.011l1.339.434a.1.1,0,0,1,.057.054A.1.1,0,0,1-215.282,202.128Z" transform="translate(-12.598 -36.094)" fill-rule="evenodd"/>
      <path id="Path_403" data-name="Path 403" d="M-222.081,126.812c2.214.836,4.424,1.686,6.635,2.529.152.058.3.159.283.314-.08.936.615,1.287,1.271,1.553,2.336.949,4.694,1.845,7.051,2.741.44.167,1.032.275,1.292-.155.324-.535.936-1.123.3-1.9-.346-.206-.228-.634-.338-.97a4.462,4.462,0,0,0-2.21-2.625c-.774-.418-2.414-1.31-2.674-1.451a106.332,106.332,0,0,0-14.733-6.679,3.672,3.672,0,0,0-.752-.184.779.779,0,0,0-.94.514c-.384.817-.956,1.544-1.379,2.347-.585,1.11-.559,1.148.541,1.734C-227.411,124.754-222.518,126.647-222.081,126.812Z" transform="translate(-7.359)" fill="#3364b7" fill-rule="evenodd"/>
      <path id="Path_404" data-name="Path 404" d="M-220.583,181.93l-1.251,3.4a2.223,2.223,0,0,1-.123.368c-.015.062.052.083.055.1.621.272.918.471.88.588l-.623,1.924c-.017.052-.119.074-.283.07a4.976,4.976,0,0,0-.078.682c.512.234.812.423.782.513l-.622,1.923c-.019.056-.165.068-.4.042a2.187,2.187,0,0,1-.017,1.254l-4.528,13.986c-.456,1.406-2.3,2.067-4.121,1.478a3.545,3.545,0,0,1-2.549-2.649.429.429,0,0,0-.009-.061c0-.041-.01-.082-.012-.123v-.02a2.107,2.107,0,0,1,.1-.76l4.528-13.986a2.185,2.185,0,0,1,.72-1.026c-.207-.119-.32-.214-.3-.27l.622-1.923c.03-.089.373-.067.912.039a3.2,3.2,0,0,0,.387-.576c-.154-.1-.234-.186-.217-.241l.623-1.924c.052-.175,1.224.151,1.436.075.091-.032.143-.217.18-.332l1.233-3.57,1.181-3.647.831-2.568a1.472,1.472,0,0,1,1.054-1.067l-.149-.049c-.15-.049-.177-.381-.061-.742a.9.9,0,0,1,.392-.559.556.556,0,0,0-.094-.224l-1.49-.482a.679.679,0,0,1-.452-.535.511.511,0,0,1-.011-.142.583.583,0,0,1,.006-.094v-.034c.277-1.243.446-1.694,1.48-1.667a9.774,9.774,0,0,1,2.893.493,9.318,9.318,0,0,1,2.617,1.221c.916.555.428,1.306.3,2,0,.019-.011.031-.016.049a.729.729,0,0,1-.032.146.7.7,0,0,1-.337.418.7.7,0,0,1-.534.056l-1.53-.484a.5.5,0,0,0-.175.135.883.883,0,0,1-.009.684c-.117.361-.333.615-.483.566l-.337-.109v.066a.911.911,0,0,1,.085.926l-1.134,3.084Z" transform="translate(-5.22 -21.736)" fill="#99b1db" fill-rule="evenodd"/>
      <path id="Path_405" data-name="Path 405" d="M-244.1,172.276s20.832,7.7,20.817,7.982-.749,2.372-.939,2.9-.427.39-1,.314-19.537-6.448-19.848-6.668-.258-.481.026-2.111S-244.819,172.053-244.1,172.276Z" transform="translate(0 -23.126)" fill="#3364b7" fill-rule="evenodd"/>
    </g>
  </g>
</svg>
