<svg xmlns="http://www.w3.org/2000/svg" xmlns:xlink="http://www.w3.org/1999/xlink" width="76" height="72" viewBox="0 0 76 72">
  <defs>
    <clipPath id="clip-path">
      <rect id="Rectangle_10" data-name="Rectangle 10" width="76" height="71.855"/>
    </clipPath>
    <clipPath id="clip-icon-gar-sm">
      <rect width="76" height="72"/>
    </clipPath>
  </defs>
  <g id="icon-gar-sm" clip-path="url(#clip-icon-gar-sm)">
    <rect width="76" height="72" fill="rgba(255,255,255,0)"/>
    <g id="icon-gar" clip-path="url(#clip-path)">
      <rect id="Rectangle_9" data-name="Rectangle 9" width="76" height="71.855" fill="rgba(0,0,0,0)"/>
      <path id="icon-gar-2" data-name="icon-gar" d="M944.7,326.863a.675.675,0,0,0-.259-.429.234.234,0,0,1-.095-.215.415.415,0,0,0-.176-.367.5.5,0,0,1-.193-.576,2.2,2.2,0,0,0-.361-1.714c-.2-.282-.158-.658-.276-.989a13.945,13.945,0,0,0-.549-1.487c-.249-.525-.517-1.164-.8-1.674-.519-.94-.989-1.8-1.6-2.695-.3-.435-.855-.98-1.105-1.438-.2-.365-1.052-1.747-1.313-2.073-.218-.276-.565.186-.369-.342.025-.526-1.066-1.666-1.26-2.425-.026-.1-.262-.291-.345-.354a.414.414,0,0,0-.108-.069c-.032.04-.062-.021,0,0a.243.243,0,0,0,.035-.13,51.626,51.626,0,0,0-1.524-5.276,6.563,6.563,0,0,1-.229-1.027,8.652,8.652,0,0,0-.259-1.442.207.207,0,0,1,.077-.276.45.45,0,0,0,.2-.5c-.073-.45.2-.857.259-1.3a10.943,10.943,0,0,0,.081-1.713,10.182,10.182,0,0,0-.622-3.022,5.427,5.427,0,0,1-.2-1.322.451.451,0,0,1,.145-.341c.088.213.171.423.256.631q.143.842.3,1.682c.132.734.359,1.451.477,2.189.023.138.008.291.043.429a4.956,4.956,0,0,1,.109,2.049,1.226,1.226,0,0,0-.01.394,6.657,6.657,0,0,1,.033.864.929.929,0,0,0,.014.207c.169.644.255,1.305.4,1.955a4.11,4.11,0,0,1,.221,1.105c-.006.138.024.266.183.31.132.037.246-.021.341-.175a1.043,1.043,0,0,0,.051-.1c.086-.181.092-.181.2-.026.047.069.092.134.138.2a5.713,5.713,0,0,0,.345.515c.138.153.4.18.493.02a.8.8,0,0,1,.511-.376.215.215,0,0,0,.166-.243.308.308,0,0,1,.22-.382.419.419,0,0,0,.222-.167,2.509,2.509,0,0,1,.464-.654.391.391,0,0,0,.09-.163,1.469,1.469,0,0,0,.035-1.065,4.5,4.5,0,0,0-.122-.5c-.112-.217-.2-.443-.288-.666a9.061,9.061,0,0,0-.809-1.716,1.29,1.29,0,0,1-.158-.34,5.663,5.663,0,0,1-.18-.918c-.062-.459-.175-.91-.229-1.372-.075-.629-.191-1.253-.231-1.884s-.112-1.248-.174-1.871a18.055,18.055,0,0,0-.51-2.85c-.089-.333-.171-.668-.276-1a6.906,6.906,0,0,1-.194-.866c-.014-.058.093.46-.014-.058.021-.3.927-.691.383-2.269-.741-2.148-.075-4.905-2.474-9.155-1.386-2.454-4.023-1.717-4.2-3.316,0,0,2.3.829,1.354-.392-1.14-1.467,1.182-2.666.53-4.721a5.5,5.5,0,0,0-1.228-2.287c-.461-.616-1.237-2.285-2.625-1.928a9.964,9.964,0,0,1-1.881.138,7.74,7.74,0,0,0-1.11.1c-.45.138-.276.11-.795.425a4.856,4.856,0,0,0-1.275,1.119,1.025,1.025,0,0,0-.069.1.539.539,0,0,0-.138.32h0a2,2,0,0,0-.047.259,3.356,3.356,0,0,0,.46,1.72c.007.028.01.17.019.2a.676.676,0,0,1-.138.6c-.106.182-.084.145-.267.427s-.218.288-.372.524-.207.312-.165.508c.024.1.085.145.19.191a4.155,4.155,0,0,0,.457.11.285.285,0,0,1,.232.288c-.007.207-.163.39-.047.52s.455.164.334.281c-.043.041-.133.016-.15.2a.312.312,0,0,0,.138.263c.092.09.183.086.16.293a3.884,3.884,0,0,0-.053.541.7.7,0,0,0,.644.59c.379.044.839-.03,1.557.011.8.046,1.059.514.9.751-.091.138-.777.345-1.74,2.862-.1.26-.2.5-.305.741l-.009.021c-.11.257-.218.519-.32.806-.055.146-.111.3-.167.459-.531,1.532-.843,1.824-1.254,3.155a5.733,5.733,0,0,0-.02,2.461,18.452,18.452,0,0,1,.415,2.308,2.153,2.153,0,0,0,.1.513c-.312.354-.446.533-.77.88-.511.553-1.05,1.075-1.57,1.617-.189.2-.424.338-.607.535a12.274,12.274,0,0,1-1.271,1.163,11.5,11.5,0,0,0-1.164,1.04,3,3,0,0,1-.415.382c-.164.12-.359.184-.518.3-.2.149-.415.281-.63.41a7.764,7.764,0,0,0-1.29.933,3.933,3.933,0,0,0-.816.947,5.327,5.327,0,0,1-.494.724,1.783,1.783,0,0,0-.341.6,2.485,2.485,0,0,0-.069.5,1.5,1.5,0,0,0,.256,1.05c.069.1.169.191.282.148a.38.38,0,0,1,.415.121.415.415,0,0,0,.569.015c.146-.119.207-.069.32.024a.407.407,0,0,0,.616-.039c.077-.138.118-.088.2-.026.271.207.37.2.6-.069s.421-.531.64-.789c.332-.391.676-.772,1.009-1.164.222-.262.437-.531.646-.8a3.873,3.873,0,0,0,.345-.469c.114-.207.246-.4.363-.607a3.471,3.471,0,0,1,.76-.8,7.227,7.227,0,0,1,.766-.607c.3-.207.562-.45.847-.672a17.776,17.776,0,0,1,1.642-1.175s-.238,4.666-.015,4.852a5.916,5.916,0,0,1,.048,2.211,14.645,14.645,0,0,0-.531,1.8c-.194.691-.853,3.751-1.217,5.518-.123.6-.61,3.627-.691,3.987a4.347,4.347,0,0,1-.424,1.016.578.578,0,0,0-.052.3.747.747,0,0,1-.232.666.276.276,0,0,0,.03.451c.138.114.192.185.09.38s.144.474.225.7c.06.166-.057.3-.111.464a8.577,8.577,0,0,0-.086.871,8.306,8.306,0,0,1-.16.932,5.716,5.716,0,0,0-.189.728,10.944,10.944,0,0,1-.415,1.608c-.236.737-.336,1.5-.553,2.246a7.279,7.279,0,0,1-.578,1.418,2.833,2.833,0,0,0-.316,1.329c0,.2-.081.218-.173.372a1.313,1.313,0,0,0-.231.512c-.008.109-.114.3-.237.3-.429-.012-.644.249-.917.526a.407.407,0,0,0-.109.284.916.916,0,0,1-.893.873,14.5,14.5,0,0,0-2.248.319,1.433,1.433,0,0,1-.779-.007c-.484-.138-.99-.153-1.478-.267-.361-.082-.864.39-.89.768,0,.484,1.71,1.362,1.99,1.52a22.67,22.67,0,0,0,2.447.877c.645.263,2.3.971,2.5,1.071,1.253.663,2,.553,2.211.269a3.577,3.577,0,0,0,.632-1.479,1.709,1.709,0,0,1,.587-1.392c.276-.215.207-.593.2-.912a1.387,1.387,0,0,1,.39-.944c.312-.276.39-.825.548-1.2a4.9,4.9,0,0,0,.329-1.193,5.148,5.148,0,0,1,.75-1.54c.2-.37.4-.739.573-1.117a4.356,4.356,0,0,0,.189-.657,23.551,23.551,0,0,0,.81-3.178,7.951,7.951,0,0,0,.23-1.623c-.034-.511.325-.911.484-1.369a.414.414,0,0,0-.092-.43c-.231-.285.1-.469.172-.691a5.408,5.408,0,0,0,.432-1.313c.011-.189,2.467-5.665,2.625-5.964.359.673,1.117,2.331,1.415,2.824.369.608.774,1.255,1.129,1.872a16.185,16.185,0,0,0,1.248,1.87,14.112,14.112,0,0,1,1.175,1.68c.113.23.24.452.358.679a.45.45,0,0,0,.351.249c.323.035.321.147.577.294.12.069.117.39.134.5.074.455,0,.658.813.7.217.047.169.276.272.448.524.886,1.016,1.79,1.558,2.663.345.557.714,1.105,1.031,1.677a4.84,4.84,0,0,1,.641,1.465c.077.415.448.671.713.976.088.1.13.207.077.3a1.1,1.1,0,0,0,.285,1.516c.01.008.011.026.021.055-.222.084-.153.276-.1.415a.7.7,0,0,1-.38.891,14.539,14.539,0,0,1-1.49,1.221c-.223.1-1.4.227-1.83.345-.212.057-.683.173-.8.432a1.326,1.326,0,0,0,.035,1,.722.722,0,0,0,.478.374,11.887,11.887,0,0,0,2.448.421,8.752,8.752,0,0,0,2.444-.35c.435-.131,2.786-1.264,3.343-1.5.214-.089.428-.182.634-.287a.647.647,0,0,0,.352-.56,4.917,4.917,0,0,0-.441-1.917" transform="translate(-889.468 -259.87)" fill="#003da5"/>
    </g>
  </g>
</svg>
