<svg xmlns="http://www.w3.org/2000/svg" xmlns:xlink="http://www.w3.org/1999/xlink" width="113" height="72" viewBox="0 0 113 72">
  <defs>
    <clipPath id="clip-Icon-krypande">
      <rect width="113" height="72"/>
    </clipPath>
  </defs>
  <g id="Icon-krypande" clip-path="url(#clip-Icon-krypande)">
    <rect width="113" height="72" fill="rgba(0,0,0,0)"/>
    <g id="Icon-krypande-2" data-name="Icon-krypande" transform="translate(-804.89 -110.896)">
      <path id="Path_451" data-name="Path 451" d="M843.487,227.867a3.7,3.7,0,0,0-1.766-1.107c-.133-.035-.159-.091-.108-.209a.227.227,0,0,0-.057-.308c-.081-.06-.045-.108.014-.176a7.34,7.34,0,0,0,.589-.727,3.248,3.248,0,0,0,.468-1.12c.006-.033-.027-.075-.042-.113-.043.036-.117.065-.124.1a2.8,2.8,0,0,1-.351.847,2.7,2.7,0,0,1-.659.868.226.226,0,0,1-.119.063,1.618,1.618,0,0,0-1.55-.742,1.185,1.185,0,0,0-.886.406,3.058,3.058,0,0,0-.548,1.012c0,.011-.009.021-.013.032a1.783,1.783,0,0,0-.846-.628,6.125,6.125,0,0,0,.407-.746c.194-.428.239-.755.376-1.059s.312-1.2.367-1.293.874-1.216,1.039-1.388a1.23,1.23,0,0,0,.3-.494c-.018-.037-.2.094-.319.245s-1.13,1.342-1.231,1.557-.4,1-.573,1.374c-.141.311-.566,1.346-.714,1.7a2.612,2.612,0,0,0-.479-.056c-.089-.389-.288-1.252-.377-1.582a2.692,2.692,0,0,0-.527-1.128,9.048,9.048,0,0,0-2.043-1.05,4.1,4.1,0,0,0-.907-.09,10.558,10.558,0,0,1-1.4-.113l-.2-.058s-.089.1.556.22a13.005,13.005,0,0,0,1.66.2,3.194,3.194,0,0,1,1.431.686c.58.417.862.282.932.845a17.909,17.909,0,0,0,.482,2.093,2.768,2.768,0,0,0-.479.1,2.846,2.846,0,0,0-.46.192c-.394-.333-1.652-1.391-2.033-1.639-.454-.295-.613-.477-.969-.47-.142,0-1.667.139-2.231.225a10.759,10.759,0,0,1-1.839.062,4.469,4.469,0,0,1-.76-.127s-.019.143.5.245a14.084,14.084,0,0,0,2.891-.032,11.072,11.072,0,0,1,1.288-.074,4.383,4.383,0,0,1,1.189.7c.38.343.8.725,1.177,1.032a4.631,4.631,0,0,0,.411.3,2.153,2.153,0,0,0-.864,1.251.4.4,0,0,0-.359.053c-.111.08-.15.049-.214-.053a2.587,2.587,0,0,0-1.773-1.233,4.635,4.635,0,0,0-2.771.355,4.739,4.739,0,0,0-2.625,2.8c-.045.119-.051.209.073.277a.2.2,0,0,1,.073.324.182.182,0,0,0,.052.26,4.756,4.756,0,0,0,2.275,1.2,4.947,4.947,0,0,0,3.623-.6,2.589,2.589,0,0,0,1.211-1.448c.072-.222.122-.452.189-.7a1.068,1.068,0,0,1,.147.013.439.439,0,0,0,.326-.072,1.987,1.987,0,0,0,1.484.789c-.051.092-.106.2-.165.323-.207.442-.414.968-.6,1.444a4.375,4.375,0,0,1-.76,1.154,11.149,11.149,0,0,1-1.189.5,14.132,14.132,0,0,0-2.613,1.238c-.426.322-.346.442-.346.442a4.466,4.466,0,0,1,.627-.447,10.858,10.858,0,0,1,1.68-.751c.545-.17,1.975-.716,2.1-.776.322-.149.385-.383.664-.847.222-.368.83-1.731,1.072-2.278a2.833,2.833,0,0,0,.6-.111,2.885,2.885,0,0,0,.4-.16,18.428,18.428,0,0,0,.491,2.13c.184.538-.128.539-.467,1.168a3.2,3.2,0,0,1-.985,1.244,13.112,13.112,0,0,0-1.406.9c-.527.393-.4.442-.4.442l.158-.142a10.567,10.567,0,0,1,1.207-.715,4.062,4.062,0,0,0,.777-.478,9.059,9.059,0,0,0,1.375-1.84,2.691,2.691,0,0,0-.02-1.245c-.07-.364-.3-1.348-.375-1.674a2.563,2.563,0,0,0,.4-.342c.263.235,1.141,1.016,1.412,1.24.32.265.932.836,1.117.984s1.612.778,1.788.859.393.122.394.081a1.227,1.227,0,0,0-.489-.311c-.224-.082-1.45-.728-1.543-.792s-.639-.79-.9-1-.441-.486-.8-.786a6.109,6.109,0,0,0-.765-.536,1.832,1.832,0,0,0,.35-.972,7.717,7.717,0,0,0,.759.541,1.448,1.448,0,0,0,1.257.037c.795-.266.816-1.127.9-1.234.027-.038.163-.013.241.01a3.025,3.025,0,0,1,.425.16,3.55,3.55,0,0,1,1.165.857s.007.01.011.011c.062.018.122.037.184.054C843.521,227.98,843.524,227.906,843.487,227.867Z" transform="translate(0 -52.637)" fill="#668bc9" fill-rule="evenodd"/>
      <path id="Path_452" data-name="Path 452" d="M883.958,218.761a3.37,3.37,0,0,0-1.905.035c-.12.04-.168.009-.187-.107s-.064-.2-.2-.207c-.092-.006-.089-.061-.078-.142a6.6,6.6,0,0,0,.087-.851,2.955,2.955,0,0,0-.2-1.092c-.011-.028-.058-.044-.088-.065-.016.048-.058.109-.042.142a2.574,2.574,0,0,1,.154.825,2.455,2.455,0,0,1-.071.993.2.2,0,0,1-.06.109,1.473,1.473,0,0,0-1.557.206,1.084,1.084,0,0,0-.476.754,2.787,2.787,0,0,0,.087,1.049.059.059,0,0,0,.006.031,1.633,1.633,0,0,0-.962-.059,5.378,5.378,0,0,0-.061-.774c-.065-.425-.195-.7-.241-1s-.358-1.071-.366-1.174.062-1.368.1-1.582a1.113,1.113,0,0,0-.014-.531c-.033-.019-.1.17-.121.347s-.194,1.592-.165,1.807.191.963.248,1.339c.048.308.239,1.314.306,1.661a2.417,2.417,0,0,0-.4.2c-.263-.253-.847-.814-1.08-1.023a2.457,2.457,0,0,0-.967-.6,8.265,8.265,0,0,0-2.089.216,3.72,3.72,0,0,0-.739.385,9.666,9.666,0,0,1-1.128.612l-.185.057s-.02.12.536-.109a11.905,11.905,0,0,0,1.368-.679,2.921,2.921,0,0,1,1.438-.19c.653.03.8-.215,1.136.182a16.394,16.394,0,0,0,1.415,1.362,2.583,2.583,0,0,0-.318.315,2.464,2.464,0,0,0-.255.377c-.468-.058-1.961-.24-2.376-.239-.494,0-.708-.059-.976.124-.107.074-1.208.94-1.6,1.288a9.864,9.864,0,0,1-1.378.966,4.1,4.1,0,0,1-.645.283s.056.119.509-.065a12.858,12.858,0,0,0,2.2-1.47,10.214,10.214,0,0,1,.948-.7,3.99,3.99,0,0,1,1.263-.055c.463.073.973.157,1.417.2.189.019.346.025.466.025a1.968,1.968,0,0,0-.036,1.39.365.365,0,0,0-.249.219c-.045.116-.09.113-.19.066a2.369,2.369,0,0,0-1.974-.059,4.24,4.24,0,0,0-1.945,1.657,4.332,4.332,0,0,0-.61,3.458c.025.114.066.185.194.176.151-.013.218.064.218.211,0,.111.066.156.17.173a4.349,4.349,0,0,0,2.34-.22,4.534,4.534,0,0,0,2.473-2.274,2.378,2.378,0,0,0,.2-1.714c-.056-.206-.133-.407-.207-.633.037-.019.077-.044.12-.063a.4.4,0,0,0,.213-.218,1.817,1.817,0,0,0,1.531-.136c.007.1.018.2.036.329.062.442.167.949.257,1.408a3.944,3.944,0,0,1-.005,1.264,10.025,10.025,0,0,1-.662.976A12.934,12.934,0,0,0,877.2,230.2c-.165.46-.044.512-.044.512a4.129,4.129,0,0,1,.257-.657,9.85,9.85,0,0,1,.911-1.415c.332-.4,1.155-1.535,1.223-1.645.172-.276.1-.487.085-.981-.014-.392-.229-1.74-.318-2.28a2.564,2.564,0,0,0,.4-.384,2.705,2.705,0,0,0,.228-.324,16.744,16.744,0,0,0,1.441,1.386c.41.32.172.477.226,1.128a2.909,2.909,0,0,1-.133,1.445,12.028,12.028,0,0,0-.624,1.4c-.207.564-.087.54-.087.54l.05-.188a9.66,9.66,0,0,1,.566-1.15,3.725,3.725,0,0,0,.355-.754,8.33,8.33,0,0,0,.135-2.1,2.464,2.464,0,0,0-.638-.943c-.236-.243-.9-.883-1.123-1.1a2.283,2.283,0,0,0,.136-.462c.319.048,1.382.208,1.7.243.377.043,1.132.174,1.348.2s1.623-.21,1.8-.236.362-.1.342-.135a1.12,1.12,0,0,0-.531.006c-.211.049-1.473.167-1.576.165s-.885-.285-1.187-.319-.581-.152-1.008-.2a5.6,5.6,0,0,0-.853-.028,1.663,1.663,0,0,0-.219-.919,6.947,6.947,0,0,0,.852.034,1.321,1.321,0,0,0,.98-.6c.476-.6.063-1.27.07-1.393,0-.042.117-.091.189-.113a2.831,2.831,0,0,1,.406-.09,3.259,3.259,0,0,1,1.321.074h.014l.168-.051C884.041,218.831,884.006,218.772,883.958,218.761Z" transform="translate(-20.824 -49.884)" fill="#668bc9" fill-rule="evenodd"/>
      <path id="Path_453" data-name="Path 453" d="M905.174,193.938a3.091,3.091,0,0,0-1.349,1.1c-.063.1-.115.1-.194.029a.19.19,0,0,0-.259-.037c-.069.048-.1.007-.136-.058a5.989,5.989,0,0,0-.418-.661,2.7,2.7,0,0,0-.761-.671c-.024-.014-.066,0-.1,0,.016.043.02.111.051.126a2.356,2.356,0,0,1,.577.506,2.241,2.241,0,0,1,.51.754.179.179,0,0,1,.018.111,1.352,1.352,0,0,0-1,1.028.992.992,0,0,0,.085.81,2.557,2.557,0,0,0,.654.7l.022.019a1.493,1.493,0,0,0-.723.5,5.1,5.1,0,0,0-.483-.522c-.287-.268-.533-.391-.736-.582s-.862-.566-.925-.636-.729-1.018-.82-1.2a1.019,1.019,0,0,0-.31-.373c-.034,0,.022.181.109.318s.759,1.253.9,1.391.681.584.933.822c.209.2.913.809,1.158,1.021a2.289,2.289,0,0,0-.174.364c-.331-.033-1.068-.107-1.353-.125a2.244,2.244,0,0,0-1.034.115,7.55,7.55,0,0,0-1.379,1.336,3.5,3.5,0,0,0-.314.694,8.975,8.975,0,0,1-.464,1.076l-.1.146s.053.1.324-.381a10.975,10.975,0,0,0,.6-1.26,2.658,2.658,0,0,1,.927-.949c.485-.347.453-.606.919-.511a15,15,0,0,0,1.784.179,2.313,2.313,0,0,0-.05.406,2.4,2.4,0,0,0,.028.415c-.369.223-1.544.935-1.842,1.17-.354.281-.542.358-.631.641-.035.113-.337,1.357-.421,1.826a8.837,8.837,0,0,1-.443,1.472,3.722,3.722,0,0,1-.3.568s.108.054.329-.334a11.8,11.8,0,0,0,.749-2.3,9.276,9.276,0,0,1,.287-1.039,3.626,3.626,0,0,1,.876-.753c.373-.209.787-.437,1.132-.655.146-.093.262-.178.349-.245a1.791,1.791,0,0,0,.759,1.02.335.335,0,0,0-.056.3c.034.109,0,.132-.1.155a2.16,2.16,0,0,0-1.451,1.072,3.871,3.871,0,0,0-.462,2.288,3.957,3.957,0,0,0,1.515,2.829c.082.067.151.1.239.017a.165.165,0,0,1,.276.028.153.153,0,0,0,.22.029,3.979,3.979,0,0,0,1.557-1.481,4.14,4.14,0,0,0,.493-3.029,2.174,2.174,0,0,0-.822-1.346c-.158-.116-.325-.218-.505-.337.015-.036.03-.075.049-.114a.355.355,0,0,0,.029-.276,1.663,1.663,0,0,0,1.023-.963c.059.064.129.137.212.216.294.283.654.587.98.867a3.659,3.659,0,0,1,.71.911,9.354,9.354,0,0,1,.076,1.075,11.658,11.658,0,0,0,.28,2.4c.139.424.255.393.255.393a3.822,3.822,0,0,1-.185-.616,8.958,8.958,0,0,1-.144-1.531c.011-.476-.038-1.755-.051-1.873-.031-.3-.2-.408-.492-.753-.231-.274-1.148-1.12-1.516-1.458a2.241,2.241,0,0,0,.053-.865,15.372,15.372,0,0,0,1.818.182c.475,0,.392.246.8.683a2.676,2.676,0,0,1,.721,1.113,10.717,10.717,0,0,0,.338,1.354c.17.522.242.438.242.438l-.07-.163a8.906,8.906,0,0,1-.242-1.146,3.407,3.407,0,0,0-.171-.743,7.569,7.569,0,0,0-1.087-1.582,2.232,2.232,0,0,0-.991-.318c-.307-.042-1.147-.125-1.426-.152a2.063,2.063,0,0,0-.162-.41c.256-.146,1.109-.631,1.36-.786.3-.182.911-.514,1.078-.62s1.047-1.068,1.159-1.185.2-.279.17-.29a1.028,1.028,0,0,0-.378.3c-.124.155-.964.953-1.04,1.009s-.8.3-1.033.441-.5.218-.837.424a5.174,5.174,0,0,0-.629.462,1.526,1.526,0,0,0-.676-.537,6.4,6.4,0,0,0,.632-.456,1.21,1.21,0,0,0,.366-.985c0-.7-.673-.948-.737-1.04-.023-.032.032-.133.073-.189a2.436,2.436,0,0,1,.24-.293,2.968,2.968,0,0,1,.99-.693s.011,0,.013-.006c.031-.043.063-.086.091-.131C905.274,193.942,905.215,193.92,905.174,193.938Z" transform="translate(-33.835 -39.525)" fill="#668bc9" fill-rule="evenodd"/>
      <path id="Path_454" data-name="Path 454" d="M897.329,164.882a3.291,3.291,0,0,0,.361,1.83c.058.108.037.16-.072.2s-.18.1-.165.226c.009.089-.043.1-.124.1a6.626,6.626,0,0,0-.835.062,2.9,2.9,0,0,0-1.017.382c-.026.016-.033.063-.048.1.05.006.114.038.144.016a2.539,2.539,0,0,1,.768-.289,2.409,2.409,0,0,1,.968-.1.2.2,0,0,1,.115.039,1.444,1.444,0,0,0,.466,1.465,1.06,1.06,0,0,0,.808.329,2.735,2.735,0,0,0,1-.263l.029-.011a1.594,1.594,0,0,0,.108.937,5.32,5.32,0,0,0-.736.191c-.4.136-.638.308-.921.4s-.969.529-1.067.553-1.329.175-1.542.173a1.091,1.091,0,0,0-.509.1c-.012.034.182.07.356.057s1.566-.086,1.768-.151.9-.348,1.247-.467c.289-.1,1.224-.455,1.549-.579a2.386,2.386,0,0,0,.256.347c-.2.3-.639.955-.8,1.215a2.4,2.4,0,0,0-.412,1.035,8.061,8.061,0,0,0,.566,1.976,3.686,3.686,0,0,0,.5.646,9.6,9.6,0,0,1,.783.981l.087.169s.119,0-.2-.5a11.567,11.567,0,0,0-.888-1.2,2.846,2.846,0,0,1-.429-1.354c-.083-.634-.345-.734-.02-1.125a16.048,16.048,0,0,0,1.07-1.6,2.3,2.3,0,0,0,.763.433c.025.461.1,1.929.177,2.33.086.475.064.692.287.919.089.091,1.112,1,1.514,1.318a9.588,9.588,0,0,1,1.166,1.162,3.969,3.969,0,0,1,.383.573s.105-.075-.149-.479a12.616,12.616,0,0,0-1.792-1.865,9.9,9.9,0,0,1-.837-.794,3.921,3.921,0,0,1-.269-1.207c-.009-.459-.016-.964-.048-1.4-.014-.185-.036-.337-.055-.453a1.921,1.921,0,0,0,1.345-.2.357.357,0,0,0,.254.2c.121.022.125.067.1.171a2.317,2.317,0,0,0,.283,1.911,4.15,4.15,0,0,0,1.929,1.59,4.242,4.242,0,0,0,3.435,0c.1-.044.167-.1.136-.217-.037-.144.024-.221.166-.247.107-.019.14-.09.139-.193a4.265,4.265,0,0,0-.613-2.218,4.432,4.432,0,0,0-2.614-1.992,2.32,2.32,0,0,0-1.686.1c-.188.089-.369.2-.573.307-.025-.032-.055-.066-.082-.1a.385.385,0,0,0-.245-.167,1.78,1.78,0,0,0-.394-1.452c.091-.023.194-.052.31-.09.416-.135.885-.323,1.313-.489a3.9,3.9,0,0,1,1.219-.212,9.768,9.768,0,0,1,1.053.47,12.641,12.641,0,0,0,2.407.945c.472.081.5-.044.5-.044a4.037,4.037,0,0,1-.675-.135,9.585,9.585,0,0,1-1.519-.636c-.445-.251-1.677-.849-1.8-.9-.295-.119-.486-.016-.959.086-.375.081-1.637.52-2.142.7a2.47,2.47,0,0,0-.439-.323,2.66,2.66,0,0,0-.35-.164,16.61,16.61,0,0,0,1.087-1.625c.238-.45.43-.247,1.048-.411a2.857,2.857,0,0,1,1.415-.12,11.69,11.69,0,0,0,1.449.363c.58.1.536-.007.536-.007l-.19-.017a9.509,9.509,0,0,1-1.2-.348,3.651,3.651,0,0,0-.788-.214,8.1,8.1,0,0,0-2.042.23,2.389,2.389,0,0,0-.8.776c-.194.269-.7,1.021-.863,1.27a2.267,2.267,0,0,0-.468-.053c-.009-.315-.037-1.366-.057-1.68-.023-.371-.027-1.12-.043-1.332s-.48-1.527-.534-1.692-.162-.331-.189-.306a1.085,1.085,0,0,0,.1.509c.083.2.414,1.391.428,1.49s-.123.9-.1,1.2-.047.586-.021,1.005a5.317,5.317,0,0,0,.12.827,1.62,1.62,0,0,0-.849.368,6.758,6.758,0,0,0-.113-.826,1.3,1.3,0,0,0-.746-.843c-.66-.355-1.234.158-1.353.172-.042.006-.109-.1-.141-.163a2.647,2.647,0,0,1-.156-.375,3.18,3.18,0,0,1-.156-1.285V164.9c-.025-.051-.05-.1-.077-.153C897.383,164.791,897.332,164.834,897.329,164.882Z" transform="translate(-32.833 -24.81)" fill="#668bc9" fill-rule="evenodd"/>
      <path id="Path_455" data-name="Path 455" d="M881.092,138.837a3.206,3.206,0,0,0-.838,1.6c-.021.117-.069.144-.174.107a.2.2,0,0,0-.262.071c-.046.073-.091.046-.154,0a6.456,6.456,0,0,0-.668-.46,2.814,2.814,0,0,0-1-.329c-.028,0-.062.028-.093.043.032.035.063.1.1.1a2.436,2.436,0,0,1,.757.248,2.322,2.322,0,0,1,.794.511.181.181,0,0,1,.063.1,1.4,1.4,0,0,0-.537,1.391,1.032,1.032,0,0,0,.411.739,2.664,2.664,0,0,0,.912.4l.029.009a1.548,1.548,0,0,0-.486.774,5.124,5.124,0,0,0-.673-.3c-.384-.138-.67-.155-.942-.254s-1.054-.188-1.142-.229-1.111-.674-1.271-.8a1.045,1.045,0,0,0-.449-.229c-.03.018.1.162.234.259s1.237.886,1.43.96.888.28,1.226.4c.278.1,1.2.4,1.523.5a2.2,2.2,0,0,0-.017.417c-.33.1-1.064.335-1.343.433a2.339,2.339,0,0,0-.94.532,7.86,7.86,0,0,0-.771,1.838,3.571,3.571,0,0,0-.015.791,9.3,9.3,0,0,1,0,1.216l-.036.181s.09.071.153-.5a11.258,11.258,0,0,0,.057-1.448,2.771,2.771,0,0,1,.5-1.284c.322-.53.185-.765.668-.863a15.716,15.716,0,0,0,1.776-.558,2.433,2.433,0,0,0,.118.407,2.476,2.476,0,0,0,.2.385c-.262.362-1.092,1.523-1.281,1.868-.223.412-.371.563-.341.87.013.123.232,1.433.345,1.915a9.388,9.388,0,0,1,.178,1.587,3.91,3.91,0,0,1-.058.666s.125.007.178-.453a12.2,12.2,0,0,0-.223-2.5,9.733,9.733,0,0,1-.15-1.109,3.765,3.765,0,0,1,.529-1.076c.272-.352.574-.739.814-1.087.1-.148.176-.276.232-.376a1.862,1.862,0,0,0,1.141.663.346.346,0,0,0,.07.307c.076.09.053.126-.032.188a2.245,2.245,0,0,0-.947,1.616,4.022,4.022,0,0,0,.494,2.373,4.112,4.112,0,0,0,2.6,2.082c.107.03.185.029.236-.081a.171.171,0,0,1,.275-.086.158.158,0,0,0,.221-.062,4.133,4.133,0,0,0,.882-2.049,4.3,4.3,0,0,0-.767-3.093,2.249,2.249,0,0,0-1.334-.95c-.2-.046-.4-.075-.62-.116v-.128a.376.376,0,0,0-.085-.277,1.726,1.726,0,0,0,.583-1.337c.083.038.179.078.29.12.4.15.864.293,1.29.427a3.784,3.784,0,0,1,1.049.58,9.856,9.856,0,0,1,.511.994,12.138,12.138,0,0,0,1.247,2.176c.308.348.405.271.405.271a3.875,3.875,0,0,1-.43-.513,9.367,9.367,0,0,1-.763-1.4c-.183-.459-.752-1.659-.813-1.767-.15-.269-.358-.308-.777-.518-.333-.167-1.553-.6-2.043-.773a2.451,2.451,0,0,0-.136-.511,2.425,2.425,0,0,0-.166-.336,16.136,16.136,0,0,0,1.81-.569c.453-.2.474.075,1.042.325a2.778,2.778,0,0,1,1.143.768,11.166,11.166,0,0,0,.876,1.154c.376.429.409.319.409.319l-.134-.127a9.345,9.345,0,0,1-.7-.995,3.536,3.536,0,0,0-.466-.639,7.864,7.864,0,0,0-1.684-1.066,2.323,2.323,0,0,0-1.075.1c-.311.086-1.146.35-1.423.438a2.215,2.215,0,0,0-.323-.325c.185-.243.8-1.056.977-1.3.208-.3.661-.863.776-1.033s.564-1.446.623-1.6.079-.348.043-.346a1.055,1.055,0,0,0-.236.444c-.056.2-.532,1.3-.582,1.387s-.639.607-.8.843-.391.413-.626.746a5.24,5.24,0,0,0-.411.7,1.576,1.576,0,0,0-.865-.236,6.668,6.668,0,0,0,.416-.694,1.256,1.256,0,0,0-.054-1.09c-.283-.669-1.03-.63-1.127-.692-.034-.021-.023-.139-.008-.209a2.7,2.7,0,0,1,.11-.379,3.079,3.079,0,0,1,.663-1.066s.008-.007.008-.01c.012-.054.024-.108.035-.162C881.187,138.8,881.123,138.8,881.092,138.837Z" transform="translate(-23.472 -13.322)" fill="#668bc9" fill-rule="evenodd"/>
      <path id="Path_456" data-name="Path 456" d="M931.22,174.15a3.39,3.39,0,0,0,.353,1.879c.059.111.037.164-.074.2s-.185.1-.172.229c.009.092-.044.1-.127.1a6.772,6.772,0,0,0-.856.056A2.979,2.979,0,0,0,929.3,177c-.026.016-.034.065-.05.1.051.007.118.039.148.017a2.629,2.629,0,0,1,.79-.29,2.475,2.475,0,0,1,.993-.1.194.194,0,0,1,.117.041,1.482,1.482,0,0,0,.464,1.506,1.087,1.087,0,0,0,.825.344,2.792,2.792,0,0,0,1.024-.26l.029-.011a1.626,1.626,0,0,0,.1.961,5.52,5.52,0,0,0-.756.19c-.41.136-.657.31-.948.4s-1,.534-1.1.558-1.364.168-1.583.163a1.119,1.119,0,0,0-.522.1c-.012.036.186.073.365.062s1.606-.074,1.814-.139.921-.349,1.281-.468c.3-.1,1.259-.455,1.593-.58a2.55,2.55,0,0,0,.259.358c-.206.3-.664.973-.831,1.237a2.488,2.488,0,0,0-.432,1.057,8.327,8.327,0,0,0,.563,2.03,3.864,3.864,0,0,0,.5.668,9.771,9.771,0,0,1,.793,1.012l.088.174s.122,0-.2-.512a12.061,12.061,0,0,0-.9-1.239,2.9,2.9,0,0,1-.427-1.391c-.08-.65-.347-.756-.01-1.153a16.631,16.631,0,0,0,1.11-1.626,2.643,2.643,0,0,0,.363.262,2.709,2.709,0,0,0,.415.19c.02.472.089,1.978.16,2.389.083.488.059.71.286.945.09.1,1.13,1.037,1.539,1.364a9.885,9.885,0,0,1,1.186,1.2,4.044,4.044,0,0,1,.387.591s.109-.076-.149-.493a12.941,12.941,0,0,0-1.82-1.928,10.336,10.336,0,0,1-.851-.822,4,4,0,0,1-.265-1.239c-.005-.47-.007-.988-.037-1.435-.012-.19-.033-.346-.052-.464a1.971,1.971,0,0,0,1.38-.2.365.365,0,0,0,.258.209c.124.025.128.071.1.176a2.376,2.376,0,0,0,.272,1.962,4.246,4.246,0,0,0,1.963,1.647,4.347,4.347,0,0,0,3.52.027c.109-.045.173-.1.141-.222-.037-.148.027-.227.172-.251.11-.019.144-.09.144-.2a4.357,4.357,0,0,0-.609-2.278,4.537,4.537,0,0,0-2.661-2.065,2.381,2.381,0,0,0-1.728.084c-.194.091-.38.2-.59.31-.026-.033-.057-.068-.083-.107a.4.4,0,0,0-.251-.173,1.826,1.826,0,0,0-.39-1.491c.093-.023.2-.052.319-.09.427-.135.909-.323,1.35-.49a3.988,3.988,0,0,1,1.25-.2,9.745,9.745,0,0,1,1.076.491,12.867,12.867,0,0,0,2.459.99c.483.088.513-.041.513-.041a4.1,4.1,0,0,1-.692-.145,9.877,9.877,0,0,1-1.552-.665c-.453-.261-1.711-.885-1.832-.935-.3-.125-.5-.021-.984.079-.386.08-1.682.518-2.2.7a2.548,2.548,0,0,0-.447-.336,2.657,2.657,0,0,0-.358-.171,16.891,16.891,0,0,0,1.13-1.656c.248-.459.443-.248,1.078-.412a2.917,2.917,0,0,1,1.451-.11,11.811,11.811,0,0,0,1.483.385c.592.111.549,0,.549,0l-.2-.018a9.887,9.887,0,0,1-1.232-.368,3.641,3.641,0,0,0-.8-.227,8.347,8.347,0,0,0-2.1.217,2.469,2.469,0,0,0-.826.789c-.2.274-.721,1.039-.894,1.293a2.369,2.369,0,0,0-.481-.058c-.005-.322-.026-1.4-.043-1.723-.02-.38-.017-1.148-.032-1.365s-.479-1.57-.533-1.739-.163-.341-.191-.315a1.13,1.13,0,0,0,.1.523c.083.2.411,1.429.425,1.53s-.134.922-.118,1.227-.053.6-.031,1.03a5.79,5.79,0,0,0,.115.849,1.667,1.667,0,0,0-.872.37,7.014,7.014,0,0,0-.108-.848,1.325,1.325,0,0,0-.758-.87c-.672-.37-1.266.151-1.388.163-.042.006-.11-.1-.144-.168a3,3,0,0,1-.156-.386,3.276,3.276,0,0,1-.148-1.318s0-.01,0-.015l-.077-.157C931.275,174.058,931.222,174.1,931.22,174.15Z" transform="translate(-48.967 -29.227)" fill="#668bc9" fill-rule="evenodd"/>
      <path id="Path_457" data-name="Path 457" d="M907.852,112.371a3.383,3.383,0,0,0-1.8.649c-.1.075-.157.062-.212-.041s-.124-.167-.254-.133c-.088.025-.1-.028-.119-.109a6.975,6.975,0,0,0-.192-.836,2.984,2.984,0,0,0-.545-.971c-.019-.024-.069-.023-.1-.034,0,.051-.02.122.006.149a2.569,2.569,0,0,1,.413.733,2.485,2.485,0,0,1,.253.965.2.2,0,0,1-.022.122,1.48,1.48,0,0,0-1.411.7,1.089,1.089,0,0,0-.208.869,2.8,2.8,0,0,0,.421.969l.015.027a1.621,1.621,0,0,0-.931.255,5.444,5.444,0,0,0-.309-.716c-.2-.382-.41-.6-.552-.871s-.685-.9-.726-1-.383-1.319-.414-1.536a1.1,1.1,0,0,0-.185-.5c-.036-.007-.042.195,0,.369s.33,1.574.428,1.769.491.853.667,1.19c.144.277.65,1.17.826,1.479a2.494,2.494,0,0,0-.312.313c-.331-.155-1.067-.5-1.355-.623a2.481,2.481,0,0,0-1.112-.258,8.321,8.321,0,0,0-1.914.881,3.889,3.889,0,0,0-.578.6,9.649,9.649,0,0,1-.872.945l-.157.115s.02.12.474-.277a11.883,11.883,0,0,0,1.079-1.086,2.9,2.9,0,0,1,1.3-.644c.628-.183.69-.464,1.137-.195a16.561,16.561,0,0,0,1.783.836,2.352,2.352,0,0,0-.321.841c-.462.1-1.938.4-2.333.54-.469.161-.691.172-.887.434-.079.1-.843,1.282-1.1,1.738a9.889,9.889,0,0,1-1,1.362,4.063,4.063,0,0,1-.521.477s.092.1.463-.227a12.928,12.928,0,0,0,1.611-2.1,10.213,10.213,0,0,1,.676-.972,4,4,0,0,1,1.181-.46c.463-.08.974-.165,1.41-.266.185-.043.335-.088.45-.126a1.966,1.966,0,0,0,.415,1.331.362.362,0,0,0-.165.288c-.005.125-.05.137-.159.124a2.372,2.372,0,0,0-1.893.582,4.248,4.248,0,0,0-1.311,2.2,4.345,4.345,0,0,0,.536,3.48c.062.1.124.155.242.1.141-.061.229-.01.275.13.037.105.112.127.217.11a4.362,4.362,0,0,0,2.151-.966,4.539,4.539,0,0,0,1.613-2.957,2.386,2.386,0,0,0-.36-1.693c-.12-.177-.258-.343-.4-.533.029-.031.058-.067.092-.1a.39.39,0,0,0,.131-.276,1.828,1.828,0,0,0,1.41-.624c.038.088.083.188.14.3.2.4.464.846.7,1.254a4,4,0,0,1,.4,1.2,10.319,10.319,0,0,1-.313,1.141,12.812,12.812,0,0,0-.584,2.585c-.009.491.122.5.122.5a4.075,4.075,0,0,1,.032-.706,9.907,9.907,0,0,1,.408-1.638c.185-.488.6-1.831.63-1.958.075-.317-.058-.494-.235-.958-.141-.369-.78-1.578-1.039-2.063a2.565,2.565,0,0,0,.26-.5,2.73,2.73,0,0,0,.112-.381,16.794,16.794,0,0,0,1.815.85c.493.171.317.4.578,1a2.929,2.929,0,0,1,.342,1.415,11.737,11.737,0,0,0-.143,1.525c-.015.6.091.541.091.541l-.013-.2a9.8,9.8,0,0,1,.166-1.274,3.644,3.644,0,0,0,.095-.831,8.346,8.346,0,0,0-.55-2.033,2.463,2.463,0,0,0-.91-.69c-.3-.155-1.142-.546-1.42-.677a2.267,2.267,0,0,0-.02-.483c.318-.057,1.379-.249,1.694-.318.372-.08,1.13-.2,1.342-.25s1.472-.724,1.632-.8.31-.215.28-.239a1.115,1.115,0,0,0-.5.178c-.186.114-1.346.634-1.444.665s-.932.014-1.23.079-.6.043-1.022.135a5.732,5.732,0,0,0-.819.249,1.671,1.671,0,0,0-.505-.8,6.777,6.777,0,0,0,.821-.242,1.322,1.322,0,0,0,.737-.887c.258-.723-.351-1.226-.384-1.344-.012-.041.082-.125.143-.169a2.9,2.9,0,0,1,.356-.216,3.26,3.26,0,0,1,1.278-.357h.015c.049-.033.1-.066.142-.1C907.952,112.41,907.9,112.365,907.852,112.371Z" transform="translate(-33.385)" fill="#668bc9" fill-rule="evenodd"/>
      <path id="Path_458" data-name="Path 458" d="M940.776,201.6a3.7,3.7,0,0,0-.85,1.9c-.016.136-.069.17-.192.136a.227.227,0,0,0-.3.1c-.048.088-.1.061-.175.011a7.261,7.261,0,0,0-.8-.481,3.23,3.23,0,0,0-1.175-.307c-.031,0-.069.037-.1.057.04.037.081.108.122.107a2.834,2.834,0,0,1,.888.23,2.7,2.7,0,0,1,.951.531.215.215,0,0,1,.079.109,1.619,1.619,0,0,0-.518,1.638,1.186,1.186,0,0,0,.526.821,3.056,3.056,0,0,0,1.079.4l.033.008a1.777,1.777,0,0,0-.5.925,5.936,5.936,0,0,0-.8-.3c-.451-.133-.782-.131-1.1-.225s-1.226-.142-1.331-.183-1.326-.7-1.52-.835a1.217,1.217,0,0,0-.532-.232c-.033.024.122.181.288.282s1.486.931,1.714,1,1.042.259,1.439.376c.328.1,1.411.373,1.787.469a2.764,2.764,0,0,0,.01.482c-.372.143-1.2.461-1.513.594a2.7,2.7,0,0,0-1.044.68,9.111,9.111,0,0,0-.756,2.17,4.152,4.152,0,0,0,.039.911,10.7,10.7,0,0,1,.082,1.4l-.029.21s.11.075.141-.581a12.958,12.958,0,0,0-.039-1.67,3.186,3.186,0,0,1,.481-1.513c.331-.633.157-.893.707-1.041a17.83,17.83,0,0,0,2-.769,2.879,2.879,0,0,0,.165.46,2.937,2.937,0,0,0,.254.428c-.274.436-1.147,1.83-1.34,2.242-.227.49-.387.674-.329,1.025.022.14.37,1.631.534,2.178a10.628,10.628,0,0,1,.317,1.813,4.4,4.4,0,0,1-.018.77s.144,0,.171-.534a14.09,14.09,0,0,0-.435-2.858,11.35,11.35,0,0,1-.253-1.265,4.333,4.333,0,0,1,.531-1.275c.287-.425.607-.891.858-1.31.106-.178.184-.33.241-.449a2.147,2.147,0,0,0,1.36.681.394.394,0,0,0,.1.348c.095.1.069.142-.023.219a2.585,2.585,0,0,0-.974,1.927,4.636,4.636,0,0,0,.738,2.7,4.742,4.742,0,0,0,3.141,2.208c.125.027.215.02.265-.111.057-.156.164-.187.311-.119.11.052.184.008.249-.087a4.732,4.732,0,0,0,.868-2.42,4.946,4.946,0,0,0-1.1-3.5,2.591,2.591,0,0,0-1.6-1c-.23-.04-.464-.057-.721-.089,0-.046-.009-.1-.009-.148a.435.435,0,0,0-.116-.311,2,2,0,0,0,.575-1.58c.1.038.212.077.342.118.466.144,1.016.275,1.514.4a4.347,4.347,0,0,1,1.248.592,10.784,10.784,0,0,1,.66,1.108,14.171,14.171,0,0,0,1.59,2.415c.379.378.485.282.485.282a4.493,4.493,0,0,1-.53-.559,10.725,10.725,0,0,1-.979-1.559c-.244-.516-.985-1.855-1.063-1.975-.192-.3-.432-.327-.93-.54-.4-.168-1.83-.58-2.407-.742a2.805,2.805,0,0,0-.193-.579,3,3,0,0,0-.214-.376,18.348,18.348,0,0,0,2.04-.785c.507-.257.552.053,1.223.3a3.2,3.2,0,0,1,1.37.8,12.732,12.732,0,0,0,1.09,1.265c.462.467.493.338.493.338l-.162-.137a10.886,10.886,0,0,1-.876-1.094,3.968,3.968,0,0,0-.581-.7,9.058,9.058,0,0,0-2.013-1.106,2.685,2.685,0,0,0-1.231.194c-.35.121-1.292.484-1.606.6a2.529,2.529,0,0,0-.394-.35c.195-.293.846-1.272,1.03-1.572.218-.353.7-1.039.819-1.243s.544-1.7.6-1.891.066-.407.026-.4a1.218,1.218,0,0,0-.24.528c-.05.232-.518,1.537-.568,1.637s-.693.744-.867,1.027-.42.5-.667.9a6.263,6.263,0,0,0-.424.833,1.829,1.829,0,0,0-1.012-.21,7.366,7.366,0,0,0,.43-.827,1.451,1.451,0,0,0-.14-1.251c-.373-.749-1.229-.65-1.347-.715-.042-.021-.036-.159-.025-.24a3.081,3.081,0,0,1,.1-.443,3.549,3.549,0,0,1,.684-1.274.023.023,0,0,0,.011-.013c.008-.063.019-.125.028-.189C940.883,201.552,940.809,201.56,940.776,201.6Z" transform="translate(-51.698 -43.296)" fill="#668bc9" fill-rule="evenodd"/>
    </g>
  </g>
</svg>
