<svg xmlns="http://www.w3.org/2000/svg" xmlns:xlink="http://www.w3.org/1999/xlink" width="110" height="104" viewBox="0 0 110 104">
  <defs>
    <clipPath id="clip-Icon-sover">
      <rect width="110" height="104"/>
    </clipPath>
  </defs>
  <g id="Icon-sover" clip-path="url(#clip-Icon-sover)">
    <rect width="110" height="104" fill="rgba(0,0,0,0)"/>
    <g id="Icon-sover-2" data-name="Icon-sover" transform="translate(0.995 60.995)">
      <path id="Path_105" data-name="Path 105" d="M1690.42,777.422c-44.249-.233-44.761.553-44.761.553-.536.109-.363-.014-.822.244l-.029-2.119-.118-7.015c-.036-.968-.085-1.967-.147-2.971-.166-2.675-.419-5.361-.714-7.454s-.63-3.589-.963-3.9c-.936-.881-2.785.776-2.785.776s-.412,37.055-.07,37.4,4.431.238,4.431.238h1.369v2.075c0,1.445.223,2.615.5,2.615H1652c.275,0,.5-1.171.5-2.615v-2.075h84.1v2.075c0,1.445.223,2.615.5,2.615h5.693c.274,0,.5-1.171.5-2.615v-2.075h1.369a27.952,27.952,0,0,0,3.285-.077c.132-.131-.07-22.654-.07-22.654s-.7-1.656-1.638-.775c-.906.852-1.825,2.973-1.885,8.862a3.387,3.387,0,0,0-1.947-.918Z" transform="translate(-1639.87 -754.497)" fill="#528dcc"/>
      <path id="Path_106" data-name="Path 106" d="M1711.21,807.273h-2.239c-1.362,0-1.976-.088-6.213-.352-5.211-.323-5.646.094-8.029-.292-6.531-1.057-11.385-2.187-5.913-.749a18.323,18.323,0,0,0-2.776.132c-.861-.036-1.3-.072-1.774-.132s-.845.215-1.3.137a2.508,2.508,0,0,1-1.739-1.131c-.82-1.142,16.463-3.439,16.463-3.439l10.889.644Z" transform="translate(-1661.87 -779.491)" fill="#003da5"/>
      <path id="Path_107" data-name="Path 107" d="M1697.74,787.578c.966-.016,4.041.995,7.611.79,2.979-.171-.636,1.3,1.669,1.347s6.454-1.932,7.377-2.372a70.167,70.167,0,0,0,7.113-5.18c.658-.7.087-1.625-1.054-2.328s-6.927-4.664-11.036-6.29c-3.221-1.274-5.937-.939-6.9.5a6.3,6.3,0,0,0-.935,2.064c-.2.937-1.082,3.449-1.082,3.449Z" transform="translate(-1670.679 -764.216)" fill="#003da5"/>
      <path id="Path_108" data-name="Path 108" d="M1713.46,780.01a19.246,19.246,0,0,0-2.063,3.011c-1.229,2.1-2.9,4.211-3.079,5.448a12.738,12.738,0,0,0,.136,3.182c.059.615.918,1.259,3.376,1.346s15.719.966,25.994.879,17.358-2.729,24.5-.791c6.03,1.635,16.48.674,19.407.088s-1.744-6.689-4.888-8.407c-6.567-3.586-8.46-5.586-22.949-7.957-12.84-2.1-12.178-4.11-20.286-4.035-6.914.063-3.652-.393-13.9.144-1.68.183-3.765.148-4.339.7-.358.345.132,4.4-1.906,6.39" transform="translate(-1676.274 -764.163)" fill="#003da5"/>
      <path id="Path_109" data-name="Path 109" d="M1665.4,786.191l5.083,5.8a11.832,11.832,0,0,1,2.228,3.393c.175.615.966,1.492-.615,1.053-1.438-.4-1.229-.731-3.073-.175s-1.9,1.054-3.4.878-2.4.557-4.771.614-5.971-.614-7.728-.7-6.132-1.639-7.45-1.99-2.118-1.492-.134-2c1.4-.359,5.2-5.044,6.853-5.755a11.215,11.215,0,0,1,5.37-1.078c.449.05,1.669.221,1.537.728Z" transform="translate(-1642.251 -771.369)" fill="#003da5"/>
      <path id="Path_110" data-name="Path 110" d="M1674.86,782.705a4.8,4.8,0,0,1,.74-1.448,1.528,1.528,0,0,1,1.23-.747,17.881,17.881,0,0,0,2.064-1.054,5.337,5.337,0,0,1,2.107-.219,10.138,10.138,0,0,1,1.932.263c.834.175,1.4-.044,2.152.482s1.141.66,1.229.923.479.469.79.6a5.411,5.411,0,0,1,1.745,1.022c.57.571,1.7,2.491,1.325,3.706-.318,1.021-2.556,2.093-3.347,2.181a4.507,4.507,0,0,0-2.834-1.055c-1.91-.116-2.9-.871-4.176-1.187a15.129,15.129,0,0,1-3.138-.911c-.835-.432-1.994-.8-1.919-1.38s.1-1.176.1-1.176" transform="translate(-1658.44 -767.657)" fill="#003da5"/>
    </g>
  </g>
</svg>
