<svg xmlns="http://www.w3.org/2000/svg" xmlns:xlink="http://www.w3.org/1999/xlink" width="110" height="104" viewBox="0 0 110 104">
  <defs>
    <clipPath id="clip-icon-ligger">
      <rect width="110" height="104"/>
    </clipPath>
  </defs>
  <g id="icon-ligger" clip-path="url(#clip-icon-ligger)">
    <rect width="110" height="104" fill="rgba(0,0,0,0)"/>
    <g id="icon-ligger-2" data-name="icon-ligger" transform="translate(3.001 55.988)">
      <path id="Path_101" data-name="Path 101" d="M1432.81,750.842a1.544,1.544,0,0,0-.926.906c-.132.238-.532.9-.844.9-.289,0-.8-.727-.939-.965a1.746,1.746,0,0,0-.925-.916c-.969-.362-11.719-1.081-19.615-1.5-8.8-.463-16.778-.477-16.917-.483a2.724,2.724,0,0,0-1.86.72,1.579,1.579,0,0,0-.635,1.186,5.345,5.345,0,0,1-.382,1.842,14.023,14.023,0,0,0-.716,2.158.835.835,0,0,1-.55.611c-.746.275-4.637,1.718-5.821,2.15-.463.17-2.108.748-2.79,1.1-.531.278-.588.926-.588,1.644,0,1.074.007,24.475.007,25.72,0,.384.007.951.528.951s.542.008.542.432c0,2.143.014,7.53.011,7.869,0,.15,0,.337.184.337h3.231c.192,0,.213-.135.213-.374v-8.112c0-.144.02-.161.177-.158.57.011,1.019-.013,1.7,0,.2,0,.27.076.265.252-.006.357,0,.714,0,1.071,0,.2.071.3.294.295.526-.007,1.6,0,1.86,0s.44-.028.44-.285V787.13c0-.167-.073-.267.386-.267,5.833,0,20.945,0,36.919-.007" transform="translate(-1379.303 -747.054)" fill="#528dcc" fill-rule="evenodd"/>
      <path id="Path_102" data-name="Path 102" d="M1441.36,751.75c.132.238.532.9.844.9.288,0,.8-.727.938-.965a1.75,1.75,0,0,1,.926-.916c.969-.362,11.719-1.08,19.615-1.5,8.8-.464,15.136-.474,16.142-.484a5.3,5.3,0,0,1,2.635.719,1.874,1.874,0,0,1,.635,1.186c.171.83.915,3.265,1.1,4a.835.835,0,0,0,.551.612c.747.275,5.284,1.764,5.994,2.07.452.2,1.936.828,2.617,1.184.531.278.589.926.589,1.644,0,1.074-.008,24.475-.008,25.72,0,.385-.006.952-.529.952s-.542.007-.542.431c0,2.143-.014,7.53-.011,7.87,0,.15,0,.338-.184.338h-3.231c-.191,0-.213-.134-.213-.374v-8.112c0-.144-.019-.161-.177-.158-.569.011-1.019-.014-1.7,0-.2,0-.27.076-.265.252.007.357,0,.714,0,1.07,0,.2-.072.3-.3.3-.526-.008-1.6,0-1.861,0s-.438-.028-.438-.285v-1.063c0-.167.073-.267-.387-.267-12.891,0-71.106-.016-83.783-.016" transform="translate(-1390.498 -747.056)" fill="#528dcc" fill-rule="evenodd"/>
      <path id="Path_103" data-name="Path 103" d="M1481.21,775.606s-24.049,6.9-18.352,8.324,4.112.63,10.567.63c4.431,0,11.881-1.533,19.179-2.979,3.464-.686,11.073,1.1,12.022,1.01a33.5,33.5,0,0,0,3.88-.451.94.94,0,0,0,.771.205,2.76,2.76,0,0,1,2.339.7,5.779,5.779,0,0,0,2.5.731c.569.026,1.478-.792,1.938-3.037.08-.352.9-3.143,1.231-4.218a36.747,36.747,0,0,0,1.419-3.952c.1-.508.76-3.542.152-4.042a1.481,1.481,0,0,0-1.872.321c-.36.726-.862,1.369-1.185,2.119a2.307,2.307,0,0,1-.79.978,23.49,23.49,0,0,0-2.709,2.477,1.483,1.483,0,0,1-2,.209.65.65,0,0,0-.466-.156,3.417,3.417,0,0,0-1.078.188.4.4,0,0,0-.371.25,1.474,1.474,0,0,0-.146.16c-.625-.279-3.845-.141-5.221,0-1.95.2-4.774-.812-8.226-1.449a10.7,10.7,0,0,0-3.843-.14c-.168.048-9.732,2.119-9.913,1.989" transform="translate(-1423.32 -757.461)" fill="#003da5"/>
      <path id="Path_104" data-name="Path 104" d="M1474.45,769.444c-.562-.812-1.441-.673-2.478-.656-.2,0-4.192-.7-4.815-.816.536-.047-5.228-5.419-5.228-5.419-.625-1.049-2.217-2.945-3.227-4.258-1.289-1.674-4.558-5.606-5.153-6.628a5.1,5.1,0,0,0-3.761-2.652c-2.075-.287-6.4,3.846-9.291,6.4-1.332,1.174-5.985,5.33-6.24,5.351-.656.051-2.57-.753-5.522-1.361-2.992-.617-4.1-.734-6.06-1.133a37.527,37.527,0,0,0-11.345-.893c-1.721.17-5.731.585-5.884,0,.083-.1.387-.5.506-.607a14.5,14.5,0,0,0,1.308-1.46,1.016,1.016,0,0,0,.2-1.249,5.764,5.764,0,0,0-.548-.563c-.212-.216-.1-.293-.083-.478a.452.452,0,0,0-.083-.42c-.184-.191-.263-.081-.349-.089-.244-.022.111-.368.124-.62s-.327-.316-.522-.546a.415.415,0,0,1,0-.536,5.657,5.657,0,0,0,.419-.536.382.382,0,0,0,.042-.388c-.127-.263-.258-.3-.645-.426s-.43-.1-.892-.258-.4-.131-.687-.243-.592-.212-.706-.555c-.011-.038-.137-.2-.155-.239a4.855,4.855,0,0,0-1.029-2.364,3.36,3.36,0,0,0-.288-.25h0a.788.788,0,0,0-.449-.234,1.282,1.282,0,0,0-.171-.043,7.016,7.016,0,0,0-2.452-.117c-.869.11-.65-.015-1.283.236a11.3,11.3,0,0,0-1.348.884,14.469,14.469,0,0,1-2.255,1.541,4.789,4.789,0,0,0-2.463,4.27c.059,1.935,1.3,2.415,1.9,3.978,1.116,2.914,4.825,2.178,4.858,4.866.028,2.236,1.887-.778,1.887-.778a1.051,1.051,0,0,1,.529.621c0,.044-.006.093-.008.138a16.226,16.226,0,0,0,.044,4.468c.27,1.219,1.973,2.906,3.326,3.775,1.376.883,1.353.907,1.673,1.082a18.062,18.062,0,0,1,1.71.9c.665.46,1.473.808,2.111,1.306.259.2,1.066.669,1.173.587a3.9,3.9,0,0,0,.677-.6c.91.28,2.042.589,3.881,1.12,3.556,1.026,5.718,1.671,9,.364.534-.213,1.088-.422,1.648-.634,0,0,.507-.438,2.857-.024a23.8,23.8,0,0,0,7.814-.152,10.536,10.536,0,0,0,5.608-2.79,26.034,26.034,0,0,0,5.1-6.2c.118-.228,3.12-6,3.12-6s1.9,5.843,3.706,8.426c1.992,2.854,3.586,4.817,4.047,4.905a4.925,4.925,0,0,0,.909.152c.2.736.443,1.384,1.253,1.386.885,0,4.239-.413,4.546-.414a43.862,43.862,0,0,0,5.728-.153,4.7,4.7,0,0,0,1.411-.252,4.845,4.845,0,0,0,2.414-1.465c.34-.384.312-.646-.107-1.252" transform="translate(-1385.867 -745.088)" fill="#003da5"/>
    </g>
  </g>
</svg>
