<svg xmlns="http://www.w3.org/2000/svg" xmlns:xlink="http://www.w3.org/1999/xlink" width="76" height="72" viewBox="0 0 76 72">
  <defs>
    <clipPath id="clip-path">
      <rect id="Rectangle_8" data-name="Rectangle 8" width="76" height="71.855"/>
    </clipPath>
    <clipPath id="clip-icon-bojer-sm">
      <rect width="76" height="72"/>
    </clipPath>
  </defs>
  <g id="icon-bojer-sm" clip-path="url(#clip-icon-bojer-sm)">
    <rect width="76" height="72" fill="rgba(255,255,255,0)"/>
    <g id="icon-bojer" clip-path="url(#clip-path)">
      <rect id="Rectangle_7" data-name="Rectangle 7" width="76" height="71.855" fill="rgba(0,0,0,0)"/>
      <path id="icon-bojer-2" data-name="icon-bojer" d="M1722.225,357.809a1.576,1.576,0,0,1,.265.438c.276.663.361,1.121.528,1.465a.7.7,0,0,0,.77.415,3.815,3.815,0,0,0,.492-.229c.188-.09.215,0,.33.054a.311.311,0,0,0,.293.04c.167-.075.113-.152.138-.207.069-.154.215.156.376.222s.281-.142.475-.218a.285.285,0,0,1,.349.124,4.14,4.14,0,0,0,.256.4.264.264,0,0,0,.243.115c.2-.023.254-.1.425-.325s.166-.257.37-.524.177-.234.314-.394.276-.339.522-.334c.028,0,.162-.045.191-.048a3.35,3.35,0,0,0,1.776-.138,1.87,1.87,0,0,0,.229-.131h0c.069-.011.159-.1.254-.239q.037-.049.069-.1a4.874,4.874,0,0,0,.632-1.574c.125-.592.156-.421.138-.891a7.649,7.649,0,0,0-.271-1.081,10.087,10.087,0,0,1-.5-1.821c-.124-1.43-1.957-1.607-2.69-1.837a5.5,5.5,0,0,0-2.565-.4c-2.155.069-2.514,2.657-4.277,2.069-1.465-.489.081,1.407.081,1.407a1.188,1.188,0,0,1-.131.016c-.227-.393-.484-.814-.772-1.257-1.191-1.825-2.659-2.506-4.9-3.222a14.389,14.389,0,0,0-4.389-.645c-.333-.015-6.887.026-11.242,1.6-.181.065-.245.462-.245.462a7.356,7.356,0,0,0-3.2,3.545,6.4,6.4,0,0,0-.035,4.532,12,12,0,0,0,1.117,2.073,13.7,13.7,0,0,0,2.592,2.323c.644.475,1.319.9,1.984,1.347.09.059.207.081.292.142.345.244.731.409,1.092.622a7.975,7.975,0,0,1,.861.564c.331.256.58.6.914.859a5.676,5.676,0,0,0,1.192.824.307.307,0,0,1,.155.181,4.531,4.531,0,0,1,.319,1.48,1.191,1.191,0,0,0,.065.467,1.642,1.642,0,0,0,.5.729.156.156,0,0,1,.055.229,3.43,3.43,0,0,0-.26.7c-.144.407-.5,1.865-.574,2.178a5.316,5.316,0,0,1-.191.743c-.091.228-.233,1.114-.39,1.494-.01.024-.106.712-.1.738.059.276.007.293-.117.534-.276.534-1.152,4.087-1.313,4.181a.778.778,0,0,0-.358.458,2.786,2.786,0,0,0-.021.785c0,.056.084.234-.3.7a3.378,3.378,0,0,0-.251,1.664.738.738,0,0,0,.056.287.975.975,0,0,0,1,.573,6.194,6.194,0,0,0,1.774-.333,9.9,9.9,0,0,1,1.918-.207,1.254,1.254,0,0,1-.182.415,3.576,3.576,0,0,0-.138,1.6c.053.349.659.8,2.077.806.223.007,1.949.415,2.642.484a24.866,24.866,0,0,0,2.7.381c.32,0,2.1.1,2.332-.326a1.175,1.175,0,0,0-.381-1.388c-.484-.3-.844-.421-1.443-.735-.662-.345-1.036-.6-1.462-.849a7.57,7.57,0,0,1-1.174-.747c-.4-.319-.557-.539-.215-.909.155-.167-.078-.753-.013-.85.225-.34.138-.336-.143-.817,0-.149.173-.312.207-.456.06-.281.315-1.44.461-2.621.392-2,1.068-7.08,1.1-8.468a3.62,3.62,0,0,1,.087-.877,5.415,5.415,0,0,0,.134-.985,25.55,25.55,0,0,0,.082-2.674,7.383,7.383,0,0,0-.5-1.5c-.245-.519-.431-1.06-.658-1.585-.077-.177-.055-.207.148-.2.365.012,1.442-.022,1.616-.032a.354.354,0,0,1,.374.258,3.873,3.873,0,0,1,.111.376c.108.41.211.823.321,1.233.138.519,1.13,3.455,1.269,3.938.119.409.54,1.524.622,1.67.184.327.691,2.11,1.175,3.162.126.276.407.395.448.473.281.524,1.279,2.688,1.457,2.994.212.363,3.161,5.232,3.2,5.332a11.608,11.608,0,0,1,.576,1.318,4.993,4.993,0,0,1,.294.814,2.465,2.465,0,0,0,.56,1.2,3.1,3.1,0,0,1,.393.637c.069.16.03.327.09.477a1.608,1.608,0,0,1,.082.628c0,.246,0,.492,0,.737a4.639,4.639,0,0,0,.138.853c.028.144.1.291.218.3.185.015.26-.389.276-.564a9.688,9.688,0,0,1,.2-1.52c.015-.064.021-.138.1-.15s.1.051.138.1a.392.392,0,0,1,.06.115c.109.456.245.905.319,1.37a2.614,2.614,0,0,0,.182,1.091.414.414,0,0,0,.2.193c.285.1.35-.143.349-.159a4.937,4.937,0,0,1,.115-.923,2.761,2.761,0,0,0,.06-.667c-.048-.415-.133-.829-.222-1.244-.015-.069-.086-.162-.007-.207s.149.048.207.1a2.424,2.424,0,0,1,.577.844.951.951,0,0,1,.023,1.01c-.138.194-.3.6-.173.712a.374.374,0,0,0,.528-.138c.044-.069.188-.31.23-.379.106-.178.149-.138.227-.33a3.282,3.282,0,0,1,.352-.567.867.867,0,0,0,.148-.492,7.792,7.792,0,0,1-.015-.9.465.465,0,0,0-.155-.4c-.075-.069-.149-.144-.222-.219a7.814,7.814,0,0,1-.894-.976c-.12-.171-.276-.325-.406-.49-.094-.117-.254-.128-.358-.224-.345-.321-.681-.658-1-1.006a1.217,1.217,0,0,1-.276-.345c-.184-.478-.508-.879-.719-1.341-.062-.138-.883-3.04-.98-3.411-.088-.345-.74-2.713-.862-3.193-.094-.368-.214-.728-.3-1.1a8.454,8.454,0,0,0-1.016-2.321c-.171-.138.428-1.067-.253-1.244a5.3,5.3,0,0,1-.686-1.324c-.106-.415-.59-1.69-.622-1.778a42.583,42.583,0,0,1-.428-4.491c.032-.268-.048-.573.162-.813.021-.025.014-.086,0-.127a.767.767,0,0,1,.023-.388,2.213,2.213,0,0,0,.095-.484.6.6,0,0,1,.1-.307,1.234,1.234,0,0,0,.088-1.232,1.878,1.878,0,0,1-.208-.978.968.968,0,0,0-.036-.291c-.044-.212,0-.449.152-.526" transform="translate(-1676.092 -318.55)" fill="#003da5"/>
    </g>
  </g>
</svg>
