<svg xmlns="http://www.w3.org/2000/svg" xmlns:xlink="http://www.w3.org/1999/xlink" width="113" height="72" viewBox="0 0 113 72">
  <defs>
    <clipPath id="clip-Icon-bultande">
      <rect width="113" height="72"/>
    </clipPath>
  </defs>
  <g id="Icon-bultande" clip-path="url(#clip-Icon-bultande)">
    <rect width="113" height="72" fill="rgba(0,0,0,0)"/>
    <g id="Icon-bultande-2" data-name="Icon-bultande" transform="translate(-592.763 -121.096)">
      <path id="Path_446" data-name="Path 446" d="M624.354,195.554c-.494.5-2.239.046-3.611-1.307s-1.851-3.1-1.358-3.6l35-33.816,13.851-15.469a22.322,22.322,0,0,0,3,3.366c1.713,1.534,3.407,2.951,3.407,2.951l-14.692,13.856Z" transform="translate(0 -3.669)" fill="#99b1db"/>
      <path id="Path_447" data-name="Path 447" d="M690.924,163.877c1.8.9,4.811-1.032,7.8-4.277s4.169-5.877,3.012-7.473-5.293-5.522-10.075-9.94-10.929-9-10.929-9-3.441,5.825-5.867,7.573a55.9,55.9,0,0,0-5.316,4.591s5.336,5.226,10.233,9.612C685.532,160.116,689.12,162.977,690.924,163.877Z" transform="translate(-22.333 -0.041)" fill="#3364b7"/>
      <path id="Path_448" data-name="Path 448" d="M710.414,150.828c-.331.354-2.353,1.141-4.848-1.131-2.248-2.047-2.1-4.547-1.771-4.9s2.069.736,3.884,2.433S710.745,150.475,710.414,150.828Z" transform="translate(-37.441 -5.161)" fill="#99b1db"/>
      <path id="Path_449" data-name="Path 449" d="M676.451,140.391c-2.985,3.245-5.853,5.4-6.906,4.981-.941-.375,1.219-4.221,4.2-7.466s5.945-5.153,6.879-4.759C681.495,133.513,679.436,137.145,676.451,140.391Z" transform="translate(-22.234)" fill="#668bc9"/>
      <path id="Path_450" data-name="Path 450" d="M713.538,147.776c-.34.344-2.048-.79-3.816-2.535s-2.926-3.438-2.587-3.783,2.048.791,3.817,2.536S713.879,147.432,713.538,147.776Z" transform="translate(-38.98 -3.682)" fill="#668bc9"/>
    </g>
  </g>
</svg>
