<svg xmlns="http://www.w3.org/2000/svg" xmlns:xlink="http://www.w3.org/1999/xlink" width="113" height="72" viewBox="0 0 113 72">
  <defs>
    <clipPath id="clip-icon-brannande">
      <rect width="113" height="72"/>
    </clipPath>
  </defs>
  <g id="icon-brannande" clip-path="url(#clip-icon-brannande)">
    <rect width="113" height="72" fill="rgba(0,0,0,0)"/>
    <g id="icon-brannande-2" data-name="icon-brannande" transform="translate(1065.626 -97.563)">
      <path id="Path_346" data-name="Path 346" d="M-986.3,158.922a16.95,16.95,0,0,1-2.194,2.367,2.811,2.811,0,0,1-1.363.807,17.934,17.934,0,0,0,4.4-10.338c1.264-12.606-5.129-17.069-5.232-16.637-.079.333,3.538,7.1,1.039,11.544-1.591-1.586,1.016-8.674-5.932-15.045-5.6-5.131-17.057-9.611-10.728-20.17.6-1,1.852-2.6,2.753-3.766.976-1.263,1.769-1.935,1.608-2.121a26.31,26.31,0,0,0-7.506,3.905c-6.071,4.346-9.706,10.25-7,17.311a11.988,11.988,0,0,1-1.622,12.2s-3.935,3.912-4.678-2.886c-.99-9.058,2.291-12.049,2.3-12.353s-1.708.5-5.274,5.886-3.648,12.281-.683,21.852c.215.691.442,1.385.683,2.075h0c-.252.075-1.021-.571-1.726-1.867-.321-.588-.633-2.21-1.465-3.077-1.979-2.064-3.848-1.751-3.692-1.413a6.359,6.359,0,0,1,2.321,3.837c.557,2.307.791,7.506,3.561,11.011,2.415,3.055,3.9,3.846,7.154,5a36.888,36.888,0,0,0,11.942,1.6c2.014.041,10.968-.2,16.117-2.606a13.254,13.254,0,0,0,5.122-4.792c1.373-2.037,1.4-4.728,1.025-4.5C-985.692,156.932-985.2,157.3-986.3,158.922Z" fill="#3364b7"/>
      <path id="Path_347" data-name="Path 347" d="M-998.915,136.493c-2.532,2.14-12.644,1.812-11.222,13.143.261,2.081,2.2,5.183.49,7.346-.808,1.026-2.055,1.015-3.036-.546-3.991-6.354-.227-10.132-.274-10.495s-3.711,2.535-4.814,5.495c-1.967,5.276-.135,12.672.9,14.88,4.4,9.373,9.463,11.132,16.781,11.132,10.434,0,16.862-5.269,16.867-13.041,0-4.93-2.964-8.43-10.622-11.839-10.048-4.473.143-9.38,2.654-16.92,2.128-6.388-5.792-13.263-5.72-12.288S-992.877,131.391-998.915,136.493Z" transform="translate(-7.357 -9.319)" fill="#668bc9"/>
      <path id="Path_348" data-name="Path 348" d="M-994.7,153.332c2.047,1.71,9.269,1.261,8.138,10.591-.207,1.713-.957,4.5.4,6.279.643.844,1.635.836,2.415-.451,3.175-5.232.763-7.3.3-8.452a2.667,2.667,0,0,1,.529-2.715,3.269,3.269,0,0,0,.159,1.484c.107.188.691.974,1.043,1.437a11.845,11.845,0,0,1,2.01,3.73,16.145,16.145,0,0,1-.714,12.653c-3.9,7.479-6.906,9.162-14.263,9.162-8.931,0-12.61-4.869-13.544-11.174-.782-5.277,1.566-7.614,6.558-11.421,4.913-3.747,3.707-6.722,1.709-12.93-1.692-5.259,3.6-9.445,3.664-9.007.008.054-.376.743-.744,1.577C-997.664,145.506-997.514,150.985-994.7,153.332Z" transform="translate(-12.76 -19.433)" fill="#99b1db"/>
      <path id="Path_349" data-name="Path 349" d="M-996.473,177.036c.032.16-1.464,2.42-.651,4.159.375-.422.361-2.2,2.754-4.58s6.359-5.5,4.433-9.281a11.648,11.648,0,0,1-1.357-2.733,7.763,7.763,0,0,1,.845-4.876,2.848,2.848,0,0,0,.279-1.482,2.612,2.612,0,0,0-.122-.434c-.018-.11,1.423.273.874,2.9a4.422,4.422,0,0,0,1.069,4.735c2.377,2.38,5.14,6.607,3.363,10.165a4.441,4.441,0,0,0,.2,4.793s.736.876.806-1.667a11.017,11.017,0,0,0-.713-4.486c-.725-.912,1.412-.8,2.908,1.773s2.027,5.668,1.315,10.423c-.469,3.139-2.622,8.217-9.452,8.217-5.993,0-8.758-4.128-9.285-8.421C-1000.02,179.639-996.516,176.83-996.473,177.036Z" transform="translate(-17.519 -27.487)" fill="#ccd8ed"/>
    </g>
  </g>
</svg>
