<svg xmlns="http://www.w3.org/2000/svg" xmlns:xlink="http://www.w3.org/1999/xlink" width="113" height="72" viewBox="0 0 113 72">
  <defs>
    <clipPath id="clip-Icon-krampartat">
      <rect width="113" height="72"/>
    </clipPath>
  </defs>
  <g id="Icon-krampartat" clip-path="url(#clip-Icon-krampartat)">
    <rect width="113" height="72" fill="rgba(0,0,0,0)"/>
    <g id="Icon-krampartat-2" data-name="Icon-krampartat" transform="translate(-345.719 -119.227)">
      <g id="Group_49" data-name="Group 49" transform="translate(346.153 129.228)">
        <path id="Path_416" data-name="Path 416" d="M460.962,145.438v-.01h0Z" transform="translate(-400.694 -136.924)" fill="rgba(204,216,237,0.8)"/>
        <path id="Path_417" data-name="Path 417" d="M504.84,164.362Z" transform="translate(-421.539 -145.919)" fill="#ccd8ed"/>
        <path id="Path_418" data-name="Path 418" d="M504.783,164.608V164.6l-.015.008A.035.035,0,0,0,504.783,164.608Z" transform="translate(-421.505 -146.032)" fill="#ccd8ed"/>
        <path id="Path_419" data-name="Path 419" d="M534.608,170.077a4.477,4.477,0,0,1-2.514.565c-.143-.114.5-1.337,3.887-4.6a69.811,69.811,0,0,1,6.424-4.987c.359-.183.65-.6,2.031,0,1.564.684,1.922,1.877,1.442,2.036a28.4,28.4,0,0,0-6.793,3.445C537.487,167.568,535.134,169.76,534.608,170.077Z" transform="translate(-434.478 -144.199)" fill="#ccd8ed"/>
        <path id="Path_420" data-name="Path 420" d="M528.62,162.314c-1.643,3.352-2.418,4.835-3,5.846-.271.471-1.122.209-1.169.1-.1-.254,1.26-3.542,1.186-6.3-.052-2.057-.512-5.579-.64-6.58.289-.256,1.405-.746,3.517-.393a3.366,3.366,0,0,1,2.744,1.8,51.311,51.311,0,0,1-2.638,5.527Z" transform="translate(-430.855 -141.407)" fill="#ccd8ed"/>
        <path id="Path_421" data-name="Path 421" d="M529.415,169.053c-.33.337-1.617.739-1.65.58s.542-.875,2.6-5.021c1.5-3.014,3.388-6.85,3.476-6.99s.5-.486,2.593-.239a5.618,5.618,0,0,1,3.5,1.5c.072.175-4.478,3.413-5.724,4.525C530.219,166.971,529.534,168.929,529.415,169.053Z" transform="translate(-432.429 -142.563)" fill="#ccd8ed"/>
        <path id="Path_422" data-name="Path 422" d="M517.062,162.857a12.413,12.413,0,0,1-.909,5.407c-.053.144-.809.78-.978.444a30.011,30.011,0,0,1-1.183-3.967c-1.338-5.633-5.829-7.185-5.891-7.483-.035-.182,2.09-1.472,4.994-1.867s3.328.206,3.328.206S517.058,160.945,517.062,162.857Z" transform="translate(-423.088 -141.593)" fill="#ccd8ed"/>
        <path id="Path_423" data-name="Path 423" d="M503.457,163.843a13.872,13.872,0,0,1,2.821,6.641.354.354,0,0,1-.6.177A27.854,27.854,0,0,0,499.8,164.9c-4.657-3.386-8.377-4.454-8.605-5.007-.186-.447,2.022-1.66,4.2-1.746a6.264,6.264,0,0,1,4.76,1.43,47.449,47.449,0,0,1,3.3,4.266Z" transform="translate(-415.052 -142.962)" fill="#ccd8ed"/>
        <path id="Path_424" data-name="Path 424" d="M547.447,170.284a33.509,33.509,0,0,1-3.889,2.732,13.079,13.079,0,0,1-1.7.267,3.91,3.91,0,0,1-2.027-.513c-.26-.562,1.385-1.376,2.408-2.328,2.52-2.343,7.311-4.932,7.638-4.577.364.393.448.5.169,1.64a10.161,10.161,0,0,1-2.6,2.779Z" transform="translate(-438.147 -146.617)" fill="#ccd8ed"/>
        <path id="Path_425" data-name="Path 425" d="M474.115,162.8a9.181,9.181,0,0,1-1.362-2.076c-.043-.238-.1-.97,1.234-1.2a10.956,10.956,0,0,1,5.738.658c1.316.442,6.863,4.069,9.74,6.234,2.927,2.2,5.168,4.21,5.224,4.882.162.613-1.4,1.679-3.249,2.5a3.4,3.4,0,0,1-3.128-.459,51.159,51.159,0,0,1-7.581-4.359,37,37,0,0,1-6.616-6.18Z" transform="translate(-406.288 -143.555)" fill="#ccd8ed"/>
        <path id="Path_426" data-name="Path 426" d="M443.926,138.461c-1.885-4.933-6.156-7.612-10.039-3.178-2.783,3.178-5.475,7.88-3.3,12.857,1.782,4.07,6.569,8.067,6.187,8.61s-2.9-1.877-4.583-3.221c-5.885-4.7-7.333-7.118-7.063-15.03.228-6.7,3.544-8.409,6.36-9.088s10.72.5,11.991,3.8C444.583,136.074,445.764,143.272,443.926,138.461Z" transform="translate(-383.656 -129.228)" fill="#ccd8ed"/>
        <path id="Path_427" data-name="Path 427" d="M461.055,154.329c-.853-2.268-3.691-4.517-4.451-4.173-2.031.922-2.7,3.051-2.241,5.91.114.57.239,1.109.371,1.633.55,1.959,2.262,4.842,7.183,9.21,3.846,3.413,12.984,6,15.465,5.361,2.653-.679,2.617-1.4,3.038-1.887a53.7,53.7,0,0,1-13.1-8.24C461.7,157.053,461.62,155.831,461.055,154.329Z" transform="translate(-397.492 -139.154)" fill="#ccd8ed"/>
        <path id="Path_428" data-name="Path 428" d="M449.27,159.911c-2.008-2.393-3.16-2.84-4.214-7.054a13.993,13.993,0,0,1-.37-1.636.24.24,0,0,0-.016-.064c-1.061-5.31,2.471-6.02,2.885-6.5s.112-1.629-1.019-3.156c-1.462-1.973-3.891-2-7.274,1.424-2.966,3-4.216,6.357-1.944,11.275a23.213,23.213,0,0,0,12.431,11.658c1.614.507,10.737,1.74,10.9,1.251s-3.162-.95-4.6-1.664a22.83,22.83,0,0,1-6.779-5.534Z" transform="translate(-388.906 -134.417)" fill="#ccd8ed"/>
        <path id="Path_429" data-name="Path 429" d="M548.1,174.893c.308-.341,2.183-1.392,3.212-2.263a22.641,22.641,0,0,0,3.664-4.042c.552.017-1.214,2.813-1.034,4.169.185,1.382-1.218,1.89-2.791,2.132S547.953,175.289,548.1,174.893Z" transform="translate(-442.087 -147.927)" fill="#ccd8ed"/>
        <path id="Path_430" data-name="Path 430" d="M388.523,181.268a.751.751,0,0,0,.062.05c-.037-.039-.057-.065-.057-.065a.061.061,0,0,1-.005.015Z" transform="translate(-366.281 -153.943)" fill="#ccd8ed"/>
        <path id="Path_431" data-name="Path 431" d="M347.077,177.746a7.883,7.883,0,0,0,2.459.392,6.537,6.537,0,0,0,3.27-.635,45.227,45.227,0,0,1-5.348-4.228C344.762,173.964,347.077,177.746,347.077,177.746Z" transform="translate(-346.153 -150.153)" fill="#ccd8ed"/>
        <path id="Path_432" data-name="Path 432" d="M389.228,181.8c-.193-.13-.389-.269-.587-.422A2.174,2.174,0,0,0,389.228,181.8Z" transform="translate(-366.337 -154.002)" fill="rgba(204,216,237,0.8)"/>
        <path id="Path_433" data-name="Path 433" d="M350.821,167.036s-2.507.462-.334,3.918a41.575,41.575,0,0,0,4.457,3.163,8.854,8.854,0,0,0,4.48,1.314,3.255,3.255,0,0,0,1.713-.63c-2.311-.928-3.045-2.324-5.829-4.622a21.121,21.121,0,0,0-4.487-3.143Z" transform="translate(-347.79 -147.187)" fill="#ccd8ed"/>
        <path id="Path_434" data-name="Path 434" d="M361.669,167.494a6.147,6.147,0,0,0-1.324-.681,13.211,13.211,0,0,0-3.791-.669c-1.2.069-1.516.363-1.6.546a19.624,19.624,0,0,1,2.911,1.988c2.817,2.354,5.156,4.815,6.523,5.649a7.518,7.518,0,0,0,3.14.875c1.239-.068,1.46-.324,1.491-.377-.226-.17-.451-.352-.679-.554C366.261,172.429,365.411,170.577,361.669,167.494Z" transform="translate(-350.333 -146.762)" fill="#ccd8ed"/>
        <path id="Path_435" data-name="Path 435" d="M400.77,160.421s-2.351-3.383-4.613-2.973-3.1,1.45-2.983,1.763,1.963,1.74,2.894,3.122c1.117,1.661,5.756,10.046,6.186,10.437a3.5,3.5,0,0,0,3.308.539,2.9,2.9,0,0,0,1.3-.881c-.677-1.41-1.259-2.7-2.955-6.545a48.652,48.652,0,0,0-3.137-5.462Z" transform="translate(-368.485 -142.618)" fill="#ccd8ed"/>
        <path id="Path_436" data-name="Path 436" d="M375.554,166.442a8.406,8.406,0,0,0-1.747-1.788c-1.4-.939-3.122-.6-4.7-.587a4.979,4.979,0,0,0-2.633.476c.365.268.755.579,1.182.956,3.924,3.463,4.806,5.55,6.982,7.619.238.227.478.432.714.622a.081.081,0,0,0,.006-.013.609.609,0,0,0,.051.061c.187.149.371.285.555.413a6.049,6.049,0,0,0,2.626.642,17.353,17.353,0,0,0,3.086.04,2.346,2.346,0,0,1-.78-.655C379.873,172.894,376.44,167.559,375.554,166.442Z" transform="translate(-355.804 -145.745)" fill="#ccd8ed"/>
        <path id="Path_437" data-name="Path 437" d="M385.743,160.917a3.913,3.913,0,0,0-3.127-.654c-1.808.555-2.457.985-2.248,1.314.126.2,1.012.466,1.585,1.2,1,1.285,4.956,7.907,6.253,9.143a8.3,8.3,0,0,0,1.482,1.239,6.023,6.023,0,0,0,3.055.932c1.6-.078,2.7-.636,2.562-.762-1.2-1.106-4.217-6.286-6.465-9.1a27.155,27.155,0,0,0-3.1-3.312Z" transform="translate(-362.39 -143.917)" fill="#ccd8ed"/>
        <path id="Path_438" data-name="Path 438" d="M347.063,181.138" transform="translate(-346.585 -153.889)" fill="#ccd8ed"/>
        <path id="Path_439" data-name="Path 439" d="M419.133,172.386c-.562-2.7-1.49-3.99-3.026-7.541a17.765,17.765,0,0,0-2.748-4.545,4.75,4.75,0,0,0-3.526-1.019c-1.491.115-3.319.433-3.265.69a17.321,17.321,0,0,1,3.491,4.376c1.764,3.362,3.661,7.411,3.962,7.765.326.382.86.715,2.578.948s1.861.224,2.11.154C418.711,173.214,419.29,173.139,419.133,172.386Z" transform="translate(-374.853 -143.496)" fill="#ccd8ed"/>
        <path id="Path_440" data-name="Path 440" d="M424.417,166.422c-1.029-1.978-2.136-4.753-2.136-4.753s-.241-1.042,1.066-.525c.458.181,1.606,3.84,6.264,7.622,2.642,2.145,3.921,2.888,3.52,3.353-1,1.169-2.993,2.013-4.474,1.144S424.917,167.382,424.417,166.422Z" transform="translate(-382.31 -144.321)" fill="#ccd8ed"/>
      </g>
      <g id="Group_50" data-name="Group 50" transform="translate(399.478 169.625)">
        <path id="Path_441" data-name="Path 441" d="M449.889,206.183a7.9,7.9,0,0,1-1.392,4.2c-1.7,2.925-.273,5.025,1.551,5.025,1.877,0,3.017-2.22,1.3-4.813a10.155,10.155,0,0,1-1.459-4.412Z" transform="translate(-447.736 -206.183)" fill="#99b1db"/>
      </g>
      <g id="Group_51" data-name="Group 51" transform="translate(403.978 177.201)">
        <path id="Path_442" data-name="Path 442" d="M457.994,220.615A6.178,6.178,0,0,1,456.9,223.9c-1.33,2.288-.214,3.931,1.214,3.931,1.468,0,2.36-1.737,1.021-3.766a7.944,7.944,0,0,1-1.141-3.45Z" transform="translate(-456.309 -220.615)" fill="#99b1db"/>
      </g>
      <g id="Group_52" data-name="Group 52" transform="translate(391.95 161.197)">
        <path id="Path_443" data-name="Path 443" d="M434.955,190.129a9.7,9.7,0,0,1-1.091,3.289c-1.12,2.773-.033,4.349,1.214,3.935,1.4-.463,2.363-1.739,1.021-3.769a7.957,7.957,0,0,1-1.144-3.455Z" transform="translate(-433.397 -190.129)" fill="#99b1db"/>
      </g>
      <g id="Group_53" data-name="Group 53" transform="translate(401.616 185.168)">
        <path id="Path_444" data-name="Path 444" d="M452.994,235.792a4.344,4.344,0,0,1-.767,2.313c-.935,1.611-.15,2.767.855,2.767,1.033,0,1.661-1.223.719-2.651A5.6,5.6,0,0,1,452.994,235.792Z" transform="translate(-451.809 -235.792)" fill="#99b1db"/>
      </g>
      <g id="Group_54" data-name="Group 54" transform="translate(407.099 165.398)">
        <path id="Path_445" data-name="Path 445" d="M463.506,198.131a4.6,4.6,0,0,1-.81,2.444c-.988,1.7-.159,2.923.9,2.923,1.092,0,1.755-1.292.759-2.8a5.909,5.909,0,0,1-.849-2.567Z" transform="translate(-462.254 -198.131)" fill="#99b1db"/>
      </g>
    </g>
  </g>
</svg>
