<svg xmlns="http://www.w3.org/2000/svg" xmlns:xlink="http://www.w3.org/1999/xlink" width="110" height="104" viewBox="0 0 110 104">
  <defs>
    <clipPath id="clip-Icon-star">
      <rect width="110" height="104"/>
    </clipPath>
  </defs>
  <g id="Icon-star" clip-path="url(#clip-Icon-star)">
    <rect width="110" height="104" fill="rgba(0,0,0,0)"/>
    <path id="Icon-star-2" data-name="Icon-star" d="M1489.56,299.142a12.97,12.97,0,0,0-.412-2.9,8.739,8.739,0,0,1-.175-2.207s.632-.194.635-.3a5.064,5.064,0,0,0,.093-2.662c-.652-3.681-1.077-9.377-1.731-10.56-1.287-2.329-2.1-2.478-3.862-3.3-.763-.355-3.814-.9-4.16-1.047-.322-.136-.36-.333-.348-1.066,0-.138,1.437.319,1.774.38,0,0,2.688-.371,2.282-.624-.993-.62,1.384-5.738.44-8.713-.506-1.594-1.227-2.157-2.387-3.707a3.678,3.678,0,0,0-3.044-1.421c-1.209.123-1.683.36-1.863.327a3.527,3.527,0,0,0-1.6-.105,3.352,3.352,0,0,0-1.093.181,5.129,5.129,0,0,0-3.211,2.66c-.971,1.675-.2,2.994-.365,4.766-.289,3.108,1.381,5.329.6,6.307-.391.49,1.528.008,1.806-.1a1.936,1.936,0,0,0,.939-.594,2.5,2.5,0,0,1-.307,1.246c-.22.373-1.692.636-4.278,1.213a9.423,9.423,0,0,0-3.913,2.51,14.082,14.082,0,0,0-2.139,5.564c-.037.176-1.214,6.344-1.074,6.848.075.272.314.014.23.382-.127.557-.323,1.12-.443,1.613a17.925,17.925,0,0,0-.481,3.267,32.016,32.016,0,0,0,.2,3.753c.039.742.347,2.136.3,2.331a2.526,2.526,0,0,0,.378,1.76,32.6,32.6,0,0,1,1.434,3.317,4.033,4.033,0,0,0,1.022,1.4.576.576,0,0,1,.189.484c-.229,1.713-.177,3.44-.258,5.16a22.492,22.492,0,0,0,.192,3.37,58.846,58.846,0,0,1,.606,6.251,22.928,22.928,0,0,1,.188,2.689,3.288,3.288,0,0,0,.43,2.231c.033.051.06.154.033.189-.223.289-.177.669-.339.975a.429.429,0,0,0-.038.417,1.858,1.858,0,0,1,.017,1.39,1.754,1.754,0,0,0-.038,1.3c.128.27-.047.591-.156.867a.619.619,0,0,0-.042.545c.024.048.051.124.03.162-.245.453.146,3.881-.011,5.06-.081.607-.1,5.373-.118,6.146a16.243,16.243,0,0,0,.039,3.723,9.19,9.19,0,0,1,.345,1.523,4.313,4.313,0,0,1,.046,1,.943.943,0,0,0-.1,1.138c.091.143.756.283.755.444,0,.519.55.69.4,1.18a1.037,1.037,0,0,0,.252,1.055c.131.152-.165.719-.21.881-.277.964-.994,1.715-1.288,2.67a2.781,2.781,0,0,0,.974,2.876,6.061,6.061,0,0,0,2.184.427,2.88,2.88,0,0,0,1.49-.521,3.546,3.546,0,0,0,1.165-1.883,2.308,2.308,0,0,0,.007-.89,2.4,2.4,0,0,1,.079-1c.121-.406.054-.487.3-.779a1.867,1.867,0,0,0,.346-1.14c.025-.3.01-1.448.01-1.448.286-.3.006-.546-.078-.867-.139-.533.12-.321.226-.861.036-.181-.469-.552-.364-.716.394-.611.078-1.217.169-1.484.128-.374.139-.439.244-.824a2.106,2.106,0,0,0-.217-1.367c-.67-.955-.162-1.653.1-2.686a12.432,12.432,0,0,0,.217-3.191c-.021-1.024.075-1.424.019-2.068a3.423,3.423,0,0,1,.247-1.724,1.332,1.332,0,0,0-.1-1.054,1.041,1.041,0,0,1-.075-.529.726.726,0,0,0-.085-.423.619.619,0,0,1,.113-.855c.319-.292.335-.7.475-1.062a.243.243,0,0,0-.02-.2c-.362-.535-.059-.969.223-1.388a.968.968,0,0,0,.2-.883c-.03-.094.1-1.547.123-2.174.017-.439.445-3.852.466-4.475.174-2.185.52-6.043.6-6.973.051-.635.56-5.232.978-5.138.022.005.057,0,.064.017.2.374,1.962,8.739,1.973,9.424.007.391.221,5.25.269,6.084a.286.286,0,0,1,0,.067,20.305,20.305,0,0,0,.02,2.84,6.623,6.623,0,0,0,.378,1.937,7.466,7.466,0,0,1,.214,3.523.854.854,0,0,0,0,.3,4.282,4.282,0,0,1-.1,2.052,3.1,3.1,0,0,0,.073,1.931,1.836,1.836,0,0,1,.111.559q0,2.046.013,4.091c0,.286.416.656.277.915a3.6,3.6,0,0,0,.139.787c.1.683.319.3.177.739a1.191,1.191,0,0,0-.082.359,10.472,10.472,0,0,0-.011,2.661,2.642,2.642,0,0,0,.2.659c.439.672-.467,1.386-.48,2.219a.9.9,0,0,0,.371.654.27.27,0,0,1,.049.41c-.226.3.029.229.165.522a3.42,3.42,0,0,1-.063,1.126,1.218,1.218,0,0,0,.75,1.216,1.051,1.051,0,0,1,.68.9,3.723,3.723,0,0,0,.535,1.451,1.711,1.711,0,0,0,1.328.875,4.6,4.6,0,0,0,2.228-.081,2.283,2.283,0,0,0,1.574-1.635,2.55,2.55,0,0,0-.255-1.723,13.344,13.344,0,0,0-.877-1.265,12.338,12.338,0,0,1-1.045-1.467c-.057-.1.138-.247.138-.551s-.219-.39-.195-.453c.054-.146.649-.192.717-.6.046-.269.091-.071.04-.552-.069-.64-.284-.1-.047-2.178.315-2.775.8-7.476.835-10.27.019-1.386.02-2.829.039-4.216a6.267,6.267,0,0,0-.088-1.62.443.443,0,0,1,.06-.486.7.7,0,0,0-.03-1.059.463.463,0,0,1-.03-.639,1.724,1.724,0,0,0-.1-1.736,1.518,1.518,0,0,1-.156-1.164.678.678,0,0,1,.055-.14.936.936,0,0,0-.013-.965c-.129-.209.025-.557.025-.567,0-.641.759-5.117.841-6.472s.518-10.331.393-11.282c-.081-.626-.175-1.25-.268-1.874a3.141,3.141,0,0,0-.085-.325,1.133,1.133,0,0,1,.2-1c.4-.591.948-1.047,1.339-1.638a6.81,6.81,0,0,1,1.119-1.213,1.407,1.407,0,0,0,.337-1.712.962.962,0,0,1-.069-.429c0-1.037,0-1.654.079-2.685.052-.714-.006-1.66.006-2.381m-22.136-7.043a55.032,55.032,0,0,1-.267,6.668c-.273,1.343-1.27,4.063-.9,4.819.241.492-.056.844-.315.528a4.061,4.061,0,0,0-.386-.426c-.614-.557-.418-1.255-.252-1.992.267-1.187.39-2.261.574-3.464a12.939,12.939,0,0,0,.044-2.193,13.485,13.485,0,0,1,.55-3.06s.578.348.661.029a8.931,8.931,0,0,0,.281-1.707,4.065,4.065,0,0,1,.009.8m18.861,12.434c-.322.1-.628.25-.948.355-.158.053.034-.265.364-.365s-.509-1.93-.669-3.506a40.937,40.937,0,0,1,.045-5.376,11.446,11.446,0,0,0,.459,2.928c.191.783.332,1.7.632,2.719a9.2,9.2,0,0,1,.714,2.437Z" transform="translate(-1420.473 -260.012)" fill="#003da5"/>
  </g>
</svg>
