<svg xmlns="http://www.w3.org/2000/svg" xmlns:xlink="http://www.w3.org/1999/xlink" width="113" height="72" viewBox="0 0 113 72">
  <defs>
    <clipPath id="clip-Icon-ilande">
      <rect width="113" height="72"/>
    </clipPath>
  </defs>
  <g id="Icon-ilande" clip-path="url(#clip-Icon-ilande)">
    <rect width="113" height="72" fill="rgba(0,0,0,0)"/>
    <g id="Icon-ilande-2" data-name="Icon-ilande" transform="translate(846.596 -341.113)">
      <g id="Group_46" data-name="Group 46" transform="translate(-819.167 376.725)">
        <path id="Path_407" data-name="Path 407" d="M-806,652.174l-12.279-7.212a.54.54,0,0,0-.473-.035.54.54,0,0,0-.318.351l-.03.1a1.593,1.593,0,0,0-.063.444V659.94a3.183,3.183,0,0,0,1.42,2.654l12.28,8.189a3.214,3.214,0,0,0,.582.305.391.391,0,0,0,.365-.039.391.391,0,0,0,.172-.324v-15.65a3.386,3.386,0,0,0-1.656-2.9Z" transform="translate(819.167 -635.319)" fill="#668bc9"/>
        <path id="Path_408" data-name="Path 408" d="M-779.936,573.407a.391.391,0,0,0,.192-.31.391.391,0,0,0-.147-.334,3.15,3.15,0,0,0-.381-.26l-12.28-7.09a3.194,3.194,0,0,0-1.6-.426,3.193,3.193,0,0,0-1.595.426l-12.031,6.946a1.593,1.593,0,0,0-.405.334l-.006.007a.539.539,0,0,0-.126.441.539.539,0,0,0,.259.378l12.2,7.167a3.375,3.375,0,0,0,1.716.47,3.377,3.377,0,0,0,1.7-.459Z" transform="translate(809.616 -564.988)" fill="#3364b7"/>
        <path id="Path_409" data-name="Path 409" d="M-669.766,644.636h0a.391.391,0,0,0-.217-.3.391.391,0,0,0-.367.014l-12.53,7.309a3.383,3.383,0,0,0-1.673,2.912v15.633a.391.391,0,0,0,.172.324.391.391,0,0,0,.365.039,3.226,3.226,0,0,0,.582-.305l12.28-8.189a3.183,3.183,0,0,0,1.42-2.654V645.08a3.134,3.134,0,0,0-.032-.444Z" transform="translate(700.673 -634.802)" fill="#99b1db"/>
      </g>
      <path id="Path_410" data-name="Path 410" d="M-641.986,376.9l-6.335-9.314a.391.391,0,0,0-.308-.171.391.391,0,0,0-.321.147,3.314,3.314,0,0,0-.409.654l-4.34,9.235a3.313,3.313,0,0,0,.163,3.128l5.4,8.948a3.333,3.333,0,0,0,.565.7h0a.391.391,0,0,0,.341.1.391.391,0,0,0,.281-.218l5.139-10.934a2.3,2.3,0,0,0-.176-2.275Z" transform="translate(-145.375 -14.347)" fill="#668bc9"/>
      <path id="Path_411" data-name="Path 411" d="M-569.181,450.087l-11.19,1a2.308,2.308,0,0,0-1.879,1.313l-5.134,10.924a.391.391,0,0,0,.012.355.391.391,0,0,0,.294.2h0a3.422,3.422,0,0,0,.412.025,3.277,3.277,0,0,0,.486-.036l10.337-1.549a3.313,3.313,0,0,0,2.513-1.871l4.34-9.235a3.314,3.314,0,0,0,.224-.641h0a.391.391,0,0,0-.083-.349A.391.391,0,0,0-569.181,450.087Z" transform="translate(-203.992 -87.121)" fill="#99b1db"/>
      <path id="Path_412" data-name="Path 412" d="M-593.355,361.923a2.3,2.3,0,0,0,1.9,1.007,1.463,1.463,0,0,0,.2-.009l11.165-.993a.391.391,0,0,0,.3-.187.391.391,0,0,0,.026-.353,3.311,3.311,0,0,0-.333-.608l-5.735-8.243a3.323,3.323,0,0,0-2.727-1.424,2.149,2.149,0,0,0-.278.012l-10.006.845a3.3,3.3,0,0,0-.591.106h0a.391.391,0,0,0-.266.243.391.391,0,0,0,.046.357Z" transform="translate(-193.171)" fill="#3364b7"/>
      <g id="Group_47" data-name="Group 47" transform="translate(-781.348 377.255)">
        <path id="Path_413" data-name="Path 413" d="M-399.038,614.441l-1.162-7.056a3.432,3.432,0,0,0-.242-.813h0a.391.391,0,0,0-.263-.222.391.391,0,0,0-.337.073l-6.8,5.46a2.006,2.006,0,0,0-.722,1.9l1.458,8.613a.391.391,0,0,0,.2.279.391.391,0,0,0,.343.013h0a3.431,3.431,0,0,0,.783-.482l5.53-4.535a3.46,3.46,0,0,0,1.211-3.23Z" transform="translate(419.947 -601.915)" fill="#99b1db"/>
        <path id="Path_414" data-name="Path 414" d="M-492.767,633.478a2.012,2.012,0,0,0-1.27-1.541l-8.787-3.311a.391.391,0,0,0-.344.033.391.391,0,0,0-.183.293h0a3.45,3.45,0,0,0,.07,1.13l1.681,7.252a3.444,3.444,0,0,0,2.145,2.45l6.842,2.578a3.43,3.43,0,0,0,.885.205.391.391,0,0,0,.323-.123.391.391,0,0,0,.1-.331Z" transform="translate(503.368 -621.513)" fill="#668bc9"/>
        <path id="Path_415" data-name="Path 415" d="M-498.381,575.8l8.8,3.314a2,2,0,0,0,.707.129,2.013,2.013,0,0,0,1.255-.441l6.845-5.494a.391.391,0,0,0,.146-.311.391.391,0,0,0-.155-.306,3.434,3.434,0,0,0-.855-.472l-6.844-2.579a3.44,3.44,0,0,0-1.218-.222,3.428,3.428,0,0,0-2.01.648l-6.049,4.339a3.453,3.453,0,0,0-.8.8h0a.391.391,0,0,0-.058.341.391.391,0,0,0,.236.253Z" transform="translate(499.201 -569.416)" fill="#3364b7"/>
      </g>
    </g>
  </g>
</svg>
