<svg xmlns="http://www.w3.org/2000/svg" xmlns:xlink="http://www.w3.org/1999/xlink" width="76" height="72" viewBox="0 0 76 72">
  <defs>
    <clipPath id="clip-path">
      <rect id="Rectangle_16" data-name="Rectangle 16" width="76" height="71.855"/>
    </clipPath>
    <clipPath id="clip-icon-staller-sm">
      <rect width="76" height="72"/>
    </clipPath>
  </defs>
  <g id="icon-staller-sm" clip-path="url(#clip-icon-staller-sm)">
    <rect width="76" height="72" fill="rgba(255,255,255,0)"/>
    <g id="icon-staller" clip-path="url(#clip-path)">
      <rect id="Rectangle_15" data-name="Rectangle 15" width="76" height="71.855" fill="rgba(0,0,0,0)"/>
      <path id="icon-staller-2" data-name="icon-staller" d="M1207.046,720.064c-.138-.614-1.193-5.716-1.631-8.491a54.224,54.224,0,0,1-.571-6.727,63.431,63.431,0,0,1,1.536-9.618c1.222-4.919,4.206-12.436,3.094-12.635-.753-.138-1.135.818-1.112.691,0,0-.766-1.711-2.617,5.173-1.553,5.775-3.206,13.964-3.206,13.964s-1.1-.142-6.274-.345c-.931-.037-1.727-.042-2.409-.023v-.069a5.822,5.822,0,0,1,.179-1.048,11.52,11.52,0,0,0,5.246-2.726c2.31-2.094,1.957-4.4,1.629-6.385-.078-.47.207-1.427.133-1.716-1.105-4.244-2.41-6.331-2.735-7.684-1.293-5.37-2.553-7.018-3.49-8.3a5.044,5.044,0,0,0-2.6-1.546c-.316-.1-1.969-.459-1.911-1.346,0,0,2.444-.1,1.105-.875-1.61-.927.086-2.914-1.295-4.571a5.508,5.508,0,0,0-2-1.653c-.659-.4-2.009-1.647-3.161-.79a9.976,9.976,0,0,1-1.69.838,7.852,7.852,0,0,0-.989.515c-.364.3-.215.207-.575.691a4.862,4.862,0,0,0-.76,1.52.975.975,0,0,0-.031.117.541.541,0,0,0-.01.345h0a2.063,2.063,0,0,0,.054.258,3.36,3.36,0,0,0,1.078,1.418c.017.024.073.154.091.174a.679.679,0,0,1,.1.612c-.03.207-.023.166-.086.5s-.093.345-.146.622-.077.368.039.533a.264.264,0,0,0,.247.106,4.293,4.293,0,0,0,.466-.069.286.286,0,0,1,.323.178c.069.2,0,.423.153.5s.484-.021.415.138c-.025.055-.118.065-.064.24.037.117.123.151.225.193.119.049.2.011.259.207a3.823,3.823,0,0,0,.156.52.7.7,0,0,0,.819.3c.368-.1.766-.345,1.445-.579.756-.259,1.175.075,1.119.354-.032.161-.974.817-.913,3.511.006.276,0,.538,0,.8v.023c0,.276-.006.562.008.868,0,.156.012.319.02.487.086,1.619-.09,2.008.032,3.394a5.728,5.728,0,0,0,.912,2.286c.138.216.251.384.345.529a34.578,34.578,0,0,0,1.615,5.077c-3.007,1.465-7.565,4.031-9.889,5.2-1.05.529-1.739.948-2.035,2a.3.3,0,0,1-.155.228,2.789,2.789,0,0,0-1.232,1.26,2.528,2.528,0,0,0-.4,1.534,39.1,39.1,0,0,0,2.985,8.941v0c.028.06.057.12.084.18.312.706.76,1.641.962,2.16.166.43.144,1.3.466,1.633a.483.483,0,0,1,.176.332c.04.172-.276.233-.152.734.027.106.249.319.156.4-.258.234.026.571.022.869a4.129,4.129,0,0,1-1.551.665c-.468.149-1.865.215-2.2.884-.143.285-.622.981.691,1.137.5.059,2.3.107,2.672.076-.415.149-3.043,1.1-3.182,1.121-.709.11-1.322.119-1.61.738-.214.462-.2.645.074.865a3.345,3.345,0,0,0,1.816.714,3.246,3.246,0,0,0,.989.005,30.389,30.389,0,0,0,3.917-.569,4.18,4.18,0,0,1,.613-.1c.059.037,1.455-.126,1.858-.129.2,0,.47-.019.674-.021a.922.922,0,0,0,.94-1.036,11.994,11.994,0,0,0-.115-1.494,1.143,1.143,0,0,0,.648-.3,4.563,4.563,0,0,0,.027-2.2,9.577,9.577,0,0,0-.4-1.13,4.1,4.1,0,0,1-.017-.622,7.172,7.172,0,0,0-.543-1.811c-.3-.5-1.015-4.662-1.457-6.149-.465-1.561-1.076-2.625-.889-2.907a53.885,53.885,0,0,1,6.114-1.7,12.838,12.838,0,0,0-1.174,1.078c-.291.316-.256.812-.256,1.395,0,.943.207,1.617.592,1.079.16-.223-.1-1.255.728-1.9l.069-.053c-.542,3.2-1.93,18.181-1.907,18.342.039.292.1.4.359.421a2.233,2.233,0,0,0,.691-.014c.182-.037.288-.058.315-.434.006-.088.031-.414.045-.5.008-.055.323-2.887.736-6.265.015-.126.043-.472.4-.476,1.021-.011,2.659-.006,3.024-.008,1.658-.008,10.695.159,10.959.16.227,0,.249.276.316.528.172.644,1.184,5.131,1.589,6.484.075.25.115.521.662.531.33.006.691.015.594-.515-.061-.332-.207-1.147-.376-1.858m-4.2-15.062c.539,0,.5.263.507.542a47.5,47.5,0,0,0,.508,5.025c.046.361.014.511-.358.491-.76-.039-10.594-.1-12.022-.158-.5-.019-.768.05-.925-.144-.229-.286-.126-.944.109-3.666.052-.594.18-1.975.2-2.286s.234-.389.609-.364c.414.028,11.028.558,11.372.56m1.087,9.091c-.345.019-10.555-.1-12.915-.086-.246,0-.786.052-.893-.147a4.466,4.466,0,0,1,.159-2c.069-.363.368-.33.835-.318,1.946.048,11.453.2,12.554.207.243,0,.352.091.393.35.119.76.134.89.191,1.509.031.339.021.461-.324.479" transform="translate(-1154.546 -650.613)" fill="#003da5"/>
    </g>
  </g>
</svg>
