<svg xmlns="http://www.w3.org/2000/svg" xmlns:xlink="http://www.w3.org/1999/xlink" width="278" height="480" viewBox="0 0 278 480">
  <defs>
    <clipPath id="clip-Kropp-fram">
      <rect width="278" height="480"/>
    </clipPath>
  </defs>
  <g id="Kropp-fram" clip-path="url(#clip-Kropp-fram)">
    <rect width="278" height="480" fill="rgba(0,0,0,0)"/>
    <g id="Kropp-fram-2" data-name="Kropp-fram" transform="translate(41.999 5.01)">
      <path id="Path_467" data-name="Path 467" d="M132.837,775.376a4.112,4.112,0,0,0-1.5,1.731c-.513,1.155-.941,1.332-1.07,2.229s-.259,2.4,1.274,2.654" transform="translate(-87.103 -317.46)" fill="none" stroke="#161615" stroke-linecap="round" stroke-miterlimit="10" stroke-width="0.591"/>
      <path id="Path_468" data-name="Path 468" d="M135.537,778.167a16.587,16.587,0,0,0-2.559,2.739c-.731,1.171-1.535,2.56-1.243,3.253a1.888,1.888,0,0,0,1.5,1.134,1.7,1.7,0,0,0,1.1-.184" transform="translate(-87.439 -318.096)" fill="none" stroke="#161615" stroke-linecap="round" stroke-miterlimit="10" stroke-width="0.591"/>
      <path id="Path_469" data-name="Path 469" d="M139.317,779.4s-1.353,1.536-2.376,2.924-1.844,2.376-1.828,3.07a1.778,1.778,0,0,0,1.609,1.684c1.28.181,1.681.29,2.6-.33a4.544,4.544,0,0,0,1.243-1.146" transform="translate(-88.222 -318.375)" fill="none" stroke="#161615" stroke-linecap="round" stroke-miterlimit="10" stroke-width="0.591"/>
      <path id="Path_470" data-name="Path 470" d="M145.4,717.923a7.355,7.355,0,0,1-1.3,2.261c-.914.96-1.809,2.011-1.809,2.949a3.207,3.207,0,0,0,3.347,3.061c2.454-.046,3.847-.721,4.857-2.454s2.115-2.034,3.943-3.889,1.414-4.488,2.308-7.173c.576-1.73,10.151-10.523,11.418-12.233,1.923-2.6.819-6.833.673-9.135-.08-1.263-.185-1.134-.27-2.176-.427-5.2,1.523-4.516,1.675-7.684.042-.874-.558-5.865-.558-5.865a85.24,85.24,0,0,1,.684-17.457c1.369-9.47,3.994-22.249,4.564-28.638s-1.939-19.054-1.6-27.04,1.255-25.216,1.141-31.491,3.081-16.429,3.2-25.443.363-12.026.887-21.548c.5-9.058,1.053-17.245,1.053-17.245s.42-.824.709,0c0,0,.782,10.833,1.22,18.017.567,9.3.6,11.567.719,20.776.114,9.014,3.309,19.168,3.2,25.443s.8,23.5,1.141,31.491-2.168,20.651-1.6,27.04,3.194,19.168,4.564,28.638a85.243,85.243,0,0,1,.684,17.457s-.6,4.991-.558,5.865c.152,3.168,2.1,2.483,1.675,7.684-.086,1.043-.191.914-.271,2.176-.145,2.3-1.25,6.538.674,9.135,1.266,1.71,10.841,10.5,11.417,12.233.894,2.685.482,5.324,2.309,7.173s2.932,2.158,3.943,3.889,2.4,2.407,4.856,2.454a3.208,3.208,0,0,0,3.348-3.061c0-.937-.894-1.989-1.809-2.949a7.356,7.356,0,0,1-1.3-2.261" transform="translate(-89.856 -256.207)" fill="none" stroke="#161615" stroke-miterlimit="10" stroke-width="0.591"/>
      <path id="Path_471" data-name="Path 471" d="M248.522,775.376a4.112,4.112,0,0,1,1.5,1.731c.513,1.155.941,1.332,1.07,2.229s.259,2.4-1.274,2.654" transform="translate(-114.044 -317.46)" fill="none" stroke="#161615" stroke-linecap="round" stroke-miterlimit="10" stroke-width="0.591"/>
      <path id="Path_472" data-name="Path 472" d="M245.462,778.167a16.589,16.589,0,0,1,2.559,2.739c.731,1.171,1.535,2.56,1.243,3.253a1.888,1.888,0,0,1-1.5,1.134,1.7,1.7,0,0,1-1.1-.184" transform="translate(-113.348 -318.096)" fill="none" stroke="#161615" stroke-linecap="round" stroke-miterlimit="10" stroke-width="0.591"/>
      <path id="Path_473" data-name="Path 473" d="M241.216,779.4s1.353,1.536,2.376,2.924,1.842,2.376,1.827,3.07a1.776,1.776,0,0,1-1.607,1.684c-1.28.181-1.682.29-2.6-.33a4.544,4.544,0,0,1-1.243-1.146" transform="translate(-112.098 -318.375)" fill="none" stroke="#161615" stroke-linecap="round" stroke-miterlimit="10" stroke-width="0.591"/>
      <path id="Path_474" data-name="Path 474" d="M117.857,640.49s-.517.393-1.176-.313c-.424-.454-.319-1.113.066-2.388a7.163,7.163,0,0,1,1.345-2.843,23.536,23.536,0,0,1,2.95-3.064c3.462-2.488,13.87-12.206,14.638-15.076s2.78-8.317,3.472-11.122a38.2,38.2,0,0,0,.593-7.637c-.456-6.584-3.207-15-5.6-29.531s-2.4-35.875-1.6-43.935-.114-15.553-2.282-26.338-7.417-23.614-9.7-35.874-4.336-32.583-3.2-43.368a302.67,302.67,0,0,1,5.933-37.917c3.309-14.191,2.51-21.116,1.711-29.177s-2.815-18.517-2.815-18.517a19.6,19.6,0,0,0-1.977,8.527c0,4.882-.684,8.4-1.711,14.418s-1.369,13.964-3.536,23.383-8.208,24.863-10.034,29.63c0,0-3.039,7.63-2.074,11.905a15.9,15.9,0,0,1,.755,3.525c.223,3.853.18,9.344-.643,12.736-.451,1.858-.29,2.793.17,8.085.429,4.931,2.2,9.231-.188,9.779-1.475.339-2.056-4.08-2.667-6.939-.7-3.267-1.542-6.03-1.975-6.159-1.14-.338-.386,5.111-.184,9.013.226,4.347.513,7.9-1.415,7.93-1.538.025-2.163-.927-2.23-2.954-.114-3.383-.772-13.737-1.772-13.48s-1.382,4.7-1.671,8.22-.22,9.433-2.9,8.955c-1.964-.347-1.346-4.517-1.247-8.259s.709-10.129-.2-10.561-2.137,4.554-3.085,7.586-1.148,6.567-3.217,6.1c-1.468-.327-1.345-3.383-.8-5.38s1-4.451,1.854-7.325a41.765,41.765,0,0,0,1.564-9.6c-.076-1.837-1.9-.554-3.224,2.039s-2.647,4.635-4.119,4.613-1.652-1.78-.59-3.633c.952-1.663,1.4-4.345,3.979-9.017,2.144-3.881,4.176-4.32,6.239-6.317,4.733-4.583,4.809-14.384,4.809-14.384.342-6.584.8-23.727.684-29.516s2.054-13.737,3.3-18.507.118-11.352,0-18.164,2.054-22.819,1.483-31.788S95,290.136,95,290.136c0-.19.008-.38.017-.567a26.151,26.151,0,0,1,11.393-20.209c4.678-3.029,9.356-3.973,15.631-6.7s17.114-6.017,22.477-8.628,4.455-12.3,4.373-15.137c-.012-.42-1.314-.769-2.434-4.521a55.77,55.77,0,0,0-2.053-5.431,5.832,5.832,0,0,1-.924.034c-.916-.09-1.2-.634-1.611-1.623-.551-1.334-.372-2.915-1.152-4.735-1.508-3.518-2.562-7.781-.747-8.562a1.969,1.969,0,0,1,1.711.056s-1.206-18.537,3.2-25.26c6-9.154,17.467-9.4,20.173-9.4s14.006.237,20.008,9.394c4.407,6.722,3.2,25.26,3.2,25.26a1.965,1.965,0,0,1,1.711-.056c1.815.78.761,5.044-.747,8.557-.781,1.821-.6,3.4-1.152,4.736-.409.99-.7,1.534-1.611,1.623a5.841,5.841,0,0,1-.924-.034s-1.232,3.04-2.053,5.43a14.205,14.205,0,0,1-2.429,4.554l-.046,1.141c-.081,2.837-.989,11.355,4.374,13.966s15.289,5.9,21.564,8.628,11.036,3.546,15.631,6.7a26.521,26.521,0,0,1,11.393,20.209c.008.187.014.377.016.567,0,0,0,8.742-.571,17.711s1.6,24.975,1.484,31.788-1.247,13.4.005,18.164,3.417,12.715,3.3,18.507.678,29.642.678,29.642.083,9.8,4.816,14.384c2.063,2,4.1,2.435,6.239,6.318,2.58,4.671,3.027,7.355,3.98,9.017,1.061,1.852.881,3.616-.592,3.633s-2.791-2.018-4.12-4.614-3.148-3.876-3.224-2.038a41.669,41.669,0,0,0,1.563,9.6c.856,2.874,1.3,5.327,1.854,7.325s.673,5.053-.8,5.379c-2.068.467-2.268-3.074-3.217-6.1s-2.174-8.017-3.085-7.586-.3,6.823-.2,10.56.718,7.909-1.246,8.259c-2.684.475-2.617-5.436-2.9-8.955s-.67-7.96-1.672-8.22-1.657,10.1-1.772,13.481c-.066,2.027-.692,2.978-2.229,2.953-1.928-.03-1.642-3.582-1.416-7.929.2-3.9.958-9.353-.182-9.013-.435.13-1.277,2.893-1.976,6.158-.612,2.857-1.192,7.279-2.666,6.94-2.387-.548-.618-4.847-.188-9.779.46-5.291.62-6.226.169-8.083-.823-3.393-.867-8.885-.643-12.736a15.874,15.874,0,0,1,.755-3.525c.965-4.279-2.074-12.031-2.074-12.031-1.826-4.768-7.871-20.208-10.039-29.631s-2.51-17.37-3.537-23.383-1.711-9.536-1.711-14.418a22.285,22.285,0,0,0-2.2-9.133s-1.789,11.063-2.588,19.123-1.6,14.986,1.711,29.177A302.679,302.679,0,0,1,211.627,419c1.141,10.785-.913,31.106-3.194,43.368s-7.531,25.089-9.7,35.874-3.08,18.277-2.281,26.338.8,29.4-1.6,43.935-5.147,22.947-5.6,29.531a38.134,38.134,0,0,0,.593,7.637c.692,2.8,2.7,8.251,3.472,11.122s11.178,12.588,14.64,15.075a23.537,23.537,0,0,1,2.95,3.064,7.184,7.184,0,0,1,1.345,2.843c.384,1.275.49,1.934.066,2.388-.658.706-1.176.313-1.176.313" transform="translate(-74.398 -179.468)" fill="none" stroke="#161615" stroke-linecap="round" stroke-linejoin="round" stroke-width="0.591"/>
      <path id="Path_475" data-name="Path 475" d="M179,491.209s5.733,11.563,9.324,11.563c3.571,0,9.325-11.563,9.325-11.563" transform="translate(-98.214 -251.655)" fill="none" stroke="#161615" stroke-linecap="round" stroke-linejoin="round" stroke-width="0.591"/>
      <path id="Path_476" data-name="Path 476" d="M200.076,393.9c-4.777-3.48-6.742-18.635-9.55-24.873-.751-1.667-.823,2.353-2.5,2.353-1.743,0-1.79-4.011-2.626-2.331-3.162,6.368-5.953,21.923-10.836,24.851" transform="translate(-97.204 -223.292)" fill="none" stroke="#161615" stroke-linecap="round" stroke-linejoin="round" stroke-width="0.591"/>
      <path id="Path_477" data-name="Path 477" d="M193.813,281.367c-1.725.927-2.162,5.788-3.431,5.788s-2.075-5.011-3.831-5.788" transform="translate(-99.934 -202.669)" fill="none" stroke="#161615" stroke-linecap="round" stroke-linejoin="round" stroke-width="0.591"/>
      <path id="Path_478" data-name="Path 478" d="M197.678,292.678s2.716-1.4,8.036-1.4c2.97,0,11.816,1.4,11.816,1.4" transform="translate(-102.468 -204.926)" fill="none" stroke="#161615" stroke-linecap="round" stroke-linejoin="round" stroke-width="0.591"/>
      <path id="Path_479" data-name="Path 479" d="M178.974,292.678s-2.719-1.4-8.036-1.4c-2.97,0-11.817,1.4-11.817,1.4" transform="translate(-93.689 -204.926)" fill="none" stroke="#161615" stroke-linecap="round" stroke-linejoin="round" stroke-width="0.591"/>
      <path id="Path_480" data-name="Path 480" d="M198.377,349.535a19.3,19.3,0,0,0,31.089,0" transform="translate(-102.627 -218.844)" fill="none" stroke="#161615" stroke-linecap="round" stroke-linejoin="round" stroke-width="0.591"/>
      <path id="Path_481" data-name="Path 481" d="M143.507,349.535a19.3,19.3,0,0,0,31.089,0" transform="translate(-90.134 -218.844)" fill="none" stroke="#161615" stroke-linecap="round" stroke-linejoin="round" stroke-width="0.591"/>
      <path id="Path_482" data-name="Path 482" d="M192.158,444.136c-.154.783-2.349,1.684-3.4.581s-.408-3.184.484-3.478a1.723,1.723,0,0,1,2.453.621" transform="translate(-100.313 -240.003)" fill="none" stroke="#161615" stroke-linecap="round" stroke-linejoin="round" stroke-width="0.591"/>
      <path id="Path_483" data-name="Path 483" d="M170.967,256.767c2.512,3.083,8.755,9.716,15.962,9.716,7.671,0,13.9-6.759,16.242-9.824" transform="translate(-96.386 -197.044)" fill="none" stroke="#161615" stroke-linecap="round" stroke-miterlimit="10" stroke-width="0.591"/>
      <path id="Path_484" data-name="Path 484" d="M194.43,241.213a2.072,2.072,0,0,1-.22,1.462c-.487.731-1.315.467-1.965.528s-.933.935-2.183.935-1.535-.874-2.185-.935-1.478.2-1.966-.528a2.072,2.072,0,0,1-.219-1.462" transform="translate(-99.728 -193.527)" fill="none" stroke="#161615" stroke-linecap="round" stroke-linejoin="round" stroke-width="0.591"/>
      <path id="Path_485" data-name="Path 485" d="M195.671,252.158a3.474,3.474,0,0,1-2.193.205,11.157,11.157,0,0,0-2.264-.633c-.443,0-1.181.64-1.62.64h-.065c-.439,0-1.177-.64-1.62-.64a11.157,11.157,0,0,0-2.264.633,3.473,3.473,0,0,1-2.193-.205" transform="translate(-99.229 -195.921)" fill="none" stroke="#161615" stroke-linecap="round" stroke-linejoin="round" stroke-width="0.591"/>
      <path id="Path_486" data-name="Path 486" d="M187.742,255.368a5.444,5.444,0,0,0,2.942,1,4.41,4.41,0,0,0,2.729-1" transform="translate(-100.205 -196.75)" fill="none" stroke="#161615" stroke-linecap="round" stroke-linejoin="round" stroke-width="0.591"/>
      <path id="Path_487" data-name="Path 487" d="M190.315,249.7a1.41,1.41,0,0,0,.865.381,1.272,1.272,0,0,0,.832-.381" transform="translate(-100.791 -195.458)" fill="none" stroke="#161615" stroke-linecap="round" stroke-linejoin="round" stroke-width="0.591"/>
      <path id="Path_488" data-name="Path 488" d="M172.2,225.344a13.906,13.906,0,0,1,3.879-1.833c2.768-.7,5.232,1.7,5.232,1.7" transform="translate(-96.666 -189.467)" fill="none" stroke="#161615" stroke-linecap="round" stroke-linejoin="round" stroke-width="0.591"/>
      <path id="Path_489" data-name="Path 489" d="M181.111,217.61s-2.976-1.686-5.054-1.687a9.9,9.9,0,0,0-6.988,2.619,25.37,25.37,0,0,1,6.234-1.9c2.77-.314,4.755,1.726,5.515,2.172s.9-.884.293-1.209" transform="translate(-95.954 -187.768)" fill="#171716"/>
      <path id="Path_490" data-name="Path 490" d="M181.111,217.61s-2.976-1.686-5.054-1.687a9.9,9.9,0,0,0-6.988,2.619,25.37,25.37,0,0,1,6.234-1.9c2.77-.314,4.755,1.726,5.515,2.172S181.723,217.935,181.111,217.61Z" transform="translate(-95.954 -187.768)" fill="none" stroke="#161615" stroke-miterlimit="10" stroke-width="0.591"/>
      <path id="Path_491" data-name="Path 491" d="M179.291,225.729a.466.466,0,0,0,.207-.052.776.776,0,0,1-.232.046l.025.006Z" transform="translate(-98.275 -189.989)" fill="none" stroke="#161615" stroke-miterlimit="10" stroke-width="0.591"/>
      <path id="Path_492" data-name="Path 492" d="M179.29,223.712c-.316-.077-.646-.143-.99-.193a4.943,4.943,0,0,0-2.2.194,1.915,1.915,0,0,0-.5,1.279,2.1,2.1,0,0,0,4.2,0,1.913,1.913,0,0,0-.5-1.28m-.627,1.462a.466.466,0,0,1-.207.052l-.025-.005c-.009,0-.017,0-.025,0a.789.789,0,1,1,.258-.052" transform="translate(-97.44 -189.487)" fill="#171716"/>
      <path id="Path_493" data-name="Path 493" d="M179.29,223.712c-.316-.077-.646-.143-.99-.193a4.943,4.943,0,0,0-2.2.194,1.915,1.915,0,0,0-.5,1.279,2.1,2.1,0,0,0,4.2,0A1.913,1.913,0,0,0,179.29,223.712Zm-.627,1.462a.466.466,0,0,1-.207.052l-.025,0c-.009,0-.017,0-.025,0a.789.789,0,1,1,.258-.052Z" transform="translate(-97.44 -189.487)" fill="none" stroke="#161615" stroke-miterlimit="10" stroke-width="0.591"/>
      <path id="Path_494" data-name="Path 494" d="M207.256,225.344a13.9,13.9,0,0,0-3.879-1.833c-2.769-.7-5.232,1.7-5.232,1.7" transform="translate(-102.574 -189.467)" fill="none" stroke="#161615" stroke-linecap="round" stroke-linejoin="round" stroke-width="0.591"/>
      <path id="Path_495" data-name="Path 495" d="M197.365,217.61s2.976-1.686,5.054-1.687a9.9,9.9,0,0,1,6.988,2.619,25.372,25.372,0,0,0-6.234-1.9c-2.77-.314-4.755,1.726-5.515,2.172s-.9-.884-.293-1.209" transform="translate(-102.31 -187.768)" fill="#171716"/>
      <path id="Path_496" data-name="Path 496" d="M197.365,217.61s2.976-1.686,5.054-1.687a9.9,9.9,0,0,1,6.988,2.619,25.372,25.372,0,0,0-6.234-1.9c-2.77-.314-4.755,1.726-5.515,2.172S196.753,217.935,197.365,217.61Z" transform="translate(-102.31 -187.768)" fill="none" stroke="#161615" stroke-miterlimit="10" stroke-width="0.591"/>
      <path id="Path_497" data-name="Path 497" d="M202.778,225.729a.466.466,0,0,1-.207-.052.777.777,0,0,0,.232.046Z" transform="translate(-103.582 -189.989)" fill="none" stroke="#161615" stroke-miterlimit="10" stroke-width="0.591"/>
      <path id="Path_498" data-name="Path 498" d="M201.107,224.992a2.1,2.1,0,0,0,4.194,0,1.912,1.912,0,0,0-.5-1.279,4.926,4.926,0,0,0-2.2-.2c-.346.05-.676.117-.992.193a1.914,1.914,0,0,0-.5,1.28m.624-.531a.766.766,0,1,1,.765.765h-.051a.469.469,0,0,1-.207-.052.759.759,0,0,1-.507-.713" transform="translate(-103.248 -189.487)" fill="#171716"/>
      <path id="Path_499" data-name="Path 499" d="M201.107,224.992a2.1,2.1,0,0,0,4.194,0,1.912,1.912,0,0,0-.5-1.279,4.926,4.926,0,0,0-2.2-.2c-.346.05-.676.117-.992.193a1.914,1.914,0,0,0-.5,1.281Zm.624-.531a.766.766,0,1,1,.765.765h-.051a.469.469,0,0,1-.207-.052.759.759,0,0,1-.507-.713Z" transform="translate(-103.248 -189.487)" fill="none" stroke="#161615" stroke-miterlimit="10" stroke-width="0.591"/>
      <path id="Path_500" data-name="Path 500" d="M164.252,351.34a.874.874,0,1,1-.857-.7.788.788,0,0,1,.857.7Z" transform="translate(-94.467 -219.092)" fill="none" stroke="#161615" stroke-miterlimit="10" stroke-width="0.591"/>
      <path id="Path_501" data-name="Path 501" d="M219.079,351.34a.874.874,0,1,1-.856-.7.788.788,0,0,1,.856.7Z" transform="translate(-106.951 -219.092)" fill="none" stroke="#161615" stroke-miterlimit="10" stroke-width="0.591"/>
      <path id="Path_502" data-name="Path 502" d="M131.434,338.293c.933,1.708,3.822,32.395,3.822,32.395" transform="translate(-87.385 -216.275)" fill="none" stroke="#161615" stroke-linecap="round" stroke-linejoin="round" stroke-width="0.591"/>
      <path id="Path_503" data-name="Path 503" d="M245.331,370.688s2.889-30.685,3.822-32.395" transform="translate(-113.318 -216.275)" fill="none" stroke="#161615" stroke-linecap="round" stroke-linejoin="round" stroke-width="0.591"/>
      <path id="Path_504" data-name="Path 504" d="M142.165,441.831c.03-.788,10.685-.452,17.447,13.942" transform="translate(-89.828 -240.171)" fill="none" stroke="#161615" stroke-linecap="round" stroke-linejoin="round" stroke-width="0.591"/>
      <path id="Path_505" data-name="Path 505" d="M235.691,441.831c-.03-.788-10.685-.452-17.447,13.942" transform="translate(-107.15 -240.171)" fill="none" stroke="#161615" stroke-linecap="round" stroke-linejoin="round" stroke-width="0.591"/>
      <path id="Path_506" data-name="Path 506" d="M160.121,632.89a9.485,9.485,0,0,0,9.149,0" transform="translate(-93.916 -284.424)" fill="none" stroke="#161615" stroke-linecap="round" stroke-linejoin="round" stroke-width="0.591"/>
      <path id="Path_507" data-name="Path 507" d="M210.123,632.89a9.485,9.485,0,0,0,9.149,0" transform="translate(-105.301 -284.424)" fill="none" stroke="#161615" stroke-linecap="round" stroke-linejoin="round" stroke-width="0.591"/>
    </g>
  </g>
</svg>
