<svg xmlns="http://www.w3.org/2000/svg" xmlns:xlink="http://www.w3.org/1999/xlink" width="208.5" height="360" viewBox="0 0 208.5 360">
  <defs>
    <clipPath id="clip-Kropp-fram_1">
      <rect width="208.5" height="360"/>
    </clipPath>
  </defs>
  <g id="Kropp-fram_1" data-name="Kropp-fram – 1" clip-path="url(#clip-Kropp-fram_1)">
    <rect width="208.5" height="360" fill="rgba(0,0,0,0)"/>
    <g id="Group_2" data-name="Group 2">
      <rect id="Rectangle_4" data-name="Rectangle 4" width="208.5" height="360" fill="rgba(255,255,255,0)"/>
      <g id="Kropp-fram" transform="translate(31.5 3.75)">
        <path id="Path_467" data-name="Path 467" d="M132.176,775.376a3.084,3.084,0,0,0-1.125,1.3c-.385.866-.706,1-.8,1.672s-.194,1.8.956,1.99" transform="translate(-97.877 -431.932)" fill="none" stroke="#161615" stroke-linecap="round" stroke-miterlimit="10" stroke-width="0.591"/>
        <path id="Path_468" data-name="Path 468" d="M134.571,778.167a12.439,12.439,0,0,0-1.919,2.054c-.548.878-1.151,1.92-.932,2.44a1.416,1.416,0,0,0,1.125.85,1.275,1.275,0,0,0,.825-.138" transform="translate(-98.498 -433.106)" fill="none" stroke="#161615" stroke-linecap="round" stroke-miterlimit="10" stroke-width="0.591"/>
        <path id="Path_469" data-name="Path 469" d="M138.266,779.4s-1.015,1.152-1.782,2.193-1.383,1.782-1.371,2.3a1.333,1.333,0,0,0,1.207,1.263c.96.136,1.261.217,1.946-.248a3.409,3.409,0,0,0,.932-.859" transform="translate(-99.945 -433.624)" fill="none" stroke="#161615" stroke-linecap="round" stroke-miterlimit="10" stroke-width="0.591"/>
        <path id="Path_470" data-name="Path 470" d="M144.623,665.031a5.517,5.517,0,0,1-.975,1.7,3.964,3.964,0,0,0-1.357,2.212,2.4,2.4,0,0,0,2.51,2.3c1.84-.034,2.885-.541,3.643-1.84s1.586-1.526,2.957-2.917,1.061-3.366,1.731-5.38c.432-1.3,7.613-7.892,8.563-9.175,1.442-1.95.614-5.125.5-6.851-.06-.947-.139-.85-.2-1.632-.32-3.9,1.142-3.387,1.256-5.763.032-.656-.419-4.4-.419-4.4a63.932,63.932,0,0,1,.513-13.093c1.027-7.1,3-16.687,3.423-21.479s-1.454-14.29-1.2-20.28.941-18.912.856-23.618,2.311-12.322,2.4-19.082.272-9.02.665-16.161c.375-6.793.79-12.934.79-12.934s.315-.618.532,0c0,0,.587,8.125.915,13.513.425,6.975.45,8.675.539,15.582.086,6.76,2.482,14.376,2.4,19.082s.6,17.625.856,23.618-1.626,15.488-1.2,20.28,2.4,14.376,3.423,21.479a63.936,63.936,0,0,1,.513,13.093s-.45,3.743-.419,4.4c.114,2.376,1.575,1.862,1.256,5.763-.064.782-.143.686-.2,1.632-.109,1.725-.937,4.9.505,6.851.95,1.283,8.131,7.875,8.563,9.175.671,2.014.362,3.993,1.732,5.38s2.2,1.619,2.957,2.917,1.8,1.805,3.642,1.841a2.406,2.406,0,0,0,2.511-2.3,3.962,3.962,0,0,0-1.357-2.212,5.516,5.516,0,0,1-.975-1.7" transform="translate(-102.965 -318.737)" fill="none" stroke="#161615" stroke-miterlimit="10" stroke-width="0.591"/>
        <path id="Path_471" data-name="Path 471" d="M248.522,775.376a3.084,3.084,0,0,1,1.125,1.3c.385.866.706,1,.8,1.672s.194,1.8-.955,1.99" transform="translate(-147.664 -431.932)" fill="none" stroke="#161615" stroke-linecap="round" stroke-miterlimit="10" stroke-width="0.591"/>
        <path id="Path_472" data-name="Path 472" d="M245.462,778.167a12.44,12.44,0,0,1,1.919,2.054c.548.878,1.151,1.92.932,2.44a1.416,1.416,0,0,1-1.125.85,1.275,1.275,0,0,1-.825-.138" transform="translate(-146.377 -433.106)" fill="none" stroke="#161615" stroke-linecap="round" stroke-miterlimit="10" stroke-width="0.591"/>
        <path id="Path_473" data-name="Path 473" d="M240.906,779.4s1.015,1.152,1.782,2.193,1.382,1.782,1.37,2.3a1.332,1.332,0,0,1-1.205,1.263c-.96.136-1.262.217-1.946-.248a3.409,3.409,0,0,1-.932-.859" transform="translate(-144.068 -433.624)" fill="none" stroke="#161615" stroke-linecap="round" stroke-miterlimit="10" stroke-width="0.591"/>
        <path id="Path_474" data-name="Path 474" d="M106.992,525.232s-.388.295-.882-.235c-.318-.34-.239-.835.049-1.791a5.373,5.373,0,0,1,1.009-2.132,17.654,17.654,0,0,1,2.213-2.3c2.6-1.866,10.4-9.154,10.978-11.307s2.085-6.238,2.6-8.342a28.648,28.648,0,0,0,.445-5.728c-.342-4.938-2.405-11.25-4.2-22.148a161.867,161.867,0,0,1-1.2-32.951c.6-6.045-.085-11.665-1.712-19.754s-5.563-17.71-7.275-26.906-3.252-24.437-2.4-32.526a227,227,0,0,1,4.45-28.438,56.1,56.1,0,0,0,1.283-21.883c-.6-6.045-2.111-13.888-2.111-13.888a14.7,14.7,0,0,0-1.483,6.4,59.355,59.355,0,0,1-1.283,10.813c-.77,4.513-1.027,10.473-2.652,17.537S98.67,348.3,97.3,351.876c0,0-2.279,5.722-1.555,8.929a11.921,11.921,0,0,1,.566,2.644A38.2,38.2,0,0,1,95.829,373c-.338,1.393-.218,2.095.127,6.063.322,3.7,1.65,6.923-.141,7.334-1.106.254-1.542-3.06-2-5.2-.525-2.45-1.157-4.522-1.481-4.619-.855-.254-.289,3.834-.138,6.76.169,3.26.385,5.925-1.061,5.948-1.153.019-1.622-.7-1.673-2.216-.085-2.537-.579-10.3-1.329-10.11s-1.036,3.525-1.253,6.165-.165,7.075-2.175,6.716c-1.473-.26-1.01-3.388-.935-6.194s.532-7.6-.15-7.921-1.6,3.416-2.314,5.69-.861,4.925-2.413,4.575c-1.1-.246-1.009-2.537-.6-4.035s.75-3.338,1.39-5.494a31.323,31.323,0,0,0,1.173-7.2c-.057-1.378-1.425-.416-2.418,1.529s-1.985,3.476-3.089,3.46-1.239-1.335-.442-2.725c.714-1.247,1.05-3.259,2.984-6.763,1.608-2.91,3.132-3.24,4.679-4.738,3.55-3.437,3.607-10.788,3.607-10.788.257-4.938.6-17.8.513-22.137s1.54-10.3,2.475-13.88.088-8.514,0-13.623,1.54-17.114,1.112-23.841-.428-13.283-.428-13.283c0-.143.006-.285.013-.425a19.614,19.614,0,0,1,8.545-15.157c3.509-2.272,7.017-2.98,11.723-5.023s12.836-4.513,16.858-6.471,3.341-9.225,3.28-11.353a8.27,8.27,0,0,1-1.826-3.391,41.829,41.829,0,0,0-1.54-4.073,4.37,4.37,0,0,1-.693.025c-.687-.067-.9-.475-1.208-1.217-.413-1-.279-2.187-.864-3.551-1.131-2.639-1.921-5.836-.56-6.422a1.477,1.477,0,0,1,1.283.042s-.9-13.9,2.4-18.945c4.5-6.866,13.1-7.047,15.13-7.047s10.5.178,15.006,7.045c3.305,5.042,2.4,18.945,2.4,18.945a1.474,1.474,0,0,1,1.283-.042c1.361.585.571,3.783-.56,6.418-.586,1.366-.45,2.551-.864,3.552-.307.743-.525,1.151-1.208,1.217a4.381,4.381,0,0,1-.693-.025s-.924,2.28-1.54,4.072a10.654,10.654,0,0,1-1.822,3.416l-.035.856c-.061,2.128-.742,8.516,3.28,10.475s11.467,4.428,16.173,6.471,8.277,2.66,11.723,5.023a19.891,19.891,0,0,1,8.545,15.157c.006.14.01.283.012.425,0,0,0,6.557-.428,13.283s1.2,18.731,1.113,23.841-.935,10.048,0,13.623,2.563,9.536,2.475,13.88.508,22.231.508,22.231.062,7.351,3.612,10.788c1.547,1.5,3.075,1.826,4.679,4.739,1.935,3.5,2.27,5.516,2.985,6.763.8,1.389.661,2.712-.444,2.725s-2.093-1.513-3.09-3.46-2.361-2.907-2.418-1.528a31.252,31.252,0,0,0,1.172,7.2c.642,2.155.979,4,1.39,5.494s.5,3.789-.6,4.034c-1.551.35-1.7-2.305-2.413-4.575s-1.63-6.013-2.314-5.689-.225,5.117-.15,7.92.538,5.932-.935,6.194c-2.013.356-1.963-4.077-2.175-6.716s-.5-5.97-1.254-6.165-1.243,7.577-1.329,10.111c-.049,1.52-.519,2.234-1.672,2.215-1.446-.022-1.231-2.687-1.062-5.947.15-2.925.718-7.015-.137-6.76-.326.1-.958,2.17-1.482,4.619-.459,2.143-.894,5.459-2,5.205-1.79-.411-.464-3.635-.141-7.334.345-3.969.465-4.669.127-6.063a38.17,38.17,0,0,1-.482-9.552,11.906,11.906,0,0,1,.566-2.644c.724-3.209-1.555-9.023-1.555-9.023-1.37-3.576-5.9-15.156-7.529-22.223s-1.882-13.027-2.653-17.537a59.325,59.325,0,0,1-1.283-10.813,16.714,16.714,0,0,0-1.65-6.85s-1.342,8.3-1.941,14.342a56.074,56.074,0,0,0,1.283,21.883,227.009,227.009,0,0,1,4.45,28.438c.856,8.089-.685,23.33-2.4,32.526s-5.648,18.817-7.275,26.906-2.31,13.708-1.711,19.754a161.537,161.537,0,0,1-1.2,32.951c-1.8,10.9-3.86,17.21-4.2,22.148a28.6,28.6,0,0,0,.445,5.728c.519,2.1,2.025,6.188,2.6,8.342s8.383,9.441,10.98,11.307a17.651,17.651,0,0,1,2.213,2.3,5.389,5.389,0,0,1,1.009,2.132c.288.956.368,1.451.049,1.791-.493.53-.882.235-.882.235" transform="translate(-74.399 -179.458)" fill="none" stroke="#161615" stroke-linecap="round" stroke-linejoin="round" stroke-width="0.591"/>
        <path id="Path_475" data-name="Path 475" d="M179,491.209s4.3,8.672,6.993,8.672c2.678,0,6.994-8.672,6.994-8.672" transform="translate(-118.411 -311.536)" fill="none" stroke="#161615" stroke-linecap="round" stroke-linejoin="round" stroke-width="0.591"/>
        <path id="Path_476" data-name="Path 476" d="M193.7,387.581c-3.583-2.61-5.056-13.976-7.163-18.655-.563-1.25-.617,1.765-1.875,1.765-1.307,0-1.342-3.008-1.97-1.748-2.371,4.776-4.465,16.442-8.127,18.638" transform="translate(-116.545 -259.617)" fill="none" stroke="#161615" stroke-linecap="round" stroke-linejoin="round" stroke-width="0.591"/>
        <path id="Path_477" data-name="Path 477" d="M192,281.367c-1.294.7-1.622,4.341-2.573,4.341s-1.556-3.758-2.873-4.341" transform="translate(-121.589 -222.336)" fill="none" stroke="#161615" stroke-linecap="round" stroke-linejoin="round" stroke-width="0.591"/>
        <path id="Path_478" data-name="Path 478" d="M197.678,292.328a14.193,14.193,0,0,1,6.027-1.05c2.228,0,8.862,1.05,8.862,1.05" transform="translate(-126.271 -226.506)" fill="none" stroke="#161615" stroke-linecap="round" stroke-linejoin="round" stroke-width="0.591"/>
        <path id="Path_479" data-name="Path 479" d="M174.011,292.328a14.205,14.205,0,0,0-6.027-1.05c-2.228,0-8.863,1.05-8.863,1.05" transform="translate(-110.048 -226.506)" fill="none" stroke="#161615" stroke-linecap="round" stroke-linejoin="round" stroke-width="0.591"/>
        <path id="Path_480" data-name="Path 480" d="M198.377,349.535a14.475,14.475,0,0,0,23.317,0" transform="translate(-126.565 -251.509)" fill="none" stroke="#161615" stroke-linecap="round" stroke-linejoin="round" stroke-width="0.591"/>
        <path id="Path_481" data-name="Path 481" d="M143.507,349.535a14.475,14.475,0,0,0,23.317,0" transform="translate(-103.478 -251.509)" fill="none" stroke="#161615" stroke-linecap="round" stroke-linejoin="round" stroke-width="0.591"/>
        <path id="Path_482" data-name="Path 482" d="M191.172,443.342a1.747,1.747,0,0,1-2.55.436,1.787,1.787,0,0,1,.363-2.609,1.292,1.292,0,0,1,1.84.466" transform="translate(-122.289 -290.235)" fill="none" stroke="#161615" stroke-linecap="round" stroke-linejoin="round" stroke-width="0.591"/>
        <path id="Path_483" data-name="Path 483" d="M170.967,256.74c1.884,2.312,6.566,7.287,11.971,7.287,5.753,0,10.425-5.069,12.182-7.368" transform="translate(-115.032 -211.94)" fill="none" stroke="#161615" stroke-linecap="round" stroke-miterlimit="10" stroke-width="0.591"/>
        <path id="Path_484" data-name="Path 484" d="M192.233,241.213a1.554,1.554,0,0,1-.165,1.1c-.365.548-.986.35-1.474.4s-.7.7-1.637.7-1.151-.656-1.639-.7-1.108.15-1.475-.4a1.554,1.554,0,0,1-.164-1.1" transform="translate(-121.208 -205.441)" fill="none" stroke="#161615" stroke-linecap="round" stroke-linejoin="round" stroke-width="0.591"/>
        <path id="Path_485" data-name="Path 485" d="M192.616,252.051a2.605,2.605,0,0,1-1.645.154,8.367,8.367,0,0,0-1.7-.475c-.332,0-.886.48-1.215.48h-.049c-.329,0-.883-.48-1.215-.48a8.369,8.369,0,0,0-1.7.475,2.6,2.6,0,0,1-1.645-.154" transform="translate(-120.285 -209.866)" fill="none" stroke="#161615" stroke-linecap="round" stroke-linejoin="round" stroke-width="0.591"/>
        <path id="Path_486" data-name="Path 486" d="M187.742,255.368a4.083,4.083,0,0,0,2.206.75,3.307,3.307,0,0,0,2.047-.75" transform="translate(-122.09 -211.397)" fill="none" stroke="#161615" stroke-linecap="round" stroke-linejoin="round" stroke-width="0.591"/>
        <path id="Path_487" data-name="Path 487" d="M190.315,249.7a1.058,1.058,0,0,0,.649.286.954.954,0,0,0,.624-.286" transform="translate(-123.173 -209.011)" fill="none" stroke="#161615" stroke-linecap="round" stroke-linejoin="round" stroke-width="0.591"/>
        <path id="Path_488" data-name="Path 488" d="M172.2,224.854a10.43,10.43,0,0,1,2.909-1.375c2.076-.525,3.924,1.275,3.924,1.275" transform="translate(-115.549 -197.938)" fill="none" stroke="#161615" stroke-linecap="round" stroke-linejoin="round" stroke-width="0.591"/>
        <path id="Path_489" data-name="Path 489" d="M178.1,217.187a10.078,10.078,0,0,0-3.791-1.265,7.425,7.425,0,0,0-5.241,1.964,19.028,19.028,0,0,1,4.675-1.421c2.078-.235,3.566,1.295,4.136,1.629s.675-.663.22-.907" transform="translate(-114.233 -194.798)" fill="#171716"/>
        <path id="Path_490" data-name="Path 490" d="M178.1,217.187a10.078,10.078,0,0,0-3.791-1.265,7.425,7.425,0,0,0-5.241,1.964,19.028,19.028,0,0,1,4.675-1.421c2.078-.235,3.566,1.295,4.136,1.629S178.559,217.431,178.1,217.187Z" transform="translate(-114.233 -194.798)" fill="none" stroke="#161615" stroke-miterlimit="10" stroke-width="0.591"/>
        <path id="Path_491" data-name="Path 491" d="M179.285,225.716a.349.349,0,0,0,.155-.039.582.582,0,0,1-.174.034Z" transform="translate(-118.523 -198.903)" fill="none" stroke="#161615" stroke-miterlimit="10" stroke-width="0.591"/>
        <path id="Path_492" data-name="Path 492" d="M178.367,223.652c-.237-.058-.484-.107-.743-.145a3.707,3.707,0,0,0-1.65.146,1.436,1.436,0,0,0-.375.959,1.575,1.575,0,0,0,3.15,0,1.435,1.435,0,0,0-.375-.96m-.47,1.1a.349.349,0,0,1-.155.039l-.019,0c-.007,0-.013,0-.019,0a.592.592,0,1,1,.194-.039" transform="translate(-116.981 -197.976)" fill="#171716"/>
        <path id="Path_493" data-name="Path 493" d="M178.367,223.652c-.237-.058-.484-.107-.743-.145a3.707,3.707,0,0,0-1.65.146,1.436,1.436,0,0,0-.375.959,1.575,1.575,0,0,0,3.15,0A1.435,1.435,0,0,0,178.367,223.652Zm-.47,1.1a.35.35,0,0,1-.155.039l-.019,0c-.007,0-.013,0-.019,0a.592.592,0,1,1,.194-.039Z" transform="translate(-116.981 -197.976)" fill="none" stroke="#161615" stroke-miterlimit="10" stroke-width="0.591"/>
        <path id="Path_494" data-name="Path 494" d="M204.978,224.854a10.428,10.428,0,0,0-2.909-1.375c-2.077-.525-3.924,1.275-3.924,1.275" transform="translate(-126.467 -197.938)" fill="none" stroke="#161615" stroke-linecap="round" stroke-linejoin="round" stroke-width="0.591"/>
        <path id="Path_495" data-name="Path 495" d="M197.27,217.187a10.078,10.078,0,0,1,3.79-1.265,7.425,7.425,0,0,1,5.241,1.964,19.028,19.028,0,0,0-4.676-1.421c-2.077-.236-3.566,1.294-4.136,1.629s-.675-.663-.22-.907" transform="translate(-125.98 -194.798)" fill="#171716"/>
        <path id="Path_496" data-name="Path 496" d="M197.27,217.187a10.078,10.078,0,0,1,3.79-1.265,7.425,7.425,0,0,1,5.241,1.964,19.028,19.028,0,0,0-4.676-1.421c-2.078-.236-3.566,1.294-4.136,1.629S196.811,217.431,197.27,217.187Z" transform="translate(-125.979 -194.798)" fill="none" stroke="#161615" stroke-miterlimit="10" stroke-width="0.591"/>
        <path id="Path_497" data-name="Path 497" d="M202.726,225.716a.349.349,0,0,1-.155-.039.583.583,0,0,0,.174.034Z" transform="translate(-128.33 -198.903)" fill="none" stroke="#161615" stroke-miterlimit="10" stroke-width="0.591"/>
        <path id="Path_498" data-name="Path 498" d="M201.107,224.612a1.575,1.575,0,0,0,3.145,0,1.434,1.434,0,0,0-.375-.959,3.7,3.7,0,0,0-1.65-.146c-.259.038-.507.088-.744.145a1.436,1.436,0,0,0-.375.96m.468-.4a.574.574,0,1,1,.574.574h-.038a.352.352,0,0,1-.155-.039.569.569,0,0,1-.38-.535" transform="translate(-127.713 -197.976)" fill="#171716"/>
        <path id="Path_499" data-name="Path 499" d="M201.107,224.612a1.575,1.575,0,0,0,3.145,0,1.434,1.434,0,0,0-.375-.959,3.7,3.7,0,0,0-1.65-.146c-.259.038-.507.088-.744.145a1.436,1.436,0,0,0-.376.961Zm.468-.4a.574.574,0,1,1,.574.574h-.038a.352.352,0,0,1-.155-.039.569.569,0,0,1-.38-.535Z" transform="translate(-127.713 -197.976)" fill="none" stroke="#161615" stroke-miterlimit="10" stroke-width="0.591"/>
        <path id="Path_500" data-name="Path 500" d="M163.819,351.164a.656.656,0,1,1-.643-.525A.591.591,0,0,1,163.819,351.164Z" transform="translate(-111.481 -251.971)" fill="none" stroke="#161615" stroke-miterlimit="10" stroke-width="0.591"/>
        <path id="Path_501" data-name="Path 501" d="M218.646,351.164a.656.656,0,1,1-.642-.525.591.591,0,0,1,.642.525Z" transform="translate(-134.551 -251.971)" fill="none" stroke="#161615" stroke-miterlimit="10" stroke-width="0.591"/>
        <path id="Path_502" data-name="Path 502" d="M131.434,338.293c.7,1.281,2.867,24.3,2.867,24.3" transform="translate(-98.398 -246.772)" fill="none" stroke="#161615" stroke-linecap="round" stroke-linejoin="round" stroke-width="0.591"/>
        <path id="Path_503" data-name="Path 503" d="M245.331,362.589s2.167-23.014,2.867-24.3" transform="translate(-146.322 -246.772)" fill="none" stroke="#161615" stroke-linecap="round" stroke-linejoin="round" stroke-width="0.591"/>
        <path id="Path_504" data-name="Path 504" d="M142.165,441.771c.022-.591,8.014-.339,13.085,10.457" transform="translate(-102.913 -290.518)" fill="none" stroke="#161615" stroke-linecap="round" stroke-linejoin="round" stroke-width="0.591"/>
        <path id="Path_505" data-name="Path 505" d="M231.329,441.771c-.023-.591-8.014-.339-13.085,10.457" transform="translate(-134.924 -290.518)" fill="none" stroke="#161615" stroke-linecap="round" stroke-linejoin="round" stroke-width="0.591"/>
        <path id="Path_506" data-name="Path 506" d="M160.121,632.89a7.114,7.114,0,0,0,6.862,0" transform="translate(-110.468 -371.533)" fill="none" stroke="#161615" stroke-linecap="round" stroke-linejoin="round" stroke-width="0.591"/>
        <path id="Path_507" data-name="Path 507" d="M210.123,632.89a7.114,7.114,0,0,0,6.862,0" transform="translate(-131.507 -371.533)" fill="none" stroke="#161615" stroke-linecap="round" stroke-linejoin="round" stroke-width="0.591"/>
      </g>
    </g>
  </g>
</svg>
