<svg xmlns="http://www.w3.org/2000/svg" xmlns:xlink="http://www.w3.org/1999/xlink" width="278" height="480" viewBox="0 0 278 480">
  <defs>
    <clipPath id="clip-Kropp-bak">
      <rect width="278" height="480"/>
    </clipPath>
  </defs>
  <g id="Kropp-bak" clip-path="url(#clip-Kropp-bak)">
    <rect width="278" height="480" fill="rgba(0,0,0,0)"/>
    <g id="Kropp-bak-2" data-name="Kropp-bak" transform="translate(57.988 4.996)">
      <path id="Path_508" data-name="Path 508" d="M427.68,576.956c1.369-9.265,3.994-21.768,4.564-28.019s-1.939-18.642-1.6-26.456,1.255-24.67,1.141-30.809,3.081-16.075,3.2-24.894.362-11.766.887-21.081c.5-8.862,1.052-16.872,1.052-16.872s.42-.806.708,0c0,0,.782,10.6,1.219,17.627.567,9.1.6,11.317.721,20.326.114,8.819,3.309,18.754,3.194,24.894s.8,22.992,1.141,30.809-2.168,20.205-1.6,26.456,4.569,28.17,4.569,28.17c1.369,9.265.429,14.277.164,15.347a29.348,29.348,0,0,0-1.294,4.708c-.342,3.816.752,6.164.856,7.591s-.4,4.761,0,9.693.857,14.555,0,16.788-2.567,5.023-2.339,7.813-.163,7.729,0,8.931c.229,1.674.687,2.79,2.339,2.9s2.966-.546,2.966-1.674v-2.68s-.171,3.685,2.339,3.685c.867,0,1.956-.459,2.131-.93a7.529,7.529,0,0,0,.266-2.53,3.94,3.94,0,0,0,.74,1.95c.571.783,2.165.37,2.568,0,.8-.732.574-2.5.609-2.946s.07,1.654,1.445,1.654a2.067,2.067,0,0,0,2.168-1.384,10.091,10.091,0,0,0-.057-2.233s.59,1.321,1.807.875c.629-.232,1.206-.325,1.257-1.781.055-1.55-.244-2.107.324-2.778.453-.536.713-2.511-.568-7.424s-1.622-17.1-2.878-21.681-1.608-3.131-.918-5.806.108-3.237,0-6.585,4.438-20.316,6.834-34.6,2.4-35.275,1.6-43.2.114-15.293,2.281-25.9,7.417-23.219,9.7-35.274,4.335-32.038,3.194-42.642a293,293,0,0,0-5.933-37.284c-3.309-13.953-2.51-20.763-1.711-28.689s2.586-18.8,2.586-18.8a21.6,21.6,0,0,1,2.206,8.98c0,4.8.684,8.26,1.711,14.177s1.369,13.73,3.536,22.992,8.214,24.447,10.039,29.135c0,0,3.039,7.625,2.075,11.829a15.41,15.41,0,0,0-.755,3.466c-.223,3.788-.181,9.189.643,12.523.451,1.827.29,2.746-.17,7.949-.429,4.85-2.2,9.076.189,9.615,1.474.334,2.054-4.011,2.665-6.822.7-3.211,1.542-5.929,1.975-6.057,1.141-.331.387,5.027.184,8.862-.226,4.275-.513,7.767,1.416,7.8,1.537.024,2.163-.911,2.229-2.9.114-3.326.773-13.506,1.772-13.256s1.384,4.622,1.672,8.082.219,9.275,2.9,8.805c1.965-.342,1.346-4.443,1.248-8.12s-.709-9.959.2-10.383,2.135,4.478,3.085,7.458,1.147,6.457,3.217,6c1.467-.321,1.345-3.326.795-5.29s-1-4.377-1.854-7.2a40.29,40.29,0,0,1-1.564-9.443c.077-1.807,1.9-.546,3.224,2s2.648,4.558,4.12,4.537,1.653-1.751.591-3.572c-.954-1.634-1.4-4.273-3.978-8.865-2.146-3.816-4.177-4.249-6.24-6.213-4.733-4.506-4.815-14.144-4.815-14.144s-.794-23.453-.68-29.146-2.054-13.507-3.3-18.2-.119-11.162-.005-17.86-2.053-22.423-1.483-31.242.57-17.415.57-17.415c0-.186-.006-.372-.015-.558a25.977,25.977,0,0,0-11.394-19.87c-4.594-3.1-9.354-3.907-15.629-6.585s-16.2-5.916-21.565-8.484-4.454-10.943-4.374-13.731l.046-1.123a13.869,13.869,0,0,0,2.429-4.478c.82-2.348,2.053-5.339,2.053-5.339a6.039,6.039,0,0,0,.924.033c.917-.088,1.2-.623,1.612-1.6.551-1.313.371-2.867,1.151-4.657,1.508-3.46,2.562-7.651.746-8.414a2,2,0,0,0-1.711.055s1.207-18.227-3.2-24.838c-6-9-17.3-9.237-20.009-9.237s-14.17.235-20.173,9.239c-4.407,6.61-3.2,24.838-3.2,24.838a2,2,0,0,0-1.711-.055c-1.816.768-.761,4.959.747,8.419.779,1.789.6,3.344,1.152,4.656.408.973.694,1.508,1.609,1.6a5.965,5.965,0,0,0,.925-.033,54.121,54.121,0,0,1,2.053,5.34c1.12,3.689,2.422,4.034,2.435,4.446.081,2.789.989,12.317-4.374,14.884s-16.2,5.8-22.477,8.484-10.953,3.608-15.632,6.585A25.628,25.628,0,0,0,367.8,289.737q-.011.279-.016.558s0,8.6.571,17.415-1.6,24.557-1.484,31.256,1.246,13.173,0,17.86-3.418,12.5-3.3,18.2-.342,22.548-.684,29.022c0,0-.076,9.638-4.81,14.143-2.061,1.964-4.094,2.394-6.239,6.212-2.578,4.593-3.027,7.231-3.98,8.866-1.06,1.821-.88,3.553.592,3.572s2.792-1.984,4.119-4.536,3.148-3.816,3.224-2.006a40.44,40.44,0,0,1-1.563,9.444c-.856,2.826-1.3,5.236-1.854,7.2s-.671,4.969.8,5.29c2.07.459,2.269-3.023,3.217-6s2.174-7.882,3.085-7.458.3,6.708.2,10.384-.717,7.777,1.248,8.12c2.683.469,2.617-5.344,2.9-8.805s.67-7.827,1.671-8.082,1.658,9.933,1.772,13.255c.066,1.993.693,2.929,2.229,2.906,1.928-.029,1.642-3.522,1.416-7.8-.2-3.835-.958-9.2.183-8.862.434.126,1.277,2.843,1.976,6.055.611,2.808,1.191,7.157,2.665,6.824,2.386-.539.618-4.767.189-9.615-.46-5.2-.621-6.122-.169-7.949.823-3.337.867-8.737.643-12.523a15.532,15.532,0,0,0-.755-3.466c-.965-4.207,2.074-11.706,2.074-11.706,1.826-4.688,7.873-19.87,10.04-29.135s2.511-17.079,3.537-22.992S393,346,393,341.2a19,19,0,0,1,1.978-8.385s2.016,10.283,2.814,18.207,1.6,14.735-1.711,28.689a292.994,292.994,0,0,0-5.933,37.284c-1.141,10.6.913,30.586,3.194,42.642s7.531,24.67,9.7,35.274,3.08,17.972,2.281,25.9-.8,28.912,1.6,43.2" transform="translate(-347.17 -181.468)" fill="none" stroke="#161615" stroke-linecap="round" stroke-linejoin="round" stroke-width="0.591"/>
      <path id="Path_509" data-name="Path 509" d="M478.289,745.5s.96-4.165,4.918-4.165c3.037,0,5.118,4.944,5.118,4.944" transform="translate(-377.024 -319.323)" fill="none" stroke="#161615" stroke-linecap="round" stroke-linejoin="round" stroke-width="0.591"/>
      <path id="Path_510" data-name="Path 510" d="M475.253,792.789a9.815,9.815,0,0,0,3.48,1.618c2,.456,4.549-.174,7.471-1.434a12.517,12.517,0,0,0,4.413-2.824" transform="translate(-376.333 -330.436)" fill="none" stroke="#161615" stroke-linecap="round" stroke-linejoin="round" stroke-width="0.591"/>
      <path id="Path_511" data-name="Path 511" d="M445.294,700.971c-1.369,9.47-.521,14.747-.255,15.84a30.593,30.593,0,0,1,1.294,4.812c.342,3.9-.753,6.3-.857,7.759s.4,4.866,0,9.907-.856,14.877,0,17.159,2.569,5.134,2.34,7.986.163,7.9,0,9.128c-.228,1.712-.686,2.852-2.34,2.967s-2.966-.558-2.966-1.712v-2.738s.171,3.766-2.339,3.766c-.867,0-1.955-.469-2.13-.951a7.812,7.812,0,0,1-.266-2.586,4.074,4.074,0,0,1-.741,1.993c-.571.8-2.163.378-2.566,0-.8-.748-.575-2.554-.609-3.01s-.07,1.691-1.444,1.691a2.065,2.065,0,0,1-2.168-1.415,10.548,10.548,0,0,1,.056-2.282s-.59,1.35-1.806.894c-.631-.237-1.206-.332-1.258-1.82-.056-1.584.065-1.808-.073-3.092-.2-1.906-.963-2.314.317-7.335s1.623-17.482,2.878-22.16,1.608-3.2.918-5.934-.11-3.309,0-6.731-4.353-20.765-6.749-35.37" transform="translate(-364.784 -307.118)" fill="none" stroke="#161615" stroke-linecap="round" stroke-linejoin="round" stroke-width="0.591"/>
      <path id="Path_512" data-name="Path 512" d="M446.322,745.5s-.96-4.165-4.918-4.165c-3.037,0-5.118,4.944-5.118,4.944" transform="translate(-367.461 -319.323)" fill="none" stroke="#161615" stroke-linecap="round" stroke-linejoin="round" stroke-width="0.591"/>
      <path id="Path_513" data-name="Path 513" d="M447.787,792.789a9.815,9.815,0,0,1-3.48,1.618c-2,.456-4.549-.174-7.471-1.434a12.518,12.518,0,0,1-4.413-2.824" transform="translate(-366.581 -330.436)" fill="none" stroke="#161615" stroke-linecap="round" stroke-linejoin="round" stroke-width="0.591"/>
      <path id="Path_514" data-name="Path 514" d="M466.892,286.537a1.828,1.828,0,0,1-1.656,1.953h-3.19a1.828,1.828,0,0,1-1.656-1.953l.168-.853-.168-.851a1.829,1.829,0,0,1,1.656-1.955h3.19c1.376.219,2.236,1.152,1.656,1.955l-.154.851Z" transform="translate(-372.949 -204.558)" fill="none" stroke="#161615" stroke-linecap="round" stroke-linejoin="round" stroke-width="0.411"/>
      <path id="Path_515" data-name="Path 515" d="M466.892,295.354c0,1.075-.745,2.725-1.656,2.725h-3.19c-.911,0-1.656-1.65-1.656-2.725l.168-.853-.168-1.623a1.829,1.829,0,0,1,1.656-1.955h3.19c1.376.219,2.236,1.152,1.656,1.955l-.154,1.623Z" transform="translate(-372.949 -206.39)" fill="none" stroke="#161615" stroke-linecap="round" stroke-linejoin="round" stroke-width="0.411"/>
      <path id="Path_516" data-name="Path 516" d="M467,309.173a1.456,1.456,0,0,1-1.453,1.452h-3.9a1.456,1.456,0,0,1-1.452-1.452l.487-4.248-.487-1.869a1.456,1.456,0,0,1,1.452-1.452h3.9A1.456,1.456,0,0,1,467,303.056l-.4,1.869Z" transform="translate(-372.905 -210.867)" fill="none" stroke="#161615" stroke-linecap="round" stroke-linejoin="round" stroke-width="0.396"/>
      <path id="Path_517" data-name="Path 517" d="M467.036,319.094a1.641,1.641,0,0,1-1.759,1.474h-3.39a1.64,1.64,0,0,1-1.759-1.474l.107-1.365-.107-1.365a1.64,1.64,0,0,1,1.759-1.474h3.39a1.641,1.641,0,0,1,1.759,1.474l-.143,1.365Z" transform="translate(-372.889 -214.102)" fill="none" stroke="#161615" stroke-linecap="round" stroke-linejoin="round" stroke-width="0.368"/>
      <path id="Path_518" data-name="Path 518" d="M467.036,328.187a1.641,1.641,0,0,1-1.759,1.474h-3.39a1.64,1.64,0,0,1-1.759-1.474l.139-1.365-.139-1.365a1.64,1.64,0,0,1,1.759-1.474h3.39a1.641,1.641,0,0,1,1.759,1.474l-.143,1.365Z" transform="translate(-372.889 -216.326)" fill="none" stroke="#161615" stroke-linecap="round" stroke-linejoin="round" stroke-width="0.368"/>
      <path id="Path_519" data-name="Path 519" d="M467.036,336.733a1.641,1.641,0,0,1-1.759,1.474h-3.39a1.64,1.64,0,0,1-1.759-1.474l.155-1.365L460.127,334a1.64,1.64,0,0,1,1.759-1.474h3.39a1.641,1.641,0,0,1,1.76,1.474l-.175,1.365Z" transform="translate(-372.889 -218.417)" fill="none" stroke="#161615" stroke-linecap="round" stroke-linejoin="round" stroke-width="0.368"/>
      <path id="Path_520" data-name="Path 520" d="M467.036,346.279c-.049,1.1-.87,1.917-1.759,1.474h-3.39a1.64,1.64,0,0,1-1.759-1.474l.155-1.365-.155-1.365a1.64,1.64,0,0,1,1.759-1.474h3.39a1.641,1.641,0,0,1,1.759,1.474l-.11,1.365Z" transform="translate(-372.889 -220.753)" fill="none" stroke="#161615" stroke-linecap="round" stroke-linejoin="round" stroke-width="0.368"/>
      <path id="Path_521" data-name="Path 521" d="M467.036,355.825a1.641,1.641,0,0,1-1.759,1.474h-3.39a1.64,1.64,0,0,1-1.759-1.474l.155-1.365-.155-1.364a1.64,1.64,0,0,1,1.759-1.474h3.39a1.641,1.641,0,0,1,1.759,1.474l-.192,1.364Z" transform="translate(-372.889 -223.086)" fill="none" stroke="#161615" stroke-linecap="round" stroke-linejoin="round" stroke-width="0.368"/>
      <path id="Path_522" data-name="Path 522" d="M467.036,365.374a1.641,1.641,0,0,1-1.759,1.474h-3.39a1.64,1.64,0,0,1-1.759-1.474l.123-1.365-.123-1.3a1.644,1.644,0,0,1,1.759-1.534h3.39a1.64,1.64,0,0,1,1.759,1.473l-.127,1.366Z" transform="translate(-372.889 -225.422)" fill="none" stroke="#161615" stroke-linecap="round" stroke-linejoin="round" stroke-width="0.368"/>
      <path id="Path_523" data-name="Path 523" d="M467.036,375.461a1.641,1.641,0,0,1-1.759,1.474h-3.39a1.64,1.64,0,0,1-1.759-1.474l.123-2.91-.123-1.364a1.64,1.64,0,0,1,1.759-1.474h3.39a1.641,1.641,0,0,1,1.759,1.474l-.159,1.364Z" transform="translate(-372.889 -227.522)" fill="none" stroke="#161615" stroke-linecap="round" stroke-linejoin="round" stroke-width="0.368"/>
      <path id="Path_524" data-name="Path 524" d="M467.036,384.465a1.641,1.641,0,0,1-1.759,1.474h-3.39a1.64,1.64,0,0,1-1.759-1.474l.139-1.22-.139-1.509a1.64,1.64,0,0,1,1.759-1.474h3.39a1.641,1.641,0,0,1,1.759,1.474l-.192,1.509Z" transform="translate(-372.889 -230.092)" fill="none" stroke="#161615" stroke-linecap="round" stroke-linejoin="round" stroke-width="0.368"/>
      <path id="Path_525" data-name="Path 525" d="M467.036,394.556a1.641,1.641,0,0,1-1.759,1.474h-3.39a1.64,1.64,0,0,1-1.759-1.474l.09-1.365-.09-2.911a1.639,1.639,0,0,1,1.759-1.473h3.39a1.64,1.64,0,0,1,1.759,1.473l-.159,2.979Z" transform="translate(-372.889 -232.194)" fill="none" stroke="#161615" stroke-linecap="round" stroke-linejoin="round" stroke-width="0.368"/>
      <path id="Path_526" data-name="Path 526" d="M467.036,403.559a1.641,1.641,0,0,1-1.759,1.474h-3.39a1.64,1.64,0,0,1-1.759-1.474l.139-1.365-.139-1.365a1.64,1.64,0,0,1,1.759-1.474h3.39a1.641,1.641,0,0,1,1.759,1.474l-.094,1.365Z" transform="translate(-372.889 -234.761)" fill="none" stroke="#161615" stroke-linecap="round" stroke-linejoin="round" stroke-width="0.368"/>
      <path id="Path_527" data-name="Path 527" d="M467.036,410.946a1.989,1.989,0,0,1-1.759,2.149h-3.39a1.988,1.988,0,0,1-1.759-2.149l.171-.143-.171-1.455c.039-1.232.809-2.173,1.759-2.15h3.39a1.991,1.991,0,0,1,1.759,2.15L466.828,411Z" transform="translate(-372.889 -236.682)" fill="none" stroke="#161615" stroke-linecap="round" stroke-linejoin="round" stroke-width="0.444"/>
      <path id="Path_528" data-name="Path 528" d="M467.036,419.587a2.1,2.1,0,0,1-1.759,2.316h-3.39a2.1,2.1,0,0,1-1.759-2.316l.221-1.727-.221.589a2.1,2.1,0,0,1,1.759-2.316h3.39a2.1,2.1,0,0,1,1.759,2.316l-.143-.589Z" transform="translate(-372.889 -238.867)" fill="none" stroke="#161615" stroke-linecap="round" stroke-linejoin="round" stroke-width="0.461"/>
      <path id="Path_529" data-name="Path 529" d="M467.55,464.127c1.536-2.849-.229-3.09-1.2-3.089h-6.48c-1.061-.147-2.593.5-1.314,3.089,0,0,.143,1.556,2.124,4.347.78,1.1-1.762,1.077.982,5.312.93,1.434-2.538,1.993.662,5.134.565.555-.165,1.445-.2,2.312a5.815,5.815,0,0,0,.982,3.507,5.731,5.731,0,0,0,1.347-3.507c.028-.819-.808-1.732-.273-2.31,3.218-3.489-.239-3.591.5-5.133,2.433-5.1.084-4.1.778-5.315C467.407,465.076,467.55,464.127,467.55,464.127Z" transform="translate(-372.422 -250.032)" fill="none" stroke="#161615" stroke-linecap="round" stroke-linejoin="round" stroke-width="0.586"/>
      <path id="Path_530" data-name="Path 530" d="M464.34,458.367h-3.39c-.968,0-4.077-.307-4.077-1.582l.271-1.11-.271-.873c0-1.275,3.109-1.82,4.077-1.82h3.39s4.15,0,4.432,1.82l-.27.873.27,1.11S468.457,458.053,464.34,458.367Z" transform="translate(-372.148 -247.876)" fill="none" stroke="#161615" stroke-linecap="round" stroke-linejoin="round" stroke-width="0.461"/>
      <path id="Path_531" data-name="Path 531" d="M464.445,450.621H461.37c-.878,0-3.7-.27-3.7-1.39l.246-.975-.246-.766c0-1.12,2.82-1.6,3.7-1.6h3.075s3.764,0,4.02,1.6l-.246.766.246.975S468.18,450.344,464.445,450.621Z" transform="translate(-372.33 -246.135)" fill="none" stroke="#161615" stroke-linecap="round" stroke-linejoin="round" stroke-width="0.412"/>
      <path id="Path_532" data-name="Path 532" d="M464.445,443.57H461.37c-.878,0-3.7-.27-3.7-1.39l.246-.975-.246-.766c0-1.12,2.82-1.6,3.7-1.6h3.075s3.764,0,4.02,1.6l-.246.766.246.975S468.18,443.294,464.445,443.57Z" transform="translate(-372.33 -244.411)" fill="none" stroke="#161615" stroke-linecap="round" stroke-linejoin="round" stroke-width="0.412"/>
      <path id="Path_533" data-name="Path 533" d="M464.235,436.452h-2.712c-.774,0-3.26-.269-3.26-1.39l.216-.975-.216-.766c0-1.12,2.486-1.6,3.26-1.6h2.712s3.319,0,3.544,1.6l-.216.766.216.975S467.528,436.176,464.235,436.452Z" transform="translate(-372.465 -242.67)" fill="none" stroke="#161615" stroke-linecap="round" stroke-linejoin="round" stroke-width="0.387"/>
      <path id="Path_534" data-name="Path 534" d="M464.25,429.4h-2.559c-.731,0-3.078-.27-3.078-1.39l.2-.975-.2-.766c0-1.12,2.346-1.6,3.078-1.6h2.559s3.132,0,3.345,1.6l-.2.766.2.975S467.359,429.128,464.25,429.4Z" transform="translate(-372.545 -240.947)" fill="none" stroke="#161615" stroke-linecap="round" stroke-linejoin="round" stroke-width="0.376"/>
      <path id="Path_535" data-name="Path 535" d="M466.82,278.041a1.609,1.609,0,0,1-1.6,1.6h-3.089a1.608,1.608,0,0,1-1.6-1.6l.067-.386-.067-.266c0-.884.721-3.923,1.6-3.923h3.089c.882,0,1.6,3.039,1.6,3.923l-.1.326Z" transform="translate(-372.979 -202.415)" fill="none" stroke="#161615" stroke-linecap="round" stroke-linejoin="round" stroke-width="0.366"/>
      <path id="Path_536" data-name="Path 536" d="M466.82,268.07a1.609,1.609,0,0,1-1.6,1.6h-3.089a1.608,1.608,0,0,1-1.6-1.6l.055-.222-.055-2.539a1.609,1.609,0,0,1,1.6-1.6h3.089a1.609,1.609,0,0,1,1.6,1.6l-.052,2.539Z" transform="translate(-372.979 -200.193)" fill="none" stroke="#161615" stroke-linecap="round" stroke-linejoin="round" stroke-width="0.366"/>
      <path id="Path_537" data-name="Path 537" d="M466.82,259.581a1.609,1.609,0,0,1-1.6,1.6h-3.089a1.608,1.608,0,0,1-1.6-1.6l.055-.154-.055-.154c0-.883.721-2.377,1.6-2.377h3.089c.882,0,1.6,1.494,1.6,2.377l-.064.154Z" transform="translate(-372.979 -198.642)" fill="none" stroke="#161615" stroke-linecap="round" stroke-linejoin="round" stroke-width="0.366"/>
      <path id="Path_538" data-name="Path 538" d="M466.391,253.66a1.3,1.3,0,0,1-1.294,1.294h-2.491a1.3,1.3,0,0,1-1.294-1.294l.044-.124-.044-.124c0-.712.582-1.918,1.294-1.918H465.1c.711,0,1.294,1.206,1.294,1.918l-.052.124Z" transform="translate(-373.159 -197.412)" fill="none" stroke="#161615" stroke-linecap="round" stroke-linejoin="round" stroke-width="0.366"/>
      <path id="Path_539" data-name="Path 539" d="M434.3,226.567s.246,3.407,1.019,7.859a46.892,46.892,0,0,0,1.7,7.047" transform="translate(-367.009 -191.737)" fill="none" stroke="#161615" stroke-linecap="round" stroke-linejoin="round" stroke-width="0.591"/>
      <path id="Path_540" data-name="Path 540" d="M495.057,232.989a7.621,7.621,0,0,0,.865-4.3.875.875,0,0,0-1.246-.6" transform="translate(-380.756 -192.064)" fill="none" stroke="#161615" stroke-linecap="round" stroke-linejoin="round" stroke-width="0.591"/>
      <path id="Path_541" data-name="Path 541" d="M492.016,242.462s.086.246.694-.018c.54-.233.73-1.934.73-1.934" transform="translate(-380.15 -194.911)" fill="none" stroke="#161615" stroke-linecap="round" stroke-linejoin="round" stroke-width="0.591"/>
      <path id="Path_542" data-name="Path 542" d="M433.531,232.907a7.622,7.622,0,0,1-.865-4.3.875.875,0,0,1,1.246-.6" transform="translate(-366.619 -192.045)" fill="none" stroke="#161615" stroke-linecap="round" stroke-linejoin="round" stroke-width="0.591"/>
      <path id="Path_543" data-name="Path 543" d="M436.541,242.38s-.086.246-.694-.019c-.54-.233-.73-1.934-.73-1.934" transform="translate(-367.195 -194.893)" fill="none" stroke="#161615" stroke-linecap="round" stroke-linejoin="round" stroke-width="0.591"/>
      <path id="Path_544" data-name="Path 544" d="M426.642,498.81s7.343,8.516,15.737,8.516c9.655,0,13.063-3.154,13.063-3.154" transform="translate(-365.265 -259.12)" fill="none" stroke="#161615" stroke-linecap="round" stroke-linejoin="round" stroke-width="0.591"/>
      <path id="Path_545" data-name="Path 545" d="M492.85,498.81s-7.344,8.516-15.737,8.516c-9.656,0-13.062-3.154-13.062-3.154" transform="translate(-373.782 -259.12)" fill="none" stroke="#161615" stroke-linecap="round" stroke-linejoin="round" stroke-width="0.591"/>
      <path id="Path_546" data-name="Path 546" d="M463.933,504.011a27.781,27.781,0,0,0,.2-5.364" transform="translate(-373.756 -259.045)" fill="none" stroke="#161615" stroke-linecap="round" stroke-linejoin="round" stroke-width="0.591"/>
      <path id="Path_547" data-name="Path 547" d="M425.91,351.207c4.221,5.793,12.208,7.517,15.508-.052,4.383-10.054,6.241-32.39,6.32-34.715s-2.089-4.495-6.767-2.669" transform="translate(-365.098 -213.853)" fill="none" stroke="#161615" stroke-linecap="round" stroke-linejoin="round" stroke-width="0.591"/>
      <path id="Path_548" data-name="Path 548" d="M496.358,351.207c-4.221,5.793-12.208,7.517-15.508-.052-4.383-10.054-6.241-32.39-6.32-34.715s2.089-4.495,6.767-2.669" transform="translate(-376.168 -213.853)" fill="none" stroke="#161615" stroke-linecap="round" stroke-linejoin="round" stroke-width="0.591"/>
      <path id="Path_549" data-name="Path 549" d="M389.5,415.8c-1.294.933-3.279,1.819-4.449,1.3s-1.82-2.623-2.237-4.26" transform="translate(-355.287 -238.05)" fill="none" stroke="#161615" stroke-linecap="round" stroke-linejoin="round" stroke-width="0.591"/>
      <path id="Path_550" data-name="Path 550" d="M536.361,415.8c1.294.933,3.279,1.819,4.448,1.3s1.82-2.623,2.238-4.26" transform="translate(-390.247 -238.05)" fill="none" stroke="#161615" stroke-linecap="round" stroke-linejoin="round" stroke-width="0.591"/>
      <path id="Path_551" data-name="Path 551" d="M493.8,226.13a80.76,80.76,0,0,1-.99,8.26,42.1,42.1,0,0,1-1.863,7.262" transform="translate(-379.906 -191.637)" fill="none" stroke="#161615" stroke-linecap="round" stroke-linejoin="round" stroke-width="0.591"/>
      <path id="Path_552" data-name="Path 552" d="M406.221,338.233c.983,13.132,2.086,33.619,2.086,33.619" transform="translate(-360.615 -219.978)" fill="none" stroke="#161615" stroke-linecap="round" stroke-miterlimit="10" stroke-width="0.591"/>
      <path id="Path_553" data-name="Path 553" d="M520.383,338.233c-.983,13.132-2.086,33.619-2.086,33.619" transform="translate(-386.134 -219.978)" fill="none" stroke="#161615" stroke-linecap="round" stroke-miterlimit="10" stroke-width="0.591"/>
      <path id="Path_554" data-name="Path 554" d="M449.217,398.929s-7.2,10.742-31.874,10.742" transform="translate(-363.148 -234.698)" fill="none" stroke="#161615" stroke-linecap="round" stroke-linejoin="round" stroke-width="0.376"/>
      <path id="Path_555" data-name="Path 555" d="M470.6,398.929s7.2,10.742,31.874,10.742" transform="translate(-375.275 -234.698)" fill="none" stroke="#161615" stroke-linecap="round" stroke-linejoin="round" stroke-width="0.376"/>
      <path id="Path_556" data-name="Path 556" d="M446.219,454.674s-10.176-13.356-28.446-13.356" transform="translate(-363.246 -245.098)" fill="none" stroke="#161615" stroke-linecap="round" stroke-linejoin="round" stroke-width="0.376"/>
      <path id="Path_557" data-name="Path 557" d="M473.895,454.674s10.176-13.356,28.446-13.356" transform="translate(-376.024 -245.098)" fill="none" stroke="#161615" stroke-linecap="round" stroke-linejoin="round" stroke-width="0.376"/>
    </g>
  </g>
</svg>
