<svg xmlns="http://www.w3.org/2000/svg" xmlns:xlink="http://www.w3.org/1999/xlink" width="208.5" height="360" viewBox="0 0 208.5 360">
  <defs>
    <clipPath id="clip-Kropp-bak_1">
      <rect width="208.5" height="360"/>
    </clipPath>
  </defs>
  <g id="Kropp-bak_1" data-name="Kropp-bak – 1" clip-path="url(#clip-Kropp-bak_1)">
    <rect width="208.5" height="360" fill="rgba(0,0,0,0)"/>
    <g id="Group_1" data-name="Group 1">
      <rect id="Rectangle_4" data-name="Rectangle 4" width="208.5" height="360" fill="rgba(255,255,255,0)"/>
      <g id="Kropp-bak" transform="translate(43.5 3.75)">
        <path id="Path_508" data-name="Path 508" d="M407.556,478.085c1.027-6.949,3-16.326,3.423-21.014s-1.454-13.981-1.2-19.842.941-18.5.856-23.107,2.311-12.056,2.4-18.67.272-8.824.665-15.811c.375-6.647.789-12.654.789-12.654s.315-.6.531,0c0,0,.586,7.949.914,13.22.425,6.824.45,8.488.541,15.244.086,6.614,2.482,14.066,2.4,18.67s.6,17.244.856,23.107-1.626,15.154-1.2,19.842,3.427,21.128,3.427,21.128c1.027,6.949.322,10.708.123,11.51a22.01,22.01,0,0,0-.97,3.531c-.257,2.862.564,4.623.642,5.693s-.3,3.571,0,7.27.643,10.916,0,12.591-1.925,3.767-1.754,5.86-.122,5.8,0,6.7c.172,1.255.515,2.093,1.754,2.176s2.224-.409,2.224-1.255v-2.01s-.128,2.763,1.754,2.763c.65,0,1.467-.344,1.6-.7a5.647,5.647,0,0,0,.2-1.9,2.955,2.955,0,0,0,.555,1.462c.428.587,1.624.277,1.926,0,.6-.549.431-1.874.457-2.209s.052,1.241,1.084,1.241a1.55,1.55,0,0,0,1.626-1.038,7.569,7.569,0,0,0-.043-1.674s.443.99,1.355.656c.472-.174.9-.244.943-1.336.041-1.162-.183-1.581.243-2.083.34-.4.535-1.884-.426-5.568s-1.217-12.828-2.159-16.26-1.206-2.348-.689-4.354.081-2.428,0-4.939,3.328-15.237,5.126-25.954a156.359,156.359,0,0,0,1.2-32.4c-.6-5.944.086-11.47,1.711-19.423S446,399.137,447.708,390.1s3.251-24.028,2.4-31.982a219.749,219.749,0,0,0-4.45-27.963,54.265,54.265,0,0,1-1.283-21.517c.6-5.944,1.939-14.1,1.939-14.1a16.2,16.2,0,0,1,1.654,6.735,57.434,57.434,0,0,0,1.283,10.632c.77,4.437,1.027,10.3,2.652,17.244s6.16,18.335,7.529,21.851c0,0,2.279,5.719,1.556,8.872a11.557,11.557,0,0,0-.566,2.6,36.9,36.9,0,0,0,.482,9.392c.338,1.37.217,2.06-.128,5.962-.322,3.637-1.65,6.807.142,7.212,1.105.25,1.54-3.008,2-5.117.525-2.408,1.156-4.447,1.481-4.543.856-.248.29,3.77.138,6.647-.169,3.206-.385,5.825,1.062,5.847,1.153.018,1.622-.683,1.672-2.179.086-2.495.58-10.13,1.329-9.942s1.038,3.466,1.254,6.062.164,6.956,2.175,6.6c1.474-.257,1.009-3.332.936-6.09s-.532-7.469.15-7.788,1.6,3.358,2.314,5.594.86,4.843,2.413,4.5c1.1-.241,1.009-2.495.6-3.968s-.75-3.283-1.391-5.4a30.218,30.218,0,0,1-1.173-7.082c.058-1.355,1.425-.409,2.418,1.5s1.986,3.419,3.09,3.4,1.24-1.313.443-2.679c-.715-1.225-1.05-3.2-2.984-6.649-1.609-2.862-3.133-3.187-4.68-4.659-3.55-3.38-3.611-10.608-3.611-10.608s-.6-17.589-.51-21.859-1.54-10.13-2.475-13.648-.089-8.372,0-13.4-1.54-16.817-1.112-23.432.427-13.061.427-13.061c0-.139,0-.279-.011-.418a19.482,19.482,0,0,0-8.546-14.9c-3.445-2.324-7.016-2.93-11.722-4.939s-12.15-4.437-16.174-6.363-3.341-8.207-3.28-10.3l.034-.842A10.4,10.4,0,0,0,429,221.966c.615-1.761,1.54-4,1.54-4a4.528,4.528,0,0,0,.693.025c.688-.066.9-.467,1.209-1.2.413-.985.278-2.15.863-3.493,1.131-2.595,1.922-5.738.56-6.31a1.5,1.5,0,0,0-1.283.041s.905-13.67-2.4-18.628c-4.5-6.751-12.975-6.928-15.007-6.928s-10.628.176-15.13,6.929c-3.305,4.957-2.4,18.628-2.4,18.628a1.5,1.5,0,0,0-1.283-.041c-1.362.576-.571,3.72.56,6.314.584,1.342.45,2.508.864,3.492.306.729.52,1.131,1.207,1.2a4.474,4.474,0,0,0,.694-.025,40.592,40.592,0,0,1,1.54,4,8.082,8.082,0,0,0,1.826,3.334c.061,2.092.742,9.238-3.28,11.163s-12.15,4.354-16.858,6.363-8.215,2.706-11.724,4.939a19.221,19.221,0,0,0-8.541,14.9q-.008.209-.012.418s0,6.447.428,13.061-1.2,18.418-1.113,23.442.935,9.88,0,13.4-2.564,9.377-2.475,13.648-.257,16.911-.513,21.767c0,0-.057,7.228-3.608,10.607-1.546,1.473-3.07,1.8-4.679,4.659-1.934,3.445-2.27,5.423-2.985,6.65-.795,1.366-.66,2.665.444,2.679s2.094-1.488,3.089-3.4,2.361-2.862,2.418-1.5a30.33,30.33,0,0,1-1.172,7.083c-.642,2.119-.975,3.927-1.391,5.4s-.5,3.727.6,3.968c1.553.344,1.7-2.267,2.413-4.5s1.631-5.911,2.314-5.594.225,5.031.15,7.788-.538,5.833.936,6.09c2.012.352,1.963-4.008,2.175-6.6s.5-5.87,1.253-6.062,1.243,7.45,1.329,9.941c.05,1.495.52,2.2,1.672,2.179,1.446-.022,1.232-2.642,1.062-5.847-.15-2.876-.719-6.9.137-6.647.325.095.958,2.132,1.482,4.541.458,2.106.893,5.368,2,5.118,1.789-.4.464-3.575.142-7.212-.345-3.9-.466-4.591-.127-5.962a36.915,36.915,0,0,0,.482-9.392,11.649,11.649,0,0,0-.566-2.6c-.724-3.155,1.556-8.78,1.556-8.78,1.369-3.516,5.9-14.9,7.53-21.851s1.883-12.81,2.653-17.244a57.522,57.522,0,0,0,1.277-10.643,14.253,14.253,0,0,1,1.483-6.288s1.512,7.712,2.111,13.656a54.251,54.251,0,0,1-1.283,21.517,219.748,219.748,0,0,0-4.45,27.963c-.856,7.953.685,22.939,2.4,31.982s5.648,18.5,7.275,26.456,2.31,13.479,1.711,19.423a156.2,156.2,0,0,0,1.2,32.4" transform="translate(-347.182 -181.472)" fill="none" stroke="#161615" stroke-linecap="round" stroke-linejoin="round" stroke-width="0.591"/>
        <path id="Path_509" data-name="Path 509" d="M478.289,744.459s.72-3.124,3.688-3.124c2.278,0,3.839,3.708,3.839,3.708" transform="translate(-402.35 -424.829)" fill="none" stroke="#161615" stroke-linecap="round" stroke-linejoin="round" stroke-width="0.591"/>
        <path id="Path_510" data-name="Path 510" d="M475.253,792.129a7.361,7.361,0,0,0,2.61,1.214c1.5.342,3.412-.13,5.6-1.076a9.389,9.389,0,0,0,3.31-2.118" transform="translate(-401.072 -445.368)" fill="none" stroke="#161615" stroke-linecap="round" stroke-linejoin="round" stroke-width="0.591"/>
        <path id="Path_511" data-name="Path 511" d="M440.1,697.663c-1.027,7.1-.391,11.06-.191,11.88a22.942,22.942,0,0,1,.971,3.609c.257,2.925-.565,4.725-.643,5.819s.3,3.65,0,7.43-.642,11.158,0,12.869,1.927,3.85,1.755,5.99.122,5.925,0,6.846c-.171,1.284-.514,2.139-1.755,2.225s-2.224-.418-2.224-1.284v-2.054s.128,2.825-1.754,2.825c-.65,0-1.466-.352-1.6-.713a5.859,5.859,0,0,1-.2-1.939,3.055,3.055,0,0,1-.556,1.495c-.428.6-1.622.284-1.924,0-.6-.561-.431-1.916-.457-2.258s-.053,1.268-1.083,1.268a1.549,1.549,0,0,1-1.626-1.061,7.91,7.91,0,0,1,.042-1.712s-.443,1.013-1.355.671c-.473-.178-.9-.249-.943-1.365-.042-1.188.049-1.356-.055-2.319-.154-1.43-.722-1.736.238-5.5s1.217-13.111,2.159-16.62,1.206-2.4.688-4.451-.082-2.482,0-5.048-3.265-15.574-5.062-26.528" transform="translate(-379.73 -402.276)" fill="none" stroke="#161615" stroke-linecap="round" stroke-linejoin="round" stroke-width="0.591"/>
        <path id="Path_512" data-name="Path 512" d="M443.813,744.459s-.72-3.124-3.689-3.124c-2.278,0-3.839,3.708-3.839,3.708" transform="translate(-384.677 -424.829)" fill="none" stroke="#161615" stroke-linecap="round" stroke-linejoin="round" stroke-width="0.591"/>
        <path id="Path_513" data-name="Path 513" d="M443.946,792.129a7.361,7.361,0,0,1-2.61,1.214c-1.5.342-3.412-.13-5.6-1.076a9.389,9.389,0,0,1-3.31-2.118" transform="translate(-383.051 -445.368)" fill="none" stroke="#161615" stroke-linecap="round" stroke-linejoin="round" stroke-width="0.591"/>
        <path id="Path_514" data-name="Path 514" d="M465.265,285.622a1.371,1.371,0,0,1-1.242,1.465h-2.393a1.371,1.371,0,0,1-1.242-1.465l.126-.64-.126-.638a1.372,1.372,0,0,1,1.242-1.466h2.393c1.032.164,1.677.864,1.242,1.466l-.116.638Z" transform="translate(-394.817 -224.141)" fill="none" stroke="#161615" stroke-linecap="round" stroke-linejoin="round" stroke-width="0.411"/>
        <path id="Path_515" data-name="Path 515" d="M465.265,294.246c0,.806-.559,2.044-1.242,2.044h-2.393c-.683,0-1.242-1.238-1.242-2.044l.126-.64-.126-1.217a1.372,1.372,0,0,1,1.242-1.466h2.393c1.032.164,1.677.864,1.242,1.466l-.116,1.217Z" transform="translate(-394.817 -227.526)" fill="none" stroke="#161615" stroke-linecap="round" stroke-linejoin="round" stroke-width="0.411"/>
        <path id="Path_516" data-name="Path 516" d="M465.3,307.281a1.092,1.092,0,0,1-1.09,1.089h-2.925a1.092,1.092,0,0,1-1.089-1.089l.365-3.186-.365-1.4a1.092,1.092,0,0,1,1.089-1.089h2.925a1.092,1.092,0,0,1,1.09,1.089l-.3,1.4Z" transform="translate(-394.737 -233.555)" fill="none" stroke="#161615" stroke-linecap="round" stroke-linejoin="round" stroke-width="0.396"/>
        <path id="Path_517" data-name="Path 517" d="M465.309,318.042a1.231,1.231,0,0,1-1.319,1.106h-2.542a1.23,1.23,0,0,1-1.319-1.105l.08-1.024-.08-1.024a1.23,1.23,0,0,1,1.319-1.105h2.542a1.231,1.231,0,0,1,1.319,1.106l-.107,1.024Z" transform="translate(-394.708 -239.301)" fill="none" stroke="#161615" stroke-linecap="round" stroke-linejoin="round" stroke-width="0.368"/>
        <path id="Path_518" data-name="Path 518" d="M465.309,327.135a1.231,1.231,0,0,1-1.319,1.106h-2.542a1.23,1.23,0,0,1-1.319-1.106l.1-1.024-.1-1.024a1.23,1.23,0,0,1,1.319-1.105h2.542a1.231,1.231,0,0,1,1.319,1.106l-.107,1.024Z" transform="translate(-394.708 -243.242)" fill="none" stroke="#161615" stroke-linecap="round" stroke-linejoin="round" stroke-width="0.368"/>
        <path id="Path_519" data-name="Path 519" d="M465.309,335.68a1.231,1.231,0,0,1-1.319,1.106h-2.542a1.23,1.23,0,0,1-1.319-1.105l.116-1.024-.117-1.026a1.23,1.23,0,0,1,1.319-1.105h2.542a1.231,1.231,0,0,1,1.32,1.106l-.131,1.024Z" transform="translate(-394.708 -246.946)" fill="none" stroke="#161615" stroke-linecap="round" stroke-linejoin="round" stroke-width="0.368"/>
        <path id="Path_520" data-name="Path 520" d="M465.309,345.227c-.037.825-.653,1.438-1.319,1.106h-2.542a1.23,1.23,0,0,1-1.319-1.106l.116-1.024-.116-1.024a1.23,1.23,0,0,1,1.319-1.105h2.542a1.231,1.231,0,0,1,1.319,1.105l-.083,1.024Z" transform="translate(-394.708 -251.085)" fill="none" stroke="#161615" stroke-linecap="round" stroke-linejoin="round" stroke-width="0.368"/>
        <path id="Path_521" data-name="Path 521" d="M465.309,354.773a1.231,1.231,0,0,1-1.319,1.106h-2.542a1.23,1.23,0,0,1-1.319-1.105l.116-1.024-.116-1.023a1.23,1.23,0,0,1,1.319-1.106h2.542a1.231,1.231,0,0,1,1.319,1.106l-.144,1.023Z" transform="translate(-394.708 -255.222)" fill="none" stroke="#161615" stroke-linecap="round" stroke-linejoin="round" stroke-width="0.368"/>
        <path id="Path_522" data-name="Path 522" d="M465.309,364.322a1.231,1.231,0,0,1-1.319,1.106h-2.542a1.23,1.23,0,0,1-1.319-1.105l.092-1.024-.092-.979a1.233,1.233,0,0,1,1.319-1.151h2.542a1.23,1.23,0,0,1,1.319,1.1l-.1,1.024Z" transform="translate(-394.708 -259.361)" fill="none" stroke="#161615" stroke-linecap="round" stroke-linejoin="round" stroke-width="0.368"/>
        <path id="Path_523" data-name="Path 523" d="M465.309,374.023a1.231,1.231,0,0,1-1.319,1.105h-2.542a1.23,1.23,0,0,1-1.319-1.105l.092-2.183-.092-1.023a1.23,1.23,0,0,1,1.319-1.105h2.542a1.231,1.231,0,0,1,1.319,1.106l-.119,1.023Z" transform="translate(-394.708 -263.071)" fill="none" stroke="#161615" stroke-linecap="round" stroke-linejoin="round" stroke-width="0.368"/>
        <path id="Path_524" data-name="Path 524" d="M465.309,383.413a1.231,1.231,0,0,1-1.319,1.106h-2.542a1.23,1.23,0,0,1-1.319-1.105l.1-.915-.1-1.132a1.23,1.23,0,0,1,1.319-1.105h2.542a1.231,1.231,0,0,1,1.319,1.105l-.144,1.132Z" transform="translate(-394.708 -267.636)" fill="none" stroke="#161615" stroke-linecap="round" stroke-linejoin="round" stroke-width="0.368"/>
        <path id="Path_525" data-name="Path 525" d="M465.309,393.117a1.231,1.231,0,0,1-1.319,1.106h-2.542a1.23,1.23,0,0,1-1.319-1.105l.068-1.024-.068-2.183a1.229,1.229,0,0,1,1.319-1.1h2.542a1.23,1.23,0,0,1,1.319,1.1l-.119,2.234Z" transform="translate(-394.708 -271.349)" fill="none" stroke="#161615" stroke-linecap="round" stroke-linejoin="round" stroke-width="0.368"/>
        <path id="Path_526" data-name="Path 526" d="M465.309,402.507a1.231,1.231,0,0,1-1.319,1.106h-2.542a1.23,1.23,0,0,1-1.319-1.105l.1-1.024-.1-1.024a1.23,1.23,0,0,1,1.319-1.105h2.542a1.231,1.231,0,0,1,1.319,1.106l-.07,1.024Z" transform="translate(-394.708 -275.912)" fill="none" stroke="#161615" stroke-linecap="round" stroke-linejoin="round" stroke-width="0.368"/>
        <path id="Path_527" data-name="Path 527" d="M465.307,410.009a1.492,1.492,0,0,1-1.319,1.612h-2.543a1.491,1.491,0,0,1-1.319-1.612l.128-.107-.128-1.091c.029-.924.607-1.63,1.319-1.612h2.543a1.493,1.493,0,0,1,1.319,1.612l-.156,1.239Z" transform="translate(-394.706 -279.314)" fill="none" stroke="#161615" stroke-linecap="round" stroke-linejoin="round" stroke-width="0.444"/>
        <path id="Path_528" data-name="Path 528" d="M465.305,418.724a1.575,1.575,0,0,1-1.319,1.737h-2.543a1.575,1.575,0,0,1-1.319-1.737l.166-1.3-.166.442a1.575,1.575,0,0,1,1.319-1.737h2.543a1.575,1.575,0,0,1,1.319,1.737l-.107-.442Z" transform="translate(-394.705 -283.186)" fill="none" stroke="#161615" stroke-linecap="round" stroke-linejoin="round" stroke-width="0.461"/>
        <path id="Path_529" data-name="Path 529" d="M465.18,463.35c1.152-2.137-.172-2.318-.9-2.317h-4.86c-.8-.11-1.945.375-.985,2.317a7.8,7.8,0,0,0,1.593,3.26c.585.825-1.322.808.736,3.984.7,1.076-1.9,1.495.5,3.85.424.416-.124,1.084-.15,1.734a4.361,4.361,0,0,0,.737,2.63,4.3,4.3,0,0,0,1.01-2.63c.021-.614-.606-1.3-.2-1.732,2.413-2.617-.179-2.693.375-3.85,1.825-3.825.063-3.075.584-3.986A13.072,13.072,0,0,0,465.18,463.35Z" transform="translate(-393.843 -302.782)" fill="none" stroke="#161615" stroke-linecap="round" stroke-linejoin="round" stroke-width="0.586"/>
        <path id="Path_530" data-name="Path 530" d="M462.473,457.021h-2.543c-.726,0-3.058-.23-3.058-1.187l.2-.832-.2-.655c0-.956,2.332-1.365,3.058-1.365h2.543s3.112,0,3.324,1.365l-.2.655.2.832S465.561,456.785,462.473,457.021Z" transform="translate(-393.339 -299.156)" fill="none" stroke="#161615" stroke-linecap="round" stroke-linejoin="round" stroke-width="0.461"/>
        <path id="Path_531" data-name="Path 531" d="M462.751,449.438h-2.306c-.659,0-2.775-.2-2.775-1.043l.185-.731-.185-.574c0-.84,2.115-1.2,2.775-1.2h2.306s2.823,0,3.015,1.2l-.185.574.185.731S465.552,449.23,462.751,449.438Z" transform="translate(-393.674 -296.077)" fill="none" stroke="#161615" stroke-linecap="round" stroke-linejoin="round" stroke-width="0.412"/>
        <path id="Path_532" data-name="Path 532" d="M462.751,442.387h-2.306c-.659,0-2.775-.2-2.775-1.042l.185-.731-.185-.574c0-.84,2.115-1.2,2.775-1.2h2.306s2.823,0,3.015,1.2l-.185.574.185.731S465.552,442.18,462.751,442.387Z" transform="translate(-393.674 -293.021)" fill="none" stroke="#161615" stroke-linecap="round" stroke-linejoin="round" stroke-width="0.412"/>
        <path id="Path_533" data-name="Path 533" d="M462.742,435.269h-2.034c-.581,0-2.445-.2-2.445-1.043l.162-.731-.162-.575c0-.84,1.864-1.2,2.445-1.2h2.034s2.489,0,2.658,1.2l-.162.575.162.731S465.212,435.062,462.742,435.269Z" transform="translate(-393.924 -289.936)" fill="none" stroke="#161615" stroke-linecap="round" stroke-linejoin="round" stroke-width="0.387"/>
        <path id="Path_534" data-name="Path 534" d="M462.841,428.217h-1.919c-.548,0-2.309-.2-2.309-1.043l.15-.731-.15-.575c0-.84,1.76-1.2,2.309-1.2h1.919s2.349,0,2.509,1.2l-.15.575.15.731S465.173,428.013,462.841,428.217Z" transform="translate(-394.071 -286.881)" fill="none" stroke="#161615" stroke-linecap="round" stroke-linejoin="round" stroke-width="0.376"/>
        <path id="Path_535" data-name="Path 535" d="M465.248,276.9a1.207,1.207,0,0,1-1.2,1.2h-2.317a1.206,1.206,0,0,1-1.2-1.2l.05-.289-.05-.2c0-.663.541-2.942,1.2-2.942h2.317c.661,0,1.2,2.279,1.2,2.942l-.075.245Z" transform="translate(-394.876 -220.181)" fill="none" stroke="#161615" stroke-linecap="round" stroke-linejoin="round" stroke-width="0.366"/>
        <path id="Path_536" data-name="Path 536" d="M465.248,266.98a1.207,1.207,0,0,1-1.2,1.2h-2.317a1.206,1.206,0,0,1-1.2-1.2l.041-.167-.041-1.9a1.207,1.207,0,0,1,1.2-1.2h2.317a1.207,1.207,0,0,1,1.2,1.2l-.039,1.9Z" transform="translate(-394.876 -216.075)" fill="none" stroke="#161615" stroke-linecap="round" stroke-linejoin="round" stroke-width="0.366"/>
        <path id="Path_537" data-name="Path 537" d="M465.248,258.91a1.207,1.207,0,0,1-1.2,1.2h-2.317a1.206,1.206,0,0,1-1.2-1.2l.041-.115-.041-.115c0-.662.541-1.783,1.2-1.783h2.317c.661,0,1.2,1.12,1.2,1.783l-.048.115Z" transform="translate(-394.876 -213.209)" fill="none" stroke="#161615" stroke-linecap="round" stroke-linejoin="round" stroke-width="0.366"/>
        <path id="Path_538" data-name="Path 538" d="M465.121,253.118a.975.975,0,0,1-.971.971h-1.868a.975.975,0,0,1-.971-.971l.033-.093-.033-.093c0-.534.436-1.439.971-1.439h1.871c.533,0,.97.9.97,1.439l-.039.093Z" transform="translate(-395.207 -210.936)" fill="none" stroke="#161615" stroke-linecap="round" stroke-linejoin="round" stroke-width="0.366"/>
        <path id="Path_539" data-name="Path 539" d="M434.3,226.567s.185,2.555.764,5.894a35.16,35.16,0,0,0,1.275,5.285" transform="translate(-383.841 -200.448)" fill="none" stroke="#161615" stroke-linecap="round" stroke-linejoin="round" stroke-width="0.591"/>
        <path id="Path_540" data-name="Path 540" d="M494.962,231.741a5.715,5.715,0,0,0,.649-3.225.656.656,0,0,0-.935-.45" transform="translate(-409.245 -201.05)" fill="none" stroke="#161615" stroke-linecap="round" stroke-linejoin="round" stroke-width="0.591"/>
        <path id="Path_541" data-name="Path 541" d="M492.016,241.974s.064.185.521-.013c.4-.175.548-1.451.548-1.451" transform="translate(-408.126 -206.314)" fill="none" stroke="#161615" stroke-linecap="round" stroke-linejoin="round" stroke-width="0.591"/>
        <path id="Path_542" data-name="Path 542" d="M433.306,231.659a5.716,5.716,0,0,1-.649-3.225.656.656,0,0,1,.935-.45" transform="translate(-383.132 -201.016)" fill="none" stroke="#161615" stroke-linecap="round" stroke-linejoin="round" stroke-width="0.591"/>
        <path id="Path_543" data-name="Path 543" d="M436.185,241.892s-.064.185-.52-.014c-.405-.175-.548-1.451-.548-1.451" transform="translate(-384.185 -206.28)" fill="none" stroke="#161615" stroke-linecap="round" stroke-linejoin="round" stroke-width="0.591"/>
        <path id="Path_544" data-name="Path 544" d="M426.642,498.81s5.507,6.387,11.8,6.387c7.241,0,9.8-2.366,9.8-2.366" transform="translate(-380.619 -319.046)" fill="none" stroke="#161615" stroke-linecap="round" stroke-linejoin="round" stroke-width="0.591"/>
        <path id="Path_545" data-name="Path 545" d="M485.65,498.81s-5.508,6.387-11.8,6.387c-7.242,0-9.8-2.366-9.8-2.366" transform="translate(-396.359 -319.046)" fill="none" stroke="#161615" stroke-linecap="round" stroke-linejoin="round" stroke-width="0.591"/>
        <path id="Path_546" data-name="Path 546" d="M463.933,502.67a20.834,20.834,0,0,0,.15-4.023" transform="translate(-396.31 -318.948)" fill="none" stroke="#161615" stroke-linecap="round" stroke-linejoin="round" stroke-width="0.591"/>
        <path id="Path_547" data-name="Path 547" d="M425.91,341.678c3.166,4.345,9.156,5.638,11.631-.039,3.287-7.54,4.681-24.292,4.74-26.036s-1.567-3.371-5.075-2" transform="translate(-380.31 -238.665)" fill="none" stroke="#161615" stroke-linecap="round" stroke-linejoin="round" stroke-width="0.591"/>
        <path id="Path_548" data-name="Path 548" d="M490.9,341.678c-3.166,4.345-9.156,5.638-11.631-.039-3.287-7.54-4.681-24.292-4.74-26.036s1.567-3.371,5.075-2" transform="translate(-400.767 -238.665)" fill="none" stroke="#161615" stroke-linecap="round" stroke-linejoin="round" stroke-width="0.591"/>
        <path id="Path_549" data-name="Path 549" d="M387.828,415.06c-.971.7-2.459,1.364-3.337.975s-1.365-1.967-1.678-3.2" transform="translate(-362.178 -281.751)" fill="none" stroke="#161615" stroke-linecap="round" stroke-linejoin="round" stroke-width="0.591"/>
        <path id="Path_550" data-name="Path 550" d="M536.361,415.06c.971.7,2.459,1.364,3.336.975s1.365-1.967,1.678-3.2" transform="translate(-426.785 -281.751)" fill="none" stroke="#161615" stroke-linecap="round" stroke-linejoin="round" stroke-width="0.591"/>
        <path id="Path_551" data-name="Path 551" d="M493.087,226.13a60.561,60.561,0,0,1-.742,6.195,31.573,31.573,0,0,1-1.4,5.447" transform="translate(-407.676 -200.263)" fill="none" stroke="#161615" stroke-linecap="round" stroke-linejoin="round" stroke-width="0.591"/>
        <path id="Path_552" data-name="Path 552" d="M406.221,338.233c.737,9.849,1.565,25.214,1.565,25.214" transform="translate(-372.026 -249.545)" fill="none" stroke="#161615" stroke-linecap="round" stroke-miterlimit="10" stroke-width="0.591"/>
        <path id="Path_553" data-name="Path 553" d="M519.861,338.233c-.737,9.849-1.564,25.214-1.564,25.214" transform="translate(-419.184 -249.545)" fill="none" stroke="#161615" stroke-linecap="round" stroke-miterlimit="10" stroke-width="0.591"/>
        <path id="Path_554" data-name="Path 554" d="M441.249,398.929s-5.4,8.056-23.905,8.056" transform="translate(-376.706 -275.759)" fill="none" stroke="#161615" stroke-linecap="round" stroke-linejoin="round" stroke-width="0.376"/>
        <path id="Path_555" data-name="Path 555" d="M470.6,398.929s5.4,8.056,23.905,8.056" transform="translate(-399.116 -275.759)" fill="none" stroke="#161615" stroke-linecap="round" stroke-linejoin="round" stroke-width="0.376"/>
        <path id="Path_556" data-name="Path 556" d="M439.107,451.335a28.319,28.319,0,0,0-21.334-10.017" transform="translate(-376.887 -294.156)" fill="none" stroke="#161615" stroke-linecap="round" stroke-linejoin="round" stroke-width="0.376"/>
        <path id="Path_557" data-name="Path 557" d="M473.895,451.335a28.319,28.319,0,0,1,21.335-10.017" transform="translate(-400.501 -294.156)" fill="none" stroke="#161615" stroke-linecap="round" stroke-linejoin="round" stroke-width="0.376"/>
      </g>
    </g>
  </g>
</svg>
