<svg xmlns="http://www.w3.org/2000/svg" xmlns:xlink="http://www.w3.org/1999/xlink" width="208.5" height="360" viewBox="0 0 208.5 360">
  <defs>
    <clipPath id="clip-Perifera-bak_1">
      <rect width="208.5" height="360"/>
    </clipPath>
  </defs>
  <g id="Perifera-bak_1" data-name="Perifera-bak – 1" clip-path="url(#clip-Perifera-bak_1)">
    <rect width="208.5" height="360" fill="rgba(0,0,0,0)"/>
    <g id="Group_5" data-name="Group 5">
      <rect id="Rectangle_4" data-name="Rectangle 4" width="208.5" height="360" fill="rgba(255,255,255,0)"/>
      <g id="Perifera-bak" transform="translate(0 3.75)">
        <g id="kropp" transform="translate(44.564)">
          <g id="Group_174" data-name="Group 174" transform="translate(0)">
            <path id="Path_798" data-name="Path 798" d="M1060.8,370.472c-.7-1.225-1.027-3.205-2.92-6.651-1.575-2.865-3.067-3.187-4.581-4.661-3.474-3.381-3.533-10.612-3.533-10.612s-.583-17.6-.5-21.866-1.508-10.134-2.424-13.65-.087-8.374,0-13.4-1.508-16.834-1.088-23.449.418-13.065.418-13.065c0-.139,0-.279-.01-.419a19.584,19.584,0,0,0-8.367-14.908c-3.375-2.325-6.866-2.931-11.475-4.941s-11.893-4.438-15.829-6.365-3.27-8.21-3.211-10.3l.034-.842a10.49,10.49,0,0,0,1.783-3.359c.6-1.764,1.507-4.006,1.507-4.006a4.341,4.341,0,0,0,.675.025c.675-.066.881-.468,1.183-1.2.4-.986.272-2.151.845-3.493,1.107-2.6,1.88-5.741.547-6.316a1.438,1.438,0,0,0-1.256.041s.886-13.676-2.348-18.635c-4.406-6.756-12.7-6.93-14.687-6.93a23.472,23.472,0,0,0-2.839.169h2.578V366.85a.552.552,0,0,1,.111.2s.574,7.95.895,13.225c.416,6.825.443,8.491.529,15.25.084,6.616,2.429,14.071,2.344,18.675s.587,17.25.839,23.115-1.591,15.159-1.172,19.849,3.354,21.134,3.354,21.134c1,6.951.314,10.711.12,11.514a22.411,22.411,0,0,0-.949,3.532c-.251,2.863.552,4.622.628,5.695s-.292,3.572,0,7.275.629,10.92,0,12.6-1.884,3.769-1.717,5.862-.12,5.8,0,6.7c.168,1.256.5,2.093,1.717,2.175s2.175-.41,2.175-1.256V530.6c.015.652.191,2.543,1.717,2.543.636,0,1.435-.344,1.564-.7a5.761,5.761,0,0,0,.2-1.9,3,3,0,0,0,.543,1.463c.419.589,1.589.277,1.885,0,.585-.549.422-1.875.45-2.21s.052,1.241,1.06,1.241a1.516,1.516,0,0,0,1.591-1.039,7.733,7.733,0,0,0-.042-1.675s.433.991,1.327.656c.462-.174.885-.244.923-1.336.041-1.162-.18-1.581.238-2.084.333-.4.525-1.885-.417-5.57s-1.19-12.833-2.112-16.266-1.18-2.345-.675-4.355.08-2.428,0-4.941,3.258-15.242,5.017-25.962a159.882,159.882,0,0,0,1.173-32.411c-.587-5.946.082-11.475,1.675-19.43s5.444-17.42,7.118-26.465,3.182-24.037,2.344-31.993a224.276,224.276,0,0,0-4.354-27.975,55.455,55.455,0,0,1-1.256-21.525c.587-5.948,1.9-14.107,1.9-14.107a16.5,16.5,0,0,1,1.618,6.737,58.683,58.683,0,0,0,1.256,10.636c.754,4.439,1,10.3,2.6,17.25s6.029,18.341,7.369,21.859c0,0,2.23,5.721,1.523,8.875a11.791,11.791,0,0,0-.554,2.6,37.755,37.755,0,0,0,.473,9.4c.331,1.37.214,2.06-.125,5.964-.316,3.638-1.614,6.809.139,7.214,1.082.25,1.507-3.013,1.956-5.119.514-2.409,1.133-4.448,1.45-4.544.839-.248.284,3.772.135,6.65-.166,3.207-.375,5.827,1.039,5.85,1.125.018,1.587-.684,1.636-2.18.084-2.493.568-10.133,1.3-9.945s1.016,3.468,1.228,6.065.161,6.958,2.13,6.608c1.442-.257.988-3.333.916-6.092s-.52-7.472.15-7.79,1.567,3.359,2.263,5.6.842,4.844,2.362,4.5c1.076-.241.988-2.5.583-3.969s-.733-3.284-1.36-5.4a30.882,30.882,0,0,1-1.148-7.085c.057-1.355,1.392-.41,2.367,1.5s1.943,3.419,3.023,3.4S1061.577,371.842,1060.8,370.472Z" transform="translate(-929.009 -181.468)" fill="#ffe8c1" stroke="#161615" stroke-linecap="round" stroke-linejoin="round" stroke-width="0.591"/>
            <path id="Path_799" data-name="Path 799" d="M1012.92,797.165v0Z" transform="translate(-937.759 -448.031)" fill="#ffe8c1" stroke="#161615" stroke-linecap="round" stroke-linejoin="round" stroke-width="0.591"/>
            <path id="Path_800" data-name="Path 800" d="M944.049,181.766c-3.43.415-8.76,1.844-11.969,6.763-3.235,4.959-2.349,18.635-2.349,18.635a1.44,1.44,0,0,0-1.257-.041c-1.332.576-.558,3.721.549,6.316.572,1.342.44,2.509.846,3.493.3.73.509,1.131,1.18,1.2a4.28,4.28,0,0,0,.68-.025,41.146,41.146,0,0,1,1.507,4.006,8.164,8.164,0,0,0,1.787,3.336c.059,2.093.726,9.241-3.211,11.167s-11.893,4.355-16.5,6.365-8.039,2.707-11.475,4.941a19.318,19.318,0,0,0-8.363,14.908q-.008.209-.012.419s0,6.45.419,13.065-1.172,18.424-1.089,23.449.915,9.883,0,13.4-2.51,9.38-2.426,13.65-.252,16.918-.5,21.775c0,0-.055,7.231-3.531,10.611-1.513,1.473-3.005,1.8-4.579,4.66-1.892,3.446-2.221,5.426-2.921,6.652-.779,1.366-.646,2.666.435,2.68s2.049-1.489,3.023-3.4,2.311-2.86,2.367-1.5a30.95,30.95,0,0,1-1.148,7.086c-.628,2.12-.958,3.928-1.361,5.4s-.493,3.728.584,3.969c1.519.344,1.666-2.268,2.362-4.5s1.6-5.913,2.264-5.6.225,5.033.15,7.791-.525,5.834.916,6.09c1.969.352,1.922-4.009,2.131-6.607s.492-5.874,1.227-6.064,1.217,7.453,1.3,9.944c.049,1.5.508,2.2,1.636,2.18,1.415-.022,1.205-2.643,1.039-5.85-.15-2.878-.7-6.9.134-6.649.319.095.938,2.133,1.451,4.544.45,2.107.875,5.37,1.956,5.119,1.751-.4.45-3.576.139-7.214-.338-3.9-.456-4.593-.125-5.964a37.759,37.759,0,0,0,.473-9.4,11.876,11.876,0,0,0-.554-2.6c-.709-3.154,1.523-8.783,1.523-8.783,1.34-3.518,5.779-14.907,7.37-21.859s1.843-12.814,2.6-17.25a58.647,58.647,0,0,0,1.256-10.637,14.517,14.517,0,0,1,1.452-6.291s1.48,7.715,2.066,13.661a55.467,55.467,0,0,1-1.256,21.525,224.308,224.308,0,0,0-4.355,27.975c-.838,7.956.67,22.95,2.344,31.993s5.528,18.508,7.119,26.464,2.26,13.484,1.674,19.43a159.831,159.831,0,0,0,1.174,32.411c1.76,10.72,5.033,23.449,4.95,25.962s-.507,2.932,0,4.941.248.922-.675,4.355-1.171,12.578-2.11,16.261-.383,3.985-.233,5.383c.1.943.013,1.107.054,2.27.038,1.093.46,1.162.923,1.336.893.334,1.326-.656,1.326-.656a7.733,7.733,0,0,0-.041,1.675,1.516,1.516,0,0,0,1.591,1.039c1.009,0,1.034-1.575,1.06-1.241s-.138,1.661.45,2.21c.3.277,1.464.589,1.884,0a2.989,2.989,0,0,0,.545-1.463,5.72,5.72,0,0,0,.2,1.9c.129.354.928.7,1.563.7,1.523,0,1.7-1.885,1.717-2.539v1.786c0,.847.964,1.34,2.175,1.256s1.55-.921,1.717-2.175c.12-.9-.167-4.606,0-6.7s-1.088-4.187-1.717-5.862-.292-8.9,0-12.6-.075-6.2,0-7.275.88-2.832.629-5.695a22.482,22.482,0,0,0-.95-3.532c-.195-.8-.818-4.675.188-11.625s2.932-16.331,3.35-21.021-1.425-13.986-1.173-19.849.921-18.509.838-23.115,2.26-12.06,2.345-18.675.266-8.827.651-15.817c.366-6.65.773-12.659.773-12.659s.215-.413.41-.2V181.766Z" transform="translate(-880.336 -181.597)" fill="#f1dab6" stroke="#161615" stroke-linecap="round" stroke-linejoin="round" stroke-width="0.591"/>
            <path id="Path_801" data-name="Path 801" d="M980.978,796.944v.225C980.981,797.031,980.978,796.944,980.978,796.944Z" transform="translate(-923.924 -448.031)" fill="#ffe8c1" stroke="#161615" stroke-linecap="round" stroke-linejoin="round" stroke-width="0.591"/>
          </g>
        </g>
        <g id="perifera_nerver" data-name="perifera nerver" transform="translate(45.258 0.169)">
          <path id="Path_802" data-name="Path 802" d="M969.112,199.965s8.977,9.219,9.7,32.366" transform="translate(-919.479 -189.648)" fill="none" stroke="#161615" stroke-linecap="round" stroke-linejoin="round" stroke-width="0.591"/>
          <path id="Path_803" data-name="Path 803" d="M949.459,277.3s7.43,11.716-30.7,13.3c0,0,3.632,1.448,44.638.476" transform="translate(-897.671 -223.142)" fill="none" stroke="#161615" stroke-linecap="round" stroke-linejoin="round" stroke-width="0.591"/>
          <path id="Path_804" data-name="Path 804" d="M927.1,302.108s-.583,24.608-19.281,31.045" transform="translate(-892.932 -233.887)" fill="none" stroke="#161615" stroke-linecap="round" stroke-linejoin="round" stroke-width="0.591"/>
          <path id="Path_805" data-name="Path 805" d="M934.9,338.514c-.208-3.011-3.7-4.025-3.7-4.025s-6.681,23.656,1.849,48.294" transform="translate(-901.983 -247.911)" fill="none" stroke="#161615" stroke-linecap="round" stroke-linejoin="round" stroke-width="0.591"/>
          <path id="Path_806" data-name="Path 806" d="M903,415.964s2.39,32.674.547,42.464l-3.433-5.168" transform="translate(-889.594 -283.198)" fill="none" stroke="#161615" stroke-linecap="round" stroke-linejoin="round" stroke-width="0.591"/>
          <path id="Path_807" data-name="Path 807" d="M922.321,409.479a229.655,229.655,0,0,1-6.31,24.043c-3.543,10.346-10.275,24.664-7.333,53.078" transform="translate(-892.99 -280.389)" fill="none" stroke="#161615" stroke-linecap="round" stroke-linejoin="round" stroke-width="0.591"/>
          <path id="Path_808" data-name="Path 808" d="M909.417,498.1a7.7,7.7,0,0,1,4.339-3.825" transform="translate(-893.624 -317.113)" fill="none" stroke="#161615" stroke-linecap="round" stroke-linejoin="round" stroke-width="0.591"/>
          <path id="Path_809" data-name="Path 809" d="M881.559,514.023s2.114.786,2.08,1.7" transform="translate(-881.559 -325.667)" fill="none" stroke="#161615" stroke-linecap="round" stroke-linejoin="round" stroke-width="0.591"/>
          <path id="Path_810" data-name="Path 810" d="M886.743,534.3a2.093,2.093,0,0,0,2.507.99" transform="translate(-883.805 -334.449)" fill="none" stroke="#161615" stroke-linecap="round" stroke-linejoin="round" stroke-width="0.591"/>
          <path id="Path_811" data-name="Path 811" d="M896.3,540.89s1.067,1.063,2.9,0" transform="translate(-887.944 -337.303)" fill="none" stroke="#161615" stroke-linecap="round" stroke-linejoin="round" stroke-width="0.591"/>
          <path id="Path_812" data-name="Path 812" d="M906.345,541.335s2.8.4,2.792-.445" transform="translate(-892.294 -337.303)" fill="none" stroke="#161615" stroke-linecap="round" stroke-linejoin="round" stroke-width="0.591"/>
          <path id="Path_813" data-name="Path 813" d="M943.945,302.108s19.558,100.944-6.509,100.944" transform="translate(-905.76 -233.887)" fill="none" stroke="#161615" stroke-linecap="round" stroke-linejoin="round" stroke-width="0.591"/>
          <line id="Line_98" data-name="Line 98" x2="2.757" y2="73.771" transform="translate(38.452 166.057)" fill="none" stroke="#161615" stroke-linecap="round" stroke-linejoin="round" stroke-width="0.591"/>
          <path id="Path_814" data-name="Path 814" d="M997.414,501.449" transform="translate(-931.736 -320.221)" fill="none" stroke="#161615" stroke-linecap="round" stroke-linejoin="round" stroke-width="0.591"/>
          <path id="Path_815" data-name="Path 815" d="M977.575,501.449s.173,4.785-8.555,4.733c-13.309-.075-16.65,4.964-17.413,10.255" transform="translate(-911.897 -320.221)" fill="none" stroke="#161615" stroke-linecap="round" stroke-linejoin="round" stroke-width="0.591"/>
          <path id="Path_816" data-name="Path 816" d="M955.983,624.225s6.438,18.14,2.3,43.249" transform="translate(-913.792 -373.396)" fill="none" stroke="#161615" stroke-linecap="round" stroke-linejoin="round" stroke-width="0.591"/>
          <path id="Path_817" data-name="Path 817" d="M985.138,539.755a21.042,21.042,0,0,0-9.941,12.359c-4.536,14.55-2.136,77.964,0,92.4,0,0,.944,5.973.567,9.411" transform="translate(-920.997 -336.812)" fill="none" stroke="#161615" stroke-linecap="round" stroke-linejoin="round" stroke-width="0.591"/>
          <path id="Path_818" data-name="Path 818" d="M962.489,665.6s6.359,5.63,6.754,9.989" transform="translate(-916.61 -391.315)" fill="none" stroke="#161615" stroke-linecap="round" stroke-linejoin="round" stroke-width="0.591"/>
          <ellipse id="Ellipse_3" data-name="Ellipse 3" cx="4.033" cy="4.383" rx="4.033" ry="4.383" transform="translate(49.817 317.119)" fill="none" stroke="#161615" stroke-linecap="round" stroke-linejoin="round" stroke-width="0.591"/>
          <path id="Path_819" data-name="Path 819" d="M967.717,753.263s-3.77,12.617-3.884,18.024" transform="translate(-917.192 -429.282)" fill="none" stroke="#161615" stroke-linecap="round" stroke-linejoin="round" stroke-width="0.591"/>
          <path id="Path_820" data-name="Path 820" d="M974.023,756.622a14.971,14.971,0,0,1,0,5.443c-.606,2.173-.716,10.866,0,13.228" transform="translate(-921.39 -430.737)" fill="none" stroke="#161615" stroke-linecap="round" stroke-linejoin="round" stroke-width="0.591"/>
          <path id="Path_821" data-name="Path 821" d="M981.707,627.746s-8.482,2.916-9.088,8.4" transform="translate(-920.997 -374.92)" fill="none" stroke="#161615" stroke-linecap="round" stroke-linejoin="round" stroke-width="0.591"/>
          <path id="Path_822" data-name="Path 822" d="M982.081,646.39s-7.964,2.646-8.6,6.142" transform="translate(-921.37 -382.995)" fill="none" stroke="#161615" stroke-linecap="round" stroke-linejoin="round" stroke-width="0.591"/>
          <path id="Path_823" data-name="Path 823" d="M1001.524,221.644s-3.057,3.252-5.342,20.867c0,0-9.685-3.112-23.506-.07,0,0-.8-18.25-5.4-21.434" transform="translate(-918.684 -198.761)" fill="none" stroke="#161615" stroke-linecap="round" stroke-linejoin="round" stroke-width="0.591"/>
          <path id="Path_824" data-name="Path 824" d="M1018.212,199.557s-9.172,9.248-9.9,32.4" transform="translate(-936.458 -189.471)" fill="none" stroke="#161615" stroke-linecap="round" stroke-linejoin="round" stroke-width="0.591"/>
          <path id="Path_825" data-name="Path 825" d="M1010.984,277.428s-8,11.716,30.133,13.3c0,0-3.065,1.448-44.071.476" transform="translate(-931.576 -223.197)" fill="none" stroke="#161615" stroke-linecap="round" stroke-linejoin="round" stroke-width="0.591"/>
          <path id="Path_826" data-name="Path 826" d="M1052.71,302.232s.173,24.354,18.873,30.791" transform="translate(-955.685 -233.94)" fill="none" stroke="#161615" stroke-linecap="round" stroke-linejoin="round" stroke-width="0.591"/>
          <path id="Path_827" data-name="Path 827" d="M1054.52,338.915c.208-3.011,3.7-4.025,3.7-4.025s6.68,23.656-1.849,48.294" transform="translate(-956.468 -248.084)" fill="none" stroke="#161615" stroke-linecap="round" stroke-linejoin="round" stroke-width="0.591"/>
          <path id="Path_828" data-name="Path 828" d="M1088.322,417.6s-2.325,31.817-.486,41.608l3.191-4.806" transform="translate(-970.59 -283.906)" fill="none" stroke="#161615" stroke-linecap="round" stroke-linejoin="round" stroke-width="0.591"/>
          <path id="Path_829" data-name="Path 829" d="M1061.24,409.6a229.648,229.648,0,0,0,6.311,24.043c3.543,10.346,10.275,24.664,7.333,53.077" transform="translate(-959.38 -280.442)" fill="none" stroke="#161615" stroke-linecap="round" stroke-linejoin="round" stroke-width="0.591"/>
          <path id="Path_830" data-name="Path 830" d="M1081.814,498.225a7.7,7.7,0,0,0-4.339-3.825" transform="translate(-966.41 -317.167)" fill="none" stroke="#161615" stroke-linecap="round" stroke-linejoin="round" stroke-width="0.591"/>
          <path id="Path_831" data-name="Path 831" d="M1110.937,514.669s-2.114.785-2.079,1.7" transform="translate(-980.003 -325.947)" fill="none" stroke="#161615" stroke-linecap="round" stroke-linejoin="round" stroke-width="0.591"/>
          <path id="Path_832" data-name="Path 832" d="M1105.185,534.423a2.094,2.094,0,0,1-2.507.991" transform="translate(-977.325 -334.502)" fill="none" stroke="#161615" stroke-linecap="round" stroke-linejoin="round" stroke-width="0.591"/>
          <path id="Path_833" data-name="Path 833" d="M1095.432,541.014s-1.067,1.063-2.9,0" transform="translate(-972.931 -337.357)" fill="none" stroke="#161615" stroke-linecap="round" stroke-linejoin="round" stroke-width="0.591"/>
          <path id="Path_834" data-name="Path 834" d="M1085.449,541.4s-2.8.4-2.793-.444" transform="translate(-968.655 -337.331)" fill="none" stroke="#161615" stroke-linecap="round" stroke-linejoin="round" stroke-width="0.591"/>
          <path id="Path_835" data-name="Path 835" d="M1040.242,302.232s-19.558,100.945,6.508,100.945" transform="translate(-947.235 -233.94)" fill="none" stroke="#161615" stroke-linecap="round" stroke-linejoin="round" stroke-width="0.591"/>
          <path id="Path_836" data-name="Path 836" d="M1004.812,449.735s-3.15-2.513-3.714-5.489-3.142-4.535-6.075-4.535c-5.1,0-13.956,9.5-21.28,9.991l-1.817-.07c-7.65.316-16.177-9.991-21.28-9.991-2.932,0-5.506,1.559-6.075,4.535s-3.714,5.49-3.714,5.49" transform="translate(-907.243 -293.452)" fill="none" stroke="#161615" stroke-linecap="round" stroke-linejoin="round" stroke-width="0.591"/>
          <line id="Line_99" data-name="Line 99" x1="3" y2="73.365" transform="translate(89.741 166.128)" fill="none" stroke="#161615" stroke-linecap="round" stroke-linejoin="round" stroke-width="0.591"/>
          <path id="Path_837" data-name="Path 837" d="M1003.415,502.636c0-32.694-25.13-30.049-25.13-30.049l-1.805-.07s-25.13-2.646-25.13,30.049" transform="translate(-911.785 -307.669)" fill="none" stroke="#161615" stroke-linecap="round" stroke-linejoin="round" stroke-width="0.591"/>
          <path id="Path_838" data-name="Path 838" d="M997.126,501.572" transform="translate(-931.611 -320.275)" fill="none" stroke="#161615" stroke-linecap="round" stroke-linejoin="round" stroke-width="0.591"/>
          <path id="Path_839" data-name="Path 839" d="M997.412,501.449s-.337,4.855,8.447,4.8c13.392-.075,16.753,4.964,17.521,10.255" transform="translate(-931.735 -320.221)" fill="none" stroke="#161615" stroke-linecap="round" stroke-linejoin="round" stroke-width="0.591"/>
          <path id="Path_840" data-name="Path 840" d="M1035.339,625.853s-6.3,16.4-2.168,41.51" transform="translate(-946.614 -374.101)" fill="none" stroke="#161615" stroke-linecap="round" stroke-linejoin="round" stroke-width="0.591"/>
          <path id="Path_841" data-name="Path 841" d="M999.837,539.878a25.237,25.237,0,0,1,9.941,12.359c5.617,14.291,2.136,77.964,0,92.4,0,0-.944,5.973-.567,9.412" transform="translate(-932.786 -336.865)" fill="none" stroke="#161615" stroke-linecap="round" stroke-linejoin="round" stroke-width="0.591"/>
          <path id="Path_842" data-name="Path 842" d="M1026.889,665.725s-6.359,5.631-6.754,9.99" transform="translate(-941.577 -391.369)" fill="none" stroke="#161615" stroke-linecap="round" stroke-linejoin="round" stroke-width="0.591"/>
          <ellipse id="Ellipse_4" data-name="Ellipse 4" cx="4.033" cy="4.383" rx="4.033" ry="4.383" transform="translate(73.308 317.189)" fill="none" stroke="#161615" stroke-linecap="round" stroke-linejoin="round" stroke-width="0.591"/>
          <path id="Path_843" data-name="Path 843" d="M1023.85,753.386s3.77,12.617,3.884,18.024" transform="translate(-943.186 -429.335)" fill="none" stroke="#161615" stroke-linecap="round" stroke-linejoin="round" stroke-width="0.591"/>
          <path id="Path_844" data-name="Path 844" d="M1019.93,756.746a14.971,14.971,0,0,0,0,5.443c.606,2.173.716,10.866,0,13.228" transform="translate(-941.372 -430.791)" fill="none" stroke="#161615" stroke-linecap="round" stroke-linejoin="round" stroke-width="0.591"/>
          <path id="Path_845" data-name="Path 845" d="M1005.89,627.869s8.6,2.917,9.211,8.4" transform="translate(-935.407 -374.974)" fill="none" stroke="#161615" stroke-linecap="round" stroke-linejoin="round" stroke-width="0.591"/>
          <path id="Path_846" data-name="Path 846" d="M1005.89,646.514s8.531,2.646,9.167,6.141" transform="translate(-935.407 -383.049)" fill="none" stroke="#161615" stroke-linecap="round" stroke-linejoin="round" stroke-width="0.591"/>
          <line id="Line_100" data-name="Line 100" y2="183.654" transform="translate(65.596)" fill="none" stroke="#161615" stroke-miterlimit="10" stroke-width="0.6"/>
        </g>
        <g id="texter_linjer" data-name="texter &amp; linjer" transform="translate(0 14.088)">
          <g id="Group_175" data-name="Group 175" transform="translate(116.245 2.486)">
            <line id="Line_101" data-name="Line 101" x2="28.361" transform="translate(0.677 0.714)" fill="none" stroke="#161615" stroke-miterlimit="10" stroke-width="0.335"/>
            <path id="Path_847" data-name="Path 847" d="M1007.492,212.133a.714.714,0,1,1,.714-.714.714.714,0,0,1-.714.714" transform="translate(-1006.778 -210.705)" fill="#161615"/>
          </g>
          <g id="Group_176" data-name="Group 176" transform="translate(116.245 36.812)">
            <line id="Line_102" data-name="Line 102" x2="28.361" transform="translate(0.677 0.714)" fill="none" stroke="#161615" stroke-miterlimit="10" stroke-width="0.335"/>
            <path id="Path_848" data-name="Path 848" d="M1007.492,272.682a.714.714,0,1,1,.714-.714.714.714,0,0,1-.714.714" transform="translate(-1006.778 -271.254)" fill="#161615"/>
          </g>
          <g id="Group_177" data-name="Group 177" transform="translate(123.915 8.491)">
            <line id="Line_103" data-name="Line 103" x2="20.692" transform="translate(0.675 0.715)" fill="none" stroke="#161615" stroke-miterlimit="10" stroke-width="0.335"/>
            <path id="Path_849" data-name="Path 849" d="M1021.022,222.724a.714.714,0,1,1,.714-.714.714.714,0,0,1-.714.714" transform="translate(-1020.308 -221.296)" fill="#161615"/>
          </g>
          <g id="Group_178" data-name="Group 178" transform="translate(125.552 15.483)">
            <line id="Line_104" data-name="Line 104" x2="19.05" transform="translate(0.679 0.714)" fill="none" stroke="#161615" stroke-miterlimit="10" stroke-width="0.335"/>
            <path id="Path_850" data-name="Path 850" d="M1023.912,235.058a.714.714,0,1,1,.714-.714.714.714,0,0,1-.714.714" transform="translate(-1023.198 -233.63)" fill="#161615"/>
          </g>
          <g id="Group_179" data-name="Group 179" transform="translate(55.068 44.919)">
            <line id="Line_105" data-name="Line 105" x1="36.528" transform="translate(0 0.714)" fill="none" stroke="#161615" stroke-miterlimit="10" stroke-width="0.335"/>
            <path id="Path_851" data-name="Path 851" d="M962.69,285.555a.714.714,0,1,1-.714.714.714.714,0,0,1,.714-.714" transform="translate(-926.198 -285.555)" fill="#161615"/>
          </g>
          <text id="N._Occipitalis_major" data-name="N. Occipitalis major" transform="translate(146.623 4)" fill="#161615" font-size="4" font-family="ArialMT, Arial"><tspan x="0" y="0">N. Occipitalis major</tspan></text>
          <text id="N._Occipitalis_minor" data-name="N. Occipitalis minor" transform="translate(146.623 10.556)" fill="#161615" font-size="4" font-family="ArialMT, Arial"><tspan x="0" y="0">N. Occipitalis minor</tspan></text>
          <text id="N._Auricularis_minor" data-name="N. Auricularis minor" transform="translate(146.624 17.044)" fill="#161615" font-size="4" font-family="ArialMT, Arial"><tspan x="0" y="0">N. Auricularis minor</tspan></text>
          <text id="Bakre_cervikala_hudgrenar" data-name="Bakre cervikala hudgrenar" transform="translate(146.624 37.905)" fill="#161615" font-size="4" font-family="ArialMT, Arial"><tspan x="0" y="0">Bakre cervikala hudgrenar</tspan></text>
          <text id="Bakre_thorakala_hudgrenar" data-name="Bakre thorakala  hudgrenar" transform="translate(167.292 75.53)" fill="#161615" font-size="4" font-family="ArialMT, Arial"><tspan x="0" y="0">Bakre thorakala </tspan><tspan x="0" y="3">hudgrenar</tspan></text>
          <text id="Laterala_grenar_från_Nn._Intercostales" data-name="Laterala  grenar från  Nn. Intercostales" transform="translate(167.292 87.375)" fill="#161615" font-size="5" font-family="ArialMT, Arial"><tspan x="0" y="0">Laterala </tspan><tspan x="0" y="4">grenar från </tspan><tspan x="0" y="8">Nn. Intercostales</tspan></text>
          <text id="Bakre_lumbala_hudgrenar" data-name="Bakre lumbala  hudgrenar" transform="translate(168.738 133.115)" fill="#161615" font-size="4" font-family="ArialMT, Arial"><tspan x="0" y="0">Bakre lumbala </tspan><tspan x="0" y="3">hudgrenar</tspan></text>
          <text id="N._Tibialis" data-name="N. Tibialis" transform="translate(149.161 308)" fill="#161615" font-size="4" font-family="ArialMT, Arial"><tspan x="0" y="0">N. </tspan><tspan y="0" letter-spacing="-0.04em">T</tspan><tspan y="0">ibialis</tspan></text>
          <text id="N._Plantaris_medialis" data-name="N. Plantaris medialis" transform="translate(149.161 321.738)" fill="#161615" font-size="4" font-family="ArialMT, Arial"><tspan x="0" y="0">N. Plantaris medialis</tspan></text>
          <text id="N._Plantaris_lateralis" data-name="N. Plantaris lateralis" transform="translate(149.161 328.107)" fill="#161615" font-size="4" font-family="ArialMT, Arial"><tspan x="0" y="0">N. Plantaris lateralis</tspan></text>
          <text id="N._Iliohypo-_gastricus" data-name="N. Iliohypo- gastricus" transform="translate(168.738 150.544)" fill="#161615" font-size="4" font-family="ArialMT, Arial"><tspan x="0" y="0">N. Iliohypo-</tspan><tspan x="0" y="3">gastricus</tspan></text>
          <text id="N._Radialis" data-name="N. Radialis" transform="translate(176.536 161.767)" fill="#161615" font-size="4" font-family="ArialMT, Arial"><tspan x="0" y="0">N. Radialis</tspan></text>
          <text id="N._Ulnaris" data-name="N. Ulnaris" transform="translate(19.613 164.964)" fill="#161615" font-size="4" font-family="ArialMT, Arial"><tspan x="0" y="0">N. Ulnaris</tspan></text>
          <text id="Bakre_sakrala_hudgrenar" data-name="Bakre sakrala  hudgrenar" transform="translate(157.196 209.434)" fill="#161615" font-size="4" font-family="ArialMT, Arial"><tspan x="0" y="0">Bakre sakrala </tspan><tspan x="0" y="3">hudgrenar</tspan></text>
          <text id="N._Cutaneus_femoralis_posterior" data-name="N. Cutaneus  femoralis posterior" transform="translate(149.161 228.529)" fill="#161615" font-size="4" font-family="ArialMT, Arial"><tspan x="0" y="0">N. Cutaneus </tspan><tspan x="0" y="3">femoralis posterior</tspan></text>
          <text id="_super_cialis" data-name="  superﬁcialis" transform="translate(149.161 253.974)" fill="#161615" font-size="4" font-family="ArialMT, Arial"><tspan x="0" y="0" xml:space="preserve">  superﬁcialis</tspan></text>
          <text id="N._Saphenus" data-name="N. Saphenus" transform="translate(14.564 259.808)" fill="#161615" font-size="4" font-family="ArialMT, Arial"><tspan x="0" y="0">N. Saphenus</tspan></text>
          <g id="Group_180" data-name="Group 180" transform="translate(44.565 65.803)">
            <line id="Line_106" data-name="Line 106" x1="18.63" transform="translate(0 0.714)" fill="none" stroke="#161615" stroke-miterlimit="10" stroke-width="0.335"/>
            <path id="Path_852" data-name="Path 852" d="M912.591,322.394a.714.714,0,1,1-.714.714.714.714,0,0,1,.714-.714" transform="translate(-893.997 -322.394)" fill="#161615"/>
          </g>
          <g id="Group_181" data-name="Group 181" transform="translate(126.981 74.133)">
            <line id="Line_107" data-name="Line 107" x2="37.811" transform="translate(0.68 0.714)" fill="none" stroke="#161615" stroke-miterlimit="10" stroke-width="0.335"/>
            <path id="Path_853" data-name="Path 853" d="M1026.432,338.516a.714.714,0,1,1,.714-.714.714.714,0,0,1-.714.714" transform="translate(-1025.718 -337.088)" fill="#161615"/>
          </g>
          <g id="Group_182" data-name="Group 182" transform="translate(128.426 131.714)">
            <line id="Line_108" data-name="Line 108" y1="10.388" x2="37.717" transform="translate(0.681)" fill="none" stroke="#161615" stroke-miterlimit="10" stroke-width="0.335"/>
            <path id="Path_854" data-name="Path 854" d="M1028.982,457.154a.714.714,0,1,1,.714-.714.714.714,0,0,1-.714.714" transform="translate(-1028.268 -446.051)" fill="#161615"/>
          </g>
          <g id="Group_183" data-name="Group 183" transform="translate(140.36 148.704)">
            <line id="Line_109" data-name="Line 109" x2="25.878" transform="translate(0.681 0.714)" fill="none" stroke="#161615" stroke-miterlimit="10" stroke-width="0.335"/>
            <path id="Path_855" data-name="Path 855" d="M1050.032,470.058a.714.714,0,1,1,.714-.714.714.714,0,0,1-.714.714" transform="translate(-1049.318 -468.63)" fill="#161615"/>
          </g>
          <g id="Group_184" data-name="Group 184" transform="translate(127.083 226.658)">
            <line id="Line_110" data-name="Line 110" x2="19.822" transform="translate(0.68 0.714)" fill="none" stroke="#161615" stroke-miterlimit="10" stroke-width="0.335"/>
            <path id="Path_856" data-name="Path 856" d="M1026.612,607.568a.714.714,0,1,1,.714-.714.714.714,0,0,1-.714.714" transform="translate(-1025.898 -606.14)" fill="#161615"/>
          </g>
          <g id="Group_185" data-name="Group 185" transform="translate(123.765 306.112)">
            <line id="Line_111" data-name="Line 111" x2="23.185" transform="translate(0.634 0.715)" fill="none" stroke="#161615" stroke-miterlimit="10" stroke-width="0.335"/>
            <path id="Path_857" data-name="Path 857" d="M1020.685,747.724a.715.715,0,1,1,.754-.714.735.735,0,0,1-.754.714" transform="translate(-1020.009 -746.295)" fill="#161615"/>
          </g>
          <g id="Group_186" data-name="Group 186" transform="translate(125.499 320.284)">
            <line id="Line_112" data-name="Line 112" x2="21.446" transform="translate(0.639 0.715)" fill="none" stroke="#161615" stroke-miterlimit="10" stroke-width="0.335"/>
            <path id="Path_858" data-name="Path 858" d="M1023.745,772.724a.715.715,0,1,1,.754-.714.735.735,0,0,1-.754.714" transform="translate(-1023.07 -771.295)" fill="#161615"/>
          </g>
          <g id="Group_187" data-name="Group 187" transform="translate(132.185 252.469)">
            <line id="Line_113" data-name="Line 113" x2="14.719" transform="translate(0.679 0.714)" fill="none" stroke="#161615" stroke-miterlimit="10" stroke-width="0.335"/>
            <path id="Path_859" data-name="Path 859" d="M1035.612,653.1a.714.714,0,1,1,.714-.714.714.714,0,0,1-.714.714" transform="translate(-1034.898 -651.671)" fill="#161615"/>
          </g>
          <g id="Group_188" data-name="Group 188" transform="translate(48.266 223.926)">
            <line id="Line_114" data-name="Line 114" x1="54.265" transform="translate(0 0.714)" fill="none" stroke="#161615" stroke-miterlimit="10" stroke-width="0.335"/>
            <path id="Path_860" data-name="Path 860" d="M981.978,602.749a.714.714,0,1,0-.714-.714.714.714,0,0,0,.714.714" transform="translate(-927.75 -601.321)" fill="#161615"/>
          </g>
          <g id="Group_189" data-name="Group 189" transform="translate(45.917 258.5)">
            <line id="Line_115" data-name="Line 115" x1="56.614" transform="translate(0 0.714)" fill="none" stroke="#161615" stroke-miterlimit="10" stroke-width="0.335"/>
            <path id="Path_861" data-name="Path 861" d="M981.978,663.737a.714.714,0,1,0-.714-.714.714.714,0,0,0,.714.714" transform="translate(-925.401 -662.309)" fill="#161615"/>
          </g>
          <g id="Group_190" data-name="Group 190" transform="translate(46.204 231.222)">
            <line id="Line_116" data-name="Line 116" x1="56.326" y1="13.721" fill="none" stroke="#161615" stroke-miterlimit="10" stroke-width="0.335"/>
            <path id="Path_862" data-name="Path 862" d="M981.978,638.562a.714.714,0,1,0-.714-.714.714.714,0,0,0,.714.714" transform="translate(-925.688 -624.127)" fill="#161615"/>
          </g>
          <g id="Group_191" data-name="Group 191" transform="translate(118.666 325.853)">
            <line id="Line_117" data-name="Line 117" x2="28.242" transform="translate(0.677 0.714)" fill="none" stroke="#161615" stroke-miterlimit="10" stroke-width="0.335"/>
            <path id="Path_863" data-name="Path 863" d="M1011.762,782.545a.714.714,0,1,1,.714-.714.714.714,0,0,1-.714.714" transform="translate(-1011.048 -781.117)" fill="#161615"/>
          </g>
          <g id="Group_192" data-name="Group 192" transform="translate(46.313 199.347)">
            <line id="Line_118" data-name="Line 118" x1="37.026" y2="13.705" transform="translate(0 0.714)" fill="none" stroke="#161615" stroke-miterlimit="10" stroke-width="0.335"/>
            <path id="Path_864" data-name="Path 864" d="M948.125,559.392a.714.714,0,1,0-.714-.714.714.714,0,0,0,.714.714" transform="translate(-911.135 -557.964)" fill="#161615"/>
          </g>
          <g id="Group_193" data-name="Group 193" transform="translate(124.333 163.895)">
            <line id="Line_119" data-name="Line 119" x2="30.605" y2="43.672" transform="translate(0.68 0.714)" fill="none" stroke="#161615" stroke-miterlimit="10" stroke-width="0.335"/>
            <path id="Path_865" data-name="Path 865" d="M1021.762,496.855a.714.714,0,1,1,.714-.714.714.714,0,0,1-.714.714" transform="translate(-1021.048 -495.427)" fill="#161615"/>
          </g>
          <g id="Group_194" data-name="Group 194" transform="translate(136.817 84.661)">
            <line id="Line_120" data-name="Line 120" x2="27.976" transform="translate(0.679 0.714)" fill="none" stroke="#161615" stroke-miterlimit="10" stroke-width="0.335"/>
            <path id="Path_866" data-name="Path 866" d="M1043.782,357.088a.714.714,0,1,1,.714-.714.714.714,0,0,1-.714.714" transform="translate(-1043.068 -355.66)" fill="#161615"/>
          </g>
          <g id="Group_195" data-name="Group 195" transform="translate(46.298 138.055)">
            <line id="Line_121" data-name="Line 121" x1="12.028" transform="translate(0 0.714)" fill="none" stroke="#161615" stroke-miterlimit="10" stroke-width="0.335"/>
            <path id="Path_867" data-name="Path 867" d="M904,449.845a.714.714,0,1,1-.714.714.714.714,0,0,1,.714-.714" transform="translate(-892.009 -449.845)" fill="#161615"/>
          </g>
          <g id="Group_196" data-name="Group 196" transform="translate(164.232 160.329)">
            <line id="Line_122" data-name="Line 122" x2="9.923" transform="translate(0.678 0.714)" fill="none" stroke="#161615" stroke-miterlimit="10" stroke-width="0.335"/>
            <path id="Path_868" data-name="Path 868" d="M1092.142,490.565a.714.714,0,1,1,.714-.714.714.714,0,0,1-.714.714" transform="translate(-1091.428 -489.137)" fill="#161615"/>
          </g>
          <g id="Group_197" data-name="Group 197" transform="translate(44.565 163.895)">
            <line id="Line_123" data-name="Line 123" x1="19.392" y1="16.007" fill="none" stroke="#161615" stroke-miterlimit="10" stroke-width="0.335"/>
            <path id="Path_869" data-name="Path 869" d="M913.935,522.4a.714.714,0,1,1-.714.714.714.714,0,0,1,.714-.714" transform="translate(-894.579 -507.11)" fill="#161615"/>
          </g>
          <g id="Group_198" data-name="Group 198" transform="translate(41.206 175.914)">
            <line id="Line_124" data-name="Line 124" x1="4.541" y2="22.886" transform="translate(0 0.688)" fill="none" stroke="#161615" stroke-miterlimit="10" stroke-width="0.335"/>
            <path id="Path_870" data-name="Path 870" d="M882.334,517.848a.714.714,0,1,0-1.01,0,.714.714,0,0,0,1.01,0" transform="translate(-877.315 -516.629)" fill="#161615"/>
          </g>
          <g id="Group_199" data-name="Group 199" transform="translate(47.447 187.229)">
            <line id="Line_125" data-name="Line 125" x1="1.559" y2="11.604" transform="translate(0 0.688)" fill="none" stroke="#161615" stroke-miterlimit="10" stroke-width="0.335"/>
            <path id="Path_871" data-name="Path 871" d="M888.083,537.8a.714.714,0,1,0-1.01,0,.714.714,0,0,0,1.01,0" transform="translate(-886.046 -536.586)" fill="#161615"/>
          </g>
          <g id="Group_200" data-name="Group 200" transform="translate(53.85 191.058)">
            <line id="Line_126" data-name="Line 126" x1="0.995" y2="7.744" transform="translate(0 0.687)" fill="none" stroke="#161615" stroke-miterlimit="10" stroke-width="0.335"/>
            <path id="Path_872" data-name="Path 872" d="M898.385,544.56a.714.714,0,1,0-1.01,0,.714.714,0,0,0,1.01,0" transform="translate(-896.911 -543.341)" fill="#161615"/>
          </g>
          <g id="Group_201" data-name="Group 201" transform="translate(60.072 190.492)">
            <line id="Line_127" data-name="Line 127" x1="0.702" y2="8.311" transform="translate(0.039 0.687)" fill="none" stroke="#161615" stroke-miterlimit="10" stroke-width="0.335"/>
            <path id="Path_873" data-name="Path 873" d="M908.91,543.56a.714.714,0,1,0-1.01,0,.714.714,0,0,0,1.01,0" transform="translate(-907.691 -542.341)" fill="#161615"/>
          </g>
          <line id="Line_128" data-name="Line 128" x1="27.502" transform="translate(32.608 199.489)" fill="none" stroke="#161615" stroke-miterlimit="10" stroke-width="0.335"/>
          <text id="N._Supraclavicularis" data-name="N. Supraclavicularis" transform="translate(5.89 46.579)" fill="#161615" font-size="4" font-family="ArialMT, Arial"><tspan x="0" y="0">N. Supraclavicularis</tspan></text>
          <text id="N._Axillaris" data-name="N. Axillaris" transform="translate(18.321 67.372)" fill="#161615" font-size="4" font-family="ArialMT, Arial"><tspan x="0" y="0">N. Axillaris</tspan></text>
          <g id="Group" transform="translate(8.294 84.166)">
            <text id="N._Cutaneus" data-name="N. Cutaneus" transform="translate(3.5 4)" fill="#161615" font-size="4" font-family="ArialMT, Arial"><tspan x="0" y="0">N. Cutaneus</tspan></text>
            <text id="brachii_medialis" data-name="brachii medialis" transform="translate(0 8.5)" fill="#161615" font-size="4" font-family="ArialMT, Arial"><tspan x="0" y="0">brachii medialis</tspan></text>
          </g>
          <g id="Group-2" data-name="Group" transform="translate(2.121 109.721)">
            <text id="N._Cutaneus-2" data-name="N. Cutaneus" transform="translate(8.609 4)" fill="#161615" font-size="4" font-family="ArialMT, Arial"><tspan x="0" y="0">N. Cutaneus</tspan></text>
            <text id="antebrachii_medialis" data-name="antebrachii medialis" transform="translate(0 8.5)" fill="#161615" font-size="4" font-family="ArialMT, Arial"><tspan x="0" y="0">antebrachii medialis</tspan></text>
          </g>
          <g id="Group-3" data-name="Group" transform="translate(2.705 135.342)">
            <text id="N._Cutaneus-3" data-name="N. Cutaneus" transform="translate(8.025 4)" fill="#161615" font-size="4" font-family="ArialMT, Arial"><tspan x="0" y="0">N. Cutaneus</tspan></text>
            <text id="antebrachii_lateralis" data-name="antebrachii lateralis" transform="translate(0 8.5)" fill="#161615" font-size="4" font-family="ArialMT, Arial"><tspan x="0" y="0">antebrachii lateralis</tspan></text>
          </g>
          <g id="Group-4" data-name="Group" transform="translate(5.961 210.803)">
            <text id="N._Cutaneus-4" data-name="N. Cutaneus" transform="translate(5.832 4)" fill="#161615" font-size="4" font-family="ArialMT, Arial"><tspan x="0" y="0">N. Cutaneus</tspan></text>
            <text id="femoralis_lateralis" data-name="femoralis lateralis" transform="translate(0 8.5)" fill="#161615" font-size="4" font-family="ArialMT, Arial"><tspan x="0" y="0">femoralis lateralis</tspan></text>
          </g>
          <text id="N._Obturatorius" data-name="N. Obturatorius" transform="translate(9.134 225.805)" fill="#161615" font-size="4" font-family="ArialMT, Arial"><tspan x="0" y="0">N. Obturatorius</tspan></text>
          <text id="N._Femoralis" data-name="N. Femoralis" transform="translate(14.385 232.134)" fill="#161615" font-size="4" font-family="ArialMT, Arial"><tspan x="0" y="0">N. Femoralis</tspan></text>
          <text id="N._Suralis" data-name="N. Suralis" transform="translate(18.314 302.345)" fill="#161615" font-size="4" font-family="ArialMT, Arial"><tspan x="0" y="0">N. Suralis</tspan></text>
          <text id="N._Medianus" data-name="N. Medianus" transform="translate(0 199.893)" fill="#161615" font-size="4" font-family="ArialMT, Arial"><tspan x="0" y="0">N. Medianus</tspan></text>
          <g id="Group_202" data-name="Group 202" transform="translate(43.903 300.685)">
            <line id="Line_129" data-name="Line 129" x1="51.77" transform="translate(0 0.714)" fill="none" stroke="#161615" stroke-miterlimit="10" stroke-width="0.335"/>
            <path id="Path_874" data-name="Path 874" d="M969.879,736.721a.714.714,0,1,1-.714.714.714.714,0,0,1,.714-.714" transform="translate(-918.146 -736.721)" fill="#161615"/>
          </g>
          <g id="Group_203" data-name="Group 203" transform="translate(46.204 86.314)">
            <line id="Line_130" data-name="Line 130" x1="29.235" y2="0.051" transform="translate(0 0.714)" fill="none" stroke="#161615" stroke-miterlimit="10" stroke-width="0.335"/>
            <path id="Path_875" data-name="Path 875" d="M934.189,358.576a.714.714,0,1,1-.714.714.714.714,0,0,1,.714-.714" transform="translate(-904.99 -358.576)" fill="#161615"/>
          </g>
          <g id="Group_204" data-name="Group 204" transform="translate(46.313 112.876)">
            <line id="Line_131" data-name="Line 131" x1="27.991" y1="11.294" fill="none" stroke="#161615" stroke-miterlimit="10" stroke-width="0.335"/>
            <path id="Path_876" data-name="Path 876" d="M932.189,424.093a.714.714,0,1,1-.714.714.714.714,0,0,1,.714-.714" transform="translate(-904.234 -413.513)" fill="#161615"/>
          </g>
        </g>
      </g>
    </g>
  </g>
</svg>
