<svg xmlns="http://www.w3.org/2000/svg" xmlns:xlink="http://www.w3.org/1999/xlink" width="278" height="480" viewBox="0 0 278 480">
  <defs>
    <clipPath id="clip-Centrala-fram">
      <rect width="278" height="480"/>
    </clipPath>
  </defs>
  <g id="Centrala-fram" clip-path="url(#clip-Centrala-fram)">
    <rect width="278" height="480" fill="rgba(0,0,0,0)"/>
    <g id="Centrala-fram-2" data-name="Centrala-fram" transform="translate(761.116 -174.336)">
      <text id="C" transform="translate(-602.697 237.495)" fill="#161615" font-size="6" font-family="ArialMT, Arial"><tspan x="0" y="0">C</tspan></text>
      <text id="_2" data-name="2" transform="translate(-596.149 237.495)" fill="#161615" font-size="6" font-family="ArialMT, Arial"><tspan x="0" y="0">2</tspan></text>
      <line id="Line_55" data-name="Line 55" x2="23.855" transform="translate(-616.048 238.336)" fill="none" stroke="#161615" stroke-miterlimit="10" stroke-width="0.335"/>
      <g id="Group_132" data-name="Group 132" transform="translate(-719.237 179.339)">
        <path id="Path_615" data-name="Path 615" d="M-581.239,256.946a.966.966,0,0,1-.966-.966.966.966,0,0,1,.966-.965.966.966,0,0,1,.966.965.966.966,0,0,1-.966.966" transform="translate(684.468 -196.983)" fill="#161615"/>
        <line id="Line_56" data-name="Line 56" x1="23.855" transform="translate(53.581 58.997)" fill="none" stroke="#161615" stroke-miterlimit="10" stroke-width="0.335"/>
        <path id="Path_616" data-name="Path 616" d="M-614.841,255.014a.966.966,0,0,1,.966.966.966.966,0,0,1-.966.965.966.966,0,0,1-.966-.965.966.966,0,0,1,.966-.966" transform="translate(692.256 -196.983)" fill="#161615"/>
        <path id="Path_617" data-name="Path 617" d="M-625.554,236.735s.364.86,1.349,0" transform="translate(694.515 -192.721)" fill="#ffe8c0"/>
        <path id="Path_618" data-name="Path 618" d="M-624.329,227.529c1.575,1.665,4.978,4.12,6.408,5.952a44.38,44.38,0,0,1,5.754,10.171c1.73,4.734,5.374,4.23,7.11,4.617a5.653,5.653,0,0,0,6.167-3.416c2.06-4.638,3.092-7.273,5.1-9.873,3.319-4.291,4.585-3.849,6.375-5.912,2.415-2.784,3.988-6.2,3.391-5.717-.066.054,2.291-5.676,2.964-8.48.372-1.551-.761-.955-.761-.955s.087-1.886.129-7.719-.832-12.515-2.916-16.834c-3.261-6.757-12.408-10.027-20.585-10.027-5.491,0-8.257.588-14.284,4-6.521,3.692-7.314,10.11-8.256,15.483s-.422,14.914-.422,14.914-.8.081-1.286.111c0,0,2.765,11.2,5.111,13.68" transform="translate(695.458 -179.339)" fill="#ffe8c0"/>
        <path id="Path_619" data-name="Path 619" d="M-536.741,445.432c-.948-1.659-1.393-4.336-3.958-9-2.12-3.851-4.131-4.307-6.17-6.271a18.622,18.622,0,0,1-4.276-9.332c-.69-3.777-.807-13.326-.807-13.326-.219-7.452-.489-17.765-.419-21.307.114-5.778-2.043-13.708-3.286-18.466s-.119-11.329-.005-18.126-2.043-22.771-1.475-31.721.567-17.673.567-17.673q0-.284-.015-.567a26.489,26.489,0,0,0-11.333-20.165c-4.571-3.145-9.3-3.965-15.547-6.684s-16.115-6-21.449-8.61-4.431-11.106-4.35-13.937l.045-1.139a14.189,14.189,0,0,0,2.417-4.544c.815-2.386,1.742-3.751,2.042-5.419.008-.05.015-.107.022-.161.042-.294,2.074,1.027,2.391-.642,1.7-8.942,2.707-5.875,3.1-11.21.21-2.816-1.3-2.785-1.275-2.817.363-.465-1.958,7.314-4.217,12.107-1.125,2.389-4.244,4.346-8.324,8.309A17.8,17.8,0,0,0-617.8,253.2c-1.409,5.4-6.212,5.393-8.092,5.4-2.484,0-5.893-.587-7.546-7.657-.685-2.929-2.116-4.11-4.366-6.989-1.431-1.831-5.889-4.612-6.949-6.645-.174-.334-5.073-12.748-4.589-12.986.55-.27-1.672-.023-1.493,2.818a22.316,22.316,0,0,0,2.179,6.685c-.687,3.889,1.9,5.039,1.9,5.039l1.132.383c.483,1.153,1.46,3.551,1.987,5.325,1.114,3.745,2.411,4.1,2.422,4.514.081,2.83.983,12.5-4.35,15.1-4.372,2.136-12.4,4.728-18.591,7.09h0c-1.362.52-2.64,1.029-3.765,1.52-6.242,2.718-10.9,3.661-15.548,6.684A26.124,26.124,0,0,0-694.8,299.646q-.013.283-.016.567s0,8.724.568,17.673-1.589,24.923-1.476,31.721,1.239,13.368,0,18.126-3.4,12.688-3.286,18.466c.081,4.149-.129,14.144-.382,21.88,0,0,.137,8.727-1.108,13.876a18.469,18.469,0,0,1-3.757,7.825c-.073.076-.143.153-.218.226-2.053,1.993-4.074,2.431-6.206,6.3-2.565,4.662-3.011,7.339-3.958,9-1.056,1.847-.876,3.606.588,3.623s2.777-2.012,4.1-4.6,3.131-3.867,3.207-2.036a41.808,41.808,0,0,1-1.556,9.586c-.851,2.867-1.3,5.314-1.844,7.309s-.669,5.043.791,5.369c2.058.465,2.256-3.068,3.2-6.088s2.162-8,3.068-7.571.3,6.808.2,10.539-.713,7.891,1.24,8.238c2.67.474,2.6-5.423,2.888-8.937s.667-7.947,1.662-8.2,1.649,10.081,1.762,13.452c.067,2.023.688,2.973,2.219,2.949,1.917-.031,1.633-3.576,1.408-7.915-.2-3.892-.953-9.33.181-8.992.432.127,1.269,2.886,1.965,6.146.607,2.85,1.185,7.262,2.652,6.925,2.373-.547.614-4.838.187-9.758-.457-5.281-.617-6.214-.168-8.07.82-3.384.862-8.866.64-12.709a15.794,15.794,0,0,0-.752-3.519c-.959-4.267,2.064-11.881,2.064-11.881,1.815-4.758,7.83-20.166,9.987-29.568s2.5-17.334,3.518-23.337,1.7-9.517,1.7-14.388a19.66,19.66,0,0,1,1.95-8.475c-.717-1.045-2.62-33.366-3.29-30.479-1.52,6.554-2.858,40.239-5.2,67.374-.611,7.074-2.452,6.171-3.891,11.214-2.172,7.607-5.777,13.788-8.547,19.667-6.82,14.468-6.214,12.441-6.214,12.441s-.483,1.652.665-3.625c.724-3.327,3.324-11.542,4.478-16.924.677-3.157.149-5.308.768-7.714,1.793-6.962,2.315-12.355,3.279-16.219s1.057-6.472,1.43-11.8.2-21.919.364-26.284.183-13,.662-16.552.417-11.08,1.051-12.836,1.838-10.769,2.541-14.663c1.634-9.053,7.254-9.741,12.917-10.457s14.273,1.161,20.117,1.4,6.373.879,20.8.879,17.733-1.1,22.947-.879c7.448.321,16.8-2.816,24.056-.347,6.121,2.083,8.408,11.722,8.984,21.883.081,1.44.844,7.284,1.455,11.7.273,1.961.487,6.906.522,9.334q.2,13.327.717,22.269c.668,11.5-.739,13.721,0,18.517.531,3.447,1.919,12.937,4.116,21.331.976,3.734,1.626,7.377,2.323,10.616,2.263,10.525,2.948,16.476,3.586,19.374s.633,2,.633,2l-4.632-9.893c-2.021-4.319-4.859-10.338-6.52-14.582-1.052-2.689-5.518-12.336-6.289-15.037-1.985-6.967-2.481-6.658-2.975-15.119-.622-10.638-1.342-44.094-3.16-55.828-.9-5.78-3.192,23.1-3.744,28.6a22.3,22.3,0,0,1,2.192,9.113c0,4.872.681,8.384,1.7,14.388s1.362,13.934,3.518,23.337,8.171,24.81,9.986,29.568c0,0,3.024,7.739,2.065,12.006a15.811,15.811,0,0,0-.753,3.518c-.221,3.844-.179,9.325.641,12.711.449,1.853.289,2.786-.169,8.066-.428,4.923-2.186,9.212.187,9.76,1.467.337,2.044-4.075,2.653-6.925.7-3.258,1.533-6.016,1.964-6.146,1.134-.337.384,5.1.181,8.994-.225,4.338-.509,7.882,1.409,7.912,1.53.025,2.152-.923,2.217-2.947.113-3.372.769-13.708,1.763-13.453s1.375,4.691,1.662,8.2.217,9.414,2.887,8.94c1.954-.347,1.338-4.509,1.241-8.24s-.707-10.107.2-10.538,2.125,4.544,3.067,7.569,1.142,6.553,3.2,6.087c1.46-.325,1.337-3.375.791-5.369s-.993-4.441-1.844-7.308a41.667,41.667,0,0,1-1.556-9.583c.018-.432.134-.686.315-.8l.025.021-.008-.034c.6-.323,1.874.884,2.874,2.842,1.321,2.589,2.634,4.625,4.1,4.6s1.644-1.777.588-3.625" transform="translate(715.322 -189.806)" fill="#d0e1b6"/>
        <path id="Path_620" data-name="Path 620" d="M-571.933,347.917c0,8.806.773,30.943,1.343,40.935.483,8.463.483,6.271,2.47,13.238.77,2.7,4.861,12.12,5.913,14.808,1.663,4.245,3.558,9.64,6.021,13.725a71.138,71.138,0,0,1,6.023,12.861s-1.112-7-1.749-9.893-1.466-6.537-3.732-17.062c-.7-3.24-1.52-7.193-2.5-10.928-2.2-8.393-2.37-15.326-2.9-18.775-.739-4.794.7-4.877.031-16.38-.347-5.97-.924-21.524-1.054-30.409a81.362,81.362,0,0,0-.7-8.183c-.612-4.412-.992-9.692-1.562-11.018-.933-2.168-2.062-12.3-8.186-14.378-7.26-2.469-11.649-.775-19.085-.192a273.789,273.789,0,0,1-27.945,1.416c-14.435,0-11.5-1.358-17.172-.643s-22.6-2.576-26.393-1.426c-4.006,1.214-6.279,1.979-7.343,3.515a31.537,31.537,0,0,0-3.931,10.858c-.48,3.554-2.284,16.3-2.447,20.666s-.825,18.7-1.2,24.03,1.128,13.353.164,17.216,1.134,4.748-.659,11.71c-.62,2.406-3.256,16.317-3.932,19.473-.866,4.037-6.608,27.257-5.649,28.6.32.449,4.272-9.332,5.668-11.646,3.357-5.567,4.41-12.167,8.552-19.667.579-1.048,4.048-8.194,4.55-13.97,1-11.5,1.533-21.084,2.22-34.036,1.115-21.017,1.9-31.842,1.9-31.842.012.024,3.29,21.95,3.3,21.975.259.515,1.04,10.822,1.432,14.059l.282,3.458a28.155,28.155,0,0,1,.9,4.35c.588,5.953,1.29,4.56,1.491,16.137.01.581.022,3.643-.035,4.221a124.041,124.041,0,0,1-2.307,14.769c-.579,2.826-1.326,6.327-1.326,6.327s5.381,1.544,8.007,3.937c4.243,3.867,10.455,12.717,12.444,14.788a31.537,31.537,0,0,0,22.084,9.933c13.965,0,21.469-10.48,26.5-17.032a37.093,37.093,0,0,1,9.8-9.568c3.736-2.541,5.722-2.114,5.722-2.114l.068.118a.139.139,0,0,1-.068-.118c.045-.652-3.775-14.975-3.775-21.02,0-12.168,1.852-18.377,2.5-24.933.1-.972-.262,3.125-.143,2.091,0-.009,4.25-40.038,4.253-40.047,1.563-6.739,2.347,33.626,3.255,40.877" transform="translate(709 -208.472)" fill="#a5d7dc"/>
        <path id="Path_621" data-name="Path 621" d="M-565.676,486.567h0c-.035-2.062-.134-3.962-.31-5.631-.192-1.817-.4-3.716-.619-5.652h0c-.426-3.773-.91-7.741-1.517-11.915h0c-.321-2.214-.69-4.5-1.086-6.809,0-.005-1.07-7.031-1.07-7.031s-1.345-.311-4.607,1.249c-7.352,3.518-8.5,6.715-11,10.315-5.2,7.489-13.94,17.634-27.9,16.99-10.668-.491-18.064-6.958-20.735-9.892a72.961,72.961,0,0,1-5.421-6.223c-4.032-5.435-5.392-8.17-9.4-10.189A38.984,38.984,0,0,0-655,449.467c-.373,2.2-2.467,11.789-2.774,13.9-.619,4.266-1.113,8.322-1.545,12.168h0c-.209,1.846-.407,3.66-.59,5.4-.18,1.706-.279,3.654-.311,5.77h0c-.17,11.224,1.581,27.211,3.493,37.506.777,4.177,1.9,8.418,3.125,12.624v-.006s5.873,20.167,7.4,27.647a91.974,91.974,0,0,1,1.226,24.248c-.586,9.324-.378,26.066,1.218,35.013a24.79,24.79,0,0,1,4.036,8.444c.877,3.843,4.405,15.072,4.264,27.343-.019,1.663.141,5.366.141,11.628,0,3.467-3.3,12.41-15.933,23.332-5.591,4.836-6.46,5.624-6.514,5.681l-1.3,2.1a2.209,2.209,0,0,0-.3.85c-.128.89-.259,2.381,1.267,2.636l.418-.552c-.445.821-.755,1.607-.558,2.076a1.881,1.881,0,0,0,1.493,1.124,1.7,1.7,0,0,0,1.092-.181,1.765,1.765,0,0,0,1.6,1.67c1.275.18,1.677.289,2.587-.327a4.476,4.476,0,0,0,1.237-1.139l-.145-.72.312-.029a1.739,1.739,0,0,0-.072.456,3.191,3.191,0,0,0,3.335,3.04c2.444-.046,3.833-.715,4.839-2.436a9.9,9.9,0,0,1,1.8-2c1.079-.886,2.7-1.555,3.2-3.565s.442-4.215,1.428-5.881,7.4-7.639,9.051-9.3,3.017-3.746,3.142-5.839-.785-6.28-.936-8.324a7.372,7.372,0,0,1,1.282-4.6c.683-1.135.389-2.893.085-5.77a99.586,99.586,0,0,1,.766-18.887c.986-5.451,1.683-13.615,2.669-19.443s1.708-7.977,1.48-15.492c-.3-9.779-1.994-15.5-1.537-22.386s.5-13.264.8-20.153.152-11.885.836-15.821,1.59-8.227,2.276-14.446.243-6.9.5-13.638.869-13.7,1.1-17.562a35.124,35.124,0,0,1,.555-4.064,9.919,9.919,0,0,1-6.52-4.253c-3.009-4.324.058-10.317,6.943-10.393,6.464-.071,10.333,4.023,8.724,8.841-1.471,4.409-7.487,5.775-7.487,5.775.273,4.542,1.051,20.975,1.127,26.425s.071,8.888,1.134,14.035a106.925,106.925,0,0,1,2.056,14.276c.151,3.331,0,13.625.531,20.287s.81,17.942.051,22.938-1.57,11.5-.733,17.636,2.5,15.256,3.64,22.221,1.827,14.795,1.447,19.261-.986,7.8-.683,8.781a14.475,14.475,0,0,1,1.671,4.011c.151,1.438-.679,6.12-.7,8.4s.369,5.255,1.594,6.527,10.16,9.987,10.792,11.954c.715,2.22.625,3.324.992,4.443a17.953,17.953,0,0,0,1.088,2.454c1.82,1.841,3.189,2.3,4.2,4.014s2.394,2.39,4.839,2.436a3.191,3.191,0,0,0,3.32-2.9l.11.153a4.5,4.5,0,0,0,1.239,1.138c.909.617,1.311.508,2.585.327a1.765,1.765,0,0,0,1.6-1.67,1.7,1.7,0,0,0,1.093.181,1.883,1.883,0,0,0,1.493-1.124,2.214,2.214,0,0,0-.309-1.587l.169.064c1.526-.255,1.4-1.745,1.269-2.636a2.273,2.273,0,0,0-.295-.85l-.676-1.959c-.036-.62-2.5-1.883-17.9-17.6-2.148-2.193-3.386-5.257-4.423-8.566s-.945-9.968-.947-11.631,1.971-18.9,2.825-22.749c3.462-15.592,5.614-13.714,6.109-16.725,2.191-13.309,1.153-25.7.552-34.957,0,0-1.406-12.931,1.387-24.868s7.408-27.392,7.408-27.392h0c1.163-4.025,2.222-8.08,2.964-12.075,1.921-10.336,3.679-26.413,3.493-37.645" transform="translate(702.475 -241.629)" fill="#c1bde0"/>
        <path id="Path_622" data-name="Path 622" d="M-592.361,504.925c0-3.117-2-6.518-8.446-6.518s-8.371,3.116-8.525,7.484c-.169,4.8,6.644,7.086,8.377,7.086a12.313,12.313,0,0,0,7.467-4.119" transform="translate(690.77 -253.36)" fill="#f0c9d6"/>
        <path id="Path_623" data-name="Path 623" d="M-659.627,755.658s-.15.435-.8-.515-.087-2.45.4-3.452a24.213,24.213,0,0,1,4.608-5.34c1.81-1.5,12.648-10.814,13.667-14.051s3.548-10.893,3.737-12.036.814-9.21,0-11.137-6.047-29.975-5.911-32.406c0,0,4.718,6.731,6.4,18.316s3.177,25.755,1.742,29.868-1,8.346-17.764,24.5c-1.189,1.145-4.468,3.12-6.073,6.254" transform="translate(702.679 -294.616)" fill="#f0c9d6"/>
        <path id="Path_624" data-name="Path 624" d="M-545.241,755.658s.15.435.8-.515.11-3.8-.38-4.8-2.82-2.492-4.63-3.988S-562.1,735.541-563.118,732.3s-3.548-10.893-3.737-12.036-.814-9.21,0-11.137,6.047-29.975,5.911-32.406c0,0-4.718,6.731-6.4,18.316s-2.676,26.972-1.772,31.234c.945,4.458.844,7.109,17.795,23.13,1.2,1.134,4.468,3.12,6.073,6.254" transform="translate(681.542 -294.616)" fill="#f0c9d6"/>
      </g>
      <text id="C-2" data-name="C" transform="translate(-633.28 275.067)" fill="#161615" font-size="6" font-family="ArialMT, Arial"><tspan x="0" y="0">C</tspan></text>
      <text id="_5" data-name="5" transform="translate(-627.825 275.067)" fill="#161615" font-size="6" font-family="ArialMT, Arial"><tspan x="0" y="0">5</tspan></text>
      <text id="L" transform="translate(-633.213 422.422)" fill="#161615" font-size="6" font-family="ArialMT, Arial"><tspan x="0" y="0">L</tspan></text>
      <text id="_1" data-name="1" transform="translate(-628.881 422.422)" fill="#161615" font-size="6" font-family="ArialMT, Arial"><tspan x="0" y="0">1</tspan></text>
      <text id="L-2" data-name="L" transform="translate(-650.821 439.356)" fill="#161615" font-size="6" font-family="ArialMT, Arial"><tspan x="0" y="0">L</tspan></text>
      <text id="_2-2" data-name="2" transform="translate(-646.49 439.356)" fill="#161615" font-size="6" font-family="ArialMT, Arial"><tspan x="0" y="0">2</tspan></text>
      <text id="L-3" data-name="L" transform="translate(-615.949 439.356)" fill="#161615" font-size="6" font-family="ArialMT, Arial"><tspan x="0" y="0">L</tspan></text>
      <text id="_2-3" data-name="2" transform="translate(-611.617 439.356)" fill="#161615" font-size="6" font-family="ArialMT, Arial"><tspan x="0" y="0">2</tspan></text>
      <text id="L-4" data-name="L" transform="translate(-653.279 461.584)" fill="#161615" font-size="6" font-family="ArialMT, Arial"><tspan x="0" y="0">L</tspan></text>
      <text id="_3" data-name="3" transform="translate(-648.947 461.584)" fill="#161615" font-size="6" font-family="ArialMT, Arial"><tspan x="0" y="0">3</tspan></text>
      <text id="L-5" data-name="L" transform="translate(-612.766 461.584)" fill="#161615" font-size="6" font-family="ArialMT, Arial"><tspan x="0" y="0">L</tspan></text>
      <text id="_3-2" data-name="3" transform="translate(-608.434 461.584)" fill="#161615" font-size="6" font-family="ArialMT, Arial"><tspan x="0" y="0">3</tspan></text>
      <text id="L-6" data-name="L" transform="translate(-655.442 501.532)" fill="#161615" font-size="6" font-family="ArialMT, Arial"><tspan x="0" y="0">L</tspan></text>
      <text id="L5" transform="translate(-658.715 555.445)" fill="#161615" font-size="5" font-family="ArialMT, Arial"><tspan x="0" y="0">L5</tspan></text>
      <text id="L5-2" data-name="L5" transform="translate(-607.842 555.445)" fill="#161615" font-size="5" font-family="ArialMT, Arial"><tspan x="0" y="0">L5</tspan></text>
      <text id="_4" data-name="4" transform="translate(-651.117 501.539)" fill="#161615" font-size="6" font-family="ArialMT, Arial"><tspan x="0" y="0">4</tspan></text>
      <text id="L-7" data-name="L" transform="translate(-611.47 501.539)" fill="#161615" font-size="6" font-family="ArialMT, Arial"><tspan x="0" y="0">L</tspan></text>
      <text id="_4-2" data-name="4" transform="translate(-607.138 501.539)" fill="#161615" font-size="6" font-family="ArialMT, Arial"><tspan x="0" y="0">4</tspan></text>
      <text id="L4" transform="translate(-632.29 633.293)" fill="#161615" font-size="5" font-family="ArialMT, Arial"><tspan x="0" y="0">L4</tspan></text>
      <text id="C-3" data-name="C" transform="translate(-687.108 415.279)" fill="#161615" font-size="6" font-family="ArialMT, Arial"><tspan x="0" y="0">C</tspan></text>
      <text id="_8" data-name="8" transform="translate(-681.922 415.279)" fill="#161615" font-size="6" font-family="ArialMT, Arial"><tspan x="0" y="0">8</tspan></text>
      <text id="C-4" data-name="C" transform="translate(-580.086 415.279)" fill="#161615" font-size="6" font-family="ArialMT, Arial"><tspan x="0" y="0">C</tspan></text>
      <text id="_8-2" data-name="8" transform="translate(-574.901 415.279)" fill="#161615" font-size="6" font-family="ArialMT, Arial"><tspan x="0" y="0">8</tspan></text>
      <text id="S1" transform="translate(-576.378 610.785)" fill="#161615" font-size="6" font-family="ArialMT, Arial"><tspan x="0" y="0">S1</tspan></text>
      <text id="S1-2" data-name="S1" transform="translate(-689.423 610.785)" fill="#161615" font-size="6" font-family="ArialMT, Arial"><tspan x="0" y="0">S1</tspan></text>
      <text id="S2_S3" data-name="S2, S3" transform="translate(-571.111 485.547)" fill="#161615" font-size="6" font-family="ArialMT, Arial"><tspan x="0" y="0">S2, S3</tspan></text>
      <text id="C-5" data-name="C" transform="translate(-716.511 290.982)" fill="#161615" font-size="6" font-family="ArialMT, Arial"><tspan x="0" y="0">C</tspan></text>
      <text id="_6" data-name="6" transform="translate(-711.505 290.982)" fill="#161615" font-size="6" font-family="ArialMT, Arial"><tspan x="0" y="0">6</tspan></text>
      <text id="C-6" data-name="C" transform="translate(-552.291 290.982)" fill="#161615" font-size="6" font-family="ArialMT, Arial"><tspan x="0" y="0">C</tspan></text>
      <text id="_6-2" data-name="6" transform="translate(-547.285 290.982)" fill="#161615" font-size="6" font-family="ArialMT, Arial"><tspan x="0" y="0">6</tspan></text>
      <text id="C-7" data-name="C" transform="translate(-731.591 427.622)" fill="#161615" font-size="6" font-family="ArialMT, Arial"><tspan x="0" y="0">C</tspan></text>
      <text id="_6-3" data-name="6" transform="translate(-725.051 427.622)" fill="#161615" font-size="6" font-family="ArialMT, Arial"><tspan x="0" y="0">6</tspan></text>
      <text id="C-8" data-name="C" transform="translate(-528.807 427.622)" fill="#161615" font-size="6" font-family="ArialMT, Arial"><tspan x="0" y="0">C</tspan></text>
      <text id="_6-4" data-name="6" transform="translate(-522.268 427.622)" fill="#161615" font-size="6" font-family="ArialMT, Arial"><tspan x="0" y="0">6</tspan></text>
      <text id="Th1_" data-name="Th1 " transform="translate(-719.033 339.475)" fill="#161615" font-size="6" font-family="ArialMT, Arial"><tspan x="0" y="0">Th1</tspan></text>
      <text id="Th1_2" data-name="Th1 " transform="translate(-552.31 339.475)" fill="#161615" font-size="6" font-family="ArialMT, Arial"><tspan x="0" y="0">Th1</tspan></text>
      <line id="Line_57" data-name="Line 57" x1="19.574" transform="translate(-716.408 291.539)" fill="none" stroke="#161615" stroke-miterlimit="10" stroke-width="0.335"/>
      <g id="Group_133" data-name="Group 133" transform="translate(-697.849 290.573)">
        <path id="Path_625" data-name="Path 625" d="M-686.464,324.179a.966.966,0,0,1,.966.966.966.966,0,0,1-.966.965.966.966,0,0,1-.966-.965.966.966,0,0,1,.966-.966" transform="translate(687.43 -324.179)" fill="#161615"/>
      </g>
      <g id="Group_134" data-name="Group 134" transform="translate(-732.116 290.64)">
        <line id="Line_58" data-name="Line 58" x2="19.574" transform="translate(169.531 0.966)" fill="none" stroke="#161615" stroke-miterlimit="10" stroke-width="0.335"/>
        <path id="Path_626" data-name="Path 626" d="M-511.684,326.111a.966.966,0,0,1-.966-.966.966.966,0,0,1,.966-.965.966.966,0,0,1,.966.965.966.966,0,0,1-.966.966" transform="translate(681.203 -324.179)" fill="#161615"/>
        <line id="Line_59" data-name="Line 59" x1="19.574" transform="translate(0 137.058)" fill="none" stroke="#161615" stroke-miterlimit="10" stroke-width="0.335"/>
        <path id="Path_627" data-name="Path 627" d="M-706.947,501.65a.966.966,0,0,1,.966.966.966.966,0,0,1-.966.965.966.966,0,0,1-.966-.965.966.966,0,0,1,.966-.966" transform="translate(726.473 -365.557)" fill="#161615"/>
        <line id="Line_60" data-name="Line 60" x2="25.709" transform="translate(184.992 137.058)" fill="none" stroke="#161615" stroke-miterlimit="10" stroke-width="0.335"/>
        <path id="Path_628" data-name="Path 628" d="M-491.523,503.582a.966.966,0,0,1-.966-.966.966.966,0,0,1,.966-.965.966.966,0,0,1,.966.965.966.966,0,0,1-.966.966" transform="translate(676.563 -365.557)" fill="#161615"/>
      </g>
      <text id="C-9" data-name="C" transform="translate(-716.501 311.249)" fill="#161615" font-size="6" font-family="ArialMT, Arial"><tspan x="0" y="0">C</tspan></text>
      <text id="_5-2" data-name="5" transform="translate(-711.495 311.249)" fill="#161615" font-size="6" font-family="ArialMT, Arial"><tspan x="0" y="0">5</tspan></text>
      <text id="C-10" data-name="C" transform="translate(-552.317 311.249)" fill="#161615" font-size="6" font-family="ArialMT, Arial"><tspan x="0" y="0">C</tspan></text>
      <text id="_5-3" data-name="5" transform="translate(-547.312 311.249)" fill="#161615" font-size="6" font-family="ArialMT, Arial"><tspan x="0" y="0">5</tspan></text>
      <text id="C-11" data-name="C" transform="translate(-729.641 445.875)" fill="#161615" font-size="6" font-family="ArialMT, Arial"><tspan x="0" y="0">C</tspan></text>
      <text id="_7" data-name="7" transform="translate(-723.101 445.875)" fill="#161615" font-size="6" font-family="ArialMT, Arial"><tspan x="0" y="0">7</tspan></text>
      <text id="C-12" data-name="C" transform="translate(-528.508 445.635)" fill="#161615" font-size="6" font-family="ArialMT, Arial"><tspan x="0" y="0">C</tspan></text>
      <text id="_7-2" data-name="7" transform="translate(-521.969 445.635)" fill="#161615" font-size="6" font-family="ArialMT, Arial"><tspan x="0" y="0">7</tspan></text>
      <line id="Line_61" data-name="Line 61" x1="24.477" transform="translate(-716.501 311.805)" fill="none" stroke="#161615" stroke-miterlimit="10" stroke-width="0.335"/>
      <line id="Line_62" data-name="Line 62" x1="24.477" transform="translate(-568.438 311.805)" fill="none" stroke="#161615" stroke-miterlimit="10" stroke-width="0.335"/>
      <g id="Group_135" data-name="Group 135" transform="translate(-693.038 310.838)">
        <path id="Path_629" data-name="Path 629" d="M-680.191,350.567a.966.966,0,0,1,.966.966.966.966,0,0,1-.966.965.966.966,0,0,1-.966-.965.966.966,0,0,1,.966-.966" transform="translate(681.157 -350.567)" fill="#161615"/>
      </g>
      <g id="Group_136" data-name="Group 136" transform="translate(-730.355 310.917)">
        <path id="Path_630" data-name="Path 630" d="M-519.276,352.5a.966.966,0,0,1-.966-.966.966.966,0,0,1,.966-.965.966.966,0,0,1,.966.965.966.966,0,0,1-.966.966" transform="translate(681.197 -350.568)" fill="#161615"/>
        <path id="Path_631" data-name="Path 631" d="M-707.807,516.857l-9.488,7.949H-729.82" transform="translate(729.82 -389.339)" fill="none" stroke="#161615" stroke-miterlimit="10" stroke-width="0.335"/>
        <path id="Path_632" data-name="Path 632" d="M-702.076,515.863a.965.965,0,0,1,1.36.12.966.966,0,0,1-.12,1.36.966.966,0,0,1-1.361-.12.966.966,0,0,1,.12-1.36" transform="translate(723.432 -389.055)" fill="#161615"/>
        <line id="Line_63" data-name="Line 63" x1="4.856" transform="translate(209.43 135.467)" fill="none" stroke="#161615" stroke-miterlimit="10" stroke-width="0.335"/>
        <path id="Path_633" data-name="Path 633" d="M-497.15,516.857l9.488,7.949h21.2" transform="translate(675.889 -389.339)" fill="none" stroke="#161615" stroke-miterlimit="10" stroke-width="0.335"/>
        <path id="Path_634" data-name="Path 634" d="M-498.015,517.344a.966.966,0,0,1-.12-1.36.966.966,0,0,1,1.361-.12.965.965,0,0,1,.12,1.36.965.965,0,0,1-1.36.12" transform="translate(676.172 -389.055)" fill="#161615"/>
      </g>
      <g id="Group_137" data-name="Group 137" transform="translate(-719.237 339.278)">
        <line id="Line_64" data-name="Line 64" x1="4.238" transform="translate(197.823 88.479)" fill="none" stroke="#161615" stroke-miterlimit="10" stroke-width="0.335"/>
        <line id="Line_65" data-name="Line 65" x1="34.852" transform="translate(0 0.966)" fill="none" stroke="#161615" stroke-miterlimit="10" stroke-width="0.335"/>
        <path id="Path_635" data-name="Path 635" d="M-670.23,387.529a.966.966,0,0,1,.966.966.966.966,0,0,1-.966.965.966.966,0,0,1-.966-.965.966.966,0,0,1,.966-.966" transform="translate(705.033 -387.529)" fill="#161615"/>
        <line id="Line_66" data-name="Line 66" x2="34.852" transform="translate(143.866 0.966)" fill="none" stroke="#161615" stroke-miterlimit="10" stroke-width="0.335"/>
        <path id="Path_636" data-name="Path 636" d="M-528.358,389.462a.966.966,0,0,1-.966-.966.966.966,0,0,1,.966-.965.966.966,0,0,1,.966.965.967.967,0,0,1-.966.966" transform="translate(672.182 -387.529)" fill="#161615"/>
        <line id="Line_67" data-name="Line 67" x2="14.709" transform="translate(25.807 76.818)" fill="none" stroke="#161615" stroke-miterlimit="10" stroke-width="0.335"/>
        <path id="Path_637" data-name="Path 637" d="M-681.9,488.375a.966.966,0,0,1-.966-.966.966.966,0,0,1,.966-.965.966.966,0,0,1,.966.965.966.966,0,0,1-.966.966" transform="translate(707.754 -410.591)" fill="#161615"/>
      </g>
      <g id="Group_138" data-name="Group 138" transform="translate(-580.069 415.188)">
        <line id="Line_68" data-name="Line 68" x1="14.482" transform="translate(0 0.966)" fill="none" stroke="#161615" stroke-miterlimit="10" stroke-width="0.335"/>
        <path id="Path_638" data-name="Path 638" d="M-515.625,486.443a.966.966,0,0,1,.966.966.966.966,0,0,1-.966.965.966.966,0,0,1-.966-.965.967.967,0,0,1,.966-.966" transform="translate(530.059 -486.443)" fill="#161615"/>
      </g>
      <g id="Group_139" data-name="Group 139" transform="translate(-626.57 431.703)">
        <path id="Path_639" data-name="Path 639" d="M-593.575,508.746-540.6,563.3h21.9" transform="translate(594.508 -507.815)" fill="none" stroke="#161615" stroke-miterlimit="10" stroke-width="0.335"/>
        <path id="Path_640" data-name="Path 640" d="M-594.518,509.171a.966.966,0,0,1,.02-1.366.966.966,0,0,1,1.366.02.966.966,0,0,1-.02,1.366.966.966,0,0,1-1.366-.02" transform="translate(594.791 -507.532)" fill="#161615"/>
        <line id="Line_69" data-name="Line 69" x2="34.852" transform="translate(23.161 179.93)" fill="none" stroke="#161615" stroke-miterlimit="10" stroke-width="0.335"/>
        <path id="Path_641" data-name="Path 641" d="M-564.819,742.84a.966.966,0,0,1-.966-.966.966.966,0,0,1,.966-.965.966.966,0,0,1,.966.965.966.966,0,0,1-.966.966" transform="translate(588.028 -561.945)" fill="#161615"/>
      </g>
      <line id="Line_70" data-name="Line 70" x1="34.852" transform="translate(-690.523 611.632)" fill="none" stroke="#161615" stroke-miterlimit="10" stroke-width="0.335"/>
      <g id="Group_140" data-name="Group 140" transform="translate(-656.612 610.666)">
        <path id="Path_642" data-name="Path 642" d="M-632.882,740.908a.966.966,0,0,1,.966.966.966.966,0,0,1-.966.965.966.966,0,0,1-.966-.965.966.966,0,0,1,.966-.966" transform="translate(633.848 -740.908)" fill="#161615"/>
        <line id="Line_71" data-name="Line 71" x1="19.339" transform="translate(33.471 24.397)" fill="none" stroke="#161615" stroke-miterlimit="10" stroke-width="0.335"/>
        <path id="Path_643" data-name="Path 643" d="M-565.338,771.464a.966.966,0,0,1,.966.966.966.966,0,0,1-.966.965.966.966,0,0,1-.966-.965.966.966,0,0,1,.966-.966" transform="translate(618.1 -748.032)" fill="#161615"/>
      </g>
      <g id="Group_141" data-name="Group 141" transform="translate(-719.059 179.438)">
        <line id="Line_72" data-name="Line 72" x2="32.225" transform="translate(63.683 455.626)" fill="none" stroke="#161615" stroke-miterlimit="10" stroke-width="0.335"/>
        <path id="Path_644" data-name="Path 644" d="M-632.454,773.4a.966.966,0,0,1-.966-.966.966.966,0,0,1,.966-.966.966.966,0,0,1,.966.966.966.966,0,0,1-.966.966" transform="translate(696.16 -316.804)" fill="#161615"/>
        <path id="Path_645" data-name="Path 645" d="M-657.957,781.943c-1.521-.255-1.391-1.745-1.265-2.636s.554-1.067,1.064-2.213a4.079,4.079,0,0,1,1.488-1.719" transform="translate(702.157 -317.716)" fill="none" stroke="#161615" stroke-linecap="round" stroke-miterlimit="10" stroke-width="0.591"/>
        <path id="Path_646" data-name="Path 646" d="M-653.977,778.167a16.471,16.471,0,0,0-2.541,2.72c-.725,1.163-1.524,2.541-1.234,3.23a1.875,1.875,0,0,0,1.488,1.126,1.692,1.692,0,0,0,1.089-.182" transform="translate(701.814 -318.367)" fill="none" stroke="#161615" stroke-linecap="round" stroke-miterlimit="10" stroke-width="0.591"/>
        <path id="Path_647" data-name="Path 647" d="M-650.2,779.4s-1.343,1.525-2.359,2.9-1.83,2.359-1.815,3.048a1.766,1.766,0,0,0,1.6,1.672c1.271.179,1.669.288,2.577-.327a4.513,4.513,0,0,0,1.235-1.138" transform="translate(701.018 -318.653)" fill="none" stroke="#161615" stroke-linecap="round" stroke-miterlimit="10" stroke-width="0.591"/>
        <path id="Path_648" data-name="Path 648" d="M-655.31,537.989s12.39,25.524,14.39,44.7c1.439,13.791,1.853,25.05,3.879,29.4s10.278,16.866,9.291,64.926c-.15,7.267,3.611,15.381-18.254,39.421a7.866,7.866,0,0,1-1.288,2.245c-.907.953-1.8,2-1.8,2.928a3.185,3.185,0,0,0,3.323,3.04c2.436-.047,3.82-.716,4.823-2.436s2.1-2.019,3.916-3.861,1.4-4.456,2.292-7.122c.571-1.718,10.079-10.449,11.336-12.147,1.91-2.578.814-6.784.668-9.071-.08-1.253-.182-1.125-.268-2.16-.425-5.166,1.511-4.484,1.663-7.63.042-.868-.554-5.823-.554-5.823a84.706,84.706,0,0,1,.679-17.333c1.36-9.4,3.965-22.091,4.532-28.435s-1.926-18.919-1.587-26.85,1.247-25.037,1.133-31.267,3.059-16.314,3.172-25.263.361-11.941.88-21.4c.495-8.994,1.046-17.123,1.046-17.123s.416-.818.7,0c0,0,.777,10.757,1.212,17.89.563,9.234.6,11.485.714,20.629.113,8.949,3.286,19.032,3.172,25.263s.793,23.337,1.133,31.267-2.153,20.505-1.586,26.85,3.172,19.032,4.531,28.435a84.664,84.664,0,0,1,.68,17.333s-.6,4.955-.555,5.823c.152,3.146,2.088,2.465,1.663,7.63-.085,1.035-.189.907-.269,2.16-.144,2.287-1.241,6.493.67,9.071,1.257,1.7,10.763,10.429,11.335,12.147.888,2.666.479,5.286,2.293,7.122s2.912,2.143,3.916,3.861,2.386,2.39,4.821,2.436a3.186,3.186,0,0,0,3.324-3.04c0-.931-.888-1.975-1.8-2.928a7.307,7.307,0,0,1-1.289-2.245" transform="translate(701.3 -254.993)" fill="none" stroke="#161615" stroke-miterlimit="10" stroke-width="0.591"/>
        <path id="Path_649" data-name="Path 649" d="M-549.632,546.606s-12.39,25.524-14.39,44.7c-1.439,13.791-1.853,25.05-3.879,29.4s-11.045,16.866-10.058,64.927c.15,7.267-2.153,20.7,18.615,40.187" transform="translate(683.355 -264.377)" fill="none" stroke="#161615" stroke-miterlimit="10" stroke-width="0.591"/>
        <path id="Path_650" data-name="Path 650" d="M-540.964,775.376a4.084,4.084,0,0,1,1.489,1.719c.509,1.146.935,1.322,1.063,2.213s.258,2.381-1.265,2.636" transform="translate(674.731 -317.716)" fill="none" stroke="#161615" stroke-linecap="round" stroke-miterlimit="10" stroke-width="0.591"/>
        <path id="Path_651" data-name="Path 651" d="M-544.025,778.167a16.473,16.473,0,0,1,2.541,2.72c.725,1.163,1.524,2.541,1.234,3.23a1.875,1.875,0,0,1-1.488,1.126,1.692,1.692,0,0,1-1.089-.182" transform="translate(675.442 -318.367)" fill="none" stroke="#161615" stroke-linecap="round" stroke-miterlimit="10" stroke-width="0.591"/>
        <path id="Path_652" data-name="Path 652" d="M-548.279,779.4s1.344,1.525,2.359,2.9,1.829,2.359,1.814,3.048a1.764,1.764,0,0,1-1.6,1.672c-1.271.179-1.67.288-2.577-.327a4.511,4.511,0,0,1-1.235-1.138" transform="translate(676.717 -318.653)" fill="none" stroke="#161615" stroke-linecap="round" stroke-miterlimit="10" stroke-width="0.591"/>
        <path id="Path_653" data-name="Path 653" d="M-671.861,640.21s-.515.392-1.17-.313c-.422-.454-.317-1.113.066-2.387a7.173,7.173,0,0,1,1.338-2.841,23.455,23.455,0,0,1,2.935-3.062c3.443-2.486,13.8-12.2,14.561-15.066s2.765-8.313,3.454-11.115a38.348,38.348,0,0,0,.59-7.632c-.454-6.58-3.19-14.991-5.573-29.513s-2.384-35.853-1.589-43.909-.114-15.544-2.27-26.322-7.377-23.6-9.646-35.852-4.313-32.563-3.178-43.342a303.832,303.832,0,0,1,5.9-37.894c3.291-14.183,2.5-21.1,1.7-29.159s-2.8-18.506-2.8-18.506a19.667,19.667,0,0,0-1.967,8.522c0,4.878-.681,8.4-1.7,14.409s-1.361,13.955-3.518,23.372-8.171,24.847-9.987,29.612c0,0-3.023,7.625-2.063,11.9a15.956,15.956,0,0,1,.751,3.524c.222,3.85.179,9.339-.64,12.73-.449,1.857-.289,2.792.169,8.08.426,4.928,2.185,9.225-.187,9.773-1.467.339-2.045-4.081-2.653-6.935-.7-3.265-1.533-6.026-1.964-6.156-1.134-.338-.384,5.109-.183,9.007.225,4.345.51,7.9-1.407,7.926-1.53.025-2.152-.927-2.218-2.953-.114-3.377-.768-13.729-1.763-13.472s-1.375,4.7-1.662,8.215-.219,9.427-2.888,8.951c-1.953-.347-1.339-4.514-1.241-8.251s.705-10.123-.2-10.555-2.126,4.552-3.069,7.582-1.142,6.563-3.2,6.1c-1.46-.327-1.338-3.381-.791-5.377s.993-4.448,1.844-7.32a41.914,41.914,0,0,0,1.555-9.6c-.075-1.836-1.886-.554-3.207,2.038s-2.633,4.632-4.1,4.61-1.643-1.779-.587-3.63c.947-1.662,1.393-4.343,3.958-9.011,2.133-3.881,4.154-4.318,6.206-6.314,4.708-4.58,4.784-14.375,4.784-14.375.34-6.58.794-23.713.681-29.5s2.043-13.729,3.287-18.494.118-11.346,0-18.153,2.043-22.8,1.475-31.768-.568-17.7-.568-17.7c0-.19.008-.379.017-.567a26.164,26.164,0,0,1,11.333-20.2c4.653-3.027,9.306-3.971,15.548-6.694s17.023-6.013,22.358-8.623,4.431-12.293,4.35-15.128c-.012-.419-1.307-.769-2.421-4.519a55.888,55.888,0,0,0-2.042-5.427,2.864,2.864,0,0,1-1.185-.169,5.763,5.763,0,0,1-1.336-1.419c-.89-1.134-.369-2.914-1.146-4.732-1.5-3.517-2.548-7.777-.743-8.557a1.95,1.95,0,0,1,1.7.056s-1.2-18.526,3.183-25.246c5.971-9.151,17.375-9.39,20.066-9.39s13.931.237,19.9,9.389c4.383,6.718,3.183,25.245,3.183,25.245a1.946,1.946,0,0,1,1.7-.055c1.8.78.757,5.04-.743,8.555-.777,1.819-.6,3.4-1.146,4.733-.406.989-.691,1.533-1.6,1.622a5.782,5.782,0,0,1-.919-.034s-1.225,3.038-2.042,5.427A14.216,14.216,0,0,1-609,238.9l-.045,1.14c-.081,2.835-.983,11.348,4.351,13.958s15.207,5.9,21.449,8.623,10.977,3.544,15.548,6.694a26.534,26.534,0,0,1,11.333,20.2c.008.187.014.377.016.567,0,0,0,8.737-.568,17.7s1.589,24.961,1.476,31.768-1.24,13.388.005,18.153,3.4,12.707,3.286,18.494.675,29.623.675,29.623.083,9.8,4.79,14.375c2.052,2,4.074,2.434,6.206,6.314,2.566,4.668,3.011,7.351,3.958,9.011,1.056,1.851.877,3.613-.588,3.631s-2.776-2.017-4.1-4.611-3.131-3.873-3.207-2.037a41.826,41.826,0,0,0,1.555,9.6c.852,2.872,1.3,5.324,1.844,7.32s.669,5.05-.792,5.376c-2.057.466-2.256-3.072-3.2-6.1s-2.162-8.012-3.068-7.581-.3,6.819-.2,10.554.714,7.9-1.24,8.253c-2.669.475-2.6-5.433-2.888-8.953s-.667-7.956-1.663-8.215-1.649,10.1-1.762,13.473c-.065,2.026-.688,2.977-2.217,2.951-1.918-.03-1.633-3.579-1.408-7.924.2-3.9.953-9.344-.181-9.008-.432.13-1.271,2.892-1.965,6.155-.608,2.855-1.185,7.274-2.652,6.936-2.375-.548-.615-4.844-.187-9.774.458-5.288.617-6.222.168-8.079-.819-3.391-.862-8.88-.64-12.73a15.93,15.93,0,0,1,.751-3.524c.96-4.273-2.063-12.024-2.063-12.024-1.816-4.765-7.83-20.2-9.986-29.612s-2.5-17.359-3.518-23.372-1.7-9.531-1.7-14.409a22.359,22.359,0,0,0-2.192-9.128s-1.78,11.056-2.574,19.112-1.589,14.977,1.7,29.159a303.81,303.81,0,0,1,5.9,37.894c1.135,10.779-.908,31.088-3.177,43.342s-7.491,25.074-9.647,35.852-3.064,18.267-2.269,26.322.794,29.386-1.589,43.909-5.119,22.933-5.573,29.513a38.288,38.288,0,0,0,.59,7.632c.688,2.8,2.689,8.245,3.453,11.115s11.118,12.58,14.562,15.066a23.474,23.474,0,0,1,2.935,3.062,7.2,7.2,0,0,1,1.337,2.841c.382,1.274.487,1.933.065,2.387-.655.706-1.17.313-1.17.313" transform="translate(715.089 -179.468)" fill="none" stroke="#161615" stroke-linecap="round" stroke-linejoin="round" stroke-width="0.591"/>
        <path id="Path_654" data-name="Path 654" d="M-591.809,292.668s2.7-1.39,7.979-1.39c2.949,0,11.733,1.39,11.733,1.39" transform="translate(686.534 -205.537)" fill="none" stroke="#161615" stroke-linecap="round" stroke-linejoin="round" stroke-width="0.591"/>
        <path id="Path_655" data-name="Path 655" d="M-610.653,292.668s-2.7-1.39-7.979-1.39c-2.949,0-11.734,1.39-11.734,1.39" transform="translate(695.465 -205.537)" fill="none" stroke="#161615" stroke-linecap="round" stroke-linejoin="round" stroke-width="0.591"/>
        <path id="Path_656" data-name="Path 656" d="M-618.519,256.767c2.494,3.061,8.693,9.648,15.849,9.648,7.616,0,13.8-6.711,16.128-9.754" transform="translate(692.733 -197.466)" fill="none" stroke="#161615" stroke-linecap="round" stroke-miterlimit="10" stroke-width="0.591"/>
        <path id="Path_657" data-name="Path 657" d="M-595.119,241.213a2.057,2.057,0,0,1-.219,1.452c-.483.726-1.306.464-1.951.525s-.926.929-2.168.929-1.524-.868-2.169-.929-1.468.2-1.952-.525a2.057,2.057,0,0,1-.217-1.452" transform="translate(689.31 -193.864)" fill="none" stroke="#161615" stroke-linecap="round" stroke-linejoin="round" stroke-width="0.591"/>
        <path id="Path_658" data-name="Path 658" d="M-593.9,252.155a3.45,3.45,0,0,1-2.177.2,11.075,11.075,0,0,0-2.248-.629c-.439,0-1.172.636-1.609.636H-600c-.436,0-1.169-.636-1.608-.636a11.077,11.077,0,0,0-2.248.629,3.448,3.448,0,0,1-2.177-.2" transform="translate(689.821 -196.316)" fill="none" stroke="#161615" stroke-linecap="round" stroke-linejoin="round" stroke-width="0.591"/>
        <path id="Path_659" data-name="Path 659" d="M-601.745,255.368a5.4,5.4,0,0,0,2.921,1,4.379,4.379,0,0,0,2.71-1" transform="translate(688.821 -197.164)" fill="none" stroke="#161615" stroke-linecap="round" stroke-linejoin="round" stroke-width="0.591"/>
        <path id="Path_660" data-name="Path 660" d="M-599.172,249.7a1.4,1.4,0,0,0,.859.378,1.263,1.263,0,0,0,.826-.378" transform="translate(688.221 -195.842)" fill="none" stroke="#161615" stroke-linecap="round" stroke-linejoin="round" stroke-width="0.591"/>
        <path id="Path_661" data-name="Path 661" d="M-617.291,225.33a13.808,13.808,0,0,1,3.852-1.82c2.748-.693,5.195,1.684,5.195,1.684" transform="translate(692.427 -189.707)" fill="none" stroke="#161615" stroke-linecap="round" stroke-linejoin="round" stroke-width="0.591"/>
        <path id="Path_662" data-name="Path 662" d="M-608.461,217.6s-2.955-1.674-5.018-1.675a9.831,9.831,0,0,0-6.938,2.6,25.192,25.192,0,0,1,6.19-1.881c2.75-.311,4.721,1.714,5.476,2.156s.9-.878.291-1.2" transform="translate(693.154 -187.968)" fill="#171716"/>
        <path id="Path_663" data-name="Path 663" d="M-608.461,217.6s-2.955-1.674-5.018-1.675a9.831,9.831,0,0,0-6.938,2.6,25.192,25.192,0,0,1,6.19-1.881c2.75-.311,4.721,1.714,5.476,2.156S-607.854,217.921-608.461,217.6Z" transform="translate(693.154 -187.968)" fill="none" stroke="#161615" stroke-miterlimit="10" stroke-width="0.591"/>
        <path id="Path_664" data-name="Path 664" d="M-610.2,225.728a.463.463,0,0,0,.206-.051.773.773,0,0,1-.231.046Z" transform="translate(690.781 -190.242)" fill="none" stroke="#161615" stroke-miterlimit="10" stroke-width="0.591"/>
        <path id="Path_665" data-name="Path 665" d="M-610.222,223.71c-.314-.077-.641-.142-.983-.192a4.908,4.908,0,0,0-2.182.192,1.9,1.9,0,0,0-.5,1.27,2.032,2.032,0,0,0,2.083,1.975,2.031,2.031,0,0,0,2.083-1.975,1.9,1.9,0,0,0-.5-1.271m-.623,1.452a.463.463,0,0,1-.206.051l-.025,0c-.009,0-.017,0-.025,0a.76.76,0,0,1-.761-.759.761.761,0,0,1,.761-.761.76.76,0,0,1,.759.761.754.754,0,0,1-.5.708" transform="translate(691.634 -189.727)" fill="#171716"/>
        <path id="Path_666" data-name="Path 666" d="M-610.222,223.71c-.314-.077-.641-.142-.983-.192a4.908,4.908,0,0,0-2.182.192,1.9,1.9,0,0,0-.5,1.27,2.032,2.032,0,0,0,2.083,1.975,2.031,2.031,0,0,0,2.083-1.975,1.9,1.9,0,0,0-.5-1.27Zm-.623,1.452a.463.463,0,0,1-.206.051l-.025-.005c-.009,0-.017.005-.025.005a.76.76,0,0,1-.761-.759.761.761,0,0,1,.761-.761.76.76,0,0,1,.759.761.754.754,0,0,1-.5.708Z" transform="translate(691.634 -189.727)" fill="none" stroke="#161615" stroke-miterlimit="10" stroke-width="0.591"/>
        <path id="Path_667" data-name="Path 667" d="M-582.3,225.33a13.807,13.807,0,0,0-3.852-1.82c-2.749-.693-5.2,1.684-5.2,1.684" transform="translate(686.414 -189.707)" fill="none" stroke="#161615" stroke-linecap="round" stroke-linejoin="round" stroke-width="0.591"/>
        <path id="Path_668" data-name="Path 668" d="M-592.125,217.6s2.955-1.674,5.018-1.675a9.831,9.831,0,0,1,6.938,2.6,25.19,25.19,0,0,0-6.19-1.881c-2.75-.311-4.721,1.714-5.476,2.156s-.9-.878-.291-1.2" transform="translate(686.687 -187.968)" fill="#171716"/>
        <path id="Path_669" data-name="Path 669" d="M-592.125,217.6s2.955-1.674,5.018-1.675a9.831,9.831,0,0,1,6.938,2.6,25.19,25.19,0,0,0-6.19-1.881c-2.75-.311-4.721,1.714-5.476,2.156S-592.732,217.921-592.125,217.6Z" transform="translate(686.687 -187.968)" fill="none" stroke="#161615" stroke-miterlimit="10" stroke-width="0.591"/>
        <path id="Path_670" data-name="Path 670" d="M-586.711,225.728a.463.463,0,0,1-.206-.051.773.773,0,0,0,.231.046l-.025,0Z" transform="translate(685.379 -190.242)" fill="none" stroke="#161615" stroke-miterlimit="10" stroke-width="0.591"/>
        <path id="Path_671" data-name="Path 671" d="M-588.38,224.982a2.031,2.031,0,0,0,2.083,1.975,2.031,2.031,0,0,0,2.082-1.975,1.9,1.9,0,0,0-.5-1.27,4.892,4.892,0,0,0-2.181-.193c-.344.05-.671.117-.985.192a1.9,1.9,0,0,0-.5,1.271m.62-.528a.76.76,0,0,1,.759-.761.761.761,0,0,1,.761.761.76.76,0,0,1-.761.759h-.05a.465.465,0,0,1-.205-.051.754.754,0,0,1-.5-.708" transform="translate(685.723 -189.727)" fill="#171716"/>
        <path id="Path_672" data-name="Path 672" d="M-588.38,224.982a2.031,2.031,0,0,0,2.083,1.975,2.031,2.031,0,0,0,2.082-1.975,1.9,1.9,0,0,0-.5-1.27,4.892,4.892,0,0,0-2.181-.193c-.344.05-.671.117-.985.192a1.9,1.9,0,0,0-.5,1.271Zm.62-.528a.76.76,0,0,1,.759-.761.761.761,0,0,1,.761.761.76.76,0,0,1-.761.759h-.05a.465.465,0,0,1-.205-.051.754.754,0,0,1-.5-.708Z" transform="translate(685.723 -189.727)" fill="none" stroke="#161615" stroke-miterlimit="10" stroke-width="0.591"/>
        <path id="Path_673" data-name="Path 673" d="M-585.865,272.44s-5.636,4.887-8.711,5.229a14.356,14.356,0,0,0-5.9,2.392,4.383,4.383,0,0,1-1.973.854h-1.67a4.384,4.384,0,0,1-1.974-.854,14.351,14.351,0,0,0-5.9-2.392c-3.075-.342-8.415-5.229-8.415-5.229" transform="translate(693.175 -201.145)" fill="none" stroke="#161615" stroke-linecap="round" stroke-linejoin="round" stroke-width="0.591"/>
        <path id="Path_674" data-name="Path 674" d="M-569.659,287.061a7.95,7.95,0,0,1-6.836,3.929c-4.784,0-25.035-.7-25.035-.7s-4.889-.2-5.684,1.3a4.53,4.53,0,0,1-3.5,1.538,4.529,4.529,0,0,1-3.5-1.538c-.8-1.5-5.684-1.3-5.684-1.3s-20.252.7-25.035.7a7.95,7.95,0,0,1-6.836-3.929" transform="translate(700.487 -204.554)" fill="none" stroke="#161615" stroke-linecap="round" stroke-linejoin="round" stroke-width="0.591"/>
        <path id="Path_675" data-name="Path 675" d="M-681.773,297.385s-6.606,14.981-6.606,21.3c0,4.127,1.148,21.015.978,24.261s-1.537,17.085-1.708,19.3-.683,18.452-1.025,21.015-3.261,11.617-3.424,20.843,1.374,35.707,1.374,35.707-.8,16.4-12,18.99" transform="translate(712.547 -206.758)" fill="none" stroke="#161615" stroke-linecap="round" stroke-linejoin="round" stroke-width="0.591"/>
        <path id="Path_676" data-name="Path 676" d="M-522.48,297.385s6.606,14.981,6.606,21.3c0,4.127-1.148,21.015-.978,24.261s1.538,17.085,1.708,19.3.683,18.452,1.025,21.015,3.261,11.617,3.424,20.843-1.374,35.707-1.374,35.707,1.142,16.511,12.349,19.1" transform="translate(670.499 -206.758)" fill="none" stroke="#161615" stroke-linecap="round" stroke-linejoin="round" stroke-width="0.591"/>
        <path id="Path_677" data-name="Path 677" d="M-548.606,471.618s-2.319-23.156-2.338-28.06-10.126-45.76-10.626-53.62c-.5-7.787,1.4-75.085-8.742-81.835-8.064-5.366-13.529-.944-49.852-.342-36.323-.6-41.789-5.024-49.852.342-10.145,6.751-8.247,74.049-8.743,81.835-.5,7.86-10.606,48.718-10.625,53.62s-1.992,28.06-1.992,28.06" transform="translate(709.56 -208.627)" fill="none" stroke="#161615" stroke-linecap="round" stroke-linejoin="round" stroke-width="0.591"/>
        <path id="Path_678" data-name="Path 678" d="M-550.335,446.747s-17.315-36.536-19.027-45.249-2.912-50.57-2.912-52.791-2.911-25.456-2.911-25.456-.513-4.1-5.651-4.1c-3.6.006-37.893,1.017-39.238,1.025-1.346-.008-35.638-1.019-39.238-1.025-5.137-.008-4.624,4.1-4.624,4.1s-2.911,23.235-2.911,25.456-1.2,44.078-2.911,52.791-19.027,45.249-19.027,45.249" transform="translate(708.956 -211.82)" fill="none" stroke="#161615" stroke-linecap="round" stroke-linejoin="round" stroke-width="0.591"/>
        <path id="Path_679" data-name="Path 679" d="M-570.5,368.437s2.879-30.106,3.808-31.8c0,0-1.646-5.452-9.359-5.452s-35.536,1.367-36.368,1.538c-.833-.17-28.655-1.538-36.368-1.538s-9.36,5.452-9.36,5.452c.93,1.7,3.808,31.8,3.808,31.8" transform="translate(701.812 -214.655)" fill="none" stroke="#161615" stroke-linecap="round" stroke-linejoin="round" stroke-width="0.591"/>
        <path id="Path_680" data-name="Path 680" d="M-568.136,349.788s-.117-5.452-7.8-5.452-35.411,1.367-36.242,1.538c-.83-.17-28.556-1.538-36.241-1.538s-8.032,4.836-8.032,4.836" transform="translate(701.575 -217.719)" fill="none" stroke="#161615" stroke-linecap="round" stroke-linejoin="round" stroke-width="0.591"/>
        <path id="Path_681" data-name="Path 681" d="M-655.549,356.8s14.12,4.614,22.772,4.614c0,0,23.112-1.709,21.179-1.538" transform="translate(701.314 -220.611)" fill="none" stroke="#161615" stroke-linecap="round" stroke-linejoin="round" stroke-width="0.591"/>
        <path id="Path_682" data-name="Path 682" d="M-555.086,356.8s-13.353,4.614-22.005,4.614c0,0-23.112-1.709-21.179-1.538" transform="translate(688.088 -220.611)" fill="none" stroke="#161615" stroke-linecap="round" stroke-linejoin="round" stroke-width="0.591"/>
        <path id="Path_683" data-name="Path 683" d="M-653.994,371.626s24.4,3.525,43.578,3.781" transform="translate(700.954 -224.052)" fill="none" stroke="#161615" stroke-linecap="round" stroke-linejoin="round" stroke-width="0.591"/>
        <path id="Path_684" data-name="Path 684" d="M-555.975,371.626s-22.01,3.525-41.191,3.781" transform="translate(687.803 -224.052)" fill="none" stroke="#161615" stroke-linecap="round" stroke-linejoin="round" stroke-width="0.591"/>
        <path id="Path_685" data-name="Path 685" d="M-652.131,385.223s22.969,4.83,42.15,5.086" transform="translate(700.522 -227.206)" fill="none" stroke="#161615" stroke-linecap="round" stroke-linejoin="round" stroke-width="0.591"/>
        <path id="Path_686" data-name="Path 686" d="M-557.168,385.223s-20.817,4.83-40,5.086" transform="translate(687.801 -227.206)" fill="none" stroke="#161615" stroke-linecap="round" stroke-linejoin="round" stroke-width="0.591"/>
        <path id="Path_687" data-name="Path 687" d="M-650.042,399.253s22.717,7.2,39.243,7.2" transform="translate(700.036 -230.46)" fill="none" stroke="#161615" stroke-linecap="round" stroke-linejoin="round" stroke-width="0.591"/>
        <path id="Path_688" data-name="Path 688" d="M-558.921,398.929s-23.422,7.449-39.947,7.449" transform="translate(688.195 -230.384)" fill="none" stroke="#161615" stroke-linecap="round" stroke-linejoin="round" stroke-width="0.591"/>
        <path id="Path_689" data-name="Path 689" d="M-648.981,409.932s21.9,9.911,38.429,9.911" transform="translate(699.79 -232.936)" fill="none" stroke="#161615" stroke-linecap="round" stroke-linejoin="round" stroke-width="0.591"/>
        <path id="Path_690" data-name="Path 690" d="M-559.7,409.142c.24-.026-19.854,10.774-39.17,10.517" transform="translate(688.194 -232.752)" fill="none" stroke="#161615" stroke-linecap="round" stroke-linejoin="round" stroke-width="0.591"/>
        <path id="Path_691" data-name="Path 691" d="M-648.982,421.429c-.207-.087,6.909,2.634,13.612,5.935,5.747,2.83,10.788,6.477,18.321,7.454,1.422.184,5.129-1.284,6.5-1.284" transform="translate(699.791 -235.601)" fill="none" stroke="#161615" stroke-linecap="round" stroke-linejoin="round" stroke-width="0.591"/>
        <path id="Path_692" data-name="Path 692" d="M-560.108,420.5a96.71,96.71,0,0,0-9.83,4.833c-6.381,3.7-13.649,8.319-22.929,9.31-1.256.134-4.794-1.327-6-1.327" transform="translate(688.193 -235.385)" fill="none" stroke="#161615" stroke-linecap="round" stroke-linejoin="round" stroke-width="0.591"/>
        <path id="Path_693" data-name="Path 693" d="M-649.982,432.547c-.207-.087,7.676,3.4,14.379,6.7,5.747,2.83,10.788,9.544,18.321,10.521,1.422.184,5.129.249,6.5.249" transform="translate(700.023 -238.177)" fill="none" stroke="#161615" stroke-linecap="round" stroke-linejoin="round" stroke-width="0.591"/>
        <path id="Path_694" data-name="Path 694" d="M-558.971,432.306a113.359,113.359,0,0,0-11.711,5.52c-6.382,3.7-12.905,10.94-22.186,11.931-1.256.134-4.794.206-6,.206" transform="translate(688.195 -238.122)" fill="none" stroke="#161615" stroke-linecap="round" stroke-linejoin="round" stroke-width="0.591"/>
        <path id="Path_695" data-name="Path 695" d="M-651.765,441.829s8.84,2.041,12.715,6.182c4.525,4.836,14.886,17.275,27.081,17.446" transform="translate(700.435 -240.327)" fill="none" stroke="#161615" stroke-linecap="round" stroke-linejoin="round" stroke-width="0.591"/>
        <path id="Path_696" data-name="Path 696" d="M-557.847,441.829s-11.044,2.564-14.94,7.523c-4.243,5.4-14.885,15.933-27.081,16.1" transform="translate(688.43 -240.327)" fill="none" stroke="#161615" stroke-linecap="round" stroke-linejoin="round" stroke-width="0.591"/>
        <path id="Path_697" data-name="Path 697" d="M-653.424,449.139s6.278,1.982,10.154,6.123c4.525,4.835,12.467,21.791,30.915,22.814" transform="translate(700.82 -242.018)" fill="none" stroke="#161615" stroke-linecap="round" stroke-linejoin="round" stroke-width="0.591"/>
        <path id="Path_698" data-name="Path 698" d="M-556.57,449.139c.034-.03-8.1,2.178-12.383,7.465-4.321,5.34-11.565,21.472-30.915,21.472" transform="translate(688.431 -242.018)" fill="none" stroke="#161615" stroke-linecap="round" stroke-linejoin="round" stroke-width="0.591"/>
        <path id="Path_699" data-name="Path 699" d="M-656.454,464.557s6.453,13.674,15.267,17.893c15.487,7.413,28.17,25.847,28.054,27.871" transform="translate(701.523 -245.581)" fill="none" stroke="#161615" stroke-linecap="round" stroke-linejoin="round" stroke-width="0.591"/>
        <path id="Path_700" data-name="Path 700" d="M-553.692,464.557s-6.453,13.674-15.267,17.893c-15.487,7.413-28.17,25.847-28.054,27.871" transform="translate(687.771 -245.581)" fill="none" stroke="#161615" stroke-linecap="round" stroke-linejoin="round" stroke-width="0.591"/>
        <path id="Path_701" data-name="Path 701" d="M-592.384,504.925c0,4.447-4.24,8.052-8.525,8.052s-8.524-3.6-8.524-8.052,4.24-6.518,8.524-6.518S-592.384,500.478-592.384,504.925Z" transform="translate(690.614 -253.458)" fill="none" stroke="#161615" stroke-linecap="round" stroke-linejoin="round" stroke-width="0.591"/>
        <path id="Path_702" data-name="Path 702" d="M-658.292,483.612s14.075,20.663,17.443,24.242,25.886,28.534,25.873,39.062" transform="translate(701.948 -249.983)" fill="none" stroke="#161615" stroke-linecap="round" stroke-linejoin="round" stroke-width="0.591"/>
        <path id="Path_703" data-name="Path 703" d="M-550.851,483.612s-14.075,20.663-17.443,24.242-25.886,28.534-25.873,39.062" transform="translate(687.113 -249.983)" fill="none" stroke="#161615" stroke-linecap="round" stroke-linejoin="round" stroke-width="0.591"/>
        <path id="Path_704" data-name="Path 704" d="M-659.711,507.888s34.3,47.546,35.258,62.883-1.278,22.239-1.183,29.907,3.579,41.344,5.159,45.979" transform="translate(702.274 -255.514)" fill="none" stroke="#161615" stroke-linecap="round" stroke-linejoin="round" stroke-width="0.591"/>
        <path id="Path_705" data-name="Path 705" d="M-548.858,507.888s-34.3,47.546-35.258,62.883,1.278,22.239,1.183,29.907-3.579,41.344-5.159,45.979" transform="translate(685.7 -255.514)" fill="none" stroke="#161615" stroke-linecap="round" stroke-linejoin="round" stroke-width="0.591"/>
        <path id="Path_706" data-name="Path 706" d="M-655.871,752.177s19.8-15.71,21.214-27.468c.854-7.112.13-36.553-8.283-48.833" transform="translate(701.373 -294.517)" fill="none" stroke="#161615" stroke-linecap="round" stroke-miterlimit="10" stroke-width="0.591"/>
        <path id="Path_707" data-name="Path 707" d="M-547.408,752.177s-20.569-15.71-21.981-27.468c-.854-7.112.637-36.553,9.05-48.833" transform="translate(681.394 -294.517)" fill="none" stroke="#161615" stroke-linecap="round" stroke-miterlimit="10" stroke-width="0.591"/>
        <path id="Path_708" data-name="Path 708" d="M-629.441,224.3c-.092,2.488,3.344,10.4,3.344,10.4a13.793,13.793,0,0,0,4.931,6.436,22.292,22.292,0,0,1,7.4,9.268c1.23,2.832,1.283,8.208,8.335,8.208,6.623,0,7.485-5.376,8.718-8.208a22.347,22.347,0,0,1,7.4-9.268,13.8,13.8,0,0,0,4.932-6.436s3.476-8.418,3.469-10.4" transform="translate(695.28 -189.921)" fill="none" stroke="#161615" stroke-linecap="round" stroke-linejoin="round" stroke-width="0.591"/>
      </g>
      <text id="C-13" data-name="C" transform="translate(-665.268 237.495)" fill="#161615" font-size="6" font-family="ArialMT, Arial"><tspan x="0" y="0">C</tspan></text>
      <text id="_2-4" data-name="2" transform="translate(-658.719 237.495)" fill="#161615" font-size="6" font-family="ArialMT, Arial"><tspan x="0" y="0">2</tspan></text>
      <text id="C-14" data-name="C" transform="translate(-633.35 255.366)" fill="#161615" font-size="6" font-family="ArialMT, Arial"><tspan x="0" y="0">C</tspan></text>
      <text id="_3-3" data-name="3" transform="translate(-627.889 255.366)" fill="#161615" font-size="6" font-family="ArialMT, Arial"><tspan x="0" y="0">3</tspan></text>
      <text id="_3-4" data-name="3" transform="translate(-627.821 255.366)" fill="#161615" font-size="6" font-family="ArialMT, Arial"><tspan x="0" y="0">3</tspan></text>
      <text id="C-15" data-name="C" transform="translate(-634.358 265.372)" fill="#161615" font-size="6" font-family="ArialMT, Arial"><tspan x="0" y="0">C</tspan></text>
      <text id="_4-3" data-name="4" transform="translate(-628.897 265.372)" fill="#161615" font-size="6" font-family="ArialMT, Arial"><tspan x="0" y="0">4</tspan></text>
      <text id="Th1_3" data-name="Th1 " transform="translate(-635.114 286.517)" fill="#161615" font-size="6" font-family="ArialMT, Arial"><tspan x="0" y="0">Th1</tspan></text>
      <text id="T" transform="translate(-634.795 294.454)" fill="#161615" font-size="5" font-family="ArialMT, Arial"><tspan x="0" y="0">T</tspan></text>
      <text id="h" transform="translate(-630.636 295.454)" fill="#161615" font-size="6" font-family="ArialMT, Arial"><tspan x="0" y="0">h</tspan></text>
      <text id="_2-5" data-name="2" transform="translate(-626.304 295.454)" fill="#161615" font-size="6" font-family="ArialMT, Arial"><tspan x="0" y="0">2</tspan></text>
      <text id="T-2" data-name="T" transform="translate(-634.071 303.915)" fill="#161615" font-size="5" font-family="ArialMT, Arial"><tspan x="0" y="0">T</tspan></text>
      <text id="h-2" data-name="h" transform="translate(-629.911 304.916)" fill="#161615" font-size="6" font-family="ArialMT, Arial"><tspan x="0" y="0">h</tspan></text>
      <text id="_3-5" data-name="3" transform="translate(-625.58 304.916)" fill="#161615" font-size="6" font-family="ArialMT, Arial"><tspan x="0" y="0">3</tspan></text>
      <text id="T-3" data-name="T" transform="translate(-634.839 314.366)" fill="#161615" font-size="5" font-family="ArialMT, Arial"><tspan x="0" y="0">T</tspan></text>
      <text id="h-3" data-name="h" transform="translate(-630.679 315.367)" fill="#161615" font-size="6" font-family="ArialMT, Arial"><tspan x="0" y="0">h</tspan></text>
      <text id="_4-4" data-name="4" transform="translate(-626.348 315.367)" fill="#161615" font-size="6" font-family="ArialMT, Arial"><tspan x="0" y="0">4</tspan></text>
      <text id="T-4" data-name="T" transform="translate(-634.839 325.72)" fill="#161615" font-size="5" font-family="ArialMT, Arial"><tspan x="0" y="0">T</tspan></text>
      <text id="h-4" data-name="h" transform="translate(-630.679 326.72)" fill="#161615" font-size="6" font-family="ArialMT, Arial"><tspan x="0" y="0">h</tspan></text>
      <text id="_5-4" data-name="5" transform="translate(-626.348 326.72)" fill="#161615" font-size="6" font-family="ArialMT, Arial"><tspan x="0" y="0">5</tspan></text>
      <text id="T-5" data-name="T" transform="translate(-634.839 337.381)" fill="#161615" font-size="5" font-family="ArialMT, Arial"><tspan x="0" y="0">T</tspan></text>
      <text id="h-5" data-name="h" transform="translate(-630.679 338.382)" fill="#161615" font-size="6" font-family="ArialMT, Arial"><tspan x="0" y="0">h</tspan></text>
      <text id="_6-5" data-name="6" transform="translate(-626.348 338.382)" fill="#161615" font-size="6" font-family="ArialMT, Arial"><tspan x="0" y="0">6</tspan></text>
      <text id="T-6" data-name="T" transform="translate(-634.839 350.388)" fill="#161615" font-size="5" font-family="ArialMT, Arial"><tspan x="0" y="0">T</tspan></text>
      <text id="h-6" data-name="h" transform="translate(-630.679 351.388)" fill="#161615" font-size="6" font-family="ArialMT, Arial"><tspan x="0" y="0">h</tspan></text>
      <text id="_7-3" data-name="7" transform="translate(-626.348 351.388)" fill="#161615" font-size="6" font-family="ArialMT, Arial"><tspan x="0" y="0">7</tspan></text>
      <text id="T-7" data-name="T" transform="translate(-634.839 362.325)" fill="#161615" font-size="5" font-family="ArialMT, Arial"><tspan x="0" y="0">T</tspan></text>
      <text id="h-7" data-name="h" transform="translate(-630.679 363.326)" fill="#161615" font-size="6" font-family="ArialMT, Arial"><tspan x="0" y="0">h</tspan></text>
      <text id="_8-3" data-name="8" transform="translate(-626.348 363.326)" fill="#161615" font-size="6" font-family="ArialMT, Arial"><tspan x="0" y="0">8</tspan></text>
      <text id="T-8" data-name="T" transform="translate(-634.839 374.226)" fill="#161615" font-size="5" font-family="ArialMT, Arial"><tspan x="0" y="0">T</tspan></text>
      <text id="h-8" data-name="h" transform="translate(-630.679 375.227)" fill="#161615" font-size="6" font-family="ArialMT, Arial"><tspan x="0" y="0">h</tspan></text>
      <text id="_9" data-name="9" transform="translate(-626.348 375.227)" fill="#161615" font-size="6" font-family="ArialMT, Arial"><tspan x="0" y="0">9</tspan></text>
      <text id="T-9" data-name="T" transform="translate(-636.731 385.599)" fill="#161615" font-size="5" font-family="ArialMT, Arial"><tspan x="0" y="0">T</tspan></text>
      <text id="h-9" data-name="h" transform="translate(-632.571 386.599)" fill="#161615" font-size="6" font-family="ArialMT, Arial"><tspan x="0" y="0">h</tspan></text>
      <text id="_10" data-name="10" transform="translate(-628.238 385.599)" fill="#161615" font-size="5" font-family="ArialMT, Arial"><tspan x="0" y="0">10</tspan></text>
      <text id="T-10" data-name="T" transform="translate(-636.479 399.195)" fill="#161615" font-size="5" font-family="ArialMT, Arial"><tspan x="0" y="0">T</tspan></text>
      <text id="h-10" data-name="h" transform="translate(-632.319 400.196)" fill="#161615" font-size="6" font-family="ArialMT, Arial"><tspan x="0" y="0">h</tspan></text>
      <text id="_1-2" data-name="1" transform="translate(-627.988 400.196)" fill="#161615" font-size="6" font-family="ArialMT, Arial"><tspan x="0" y="0">1</tspan></text>
      <text id="_1-3" data-name="1" transform="translate(-625.026 400.196)" fill="#161615" font-size="6" font-family="ArialMT, Arial"><tspan x="0" y="0">1</tspan></text>
      <text id="T-11" data-name="T" transform="translate(-637.499 411.581)" fill="#161615" font-size="5" font-family="ArialMT, Arial"><tspan x="0" y="0">T</tspan></text>
      <text id="h-11" data-name="h" transform="translate(-633.007 412.496)" fill="#161615" font-size="6" font-family="ArialMT, Arial"><tspan x="0" y="0">h</tspan></text>
      <text id="_12" data-name="12" transform="translate(-629.006 411.581)" fill="#161615" font-size="5" font-family="ArialMT, Arial"><tspan x="0" y="0">12</tspan></text>
    </g>
  </g>
</svg>
