<svg xmlns="http://www.w3.org/2000/svg" xmlns:xlink="http://www.w3.org/1999/xlink" width="278" height="480" viewBox="0 0 278 480">
  <defs>
    <clipPath id="clip-Centrala-bak">
      <rect width="278" height="480"/>
    </clipPath>
  </defs>
  <g id="Centrala-bak" clip-path="url(#clip-Centrala-bak)">
    <rect width="278" height="480" fill="rgba(0,0,0,0)"/>
    <g id="Centrala-bak-2" data-name="Centrala-bak" transform="translate(-1109.842 -176.464)">
      <path id="Path_877" data-name="Path 877" d="M1351.49,433.13c1.037,1.821.862,3.554-.579,3.572s-2.731-1.985-4.031-4.536-3.078-3.812-3.153-2a41.128,41.128,0,0,0,1.53,9.443c.836,2.825,1.275,5.237,1.813,7.2s.657,4.969-.777,5.29c-2.026.459-2.222-3.022-3.149-6s-2.126-7.882-3.017-7.458-.3,6.708-.2,10.383.7,7.777-1.222,8.119c-2.625.467-2.56-5.344-2.839-8.809s-.657-7.827-1.636-8.082-1.623,9.933-1.735,13.255c-.064,1.994-.675,2.929-2.179,2.9-1.888-.029-1.607-3.521-1.386-7.8.2-3.836.937-9.194-.179-8.862-.424.128-1.248,2.845-1.933,6.055-.6,2.809-1.165,7.156-2.608,6.824-2.335-.539-.6-4.766-.184-9.616.45-5.2.607-6.121.166-7.947-.807-3.337-.849-8.737-.631-12.525a15.639,15.639,0,0,1,.74-3.467c.943-4.2-2.031-11.83-2.031-11.83-1.785-4.688-7.7-19.87-9.821-29.134s-2.456-17.079-3.461-22.995-1.674-9.377-1.674-14.177a22,22,0,0,0-2.157-8.979l-.073.453c.157-1.413.376-3.647.629-6.422.342-3.757.749-8.511,1.154-13.6.115-1.437-.1-4.237.011-5.713.354-4.633,1.408-14.459,1.462-18.129.016-1.111-3.353-4.345-8.484-6.683a90.872,90.872,0,0,0-17.051-5.362c-14.344-3.037-13.522-6.852-18.584-6.852s-6.256,3.69-19.092,6.866c-6.775,1.676-6.648,2.268-12.974,3.6-3.367.71-8.748,3.483-10.768,6.026-1.16,1.459-1.02.091-1.847,2.181,1.291,3.937,1.275,15.331,1.809,22.047.046.575.4,2.707.443,3.265.441,5.5-.036,8.91.253,12.356.349,4.163.561,6.564.561,6.564a19.353,19.353,0,0,0-1.935,8.385c0,4.8-.67,8.261-1.674,14.177s-1.34,13.73-3.461,22.995-8.037,24.446-9.823,29.134c0,0-2.973,7.5-2.03,11.706a15.667,15.667,0,0,1,.74,3.467c.218,3.787.177,9.188-.63,12.523-.441,1.827-.284,2.747.166,7.95.42,4.849,2.15,9.077-.184,9.615-1.442.333-2.011-4.014-2.608-6.822-.685-3.212-1.51-5.93-1.933-6.056-1.116-.332-.379,5.025-.179,8.861.222,4.275.5,7.767-1.385,7.8-1.5.024-2.116-.911-2.181-2.9-.111-3.322-.756-13.507-1.734-13.255s-1.353,4.621-1.635,8.083-.214,9.274-2.839,8.807c-1.922-.342-1.316-4.443-1.221-8.118s.7-9.96-.2-10.384-2.089,4.478-3.017,7.459-1.123,6.456-3.148,6c-1.436-.322-1.315-3.327-.778-5.291s.977-4.376,1.813-7.2a41.156,41.156,0,0,0,1.531-9.443,1.092,1.092,0,0,0-.215-.709c-.523-.567-1.887.653-2.938,2.714-1.3,2.552-2.591,4.558-4.03,4.536s-1.616-1.751-.579-3.571c.932-1.635,1.371-4.273,3.893-8.866,2.1-3.817,4.086-4.248,6.1-6.212,4.631-4.506,4.7-14.142,4.7-14.142.335-6.474.781-23.33.67-29.022s2.009-13.507,3.232-18.2.116-11.162,0-17.86,2.009-22.437,1.451-31.255-.558-17.414-.558-17.414c0-.187.007-.373.015-.558a25.746,25.746,0,0,1,11.147-19.869c4.577-2.979,9.153-3.907,15.293-6.586,1.093-.478,2.333-.974,3.655-1.48,6.1-2.332,14.024-4.894,18.335-7,5.246-2.567,4.359-12.094,4.279-14.884-.012-.413-1.287-.757-2.382-4.447l-1.943-5.087a1.086,1.086,0,0,1-1.757-.32,17.634,17.634,0,0,1-1.551-4.49c-.516-1.951-1.695-4.98-1.828-6.31s-.153-3.361.8-3.517a4.125,4.125,0,0,1,1.674.054s-.768-18.768,2.243-23.138,7.575-10.88,20.623-10.938,21.506,7.631,22.178,17.7.525,16.376.525,16.376,1.009-.718,1.677-.057,1.314,1.432.784,3.637-1.628,5.269-1.96,6.193-.833,4.3-1.591,4.629a3.808,3.808,0,0,1-1.742.187c-.307.772-1.242,3.14-1.9,5.078a13.977,13.977,0,0,1-2.376,4.478l-.045,1.122c-.08,2.79-.967,11.165,4.279,13.733s14.958,5.8,21.1,8.484,10.8,3.486,15.291,6.586a26.1,26.1,0,0,1,11.147,19.869c.008.185.014.372.015.558,0,0,0,8.6-.558,17.414s1.563,24.557,1.451,31.255-1.219,13.171.005,17.86,3.343,12.5,3.232,18.2.665,29.144.665,29.144.08,9.638,4.711,14.143c2.017,1.964,4.006,2.4,6.1,6.212,2.522,4.593,2.96,7.232,3.893,8.866" transform="translate(-6.355)" fill="#d0e1b6"/>
      <path id="Path_878" data-name="Path 878" d="M1314,310.382c.4.006-5.827-2.4-17.051-5.362-13.4-3.534-15.607-7.163-17.628-6.853-5.243.8-10.937,4.612-20.049,6.867-6.775,1.676-13.387,2.752-19.027,6.021-3.708,2.148-3.708,2.148-5.727,4.691-1.161,1.459-.008-.993-.834,1.1,1.291,3.937.732,15.9,1.266,22.619.046.577.091,1.141.135,1.7.441,5.5.826,10.158,1.115,13.6.349,4.161.561,6.563.561,6.563s1.189,6.2,2.087,12.69c.026-.015.052-.027.079-.042.224,1.662.431,3.33.586,4.9.778,7.887,1.217,6.939.73,11.822-.008.07-.18,7.585-.195,7.653-.282,1.213.138-2.771,8.821-5.974,8.123-2.994,24.352-5.183,29.429-5.183,4.694,0,11.021.992,15.816,1.634,9.993,1.336,17.905,3.788,22.588,11.073,0,0-.7-13.138.079-21.024.156-1.585.354-3.289.565-5,.025.013.051.024.076.039.706-5.606,1.567-11.144,1.817-12.732.157-1.413.375-3.647.629-6.422.342-3.757.748-8.512,1.154-13.6.114-1.439-.116-4.489,0-5.966.354-4.634,1.759-19.072,1.759-19.072-.459-.942-5.5-4.438-8.781-5.74" transform="translate(-20.491 -28.518)" fill="#a5d7dc"/>
      <path id="Path_879" data-name="Path 879" d="M1246.79,613c.491,1.185,1.872-15.059,3.3-28.208.672-6.2,1.629-11.935,1.457-18.541a112.38,112.38,0,0,0-3.881-24.724c-3.622-13.755-8.075-28.433-8.075-39.85,0-12.656,4.89-24.821,6.955-34.59,1.689-7.986,9.8-16.006,15.859-17.555,4.139-1.058,11.925-2.675,14.8-2.823,8.109-.418,22.6,4.2,26.057,10.54,4.259,7.8,7.477,13.867,9.273,22.893,1.114,5.6,3.512,16.527,2.969,22.668-1.247,14.1-8.681,41.014-8.729,41.935,0,.01-3.386,15.879-3.227,23.045.2,9.172,1.572,17.4,2.648,25.879,1.211,9.542,2.129,18.8,2.173,18.689.654-2.339,2.172-15.289.471-37.39-1.575-20.469,7.854-43.413,8.642-46.129,1.192-4.208,2.292-8.451,3.067-12.621l.03-.168c.19-1.03.375-2.119.555-3.248.644-4.345,1.177-9.391,1.673-14.41.534-5.387.9-10.858.972-15.716-.042-3.246-.137-6.134-.265-8.68-.013-.127-.022-.26-.035-.384-.312-2.955-1.291-11.54-2.345-18.432-.938-6.142-4.939-26.047-5.082-26.473-.969-.8-1.965-4.957-10.027-8.19-6.459-2.59-21.51-4.516-28.378-4.516-6.1,0-20.766,2.186-29.428,5.183-6.259,2.165-7.591,5.215-8.821,5.974-.578,2.659-6.812,35.793-7.928,46.4a107,107,0,0,0-.314,15.819c.488,9.314,1.9,19.255,3.059,26.684,1.538,9.836,7.749,28.576,7.778,28.438,0,0,4.132,14.6,4.321,22.726s-1.687,40.549.479,45.776" transform="translate(-19.836 -57.323)" fill="#c1bde0"/>
      <path id="Path_880" data-name="Path 880" d="M1267.99,727.053s-1.943,14.75-2.783,16.65-4.306,12.841-4.4,14.841-.091,18.584-.091,18.584-.494,2.388.317,2.923a5.153,5.153,0,0,0,2.4.485l.767-1.447.6,2.945,1.689.431,1.209-1.109.339-1.271.261,2.53,1.34.828h1.4l1.213-1.2.421-2.383v2.679l1.11,1.674h1.657s-.757-5.234-1.376-7.333-5.908-15.573-5.656-22.5-.4-27.33-.4-27.33" transform="translate(-27.062 -133.348)" fill="#c1bde0"/>
      <path id="Path_881" data-name="Path 881" d="M1312.06,724.405s-.751,26.811-.6,28.631a44.608,44.608,0,0,1-4.734,20.568c-.755,1.427-1.634,6.3-1.764,7.379s-.289,2.585-.289,2.585,2.49-.239,2.7-.957a17.374,17.374,0,0,0,0-3.312l.909,2.79,1.585.809,2.085-.931.343-2.668.641,2.088.869.436,1.643-.436.839-1.71v-1.286l.594,1.543,1.4.044,1.3-1.266V774.08s.533-13.468-.175-17.063-3.583-12.1-3.583-12.1l-.755-1.763Z" transform="translate(-37.844 -132.7)" fill="#c1bde0"/>
      <path id="Path_882" data-name="Path 882" d="M1278.9,763.555s-2.055,9.242-2.02,9.981.878,5.478.878,5.478v4.864l.719,2.6.72,4.636.218,2.023,1.387-.426a5.664,5.664,0,0,0,1.037-2.477c.039-1.115-.094-5.839-.07-6.97a17.8,17.8,0,0,0-.181-4.507c-.361-1.192-2.252-5.373-2.391-7.328s-.3-7.875-.3-7.875" transform="translate(-31.049 -142.269)" fill="#c1bde0"/>
      <path id="Path_883" data-name="Path 883" d="M1304.48,763.555s2.055,9.242,2.02,9.981-.878,5.478-.878,5.478v4.864l-.719,2.6-.72,4.636-.218,2.023-1.387-.426a5.663,5.663,0,0,1-1.037-2.477c-.039-1.115.094-5.839.07-6.97a17.8,17.8,0,0,1,.181-4.507c.361-1.192,2.252-5.373,2.391-7.328s.3-7.875.3-7.875" transform="translate(-37.075 -142.269)" fill="#c1bde0"/>
      <path id="Path_884" data-name="Path 884" d="M1279.52,684.752s-3.3-10.618-2.67-18.337,3.713-38.886,3.492-40.978-.726-13.319-.661-16.636,1.991-60.991,2.351-66.4,1.749-26.205,3.727-29.466,2.625-4.106,2.625-4.106-1.419,26.112-1.657,29.513-.709,14.356-.709,14.356-2.277,14.545-2.366,14.734-1.223,28.335-1.223,28.335-.382,14.244.149,17.379,1.394,13.064,1.3,14.544-3.167,20.214-3.536,22.386-2.353,17.945-1.786,19.267a57.928,57.928,0,0,1,1.862,8.976c-.008.93-.9,6.433-.9,6.433" transform="translate(-31.023 -80.012)" fill="#c1bde0"/>
      <path id="Path_885" data-name="Path 885" d="M1301.75,684.694s3.3-10.618,2.67-18.337-3.713-38.886-3.492-40.978.726-13.319.661-16.636-1.991-60.991-2.351-66.4-1.748-26.205-3.727-29.466-2.625-4.106-2.625-4.106,1.419,26.112,1.657,29.513.71,14.356.71,14.356,2.277,14.545,2.366,14.734,1.223,28.335,1.223,28.335.382,14.244-.149,17.378-1.394,13.064-1.3,14.544,3.167,20.214,3.536,22.386,2.353,17.945,1.786,19.268a57.924,57.924,0,0,0-1.862,8.976c.008.93.9,6.433.9,6.433" transform="translate(-34.961 -79.997)" fill="#c1bde0"/>
      <path id="Path_886" data-name="Path 886" d="M1256.24,711.092s-.77,1.068-1.619.614a1.81,1.81,0,0,1-1.23-1.781c-.015-.933-.192-3.229-.33-4.475a9.426,9.426,0,0,1,.1-3.65c.344-1.589,1.6-9.973,1.829-12.462s1.178-11.438,2.419-14.341-.068-2.758-.068-2.758-.3-.3-.3-1.674.452-4.608.208-6.262-7.28-37.314-7.318-39.193,1.665-21.9,2.421-25.932,2.225-21.924,2.087-24.053-4-26.382-5.623-30.381-7.989-28.223-5.312-42.3c0,0,4.692-30.462,12.707-37.319,0,0,4.867-6.483,23.09-8.62,11.132-1.306,0-.372,0-.372s17.052,1.078,25.247,8.866c2.394,2.275,10.875,14.8,13.791,46.03.326,3.481-2.1,23.171-7.93,39.788,0,0-4.285,23.807-3.782,28.341s2.806,30.88,3.544,33.322a29.636,29.636,0,0,1,.728,7.354c.01,1.259.328,4.659.328,4.659s-6.685,34.264-7.732,40.313c-.648,3.743.271,4.267.277,4.769s-.609,3.909-.609,3.909a5.19,5.19,0,0,0,.274,1.649,74.9,74.9,0,0,1,1.784,8.27c.2,1.9,1,10.226,1.095,11s1.281,7.1,1.386,7.673.539,3.837.28,4.454-1.457,1.217-1.015,1.9.273,3.345-.79,3.276-2.084-1.958-2.084-1.958v-2.015s.993-15.758,0-18.394-4.141-11.829-4.141-11.829l-3-18.753-.686,18.879s.261,12.368,0,14.148-2.484,12.927-4.991,16.878a35.677,35.677,0,0,1,.342-6.9,16.153,16.153,0,0,0,.276-5.492c-.125-1.511-2.039-7.934-2.039-7.934s-.6-13.208-.289-15.419a26.754,26.754,0,0,1,1.069-4.982c.63-2.141,1.239-8.059,1.627-9.948s-3.012-41.306-3.264-42.313.378-31.609.126-32.616-1.008-32.994-1.008-32.994l-1.64-28.46s-.753-13.978-1.508-15.994-3.27-10.187-4.595-10.067c0,0-2.717,4.089-3.154,5.755a68.95,68.95,0,0,0-3.085,20.306c-.158,8.971-2.082,34-2.082,34l-.661,33.9.48,21.263s-2.169,27.931-2.432,31.845-2.187,18.217,0,22.431a16.164,16.164,0,0,1,1.8,8.185l-.662,15.111s-1.964,7.3-2.1,7.934a60.3,60.3,0,0,0,.708,6.094l.25,6.295s-4.169-8.989-4.143-10.122-1.838-15.514-1.409-24.569a117.373,117.373,0,0,0-.075-14.6l-2.771,16.245a8.745,8.745,0,0,1-1.421,3.9c-1.35,2.141-3.113,10.956-3.113,10.956l-.272,17.126" transform="translate(-22.734 -67.052)" fill="#f0c9d6"/>
      <text id="C" transform="translate(1253.774 252.18)" fill="#161615" font-size="6" font-family="ArialMT, Arial"><tspan x="0" y="0">C</tspan></text>
      <text id="_5" data-name="5" transform="translate(1259.141 252.18)" fill="#161615" font-size="6" font-family="ArialMT, Arial"><tspan x="0" y="0">5</tspan></text>
      <text id="S2" transform="translate(1234.745 637.149)" fill="#161615" font-size="6" font-family="ArialMT, Arial"><tspan x="0" y="0">S2</tspan></text>
      <text id="S2-2" data-name="S2" transform="translate(1273.026 636.019)" fill="#161615" font-size="6" font-family="ArialMT, Arial"><tspan x="0" y="0">S2</tspan></text>
      <text id="L5" transform="translate(1294.43 430.653)" fill="#161615" font-size="5" font-family="ArialMT, Arial"><tspan x="0" y="0">L5</tspan></text>
      <text id="L5-2" data-name="L5" transform="translate(1212.857 430.653)" fill="#161615" font-size="5" font-family="ArialMT, Arial"><tspan x="0" y="0">L5</tspan></text>
      <text id="L3" transform="translate(1228.719 385.949) rotate(-30.189)" fill="#161615" font-size="5" font-family="ArialMT, Arial"><tspan x="0" y="0">L3</tspan></text>
      <text id="L4" transform="translate(1229.43 393.329) rotate(-32.88)" fill="#161615" font-size="5" font-family="ArialMT, Arial"><tspan x="0" y="0">L4</tspan></text>
      <text id="S1" transform="translate(1227.95 437.065)" fill="#161615" font-size="6" font-family="ArialMT, Arial"><tspan x="0" y="0">S1</tspan></text>
      <text id="S1-2" data-name="S1" transform="translate(1281.857 437.065)" fill="#161615" font-size="6" font-family="ArialMT, Arial"><tspan x="0" y="0">S1</tspan></text>
      <text id="S5" transform="translate(1327.531 465.881)" fill="#161615" font-size="6" font-family="ArialMT, Arial"><tspan x="0" y="0">S5</tspan></text>
      <text id="S2-3" data-name="S2" transform="translate(1264.732 440.843)" fill="#161615" font-size="6" font-family="ArialMT, Arial"><tspan x="0" y="0">S2</tspan></text>
      <text id="S3" transform="translate(1253.991 410.371)" fill="#161615" font-size="6" font-family="ArialMT, Arial"><tspan x="0" y="0">S3</tspan></text>
      <text id="S4" transform="translate(1253.767 417.831)" fill="#161615" font-size="6" font-family="ArialMT, Arial"><tspan x="0" y="0">S4</tspan></text>
      <text id="S2-4" data-name="S2" transform="translate(1243.092 440.275)" fill="#161615" font-size="6" font-family="ArialMT, Arial"><tspan x="0" y="0">S2</tspan></text>
      <text id="C-2" data-name="C" transform="translate(1196.917 255.603)" fill="#161615" font-size="6" font-family="ArialMT, Arial"><tspan x="0" y="0">C</tspan></text>
      <text id="_6" data-name="6" transform="translate(1201.849 255.603)" fill="#161615" font-size="6" font-family="ArialMT, Arial"><tspan x="0" y="0">6</tspan></text>
      <text id="C-3" data-name="C" transform="translate(1150.596 424.214)" fill="#161615" font-size="6" font-family="ArialMT, Arial"><tspan x="0" y="0">C</tspan></text>
      <text id="_6-2" data-name="6" transform="translate(1157.04 424.214)" fill="#161615" font-size="6" font-family="ArialMT, Arial"><tspan x="0" y="0">6</tspan></text>
      <text id="C-4" data-name="C" transform="translate(1172.882 289.781)" fill="#161615" font-size="6" font-family="ArialMT, Arial"><tspan x="0" y="0">C</tspan></text>
      <text id="_6-3" data-name="6" transform="translate(1178.298 289.781)" fill="#161615" font-size="6" font-family="ArialMT, Arial"><tspan x="0" y="0">6</tspan></text>
      <text id="C-5" data-name="C" transform="translate(1333.302 289.781)" fill="#161615" font-size="6" font-family="ArialMT, Arial"><tspan x="0" y="0">C</tspan></text>
      <text id="_6-4" data-name="6" transform="translate(1338.719 289.781)" fill="#161615" font-size="6" font-family="ArialMT, Arial"><tspan x="0" y="0">6</tspan></text>
      <line id="Line_132" data-name="Line 132" x1="19.287" transform="translate(1172.973 290.25)" fill="none" stroke="#161615" stroke-miterlimit="10" stroke-width="0.335"/>
      <path id="Path_887" data-name="Path 887" d="M1205.61,324.179a.952.952,0,1,1-.952.952.952.952,0,0,1,.952-.952" transform="translate(-13.398 -34.88)" fill="#161615"/>
      <line id="Line_133" data-name="Line 133" x1="62.817" transform="translate(1196.929 257.045)" fill="none" stroke="#161615" stroke-miterlimit="10" stroke-width="0.335"/>
      <path id="Path_888" data-name="Path 888" d="M1294.93,280.232a.952.952,0,1,1-.952.952.952.952,0,0,1,.952-.952" transform="translate(-35.228 -24.139)" fill="#161615"/>
      <line id="Line_134" data-name="Line 134" x2="8.039" transform="translate(1149.842 424.345)" fill="none" stroke="#161615" stroke-miterlimit="10" stroke-width="0.335"/>
      <text id="C-6" data-name="C" transform="translate(1150.891 441.936)" fill="#161615" font-size="6" font-family="ArialMT, Arial"><tspan x="0" y="0">C</tspan></text>
      <text id="_7" data-name="7" transform="translate(1157.335 441.936)" fill="#161615" font-size="6" font-family="ArialMT, Arial"><tspan x="0" y="0">7</tspan></text>
      <text id="C-7" data-name="C" transform="translate(1174.96 309.72)" fill="#161615" font-size="6" font-family="ArialMT, Arial"><tspan x="0" y="0">C</tspan></text>
      <text id="_7-2" data-name="7" transform="translate(1179.892 309.72)" fill="#161615" font-size="6" font-family="ArialMT, Arial"><tspan x="0" y="0">7</tspan></text>
      <text id="C-8" data-name="C" transform="translate(1332.05 309.72)" fill="#161615" font-size="6" font-family="ArialMT, Arial"><tspan x="0" y="0">C</tspan></text>
      <text id="_7-3" data-name="7" transform="translate(1336.982 309.72)" fill="#161615" font-size="6" font-family="ArialMT, Arial"><tspan x="0" y="0">7</tspan></text>
      <line id="Line_135" data-name="Line 135" x1="24.118" transform="translate(1174.96 310.189)" fill="none" stroke="#161615" stroke-miterlimit="10" stroke-width="0.335"/>
      <path id="Path_889" data-name="Path 889" d="M1214.63,350.567a.952.952,0,1,1-.952.952.952.952,0,0,1,.952-.952" transform="translate(-15.603 -41.33)" fill="#161615"/>
      <path id="Path_890" data-name="Path 890" d="M1182.81,516.857l-9.349,7.832H1161.12" transform="translate(-2.756 -81.973)" fill="none" stroke="#161615" stroke-miterlimit="10" stroke-width="0.335"/>
      <path id="Path_891" data-name="Path 891" d="M1188.86,515.86a.952.952,0,1,1-.119,1.34.952.952,0,0,1,.119-1.34" transform="translate(-9.452 -81.675)" fill="#161615"/>
      <line id="Line_136" data-name="Line 136" x2="19.239" transform="translate(1149.842 442.716)" fill="none" stroke="#161615" stroke-miterlimit="10" stroke-width="0.335"/>
      <text id="C-9" data-name="C" transform="translate(1346.546 441.935)" fill="#161615" font-size="6" font-family="ArialMT, Arial"><tspan x="0" y="0">C</tspan></text>
      <text id="_7-4" data-name="7" transform="translate(1352.99 441.935)" fill="#161615" font-size="6" font-family="ArialMT, Arial"><tspan x="0" y="0">7</tspan></text>
      <path id="Path_892" data-name="Path 892" d="M1395.04,516.857l9.349,7.832h12.341" transform="translate(-59.929 -81.973)" fill="none" stroke="#161615" stroke-miterlimit="10" stroke-width="0.335"/>
      <path id="Path_893" data-name="Path 893" d="M1394.17,517.319a.952.952,0,1,1,1.34-.119.952.952,0,0,1-1.34.119" transform="translate(-59.633 -81.675)" fill="#161615"/>
      <line id="Line_137" data-name="Line 137" x1="19.287" transform="translate(1157.881 424.345)" fill="none" stroke="#161615" stroke-miterlimit="10" stroke-width="0.335"/>
      <path id="Path_894" data-name="Path 894" d="M1185.64,501.65a.952.952,0,1,1-.952.952.952.952,0,0,1,.952-.952" transform="translate(-8.516 -78.256)" fill="#161615"/>
      <text id="C-10" data-name="C" transform="translate(1201.106 412.069)" fill="#161615" font-size="6" font-family="ArialMT, Arial"><tspan x="0" y="0">C</tspan></text>
      <text id="_8" data-name="8" transform="translate(1206.207 412.069)" fill="#161615" font-size="6" font-family="ArialMT, Arial"><tspan x="0" y="0">8</tspan></text>
      <line id="Line_138" data-name="Line 138" x2="13.654" transform="translate(1196.069 412.855)" fill="none" stroke="#161615" stroke-miterlimit="10" stroke-width="0.335"/>
      <g id="Group_206" data-name="Group 206" transform="translate(1195.164 411.903)">
        <path id="Path_895" data-name="Path 895" d="M1210.78,488.346a.952.952,0,1,1,.952-.952.952.952,0,0,1-.952.952" transform="translate(-1209.825 -486.443)" fill="#161615"/>
      </g>
      <text id="C-11" data-name="C" transform="translate(1175.542 326.324)" fill="#161615" font-size="6" font-family="ArialMT, Arial"><tspan x="0" y="0">C</tspan></text>
      <text id="_8-2" data-name="8" transform="translate(1180.644 326.324)" fill="#161615" font-size="6" font-family="ArialMT, Arial"><tspan x="0" y="0">8</tspan></text>
      <text id="C-12" data-name="C" transform="translate(1331.501 326.324)" fill="#161615" font-size="6" font-family="ArialMT, Arial"><tspan x="0" y="0">C</tspan></text>
      <text id="_8-3" data-name="8" transform="translate(1336.603 326.324)" fill="#161615" font-size="6" font-family="ArialMT, Arial"><tspan x="0" y="0">8</tspan></text>
      <line id="Line_139" data-name="Line 139" x1="34.34" transform="translate(1175.542 327.11)" fill="none" stroke="#161615" stroke-miterlimit="10" stroke-width="0.335"/>
      <path id="Path_896" data-name="Path 896" d="M1228.93,372.962a.952.952,0,1,1-.952.952.952.952,0,0,1,.952-.952" transform="translate(-19.098 -46.804)" fill="#161615"/>
      <line id="Line_140" data-name="Line 140" x2="19.287" transform="translate(1323.277 290.25)" fill="none" stroke="#161615" stroke-miterlimit="10" stroke-width="0.335"/>
      <path id="Path_897" data-name="Path 897" d="M1379.13,326.082a.952.952,0,1,1,.952-.952.952.952,0,0,1-.952.952" transform="translate(-55.809 -34.88)" fill="#161615"/>
      <line id="Line_141" data-name="Line 141" x2="24.118" transform="translate(1316.459 310.189)" fill="none" stroke="#161615" stroke-miterlimit="10" stroke-width="0.335"/>
      <path id="Path_898" data-name="Path 898" d="M1370.11,352.471a.952.952,0,1,1,.952-.952.952.952,0,0,1-.952.952" transform="translate(-53.603 -41.33)" fill="#161615"/>
      <line id="Line_142" data-name="Line 142" x2="34.34" transform="translate(1305.654 327.11)" fill="none" stroke="#161615" stroke-miterlimit="10" stroke-width="0.335"/>
      <path id="Path_899" data-name="Path 899" d="M1355.81,374.865a.952.952,0,1,1,.952-.952.952.952,0,0,1-.952.952" transform="translate(-50.108 -46.804)" fill="#161615"/>
      <text id="C-13" data-name="C" transform="translate(1305.609 412.069)" fill="#161615" font-size="6" font-family="ArialMT, Arial"><tspan x="0" y="0">C</tspan></text>
      <text id="_8-4" data-name="8" transform="translate(1310.711 412.069)" fill="#161615" font-size="6" font-family="ArialMT, Arial"><tspan x="0" y="0">8</tspan></text>
      <text id="C-14" data-name="C" transform="translate(1345.407 424.213)" fill="#161615" font-size="6" font-family="ArialMT, Arial"><tspan x="0" y="0">C</tspan></text>
      <text id="_6-5" data-name="6" transform="translate(1351.851 424.213)" fill="#161615" font-size="6" font-family="ArialMT, Arial"><tspan x="0" y="0">6</tspan></text>
      <line id="Line_143" data-name="Line 143" x2="19.287" transform="translate(1337.929 424.345)" fill="none" stroke="#161615" stroke-miterlimit="10" stroke-width="0.335"/>
      <path id="Path_900" data-name="Path 900" d="M1398.53,503.553a.952.952,0,1,1,.952-.952.952.952,0,0,1-.952.952" transform="translate(-60.548 -78.256)" fill="#161615"/>
      <line id="Line_144" data-name="Line 144" x1="12.919" transform="translate(1306.138 412.855)" fill="none" stroke="#161615" stroke-miterlimit="10" stroke-width="0.335"/>
      <path id="Path_901" data-name="Path 901" d="M1373.42,486.443a.952.952,0,1,1-.952.952.952.952,0,0,1,.952-.952" transform="translate(-54.413 -74.54)" fill="#161615"/>
      <path id="Path_902" data-name="Path 902" d="M1295.46,499.933l60.411,44.547H1371.7" transform="translate(-35.59 -77.837)" fill="none" stroke="#161615" stroke-miterlimit="10" stroke-width="0.335"/>
      <path id="Path_903" data-name="Path 903" d="M1294.64,500.429a.951.951,0,1,1,.707.176.952.952,0,0,1-.707-.176" transform="translate(-35.294 -77.538)" fill="#161615"/>
      <path id="Path_904" data-name="Path 904" d="M1270.16,530.071l-40.684,25.416h-13.565" transform="translate(-16.147 -85.203)" fill="none" stroke="#161615" stroke-miterlimit="10" stroke-width="0.335"/>
      <path id="Path_905" data-name="Path 905" d="M1286.84,528.989a.952.952,0,1,1-.3,1.312.952.952,0,0,1,.3-1.312" transform="translate(-33.374 -84.903)" fill="#161615"/>
      <text id="S1-3" data-name="S1" transform="translate(1292.535 636.543)" fill="#161615" font-size="6" font-family="ArialMT, Arial"><tspan x="0" y="0">S1</tspan></text>
      <text id="S1-4" data-name="S1" transform="translate(1217.405 636.543)" fill="#161615" font-size="6" font-family="ArialMT, Arial"><tspan x="0" y="0">S1</tspan></text>
      <line id="Line_145" data-name="Line 145" x2="15.196" transform="translate(1283.561 637.079)" fill="none" stroke="#161615" stroke-miterlimit="10" stroke-width="0.335"/>
      <g id="Group_207" data-name="Group 207" transform="translate(1217.405 636.127)">
        <path id="Path_906" data-name="Path 906" d="M1326.57,785.1a.952.952,0,1,1,.952-.952.952.952,0,0,1-.952.952" transform="translate(-1260.367 -783.197)" fill="#161615"/>
        <line id="Line_146" data-name="Line 146" x1="14.565" transform="translate(0 0.952)" fill="none" stroke="#161615" stroke-miterlimit="10" stroke-width="0.335"/>
        <path id="Path_907" data-name="Path 907" d="M1258.17,783.2a.952.952,0,1,1-.952.952.952.952,0,0,1,.952-.952" transform="translate(-1243.648 -783.197)" fill="#161615"/>
      </g>
      <text id="L2" transform="matrix(0.893, -0.45, 0.45, 0.893, 1228.995, 378.333)" fill="#161615" font-size="5" font-family="ArialMT, Arial"><tspan x="0" y="0">L2</tspan></text>
      <text id="L1" transform="matrix(0.905, -0.425, 0.425, 0.905, 1228.825, 369.931)" fill="#161615" font-size="5" font-family="ArialMT, Arial"><tspan x="0" y="0">L1</tspan></text>
      <text id="L5-3" data-name="L5" transform="translate(1254.708 638.679)" fill="#161615" font-size="5" font-family="ArialMT, Arial"><tspan x="0" y="0">L5</tspan></text>
      <line id="Line_147" data-name="Line 147" x1="8.585" transform="translate(1257.831 639.897)" fill="none" stroke="#161615" stroke-miterlimit="10" stroke-width="0.335"/>
      <g id="Group_208" data-name="Group 208" transform="translate(1247.611 638.945)">
        <path id="Path_908" data-name="Path 908" d="M1303.75,786.927a.952.952,0,1,1-.952.952.952.952,0,0,1,.952-.952" transform="translate(-1284.997 -786.927)" fill="#161615"/>
        <line id="Line_148" data-name="Line 148" x2="9.315" transform="translate(0.905 0.952)" fill="none" stroke="#161615" stroke-miterlimit="10" stroke-width="0.335"/>
        <path id="Path_909" data-name="Path 909" d="M1280.19,788.83a.952.952,0,1,1,.952-.952.952.952,0,0,1-.952.952" transform="translate(-1279.237 -786.927)" fill="#161615"/>
      </g>
      <text id="L4-2" data-name="L4" transform="translate(1254.776 593.532)" fill="#161615" font-size="5" font-family="ArialMT, Arial"><tspan x="0" y="0">L4</tspan></text>
      <line id="Line_149" data-name="Line 149" x2="18.773" transform="translate(1247.893 595.216)" fill="none" stroke="#161615" stroke-miterlimit="10" stroke-width="0.335"/>
      <g id="Group_209" data-name="Group 209" transform="translate(1246.988 594.264)">
        <path id="Path_910" data-name="Path 910" d="M1279.36,729.7a.952.952,0,1,1,.952-.952.952.952,0,0,1-.952.952" transform="translate(-1278.412 -727.793)" fill="#161615"/>
      </g>
      <text id="L3-2" data-name="L3" transform="translate(1254.488 537.874)" fill="#161615" font-size="5" font-family="ArialMT, Arial"><tspan x="0" y="0">L3</tspan></text>
      <line id="Line_150" data-name="Line 150" x2="13.393" transform="translate(1250.915 539.684)" fill="none" stroke="#161615" stroke-miterlimit="10" stroke-width="0.335"/>
      <g id="Group_210" data-name="Group 210" transform="translate(1250.01 538.732)">
        <path id="Path_911" data-name="Path 911" d="M1283.36,656.2a.952.952,0,1,1,.952-.952.952.952,0,0,1-.952.952" transform="translate(-1282.412 -654.297)" fill="#161615"/>
        <path id="Path_912" data-name="Path 912" d="M1300.96,656.2a.952.952,0,1,0-.952-.952.952.952,0,0,0,.952.952" transform="translate(-1286.713 -654.297)" fill="#161615"/>
      </g>
      <text id="L2-2" data-name="L2" transform="translate(1254.488 483.312)" fill="#161615" font-size="5" font-family="ArialMT, Arial"><tspan x="0" y="0">L2</tspan></text>
      <text id="L2-3" data-name="L2" transform="translate(1306.141 479.401)" fill="#161615" font-size="5" font-family="ArialMT, Arial"><tspan x="0" y="0">L2</tspan></text>
      <text id="L1-2" data-name="L1" transform="translate(1200.872 468.515)" fill="#161615" font-size="5" font-family="ArialMT, Arial"><tspan x="0" y="0">L1</tspan></text>
      <text id="L1-3" data-name="L1" transform="translate(1308.165 468.515)" fill="#161615" font-size="5" font-family="ArialMT, Arial"><tspan x="0" y="0">L1</tspan></text>
      <path id="Path_913" data-name="Path 913" d="M1296.67,578.984l-2.242,3.2h-6.814l-2.242-3.2" transform="translate(-33.125 -97.158)" fill="none" stroke="#161615" stroke-miterlimit="10" stroke-width="0.335"/>
      <path id="Path_914" data-name="Path 914" d="M1299.2,578.182a.952.952,0,1,1,.234,1.325.952.952,0,0,1-.234-1.325" transform="translate(-36.463 -96.862)" fill="#161615"/>
      <path id="Path_915" data-name="Path 915" d="M1285.88,578.182a.952.952,0,1,0-.234,1.325.952.952,0,0,0,.234-1.325" transform="translate(-32.826 -96.862)" fill="#161615"/>
      <path id="Path_916" data-name="Path 916" d="M1297.16,530.071l40.684,25.416h13.565" transform="translate(-36.007 -85.203)" fill="none" stroke="#161615" stroke-miterlimit="10" stroke-width="0.335"/>
      <path id="Path_917" data-name="Path 917" d="M1296.4,530.6a.952.952,0,1,1,1.312-.3.952.952,0,0,1-1.312.3" transform="translate(-35.712 -84.903)" fill="#161615"/>
      <line id="Line_151" data-name="Line 151" x1="10.157" transform="translate(1257.115 595.216)" fill="none" stroke="#161615" stroke-miterlimit="10" stroke-width="0.335"/>
      <path id="Path_918" data-name="Path 918" d="M1304.89,727.793a.952.952,0,1,1-.952.952.952.952,0,0,1,.952-.952" transform="translate(-37.662 -133.529)" fill="#161615"/>
      <line id="Line_152" data-name="Line 152" x1="2.694" y2="1.991" transform="translate(1247.759 562.867)" fill="none" stroke="#161615" stroke-linecap="round" stroke-miterlimit="10" stroke-width="0.591"/>
      <line id="Line_153" data-name="Line 153" x2="3.097" y2="2.208" transform="translate(1264.566 561.985)" fill="none" stroke="#161615" stroke-linecap="round" stroke-miterlimit="10" stroke-width="0.591"/>
      <path id="Path_919" data-name="Path 919" d="M1254.7,576.946c1.34-9.265,3.907-21.767,4.465-28.018s-1.9-18.641-1.562-26.455,1.228-24.669,1.116-30.808,3.014-16.074,3.126-24.893.354-11.765.868-21.081c.487-8.862,1.029-16.872,1.029-16.872s.411-.806.693,0c0,0,.765,10.6,1.193,17.627.555,9.1.591,11.316.7,20.325.112,8.818,3.237,18.754,3.125,24.893s.782,23,1.117,30.808-2.121,20.2-1.563,26.455,4.47,28.169,4.47,28.169c1.34,9.265.419,14.277.16,15.346a29.883,29.883,0,0,0-1.266,4.707c-.335,3.816.736,6.16.837,7.591s-.389,4.761,0,9.693.839,14.555,0,16.788-2.512,5.023-2.289,7.814-.159,7.733,0,8.93c.224,1.674.672,2.79,2.289,2.9s2.9-.546,2.9-1.674v-2.679s-.167,3.684,2.289,3.684c.848,0,1.913-.459,2.085-.931a7.693,7.693,0,0,0,.261-2.53,3.993,3.993,0,0,0,.724,1.949c.558.786,2.118.37,2.512,0,.78-.731.561-2.5.6-2.945s.069,1.655,1.414,1.655a2.022,2.022,0,0,0,2.121-1.384,10.317,10.317,0,0,0-.056-2.233s.577,1.321,1.768.875c.616-.232,1.179-.325,1.23-1.781.054-1.55-.239-2.107.317-2.777.444-.536.7-2.512-.555-7.424s-1.587-17.1-2.815-21.68-1.573-3.126-.9-5.8.106-3.237,0-6.586,4.342-20.316,6.686-34.6,2.345-35.274,1.563-43.2.111-15.292,2.232-25.9,7.256-23.218,9.489-35.273,4.241-32.037,3.125-42.641a299,299,0,0,0-5.8-37.283c-3.237-13.953-2.456-20.763-1.674-28.688s2.53-18.8,2.53-18.8a21.992,21.992,0,0,1,2.158,8.98c0,4.8.669,8.26,1.674,14.176s1.34,13.73,3.46,22.995,8.036,24.446,9.822,29.134c0,0,2.973,7.625,2.03,11.829a15.7,15.7,0,0,0-.739,3.467c-.218,3.789-.177,9.189.629,12.525.441,1.826.284,2.746-.166,7.949-.42,4.849-2.051,8.75.185,9.615,1.374.531,1.827-3.5,2.608-6.822.75-3.2,1.509-5.929,1.932-6.057,1.117-.331.379,5.027.18,8.862-.221,4.274-.5,7.767,1.385,7.8,1.5.024,2.116-.911,2.181-2.9.112-3.322.756-13.506,1.733-13.255s1.354,4.622,1.636,8.083.215,9.275,2.839,8.808c1.922-.342,1.317-4.443,1.221-8.12s-.694-9.959.2-10.383,2.089,4.478,3.018,7.458,1.122,6.457,3.148,6c1.435-.321,1.316-3.326.777-5.29s-.977-4.377-1.813-7.2a41.108,41.108,0,0,1-1.53-9.443c.076-1.807,1.856-.546,3.154,2s2.591,4.558,4.03,4.537,1.617-1.751.579-3.572c-.933-1.634-1.371-4.273-3.892-8.865-2.1-3.819-4.087-4.249-6.1-6.212-4.631-4.506-4.71-14.144-4.71-14.144s-.777-23.452-.666-29.145-2.009-13.507-3.232-18.2-.116-11.162-.005-17.86-2.009-22.436-1.451-31.255.558-17.414.558-17.414c0-.186-.006-.372-.015-.558a26.1,26.1,0,0,0-11.147-19.87c-4.494-3.1-9.152-3.906-15.291-6.586s-15.851-5.916-21.1-8.484-4.357-10.942-4.279-13.731l.045-1.123a13.968,13.968,0,0,0,2.376-4.478c.8-2.351,2.008-5.339,2.008-5.339a5.779,5.779,0,0,0,.9.033c.9-.088,1.175-.623,1.577-1.6.539-1.313.363-2.867,1.127-4.657,1.476-3.459,2.506-7.651.73-8.418a1.917,1.917,0,0,0-1.674.054s1.181-18.227-3.13-24.837c-5.872-9-16.929-9.237-19.576-9.237s-13.863.235-19.736,9.239c-4.311,6.61-3.13,24.838-3.13,24.838a1.918,1.918,0,0,0-1.674-.055c-1.776.768-.744,4.96.731,8.419.762,1.789.586,3.344,1.127,4.656.4.972.679,1.507,1.574,1.6a5.7,5.7,0,0,0,.905-.033,54.806,54.806,0,0,1,2.008,5.34c1.1,3.69,2.37,4.034,2.382,4.446.079,2.79.967,12.317-4.28,14.884s-15.851,5.8-21.99,8.484-10.716,3.608-15.293,6.586a25.749,25.749,0,0,0-11.146,19.87q-.011.279-.016.558s0,8.6.558,17.414-1.562,24.557-1.452,31.255,1.22,13.172,0,17.86-3.344,12.5-3.232,18.2-.335,22.548-.669,29.022c0,0-.074,9.638-4.706,14.143-2.017,1.964-4.005,2.394-6.1,6.212-2.522,4.593-2.961,7.231-3.893,8.866-1.037,1.82-.861,3.554.579,3.572s2.731-1.984,4.03-4.536,3.08-3.811,3.154-2.005a41.258,41.258,0,0,1-1.529,9.444c-.837,2.825-1.276,5.236-1.814,7.2s-.657,4.969.778,5.29c2.025.459,2.22-3.023,3.148-6s2.127-7.882,3.019-7.458.3,6.707.2,10.384-.7,7.776,1.221,8.117c2.625.468,2.561-5.344,2.84-8.806s.656-7.829,1.635-8.082,1.622,9.933,1.734,13.255c.065,1.993.678,2.929,2.181,2.9,1.887-.029,1.606-3.523,1.385-7.8-.2-3.835-.937-9.193.179-8.862.425.126,1.25,2.843,1.933,6.055.6,2.808,1.165,7.157,2.608,6.824,2.334-.54.6-4.766.185-9.616-.45-5.2-.607-6.122-.165-7.949.805-3.337.848-8.737.629-12.525a15.835,15.835,0,0,0-.739-3.467c-.944-4.2,2.029-11.706,2.029-11.706,1.786-4.688,7.7-19.869,9.823-29.134s2.456-17.079,3.461-22.995,1.674-9.377,1.674-14.176a19.348,19.348,0,0,1,1.935-8.385s1.972,10.282,2.753,18.207,1.563,14.735-1.674,28.688a298.953,298.953,0,0,0-5.8,37.283c-1.117,10.6.893,30.585,3.125,42.641s7.368,24.669,9.489,35.273,3.013,17.972,2.232,25.9-.781,28.911,1.563,43.2" transform="translate(-6.376)" fill="none" stroke="#161615" stroke-linecap="round" stroke-linejoin="round" stroke-width="0.591"/>
      <path id="Path_920" data-name="Path 920" d="M1307.05,745.414s.939-4.075,4.812-4.075c2.971,0,5.007,4.837,5.007,4.837" transform="translate(-38.423 -136.839)" fill="none" stroke="#161615" stroke-linecap="round" stroke-linejoin="round" stroke-width="0.591"/>
      <path id="Path_921" data-name="Path 921" d="M1304.01,792.731a9.6,9.6,0,0,0,3.4,1.583c1.953.447,4.45-.17,7.31-1.4a12.249,12.249,0,0,0,4.317-2.763" transform="translate(-37.681 -148.769)" fill="none" stroke="#161615" stroke-linecap="round" stroke-linejoin="round" stroke-width="0.591"/>
      <path id="Path_922" data-name="Path 922" d="M1273.6,700.685c-1.34,9.265-.509,14.428-.249,15.5a29.94,29.94,0,0,1,1.266,4.707c.335,3.816-.737,6.16-.839,7.591s.391,4.761,0,9.693-.837,14.555,0,16.788,2.513,5.023,2.289,7.814.159,7.733,0,8.93c-.223,1.674-.671,2.79-2.289,2.9s-2.9-.546-2.9-1.674v-2.679s.168,3.684-2.288,3.684c-.848,0-1.912-.459-2.084-.931a7.647,7.647,0,0,1-.261-2.53,3.986,3.986,0,0,1-.725,1.949c-.558.786-2.116.37-2.511,0-.78-.731-.562-2.5-.6-2.945s-.069,1.655-1.413,1.655a2.021,2.021,0,0,1-2.121-1.384,10.325,10.325,0,0,1,.055-2.233s-.577,1.321-1.767.875c-.617-.232-1.18-.325-1.231-1.781-.054-1.55.063-1.769-.071-3.025-.2-1.865-.942-2.264.31-7.176s1.588-17.1,2.815-21.68,1.573-3.126.9-5.8-.107-3.237,0-6.586-4.259-20.316-6.6-34.6" transform="translate(-25.284 -123.738)" fill="none" stroke="#161615" stroke-linecap="round" stroke-linejoin="round" stroke-width="0.591"/>
      <path id="Path_923" data-name="Path 923" d="M1274.86,745.414s-.939-4.075-4.812-4.075c-2.971,0-5.007,4.837-5.007,4.837" transform="translate(-28.157 -136.839)" fill="none" stroke="#161615" stroke-linecap="round" stroke-linejoin="round" stroke-width="0.591"/>
      <path id="Path_924" data-name="Path 924" d="M1276.21,792.731a9.6,9.6,0,0,1-3.4,1.583c-1.953.447-4.45-.17-7.31-1.4a12.248,12.248,0,0,1-4.318-2.763" transform="translate(-27.213 -148.769)" fill="none" stroke="#161615" stroke-linecap="round" stroke-linejoin="round" stroke-width="0.591"/>
      <path id="Path_925" data-name="Path 925" d="M1263.06,226.567s.24,3.334,1,7.689a45.871,45.871,0,0,0,1.665,6.894" transform="translate(-27.672 -11.023)" fill="none" stroke="#161615" stroke-linecap="round" stroke-linejoin="round" stroke-width="0.591"/>
      <path id="Path_926" data-name="Path 926" d="M1323.81,232.881a7.455,7.455,0,0,0,.846-4.206.856.856,0,0,0-1.219-.587" transform="translate(-42.428 -11.374)" fill="none" stroke="#161615" stroke-linecap="round" stroke-linejoin="round" stroke-width="0.591"/>
      <path id="Path_927" data-name="Path 927" d="M1320.78,242.42s.084.24.679-.018c.528-.228.714-1.892.714-1.892" transform="translate(-41.778 -14.431)" fill="none" stroke="#161615" stroke-linecap="round" stroke-linejoin="round" stroke-width="0.591"/>
      <path id="Path_928" data-name="Path 928" d="M1262.27,232.8a7.457,7.457,0,0,1-.846-4.206.856.856,0,0,1,1.219-.587" transform="translate(-27.254 -11.354)" fill="none" stroke="#161615" stroke-linecap="round" stroke-linejoin="round" stroke-width="0.591"/>
      <path id="Path_929" data-name="Path 929" d="M1265.27,242.338s-.084.24-.679-.018c-.528-.228-.714-1.892-.714-1.892" transform="translate(-27.871 -14.411)" fill="none" stroke="#161615" stroke-linecap="round" stroke-linejoin="round" stroke-width="0.591"/>
      <path id="Path_930" data-name="Path 930" d="M1292.89,498.648a27.173,27.173,0,0,1-.193,5.248" transform="translate(-34.914 -77.523)" fill="none" stroke="#161615" stroke-linecap="round" stroke-linejoin="round" stroke-width="0.591"/>
      <path id="Path_931" data-name="Path 931" d="M1254.67,350.382c4.13,5.668,11.944,7.354,15.172-.051,4.288-9.836,6.106-31.689,6.183-33.964s-2.044-4.4-6.62-2.611" transform="translate(-25.621 -32.17)" fill="none" stroke="#161615" stroke-linecap="round" stroke-linejoin="round" stroke-width="0.591"/>
      <path id="Path_932" data-name="Path 932" d="M1324.64,350.382c-4.13,5.668-11.756,7.27-15.172-.051-4.487-9.616-6.4-31.361-6.183-33.964.191-2.27,2.044-4.4,6.62-2.611" transform="translate(-37.499 -32.17)" fill="none" stroke="#161615" stroke-linecap="round" stroke-linejoin="round" stroke-width="0.591"/>
      <path id="Path_933" data-name="Path 933" d="M1218.12,415.731c-1.266.913-3.208,1.779-4.352,1.275s-1.78-2.566-2.189-4.168" transform="translate(-15.089 -56.55)" fill="none" stroke="#161615" stroke-linecap="round" stroke-linejoin="round" stroke-width="0.591"/>
      <path id="Path_934" data-name="Path 934" d="M1365.12,415.731c1.266.913,3.208,1.779,4.351,1.275s1.78-2.566,2.19-4.168" transform="translate(-52.617 -56.55)" fill="none" stroke="#161615" stroke-linecap="round" stroke-linejoin="round" stroke-width="0.591"/>
      <path id="Path_935" data-name="Path 935" d="M1322.5,226.13a78.962,78.962,0,0,1-.969,8.081,41.181,41.181,0,0,1-1.823,7.1" transform="translate(-41.517 -10.916)" fill="none" stroke="#161615" stroke-linecap="round" stroke-linejoin="round" stroke-width="0.591"/>
      <path id="Path_936" data-name="Path 936" d="M1269.85,247.272s6.729-7.26,8.595-10.787,4.192-12.378,8.595-12.185" transform="translate(-29.332 -10.468)" fill="none" stroke="#161615" stroke-linecap="round" stroke-linejoin="round" stroke-width="0.591"/>
      <path id="Path_937" data-name="Path 937" d="M1310.35,247.948s-7.288-7.936-9.154-11.462-4.2-12.378-8.6-12.186" transform="translate(-34.892 -10.468)" fill="none" stroke="#161615" stroke-linecap="round" stroke-linejoin="round" stroke-width="0.591"/>
      <path id="Path_938" data-name="Path 938" d="M1272.52,259.957s5.467-2.88,7.461-4.833c2.482-2.432,6.143-6.509,8.351-5.966" transform="translate(-29.985 -16.532)" fill="none" stroke="#161615" stroke-linecap="round" stroke-linejoin="round" stroke-width="0.591"/>
      <path id="Path_939" data-name="Path 939" d="M1309.26,259.957s-5.467-2.88-7.461-4.833c-2.482-2.432-6.143-6.509-8.351-5.966" transform="translate(-35.1 -16.532)" fill="none" stroke="#161615" stroke-linecap="round" stroke-linejoin="round" stroke-width="0.591"/>
      <path id="Path_940" data-name="Path 940" d="M1269.85,273.106s12-8.081,17.584-8.139" transform="translate(-29.332 -20.408)" fill="none" stroke="#161615" stroke-linecap="round" stroke-linejoin="round" stroke-width="0.591"/>
      <path id="Path_941" data-name="Path 941" d="M1310.71,273.106s-12-8.081-17.584-8.139" transform="translate(-35.019 -20.408)" fill="none" stroke="#161615" stroke-linecap="round" stroke-linejoin="round" stroke-width="0.591"/>
      <path id="Path_942" data-name="Path 942" d="M1241.21,285.207s6.207,2.077,24.844-4.632c4.4-1.583,9.362-4.574,14.377-4.837" transform="translate(-22.332 -23.041)" fill="none" stroke="#161615" stroke-linecap="round" stroke-linejoin="round" stroke-width="0.591"/>
      <path id="Path_943" data-name="Path 943" d="M1332.34,285.207s-6.207,2.077-24.844-4.632c-4.4-1.583-9.362-4.574-14.377-4.837" transform="translate(-35.02 -23.041)" fill="none" stroke="#161615" stroke-linecap="round" stroke-linejoin="round" stroke-width="0.591"/>
      <path id="Path_944" data-name="Path 944" d="M1187.08,455.536s4.859-9.359,6.559-15.4,8.546-51.864,8.712-56.439,2.055-39.207,1.488-44.37-.189-30.1,5.022-35.763c4.62-5.025,14.984-8.227,21.99-9.256,6.576-.966,28.723-8.856,35.958-9.541" transform="translate(-9.101 -25.247)" fill="none" stroke="#161615" stroke-linecap="round" stroke-miterlimit="10" stroke-width="0.591"/>
      <path id="Path_945" data-name="Path 945" d="M1372.33,455.536s-4.859-9.359-6.559-15.4-8.546-51.864-8.712-56.439-2.055-39.207-1.489-44.37.189-30.1-5.022-35.763c-4.62-5.025-14.984-8.227-21.99-9.256-6.576-.966-28.723-8.856-35.958-9.541" transform="translate(-34.892 -25.247)" fill="none" stroke="#161615" stroke-linecap="round" stroke-miterlimit="10" stroke-width="0.591"/>
      <path id="Path_946" data-name="Path 946" d="M1199.64,467.765s4.055-15.672,4.244-22.661c0,0,14.545-40.991,13.412-58.18-.61-9.254-.2-68.27,1.322-72.348,2.078-5.554,5.569-8.808,20.257-13.66,0,0,24.055-7.594,31.92-7.4" transform="translate(-12.172 -27.385)" fill="none" stroke="#161615" stroke-linecap="round" stroke-miterlimit="10" stroke-width="0.591"/>
      <path id="Path_947" data-name="Path 947" d="M1362.97,467.765s-4.055-15.672-4.244-22.661c0,0-14.545-40.991-13.412-58.18.61-9.254.2-68.27-1.322-72.348-2.078-5.554-5.569-8.808-20.257-13.66,0,0-24.055-7.594-31.92-7.4" transform="translate(-34.7 -27.385)" fill="none" stroke="#161615" stroke-linecap="round" stroke-miterlimit="10" stroke-width="0.591"/>
      <path id="Path_948" data-name="Path 948" d="M1278.3,298.18c-2,0-6.326,2.428-9.146,3.877-2.869,1.475-14.7,4.094-19.058,5.311-6.76,1.889-17.3,7.216-16.353,10.819s3.073,43.149,3.073,43.149" transform="translate(-20.491 -28.526)" fill="none" stroke="#161615" stroke-linecap="round" stroke-miterlimit="10" stroke-width="0.591"/>
      <path id="Path_949" data-name="Path 949" d="M1333.83,361.333s2.128-39.546,3.072-43.149-9.592-8.93-16.352-10.819c-4.355-1.217-16.189-3.836-19.058-5.311-2.821-1.449-6.979-3.882-8.983-3.882" transform="translate(-34.87 -28.524)" fill="none" stroke="#161615" stroke-linecap="round" stroke-miterlimit="10" stroke-width="0.591"/>
      <path id="Path_950" data-name="Path 950" d="M1234.79,327.1s12.4-11.478,28.515-15.159c0,0,6.408-1.206,10.246-3.541s5.02-2.284,5.02-2.284" transform="translate(-20.761 -30.466)" fill="none" stroke="#161615" stroke-linecap="round" stroke-miterlimit="10" stroke-width="0.591"/>
      <path id="Path_951" data-name="Path 951" d="M1336.21,326.823s-12.1-11.2-28.21-14.881c0,0-6.408-1.206-10.247-3.541s-5.021-2.284-5.021-2.284" transform="translate(-34.923 -30.466)" fill="none" stroke="#161615" stroke-linecap="round" stroke-miterlimit="10" stroke-width="0.591"/>
      <path id="Path_952" data-name="Path 952" d="M1235.79,337.431s11.647-11.478,27.76-15.159c0,0,6.408-1.206,10.246-3.541s5.02-2.284,5.02-2.284" transform="translate(-21.005 -32.991)" fill="none" stroke="#161615" stroke-linecap="round" stroke-miterlimit="10" stroke-width="0.591"/>
      <path id="Path_953" data-name="Path 953" d="M1335.45,337.155s-11.342-11.2-27.454-14.881c0,0-6.408-1.206-10.247-3.541s-5.021-2.284-5.021-2.284" transform="translate(-34.923 -32.991)" fill="none" stroke="#161615" stroke-linecap="round" stroke-miterlimit="10" stroke-width="0.591"/>
      <path id="Path_954" data-name="Path 954" d="M1236.79,348.385s10.892-11.478,27-15.158c0,0,6.408-1.207,10.246-3.541s5.02-1.529,5.02-1.529" transform="translate(-21.25 -35.82)" fill="none" stroke="#161615" stroke-linecap="round" stroke-miterlimit="10" stroke-width="0.591"/>
      <path id="Path_955" data-name="Path 955" d="M1334.7,348.109s-10.586-11.2-26.7-14.881c0,0-6.408-1.206-10.247-3.541s-5.021-1.529-5.021-1.529" transform="translate(-34.923 -35.82)" fill="none" stroke="#161615" stroke-linecap="round" stroke-miterlimit="10" stroke-width="0.591"/>
      <path id="Path_956" data-name="Path 956" d="M1236.79,357.84s10.892-11.478,27-15.159c0,0,6.408-.45,10.246-2.785s5.02-1.529,5.02-1.529" transform="translate(-21.25 -38.315)" fill="none" stroke="#161615" stroke-linecap="round" stroke-miterlimit="10" stroke-width="0.591"/>
      <path id="Path_957" data-name="Path 957" d="M1334.7,357.563s-10.586-11.2-26.7-14.881c0,0-6.408-.45-10.247-2.786s-5.021-1.529-5.021-1.529" transform="translate(-34.923 -38.315)" fill="none" stroke="#161615" stroke-linecap="round" stroke-miterlimit="10" stroke-width="0.591"/>
      <path id="Path_958" data-name="Path 958" d="M1237.79,367.3a56.539,56.539,0,0,1,26.248-14.4s6.408-.45,10.246-2.785,5.02-1.529,5.02-1.529" transform="translate(-21.494 -40.811)" fill="none" stroke="#161615" stroke-linecap="round" stroke-miterlimit="10" stroke-width="0.591"/>
      <path id="Path_959" data-name="Path 959" d="M1333.94,367.018A55.573,55.573,0,0,0,1308,352.892s-6.408-.45-10.247-2.786-5.021-1.529-5.021-1.529" transform="translate(-34.923 -40.811)" fill="none" stroke="#161615" stroke-linecap="round" stroke-miterlimit="10" stroke-width="0.591"/>
      <path id="Path_960" data-name="Path 960" d="M1238.79,377.294a54.148,54.148,0,0,1,25.493-13.647s6.408-.45,10.246-2.785,5.02-1.529,5.02-1.529" transform="translate(-21.739 -43.439)" fill="none" stroke="#161615" stroke-linecap="round" stroke-miterlimit="10" stroke-width="0.591"/>
      <path id="Path_961" data-name="Path 961" d="M1333.19,377.017a53.029,53.029,0,0,0-25.19-13.37s-6.408-.45-10.247-2.786-5.021-1.529-5.021-1.529" transform="translate(-34.923 -43.439)" fill="none" stroke="#161615" stroke-linecap="round" stroke-miterlimit="10" stroke-width="0.591"/>
      <path id="Path_962" data-name="Path 962" d="M1239.33,384.986s8.97-8.29,25.082-11.971c0,0,6.408-.45,10.246-2.785s5.02-1.529,5.02-1.529" transform="translate(-21.872 -45.729)" fill="none" stroke="#161615" stroke-linecap="round" stroke-miterlimit="10" stroke-width="0.591"/>
      <path id="Path_963" data-name="Path 963" d="M1332.8,384.559s-8.689-7.863-24.8-11.543c0,0-6.408-.451-10.247-2.786s-5.02-1.529-5.02-1.529" transform="translate(-34.923 -45.729)" fill="none" stroke="#161615" stroke-linecap="round" stroke-miterlimit="10" stroke-width="0.591"/>
      <path id="Path_964" data-name="Path 964" d="M1240.59,393.7s6.681-8.991,24.132-11.254c0,0,6.408.3,10.246-2.03s5.02-1.529,5.02-1.529" transform="translate(-22.179 -48.22)" fill="none" stroke="#161615" stroke-linecap="round" stroke-miterlimit="10" stroke-width="0.591"/>
      <path id="Path_965" data-name="Path 965" d="M1331.71,393.7s-7.037-9.936-23.716-11.254c0,0-6.408.3-10.247-2.03s-5.021-1.529-5.021-1.529" transform="translate(-34.923 -48.22)" fill="none" stroke="#161615" stroke-linecap="round" stroke-miterlimit="10" stroke-width="0.591"/>
      <path id="Path_966" data-name="Path 966" d="M1241.41,401.035s6.061-8,23.512-10.033c0,0,6.408,1.061,10.246-1.275s5.021-1.529,5.021-1.529" transform="translate(-22.379 -50.495)" fill="none" stroke="#161615" stroke-linecap="round" stroke-miterlimit="10" stroke-width="0.591"/>
      <path id="Path_967" data-name="Path 967" d="M1331.27,401.512S1323.42,392.376,1308,391c0,0-6.408,1.061-10.247-1.274s-5.02-1.529-5.02-1.529" transform="translate(-34.923 -50.495)" fill="none" stroke="#161615" stroke-linecap="round" stroke-miterlimit="10" stroke-width="0.591"/>
      <path id="Path_968" data-name="Path 968" d="M1242.11,409.55s2.3-5.711,20.716-8.872c0,0,8.361.5,12.513-.519a20.479,20.479,0,0,1,5.021-.773" transform="translate(-22.551 -53.261)" fill="none" stroke="#161615" stroke-linecap="round" stroke-miterlimit="10" stroke-width="0.591"/>
      <path id="Path_969" data-name="Path 969" d="M1330.72,410.562s-4.718-7.826-20.453-9.885c0,0-8.044.4-12.513-.518a26.652,26.652,0,0,0-5.02-.774" transform="translate(-34.923 -53.262)" fill="none" stroke="#161615" stroke-linecap="round" stroke-miterlimit="10" stroke-width="0.591"/>
      <path id="Path_970" data-name="Path 970" d="M1242.36,417.966s2.107-6.388,20.522-9.548a122.6,122.6,0,0,0,12.513-.519c4.445-.652,5.02-.773,5.02-.773" transform="translate(-22.614 -55.154)" fill="none" stroke="#161615" stroke-linecap="round" stroke-miterlimit="10" stroke-width="0.591"/>
      <path id="Path_971" data-name="Path 971" d="M1330.6,418.349s-4.6-7.872-20.336-9.931c0,0-8.967.022-12.513-.518-4.442-.677-5.021-.774-5.021-.774" transform="translate(-34.923 -55.153)" fill="none" stroke="#161615" stroke-linecap="round" stroke-miterlimit="10" stroke-width="0.591"/>
      <path id="Path_972" data-name="Path 972" d="M1241.8,427.628s1.036-6.036,19.451-9.2c0,0,10.166-1.628,14.007-2.192,4.445-.652,5.02-.773,5.02-.773" transform="translate(-22.477 -57.192)" fill="none" stroke="#161615" stroke-linecap="round" stroke-miterlimit="10" stroke-width="0.591"/>
      <path id="Path_973" data-name="Path 973" d="M1331.13,428.573c.169.222-3.976-8.665-19.75-10.776,0,0-10.083-1.017-13.629-1.558-4.441-.677-5.021-.773-5.021-.773" transform="translate(-34.923 -57.192)" fill="none" stroke="#161615" stroke-linecap="round" stroke-miterlimit="10" stroke-width="0.591"/>
      <path id="Path_974" data-name="Path 974" d="M1320.02,439.063s-16.333-12.216-23.177-12.593c-7.445-.411-13.18-2.389-16.287-2.328h-1.511c-3.106-.061-8.84,1.921-16.286,2.328-5.124.28-23.089,11.069-23.177,11.082" transform="translate(-21.934 -59.312)" fill="none" stroke="#161615" stroke-linecap="round" stroke-miterlimit="10" stroke-width="0.591"/>
      <path id="Path_975" data-name="Path 975" d="M1321.52,450.2s-12.107-8.628-23.336-13.862c-3.786-2.141-14.108-5.115-18.337-4.781h-1.511c-4.227-.333-14.55,2.64-18.336,4.781-11.23,5.234-23.337,13.862-23.337,13.862" transform="translate(-21.22 -61.118)" fill="none" stroke="#161615" stroke-linecap="round" stroke-miterlimit="10" stroke-width="0.591"/>
      <path id="Path_976" data-name="Path 976" d="M1322.75,466.727s-14.07-16.753-25.3-21.987c-3.786-2.141-14.108-5.115-18.337-4.781H1277.6c-4.228-.333-14.55,2.641-18.337,4.781-11.229,5.234-25.588,20.6-25.588,20.6" transform="translate(-20.491 -63.172)" fill="none" stroke="#161615" stroke-linecap="round" stroke-miterlimit="10" stroke-width="0.591"/>
      <path id="Path_977" data-name="Path 977" d="M1249.81,625.307c-.3-2.478.91-16.864,1.85-21.65a244.626,244.626,0,0,0,2.658-25.942c.324-7.807-5-31.483-5-31.483-6.149-16.875-6.955-34.757-6.955-34.757s3.3-43.824,19.028-50.059c3.786-2.141,14.108-5.115,18.336-4.781h1.183c4.228-.333,14.55,2.641,18.337,4.781,15.73,6.235,19.027,50.059,19.027,50.059s-.806,17.883-6.955,34.757c0,0-5.325,23.676-5,31.483a244.593,244.593,0,0,0,2.659,25.942c.939,4.786,2.15,19.172,1.849,21.65" transform="translate(-22.614 -67.248)" fill="none" stroke="#161615" stroke-linecap="round" stroke-miterlimit="10" stroke-width="0.591"/>
      <path id="Path_978" data-name="Path 978" d="M1308.8,713.377s.371-17.2-.317-20.73-3-10.578-3.86-11.838-3.729-19.136-3.656-24.808c0,.657.849-60.554,0-73.67-.808-12.47-.277-79.417.379-83.155s5.608-7.013,3.68-22.921c-.607-5.016-14.44-9.946-19.688-10.033H1284.2c-5.248.088-19.08,5.017-19.688,10.033-1.928,15.908,3.025,19.183,3.681,22.921s1.233,70.688.379,83.155,0,73.67,0,73.67c.073,5.672-2.8,23.549-3.656,24.808s-3.172,8.312-3.86,11.838-.316,20.73-.316,20.73" transform="translate(-27.078 -69.598)" fill="none" stroke="#161615" stroke-linecap="round" stroke-miterlimit="10" stroke-width="0.591"/>
      <path id="Path_979" data-name="Path 979" d="M1304.68,782.954s.769-8.481,2.052-9.964,5.364-12.565,4.961-23.143.2-27.957.2-27.957" transform="translate(-37.844 -132.086)" fill="none" stroke="#161615" stroke-linecap="round" stroke-miterlimit="10" stroke-width="0.591"/>
      <path id="Path_980" data-name="Path 980" d="M1277.9,782.954s-.769-8.481-2.052-9.964-5.364-12.565-4.961-23.143-.2-27.957-.2-27.957" transform="translate(-29.537 -132.086)" fill="none" stroke="#161615" stroke-linecap="round" stroke-miterlimit="10" stroke-width="0.591"/>
      <path id="Path_981" data-name="Path 981" d="M1279.2,762.3s-3.036,9.263-2.154,12.411.716,8.862.716,8.862" transform="translate(-31.05 -141.962)" fill="none" stroke="#161615" stroke-linecap="round" stroke-miterlimit="10" stroke-width="0.591"/>
      <path id="Path_982" data-name="Path 982" d="M1305.06,762.3s3.036,9.263,2.154,12.411-.716,8.862-.716,8.862" transform="translate(-37.937 -141.962)" fill="none" stroke="#161615" stroke-linecap="round" stroke-miterlimit="10" stroke-width="0.591"/>
      <path id="Path_983" data-name="Path 983" d="M1279.55,703.285s-2.577-8.325-2.667-14.936,2.843-34.757,3.171-41.368-.256-22.1-.342-24.934,1.092-36.079,1.092-36.079a3.811,3.811,0,0,0,3.061-1.31" transform="translate(-31.049 -98.544)" fill="none" stroke="#161615" stroke-linecap="round" stroke-miterlimit="10" stroke-width="0.591"/>
      <path id="Path_984" data-name="Path 984" d="M1288.02,539.39c-.363,1.515-4.091,2.645-4.091,2.645-.549,3.211-1.863,32.868-1.863,32.868" transform="translate(-32.318 -87.481)" fill="none" stroke="#161615" stroke-linecap="round" stroke-miterlimit="10" stroke-width="0.591"/>
      <path id="Path_985" data-name="Path 985" d="M1284.54,534.566c0-19.834,5.748-25.735,5.748-25.735" transform="translate(-32.921 -80.012)" fill="none" stroke="#161615" stroke-linecap="round" stroke-miterlimit="10" stroke-width="0.591"/>
      <path id="Path_986" data-name="Path 986" d="M1303.32,703.285s2.577-8.325,2.667-14.936-2.843-34.757-3.17-41.368.256-22.1.342-24.934-1.092-36.079-1.092-36.079a3.811,3.811,0,0,1-3.061-1.31" transform="translate(-36.457 -98.544)" fill="none" stroke="#161615" stroke-linecap="round" stroke-miterlimit="10" stroke-width="0.591"/>
      <path id="Path_987" data-name="Path 987" d="M1295.18,539.39c.363,1.515,4.091,2.645,4.091,2.645.549,3.211,1.863,32.868,1.863,32.868" transform="translate(-35.521 -87.481)" fill="none" stroke="#161615" stroke-linecap="round" stroke-miterlimit="10" stroke-width="0.591"/>
      <path id="Path_988" data-name="Path 988" d="M1292.98,508.831s5.748,5.9,5.748,25.735" transform="translate(-34.985 -80.012)" fill="none" stroke="#161615" stroke-linecap="round" stroke-miterlimit="10" stroke-width="0.591"/>
      <path id="Path_989" data-name="Path 989" d="M1289.44,498.611s11.115,5.367,11.4-8.859c.177-8.968-5.916-14.229-10.407-14.358h-1.977c-4.492.128-10.584,5.39-10.407,14.358.281,14.226,11.4,8.859,11.4,8.859" transform="translate(-31.332 -71.839)" fill="none" stroke="#161615" stroke-linecap="round" stroke-miterlimit="10" stroke-width="0.591"/>
      <path id="Path_990" data-name="Path 990" d="M1290.92,499.132s6.5,3.139,6.667-5.183c.1-5.246-3.461-8.324-6.089-8.4h-1.156c-2.628.075-6.192,3.153-6.089,8.4.165,8.322,6.667,5.183,6.667,5.183" transform="translate(-32.852 -74.321)" fill="none" stroke="#161615" stroke-linecap="round" stroke-miterlimit="10" stroke-width="0.591"/>
      <path id="Path_991" data-name="Path 991" d="M1292,501.328s3.251,1.57,3.333-2.592c.052-2.623-1.73-4.162-3.044-4.2h-.577c-1.314.038-3.1,1.577-3.044,4.2.082,4.162,3.333,2.592,3.333,2.592" transform="translate(-33.931 -76.518)" fill="none" stroke="#161615" stroke-linecap="round" stroke-miterlimit="10" stroke-width="0.591"/>
      <text id="C-15" data-name="C" transform="translate(1252.483 207.967)" fill="#161615" font-size="6" font-family="ArialMT, Arial"><tspan x="0" y="0">C</tspan></text>
      <text id="_2" data-name="2" transform="translate(1258.927 207.967)" fill="#161615" font-size="6" font-family="ArialMT, Arial"><tspan x="0" y="0">2</tspan></text>
      <text id="C-16" data-name="C" transform="translate(1252.985 227.545)" fill="#161615" font-size="6" font-family="ArialMT, Arial"><tspan x="0" y="0">C</tspan></text>
      <text id="_3" data-name="3" transform="translate(1258.426 227.545)" fill="#161615" font-size="6" font-family="ArialMT, Arial"><tspan x="0" y="0">3</tspan></text>
      <text id="C-17" data-name="C" transform="translate(1253.565 242.79)" fill="#161615" font-size="6" font-family="ArialMT, Arial"><tspan x="0" y="0">C</tspan></text>
      <text id="_4" data-name="4" transform="translate(1258.939 242.79)" fill="#161615" font-size="6" font-family="ArialMT, Arial"><tspan x="0" y="0">4</tspan></text>
      <text id="Th1_" data-name="Th1 " transform="translate(1224.921 288.615) rotate(-26.693)" fill="#161615" font-size="6" font-family="ArialMT, Arial"><tspan x="0" y="0">Th1</tspan></text>
      <text id="Th2_" data-name="Th2 " transform="matrix(0.875, -0.485, 0.485, 0.875, 1225.806, 296.494)" fill="#161615" font-size="6" font-family="ArialMT, Arial"><tspan x="0" y="0">Th2</tspan></text>
      <text id="Th3_" data-name="Th3 " transform="matrix(0.872, -0.489, 0.489, 0.872, 1225.73, 304.211)" fill="#161615" font-size="6" font-family="ArialMT, Arial"><tspan x="0" y="0">Th3</tspan></text>
      <text id="Th4_" data-name="Th4 " transform="matrix(0.856, -0.518, 0.518, 0.856, 1225.8, 312.204)" fill="#161615" font-size="6" font-family="ArialMT, Arial"><tspan x="0" y="0">Th4</tspan></text>
      <text id="Th5_" data-name="Th5   " transform="matrix(0.861, -0.509, 0.509, 0.861, 1225.272, 319.591)" fill="#161615" font-size="6" font-family="ArialMT, Arial"><tspan x="0" y="0" xml:space="preserve">Th5  </tspan></text>
      <text id="Th6_" data-name="Th6   " transform="matrix(0.856, -0.517, 0.517, 0.856, 1222.541, 329.5)" fill="#161615" font-size="6" font-family="ArialMT, Arial"><tspan x="0" y="0" xml:space="preserve">Th6  </tspan></text>
      <text id="Th7_" data-name="Th7   " transform="translate(1225.572 333.402) rotate(-23.998)" fill="#161615" font-size="6" font-family="ArialMT, Arial"><tspan x="0" y="0" xml:space="preserve">Th7  </tspan></text>
      <text id="Th8_" data-name="Th8   " transform="matrix(0.915, -0.404, 0.404, 0.915, 1226.614, 339.087)" fill="#161615" font-size="6" font-family="ArialMT, Arial"><tspan x="0" y="0" xml:space="preserve">Th8  </tspan></text>
      <text id="Th9_" data-name="Th9   " transform="matrix(0.927, -0.376, 0.376, 0.927, 1227.637, 344.611)" fill="#161615" font-size="6" font-family="ArialMT, Arial"><tspan x="0" y="0" xml:space="preserve">Th9  </tspan></text>
      <text id="Th" transform="translate(1226.969 349.228) rotate(-15.856)" fill="#161615" font-size="5" font-family="ArialMT, Arial"><tspan x="0" y="0">Th</tspan></text>
      <text id="_1" data-name="1" transform="translate(1234.028 348.263) rotate(-15.856)" fill="#161615" font-size="6" font-family="ArialMT, Arial"><tspan x="0" y="0">1</tspan></text>
      <text id="_0_" data-name="0   " transform="translate(1236.796 347.477) rotate(-15.856)" fill="#161615" font-size="6" font-family="ArialMT, Arial"><tspan x="0" y="0" xml:space="preserve">0  </tspan></text>
      <text id="T" transform="matrix(0.964, -0.266, 0.266, 0.964, 1227.282, 355.309)" fill="#161615" font-size="5" font-family="ArialMT, Arial"><tspan x="0" y="0">T</tspan></text>
      <text id="h" transform="matrix(0.964, -0.266, 0.266, 0.964, 1230.998, 355.322)" fill="#161615" font-size="6" font-family="ArialMT, Arial"><tspan x="0" y="0">h</tspan></text>
      <text id="_1-2" data-name="1" transform="matrix(0.964, -0.266, 0.266, 0.964, 1234.115, 354.461)" fill="#161615" font-size="6" font-family="ArialMT, Arial"><tspan x="0" y="0">1</tspan></text>
      <text id="_1-3" data-name="1" transform="matrix(0.964, -0.266, 0.266, 0.964, 1236.772, 353.728)" fill="#161615" font-size="6" font-family="ArialMT, Arial"><tspan x="0" y="0">1</tspan></text>
      <text id="Th-2" data-name="Th" transform="translate(1227.092 361.664) rotate(-13.142)" fill="#161615" font-size="5" font-family="ArialMT, Arial"><tspan x="0" y="0">Th</tspan></text>
      <text id="_1-4" data-name="1" transform="translate(1234.189 361.034) rotate(-13.142)" fill="#161615" font-size="6" font-family="ArialMT, Arial"><tspan x="0" y="0">1</tspan></text>
      <text id="_2_" data-name="2   " transform="translate(1236.991 360.38) rotate(-13.142)" fill="#161615" font-size="6" font-family="ArialMT, Arial"><tspan x="0" y="0" xml:space="preserve">2  </tspan></text>
      <g id="Group_211" data-name="Group 211" transform="translate(1211.163 384.318)">
        <path id="Path_992" data-name="Path 992" d="M1231,492.691s10.036-25.917,16.228-30.32,14.04-12.9,29.724-12.417,27.946,7.164,33.774,15.541,13.242,22.946,13.242,22.946" transform="translate(-1230.999 -449.935)" fill="none" stroke="#161615" stroke-linecap="round" stroke-miterlimit="10" stroke-width="0.591"/>
      </g>
    </g>
  </g>
</svg>
